<?xml version="1.0" encoding="UTF-8" standalone="no"?>
<!DOCTYPE svg PUBLIC "-//W3C//DTD SVG 1.1//EN" "http://www.w3.org/Graphics/SVG/1.1/DTD/svg11.dtd">
<svg width="100%" height="100%" viewBox="0 0 1407 734" version="1.1" xmlns="http://www.w3.org/2000/svg" xmlns:xlink="http://www.w3.org/1999/xlink" xml:space="preserve" xmlns:serif="http://www.serif.com/" style="fill-rule:evenodd;clip-rule:evenodd;stroke-linecap:round;stroke-linejoin:round;stroke-miterlimit:1.5;">
    <g transform="matrix(1,0,0,1,-716,-680)">
        <g id="MirinTemplateLogoFlattened">
            <g transform="matrix(0.824502,0.56586,-0.56586,0.824502,980.031,-873.17)">
                <path d="M1679.02,765.155C1679.02,765.155 1980.67,891.031 1982.1,1133.43C1983.08,1299.36 1812.72,1370.5 1713.29,1445.82C1694.46,1460.08 1697.69,1487.19 1710.44,1507.15L1688.61,1579.47L1611.9,1560.13C1586.21,1523.24 1582.89,1494.89 1587.03,1463.74C1597.79,1382.81 1690.15,1322.65 1751.76,1276.65C1832.41,1216.42 1822.59,1109.64 1703.52,1059.85L1679.02,765.155Z" style="fill:url(#_Linear1);stroke:rgb(32,46,79);stroke-width:10px;"/>
            </g>
            <g transform="matrix(1,0,0,1,31.0478,135.747)">
                <circle cx="1234.86" cy="1101.59" r="135.747" style="fill:rgb(255,218,5);"/>
            </g>
            <g transform="matrix(0.522764,-0.14407,0.14407,0.522764,81.3194,961.65)">
                <path d="M1153.71,848.048C1154.14,846.924 1155.22,846.182 1156.43,846.182C1157.63,846.182 1158.71,846.924 1159.14,848.048L1181.48,906.368C1181.7,906.942 1182.04,907.464 1182.48,907.899C1182.91,908.334 1183.43,908.672 1184.01,908.892L1242.33,931.234C1243.45,931.665 1244.19,932.744 1244.19,933.948C1244.19,935.152 1243.45,936.232 1242.33,936.662L1184.01,959.005C1183.43,959.225 1182.91,959.563 1182.48,959.998C1182.04,960.433 1181.7,960.954 1181.48,961.528L1159.14,1019.85C1158.71,1020.97 1157.63,1021.72 1156.43,1021.72C1155.22,1021.72 1154.14,1020.97 1153.71,1019.85L1131.37,961.528C1131.15,960.954 1130.81,960.433 1130.38,959.998C1129.94,959.563 1129.42,959.225 1128.85,959.005L1070.53,936.662C1069.4,936.232 1068.66,935.152 1068.66,933.948C1068.66,932.744 1069.4,931.665 1070.53,931.234L1128.85,908.892C1129.42,908.672 1129.94,908.334 1130.38,907.899C1130.81,907.464 1131.15,906.942 1131.37,906.368L1153.71,848.048Z" style="fill:rgb(255,218,5);"/>
            </g>
            <g transform="matrix(1,0,0,1,-1389.96,94.5358)">
                <g transform="matrix(0.999708,-0.0241693,0.0241693,0.999708,103.116,26.9041)">
                    <path d="M2250.36,998.136C2254.68,998.136 2257.85,993.816 2258.14,989.784L2267.93,766.584L2267.93,766.008C2267.93,762.84 2266.2,758.808 2260.73,758.52L2203.42,755.64L2202.84,755.64C2198.81,755.64 2194.2,757.944 2193.05,759.384C2178.94,776.088 2151.87,818.424 2128.25,859.032C2127.68,859.896 2127.39,860.472 2126.81,860.472C2126.24,860.472 2125.95,860.184 2125.37,859.32C2101.76,818.712 2074.68,776.088 2060.57,759.384C2059.42,757.944 2053.66,755.64 2049.63,755.64L2049.05,755.64L1992.32,758.808C1986.84,759.384 1985.12,763.704 1985.12,766.872L1996.35,989.784C1996.35,993.816 1999.52,998.136 2004.12,998.136L2004.41,998.136L2059.71,993.528C2066.04,992.952 2070.08,986.904 2070.08,983.736L2070.08,983.448L2057.12,861.048L2057.12,859.032C2057.12,857.304 2057.4,856.152 2057.98,856.152C2058.84,856.152 2059.71,857.016 2060.86,858.456C2066.33,865.944 2087.36,909.144 2101.76,935.64C2103.48,939.096 2106.36,943.416 2111.55,943.416L2141.21,942.264C2147.55,941.976 2150.72,937.944 2151.87,935.64C2165.98,909.144 2187,864.216 2192.19,857.016C2193.34,855.576 2194.2,854.712 2194.78,854.712C2195.64,854.712 2195.93,855.864 2195.93,857.88L2195.93,859.32L2182.4,983.736L2182.4,984.024C2182.4,987.192 2185.28,993.528 2191.61,993.816L2250.08,998.136L2250.36,998.136Z" style="fill:url(#_Linear2);fill-rule:nonzero;"/>
                </g>
                <g transform="matrix(0.999708,0.0241802,-0.0241802,0.999708,126.893,-8.77577)">
                    <path d="M2377.37,994.68C2380.25,994.392 2382.84,991.8 2382.84,988.92L2382.84,988.344L2375.64,847.8C2375.64,844.92 2373.05,842.328 2370.17,842.328L2369.6,842.328L2312,845.208C2308.54,845.496 2306.24,848.088 2306.24,851.544L2313.44,991.8C2313.72,994.968 2316.03,997.56 2319.2,997.56L2319.77,997.56L2377.37,994.68ZM2380.25,795.096C2380.25,771.48 2361.24,752.472 2337.92,752.472C2314.3,752.472 2295.29,771.48 2295.29,795.096C2295.29,818.424 2314.3,837.432 2337.92,837.432C2361.24,837.432 2380.25,818.424 2380.25,795.096Z" style="fill:url(#_Linear3);fill-rule:nonzero;"/>
                </g>
                <g transform="matrix(0.990229,0.139447,-0.139447,0.990229,233,-311.831)">
                    <path d="M2488.25,994.968C2491.42,994.968 2494.01,992.376 2494.01,989.208L2494.01,988.632L2488.54,886.68C2493.15,885.528 2497.18,884.952 2501.21,884.952C2506.11,884.952 2511,885.816 2515.61,887.256C2516.76,887.544 2517.92,887.832 2518.78,887.832C2522.24,887.832 2525.12,885.816 2525.98,881.784L2534.33,841.176C2534.62,839.736 2534.91,838.584 2534.91,837.432C2534.91,833.976 2533.18,831.672 2528.86,830.52C2519.93,828.504 2510.43,827.352 2500.64,827.352C2486.24,827.352 2471.26,829.656 2455.71,834.552L2422.3,836.28C2419.13,836.28 2416.54,839.16 2416.54,842.616L2424.6,992.376C2424.6,995.832 2427.48,998.136 2430.94,998.136L2488.25,994.968Z" style="fill:url(#_Linear4);fill-rule:nonzero;"/>
                </g>
                <g transform="matrix(0.973194,0.229987,-0.229987,0.973194,347.843,-527.189)">
                    <path d="M2631.1,994.68C2633.98,994.392 2636.57,991.8 2636.57,988.92L2636.57,988.344L2629.37,847.8C2629.37,844.92 2626.78,842.328 2623.9,842.328L2623.32,842.328L2565.72,845.208C2562.27,845.496 2559.96,848.088 2559.96,851.544L2567.16,991.8C2567.45,994.968 2569.76,997.56 2572.92,997.56L2573.5,997.56L2631.1,994.68ZM2633.98,795.096C2633.98,771.48 2614.97,752.472 2591.64,752.472C2568.03,752.472 2549.02,771.48 2549.02,795.096C2549.02,818.424 2568.03,837.432 2591.64,837.432C2614.97,837.432 2633.98,818.424 2633.98,795.096Z" style="fill:url(#_Linear5);fill-rule:nonzero;"/>
                </g>
                <g transform="matrix(0.994323,-0.106401,0.106401,0.994323,-23.2981,344.127)">
                    <path d="M2852.86,918.072C2852.86,863.064 2808.51,827.352 2750.04,827.352C2739.68,827.352 2729.02,828.504 2717.79,830.808L2685.53,829.08L2684.96,829.08C2682.08,829.08 2679.48,831.672 2679.2,834.84L2671.42,984.6C2671.42,988.056 2673.72,990.648 2677.18,990.936L2734.78,993.816L2735.36,993.816C2738.24,993.816 2740.83,991.224 2740.83,988.344L2746.3,883.8C2767.32,884.952 2782.01,897.624 2782.01,927.864L2782.01,937.656C2782.01,988.92 2828.09,1004.18 2833.28,1004.18C2835.87,1004.18 2838.75,1003.32 2841.63,1001.02C2841.63,1001.02 2870.14,980.568 2870.14,979.992C2872.16,978.552 2873.02,976.824 2873.02,975.096C2873.02,971.928 2870.14,969.048 2868.41,967.608C2856.6,956.664 2852.86,943.704 2852.86,927.576L2852.86,918.072Z" style="fill:url(#_Linear6);fill-rule:nonzero;"/>
                </g>
            </g>
            <g transform="matrix(1,0,0,1,-229.53,-94.0499)">
                <g transform="matrix(0.999993,-0.00380496,0.00380496,0.999993,117.019,-82.0189)">
                    <path d="M1012.32,1501.43C1015.77,1501.14 1018.94,1498.26 1018.94,1494.52L1018.94,1494.23L1010.3,1329.49L1055.81,1327.19C1059.84,1326.9 1062.72,1323.44 1062.72,1319.7L1060.13,1267C1060.13,1262.96 1056.38,1260.08 1052.64,1260.08L938.591,1266.13L884.735,1269.01C880.991,1269.3 878.111,1272.18 878.111,1275.63L878.111,1276.21L880.703,1329.49C880.703,1333.24 884.159,1336.12 888.191,1336.12L935.423,1333.52L944.063,1497.97C944.063,1501.43 946.943,1504.6 950.687,1504.6L951.263,1504.6L1012.32,1501.43Z" style="fill:url(#_Linear7);"/>
                </g>
                <g transform="matrix(0.967932,-0.251211,0.251211,0.967932,-243.548,271.646)">
                    <path d="M1185.98,1507.48C1194.34,1507.48 1198.08,1503.44 1200.38,1498.84C1204.7,1489.04 1212.19,1469.46 1212.19,1466.58C1212.19,1461.68 1207.3,1459.09 1203.26,1459.09L1202.69,1459.09C1200.67,1459.38 1198.37,1459.38 1196.35,1459.38C1160.35,1459.38 1145.38,1436.34 1145.38,1415.89C1145.38,1398.04 1156.89,1385.94 1170.72,1385.94C1182.82,1385.94 1188.29,1395.15 1188.29,1397.75C1188.29,1401.78 1186.27,1402.36 1171.3,1405.81C1167.55,1406.67 1165.25,1408.12 1165.25,1411.28C1165.25,1412.43 1170.72,1431.15 1174.17,1440.66C1175.33,1444.12 1176.77,1446.13 1181.38,1446.13C1196.35,1445.56 1217.66,1442.39 1231.2,1437.78C1248.19,1432.02 1253.66,1421.08 1253.66,1407.83C1253.66,1398.32 1250.5,1334.67 1179.07,1334.67C1113.41,1334.67 1084.32,1377.88 1084.32,1419.06C1084.32,1462.84 1117.15,1507.48 1182.53,1507.48L1185.98,1507.48Z" style="fill:url(#_Linear8);"/>
                </g>
                <g transform="matrix(0.984576,0.174959,-0.174959,0.984576,321.077,-315.249)">
                    <path d="M1436.26,1500.28C1439.42,1499.99 1441.73,1497.39 1441.73,1493.94L1436.54,1391.12C1452.96,1393.43 1459.01,1404.95 1460.45,1436.05C1463.9,1492.79 1509.12,1501.71 1513.15,1501.71C1516.03,1501.71 1518.62,1500.56 1521.79,1497.68C1521.79,1497.68 1546.27,1474.36 1546.27,1473.78C1548,1472.34 1548.58,1470.61 1548.58,1469.17C1548.58,1466 1545.12,1463.12 1543.39,1461.68C1529.86,1451.03 1526.69,1436.91 1525.54,1418.19C1522.37,1365.78 1485.21,1333.81 1434.53,1333.81C1418.4,1333.81 1400.83,1336.98 1382.4,1343.89C1371.17,1339.57 1359.07,1337.56 1346.11,1337.56C1332.29,1337.56 1317.89,1339.86 1303.2,1344.76L1285.92,1345.62C1283.04,1345.91 1280.74,1348.21 1280.74,1351.38L1280.74,1351.95L1287.93,1501.71C1288.22,1504.88 1290.53,1507.48 1293.41,1507.48L1293.98,1507.48L1347.84,1504.88C1351.01,1504.6 1353.31,1502 1353.31,1498.55L1348.13,1394C1366.27,1395.44 1372.32,1407.54 1373.76,1436.63L1376.64,1497.39C1376.93,1500.56 1379.23,1503.15 1382.11,1503.15L1382.69,1503.15L1436.26,1500.28Z" style="fill:url(#_Linear9);"/>
                </g>
                <g transform="matrix(0.970833,-0.239756,0.239756,0.970833,-267.727,352.191)">
                    <path d="M1627.49,1580.34C1630.94,1580.34 1633.54,1578.04 1633.82,1574.58L1637.57,1502.87C1648.22,1506.32 1660.03,1508.05 1672.13,1508.05C1726.56,1508.05 1763.71,1474.93 1763.71,1422.52C1763.71,1370.1 1718.21,1333.24 1667.52,1333.24C1655.42,1333.24 1642.75,1335.54 1630.37,1340.15L1582.27,1337.56L1581.69,1337.56C1578.82,1337.56 1576.22,1340.15 1575.93,1343.32L1564.41,1570.84L1564.41,1571.41C1564.41,1574.58 1567.01,1577.17 1569.89,1577.17L1627.49,1580.34ZM1643.33,1391.7C1648.22,1390.26 1653.12,1389.39 1657.73,1389.39C1677.89,1389.39 1692.86,1403.22 1692.86,1423.09C1692.86,1454.77 1665.22,1454.77 1662.91,1454.77C1654.85,1454.77 1646.5,1452.47 1640.16,1449.3L1643.33,1391.7Z" style="fill:url(#_Linear10);"/>
                </g>
                <g transform="matrix(0.99941,0.0343573,-0.0343573,0.99941,53.8642,-150.546)">
                    <path d="M1859.9,1501.71C1863.07,1501.71 1865.66,1499.12 1865.66,1495.95L1865.66,1260.66C1865.66,1257.2 1863.07,1254.61 1859.9,1254.61L1802.02,1254.61C1798.85,1254.61 1796.26,1257.2 1796.26,1260.66L1796.26,1495.95C1796.26,1499.12 1798.85,1501.71 1802.02,1501.71L1859.9,1501.71Z" style="fill:url(#_Linear11);"/>
                </g>
                <g transform="matrix(0.98941,-0.145148,0.145148,0.98941,-197.164,226.37)">
                    <path d="M2095.78,1465.71C2096.35,1464.56 2096.64,1463.7 2096.64,1463.12C2096.64,1460.24 2093.47,1458.52 2090.59,1457.08C2081.38,1452.18 2078.21,1439.8 2078.21,1422.52C2078.21,1403.51 2082.24,1378.45 2086.27,1352.24L2086.27,1350.8C2086.27,1347.35 2084.26,1343.6 2076.77,1343.03L2026.94,1338.71L2025.5,1338.71C2022.05,1338.71 2019.46,1339.57 2017.73,1341.59C2006.5,1336.69 1992.38,1333.52 1977.98,1333.52C1920.96,1333.52 1896.48,1383.35 1896.48,1417.91C1896.48,1464.28 1937.95,1501.14 1986.05,1501.14C2000.74,1501.14 2016.29,1497.68 2031.26,1489.91C2045.66,1503.44 2065.82,1508.05 2068.7,1508.05C2072.45,1508.05 2075.33,1505.46 2077.92,1500.56L2095.78,1465.71ZM2011.39,1444.69C2004.77,1447.57 1998.43,1448.72 1992.96,1448.72C1974.24,1448.72 1963.01,1434.9 1963.01,1418.77C1963.01,1404.08 1973.09,1386.52 1991.23,1386.52C1999.58,1386.52 2007.36,1390.55 2010.82,1396.31C2010.24,1404.95 2009.95,1412.72 2009.95,1420.21C2009.95,1429.14 2010.53,1437.2 2011.39,1444.69Z" style="fill:url(#_Linear12);"/>
                </g>
                <g transform="matrix(1,0,0,1,-55.955,-166.16)">
                    <path d="M2226.53,1460.53C2226.82,1459.67 2227.1,1458.8 2227.1,1458.23C2227.1,1455.06 2223.65,1453.91 2220.48,1452.47C2207.81,1447 2204.35,1427.12 2204.35,1400.91L2223.36,1401.78L2223.93,1401.78C2227.1,1401.78 2229.41,1399.19 2229.7,1396.31L2233.15,1348.5C2233.15,1345.04 2230.56,1342.16 2227.39,1342.16L2207.52,1341.01C2208.38,1328.91 2209.25,1316.24 2209.82,1304.15C2209.82,1299.25 2207.52,1296.37 2202.62,1296.08L2148.19,1293.49L2147.04,1293.49C2139.55,1293.49 2138.97,1298.96 2138.69,1302.42C2137.82,1314.8 2137.25,1326.61 2136.67,1337.56L2118.24,1336.4C2114.78,1336.4 2112.19,1339 2111.9,1342.16L2108.45,1389.97C2108.45,1393.14 2111.04,1396.02 2114.21,1396.31L2135.81,1397.46C2137.25,1470.32 2153.38,1495.67 2199.74,1504.88C2200.61,1505.17 2201.47,1505.17 2202.34,1505.17C2206.66,1505.17 2209.25,1502.29 2211.55,1496.82L2226.53,1460.53Z" style="fill:url(#_Linear13);"/>
                </g>
                <g transform="matrix(1,0,0,1,-72.1993,-101.504)">
                    <path d="M2356.7,1507.48C2365.05,1507.48 2368.8,1503.44 2371.1,1498.84C2375.42,1489.04 2382.91,1469.46 2382.91,1466.58C2382.91,1461.68 2378.01,1459.09 2373.98,1459.09L2373.41,1459.09C2371.39,1459.38 2369.09,1459.38 2367.07,1459.38C2331.07,1459.38 2316.1,1436.34 2316.1,1415.89C2316.1,1398.04 2327.62,1385.94 2341.44,1385.94C2353.53,1385.94 2359.01,1395.15 2359.01,1397.75C2359.01,1401.78 2356.99,1402.36 2342.01,1405.81C2338.27,1406.67 2335.97,1408.12 2335.97,1411.28C2335.97,1412.43 2341.44,1431.15 2344.89,1440.66C2346.05,1444.12 2347.49,1446.13 2352.1,1446.13C2367.07,1445.56 2388.38,1442.39 2401.92,1437.78C2418.91,1432.02 2424.38,1421.08 2424.38,1407.83C2424.38,1398.32 2421.22,1334.67 2349.79,1334.67C2284.13,1334.67 2255.04,1377.88 2255.04,1419.06C2255.04,1462.84 2287.87,1507.48 2353.25,1507.48L2356.7,1507.48Z" style="fill:url(#_Linear14);"/>
                </g>
            </g>
            <g transform="matrix(0.965926,0.258819,-0.258819,0.965926,246.68,-270.315)">
                <g transform="matrix(-1.20202,1.07156e-16,6.13466e-17,0.938118,3385.2,189.744)">
                    <path d="M1481.98,750.784L1517.45,705.331L1566.87,768.655L1442.08,928.549L1317.29,768.655L1366.71,705.331L1402.19,750.784L1402.19,616.868L1481.98,616.868L1481.98,750.784Z" style="fill:url(#_Radial15);"/>
                </g>
                <g transform="matrix(-1.20202,1.11022e-16,8.32667e-17,0.938118,3385.2,189.744)">
                    <path d="M1495.29,709.608L1495.29,599.812L1388.88,599.812L1388.88,709.608L1366.71,681.211L1298.47,768.655L1442.08,952.669L1585.69,768.655L1517.45,681.211L1495.29,709.608ZM1481.98,750.784L1517.45,705.331L1566.87,768.655L1442.08,928.549L1317.29,768.655L1366.71,705.331L1402.19,750.784L1402.19,616.868L1481.98,616.868L1481.98,750.784Z" style="fill:rgb(75,42,42);"/>
                </g>
                <g transform="matrix(-1.20202,1.07156e-16,6.13466e-17,0.938118,3385.2,189.744)">
                    <path d="M1488.63,730.196L1488.63,608.34L1395.53,608.34L1395.53,730.196L1366.71,693.271L1307.88,768.655L1442.08,940.609L1576.28,768.655L1517.45,693.271L1488.63,730.196ZM1486.68,756.814L1517.45,717.391L1557.46,768.655L1442.08,916.489L1326.7,768.655L1366.71,717.391L1408.84,771.371L1408.84,625.395C1408.84,625.395 1475.32,625.395 1475.32,625.395L1475.32,771.371L1486.68,756.814Z" style="fill:white;"/>
                </g>
            </g>
            <g transform="matrix(0.5,-0.866025,0.866025,0.5,236.039,1805.56)">
                <g transform="matrix(-1.20202,4.40784e-16,3.21727e-16,0.938118,3385.2,189.744)">
                    <path d="M1481.98,750.784L1517.45,705.331L1566.87,768.655L1442.08,928.549L1317.29,768.655L1366.71,705.331L1402.19,750.784L1402.19,616.868L1481.98,616.868L1481.98,750.784Z" style="fill:url(#_Radial16);"/>
                </g>
                <g transform="matrix(-1.20202,4.44089e-16,2.77556e-16,0.938118,3385.2,189.744)">
                    <path d="M1495.29,709.608L1495.29,599.812L1388.88,599.812L1388.88,709.608L1366.71,681.211L1298.47,768.655L1442.08,952.669L1585.69,768.655L1517.45,681.211L1495.29,709.608ZM1481.98,750.784L1517.45,705.331L1566.87,768.655L1442.08,928.549L1317.29,768.655L1366.71,705.331L1402.19,750.784L1402.19,616.868L1481.98,616.868L1481.98,750.784Z" style="fill:rgb(42,51,75);"/>
                </g>
                <g transform="matrix(-1.20202,4.40784e-16,3.21727e-16,0.938118,3385.2,189.744)">
                    <path d="M1488.63,730.196L1488.63,608.34L1395.53,608.34L1395.53,730.196L1366.71,693.271L1307.88,768.655L1442.08,940.609L1576.28,768.655L1517.45,693.271L1488.63,730.196ZM1486.68,756.814L1517.45,717.391L1557.46,768.655L1442.08,916.489L1326.7,768.655L1366.71,717.391L1408.84,771.371L1408.84,625.395C1408.84,625.395 1475.32,625.395 1475.32,625.395L1475.32,771.371L1486.68,756.814Z" style="fill:white;"/>
                </g>
            </g>
            <g transform="matrix(1,0,0,1,-229.53,-94.0499)">
                <path d="M1139.7,1373.81L1141.64,1408.32L1141.64,1408.61C1141.65,1412.35 1138.5,1415.24 1135.04,1415.55L1074,1418.95L1073.42,1418.95C1069.68,1418.96 1066.79,1415.81 1066.77,1412.35L1064.28,1368.02C1069.12,1368.01 1073.98,1368.08 1078.86,1368.24C1099.63,1368.91 1119.73,1371.2 1139.7,1373.81ZM1247.1,1383.3C1256.2,1386.56 1267.53,1387.2 1281.05,1383.69C1283,1383.18 1285.23,1382.6 1287.11,1381.82L1287.67,1381.67C1291.57,1380.66 1296.96,1381.94 1298.19,1386.68C1298.92,1389.47 1296.59,1410.3 1294.87,1420.87C1293.79,1425.91 1291.18,1430.75 1283.1,1432.85L1279.75,1433.72C1218.57,1449.59 1176.36,1417.44 1163.68,1377C1190.87,1380.6 1218.22,1383.8 1247.1,1383.3ZM1395.89,1361.09L1391.33,1396.96C1390.73,1400.36 1388,1402.51 1384.83,1402.24L1331.36,1395.37L1330.79,1395.27C1327.95,1394.76 1326.14,1391.81 1326.41,1388.64L1328.04,1375.95C1350.99,1372.19 1373.34,1367.14 1395.89,1361.09ZM1488.57,1333.55L1479.19,1407.89C1478.58,1411.29 1475.86,1413.44 1472.69,1413.17L1419.45,1406.63L1418.88,1406.53C1416.04,1406.03 1414.23,1403.07 1414.5,1399.9L1420.41,1354.15C1425.73,1352.58 1431.07,1350.96 1436.45,1349.3C1454.05,1343.85 1471.32,1338.52 1488.57,1333.55ZM1573.22,1313.3C1575.74,1323.91 1576.4,1335.54 1574.96,1347.98C1572.82,1366.61 1573.47,1381.06 1584.93,1393.92C1586.38,1395.64 1589.28,1399.08 1588.72,1402.2C1588.47,1403.62 1587.6,1405.22 1585.65,1406.33C1585.55,1406.9 1557.36,1425.58 1557.36,1425.58C1553.74,1427.87 1550.99,1428.55 1548.15,1428.04C1544.18,1427.34 1501.22,1410.64 1507.75,1354.17C1509.17,1343.27 1509.6,1334.67 1508.86,1327.89C1529.97,1322.2 1551.23,1317.19 1573.22,1313.3ZM1785.58,1310.29C1785.59,1310.31 1785.59,1310.33 1785.6,1310.36C1798.17,1361.24 1770.04,1402.3 1717.19,1415.36C1705.45,1418.26 1693.57,1419.41 1682.4,1418.61L1695.96,1489.13C1696.51,1492.55 1694.54,1495.41 1691.19,1496.24L1634.51,1506.97C1631.71,1507.66 1628.57,1505.77 1627.81,1502.69L1627.68,1502.13L1590.52,1310.49C1603.42,1308.59 1616.61,1307.1 1630.2,1306.1C1644.14,1305.07 1658.04,1304.55 1671.91,1304.43C1668.37,1305.6 1664.81,1307.28 1661.34,1309.3L1672.07,1365.98C1678.98,1367.54 1687.64,1367.77 1695.47,1365.84C1697.71,1365.29 1724.55,1358.66 1716.95,1327.9C1714.13,1316.45 1706.69,1308.34 1697.02,1304.64C1726.68,1305.34 1756.18,1307.59 1785.58,1310.29ZM1870.13,1318.39L1867.03,1408.63C1866.92,1411.79 1864.24,1414.29 1861.07,1414.18L1803.22,1412.19C1800.05,1412.09 1797.55,1409.41 1797.66,1406.24L1800.91,1311.73C1824.04,1313.96 1847.11,1316.36 1870.13,1318.39ZM2063.79,1313.8C2064.14,1320.41 2064.69,1326.58 2065.51,1332.17C2068.02,1349.27 2072.95,1361.06 2082.78,1364.57C2085.84,1365.58 2089.22,1366.83 2089.64,1369.68C2089.72,1370.25 2089.56,1371.14 2089.16,1372.37L2076.55,1409.44C2074.7,1414.66 2072.23,1417.64 2068.52,1418.18C2065.67,1418.6 2045.06,1416.97 2028.84,1405.67C2015.16,1415.53 2000.27,1421.21 1985.74,1423.34C1938.15,1430.32 1891.77,1399.87 1885.04,1353.99C1883.53,1343.71 1884.01,1331.75 1886.95,1319.81C1892.54,1320.26 1898.12,1320.67 1903.69,1321.05C1920.94,1322.22 1938.16,1322.56 1955.34,1322.25C1951.31,1329.2 1949.9,1337.76 1950.99,1345.19C1953.33,1361.15 1966.45,1373.19 1984.97,1370.48C1990.38,1369.68 1996.48,1367.62 2002.62,1363.81C2000.68,1356.53 1998.94,1348.63 1997.64,1339.8C1996.75,1333.69 1996.02,1327.37 1995.4,1320.5C2018.21,1318.95 2040.99,1316.56 2063.79,1313.8ZM2168.12,1300.32L2155.6,1330.66C2153.29,1336.13 2150.7,1339.01 2146.38,1339.01C2145.52,1339.01 2144.65,1339.01 2143.79,1338.72C2121.02,1334.2 2105.55,1325.79 2095.52,1309.77C2119.67,1306.6 2143.86,1303.26 2168.12,1300.32ZM2251.43,1292.66C2246.79,1297.92 2243.89,1305.43 2243.89,1314.39C2243.89,1334.84 2258.87,1357.88 2294.87,1357.88C2296.89,1357.88 2299.19,1357.88 2301.21,1357.59L2301.78,1357.59C2305.82,1357.59 2310.71,1360.18 2310.71,1365.08C2310.71,1367.95 2303.22,1387.54 2298.9,1397.33C2296.6,1401.94 2292.86,1405.97 2284.5,1405.97L2281.05,1405.97C2215.67,1405.97 2182.84,1361.33 2182.84,1317.56C2182.84,1311.15 2183.54,1304.69 2184.98,1298.35C2207.05,1295.88 2229.19,1293.84 2251.43,1292.66ZM2351.89,1300.28C2352.13,1303.02 2352.18,1305.11 2352.18,1306.32C2352.18,1319.57 2346.71,1330.52 2329.72,1336.28C2316.18,1340.88 2294.87,1344.05 2279.89,1344.63C2275.29,1344.63 2273.85,1342.61 2272.7,1339.15C2269.24,1329.65 2263.77,1310.93 2263.77,1309.78C2263.77,1306.61 2266.07,1305.17 2269.82,1304.31C2284.79,1300.85 2286.81,1300.28 2286.81,1296.24C2286.81,1295.31 2286.1,1293.51 2284.62,1291.6C2285.77,1291.59 2286.93,1291.58 2288.08,1291.57C2312.8,1291.45 2333.9,1294.63 2351.89,1300.28ZM1065.72,1180.23L1056.59,1196.04L1032.49,1182.13L1060.42,1180.53L1065.72,1180.23ZM1132.97,1254.16L1126.74,1250.57L1129.79,1261.95L1106.56,1268.17L1092.36,1215.19L1145.35,1200.99L1151.57,1224.22L1140.19,1227.27L1164,1241.01L1163.47,1241.93L1132.37,1243.62L1132.97,1254.16ZM1305.76,1285.83L1233.05,1305.31L1223.62,1270.1C1226.63,1269.1 1229.75,1268.17 1233,1267.33C1269.7,1257.8 1292.29,1270.47 1305.76,1285.83ZM1340.83,1276.43L1345.52,1239.93L1345.62,1239.36C1346.18,1236.24 1348.85,1234.38 1351.73,1234.6L1368.9,1236.77C1371.45,1236.39 1373.99,1236.09 1376.5,1235.85L1384.25,1264.8L1340.83,1276.43ZM1872.45,1250.93L1801.59,1291.84L1805.75,1171.08C1805.86,1167.63 1808.54,1165.13 1811.71,1165.24L1869.56,1167.23C1872.73,1167.34 1875.23,1170.02 1875.11,1173.47L1872.45,1250.93ZM2175.97,1199.34L2171.98,1184.44L2177.14,1183.06L2175.97,1199.34ZM2148.43,1238.8L2114.84,1219.41L2137.31,1180.49L2175.73,1202.67L2173.74,1230.15C2173.45,1233.03 2171.15,1235.62 2167.98,1235.62L2167.4,1235.62L2148.4,1234.76C2148.4,1236.12 2148.41,1237.47 2148.43,1238.8ZM2159.22,1282.7L2145.99,1286.25L2135.6,1247.46L2148.56,1243.98C2149.22,1261.72 2152.05,1275.64 2159.22,1282.7ZM2195.34,1273.03C2202.96,1260.81 2214.18,1250.25 2229.27,1243.08L2234.48,1262.54L2195.34,1273.03Z" style="fill:url(#_Linear17);"/>
            </g>
            <g transform="matrix(0.213786,-0.00488936,0.00488936,0.213786,575.564,759.457)">
                <path d="M6735.15,1939.18L6731.19,1968.22L6696.42,1963.48L6698.78,1946.21C6710.54,1943.49 6722.67,1941.13 6735.15,1939.18ZM7079.53,2015.75L7054.08,2012.27L7056.22,1996.56C7064.52,2002.67 7072.27,2009.08 7079.53,2015.75ZM7132.79,2081.63L7107.9,2078.24L7111.66,2050.64C7119.52,2060.73 7126.53,2071.12 7132.79,2081.63ZM7028.19,2031.95L7023.44,2066.72L6988.68,2061.97L6993.42,2027.21L7028.19,2031.95ZM6855.15,1949.72L6850.41,1984.49L6815.64,1979.74L6820.38,1944.98L6855.15,1949.72ZM6670.53,1983.15L6665.78,2017.92L6631.02,2013.17L6635.76,1978.41L6670.53,1983.15ZM6908.97,2015.68L6904.22,2050.45L6869.46,2045.71L6874.2,2010.94L6908.97,2015.68ZM6605.13,2032.85L6600.38,2067.62L6565.62,2062.87L6570.36,2028.11L6605.13,2032.85ZM6789.75,1999.42L6785,2034.18L6750.24,2029.44L6754.98,1994.67L6789.75,1999.42ZM6724.35,2049.12L6719.6,2083.88L6684.84,2079.14L6689.58,2044.37L6724.35,2049.12ZM6843.57,2065.38L6838.82,2100.15L6804.06,2095.4L6808.8,2060.64L6843.57,2065.38ZM6974.37,1965.99L6969.63,2000.75L6934.86,1996.01L6939.6,1961.24L6974.37,1965.99ZM6962.78,2081.65L6958.04,2116.41L6923.28,2111.67L6928.02,2076.9L6962.78,2081.65ZM7082.01,2097.91L7077.26,2132.68L7042.5,2127.93L7047.24,2093.17L7082.01,2097.91ZM5812.6,1650.08L5842.92,1654.21L5838.18,1688.98L5809.27,1685.03L5812.6,1650.08ZM5906.14,1620.54L5903.58,1639.28L5868.81,1634.54L5871.13,1617.55L5906.14,1620.54ZM6046.29,1421.88L6045.97,1424.22L6011.2,1419.48L6011.21,1419.4L6046.29,1421.88ZM6166.57,1430.37L6165.19,1440.49L6130.42,1435.74L6131.49,1427.89L6166.57,1430.37ZM6272.35,1455.11L6249.64,1452.01L6251.65,1437.28C6261.96,1440.08 6268.79,1446.16 6272.35,1455.11ZM6267.42,1571.68L6238.06,1567.67L6242.8,1532.91L6270.44,1536.68C6269.46,1548.33 6268.45,1560.01 6267.42,1571.68ZM6377.7,1703.97L6345.69,1699.6L6350.44,1664.83L6375.83,1668.3C6378.34,1672.92 6379.73,1678.33 6379.6,1684.04L6377.7,1703.97ZM5921.69,2007.25L5939.04,2011.08L5931.48,2045.34L5924.18,2043.73C5923.2,2031.93 5922.37,2019.78 5921.69,2007.25ZM5985.31,1439.15L5980.57,1473.92L5945.8,1469.18L5950.54,1434.41L5985.31,1439.15ZM6104.53,1455.42L6099.78,1490.18L6065.02,1485.44L6069.76,1450.68L6104.53,1455.42ZM6223.75,1471.68L6219,1506.45L6184.24,1501.71L6188.98,1466.94L6223.75,1471.68ZM6158.35,1521.38L6153.6,1556.15L6118.84,1551.41L6123.58,1516.64L6158.35,1521.38ZM6200.58,1703.01L6195.84,1737.78L6161.07,1733.03L6165.81,1698.27L6200.58,1703.01ZM6265.98,1653.31L6261.24,1688.08L6226.47,1683.33L6231.22,1648.57L6265.98,1653.31ZM6027.54,1620.78L6022.8,1655.55L5988.03,1650.8L5992.78,1616.04L6027.54,1620.78ZM6039.13,1505.12L6034.38,1539.88L5999.62,1535.14L6004.36,1500.38L6039.13,1505.12ZM6212.16,1587.35L6207.42,1622.11L6172.65,1617.37L6177.4,1582.6L6212.16,1587.35ZM6081.36,1686.74L6076.62,1721.51L6041.85,1716.77L6046.59,1682L6081.36,1686.74ZM6092.94,1571.08L6088.2,1605.85L6053.44,1601.1L6058.18,1566.34L6092.94,1571.08ZM5962.14,1670.48L5957.4,1705.24L5922.63,1700.5L5927.37,1665.74L5962.14,1670.48ZM6319.8,1719.28L6315.06,1754.04L6280.29,1749.3L6285.03,1714.53L6319.8,1719.28ZM6146.76,1637.05L6142.02,1671.81L6107.25,1667.07L6112,1632.3L6146.76,1637.05ZM5973.72,1554.82L5968.98,1589.58L5934.22,1584.84L5938.96,1550.07L5973.72,1554.82ZM5102.99,2123.93L5122.87,2128.32L5115.3,2162.58L5081.04,2155.02L5082.88,2146.68C5089.22,2138.87 5095.92,2131.27 5102.99,2123.93ZM5159.1,2076.84L5192.11,2084.12L5184.54,2118.38L5150.28,2110.82L5157.55,2077.88C5158.07,2077.53 5158.58,2077.18 5159.1,2076.84ZM5242.42,2035.75L5261.34,2039.92L5253.78,2074.19L5219.52,2066.62L5224.9,2042.22C5230.62,2039.94 5236.46,2037.78 5242.42,2035.75ZM5325.91,2016.91L5323.02,2029.99L5290.21,2022.75C5301.54,2020.4 5313.23,2018.47 5325.3,2016.98C5325.5,2016.96 5325.7,2016.93 5325.91,2016.91ZM5415.42,2014.45L5448.08,2021.66L5440.51,2055.93L5406.25,2048.36L5413.76,2014.35C5414.31,2014.38 5414.86,2014.42 5415.42,2014.45ZM5633.32,2010.17L5627.25,2037.67L5592.98,2030.1L5597.09,2011.49L5633.32,2010.17ZM5816.5,2007.99L5813.98,2019.41L5779.72,2011.84L5781.27,2004.8L5789.21,2004.51C5800.65,2003.98 5809.59,2005.35 5816.5,2007.99ZM5837.33,2084.04L5827.98,2081.98L5835.54,2047.71L5838.41,2048.35C5838.05,2060.31 5837.68,2072.21 5837.33,2084.04ZM5834.66,2202.42L5806.99,2196.31L5814.56,2162.05L5835.2,2166.6C5834.96,2178.7 5834.78,2190.64 5834.66,2202.42ZM5662.09,2187.87L5654.52,2222.13L5620.26,2214.57L5627.82,2180.31L5662.09,2187.87ZM5779.58,2213.81L5772.02,2248.07L5737.76,2240.51L5745.32,2206.24L5779.58,2213.81ZM5240.36,2154.26L5232.8,2188.52L5198.54,2180.95L5206.1,2146.69L5240.36,2154.26ZM5731.32,2143.67L5723.76,2177.93L5689.5,2170.37L5697.06,2136.11L5731.32,2143.67ZM5752.31,2029.34L5744.74,2063.6L5710.48,2056.04L5718.04,2021.78L5752.31,2029.34ZM5565.57,2047.6L5558.01,2081.86L5523.75,2074.3L5531.31,2040.04L5565.57,2047.6ZM5378.84,2065.86L5371.28,2100.12L5337.01,2092.56L5344.58,2058.3L5378.84,2065.86ZM5309.6,2110.06L5302.04,2144.32L5267.77,2136.76L5275.34,2102.49L5309.6,2110.06ZM5427.1,2135.99L5419.53,2170.26L5385.27,2162.7L5392.83,2128.43L5427.1,2135.99ZM5544.59,2161.93L5537.03,2196.2L5502.77,2188.63L5510.33,2154.37L5544.59,2161.93ZM5496.33,2091.8L5488.77,2126.06L5454.51,2118.5L5462.07,2084.23L5496.33,2091.8ZM5683.07,2073.54L5675.51,2107.8L5641.24,2100.24L5648.81,2065.97L5683.07,2073.54ZM5613.83,2117.74L5606.27,2152L5572,2144.43L5579.57,2110.17L5613.83,2117.74ZM5800.56,2099.47L5793,2133.74L5758.74,2126.17L5766.3,2091.91L5800.56,2099.47ZM5710.34,2258L5702.78,2292.27L5668.52,2284.7L5676.08,2250.44L5710.34,2258ZM5592.85,2232.07L5585.28,2266.33L5551.02,2258.77L5558.59,2224.5L5592.85,2232.07ZM5827.84,2283.94L5820.28,2318.2L5786.01,2310.64L5793.58,2276.38L5827.84,2283.94ZM5475.35,2206.13L5467.79,2240.39L5433.53,2232.83L5441.09,2198.57L5475.35,2206.13ZM5357.86,2180.19L5350.29,2214.45L5316.03,2206.89L5323.6,2172.63L5357.86,2180.19ZM3604.14,2109.14L3598.24,2074.5L3614.09,2072.62L3618.22,2107.47L3604.14,2109.14ZM3667.47,2029.58L3669.06,2042.95L3634.21,2047.08L3632.83,2035.37L3667.47,2029.58ZM3786.29,2009.75L3788.55,2028.78L3753.7,2032.91L3751.64,2015.53L3786.29,2009.75ZM3869.93,1983.8L3903.9,1979.77L3908.03,2014.62L3873.19,2018.75L3869.1,1984.27C3869.38,1984.11 3869.66,1983.96 3869.93,1983.8ZM3958.17,1944.17L3958.87,1950.1L3933.95,1953.05C3941.99,1949.86 3950.07,1946.89 3958.17,1944.17ZM4076.54,1920.55L4078.36,1935.93L4043.52,1940.06L4041.65,1924.32C4053.28,1922.64 4064.92,1921.38 4076.54,1920.55ZM4178.61,1924.04L4163,1925.89L4162.55,1922.05C4167.92,1922.62 4173.27,1923.29 4178.61,1924.04ZM4263.18,1944.12L4266.49,1972.11L4231.65,1976.25L4227.52,1941.4L4247.3,1939.06C4252.63,1940.65 4257.92,1942.34 4263.18,1944.12ZM4468.82,2092.68L4472.44,2123.17L4437.59,2127.3L4433.46,2092.45L4465.82,2088.62C4466.83,2089.97 4467.83,2091.32 4468.82,2092.68ZM4515.28,2176.58L4506.24,2177.65L4502.82,2148.81C4507.29,2157.83 4511.45,2167.09 4515.28,2176.58ZM3637.29,2303.83L3649.7,2302.36L3653.83,2337.2L3643.19,2338.47L3637.29,2303.83ZM3617.76,2189.17L3631.89,2187.49L3636.02,2222.34L3623.66,2223.8L3617.76,2189.17ZM3802.22,2108.81L3806.35,2143.65L3771.51,2147.78L3767.38,2112.94L3802.22,2108.81ZM4041.2,2080.47L4045.33,2115.32L4010.48,2119.45L4006.35,2084.61L4041.2,2080.47ZM4092.04,2015.96L4096.17,2050.8L4061.32,2054.93L4057.19,2020.09L4092.04,2015.96ZM4331.01,1987.62L4335.14,2022.47L4300.3,2026.6L4296.17,1991.75L4331.01,1987.62ZM4023.39,1965.6L4027.52,2000.45L3992.68,2004.58L3988.55,1969.74L4023.39,1965.6ZM3972.55,2030.12L3976.68,2064.97L3941.84,2069.1L3937.7,2034.25L3972.55,2030.12ZM3921.71,2094.64L3925.84,2129.48L3890.99,2133.62L3886.86,2098.77L3921.71,2094.64ZM3853.06,2044.29L3857.19,2079.13L3822.35,2083.26L3818.22,2048.42L3853.06,2044.29ZM4211.52,2001.79L4215.65,2036.63L4180.81,2040.76L4176.68,2005.92L4211.52,2001.79ZM4142.88,1951.44L4147.01,1986.28L4112.16,1990.41L4108.03,1955.57L4142.88,1951.44ZM3733.57,2058.46L3737.7,2093.3L3702.86,2097.43L3698.73,2062.59L3733.57,2058.46ZM3682.73,2122.97L3686.86,2157.82L3652.02,2161.95L3647.89,2127.11L3682.73,2122.97ZM3870.87,2159.16L3875,2194L3840.16,2198.13L3836.02,2163.29L3870.87,2159.16ZM4109.84,2130.82L4113.97,2165.67L4079.13,2169.8L4075,2134.96L4109.84,2130.82ZM4348.82,2102.49L4352.95,2137.33L4318.1,2141.47L4313.97,2106.62L4348.82,2102.49ZM4229.33,2116.66L4233.46,2151.5L4198.62,2155.63L4194.48,2120.79L4229.33,2116.66ZM3700.54,2237.84L3704.67,2272.69L3669.83,2276.82L3665.7,2241.97L3700.54,2237.84ZM4417.46,2152.84L4421.59,2187.69L4386.75,2191.82L4382.62,2156.97L4417.46,2152.84ZM4399.66,2037.97L4403.79,2072.82L4368.94,2076.95L4364.81,2042.1L4399.66,2037.97ZM3939.51,2209.51L3943.64,2244.35L3908.8,2248.49L3904.67,2213.64L3939.51,2209.51ZM3769.19,2288.2L3773.32,2323.04L3738.47,2327.17L3734.34,2292.33L3769.19,2288.2ZM4160.68,2066.31L4164.81,2101.15L4129.97,2105.28L4125.84,2070.44L4160.68,2066.31ZM4366.62,2217.36L4370.75,2252.2L4335.91,2256.34L4331.78,2221.49L4366.62,2217.36ZM4486.11,2203.19L4490.24,2238.04L4455.4,2242.17L4451.27,2207.32L4486.11,2203.19ZM4247.14,2231.53L4251.27,2266.37L4216.42,2270.5L4212.29,2235.66L4247.14,2231.53ZM3751.38,2173.32L3755.51,2208.17L3720.67,2212.3L3716.54,2177.46L3751.38,2173.32ZM3990.35,2144.99L3994.49,2179.84L3959.64,2183.97L3955.51,2149.12L3990.35,2144.99ZM4297.98,2167.01L4302.11,2201.85L4267.26,2205.98L4263.13,2171.14L4297.98,2167.01ZM3820.03,2223.68L3824.16,2258.52L3789.31,2262.65L3785.18,2227.81L3820.03,2223.68ZM3888.67,2274.03L3892.8,2308.87L3857.96,2313L3853.83,2278.16L3888.67,2274.03ZM4280.17,2052.14L4284.3,2086.98L4249.46,2091.12L4245.33,2056.27L4280.17,2052.14ZM4147.54,2218.14L4143.65,2185.31L4178.49,2181.18L4182.62,2216.02L4150.11,2219.87C4149.26,2219.29 4148.4,2218.71 4147.54,2218.14ZM2434.22,2200.41L2458.94,2203.44L2453.69,2246.24L2427.75,2243.05L2434.22,2200.41ZM2455.66,2059.22L2471.24,2061.13L2466,2103.93L2449.18,2101.86L2455.66,2059.22ZM2477.1,1918.03L2483.55,1918.82L2478.3,1961.61L2470.62,1960.67L2477.1,1918.03ZM2763.09,1852.73L2743.89,1850.37C2750.33,1851.06 2756.73,1851.84 2763.09,1852.73ZM3002.8,1915.34L2998.12,1953.46L2955.32,1948.22L2958.64,1921.18C2958.68,1921.2 2958.72,1921.22 2958.75,1921.25C2973.64,1918.85 2988.32,1916.88 3002.8,1915.34ZM3296.54,1949.51L3291.64,1989.47L3248.84,1984.22L3254.09,1941.42L3285.49,1945.27C3289.21,1946.65 3292.89,1948.06 3296.54,1949.51ZM3475.8,2083.97L3462.83,2082.38L3464.42,2069.39C3468.34,2074.16 3472.13,2079.02 3475.8,2083.97ZM3551.11,2308.94L3517.75,2304.84L3522.99,2262.05L3547.62,2265.07C3549.48,2279.37 3550.65,2294 3551.11,2308.94ZM3227.49,2242.24L3229.47,2226.04L3272.27,2231.29L3267.02,2274.09L3236.32,2270.32C3234.21,2259.91 3231.28,2250.59 3227.49,2242.24ZM3163.11,2189.43L3157,2188.68L3162.25,2145.89L3205.05,2151.14L3199.8,2193.93L3170.11,2190.29C3167.91,2189.41 3165.66,2188.57 3163.36,2187.76L3163.11,2189.43ZM2828.74,2176.89L2831.99,2177.29L2831.28,2183.06C2830.49,2180.95 2829.64,2178.89 2828.74,2176.89ZM2752.41,2139.06L2716.72,2134.68L2721.97,2091.88L2764.77,2097.13L2761.8,2121.29C2759.71,2120.61 2757.56,2119.96 2755.37,2119.34L2752.41,2139.06ZM2731.18,2280.27L2704.41,2276.99L2709.66,2234.19L2737.6,2237.62L2731.18,2280.27ZM2563.09,1856.66L2557.84,1899.46L2515.04,1894.21L2520.29,1851.41L2563.09,1856.66ZM2709.85,1874.66L2704.6,1917.46L2661.8,1912.21L2667.05,1869.41L2709.85,1874.66ZM2899.22,2257.45L2893.97,2300.24L2851.17,2294.99L2856.42,2252.2L2899.22,2257.45ZM3339.5,2311.45L3334.25,2354.25L3291.45,2349L3296.7,2306.2L3339.5,2311.45ZM2777.07,1954.82L2771.83,1997.62L2729.03,1992.37L2734.28,1949.57L2777.07,1954.82ZM3351.81,2169.14L3346.56,2211.93L3303.76,2206.68L3309.01,2163.89L3351.81,2169.14ZM2538.47,2141.28L2533.22,2184.08L2490.43,2178.83L2495.67,2136.04L2538.47,2141.28ZM3045.98,2275.45L3040.73,2318.24L2997.93,2312.99L3003.18,2270.2L3045.98,2275.45ZM2605.7,2221.44L2600.45,2264.24L2557.65,2258.99L2562.9,2216.19L2605.7,2221.44ZM3217.35,2008.83L3212.11,2051.62L3169.31,2046.37L3174.56,2003.58L3217.35,2008.83ZM2911.53,2115.13L2906.28,2157.93L2863.48,2152.68L2868.73,2109.88L2911.53,2115.13ZM3431.34,2106.98L3426.09,2149.78L3383.29,2144.53L3388.54,2101.73L3431.34,2106.98ZM2697.54,2016.98L2692.29,2059.77L2649.49,2054.52L2654.74,2011.73L2697.54,2016.98ZM2844.3,2034.98L2839.05,2077.77L2796.25,2072.52L2801.5,2029.73L2844.3,2034.98ZM2630.31,1936.82L2625.07,1979.62L2582.27,1974.37L2587.52,1931.57L2630.31,1936.82ZM2991.06,2052.98L2985.81,2095.78L2943.01,2090.53L2948.26,2047.73L2991.06,2052.98ZM2856.61,1892.67L2851.36,1935.46L2808.56,1930.21L2813.81,1887.42L2856.61,1892.67ZM3058.29,2133.14L3053.04,2175.93L3010.24,2170.68L3015.49,2127.89L3058.29,2133.14ZM2685.23,2159.29L2679.98,2202.08L2637.18,2196.83L2642.43,2154.04L2685.23,2159.29ZM3364.12,2026.83L3358.87,2069.62L3316.07,2064.37L3321.32,2021.58L3364.12,2026.83ZM2978.75,2195.29L2973.5,2238.09L2930.7,2232.84L2935.95,2190.04L2978.75,2195.29ZM3125.51,2213.29L3120.26,2256.09L3077.47,2250.84L3082.72,2208.04L3125.51,2213.29ZM3419.03,2249.29L3413.78,2292.09L3370.99,2286.84L3376.24,2244.05L3419.03,2249.29ZM2550.78,1998.97L2545.53,2041.77L2502.73,2036.52L2507.98,1993.73L2550.78,1998.97ZM2923.83,1972.82L2918.59,2015.62L2875.79,2010.37L2881.04,1967.57L2923.83,1972.82ZM3137.82,2070.98L3132.57,2113.78L3089.77,2108.53L3095.02,2065.73L3137.82,2070.98ZM3498.57,2187.14L3493.32,2229.94L3450.52,2224.69L3455.77,2181.89L3498.57,2187.14ZM3070.59,1990.82L3065.35,2033.62L3022.55,2028.37L3027.8,1985.57L3070.59,1990.82ZM3284.58,2088.98L3279.33,2131.78L3236.53,2126.53L3241.78,2083.73L3284.58,2088.98ZM3150.13,1928.67L3144.88,1971.47L3102.08,1966.22L3107.33,1923.42L3150.13,1928.67ZM2618.01,2079.13L2612.76,2121.93L2569.96,2116.68L2575.21,2073.88L2618.01,2079.13ZM3486.26,2329.45L3481.01,2372.25L3438.21,2367L3443.46,2324.2L3486.26,2329.45ZM1632.01,2229.76L1645.46,2231.41L1641.89,2260.5L1621.87,2258.05C1624.85,2248.54 1628.22,2239.1 1632.01,2229.76ZM1705,2115.95L1704.32,2121.53L1700.32,2121.03C1701.86,2119.33 1703.42,2117.63 1705,2115.95ZM1759.84,2067.33L1758.38,2079.28L1746.26,2077.79C1750.67,2074.24 1755.2,2070.76 1759.84,2067.33ZM1812.84,2033.72L1812.44,2037.03L1807.86,2036.47C1809.51,2035.55 1811.17,2034.63 1812.84,2033.72ZM1968.23,1977.73L1969.82,1977.93L1966.26,2007.02L1937.17,2003.45L1939.48,1984.58C1945,1983.13 1950.59,1981.74 1956.26,1980.41C1960.29,1979.46 1964.27,1978.57 1968.23,1977.73ZM2264.75,2043.63L2236.43,2040.16L2238.62,2022.34C2247.91,2029.06 2256.61,2036.2 2264.75,2043.63ZM2311.41,2096.66L2311.22,2098.21L2282.13,2094.64L2285.7,2065.55L2286.61,2065.66C2295.72,2075.78 2303.96,2086.2 2311.41,2096.66ZM2343.75,2151.08L2327.82,2149.12L2330.6,2126.51C2335.44,2134.87 2339.81,2143.1 2343.75,2151.08ZM2376.41,2301.72L2365.15,2300.34L2368.72,2271.25L2379.21,2272.54C2379.33,2282.45 2378.45,2292.19 2376.41,2301.72ZM2043.44,2288.86L2040.91,2309.45L2011.82,2305.88L2011.9,2305.21C2025.24,2298.58 2035.55,2293.32 2043.44,2288.86ZM2066.3,2260.26L2069.45,2234.54L2098.54,2238.11L2094.97,2267.2L2066.68,2263.73C2066.64,2262.62 2066.51,2261.47 2066.3,2260.26ZM1969.54,2223.62L1969.7,2222.31L1973.09,2222.72C1971.89,2223 1970.71,2223.3 1969.54,2223.62ZM2061.21,2086.89L2057.64,2115.99L2028.56,2112.42L2032.12,2083.33L2061.21,2086.89ZM2007.15,2129.14L2003.58,2158.23L1974.49,2154.66L1978.06,2125.57L2007.15,2129.14ZM2106.91,2141.38L2103.34,2170.47L2074.25,2166.9L2077.82,2137.81L2106.91,2141.38ZM2206.66,2153.62L2203.1,2182.7L2174.01,2179.14L2177.57,2150.05L2206.66,2153.62ZM2306.42,2165.85L2302.85,2194.94L2273.76,2191.37L2277.33,2162.28L2306.42,2165.85ZM2169.34,2002.4L2165.77,2031.49L2136.68,2027.92L2140.25,1998.83L2169.34,2002.4ZM1915.76,2020.17L1912.19,2049.26L1883.11,2045.7L1886.67,2016.61L1915.76,2020.17ZM2015.52,2032.41L2011.95,2061.5L1982.86,2057.93L1986.43,2028.84L2015.52,2032.41ZM2115.27,2044.65L2111.71,2073.74L2082.62,2070.17L2086.18,2041.08L2115.27,2044.65ZM2215.03,2056.88L2211.46,2085.97L2182.37,2082.41L2185.94,2053.32L2215.03,2056.88ZM2160.97,2099.13L2157.4,2128.22L2128.31,2124.65L2131.88,2095.56L2160.97,2099.13ZM1861.7,2062.42L1858.13,2091.51L1829.04,2087.95L1832.61,2058.86L1861.7,2062.42ZM2069.58,1990.16L2066.01,2019.25L2036.92,2015.68L2040.49,1986.6L2069.58,1990.16ZM2260.72,2111.37L2257.16,2140.46L2228.07,2136.89L2231.64,2107.8L2260.72,2111.37ZM1807.64,2104.67L1804.07,2133.76L1774.98,2130.19L1778.55,2101.1L1807.64,2104.67ZM1907.4,2116.91L1903.83,2146L1874.74,2142.43L1878.31,2113.34L1907.4,2116.91ZM1961.46,2074.66L1957.89,2103.75L1928.8,2100.18L1932.37,2071.09L1961.46,2074.66ZM2243.99,2304.83L2240.42,2333.92L2211.33,2330.35L2214.9,2301.26L2243.99,2304.83ZM2298.05,2262.58L2294.49,2291.67L2265.39,2288.1L2268.96,2259.01L2298.05,2262.58ZM1753.58,2146.92L1750.01,2176.01L1720.92,2172.44L1724.49,2143.35L1753.58,2146.92ZM1853.34,2159.16L1849.77,2188.24L1820.68,2184.68L1824.25,2155.59L1853.34,2159.16ZM2352.11,2220.34L2348.55,2249.43L2319.46,2245.86L2323.02,2216.77L2352.11,2220.34ZM2343.75,2317.07L2340.18,2346.16L2311.09,2342.59L2314.66,2313.5L2343.75,2317.07ZM1745.21,2243.65L1741.64,2272.74L1712.56,2269.17L1716.12,2240.08L1745.21,2243.65ZM2152.6,2195.86L2149.03,2224.95L2119.95,2221.38L2123.51,2192.3L2152.6,2195.86ZM1699.52,2189.17L1695.95,2218.26L1666.86,2214.69L1670.43,2185.6L1699.52,2189.17ZM1799.27,2201.4L1795.71,2230.49L1766.62,2226.92L1770.18,2197.83L1799.27,2201.4ZM1844.97,2255.89L1841.4,2284.98L1812.31,2281.41L1815.88,2252.32L1844.97,2255.89ZM2144.24,2292.59L2140.67,2321.68L2111.58,2318.12L2115.15,2289.03L2144.24,2292.59ZM2052.85,2183.63L2049.28,2212.72L2020.19,2209.15L2023.76,2180.06L2052.85,2183.63ZM2252.36,2208.1L2248.79,2237.19L2219.7,2233.62L2223.27,2204.53L2252.36,2208.1ZM1899.03,2213.64L1895.46,2242.73L1866.37,2239.16L1869.94,2210.07L1899.03,2213.64ZM1953.09,2171.39L1949.52,2200.48L1920.43,2196.91L1924,2167.82L1953.09,2171.39ZM2198.3,2250.35L2194.73,2279.44L2165.64,2275.87L2169.21,2246.78L2198.3,2250.35ZM878.352,1709.94L877.184,1670.4L885.12,1669.73L888.456,1709.08L878.352,1709.94ZM1726.92,1572.39L1718.52,1573.1L1716.36,1547.6C1722.83,1553.45 1727.06,1561.62 1726.88,1571.06L1726.92,1572.39ZM1073.68,1873.29L1071.77,1850.76L1111.13,1847.43L1113.2,1871.88L1073.68,1873.29ZM938.159,1878.14L936.808,1862.2L976.165,1858.87L977.679,1876.73L938.159,1878.14ZM881.053,1801.31L900.828,1799.63L904.164,1838.99L882.222,1840.85L881.053,1801.31ZM1079.71,1587.61L1083.05,1626.97L1043.69,1630.31L1040.36,1590.95L1079.71,1587.61ZM1020.09,1658.29L1023.42,1697.64L984.064,1700.98L980.728,1661.62L1020.09,1658.29ZM1619.58,1541.85L1622.91,1581.21L1583.55,1584.54L1580.22,1545.19L1619.58,1541.85ZM1155.05,1646.85L1158.39,1686.2L1119.03,1689.54L1115.69,1650.18L1155.05,1646.85ZM1290.02,1635.4L1293.35,1674.76L1254,1678.1L1250.66,1638.74L1290.02,1635.4ZM1349.64,1564.73L1352.98,1604.09L1313.62,1607.42L1310.29,1568.07L1349.64,1564.73ZM1424.98,1623.97L1428.32,1663.32L1388.96,1666.66L1385.62,1627.3L1424.98,1623.97ZM1559.95,1612.52L1563.28,1651.88L1523.92,1655.22L1520.59,1615.86L1559.95,1612.52ZM1694.91,1601.08L1698.25,1640.44L1658.89,1643.78L1655.55,1604.42L1694.91,1601.08ZM944.748,1599.05L948.084,1638.41L908.727,1641.75L905.391,1602.39L944.748,1599.05ZM1214.68,1576.17L1218.02,1615.53L1178.66,1618.87L1175.32,1579.51L1214.68,1576.17ZM1484.61,1553.29L1487.94,1592.65L1448.59,1595.99L1445.25,1556.63L1484.61,1553.29ZM1321.43,1895.22L1324.77,1934.58L1285.41,1937.91L1282.08,1898.56L1321.43,1895.22ZM1035.79,1788.19L1039.13,1827.55L999.772,1830.89L996.436,1791.53L1035.79,1788.19ZM1710.62,1730.99L1713.96,1770.35L1674.6,1773.68L1671.26,1734.33L1710.62,1730.99ZM1095.42,1717.52L1098.76,1756.88L1059.4,1760.21L1056.07,1720.86L1095.42,1717.52ZM1246.1,1835.99L1249.43,1875.34L1210.08,1878.68L1206.74,1839.32L1246.1,1835.99ZM1381.06,1824.55L1384.4,1863.9L1345.04,1867.24L1341.7,1827.88L1381.06,1824.55ZM960.457,1728.96L963.793,1768.32L924.435,1771.65L921.099,1732.3L960.457,1728.96ZM1500.32,1683.2L1503.65,1722.56L1464.3,1725.89L1460.96,1686.53L1500.32,1683.2ZM1305.72,1765.31L1309.06,1804.67L1269.7,1808.01L1266.37,1768.65L1305.72,1765.31ZM1456.4,1883.78L1459.73,1923.13L1420.38,1926.47L1417.04,1887.11L1456.4,1883.78ZM1170.76,1776.75L1174.1,1816.11L1134.74,1819.45L1131.4,1780.09L1170.76,1776.75ZM1575.65,1742.43L1578.99,1781.79L1539.63,1785.12L1536.3,1745.77L1575.65,1742.43ZM1186.47,1906.66L1189.8,1946.02L1150.45,1949.35L1147.11,1910L1186.47,1906.66ZM1440.69,1753.87L1444.03,1793.23L1404.67,1796.57L1401.33,1757.21L1440.69,1753.87ZM1635.28,1671.76L1638.62,1711.12L1599.26,1714.45L1595.93,1675.09L1635.28,1671.76ZM1230.39,1706.08L1233.72,1745.44L1194.37,1748.77L1191.03,1709.41L1230.39,1706.08ZM1365.35,1694.64L1368.69,1734L1329.33,1737.33L1326,1697.98L1365.35,1694.64ZM1516.03,1813.11L1519.36,1852.46L1480.01,1855.8L1476.67,1816.44L1516.03,1813.11ZM1650.99,1801.66L1654.33,1841.02L1614.97,1844.36L1611.63,1805L1650.99,1801.66ZM1261.81,1965.89L1265.14,2005.25L1225.78,2008.59L1222.45,1969.23L1261.81,1965.89ZM1396.77,1954.45L1400.11,1993.81L1360.75,1997.14L1357.41,1957.79L1396.77,1954.45ZM4609.27,2201.79L4611.53,2162.33L4612.19,2162.35L4611.29,2201.84L4609.27,2201.79ZM4691.23,1566.07L4690.64,1591.63L4651.15,1590.72L4651.54,1573.74C4656.84,1567.88 4664.47,1564.54 4672.73,1565.01L4691.23,1566.07ZM4821.86,1573.55L4821.48,1589.94L4782,1589.04L4782.4,1571.29L4821.86,1573.55ZM4952.45,1582.82L4952.33,1588.25L4912.84,1587.35L4913.03,1578.78L4942.99,1580.49C4946.35,1580.69 4949.54,1581.5 4952.45,1582.82ZM4938.49,2129.87L4900.45,2129L4901.35,2089.51L4940.76,2090.41L4938.49,2129.87ZM4843.68,1751.82L4883.16,1752.73L4882.26,1792.22L4842.77,1791.31L4843.68,1751.82ZM4904.45,1954.1L4943.94,1955L4943.04,1994.49L4903.55,1993.59L4904.45,1954.1ZM4910.65,1683.27L4950.13,1684.17L4949.23,1723.66L4909.74,1722.76L4910.65,1683.27ZM4907.55,1818.69L4947.04,1819.59L4946.13,1859.08L4906.65,1858.17L4907.55,1818.69ZM4846.77,1616.41L4886.26,1617.31L4885.36,1656.8L4845.87,1655.9L4846.77,1616.41ZM4840.58,1887.24L4880.07,1888.14L4879.16,1927.63L4839.68,1926.73L4840.58,1887.24ZM4703.54,2159.76L4743.03,2160.66L4742.13,2200.15L4702.64,2199.24L4703.54,2159.76ZM4773.61,1955.79L4813.1,1956.69L4812.19,1996.18L4772.71,1995.28L4773.61,1955.79ZM4779.8,1684.96L4819.29,1685.86L4818.39,1725.35L4778.9,1724.45L4779.8,1684.96ZM4639.67,2092.89L4679.16,2093.8L4678.26,2133.28L4638.77,2132.38L4639.67,2092.89ZM4709.74,1888.93L4749.23,1889.83L4748.32,1929.32L4708.83,1928.41L4709.74,1888.93ZM4715.93,1618.1L4755.42,1619L4754.52,1658.49L4715.03,1657.59L4715.93,1618.1ZM4776.71,1820.38L4816.19,1821.28L4815.29,1860.77L4775.8,1859.86L4776.71,1820.38ZM4706.64,2024.34L4746.13,2025.24L4745.23,2064.73L4705.74,2063.83L4706.64,2024.34ZM4645.86,1822.06L4685.35,1822.97L4684.45,1862.45L4644.96,1861.55L4645.86,1822.06ZM4834.39,2158.07L4873.87,2158.97L4872.97,2198.46L4833.48,2197.55L4834.39,2158.07ZM4642.77,1957.48L4682.26,1958.38L4681.35,1997.87L4641.86,1996.97L4642.77,1957.48ZM4712.83,1753.51L4752.32,1754.42L4751.42,1793.9L4711.93,1793L4712.83,1753.51ZM4770.51,2091.2L4810,2092.11L4809.1,2131.59L4769.61,2130.69L4770.51,2091.2ZM4648.96,1686.65L4688.45,1687.55L4687.55,1727.04L4648.06,1726.14L4648.96,1686.65ZM4837.48,2022.65L4876.97,2023.56L4876.07,2063.04L4836.58,2062.14L4837.48,2022.65Z" style="fill:url(#_Linear18);"/>
            </g>
            <g transform="matrix(1,0,0,1,-1389.96,94.5358)">
                <path d="M2187.76,894.147L2153.32,903.377L2134.38,832.708L2231.17,806.775C2237.04,815.926 2242.93,825.317 2248.64,834.605C2249.23,835.454 2249.53,835.735 2250.1,835.721C2250.68,835.707 2250.95,835.125 2251.51,834.247C2258.68,821.189 2266.21,807.95 2273.57,795.413L2295.58,789.514L2309.55,841.634C2301.24,858.588 2287.23,889.821 2276.97,910.262C2275.87,912.593 2272.8,916.7 2266.48,917.141L2236.85,919.01C2231.67,919.135 2228.68,914.886 2226.87,911.473C2211.84,885.333 2189.77,842.654 2184.12,835.3C2182.94,833.888 2182.05,833.045 2181.19,833.066C2180.61,833.08 2180.35,834.239 2180.39,835.966L2180.44,837.982L2187.76,894.147ZM2158.03,973.399L2146.12,966.524L2187.79,894.349L2196.36,960.033L2196.36,960.321C2196.44,963.488 2192.55,969.631 2186.24,970.36L2158.03,973.399ZM2353.97,969.24L2352.97,965.528L2384.61,957.05L2384.52,961.822C2384.33,965.859 2381.26,970.255 2376.95,970.359L2376.66,970.366L2353.97,969.24ZM2316.31,866.863L2338.78,950.715L2308.74,958.763C2308.69,958.455 2308.66,958.163 2308.66,957.894L2308.65,957.606L2316.31,866.863ZM2482.01,920.871L2485.14,1036.9L2485.13,1037.47C2485.06,1040.35 2482.41,1042.88 2479.52,1043.1L2421.87,1044.59L2421.29,1044.57C2418.12,1044.5 2415.88,1041.85 2415.67,1038.67L2413.25,949.376L2419.26,947.767L2427.95,980.235L2467.17,912.306L2482.01,920.871ZM2497.24,1013.81C2495.96,1012.61 2495.26,1010.9 2495.53,1008.95L2502.13,932.488L2533.67,950.7L2497.24,1013.81ZM2529.07,1017.92L2504.78,1015.86L2526.92,1009.93L2529.07,1017.92ZM2626.44,870.11L2615.4,876.168C2615.05,876.36 2614.75,876.635 2614.54,876.97C2614.32,877.304 2614.19,877.687 2614.16,878.084L2612.41,900.276C2612.38,900.729 2612.05,901.104 2611.61,901.2C2611.16,901.295 2610.71,901.088 2610.49,900.689L2599.78,881.174C2599.59,880.824 2599.32,880.528 2598.98,880.312C2598.65,880.096 2598.26,879.966 2597.87,879.935L2575.67,878.188C2575.22,878.153 2574.85,877.824 2574.75,877.38C2574.66,876.936 2574.86,876.482 2575.26,876.263L2594.78,865.556C2595.13,865.364 2595.42,865.089 2595.64,864.754C2595.85,864.42 2595.98,864.037 2596.01,863.64L2596.57,856.562C2601.09,857.301 2605.51,858.276 2609.79,859.454L2610.39,860.55C2610.59,860.9 2610.86,861.196 2611.2,861.412C2611.53,861.628 2611.91,861.758 2612.31,861.789L2618.85,862.303C2619.68,862.601 2620.51,862.906 2621.34,863.218C2625.13,864.823 2626.61,867.089 2626.44,870.11ZM2629.34,966.896L2636.14,929.695L2657.16,941.831L2653.12,926.771L2683.87,918.533L2698.71,973.913L2695.67,990.539L2632.53,1007.46L2626.22,983.931L2627.71,975.795L2639.35,972.677L2629.34,966.896ZM2909.62,1036.29L2829.65,897.781L2857.55,881.672C2886.84,893.827 2907.35,918.854 2911.05,953.44L2912.06,962.89C2913.78,978.927 2918.88,991.415 2931.79,1001.04C2933.66,1002.29 2936.83,1004.85 2937.16,1008C2937.35,1009.71 2936.67,1011.52 2934.82,1013.17C2934.88,1013.68 2914.25,1032.15 2909.62,1036.29ZM2802.63,952.481L2781.81,958.062L2767.61,905.08L2820.59,890.884L2826.82,914.11L2815.44,917.159L2839.24,930.902L2832.11,943.256C2824.8,933.739 2814.03,930.048 2801.45,930.701L2802.63,952.481Z" style="fill:url(#_Linear19);"/>
            </g>
            <g transform="matrix(0.213786,-0.00488936,0.00488936,0.213786,575.564,759.457)">
                <path d="M687.502,354.064L687.502,361.126L663.743,361.126C668.565,357.661 674.762,355.18 682.609,354.344L687.502,354.064ZM800.618,347.6L800.618,361.126L767.632,361.126L767.632,349.485L800.618,347.6ZM913.734,341.136L913.734,361.126L880.748,361.126L880.748,343.021L913.734,341.136ZM1005.57,361.126L993.865,361.126L993.865,350.885C997.6,352.895 1000.41,354.891 1001.8,356.621C1003.04,358.081 1004.3,359.583 1005.57,361.126ZM1147.78,565.107L1147.78,579.542L1114.8,579.542L1114.8,546.556L1135.84,546.556C1139.79,552.666 1143.77,558.851 1147.78,565.107ZM1191.37,634.146L1173.31,634.146L1173.31,605.3C1179.29,614.803 1185.32,624.425 1191.37,634.146ZM1432.53,632.767L1432.53,634.146L1431.67,634.146C1431.96,633.686 1432.24,633.226 1432.53,632.767ZM1487.06,546.556L1487.13,546.556L1487.13,579.542L1465.94,579.542C1473.06,568.334 1480.1,557.327 1487.06,546.556ZM1522.85,491.952L1541.74,491.952L1541.74,524.938L1508.75,524.938L1508.75,513.247C1513.51,506.008 1518.21,498.905 1522.85,491.952ZM1705.55,339.991L1705.55,361.126L1672.56,361.126L1672.56,338.376L1705.55,339.991ZM1818.66,345.527L1818.66,361.126L1785.68,361.126L1785.68,343.913L1818.66,345.527ZM1931.78,351.063L1931.78,361.126L1898.79,361.126L1898.79,349.449L1931.78,351.063ZM1970.4,415.73L1957.31,415.73L1957.31,382.744L1971.37,382.744C1971.48,383.958 1971.53,385.157 1971.53,386.331L1971.53,389.025L1970.4,415.73ZM1965.75,524.938L1961.22,524.938L1961.22,491.952L1967.15,491.952L1965.75,524.938ZM804.527,437.348L804.527,470.334L771.541,470.334L771.541,437.348L804.527,437.348ZM917.643,437.348L917.643,470.334L884.657,470.334L884.657,437.348L917.643,437.348ZM1030.76,437.348L1030.76,470.334L997.773,470.334L997.773,437.348L1030.76,437.348ZM691.41,437.348L691.41,470.334L658.425,470.334L658.425,437.348L691.41,437.348ZM859.13,382.744L859.13,415.73L826.145,415.73L826.145,382.744L859.13,382.744ZM972.247,382.744L972.247,415.73L939.261,415.73L939.261,382.744L972.247,382.744ZM1764.06,382.744L1764.06,415.73L1731.07,415.73L1731.07,382.744L1764.06,382.744ZM1596.34,437.348L1596.34,470.334L1563.35,470.334L1563.35,437.348L1596.34,437.348ZM1709.46,437.348L1709.46,470.334L1676.47,470.334L1676.47,437.348L1709.46,437.348ZM1650.94,382.744L1650.94,415.73L1617.96,415.73L1617.96,382.744L1650.94,382.744ZM746.014,382.744L746.014,415.73L713.028,415.73L713.028,382.744L746.014,382.744ZM1877.18,382.744L1877.18,415.73L1844.19,415.73L1844.19,382.744L1877.18,382.744ZM1089.27,491.952L1089.27,524.938L1056.29,524.938L1056.29,491.952L1089.27,491.952ZM1600.25,546.556L1600.25,579.542L1567.26,579.542L1567.26,546.556L1600.25,546.556ZM1713.37,546.556L1713.37,579.542L1680.38,579.542L1680.38,546.556L1713.37,546.556ZM749.923,491.952L749.923,524.938L716.937,524.938L716.937,491.952L749.923,491.952ZM1822.57,437.348L1822.57,470.334L1789.59,470.334L1789.59,437.348L1822.57,437.348ZM976.155,491.952L976.155,524.938L943.169,524.938L943.169,491.952L976.155,491.952ZM1654.85,491.952L1654.85,524.938L1621.87,524.938L1621.87,491.952L1654.85,491.952ZM1767.97,491.952L1767.97,524.938L1734.98,524.938L1734.98,491.952L1767.97,491.952ZM1881.09,491.952L1881.09,524.938L1848.1,524.938L1848.1,491.952L1881.09,491.952ZM1935.69,437.348L1935.69,470.334L1902.7,470.334L1902.7,437.348L1935.69,437.348ZM863.039,491.952L863.039,524.938L830.053,524.938L830.053,491.952L863.039,491.952ZM695.319,546.556L695.319,579.542L662.333,579.542L662.333,546.556L695.319,546.556ZM921.551,546.556L921.551,579.542L888.565,579.542L888.565,546.556L921.551,546.556ZM808.435,546.556L808.435,579.542L775.449,579.542L775.449,546.556L808.435,546.556ZM1034.67,546.556L1034.67,579.542L1001.68,579.542L1001.68,546.556L1034.67,546.556ZM1658.76,601.16L1658.76,634.146L1625.78,634.146L1625.78,601.16L1658.76,601.16ZM1093.18,601.16L1093.18,634.146L1060.19,634.146L1060.19,601.16L1093.18,601.16ZM1545.64,601.16L1545.64,634.146L1512.66,634.146L1512.66,601.16L1545.64,601.16ZM1884.99,601.16L1884.99,634.146L1852.01,634.146L1852.01,601.16L1884.99,601.16ZM1826.48,546.556L1826.48,579.542L1793.5,579.542L1793.5,546.556L1826.48,546.556ZM753.831,601.16L753.831,634.146L720.845,634.146L720.845,601.16L753.831,601.16ZM866.947,601.16L866.947,634.146L833.962,634.146L833.962,601.16L866.947,601.16ZM1939.6,546.556L1939.6,579.542L1906.61,579.542L1906.61,546.556L1939.6,546.556ZM980.064,601.16L980.064,634.146L947.078,634.146L947.078,601.16L980.064,601.16ZM1771.88,601.16L1771.88,634.146L1738.89,634.146L1738.89,601.16L1771.88,601.16ZM2040.9,798.702C2045.43,788.803 2050.75,779.356 2056.76,770.435L2056.64,798.769L2040.9,798.702ZM2111.6,715.933L2111.49,740.49L2081.65,740.362C2090.8,731.28 2100.84,723.093 2111.6,715.933ZM2330.02,714.759L2329.94,733.602L2296.95,733.462L2297.09,700.476L2304.2,700.507C2313.2,704.624 2321.82,709.395 2330.02,714.759ZM2384.4,767.624L2384.31,788.438L2351.32,788.298L2351.46,755.312L2375.18,755.413C2378.4,759.36 2381.48,763.434 2384.4,767.624ZM2369,1014.61L2350.36,1014.53L2350.5,981.543L2383.49,981.683L2383.42,996.689C2378.96,1002.94 2374.14,1008.93 2369,1014.61ZM2295.54,1065.85L2295.65,1039.82L2328.63,1039.96L2328.6,1048.82C2318.18,1055.49 2307.12,1061.2 2295.54,1065.85ZM2078.16,820.479L2111.15,820.619L2111.01,853.605L2078.03,853.464L2078.16,820.479ZM2132.54,875.315L2165.52,875.455L2165.38,908.44L2132.39,908.3L2132.54,875.315ZM2133.02,762.199L2166,762.34L2165.86,795.325L2132.88,795.185L2133.02,762.199ZM2187.87,703.92L2220.86,704.06L2220.72,737.046L2187.73,736.906L2187.87,703.92ZM2241.28,984.986L2274.26,985.127L2274.12,1018.11L2241.14,1017.97L2241.28,984.986ZM2186.91,930.15L2219.89,930.291L2219.75,963.276L2186.77,963.136L2186.91,930.15ZM2296.61,813.592L2329.6,813.732L2329.46,846.718L2296.47,846.577L2296.61,813.592ZM2242.24,758.756L2275.23,758.896L2275.09,791.882L2242.1,791.741L2242.24,758.756ZM2350.98,868.427L2383.97,868.568L2383.83,901.553L2350.84,901.413L2350.98,868.427ZM2296.13,926.707L2329.12,926.847L2328.97,959.833L2295.99,959.692L2296.13,926.707ZM2187.39,817.035L2220.37,817.176L2220.23,850.161L2187.25,850.021L2187.39,817.035ZM2241.76,871.871L2274.74,872.011L2274.6,904.997L2241.62,904.857L2241.76,871.871ZM2382.89,1122.26L2382.87,1127.78L2349.88,1127.64L2349.96,1109.64L2359.74,1109.61L2362.43,1109.74C2370.83,1110.13 2378.48,1115.22 2382.89,1122.26ZM3235.37,748.114L3245.06,751.967L3232.87,782.617L3208.06,772.748C3216.41,763.673 3225.57,755.434 3235.37,748.114ZM3301.61,715.696L3315.98,721.41L3303.79,752.061L3273.14,739.87L3279.82,723.082C3286.91,720.209 3294.19,717.74 3301.61,715.696ZM3379.22,710.155L3374.71,721.504L3344.06,709.313L3344.25,708.831C3355.77,708.25 3367.47,708.67 3379.22,710.155ZM3482.88,755.614L3479.82,763.31L3449.16,751.119L3455.21,735.928C3465.06,741.722 3474.31,748.32 3482.88,755.614ZM3525.56,806.61L3514,835.673L3483.35,823.482L3495.55,792.832L3524.14,804.203C3524.62,805.002 3525.09,805.804 3525.56,806.61ZM3552.57,897.022L3548.19,908.036L3517.54,895.845L3529.73,865.195L3549.92,873.222C3551.27,881.047 3552.16,888.992 3552.57,897.022ZM3208.33,854.887L3196.14,885.537L3165.49,873.346L3177.68,842.696L3208.33,854.887ZM3242.52,927.25L3230.33,957.9L3199.68,945.709L3211.87,915.059L3242.52,927.25ZM3347.63,969.057L3335.44,999.707L3304.79,987.516L3316.98,956.865L3347.63,969.057ZM3313.44,896.693L3301.25,927.344L3270.6,915.153L3282.79,884.502L3313.44,896.693ZM3523.65,980.306L3511.46,1010.96L3480.81,998.765L3493,968.115L3523.65,980.306ZM3418.55,938.5L3406.36,969.15L3375.7,956.959L3387.9,926.309L3418.55,938.5ZM3452.74,1010.86L3440.54,1041.51L3409.89,1029.32L3422.09,998.672L3452.74,1010.86ZM3421.09,763.217L3408.9,793.867L3378.25,781.676L3390.44,751.026L3421.09,763.217ZM3350.17,793.774L3337.98,824.424L3307.33,812.233L3319.52,781.582L3350.17,793.774ZM3455.28,835.58L3443.09,866.23L3412.43,854.039L3424.63,823.389L3455.28,835.58ZM3279.25,824.33L3267.06,854.981L3236.41,842.789L3248.6,812.139L3279.25,824.33ZM3384.36,866.137L3372.17,896.787L3341.52,884.596L3353.71,853.945L3384.36,866.137ZM3489.47,907.943L3477.27,938.593L3446.62,926.402L3458.82,895.752L3489.47,907.943ZM3661.51,1098.09L3650.76,1125.13L3620.11,1112.93L3625.58,1099.18L3661.51,1098.09ZM3888,1066.46L3909.89,1075.17L3897.7,1105.82L3867.05,1093.63L3877.56,1067.21C3881.05,1066.93 3884.53,1066.68 3888,1066.46ZM3972.06,1066.61L3968.62,1075.26L3943.54,1065.28C3953.13,1065.5 3962.64,1065.95 3972.06,1066.61ZM4085.89,1086.49L4073.73,1117.07L4043.08,1104.88L4053.65,1078.29C4064.58,1080.7 4075.33,1083.44 4085.89,1086.49ZM4190.12,1130.5L4178.84,1158.87L4148.19,1146.68L4160.38,1116.03L4172.54,1120.87C4178.49,1123.96 4184.36,1127.17 4190.12,1130.5ZM4277.94,1198.3L4253.29,1188.49L4257.22,1178.62C4264.37,1184.93 4271.28,1191.5 4277.94,1198.3ZM4324.76,1256.37L4318.13,1273.04L4287.48,1260.85L4299.67,1230.2L4308.75,1233.81C4314.34,1241.12 4319.68,1248.64 4324.76,1256.37ZM4360.51,1324.83L4352.32,1345.41L4321.67,1333.21L4333.86,1302.57L4354.55,1310.79C4356.61,1315.41 4358.6,1320.09 4360.51,1324.83ZM4385.74,1417.46L4355.86,1405.58L4368.05,1374.93L4377.97,1378.87C4381.09,1391.42 4383.69,1404.28 4385.74,1417.46ZM3838.97,1105.73L3826.78,1136.38L3796.13,1124.18L3808.33,1093.53L3838.97,1105.73ZM4259.4,1272.95L4247.21,1303.6L4216.56,1291.41L4228.75,1260.76L4259.4,1272.95ZM4293.59,1345.31L4281.4,1375.96L4250.75,1363.77L4262.94,1333.12L4293.59,1345.31ZM4049.19,1189.34L4037,1219.99L4006.35,1207.8L4018.54,1177.15L4049.19,1189.34ZM4154.3,1231.14L4142.11,1261.79L4111.45,1249.6L4123.65,1218.95L4154.3,1231.14ZM3944.08,1147.53L3931.89,1178.18L3901.24,1165.99L3913.43,1135.34L3944.08,1147.53ZM3768.06,1136.28L3755.87,1166.93L3725.22,1154.74L3737.41,1124.09L3768.06,1136.28ZM3873.16,1178.09L3860.97,1208.74L3830.32,1196.55L3842.51,1165.9L3873.16,1178.09ZM3978.27,1219.89L3966.08,1250.55L3935.43,1238.35L3947.62,1207.7L3978.27,1219.89ZM4083.38,1261.7L4071.19,1292.35L4040.54,1280.16L4052.73,1249.51L4083.38,1261.7ZM4188.48,1303.51L4176.29,1334.16L4145.64,1321.97L4157.84,1291.32L4188.48,1303.51ZM4120.11,1158.78L4107.92,1189.43L4077.27,1177.24L4089.46,1146.59L4120.11,1158.78ZM4015,1116.97L4002.81,1147.62L3972.16,1135.43L3984.35,1104.78L4015,1116.97ZM4225.22,1200.59L4213.02,1231.24L4182.37,1219.05L4194.57,1188.4L4225.22,1200.59ZM2507.19,1060.67L2507.89,1060.5L2513.8,1084.78L2504.3,1087.09L2507.19,1060.67ZM2655.48,954.921L2657.83,964.557L2633.56,970.47L2629.05,951.972L2655.48,954.921ZM2788.8,952.936L2793.92,973.975L2769.65,979.888L2763.73,955.614L2771.78,953.654C2777.48,953.347 2783.15,953.108 2788.8,952.936ZM2870.6,955.297L2852.89,959.611L2851.49,953.856C2857.9,954.246 2864.27,954.727 2870.6,955.297ZM2924.93,962.54L2930.01,983.393L2905.74,989.306L2899.82,965.031L2916.18,961.047C2916.44,961.09 2916.71,961.133 2916.97,961.176C2919.63,961.613 2922.28,962.068 2924.93,962.54ZM3045.96,997.715L3041.83,998.723L3041.09,995.689C3042.33,996.184 3043.57,996.682 3044.81,997.184C3045.2,997.359 3045.59,997.537 3045.96,997.715ZM2727.22,1049.64L2733.13,1073.92L2708.86,1079.83L2702.94,1055.56L2727.22,1049.64ZM2538.28,1010.53L2544.19,1034.81L2519.92,1040.72L2514.01,1016.44L2538.28,1010.53ZM2704.77,969.978L2710.68,994.252L2686.4,1000.17L2680.49,975.89L2704.77,969.978ZM2591.13,1040.22L2597.04,1064.5L2572.77,1070.41L2566.86,1046.14L2591.13,1040.22ZM2674.37,1019.95L2680.28,1044.22L2656.01,1050.13L2650.1,1025.86L2674.37,1019.95ZM2757.61,999.672L2763.53,1023.95L2739.25,1029.86L2733.34,1005.59L2757.61,999.672ZM2840.86,979.395L2846.77,1003.67L2822.49,1009.58L2816.58,985.308L2840.86,979.395ZM2568.68,960.56L2574.59,984.834L2550.32,990.747L2544.4,966.473L2568.68,960.56ZM2560.73,1090.2L2566.65,1114.47L2542.37,1120.38L2536.46,1096.11L2560.73,1090.2ZM2643.98,1069.92L2649.89,1094.19L2625.62,1100.11L2619.7,1075.83L2643.98,1069.92ZM2810.46,1029.37L2816.37,1053.64L2792.1,1059.55L2786.19,1035.28L2810.46,1029.37ZM2893.7,1009.09L2899.62,1033.36L2875.34,1039.28L2869.43,1015L2893.7,1009.09ZM2976.94,988.813L2982.86,1013.09L2958.58,1019L2952.67,994.726L2976.94,988.813ZM2621.52,990.254L2627.44,1014.53L2603.16,1020.44L2597.25,996.167L2621.52,990.254ZM2530.34,1140.17L2536.25,1164.44L2511.98,1170.35L2506.07,1146.08L2530.34,1140.17ZM2863.31,1059.06L2869.22,1083.34L2844.95,1089.25L2839.03,1064.97L2863.31,1059.06ZM3029.79,1018.51L3035.7,1042.78L3011.43,1048.69L3005.52,1024.42L3029.79,1018.51ZM2780.07,1079.34L2785.98,1103.61L2761.7,1109.52L2755.79,1085.25L2780.07,1079.34ZM2613.58,1119.89L2619.49,1144.16L2595.22,1150.08L2589.31,1125.8L2613.58,1119.89ZM2946.55,1038.78L2952.46,1063.06L2928.19,1068.97L2922.28,1044.7L2946.55,1038.78ZM2696.82,1099.61L2702.74,1123.89L2678.46,1129.8L2672.55,1105.53L2696.82,1099.61Z" style="fill:url(#_Linear20);"/>
            </g>
            <g transform="matrix(1,0,0,1,56.1008,50.3957)">
                <g transform="matrix(0.989413,-0.145128,0.145128,0.989413,-115.871,162.072)">
                    <path d="M1011.08,789.048C1011.46,788.728 1011.59,788.344 1011.59,788.024C1011.59,785.016 1000.2,779 998.919,779C998.279,779 997.703,779.384 997.127,779.832L989.639,785.848C989.383,786.04 989.319,786.232 989.319,786.488C989.319,787.384 990.599,788.6 999.879,796.536C1000.26,796.856 1000.58,797.112 1000.97,797.112C1001.29,797.112 1001.74,796.92 1002.31,796.408L1011.08,789.048ZM1020.55,769.528C1020.81,769.208 1020.87,768.888 1020.87,768.568C1020.87,765.24 1004.04,760.632 1002.57,760.632C1001.54,760.632 1000.9,761.208 1000.33,761.976L994.183,770.168C994.055,770.36 993.991,770.552 993.991,770.744C993.991,771.384 994.695,772.024 995.463,772.408C996.487,772.984 1011.21,780.664 1011.98,780.664C1012.36,780.664 1012.81,780.408 1013.45,779.512L1020.55,769.528ZM1023.56,805.752C1023.82,805.432 1023.88,805.112 1023.88,804.792C1023.88,801.08 1004.94,796.856 1004.49,796.856C1003.46,796.856 1002.82,797.496 1002.25,798.264L995.911,806.904C995.783,807.096 995.719,807.288 995.719,807.48C995.719,808.056 996.423,808.76 997.191,809.144C998.566,809.887 1004.02,812.55 1008.49,814.653C1011.72,816.172 1014.43,817.4 1014.73,817.4C1015.18,817.4 1015.62,817.144 1016.26,816.184L1023.56,805.752Z" style="fill:rgb(34,26,197);fill-rule:nonzero;"/>
                </g>
                <g transform="matrix(0.997634,-0.0687534,0.0687534,0.997634,-79.8435,105.631)">
                    <path d="M1073.86,814.584C1074.76,814.968 1075.46,815.288 1076.1,815.288C1076.62,815.288 1077.13,815.032 1077.58,814.584C1088.52,803.32 1092.3,788.92 1092.3,774.52C1092.3,770.936 1092.1,767.352 1091.65,763.832C1091.53,762.872 1091.4,761.528 1089.16,761.528L1077.89,761.4C1076.68,761.4 1076.04,762.232 1076.04,763.32L1076.04,763.512C1076.17,766.072 1076.3,768.824 1076.3,771.64C1076.3,784.312 1074.31,798.968 1066.31,808.76C1065.93,809.272 1065.54,809.848 1065.54,810.36C1065.54,810.744 1065.74,811.128 1066.25,811.32L1073.86,814.584ZM1062.47,788.536C1063.5,788.536 1064.45,788.088 1064.78,786.744C1065.54,783.608 1066.25,776.504 1066.25,770.872C1066.25,763.896 1065.61,763.448 1063.88,763.448L1052.1,763.512C1050.5,763.512 1050.12,763.96 1050.12,764.92C1050.12,765.112 1050.18,765.368 1050.18,765.624C1050.63,770.808 1051.08,781.112 1051.08,785.848C1051.08,787.384 1051.72,787.96 1052.74,788.024L1062.28,788.536L1062.47,788.536Z" style="fill:rgb(79,130,255);fill-rule:nonzero;"/>
                </g>
                <g transform="matrix(0.988553,-0.150875,0.150875,0.988553,-144.606,229.996)">
                    <path d="M1134.09,778.104C1134.6,777.72 1134.79,777.336 1134.79,776.824C1134.79,773.496 1123.14,765.688 1121.29,765.688C1120.65,765.688 1120.01,766.008 1119.43,766.456L1110.86,772.152C1110.54,772.344 1110.41,772.6 1110.41,772.92C1110.41,774.008 1111.69,775.352 1121.29,785.144C1121.74,785.592 1122.06,785.912 1122.5,785.912C1122.89,785.912 1123.34,785.72 1124.04,785.208L1134.09,778.104ZM1156.17,783.928C1155.91,783.48 1155.46,783.224 1155.02,783.224C1154.89,783.224 1154.69,783.288 1154.5,783.352C1146.5,788.344 1127.24,797.304 1117.19,801.208C1116.74,801.464 1116.49,801.912 1116.49,802.36C1116.49,802.552 1116.55,802.744 1116.62,802.936L1122.95,814.264C1123.21,814.712 1123.65,814.968 1124.1,814.968C1124.3,814.968 1124.49,814.904 1124.68,814.84C1137.41,811.128 1149.7,804.728 1161.22,795.64C1161.61,795.32 1161.86,794.872 1161.86,794.424C1161.86,794.296 1161.86,794.104 1161.74,793.912L1156.17,783.928Z" style="fill:rgb(34,26,197);fill-rule:nonzero;"/>
                </g>
                <g transform="matrix(1,0,0,1,-13.4622,48.5209)">
                    <path d="M1223.82,789.56C1224.52,789.496 1225.16,788.984 1225.16,788.216L1225.16,788.088L1224.71,778.872C1224.65,778.168 1223.69,777.528 1222.98,777.528L1222.86,777.528L1173.96,779.896C1173.26,779.896 1173,780.408 1173,781.112L1173,781.304L1173.45,790.584C1173.51,791.288 1174.09,791.928 1174.79,791.928L1174.92,791.928L1192.9,791.032C1192.78,795.32 1190.73,803.96 1182.79,806.904C1182.02,807.224 1181.19,807.736 1181.19,808.376C1181.19,808.632 1181.26,808.824 1181.45,809.08L1186.31,815.608C1187.21,816.824 1187.85,817.528 1188.87,817.528C1189.06,817.528 1189.32,817.464 1189.58,817.4C1202.25,813.88 1208.71,800.056 1208.71,794.424C1208.71,793.08 1208.26,792.44 1200.33,790.712L1223.82,789.56ZM1212.87,774.008C1213.58,774.008 1214.21,773.432 1214.21,772.728L1214.47,762.808L1214.47,762.68C1214.47,761.912 1213.83,761.336 1213.13,761.336L1185.41,760.632C1184.65,760.632 1184.01,761.208 1183.94,761.976L1183.69,771.896L1183.69,772.024C1183.69,772.728 1184.33,773.304 1185.03,773.304L1212.74,774.008L1212.87,774.008Z" style="fill:rgb(255,83,79);fill-rule:nonzero;"/>
                </g>
                <g transform="matrix(1,0,0,1,-23.249,22.6329)">
                    <path d="M1262.09,778.104C1262.6,777.72 1262.79,777.336 1262.79,776.824C1262.79,773.496 1251.14,765.688 1249.29,765.688C1248.65,765.688 1248.01,766.008 1247.43,766.456L1238.86,772.152C1238.54,772.344 1238.41,772.6 1238.41,772.92C1238.41,774.008 1239.69,775.352 1249.29,785.144C1249.74,785.592 1250.06,785.912 1250.5,785.912C1250.89,785.912 1251.34,785.72 1252.04,785.208L1262.09,778.104ZM1284.17,783.928C1283.91,783.48 1283.46,783.224 1283.02,783.224C1282.89,783.224 1282.69,783.288 1282.5,783.352C1274.5,788.344 1255.24,797.304 1245.19,801.208C1244.74,801.464 1244.49,801.912 1244.49,802.36C1244.49,802.552 1244.55,802.744 1244.62,802.936L1250.95,814.264C1251.21,814.712 1251.65,814.968 1252.1,814.968C1252.3,814.968 1252.49,814.904 1252.68,814.84C1265.41,811.128 1277.7,804.728 1289.22,795.64C1289.61,795.32 1289.86,794.872 1289.86,794.424C1289.86,794.296 1289.86,794.104 1289.74,793.912L1284.17,783.928Z" style="fill:rgb(137,0,85);fill-rule:nonzero;"/>
                </g>
                <g transform="matrix(1,0,0,1,-32.7157,56.2969)">
                    <path d="M1329.48,814.712C1329.86,814.904 1330.25,814.968 1330.63,814.968C1331.46,814.968 1332.23,814.584 1332.49,814.264C1341.77,804.152 1349.06,791.544 1350.86,778.488C1350.09,778.616 1349.38,778.68 1348.68,778.68C1341.7,778.68 1336.52,772.792 1336.52,766.776L1336.52,766.2L1304.01,768.952C1303.37,769.016 1302.79,769.592 1302.79,770.232L1302.79,770.36L1303.75,781.112C1303.82,781.816 1304.33,782.328 1305.03,782.328L1305.16,782.328L1332.04,779.64L1332.42,779.64C1333,779.64 1333.32,779.832 1333.32,780.408C1333.32,781.688 1327.43,797.944 1321.03,808.632C1320.78,809.08 1320.65,809.464 1320.65,809.784C1320.65,810.296 1320.97,810.616 1321.54,810.872L1329.48,814.712ZM1348.74,775.992C1354.12,775.992 1358.41,771.704 1358.41,766.328C1358.41,760.952 1354.12,756.664 1348.74,756.664C1343.37,756.664 1339.08,760.952 1339.08,766.328C1339.08,771.704 1343.37,775.992 1348.74,775.992ZM1352.13,766.328C1352.13,768.184 1350.6,769.72 1348.74,769.72C1346.89,769.72 1345.35,768.184 1345.35,766.328C1345.35,764.472 1346.89,762.936 1348.74,762.936C1350.6,762.936 1352.13,764.472 1352.13,766.328Z" style="fill:rgb(255,83,79);fill-rule:nonzero;"/>
                </g>
                <g transform="matrix(1,0,0,1,-45.4014,55.9605)">
                    <path d="M1377.48,810.744C1377.48,812.28 1377.99,813.112 1379.65,813.112C1386.76,813.112 1415.88,804.792 1415.88,800.568C1415.88,800.248 1415.75,799.928 1415.56,799.48C1414.28,796.792 1411.85,792.76 1410.89,791.032C1410.44,790.264 1410.06,790.072 1409.48,790.072C1409.22,790.072 1408.9,790.136 1408.58,790.2C1407.75,790.392 1394.31,793.592 1393.16,793.592C1392.9,793.592 1392.78,793.464 1392.78,792.888L1392.78,792.632L1393.22,766.392C1393.22,765.496 1392.2,764.984 1391.37,764.984L1378.69,764.984C1377.8,764.984 1377.48,765.752 1377.48,766.584L1377.48,810.744Z" style="fill:rgb(137,0,85);fill-rule:nonzero;"/>
                </g>
                <g transform="matrix(0.987645,-0.156709,0.156709,0.987645,-166.687,284.398)">
                    <path d="M1477.32,795.064C1478.02,795.064 1478.86,794.488 1478.86,793.72L1478.86,782.136C1478.86,781.304 1478.02,780.664 1477.32,780.664L1433.86,780.6C1433.16,780.6 1432.33,781.24 1432.33,782.008L1432.33,793.656C1432.33,794.488 1433.22,795.128 1433.93,795.128L1477.32,795.064Z" style="fill:rgb(255,83,79);fill-rule:nonzero;"/>
                </g>
                <g transform="matrix(1,0,0,1,-81.4403,36.1247)">
                    <path d="M1520.01,815.992C1520.71,815.992 1521.22,815.48 1521.22,814.776L1521.22,789.368C1525.45,791.416 1532.04,794.936 1535.24,796.92C1535.56,797.112 1536.01,797.304 1536.45,797.304C1536.9,797.304 1537.35,797.112 1537.67,796.6C1544.65,785.208 1544.9,784.824 1544.9,784.248C1544.9,783.736 1544.58,783.288 1543.88,782.904C1538.31,779.896 1528.13,777.336 1526.21,777.336C1525.58,777.336 1525,777.528 1524.55,778.168L1521.22,782.776L1521.22,760.824C1521.22,760.12 1520.71,759.544 1520.01,759.544L1507.4,759.544C1506.69,759.544 1506.12,760.12 1506.12,760.824L1506.12,814.776C1506.12,815.48 1506.69,815.992 1507.4,815.992L1520.01,815.992Z" style="fill:rgb(137,0,85);fill-rule:nonzero;"/>
                </g>
            </g>
            <g transform="matrix(0.321868,-0.0483534,0.0483534,0.321868,774.789,598.531)">
                <path d="M1153.75,847.963C1154.2,846.884 1155.26,846.182 1156.43,846.182C1157.6,846.182 1158.65,846.884 1159.11,847.963L1183.73,906.643L1242.41,931.268C1243.49,931.721 1244.19,932.778 1244.19,933.948C1244.19,935.119 1243.49,936.175 1242.41,936.628L1183.73,961.254L1159.11,1019.93C1158.65,1021.01 1157.6,1021.72 1156.43,1021.72C1155.26,1021.72 1154.2,1021.01 1153.75,1019.93L1129.12,961.254L1070.44,936.628C1069.36,936.175 1068.66,935.119 1068.66,933.948C1068.66,932.778 1069.36,931.721 1070.44,931.268L1129.12,906.643L1153.75,847.963Z" style="fill:rgb(255,218,5);"/>
            </g>
            <g transform="matrix(-0.0693788,0.99759,-0.99759,-0.0693788,2939.36,-452.005)">
                <g transform="matrix(0.985214,-0.171326,0.171326,0.985214,-106.943,279.037)">
                    <path d="M1465.87,778.389C1466.63,778.005 1467.08,777.429 1467.08,776.789C1467.08,776.341 1466.89,775.893 1466.44,775.381L1458.19,765.845C1459.47,764.629 1467.02,757.333 1467.02,755.157C1467.02,754.709 1466.76,754.325 1466.19,753.877L1457.8,747.221C1457.1,746.645 1456.52,746.389 1456.01,746.389C1455.43,746.389 1454.99,746.709 1454.54,747.157L1447.88,753.877L1441.74,746.709C1441.16,746.005 1440.39,745.557 1439.56,745.557C1439.12,745.557 1438.67,745.685 1438.15,745.941L1428.49,750.933C1427.72,751.317 1427.21,751.893 1427.21,752.533C1427.21,752.981 1427.4,753.493 1427.91,754.069L1436.43,763.989C1432.65,767.509 1428.49,771.093 1426.32,773.013C1425.8,773.461 1425.61,773.909 1425.61,774.357C1425.61,774.869 1425.93,775.445 1426.63,776.021L1434.19,782.101C1434.63,782.485 1435.08,782.613 1435.47,782.613C1436.11,782.613 1436.68,782.293 1437.39,781.845C1439.88,780.117 1443.28,777.813 1446.35,775.445L1452.75,782.869C1453.45,783.637 1454.03,783.957 1454.67,783.957C1455.18,783.957 1455.76,783.765 1456.52,783.317L1465.87,778.389Z" style="fill:rgb(34,26,197);fill-rule:nonzero;"/>
                </g>
                <g transform="matrix(0.996438,-0.0843338,0.0843338,0.996438,-56.4247,144.939)">
                    <path d="M1507.34,782.165C1508.04,782.101 1508.56,781.525 1508.56,780.757L1507.4,757.909C1511.05,758.421 1512.39,760.981 1512.71,767.893C1513.48,780.501 1523.53,782.485 1524.43,782.485C1525.07,782.485 1525.64,782.229 1526.35,781.589C1526.35,781.589 1531.79,776.405 1531.79,776.277C1532.17,775.957 1532.3,775.573 1532.3,775.253C1532.3,774.549 1531.53,773.909 1531.15,773.589C1528.14,771.221 1527.43,768.085 1527.18,763.925C1526.48,752.277 1518.22,745.173 1506.95,745.173C1503.37,745.173 1499.47,745.877 1495.37,747.413C1492.88,746.453 1490.19,746.005 1487.31,746.005C1484.24,746.005 1481.04,746.517 1477.77,747.605L1473.93,747.797C1473.29,747.861 1472.78,748.373 1472.78,749.077L1472.78,749.205L1474.38,782.485C1474.44,783.189 1474.95,783.765 1475.6,783.765L1475.72,783.765L1487.69,783.189C1488.39,783.125 1488.91,782.549 1488.91,781.781L1487.76,758.549C1491.79,758.869 1493.13,761.557 1493.45,768.021L1494.09,781.525C1494.15,782.229 1494.67,782.805 1495.31,782.805L1495.43,782.805L1507.34,782.165Z" style="fill:rgb(79,130,255);fill-rule:nonzero;"/>
                </g>
                <g transform="matrix(1,0,0,1,5.38214,12.1298)">
                    <path d="M1575.56,764.181C1575.56,755.861 1569.48,744.789 1555.34,744.789C1544.08,744.789 1534.22,751.637 1534.22,764.821C1534.22,776.085 1543.37,783.637 1553.8,783.637C1562.89,783.637 1575.56,776.661 1575.56,764.181ZM1555.34,771.413C1551.69,771.413 1548.24,768.469 1548.24,764.053C1548.24,761.173 1549.77,756.629 1555.15,756.629C1561.67,756.629 1561.93,762.837 1561.93,764.053C1561.93,767.701 1559.88,771.413 1555.34,771.413Z" style="fill:rgb(34,26,197);fill-rule:nonzero;"/>
                </g>
                <g transform="matrix(0.986444,0.164097,-0.164097,0.986444,156.474,-232.317)">
                    <path d="M1624.84,773.781C1624.97,773.589 1624.97,773.397 1624.97,773.205C1624.97,772.629 1624.27,772.309 1623.56,771.989C1620.94,770.837 1620.17,766.933 1620.17,761.685C1620.17,757.269 1622.22,730.581 1622.35,729.749L1622.35,729.557C1622.35,728.661 1621.84,727.829 1620.04,727.829L1608.97,727.637C1607.69,727.637 1606.67,728.277 1606.6,729.365L1605.45,746.517C1603.15,745.685 1600.39,745.109 1597.64,745.109C1584.97,745.109 1579.53,756.053 1579.53,763.861C1579.53,774.165 1588.68,782.357 1599.37,782.357C1602.89,782.357 1606.6,781.461 1610.19,779.477C1613.77,783.061 1619.28,783.637 1619.28,783.637C1620.24,783.637 1620.88,782.997 1621.39,781.781L1624.84,773.781ZM1605.64,769.493C1603.85,770.325 1602.25,770.709 1600.84,770.709C1596.75,770.709 1594.25,767.637 1594.25,764.053C1594.25,760.469 1596.68,756.949 1600.52,756.949C1602.44,756.949 1604.24,757.845 1604.94,759.125C1604.94,763.221 1605.19,766.613 1605.64,769.493Z" style="fill:rgb(79,130,255);fill-rule:nonzero;"/>
                </g>
            </g>
            <g transform="matrix(0.992881,-0.119112,0.119112,0.992881,-534.424,819.354)">
                <g transform="matrix(0.990702,0.136049,-0.136049,0.990702,107.956,-208.345)">
                    <path d="M1444.94,782.229C1445.58,782.165 1446.15,781.589 1446.15,780.949L1446.15,780.821L1444.56,749.589C1444.56,748.949 1443.98,748.373 1443.34,748.373L1443.21,748.373L1430.41,749.013C1429.64,749.077 1429.13,749.653 1429.13,750.421L1430.73,781.589C1430.8,782.293 1431.31,782.869 1432.01,782.869L1432.14,782.869L1444.94,782.229ZM1445.58,737.877C1445.58,732.629 1441.36,728.405 1436.17,728.405C1430.92,728.405 1426.7,732.629 1426.7,737.877C1426.7,743.061 1430.92,747.285 1436.17,747.285C1441.36,747.285 1445.58,743.061 1445.58,737.877Z" style="fill:rgb(137,0,85);fill-rule:nonzero;"/>
                </g>
                <g transform="matrix(0.98996,0.141349,-0.141349,0.98996,115.765,-225.108)">
                    <path d="M1494.22,765.205C1494.22,752.981 1484.36,745.045 1471.37,745.045C1469.07,745.045 1466.7,745.301 1464.2,745.813L1457.04,745.429L1456.91,745.429C1456.27,745.429 1455.69,746.005 1455.63,746.709L1453.9,779.989C1453.9,780.757 1454.41,781.333 1455.18,781.397L1467.98,782.037L1468.11,782.037C1468.75,782.037 1469.32,781.461 1469.32,780.821L1470.54,757.589C1475.21,757.845 1478.48,760.661 1478.48,767.381L1478.48,769.557C1478.48,780.949 1488.71,784.341 1489.87,784.341C1490.44,784.341 1491.08,784.149 1491.72,783.637C1491.72,783.637 1498.06,779.093 1498.06,778.965C1498.51,778.645 1498.7,778.261 1498.7,777.877C1498.7,777.173 1498.06,776.533 1497.67,776.213C1495.05,773.781 1494.22,770.901 1494.22,767.317L1494.22,765.205Z" style="fill:rgb(255,83,79);fill-rule:nonzero;"/>
                </g>
                <g transform="matrix(0.92278,0.385327,-0.385327,0.92278,404.371,-547.23)">
                    <path d="M1559.18,755.797C1559.18,745.109 1551.5,728.213 1531.02,728.213C1519.76,728.213 1507.6,733.589 1503.43,745.557C1502.09,749.525 1501.45,753.301 1501.45,756.821C1501.45,772.757 1514.25,783.509 1528.84,783.509C1541.84,783.509 1559.18,773.397 1559.18,755.797ZM1531.02,769.365C1524.43,769.365 1518.28,763.861 1518.28,755.733C1518.28,749.909 1521.48,741.973 1530.76,741.973C1539.66,741.973 1543.05,749.397 1543.05,755.733C1543.05,762.965 1538.63,769.365 1531.02,769.365Z" style="fill:rgb(137,0,85);fill-rule:nonzero;"/>
                </g>
                <g transform="matrix(0.980999,0.194014,-0.194014,0.980999,172.078,-319.963)">
                    <path d="M1603.4,782.421C1604.11,782.421 1604.75,781.909 1604.81,781.141L1606.54,747.861C1606.54,747.093 1606.03,746.453 1605.26,746.453L1592.52,745.749C1591.82,745.749 1591.18,746.261 1591.12,747.029L1589.96,769.045C1588.36,769.813 1586.83,770.261 1585.55,770.261C1582.86,770.261 1580.94,768.341 1580.68,762.837C1580.3,755.221 1580.17,751.765 1579.79,747.477C1579.72,746.709 1579.21,746.069 1577.93,746.069C1576.84,746.069 1566.92,746.773 1566.86,746.901C1566.09,746.965 1565.19,747.477 1565.19,750.101C1565.26,754.197 1565.39,762.133 1565.58,766.293C1566.15,778.197 1573.07,783.189 1581.96,783.189C1584.78,783.189 1587.79,782.677 1590.86,781.717L1603.4,782.421Z" style="fill:rgb(255,83,79);fill-rule:nonzero;"/>
                </g>
                <g transform="matrix(0.980312,0.197453,-0.197453,0.980312,177.155,-333.897)">
                    <path d="M1638.54,773.333C1638.6,773.141 1638.67,772.949 1638.67,772.821C1638.67,772.117 1637.9,771.861 1637.19,771.541C1634.38,770.325 1633.61,765.909 1633.61,760.085L1637.84,760.277L1637.96,760.277C1638.67,760.277 1639.18,759.701 1639.24,759.061L1640.01,748.437C1640.01,747.669 1639.43,747.029 1638.73,747.029L1634.32,746.773C1634.51,744.085 1634.7,741.269 1634.83,738.581C1634.83,737.493 1634.32,736.853 1633.23,736.789L1621.13,736.213L1620.88,736.213C1619.21,736.213 1619.08,737.429 1619.02,738.197C1618.83,740.949 1618.7,743.573 1618.57,746.005L1614.48,745.749C1613.71,745.749 1613.13,746.325 1613.07,747.029L1612.3,757.653C1612.3,758.357 1612.88,758.997 1613.58,759.061L1618.38,759.317C1618.7,775.509 1622.28,781.141 1632.59,783.189C1632.78,783.253 1632.97,783.253 1633.16,783.253C1634.12,783.253 1634.7,782.613 1635.21,781.397L1638.54,773.333Z" style="fill:rgb(137,0,85);fill-rule:nonzero;"/>
                </g>
                <g transform="matrix(0.939411,0.342793,-0.342793,0.939411,357.561,-544.269)">
                    <path d="M1679.95,781.653C1680.84,781.589 1681.48,780.821 1681.48,779.989L1681.04,768.853C1681.04,768.085 1680.33,767.381 1679.5,767.381L1679.37,767.381L1663.82,768.213L1663.5,762.261L1674.12,762.261C1675.02,762.261 1675.66,761.557 1675.72,760.661L1675.85,750.869L1675.85,750.741C1675.85,749.909 1675.08,749.269 1674.32,749.269L1662.86,749.269L1662.54,743.765L1677.45,742.997C1678.22,742.933 1678.92,742.229 1678.92,741.461L1678.92,741.333L1678.41,730.197C1678.35,729.429 1677.64,728.725 1676.88,728.725L1676.75,728.725L1659.72,729.621L1659.47,729.621L1647.82,730.261C1647.05,730.261 1646.35,730.965 1646.35,731.733L1646.35,731.861L1648.97,781.781C1649.04,782.549 1649.67,783.253 1650.44,783.253L1650.57,783.253L1663.05,782.613C1663.12,782.613 1663.24,782.549 1663.31,782.549L1679.95,781.653Z" style="fill:rgb(255,83,79);fill-rule:nonzero;"/>
                </g>
                <g transform="matrix(1,1.38778e-17,-1.38778e-17,1,-5.37846,-12.399)">
                    <path d="M1725.26,778.389C1726.03,778.005 1726.48,777.429 1726.48,776.789C1726.48,776.341 1726.28,775.893 1725.84,775.381L1717.58,765.845C1718.86,764.629 1726.41,757.333 1726.41,755.157C1726.41,754.709 1726.15,754.325 1725.58,753.877L1717.19,747.221C1716.49,746.645 1715.91,746.389 1715.4,746.389C1714.83,746.389 1714.38,746.709 1713.93,747.157L1707.28,753.877L1701.13,746.709C1700.56,746.005 1699.79,745.557 1698.95,745.557C1698.51,745.557 1698.06,745.685 1697.55,745.941L1687.88,750.933C1687.12,751.317 1686.6,751.893 1686.6,752.533C1686.6,752.981 1686.8,753.493 1687.31,754.069L1695.82,763.989C1692.04,767.509 1687.88,771.093 1685.71,773.013C1685.19,773.461 1685,773.909 1685,774.357C1685,774.869 1685.32,775.445 1686.03,776.021L1693.58,782.101C1694.03,782.485 1694.48,782.613 1694.86,782.613C1695.5,782.613 1696.08,782.293 1696.78,781.845C1699.28,780.117 1702.67,777.813 1705.74,775.445L1712.14,782.869C1712.84,783.637 1713.42,783.957 1714.06,783.957C1714.57,783.957 1715.15,783.765 1715.91,783.317L1725.26,778.389Z" style="fill:rgb(137,0,85);fill-rule:nonzero;"/>
                </g>
                <g transform="matrix(0.97356,0.228431,-0.228431,0.97356,213.964,-377.863)">
                    <path d="M1745.61,799.957C1746.38,799.957 1746.95,799.445 1747.02,798.677L1747.85,782.741C1750.22,783.509 1752.84,783.893 1755.53,783.893C1767.63,783.893 1775.88,776.533 1775.88,764.885C1775.88,753.237 1765.77,745.045 1754.51,745.045C1751.82,745.045 1749,745.557 1746.25,746.581L1735.56,746.005L1735.43,746.005C1734.8,746.005 1734.22,746.581 1734.15,747.285L1731.6,797.845L1731.6,797.973C1731.6,798.677 1732.17,799.253 1732.81,799.253L1745.61,799.957ZM1749.13,758.037C1750.22,757.717 1751.31,757.525 1752.33,757.525C1756.81,757.525 1760.14,760.597 1760.14,765.013C1760.14,772.053 1754,772.053 1753.48,772.053C1751.69,772.053 1749.84,771.541 1748.43,770.837L1749.13,758.037Z" style="fill:rgb(255,83,79);fill-rule:nonzero;"/>
                </g>
                <g transform="matrix(0.966856,0.255323,-0.255323,0.966856,248.373,-426.835)">
                    <path d="M1821.58,764.181C1821.58,755.861 1815.5,744.789 1801.36,744.789C1790.09,744.789 1780.24,751.637 1780.24,764.821C1780.24,776.085 1789.39,783.637 1799.82,783.637C1808.91,783.637 1821.58,776.661 1821.58,764.181ZM1801.36,771.413C1797.71,771.413 1794.25,768.469 1794.25,764.053C1794.25,761.173 1795.79,756.629 1801.16,756.629C1807.69,756.629 1807.95,762.837 1807.95,764.053C1807.95,767.701 1805.9,771.413 1801.36,771.413Z" style="fill:rgb(137,0,85);fill-rule:nonzero;"/>
                </g>
            </g>
        </g>
    </g>
    <defs>
        <linearGradient id="_Linear1" x1="0" y1="0" x2="1" y2="0" gradientUnits="userSpaceOnUse" gradientTransform="matrix(-59.684,491.59,-491.59,-59.684,1731.24,941.634)"><stop offset="0" style="stop-color:rgb(236,239,242);stop-opacity:1"/><stop offset="1" style="stop-color:rgb(168,174,179);stop-opacity:1"/></linearGradient>
        <linearGradient id="_Linear2" x1="0" y1="0" x2="1" y2="0" gradientUnits="userSpaceOnUse" gradientTransform="matrix(26.6692,-137.939,137.939,26.6692,2383.51,969.732)"><stop offset="0" style="stop-color:rgb(255,83,79);stop-opacity:1"/><stop offset="1" style="stop-color:rgb(220,0,61);stop-opacity:1"/></linearGradient>
        <linearGradient id="_Linear3" x1="0" y1="0" x2="1" y2="0" gradientUnits="userSpaceOnUse" gradientTransform="matrix(19.9707,-139.067,139.067,19.9707,2404.69,889.635)"><stop offset="0" style="stop-color:rgb(255,83,79);stop-opacity:1"/><stop offset="1" style="stop-color:rgb(220,0,61);stop-opacity:1"/></linearGradient>
        <linearGradient id="_Linear4" x1="0" y1="0" x2="1" y2="0" gradientUnits="userSpaceOnUse" gradientTransform="matrix(3.78012,-140.443,140.443,3.78012,2428.51,920.923)"><stop offset="0" style="stop-color:rgb(255,83,79);stop-opacity:1"/><stop offset="1" style="stop-color:rgb(220,0,61);stop-opacity:1"/></linearGradient>
        <linearGradient id="_Linear5" x1="0" y1="0" x2="1" y2="0" gradientUnits="userSpaceOnUse" gradientTransform="matrix(-9.16094,-140.195,140.195,-9.16094,2440.73,929.516)"><stop offset="0" style="stop-color:rgb(255,83,79);stop-opacity:1"/><stop offset="1" style="stop-color:rgb(220,0,61);stop-opacity:1"/></linearGradient>
        <linearGradient id="_Linear6" x1="0" y1="0" x2="1" y2="0" gradientUnits="userSpaceOnUse" gradientTransform="matrix(37.9363,-135.275,135.275,37.9363,2455.02,860.721)"><stop offset="0" style="stop-color:rgb(255,83,79);stop-opacity:1"/><stop offset="1" style="stop-color:rgb(220,0,61);stop-opacity:1"/></linearGradient>
        <linearGradient id="_Linear7" x1="0" y1="0" x2="1" y2="0" gradientUnits="userSpaceOnUse" gradientTransform="matrix(15.4472,189.124,-189.124,15.4472,1450.94,1229.87)"><stop offset="0" style="stop-color:rgb(0,20,201);stop-opacity:1"/><stop offset="1" style="stop-color:rgb(79,130,255);stop-opacity:1"/></linearGradient>
        <linearGradient id="_Linear8" x1="0" y1="0" x2="1" y2="0" gradientUnits="userSpaceOnUse" gradientTransform="matrix(-31.8467,187.062,-187.062,-31.8467,1539.21,1299)"><stop offset="0" style="stop-color:rgb(0,20,201);stop-opacity:1"/><stop offset="1" style="stop-color:rgb(79,130,255);stop-opacity:1"/></linearGradient>
        <linearGradient id="_Linear9" x1="0" y1="0" x2="1" y2="0" gradientUnits="userSpaceOnUse" gradientTransform="matrix(48.9957,183.319,-183.319,48.9957,1487.26,1216.12)"><stop offset="0" style="stop-color:rgb(0,20,201);stop-opacity:1"/><stop offset="1" style="stop-color:rgb(79,130,255);stop-opacity:1"/></linearGradient>
        <linearGradient id="_Linear10" x1="0" y1="0" x2="1" y2="0" gradientUnits="userSpaceOnUse" gradientTransform="matrix(-29.6341,187.425,-187.425,-29.6341,1597.23,1208.32)"><stop offset="0" style="stop-color:rgb(0,20,201);stop-opacity:1"/><stop offset="1" style="stop-color:rgb(79,130,255);stop-opacity:1"/></linearGradient>
        <linearGradient id="_Linear11" x1="0" y1="0" x2="1" y2="0" gradientUnits="userSpaceOnUse" gradientTransform="matrix(22.6529,188.397,-188.397,22.6529,1562.28,1239.93)"><stop offset="0" style="stop-color:rgb(0,20,201);stop-opacity:1"/><stop offset="1" style="stop-color:rgb(79,130,255);stop-opacity:1"/></linearGradient>
        <linearGradient id="_Linear12" x1="0" y1="0" x2="1" y2="0" gradientUnits="userSpaceOnUse" gradientTransform="matrix(-11.4467,189.408,-189.408,-11.4467,1618.1,1163.14)"><stop offset="0" style="stop-color:rgb(0,20,201);stop-opacity:1"/><stop offset="1" style="stop-color:rgb(79,130,255);stop-opacity:1"/></linearGradient>
        <linearGradient id="_Linear13" x1="0" y1="0" x2="1" y2="0" gradientUnits="userSpaceOnUse" gradientTransform="matrix(16.1667,189.064,-189.064,16.1667,1628.58,1308.49)"><stop offset="0" style="stop-color:rgb(0,20,201);stop-opacity:1"/><stop offset="1" style="stop-color:rgb(79,130,255);stop-opacity:1"/></linearGradient>
        <linearGradient id="_Linear14" x1="0" y1="0" x2="1" y2="0" gradientUnits="userSpaceOnUse" gradientTransform="matrix(16.1667,189.064,-189.064,16.1667,1644.82,1243.83)"><stop offset="0" style="stop-color:rgb(0,20,201);stop-opacity:1"/><stop offset="1" style="stop-color:rgb(79,130,255);stop-opacity:1"/></linearGradient>
        <radialGradient id="_Radial15" cx="0" cy="0" r="1" gradientUnits="userSpaceOnUse" gradientTransform="matrix(-110.889,1.26662e-14,9.20372e-15,180.337,1442.08,928.549)"><stop offset="0" style="stop-color:rgb(255,231,0);stop-opacity:1"/><stop offset="0.55" style="stop-color:rgb(255,146,31);stop-opacity:1"/><stop offset="1" style="stop-color:rgb(255,83,79);stop-opacity:1"/></radialGradient>
        <radialGradient id="_Radial16" cx="0" cy="0" r="1" gradientUnits="userSpaceOnUse" gradientTransform="matrix(-110.889,0,-1.42109e-14,229.085,1442.08,928.549)"><stop offset="0" style="stop-color:rgb(0,223,255);stop-opacity:1"/><stop offset="0.55" style="stop-color:rgb(31,193,255);stop-opacity:1"/><stop offset="1" style="stop-color:rgb(79,130,255);stop-opacity:1"/></radialGradient>
        <linearGradient id="_Linear17" x1="0" y1="0" x2="1" y2="0" gradientUnits="userSpaceOnUse" gradientTransform="matrix(-16.7171,-326.606,326.606,-16.7171,1707.84,1525.24)"><stop offset="0" style="stop-color:rgb(34,26,197);stop-opacity:1"/><stop offset="1" style="stop-color:rgb(0,1,82);stop-opacity:1"/></linearGradient>
        <linearGradient id="_Linear18" x1="0" y1="0" x2="1" y2="0" gradientUnits="userSpaceOnUse" gradientTransform="matrix(-21.6601,947.083,-947.083,-21.6601,6157.11,1395.94)"><stop offset="0" style="stop-color:black;stop-opacity:1"/><stop offset="1" style="stop-color:black;stop-opacity:0"/></linearGradient>
        <linearGradient id="_Linear19" x1="0" y1="0" x2="1" y2="0" gradientUnits="userSpaceOnUse" gradientTransform="matrix(21.8999,-203.291,203.291,21.8999,2415.52,1066.69)"><stop offset="0" style="stop-color:rgb(137,0,85);stop-opacity:1"/><stop offset="1" style="stop-color:rgb(106,0,97);stop-opacity:1"/></linearGradient>
        <linearGradient id="_Linear20" x1="0" y1="0" x2="1" y2="0" gradientUnits="userSpaceOnUse" gradientTransform="matrix(-127.877,632.832,-632.832,-127.877,2808.16,411.391)"><stop offset="0" style="stop-color:black;stop-opacity:1"/><stop offset="1" style="stop-color:rgb(77,77,77);stop-opacity:0"/></linearGradient>
    </defs>
</svg>
