<?xml version="1.0" encoding="UTF-8"?>
<svg id="Layer_1" data-name="Layer 1" xmlns="http://www.w3.org/2000/svg" version="1.1" viewBox="0 0 1920 862">
  <defs>
    <style>
      .cls-1 {
        fill: #faeedb;
      }

      .cls-1, .cls-2, .cls-3, .cls-4, .cls-5, .cls-6, .cls-7, .cls-8, .cls-9, .cls-10, .cls-11, .cls-12, .cls-13, .cls-14, .cls-15, .cls-16, .cls-17, .cls-18, .cls-19, .cls-20, .cls-21, .cls-22, .cls-23, .cls-24, .cls-25, .cls-26, .cls-27, .cls-28, .cls-29, .cls-30, .cls-31, .cls-32, .cls-33, .cls-34, .cls-35, .cls-36, .cls-37, .cls-38, .cls-39, .cls-40, .cls-41, .cls-42, .cls-43, .cls-44, .cls-45, .cls-46, .cls-47, .cls-48, .cls-49, .cls-50, .cls-51, .cls-52, .cls-53, .cls-54, .cls-55, .cls-56, .cls-57, .cls-58, .cls-59, .cls-60 {
        stroke-width: 0px;
      }

      .cls-2 {
        fill: #977954;
      }

      .cls-3 {
        fill: #573a28;
      }

      .cls-4 {
        fill: #6d4410;
      }

      .cls-5 {
        fill: #feb759;
      }

      .cls-6 {
        fill: #f9eedc;
      }

      .cls-7 {
        fill: #684d3d;
      }

      .cls-8 {
        fill: #563724;
      }

      .cls-9 {
        fill: #febe5c;
      }

      .cls-10 {
        fill: #ff8849;
      }

      .cls-11 {
        fill: #ddb69f;
      }

      .cls-12 {
        fill: #6e4512;
      }

      .cls-13 {
        fill: #feca64;
      }

      .cls-14 {
        fill: #feb95a;
      }

      .cls-15 {
        fill: #fe964e;
      }

      .cls-16 {
        fill: #573927;
      }

      .cls-17 {
        fill: #563826;
      }

      .cls-18 {
        fill: #553725;
      }

      .cls-19 {
        fill: #543624;
      }

      .cls-20 {
        fill: #ff7e47;
      }

      .cls-21 {
        fill: #c2b19b;
      }

      .cls-22 {
        fill: #faefde;
      }

      .cls-23 {
        fill: #c5845d;
      }

      .cls-24 {
        fill: #c6855e;
      }

      .cls-25 {
        fill: #8d6d5b;
      }

      .cls-26 {
        fill: #fdfcfc;
      }

      .cls-27 {
        fill: #fe9f50;
      }

      .cls-28 {
        fill: #89673d;
      }

      .cls-29 {
        fill: #c5835b;
      }

      .cls-30 {
        fill: #e2c1ae;
      }

      .cls-31 {
        fill: #6d4310;
      }

      .cls-32 {
        fill: #fea653;
      }

      .cls-33 {
        fill: #cec0a9;
      }

      .cls-34 {
        fill: #f7ecdb;
      }

      .cls-35 {
        fill: #ff8347;
      }

      .cls-36 {
        fill: #fecc50;
      }

      .cls-37 {
        fill: #50a4fe;
      }

      .cls-38 {
        fill: #dad0c3;
      }

      .cls-39 {
        fill: #fce491;
      }

      .cls-40 {
        fill: #fdde82;
      }

      .cls-41 {
        fill: #090808;
      }

      .cls-42 {
        fill: #c6845d;
      }

      .cls-43 {
        fill: #fdd877;
      }

      .cls-44 {
        fill: #fdfdfc;
      }

      .cls-45 {
        fill: #fdd472;
      }

      .cls-46 {
        fill: #553726;
      }

      .cls-47 {
        fill: #fecf6b;
      }

      .cls-48 {
        fill: #fdccd0;
      }

      .cls-49 {
        fill: #604433;
      }

      .cls-50 {
        fill: #533626;
      }

      .cls-51 {
        fill: #533523;
      }

      .cls-52 {
        fill: #fec560;
      }

      .cls-53 {
        fill: #fead55;
      }

      .cls-54 {
        fill: #f1e4d2;
      }

      .cls-55 {
        fill: #fcf6ed;
      }

      .cls-56 {
        fill: #6e4410;
      }

      .cls-57 {
        fill: #feb157;
      }

      .cls-58 {
        fill: #fefefe;
      }

      .cls-59 {
        fill: #b6a288;
      }

      .cls-60 {
        fill: #ff6b43;
      }
    </style>
  </defs>
  <path class="cls-22" d="M592,863c-13.4,0-26.7,0-40.2-.4-1-.8-1.8-1.5-2.7-1.6-5.3-.8-10.7-1.1-16-2.1-23-4.2-45-10.8-63.8-25.8-13.1-10.4-20-23.8-21.1-39.9-.9-13.2,4.5-25,11.9-35.7,10-14.4,20.5-28.4,30.9-42.4,15.2-20.3,30.5-40.4,45.8-60.5,3.1-4,6.1-8.1,9.1-12.2-4.2-1.7-7.8-3.4-11.6-4.6-1.2-.4-3,0-4.2.7-11.4,6.9-22.5,14.5-34.2,20.9-7.9,4.3-16.7,6.5-25.8,3.6-7.4-2.3-14.6-5.2-22.2-7.9-.2.2-1,1.4-1.9,2.6-10.4,15.1-24.6,22.8-43,23.4-10.7.4-20.4-3.1-30.4-5.9-19.7-5.4-39.3-10.9-59-16.2-15.4-4.1-30.2-8.8-40.7-22.4-10-13.1-13.1-27.9-10.3-43.4,2.4-13.7,7.3-26.9,11-40.4,2.3-8.1,4.4-16.3,6.8-24.9-2,0-3.4.2-4.7,0-17.3-2.6-34.7-4.9-51.9-8.1-10.6-2-21-5.4-29-13.5-.7-.7-1.9-1.1-3-1.3-18.9-4.1-37.7-7.9-55.5-15.9-14.9-6.6-24.2-17.2-27.3-33.2-.1-.7-1.3-1.3-1.9-1.9,0-3,0-6.1.3-9.2.8-.8,1.5-1.4,1.6-2.1,1.1-12.2,8-20.7,17.3-27.6,11.6-8.7,24.9-9.3,38.7-7.2,2.7.4,7.2,2.4,8.2-2.4-6.8-3-13.7-5-19.5-8.7-14.5-9.1-22.5-26.1-19.8-42.9,3.6-22,23.5-35.4,43.4-35.7,7.2-.1,14.3,0,21.5,0,1.4,0,3.4-.6,4.1-1.7,7.5-10.3,17.9-16.6,29.3-21.1,18.8-7.4,38.7-11.2,58.6-14,14.9-2.1,29.9-3.2,44.6-4.8,2-2.7,4-5.7,6.3-8.4,9-11,21.7-14.4,35-17,8.6-1.7,17.1-4.3,25.5-7,10.5-3.4,20.7-7.8,31.4-10.8,10.1-2.8,20.6-4.1,30.8-6.2,1-.2,1.9-1,2.6-1.8,9.2-8.7,17.8-18.2,27.7-26,17-13.3,36.8-21.2,58.2-25.6-7-11.2-14.2-22.1-20.9-33.2-9.9-16.4-20.2-32.6-29.3-49.4-9.2-17.1-7.4-34.7,2.9-50.7,8.9-13.7,22.7-21.7,37.8-27.1,17-6.1,34.5-10.1,52.8-10.2,1,0,2-1.2,2.9-1.9,6,0,12,0,18.2.4,1.2.8,2.2,1.5,3.2,1.6,7.5.7,15,1.3,22.5,2.1,18.1,1.9,35.5,6.5,52.8,12,19.6,6.2,38.1,14.7,55.9,24.8,13.7,7.8,26.4,17.1,38.2,27.4,14.1,12.3,27.3,25.4,38.3,40.5,8.4,11.5,16.5,23.2,24.1,35.2,6.8,10.8,13,21.9,18.6,33.3,4.6,9.3,8.1,19.1,12,28.4,8.8-1.3,17.3-5.4,26.7-2.7,1.7.5,4.3,0,5.6-1,7.1-5.8,15.7-7,24.2-9,19.1-4.6,36.7-.9,53.5,8.4,1.6.9,3.8,1.2,5.6,1,9.5-1.3,18.9-3.7,28.4-4,15.9-.6,31.9-.6,47.8,2.6,22.1,4.5,42.7,12.5,61.3,24.8,11.2,7.4,21.9,15.9,31.9,24.9,12.5,11.3,24.1,23.6,35.8,35.7,3,3,15.9,8.4,19.9,7.6,3.6-.7,7.4-1.9,11-1.8,14.7.4,29.3,1.2,44,1.9,1.6,0,3.8.9,4.6.2,5.5-5.2,10.6-10.6,15.8-16,.3-.3,0-1,.1-1.5,3-14.5,5.5-29.2,9.1-43.6,6.1-24.3,29.1-37.4,53.2-33.9,9.9,1.4,19.7,3.7,29.5,5.8,11.8,2.5,23.8,4.4,35.3,8.1,21.2,6.8,31.8,29.9,29.7,47.6,11.8,8.2,23,16,34.3,23.8,3.4,2.4,6.4,5.7,10.1,7.3,16.6,7.2,33.7,13.4,50.1,21,35.2,16.4,69.3,35,102.6,55.1,25.9,15.7,51.8,31.5,77.3,47.8,22.3,14.3,44.2,29.1,65.9,44.3,9.9,6.9,16.5,16.6,17,29.4,0,.8,1.2,1.6,1.9,2.4,0,.8,0,1.5-.4,2.3-.8.9-1.5,1.7-1.6,2.6-1,15.6-9.2,26.5-22.8,33.3-41.8,20.8-83.7,41.5-125.8,61.9-23.1,11.2-46.6,21.9-69.9,32.7-4.8,2.2-9.6,4.2-12.9,8.8-2.4,3.3-5.6,6.4-9,8.3-14.5,8.1-29.4,14.9-46.6,14.2-2.5-.1-5.3.1-7.7.9-25.8,8.9-51.1,19.5-78.8,22.2-12.6,1.2-24.2-.9-35.4-5.8-12.8-5.6-22.7-15-30.6-26.5-22.7,14.8-43.8,11.7-63-4.7-6.9,2.9-13.1,5.7-19.3,8.2-9.7,3.9-19.7,6.9-30.4,5.5-3.4-.5-5.9.3-8.8,2-6.9,4.1-14.5,6.5-22.6,6.1-5.4-.3-10.7-1.3-16-1.9-13.4-1.5-25.1-6.6-32-18.5-4-6.9-8-12.3-16.3-13-.6,0-1.2-.5-1.7-.8-8.5-4.1-14.6-10.7-19.5-18.5-6.6,1.6-12.9,3.8-19.4,4.5-3.9.4-5.4,2.2-7.5,5-4.3,5.6-9.1,11-14.2,15.8-2.7,2.5-4.6,4.8-5.8,8.4-5.9,17-17.8,26.9-35.9,29-4.2.5-8.5.8-12.7,1.4-9.3,1.3-18.7,1.8-27.2-2.9-6.2-3.4-11.8-7.9-18-12.2-6,3.3-12.4,7.6-19.4,10.3-7.3,2.8-15.2,3.9-22.7,6-17,4.7-34.3,7.7-51.8,8.2-22.9.6-45.8-.8-67.9-1.3-9.9,15.8-19.7,32.5-30.3,48.5-15.4,23.2-33.6,43.9-54.6,62.4-16.4,14.5-34.3,26.7-53.8,36.2-15.1,7.3-31,13.1-47,18.3-19.6,6.3-39.9,10.1-60.5,11.3-1,0-2,1.3-2.9,1.9M805.5,305.5c6.6-2.4,13.3-4.8,20.7-7.3,14.6-3.9,29.2-7.8,43.8-11.7,2.5-.7,4.4-.9,6.2,2.1,8.5,13.8,25,18.1,40.2,10.7-.7-3.3-1.4-6.7-2.2-10.4,5.6-1.3,11-2.3,16.1-4,1.7-.6,4.1-3,4-4.4-.2-3.1-2.8-3.5-5.7-2.7-5.3,1.3-10.6,2.4-16.3,3.7-1.5-6.6-3-12.8-4.6-19.5,5.7-1.4,10.9-2.6,16.2-3.9,2.8-.6,5.2-2,3.9-5-.6-1.3-3.7-2.4-5.5-2.1-5.4.8-10.6,2.2-16.2,3.4-1-3.7-1.9-7.1-2.7-10.3-18.6.6-28.9,10.8-31.8,30.6-21.8,6.5-43.2,12.9-64.6,18.4.4-4.3-.7-7.6-5.7-8.3-18.1-2.6-36.1-5.4-54.2-7.8-6-.8-8.3,1.2-9.1,7.1-2,14.3-4,28.6-6.6,43.3-14.2,7.4-28.4,14.8-42.6,22.2-1.1.6-2.4.7-3.5.3.6-22.3,1.3-44.5,1.9-66.8.2-8.6-2.1-11.4-10.9-10.6-14.9,1.3-29.7,3.3-44.6,4.2-2.3-10.5-3.4-21.5-7.2-31.4-7.5-19.5-21.8-32.5-43.4-32.9-41.5-.8-71.9,19-94.2,53.7-21.4,0-41.9,4.5-61.7,12.4-9.8,3.9-19.1,9.2-30,10.4-5.9.7-11.8,2.1-17.6,3.3-6.2,1.3-7.7,3.6-6.8,9.8.7,4.4,1.4,8.9,1.3,13.3-4.7.3-9.5.6-15.2.9-6.4.4-12.7.7-19.9,1-5.7.6-11.5,1.1-18.1,1.7-7.7.9-15.5,1.8-24.1,2.9-7.7,1.4-15.3,2.8-23.8,4.2-12.9,3.3-26.5,5-36.5,14.8.1.8.3,1.5.4,2.3,12.3.6,24.6,1.3,37.8,2.1,8,.4,16.1.7,24.8,1.5,7.4.2,14.8.4,22.6,1-.2.6-.3,1.3-1.3,2.1-6,.9-12.1,1.8-19,2.9-7,.7-14,1.4-22,2.1-8.3.6-16.7,1.2-25.9,1.6-8.7.6-17.5,1.1-27.1,1.6-15.1.1-30.2.2-45.3.4-2,0-4.1.9-6.1,1.3,0,.7,0,1.4,0,2.1,16.6,7.1,34.6,8.3,53,11.2,8.7,1,17.4,2.1,26.8,3.6,8.1.8,16.2,1.6,25.2,2.5,7.4.6,14.8,1.3,23,2.2,6.1.5,12.2,1,19,1.6l3.3.3c0,.2,0,.3,0,.5-2.7.5-5.4.9-9,1.3-8.7.9-17.4,1.8-27,2.8-13,1.6-26.2,2.4-38.3,8.3,0,.5,0,1,0,1.5,13,.7,26.1,1.4,40,2.2,8.7.4,17.4.7,27,1.2,7,.4,14.1.8,21.8,1.6,6.4.4,12.9.8,20.1,1.4,2.4.4,4.9.7,8.2,1.3-2.7.7-4.4,1.1-7,1.6-4.7.4-9.4.8-14.9,1.2-5.1.4-10.1.8-16,1.1-6,.6-12.1,1.3-19,1.8-6.4.6-12.7,1.3-20,1.9-7.7.8-15.4,1.5-23.9,2.2-8.1,1.1-16.2,2.2-25.1,3.5-12.5,2.3-25.6,2.9-35.7,12.5,12.2,2.7,24.4,3,37.6,2.9,8,0,16.1,0,25,.1,7.7,0,15.3.2,23.9.6,6.4,0,12.8,0,19.9.2,3.6.8,2.8,2.8,1,4.5-1.3,1.2-3.1,1.8-5.5,2.8-6.8,1.6-13.5,3.3-21.1,5-7.1.7-14.1,1.4-22,2-6.7.3-13.4.7-21.1.9-7,0-14.1.2-22,0-4.5,0-9.1,0-13.6-.2-18.1-.9-36.2-1.8-54.2-2.7-1.4,0-2.9.6-4.4.9,0,.4-.2.9-.2,1.3,1.7,1.1,3.3,2.5,5.1,3.2,22,8.4,44.8,13.3,68.9,15.7,7.1.8,14.2,1.6,22,2.5.7.3,1.3.5,3.4,1.4-9.2,1.3-17,2.5-24.8,3.6,0,.6,0,1.2,0,1.8,13.5,4.2,27.5,6,42.3,7.8,7.1.8,14.2,1.6,22.2,2.6,7.1.6,14.1,1.2,22,2.2,6.4.5,12.8,1,20.1,1.6,5,.3,10.1.6,16,1,5,.2,10,.5,16,.9,5.4,0,10.7,0,17,.2,9.3,0,18.6,0,28.1.8.8,7.2,3.5,13.2,10.3,16.6,3,1.5,6.1,3.1,9.3,3.6,9.8,1.6,19.7,3.7,29.6,3.7,13.3,0,26.5-1.7,39.4-2.1-18.3,9.2-37.8,14.7-58.5,17.3-3-2-5.7-4.9-9-5.8-27.8-8-55.7-15.7-83.6-23.4-9.4-2.6-15.8,1-18.4,10.2-7.8,27.8-15.6,55.7-23.2,83.6-2.5,9,1.2,15.7,10,18.1,27.8,7.8,55.7,15.6,83.6,23.2,9.4,2.6,15.8-1.2,18.5-10.7,2-7,3.9-14.1,5.9-21.1,6-21.3,12-42.5,18.9-63.9,37.9-5.2,71-21.3,101.7-44.1.5-.4.9-.8,1.4-1.1,0,0,0,0,.7,0,14.7-7.3,27.1-17.3,36.7-30.8.9-1.2,2.2-2.2,3.4-2.4,1.1,6,1.4,12.3,3.3,18,10,31.5,50.5,41.6,71.6,17.7,16.3-18.5,21.1-39.8,13-63.3,8.4.6,16.8,1.5,25.3,1.9,13.3.5,26.5-5.3,39.9-.6-6.1,8.7-13.2,16.9-18.1,26.2-11.1,21.2-7.7,43.3,8,59.5,8.9,9.2,19.9,15.1,32,18.8,35,10.7,69.8,9,103.9-3.4,21.3-7.8,38.4-20.6,44.1-44.6,4.5-.7,5.3-3.9,5.1-7.8-.6-10.6-1.2-21.3-1.8-31.9-.9-15.1-1.8-30.2-2.7-45.3-.5-8.2-.7-16.5-1.1-24.7,13.7-2,26.5,4.4,33,15.6,5.3,9.2,6.8,19.4,7.8,29.6,1.8,19.9,8.9,37.1,25,49.7,3.9,3,8.1,5.7,12.2,9.4,5.4,29.6,20.1,53.2,45.1,71.1,1.9,21.3,4,42.6,5.8,64,.9,10.6.6,10.9,11,10.1,14.7-1.2,12.5,1,11.4-13.6-.7-8.7-1.4-17.4-2.2-26.9,2.3.8,4.1,1.3,5.7,2,5,2.1,10.1,4.3,15.1,6.6,2.7,1.3,4.3.7,5.5-2,1.6-3.6,3.5-7.2,5.3-10.7q3.6-7.2-3.7-10.6c-.4-.2-.5-.8,0-1.1,4.8,0,9.7.2,14.5-.2,25.6-2.2,49.9-9.4,73.7-18.8,4.2-1.7,8.4-3.6,12.9-5.5.4,2.5.8,4.4.9,6.4.3,4.1,1.7,5.9,6.4,4.9,8.6-1.9,17.4-3.1,26-4.6,10.9-1.9,10.9-2,9.6-12.9-.1-1.2-.4-2.3-.5-3.5-.3-4-2.3-5-6.1-4.1-5,1.2-10.1,1.9-15.1,2.9.8-1.8,1.8-2.6,2.9-3.3,20.2-13.6,36.6-30.8,49.4-51.5,1-1.5,2.2-2.9,4-4.4,20-10.5,26.8-27.1,20-48.9,1.9-6.1,3.7-12.2,5.6-18.3,8.7,2.9,16.7,5.5,24.7,9-3.1,15.9-6.1,31.8-9.3,47.7-1.2,6.1,0,8.3,6,9.5,18.1,3.7,36.3,7.3,54.5,10.8,4.4.8,6.9-1.8,7.8-5.9,1.1-5.3,2-10.7,3.1-16.1,2.6-13.3,5.3-26.6,8.8-39.9,2.3-.1,4.5-.3,5.9-.3-.6,21.6-1.2,42.9-1.6,64.3-.2,7.6.3,15.3.1,22.9-.2,7.4,2.9,14.7,0,22.1-4.9-.4-9.7-.8-14.6-1.3-9.4-.9-20.2,5.9-27.9-5-.1-.2-.6-.2-.9-.3-8.8,7.8-17.6,15.5-27,23.8,3.8,4.3,7.7,8.8,11.8,13,.7.7,2.9.5,4,0,4.1-2.2,8.4-4.2,11.9-7.2,6.2-5.2,13.2-3.7,21.5-4-2.1,4-3.6,7-5.1,9.8-4.8-1-9.1-2-13.5-2.6-1.4-.2-3.4.5-4.2,1.5-2.4,2.9-4.3,6.2-6.9,10,4.5,2.5,8.6,4.8,13.2,7.3-3.6,4.1-6.9,8-10.5,11.7-10.1,10.4-10.6,7,1.6,16.6,2.9,2.3,5.7,2.5,8.5,0,5.8-5.2,11.7-10.3,17.3-15.8,1.9-1.9,3.3-2.7,5.9-1.3,9.8,4.9,7.6,4.8,13.7-3.8.4-.5.7-1.1,1.1-1.7,5.7-8.1,6.7-8.2-3.3-13-.5-.3-1-.7-1.4-1,2.5-5.6,5-10.9,7.5-15.5.3,2.5.7,4.9,1,7.4,2.2,15.3,4.9,30.5,11,44.9,8.9,21,22.5,28.6,44.5,22.9,18-4.7,35.6-10.8,53.2-16.8,8.8-3,17.2-7,26-10.6,0,0,.2,0,.4.8,1.9,4.6,4.8,6.4,9.5,3.5,1.7-1,3.7-1.4,5.6-2.1q9.4-3.4,9.5-12.2c75.3-32.8,149-68.8,222.4-106.4-1-.8-1.6-1.3-2.3-1.8-59.1-40.4-119.3-79.1-182-113.7-35.6-19.6-71.6-38.2-110.6-50.2-1.2-.4-2.4-1.2-3.2-2.1-9.5-11.1-21.3-19.3-34.2-25.5-9.6-4.6-20-7.7-30.6-12.1,0-1.5-.2-3,.1-4.4,1.5-7.6,3.1-15.3,4.6-22.9,1.4-7.2,0-9.6-6.9-10.9-17.2-3.4-34.5-6.7-51.7-10-6.1-1.2-8.6.4-9.9,6.5-1,4.9-1.8,9.8-2.7,14.7-2.5,13.3-4.9,26.7-7.7,40.6-11.6,6.8-21,16-27.1,27.8-6.6,12.7-11.9,26.2-18.2,38.7-1.8-8.1-3.8-16.2-5.5-24.3-1.2-5.7-4.6-8.7-10-9.6-19.9-3.3-39.7-3.1-59.3,2.4-5.5,1.6-11,3.6-16.8,4.9-6.4-7-12.8-14-19.1-21.1-19.1-21.4-38.3-42.7-62.4-58.7-29.4-19.4-61.5-27.3-96.5-21.9-11.8,1.8-23.5,4.6-35.3,6.8-1.7.3-4.5-.3-5.4-1.5-10.2-13.6-24.7-17.5-40.4-10.2,4.3,18.3,8.5,36.8,12.8,55.1,22.4-1.5,32.5-15.6,31.9-32.8,5.6-1.2,11.3-2.3,17-3.7,21.1-4.9,42.3-7.4,63.8-3,27.3,5.5,50.4,19.3,69.9,38.4,19.4,19,37.3,39.4,55.6,59.8-10.1,9.4-15.2,20.8-11.6,34.5,2,7.6,5.2,15,8.8,22.1,3.9,7.7,9.1,14.7,13.2,22.3,3.7,6.8,1.8,12.2-5,15.8-2.5,1.3-5.3,2.4-8,2.6-4.9.4-9.9,0-14.9,0-5.9,0-7.5,2.1-6.3,7.7,2.3,10.7,4.8,21.4,7.1,32.1,1,4.7,3.5,7.8,8.6,8.3,7.4.7,14.9,2.2,22.3,1.8,12.7-.7,25.4-2.6,37.9-3.3-10.4,14.7-23.1,27.1-37.8,37.4-24.7,17.2-52.4,27.1-81.3,34.2-24.2,5.9-48,6.5-71.5-3.2-.1-1.8-.3-3.6-.3-5.5-.1-4.1-1.6-6.4-6.4-5.6-4.2.7-8.6.7-13.2.4-19.2-14.7-31.9-33.6-36.3-57.3,20.8,5.2,39.6-4.6,45.2-23.4,1.8-6,.7-10.7-4.4-14.5-10-7.3-15.8-17.2-17.8-29.5,9.2-5.9,19.4-8.8,30.3-9.4.6,2.7,1.3,5.5,1.9,8.2,2.1,8.9,8,12.6,17,10.6,24.5-5.4,49-11,73.6-15.9,9.7-1.9,14.7-8.4,12.1-18.8-1.3-5.3-2.4-10.7-3.6-16.1-4.3-19.6-8.5-39.3-12.9-58.9-1.5-6.8-7.5-11.5-13.3-10.2-26.8,5.7-53.6,11.5-80.4,17.5-7.2,1.6-10.7,7.9-9.2,15.4,1.4,6.7,3,13.3,4.3,20,2.6,12.5,5.1,25.1,6.8,37.8-9.5,3-18.9,6.1-28.9,8.5-.5-3.6-.9-7.3-1.4-10.9-5.2-32.4-22.9-55.2-53.2-67.7-26.1-10.8-52.9-10.1-79.9-3.4-6.9,1.7-14,2.3-21,2.5,0-1.8,0-3.6,0-5.5,0-9.4-3.1-12.4-12.5-12.4-14.9,0-29.8,0-44.8-.9.4-3.7.8-7.4,1.8-11.6M1085.8,279.8s-.4-.3-.2-1c.9-2.4,1.8-4.8,2.8-7.5-3.8-1.6-7.1-3-10.8-4.6-5.2,12.2-10.3,24.1-15.5,36.3.7.4,1.1.7,1.6.9q9.2,4.8,13.2-4.7c1-2.3,2.3-4.6,3.4-6.8.5.2,1,.4,1.5.6,1.1,5.9,2.2,11.7,3.1,17.6.4,2.6,1.4,3.8,4.2,3.6,2.2-.2,4.5,0,7.5,0-.5-5.4-.8-9.9-1.2-14.3-.5-4.5-1.2-9-7.9-8.1,4.7-1.4,9.1-2.4,13.5-3.3,2.6-.5,5.3-.9,3.9-4.6-1.2-2.9-.2-8.2-6.2-6.8-4.2,1-8.4,2.1-12.9,2.8M624.6,638.4c-6.8.1-13.7,0-20.5.4-1.8.1-4.2,1.2-5.3,2.6-32,41.6-63.8,83.3-95.6,125-4,5.3-7.7,10.9-11.1,16.6-5.3,9-4.5,14.2,4.3,19.8,7.1,4.5,14.8,8.3,22.8,11,22.2,7.6,45.2,9,68.5,7.3,29.8-2.2,58.6-8.6,85.9-20.8,63.1-28.1,102.6-78.7,131.8-138.9,3.6-7.5,5.1-15.9,7.8-24.6-63.3.5-125.5,1-188.6,1.6M816,163.5c-1.9-3.1-3.8-6.2-5.9-9.3-52.9-79.7-127.8-115-222.4-110.1-14.5.7-28.6,4.8-41.3,12.3-9.3,5.5-10.7,10.4-6.2,19.9.9,1.8,1.8,3.6,2.8,5.3,31.2,48,62.3,96.1,93.6,144,1,1.5,3.4,2.6,5.3,2.7,31,2.7,62.1,5.2,93.1,7.7,26.9,2.2,53.8,4.4,80.7,6.6,11.1.9,22.2,1.7,33.9,2.7-1.1-5.9-1.9-11.1-3.2-16.3-5.8-23.6-17.2-44.6-30.6-65.4M1089.6,448c-17.3,11.5-22.3,31.8-12.2,49.2,9.1,15.8,30.7,22.1,47,13.7,17.9-9.2,25-31,15.7-48.6-9.8-18.6-31.2-24.9-50.5-14.4M817.6,582c3-1.2,5.9-2.3,9.9-3.9-2.3,19.7-9.3,36.5-17.9,53.4,4.2,1.4,7.9,2.3,11.3,3.9,4.4,2,7.5.7,9.5-3.3,5.8-11.9,12.3-23.6,17.1-35.9,4.1-10.6,5.4-21.9,2.8-33.4-2-8.5-7-11.2-15.1-8-7.3,2.9-14.5,5.8-21.6,9-3,1.3-5.5,1.8-8.3-.5-2.8-2.3-4.8-1.6-6.7,1.7-3.5,6-7.1,12-11.3,17.6-5.9,7.9-6.1,7.7,2.1,12.7,9.6,5.8,9.5,5.7,17.1-2.6,3.3-3.7,7-7,11.2-10.8M730.6,570.1c-2.2,2.3-4.2,4.7-6.6,6.8-8.1,7.4-16.9,13.4-27.4,16.9-1.9.6-4.8,1.2-3.4,4.2,1.8,3.9,4,7.7,6.5,11.2.8,1.1,3.3,1.6,4.8,1.3,27-6.2,46.9-21.4,58-47.1,3.9-9,.9-14.8-8.5-17.4-10.4-2.9-20.9-5.5-31.3-8.5-4.4-1.3-6.5-.3-7.3,4.3-.5,3.1-1.5,6.1-2.6,9.1-1.1,3-.5,4.7,2.9,5.4,4.1.9,8,2.2,12,3.3,8.9,2.5,8.9,2.7,2.9,10.5M941.2,581.3c11.6,1.4,23.3,2.9,35.7,4.4-1.7,3.1-2.7,5.5-4.2,7.6-7.3,9.9-14.8,19.6-22.1,29.5-.9,1.2-1.8,4-1.3,4.5,3.6,3.2,7.4,6.2,11.4,8.8,1,.6,3.6-.2,4.8-1.1,5.5-4.3,11-8.6,16-13.5,9-8.9,16.3-19,20.7-31.1-13.5-4.6-16.6-8.7-17.3-23.2-12.2-1.7-24.6-3.4-36.9-5.1-12.5-1.6-12.5-1.6-14.4,10.9q-1.2,7.5,7.5,8.2M1219.9,597.1c-.9,4.4-1.8,8.8-2.8,13.2-3.2,12.9-3.2,13,10.3,13.7,2.1.1,5.3-.8,6.3-2.4,8.4-12.9,12.2-27.3,11.8-42.6-.2-9.2-4.4-12.4-13.6-11.2-15.3,2-30.7,4.1-46,6.5-9.6,1.5-8.9-1-7.7,10.4,1,9.4,1.2,9.4,10.5,8.3,1.5-.2,3-.4,4.4-.6,8.8-1.2,17.7-2.4,27.2-3.7-.2,2.9-.3,5.2-.5,8.3M530.2,567.2c2.4.5,5,1.8,7,1.3,4.2-1.1,5.6.5,6.6,4.2,1.9,7.1,4.1,14.1,6.4,21,3.3,9.6,3.3,9.4,13,6.5,4.5-1.3,5.3-3.3,4-7.6-2.7-8.9-4.9-17.9-7.4-27.3,2.8-.5,5.1-.8,8.3-1.4-.9,2.5-1.9,4.2-2,5.9,0,1.5.3,3.7,1.3,4.5,6.9,5.6,9,5.3,14.3-2.2,1.9-2.7,3.6-5.7,4.6-8.8,4.2-12.4-.8-18-13.5-15.9-5.7,1-11.4,1.7-16.3,2.5-4-3.6-.4-12.3-9.2-10.7-3.6.7-8.3.8-10.1,3.1-1.6,2,0,6.6.3,10.3-1,.1-2,.3-3,.4-6.3.8-6.5,1-5.5,7,.3,2.1.7,4.3,1.2,7.2M924.8,580.8c-1-7.6-1.9-15.1-3-22.7-.4-2.8-1.5-5.1-5.2-4.7-4.9.6-9.9,1.1-14.9,1.5-3.2.2-3.8,2-3.5,4.8.8,7.8,2.1,15.5,2.4,23.3.5,14.6-1,28.9-8.4,42-.9,1.7-1.6,3.5-2.7,5.9,5.2,1.6,9.8,3.3,14.4,4.1,1.8.3,4.8-1.3,6-2.9,11.1-14.8,14.9-32,14.8-51.1M1303.9,600.4c5.5-3.7,11-7.5,16.5-11.2,2.3-1.6,2.9-3.3,1.3-5.9-2-3.1-3.9-6.3-5.3-9.6-2-4.4-4.5-4.5-8.2-2.1-3.8,2.4-7.8,4.5-11.9,6.4-12.4,5.8-24.7,11.5-37.2,17-3.9,1.7-4.8,3.3-2.3,7,2.3,3.4,4.4,7.1,6.1,10.9,1.7,4.1,4.1,4.5,7.8,2.8,10.8-5,21.8-9.9,33.2-15.3M501,580.5c-11.4,7.9-22.7,15.8-34.2,23.5-3.4,2.3-3.7,4.2-1,7.1,2.8,3.1,5.5,6.2,8,9.6,2,2.8,3.9,2.8,6.8,1.3,14.2-7.5,27.2-16.9,38.5-28.3,10.7-10.7,10.6-10.7.8-22.2-2.2-2.5-3.9-3.1-6.6-.7-3.8,3.3-7.8,6.2-12.3,9.8M1025,290.5c-4.3-7.7-8.5-15.4-12.9-23.1-1.5-2.6-2.1-5.7-6.6-5.6-4.7.1-8.3,1.2-9.9,5.7-3.6,9.8-7.1,19.6-10.5,29.5-.9,2.6.1,4.4,3,4.3,2.7,0,6.2,4,7.8-1.3.8-2.8,2.5-3.1,4.8-3,1.9.1,3.9,0,5.9,0v-10.7c-2.2-.3-3.9-.5-6-.8,1.1-2.9,2-5.4,3.3-9,4.1,8,7.4,14.8,11.1,21.5.7,1.3,3,2.9,4.2,2.6,3.1-.7,6-2.3,9.4-3.7-1.4-2.5-2.3-4.2-3.6-6.6M609.1,602c9-6.8,18.2-13.2,26.8-20.4,5.1-4.2,4.7-5-.3-9.7-2.2-2.1-4.1-4.4-6.6-6-1.4-.9-4.2-1.3-5.4-.5-9.6,5.9-19,12.3-28.5,18.4-2.9,1.9-2.9,3.7-.8,6,3.1,3.5,6,7.2,9.2,10.4,1.1,1.1,3.1,1.3,5.5,1.7M1041.6,279.4c1.4-10.6,7-12.4,19.4-5.8,1.3-1.7,3.1-3.4,3.9-5.4.5-1.3.1-3.9-.8-4.8-7.2-6.7-20.3-7.3-27.8-1.5-7.5,5.7-10.2,17.1-6.3,25.7,4.2,9.1,14.4,13.7,24.8,11.2,8.6-2.1,9.8-5,5.2-12.7-11.7,3.1-15.8,1.8-18.4-6.7M676.8,586.7c-1.5-2.6-2.9-5.2-4.4-7.8-7.1-12.7-7.1-12.6-21.3-9.8-3.4.7-4,2.3-2.9,5.2,3.9,10.6,7.8,21.2,11.5,31.9,1,2.9,2.6,3.6,5.3,2.9,4.8-1.2,9.6-2.6,14.5-3.7,3.1-.7,3.9-2.4,2.8-5.1-1.7-4.3-3.5-8.6-5.6-13.6M873.8,598.2c2.3,0,4.8.3,7-.3,1.6-.5,4-2.3,4-3.5-.2-10.1-.7-20.2-1.3-30.4-.2-2.9-2-4.2-5.3-3.6-4.4.8-8.9,1.3-13.4,1.5-4.3.2-5.4,2.2-4.7,6.1,1.3,7.7,2.5,15.4,3.7,23.2q1.2,7.8,10,7M749.2,591.5c-2.5,2.5-4.8,5-7.4,7.4-2.3,2.1-2.6,4,0,6.2,5.4,4.7,10.7,9.5,15.9,14.3,2.2,2,3.8,2.1,5.8-.2,3.5-4,7.1-7.9,10.7-11.8,2-2.1,2.3-4.1-.4-5.7-6.3-3.7-12.5-7.4-19-10.7-1.3-.7-3.3,0-5.6.5M1273,549.4q-10.6-7.3-21-.4c-1.2.8-2.5,1.7-3.7,2.5-2.7,1.6-2.8,3.4-.7,5.6,2.8,2.9,5.5,5.7,8.3,8.6,8.8,9.3,5.9,9.7,17.2,1.7,11.7-8.3,11.7-8.5,0-18M989.2,569.1c-.8,6.4,1.6,11.5,7.2,14.7,5,2.9,10.2,2.7,15.1-.5,5.2-3.4,7.5-9.8,5.9-15.7-1.8-6.3-7-10.5-13.5-10.6-7-.2-11.9,3.7-14.7,12.1M451.4,569.9c-2.7,1.8-5.5,3.6-9,6,4.8,5.3,9.3,10.1,13.5,15.1,2.2,2.6,4.2,2.7,6.8.8,3.5-2.5,7-5,10.7-7.3,4-2.4,3.2-5.1.5-7.6-2.9-2.7-6.4-4.8-9.3-7.5-4.4-4.1-8.5-3.7-13.3.4M470.1,545.3c-2.3,2.6-4.8,5.1-6.7,8-.7,1.1-.8,4,0,4.4,5.8,3.8,11.9,7.3,17.9,10.8,3.7-4,7.4-8,11-12,.4-.5,1.2-1,1.2-1.6,0-1.6.2-4.3-.6-4.6-6-2.8-12.1-5.2-18.3-7.4-.9-.3-2.5,1.1-4.3,2.3M673.5,560.7c-2.2-10-3.8-10.8-13-6.7.4,2,.7,4.1,1.5,6.1.6,1.5,2,4,2.7,3.9,3.1-.4,7.1,2.1,8.9-3.2M498.7,534c-1.4,1.1-4.3,2.7-4.1,3.2,1.1,3,2.4,7.3,4.7,8.1,2.4.9,7.4-.8,8.9-3,2.3-3.5-4.4-9.7-9.5-8.3M520.5,542c.9-2.4,3.3-6.3,2.6-6.9-2.4-2.2-5.9-4.4-8.9-4.3-1.7,0-4.7,4.4-4.7,6.8,0,3,7.9,6.2,11,4.4M688.8,556.8c-1.1-1-2.2-2-3.3-2.9-3.5-3-5.9-2.7-9.6,1.2-3.1,3.3.9,4.4,2,6.3.3.6.8,1.1,1.4,1.4,1.6.8,4.2,2.4,4.7,1.9,2.1-2.1,6.9-2.6,4.8-7.9Z"/>
  <path class="cls-19" d="M1388,542c2.1-7.5-1-14.8-.8-22.2.2-7.6-.3-15.3-.1-22.9.5-21.4,1.1-42.7,1.6-64.3-1.4,0-3.7.2-6.4,0,.3-3.5,1-6.6,2.1-9.7,2.5-.3,4.6-.7,6.3-.9,2.8-11,5.5-21.6,8.4-32,11.8,5.2,19.1,13.8,19.8,26.3.6,10-.1,20.2-1.4,30.2-3.7,28.9,8.9,54.2,34.3,68.7,7,4,13.2,4.1,20,0,7.4-4.4,15.2-8.3,22.7-12.4,11.2-6.1,11.8-8.2,4-18.4-7.7-10.1-10.3-21.3-8.9-33.7.9-8.1,2.1-16.2,2.5-24.3,1.4-26-7.1-48.3-26.2-66.3-10.7-10.1-23.2-17.1-36.7-22.5,8.3-7.4,17.7-11.6,30-12.6-16.8-12.1-32.8-22.2-52.5-25.9-3.4-.4-6.3-.9-9.3-1.1-13-.7-25.9,1.1-38,5.5-9.3,3.4-17.9,9-27,13.6-.4.3-.6.6-.7.8,0,0,0,0-.3,0-3.8,3.9-7.6,7.5-10.6,11.7-16.7,23.4-22.9,51-31.2,78.5,8.2,2.6,16.1,5.1,24,8.1-.6,3.5-1.3,6.6-2,9.8-8-2.7-16-5.3-24.7-8.2-1.9,6.1-3.7,12.2-5.9,19-3.6,9.2-6.7,17.8-10.2,26.2-3.1,7.5-6.8,14.8-10.2,22.1-1.1,1.4-2.3,2.8-3.3,4.4-12.8,20.7-29.2,37.9-49.4,51.5-1.1.7-2.1,1.5-2.9,3.3,5-.9,10.1-1.7,15.1-2.9,3.8-.9,5.8,0,6.1,4.1,0,1.2.3,2.3.5,3.5,1.3,10.9,1.3,10.9-9.6,12.9-8.7,1.5-17.4,2.7-26,4.6-4.7,1-6.1-.7-6.4-4.9-.1-2-.5-3.9-.9-6.4-4.5,2-8.7,3.9-12.9,5.5-23.7,9.4-48.1,16.6-73.7,18.8-4.8.4-9.6.2-15.3,0-7.4-1.2-14-2.2-20.9-3.2-3-.8-5.7-1.6-8.3-2.8-.3-3.8-.7-7.2-1-10.5,23.6,8.9,47.4,8.2,71.6,2.3,29-7.1,56.7-17,81.3-34.2,14.8-10.3,27.4-22.7,38.2-37.9,15-21.9,24.7-45.5,31.9-70.6,1.1-3.1,2-5.8,3-9-4.2-1.9-8.2-3.7-12.3-5.8-2.4-5.2-4.6-10.1-6.4-14.9,7.2,3.7,14,7.4,21.5,11.4,1.9-7.2,3.6-13.7,5.6-20.5,1.6-4.8,3-9.4,4.4-14,5.9-13.1,11.2-26.6,17.8-39.3,6.1-11.8,15.5-21,27.7-28.2,8.4-3.4,16.1-7,24.2-9.4,16.4-4.9,33.1-6.9,50-3,10.1,3.7,20.5,6.7,30.1,11.4,12.9,6.2,24.7,14.5,34.2,25.5.8,1,2,1.8,3.2,2.1,39,12,75.1,30.6,110.6,50.2,62.7,34.6,122.9,73.3,182,113.7.7.5,1.3,1,2.3,1.8-73.4,37.6-147.1,73.6-222.9,106.4-.5,0-.7,0-1-.1-2.8-3.9-5.2-7.7-8-11.2-5.7-7.2-5.8-7.1-14.5-4.1-2.2.7-4.3,1.8-6.6,2.2-4.6.9-4.6,3.4-2.8,6.8,2.8,5.4,5.4,10.9,8.2,16.4-8.6,3.6-17,7.6-25.7,10.6-17.6,6-35.2,12.1-53.2,16.8-21.9,5.7-35.6-2-44.5-22.9-6.1-14.4-8.8-29.6-11-44.9-.3-2.5-.7-4.9-1-8.2,0-1.1,0-1.3.4-1.9,1.5-6.6,3.8-13.1-2.4-18.4,0,0,0,0,0,0M1454.9,579.6c-1.3-1.2-2.4-2.8-3.9-3.5-1.9-.8-4.1-.9-6.3-1.4,9.9-3,19.4-5.9,28.9-8.6,3.6-1,4.6-2.8,3.2-6.2-2-4.7-4-9.5-5.7-14.3-1.3-3.7-3.5-4.3-7-3.3-20.5,5.9-41.1,11.8-61.6,17.6-2.7.8-4.1,1.8-3.2,4.9.9,3.2,1.9,6.4,2.1,9.7.4,4.8,2.6,6.2,7.1,5.6,7.2-1,14.4-1.6,21.9-2.4-2,12.8-3.9,25.1-5.9,37.4-.5,3.2.5,4.6,3.7,5,4.3.5,8.6,1.1,12.8,2,6.2,1.5,6.5,1.5,7.8-6.3,1.9-11.8,3.9-23.6,5.9-36.2M1503.3,594c0-1.6-.2-3.3.3-4.7,3.7-11.7,7.5-23.3,11.4-35,1-3.1.7-5-3.1-5.5-5.4-.8-10.8-1.9-16.1-3-2.7-.6-4,.3-4.8,2.9-5.9,20.4-11.8,40.7-17.6,61.1-1.2,4.1.9,7.1,5.1,7.3,11.3.7,22.5-.1,33.6-3.2,4.8-1.4,6.1-3.9,5.1-8.8-2.3-10.8-2-10.9-13.8-11.1Z"/>
  <path class="cls-51" d="M625.1,638.4c62.6-.5,124.8-1,188.1-1.5-2.7,8.7-4.2,17.2-7.8,24.6-29.2,60.2-68.7,110.8-131.8,138.9-27.3,12.2-56.1,18.6-85.9,20.8-23.3,1.7-46.3.3-68.5-7.3-7.9-2.7-15.7-6.5-22.8-11-8.8-5.7-9.6-10.8-4.3-19.8,3.4-5.7,7-11.3,11.1-16.6,31.8-41.7,63.7-83.4,95.6-125,1.1-1.4,3.5-2.5,5.3-2.6,6.8-.4,13.7-.3,21-.4Z"/>
  <path class="cls-51" d="M816.2,163.8c13.1,20.6,24.6,41.5,30.4,65.1,1.3,5.1,2,10.4,3.2,16.3-11.8-.9-22.8-1.8-33.9-2.7-26.9-2.2-53.8-4.4-80.7-6.6-31-2.5-62.1-5-93.1-7.7-1.8-.2-4.3-1.3-5.3-2.7-31.3-47.9-62.5-96-93.6-144-1.1-1.7-2-3.5-2.8-5.3-4.5-9.5-3.2-14.4,6.2-19.9,12.7-7.5,26.7-11.5,41.3-12.3,94.6-4.9,169.6,30.4,222.4,110.1,2,3.1,3.9,6.2,6,9.6Z"/>
  <path class="cls-29" d="M495.9,516c-13.3,1-26.5,2.7-39.8,2.7-9.9,0-19.8-2.1-29.6-3.7-3.2-.5-6.3-2.2-9.3-3.6-6.8-3.3-9.5-9.4-10.4-17.4-4.7-25.3-9.2-49.8-13.9-74.2-4.3-22.3-8.7-44.6-13-67.3-2.3-12.8-4.7-25.1-7-37.5-.7-4.4-1.5-8.8-2.1-13.3-1-6.2.5-8.5,6.8-9.8,5.9-1.2,11.7-2.7,17.6-3.3,10.8-1.2,20.1-6.5,30-10.4,19.8-7.9,40.3-12.3,62.6-12.4,4.6,0,8.2,0,12.3.1,12.3,1.7,23.8,4.3,34.7,9.8,29.4,14.7,44.3,46.7,34.9,77.2-2.5,8.3-7.5,15.8-11.5,24.1,2.1,1.6,4.9,3.7,7.2,5.8-10.6-1.3-21-1.9-30.9-4.1-13.4-3-25.7-8.8-34.7-20.3,7.9-14.9,1.1-29.4-16.3-34.7-3.5-.4-6.7-.6-10.3-.9-8.7-.4-16.6,1-24.3,4.3,3.1,16.6,6.1,32.9,9.2,49.4,11.9-1.9,23.3-4.4,33.7-10.5,10.3,10.8,22.7,17.7,36.6,21.8,15.8,4.6,32,5.4,48.3,5.6,3.9,8.7,7.9,17,11.8,25.7-.6,3.7-1.6,6.9-1.9,10.2-.8,8.1-3.4,15-10.4,19.9-2.3,1.6-3.9,4.1-5.8,6.2-14.7,15.8-28.6,32.6-47,44.3-9.1,5.8-18.5,10.9-27.8,16.3M518.8,431.1c-3.1-8-9.4-11.5-17.4-13.2-10.9-2.2-21.5.2-32,2.4-1,.2-2.3,2.8-2,4,2.1,12.4,4.5,24.8,7,37.2.2,1.2,1.9,3.2,2.9,3.1,10.7-.5,21.2-1.7,30.5-7.6,10.3-6.5,13.9-14.4,11.1-25.9Z"/>
  <path class="cls-29" d="M1018.1,427c2.6,12,8.5,21.9,18.5,29.2,5.2,3.7,6.2,8.5,4.4,14.5-5.5,18.8-24.4,28.6-45.9,23.2-4.2-1.4-7.6-2.7-11-3.9-4.1-2.8-8.3-5.5-12.2-8.5-16.1-12.6-23.2-29.8-25-49.7-.9-10.3-2.5-20.4-7.8-29.6-6.5-11.3-19.2-17.6-33-15.6.4,8.2.6,16.4,1.1,24.7.8,15.1,1.8,30.2,2.7,45.3.6,10.6,1.2,21.3,1.8,31.9.2,3.8-.5,7-5.5,7.3.5-16.8-6.2-30.5-15.5-43.2-13.9-19-32-33-52.9-43.9-1-13.1-2-25.8-2.9-38.7.4-.5.6-.7,1.3-.9,9.1-2.3,15.7-7.1,19.3-15.9,2-5.5,3.7-10.7,5.4-16,0,0,0-.2,0-.2,7-1.1,14.2-1.7,21.1-3.4,27-6.6,53.8-7.4,79.9,3.4,30.3,12.6,48,35.3,53.2,67.7.6,3.6,1,7.2,1.7,11.6.6,4.1,1,7.5,1.4,10.8Z"/>
  <path class="cls-31" d="M736.9,439.1c-13.5-4-26.6,1.7-40,1.2-8.4-.3-16.9-1.2-25.9-2.2-8.6-14.3-21.6-18.7-36.7-19.5-7.6-9.2-12.8-19.2-15.4-31-.7-3.5-1.3-6.6-1.9-10.2-.2-3.8-.4-7.2-.4-11,1.1-4.5,1.8-8.6,3-12.5,7.9-24.9,13.6-50.2,12.4-76.5,14.8-1.7,29.6-3.8,44.5-5.1,8.7-.8,11.1,2,10.9,10.6-.6,22.3-1.3,44.5-2.1,67.7.2,4.5.6,8.1,1.1,12,.4,1.6.5,3,.9,4.2,2.2,8.5,6.1,16.2,15.9,16.5,6.6.3,13.3-1.7,19.9-3,.8-.2,1.7-1.9,1.9-3,1.8-12.5,3.5-24.9,5.5-37.6,16.7-8.1,33.2-16,49.9-23.8.2,0,.7,0,.7.4,1.3,3.2,2.6,5.9,4,9,2.4,2.9,4.4,5.7,7,7.9,2.5,2.2,5.5,3.9,8.2,6.3-.3,3.1-.6,5.7-1.1,8.6-.1.2-.3.6-.6.7-7.6,3.1-14.9,6.2-19.8,13.2-1.3,4.1-2.4,8-3.5,12.3.8,3.9,1.7,7.4,2.7,11.3,3.5,6.3,6.8,12.3,9.9,18.4-9.8,5.5-19.7,10.4-28.7,16.5-7.9,5.4-14.8,12.2-22.1,18.4Z"/>
  <path class="cls-4" d="M1332.9,317.2c8.9-4.6,17.4-10.2,26.8-13.6,12.1-4.4,24.9-6.2,38-5.5,2.9.2,5.9.7,9.2,1.5-1.6,11-3.6,21.5-5.5,31.6,9,2.3,17.8,4.6,26.6,7.2-14.7,14.3-22.8,32-29.3,50.8-2.9-.5-5.5-1-8.1-1.5-.4,2-.8,3.6-1.1,5.2-1.8,10-3.5,20-5.3,30.1-.7,3.1-1.4,6.2-2.1,9.7-2.7,13.7-5.4,27-8,40.3-1.1,5.3-1.9,10.7-3.1,16.1-.9,4.1-3.3,6.7-7.8,5.9-18.2-3.5-36.3-7.1-54.5-10.8-6.1-1.2-7.2-3.5-6-9.5,3.1-15.9,6.2-31.8,9.3-48.1.7-3.5,1.3-6.6,2-10.6.3-1.9.6-3,.8-4.2,4.4-22.7,8.8-45.3,13.1-68,1.6-8.5,2.8-17.1,4.1-25.7,0,0,0,0,.2.2.4-.2.5-.6.7-1Z"/>
  <path class="cls-29" d="M1259,392.7c2.2,4.9,4.4,9.8,6.8,15.4,3.2,5.4,6.1,10.1,9.1,14.8-7,24.8-16.7,48.4-31.6,69.9-13,1.5-25.6,3.4-38.4,4.1-7.4.4-14.9-1.1-22.3-1.8-5-.5-7.6-3.6-8.6-8.3-2.3-10.7-4.8-21.4-7.1-32.1-1.2-5.6.5-7.6,6.3-7.7,5,0,9.9.3,14.9,0,2.7-.2,5.5-1.3,8-2.6,6.9-3.6,8.7-8.9,5-15.8-4.1-7.6-9.3-14.6-13.2-22.3-3.6-7.1-6.8-14.5-8.8-22.1-3.6-13.7,1.6-25.1,12.1-34.9,2.9-2.3,5.4-4.3,7.9-6.3,5.5-1.8,10.9-3.9,16.4-5.4,19.6-5.5,39.4-5.7,59.3-2.4,5.5.9,8.9,3.9,10,9.6,1.7,8.1,3.6,16.2,5.7,24.6-1.2,4.9-2.5,9.4-4.6,14.3-6.4.3-12.1-.2-17.7.5-4.6.6-8.9,2.7-9.2,8.5Z"/>
  <path class="cls-37" d="M439,544.3c-6,21.3-12,42.5-18,63.8-2,7-3.9,14.1-5.9,21.1-2.8,9.5-9.1,13.3-18.5,10.7-27.9-7.6-55.8-15.4-83.6-23.2-8.8-2.5-12.5-9.2-10-18.1,7.7-27.9,15.4-55.8,23.2-83.6,2.6-9.3,9-12.8,18.4-10.2,27.9,7.7,55.8,15.4,83.6,23.4,3.3.9,6,3.8,9.4,6.4.8,3.6,1.2,6.7,1.6,9.7M349.9,585.4c.9-4,1.8-8,2.7-11.9,4.7.6,10.1,3,12.7,1.2,2.7-1.8,2.7-7.7,3.8-11.8,0-.2.2-.4,0-.5-.9-1.4-1.5-3.9-2.7-4.1-13.2-3.2-26.6-6-39.8-9.1-3.5-.8-4.4,1.5-4.4,3.7.2,4.5-5.6,9,0,13.3.8.6,2.2.6,3.4.9,2.4.6,4.7,1.1,7.4,1.8-.3,1.9-.5,3.3-.9,4.8-2.6,11.7-5,23.4-7.8,35-.9,3.6.3,4.9,3.5,5.4,3.3.6,6.6,1.1,9.7,2.2,4.4,1.6,5.5-.5,6.3-4.2,1.8-8.6,3.8-17.2,5.9-26.6M396.6,584.7c3.4-.4,6.8-.8,10.6-1.2.2-3.2.3-6.5.7-9.8.4-3.4-1.1-5.3-4.2-5.6-5.1-.6-10.3-1.5-15.3-.9-12,1.6-17.5,9.9-14.9,21.8.8,3.7,1.9,7.4,2.7,11.1,1.1,5.3-1,8.4-6.4,9-2.4.3-4.9,0-7.3,0-2.8,15.7-3.1,16.1,12.3,17,1.2,0,2.3,0,3.5-.1,14.9-1,22-11,18.1-25.3-.7-2.4-1.9-4.8-2-7.2,0-2.8.9-5.6,2.1-8.8Z"/>
  <path class="cls-17" d="M439.5,544.2c-.8-3-1.2-6-1.7-9.4,20.1-3.5,39.5-9,58-18.5,9.4-5.7,18.9-10.9,28-16.6,18.5-11.8,32.3-28.6,47-44.3,1.9-2.1,3.5-4.6,5.8-6.2,7-4.9,9.6-11.8,10.4-19.9.3-3.3,1.3-6.5,2-10.5,2.4-9.3,4.8-17.9,7.2-26.7-6.7.4-12.9.7-19.2,1-16.3.2-32.5-.6-48.3-5.2-13.9-4.1-26.3-10.9-36.7-22.1-11.1-12.6-16.8-26.8-18.1-42.8,3.1.2,6.3.5,9.8,1.3.7,2.5.9,4.5,1.4,6.4,2.6,10.7,6.4,20.7,14.9,28.2,9,11.1,21.3,16.9,34.7,19.9,10,2.3,20.3,2.8,31.4,4.2,10.2-.4,19.5-.7,28.8-1.1,2.8-.1,5.1-.8,6.3-4.3,9.5-28,18.7-55.9,19.8-86.1.5-14.7,0-28.8-5.3-42.5-6.9-17.5-20.6-27.7-38.5-27.1-33.3,1.1-58.8,16.7-77.3,44.1-3.6,0-7.3,0-11.4,0,21-34.7,51.3-54.6,92.8-53.8,21.6.4,35.9,13.3,43.4,32.9,3.8,9.9,4.9,20.9,7.3,31.9,1.3,26.8-4.4,52.1-12.3,77-1.2,3.9-2,8-3.3,12.3-2,4.3-3.6,8.3-5.6,13.2,2.9-.7,4.6-1.1,6.3-1.5.6,3.1,1.3,6.2,1.6,9.7-2.1.7-3.9,1.3-5.7,1.4-3.9.2-6,2-7,6-2.1,9-4.8,17.9-7.2,26.9-.8,2.9-1.2,6-2,10.2,12.2-8.2,24.6-11.7,37.8-13.2,15,.5,28,4.9,36.1,19.1,9.2,23.8,4.5,45.1-11.9,63.6-21.1,23.9-61.6,13.8-71.6-17.7-1.8-5.8-2.2-12-3.2-18.9.1-3.1.1-5.3.1-8-1.3.7-1.8.8-2.2,1.1-12.8,13.2-25.6,26.3-38.4,39.5-.3.3-.3.9-.5,1.3,0,0,0,0-.3,0-.8.3-1.2.7-1.7,1-30.1,22.9-63.2,39.1-101.5,44.3M658.9,484.3c4.8-8.9,6.7-18.4,6.1-28.4-.9-15.1-9.7-24.8-24.4-26.2-17.1-1.6-31.6,4.9-44.5,15.4-1,.8-1.9,2.5-1.9,3.8.2,9.1-.5,18.5,1.2,27.3,3.6,19.6,22.3,31.9,40.6,27.7,10.7-2.5,17.4-9.9,22.9-19.7Z"/>
  <path class="cls-36" d="M1046.2,406.8c-2.5-12.5-5-25.1-7.6-37.6-1.4-6.7-3-13.3-4.3-20-1.5-7.4,2-13.7,9.2-15.4,26.7-6,53.6-11.8,80.4-17.5,5.8-1.2,11.8,3.5,13.3,10.2,4.4,19.6,8.6,39.3,12.9,58.9,1.2,5.4,2.3,10.7,3.6,16.1,2.5,10.4-2.5,16.9-12.1,18.8-24.6,4.8-49.1,10.5-73.6,15.9-9,2-14.9-1.7-17-10.6-.6-2.8-1.3-5.5-2.1-9-1-3.8-1.8-6.8-2.6-9.8M1107.1,398.3c-1.7,1.9-3.1,4.5-5.2,5.5-3.5,1.5-3.7,3.1-2.1,6,.9,1.6,1.2,3.6,2.4,4.9,1,1.1,3,2.3,4.3,2,6.6-1.5,12.5-4.4,16.9-9.8,4.9-6.1,4.9-12.6,0-18.7-1.3-1.7-2.8-3.3-4.3-4.9-7.3-7.6-7-9.7,2.2-14.3.3-.1.4-.5,1-1.1-.5-1.3-1.1-2.8-1.8-4.3-3.5-7.6-4-7.8-11.9-4.7-15.7,6.1-18.3,17.7-7,30.1,2.3,2.5,3.8,5.6,5.6,9.3M1082.8,419.3c4.3-4.3,5.9-9.6,5.4-15.5-.9-9.1-1.8-18.2-3.1-27.2-1.9-13.6.1-11-13.2-9.5-4.8.6-5.5,2.8-4.8,7,1.5,8.8,3,17.7,4,26.6,1,9,.6,9.2-7.8,12.9-4.2,1.8-2.7,5.7-2.8,8.7,0,.9,2.9,2.5,4.7,2.7,6.4.6,12.1-1.2,17.7-5.7Z"/>
  <path class="cls-16" d="M736.8,439.4c7.4-6.5,14.3-13.4,22.2-18.8,9-6.1,18.9-10.9,29-16.5,1.4-.5,2.2-.8,3.4-1.1,4.8-.7,9.2-1.5,14-2.2,3.3.3,6.2,0,8.9.8,7.9,2.2,15.7,4.8,23.5,7.2,20.9,10.5,39,24.6,52.9,43.5,9.3,12.7,16,26.3,15.1,43.1-4.9,24.6-22,37.4-43.3,45.2-34.1,12.4-68.9,14.1-103.9,3.4-12.1-3.7-23.1-9.6-32-18.8-15.7-16.2-19.1-38.2-8-59.5,4.9-9.3,12-17.5,18.1-26.5M778.8,538.9c13.8.4,27.6,1.6,41.3.9,18.4-.9,36.1-5.6,52.3-14.9,24.1-13.9,29.8-34.8,15.5-58.6-12.2-20.4-29.7-35.3-50.5-46.3-8.8-4.7-18.1-8.4-28.3-9.1-12.9-.8-24,4.4-34.6,10.9-19.6,12-36.3,27.1-46.7,48-10.9,21.8-5.2,42.2,14.9,55.7,10.7,7.2,22.8,10.7,36.1,13.4Z"/>
  <path class="cls-17" d="M1198.9,342.8c-2.3,2.2-4.7,4.2-7.5,6.2-18.9-19.8-36.9-40.2-56.2-59.2-19.5-19.2-42.6-32.9-69.9-38.4-21.5-4.4-42.7-1.9-63.8,3-5.7,1.3-11.3,2.4-17,3.7.5,17.2-9.5,31.3-31.9,32.8-4.3-18.4-8.5-36.8-12.8-55.1,15.7-7.2,30.2-3.3,40.4,10.2.9,1.2,3.7,1.8,5.4,1.5,11.8-2.1,23.5-4.9,35.3-6.8,35-5.4,67.1,2.5,96.5,21.9,24.2,16,43.4,37.3,62.4,58.7,6.3,7.1,12.7,14.1,19.3,21.4Z"/>
  <path class="cls-56" d="M1089.9,447.8c19-10.4,40.4-4.1,50.2,14.5,9.3,17.6,2.2,39.4-15.7,48.6-16.4,8.4-37.9,2.1-47-13.7-10.1-17.5-5.1-37.7,12.6-49.4Z"/>
  <path class="cls-18" d="M1390.1,560.6c0,.3,0,.5-.2,1.2-2.5,5.8-5,11.2-7.5,16.7.4.3.8.7,1.4,1,10.1,4.8,9,4.9,3.3,13-.4.5-.7,1.1-1.1,1.7-6.1,8.6-3.9,8.8-13.7,3.8-2.6-1.3-4-.5-5.9,1.3-5.6,5.4-11.5,10.5-17.3,15.8-2.8,2.5-5.6,2.3-8.5,0-12.2-9.5-11.7-6.1-1.6-16.6,3.6-3.7,6.8-7.6,10.5-11.7-4.6-2.6-8.7-4.8-13.2-7.3,2.6-3.8,4.5-7.1,6.9-10,.8-1,2.9-1.7,4.2-1.5,4.4.6,8.7,1.6,13.5,2.6,1.4-2.8,3-5.8,5.1-9.8-8.2.3-15.2-1.2-21.5,4-3.5,2.9-7.8,5-11.9,7.2-1.1.6-3.3.7-4,0-4.2-4.2-8-8.7-11.8-13,9.4-8.3,18.2-16.1,27-23.8.3.1.8.1.9.3,7.7,10.8,18.5,4,27.9,5,4.9.5,9.7.9,15,1.4.4,0,.3,0,.5.4.8,6.3,1.4,12.3,2,18.2Z"/>
  <path class="cls-56" d="M1410.3,289.5c-16.7-3.5-33.4-1.5-49.8,3.4-8.1,2.4-15.8,6-24,9.1,2.1-13.3,4.6-26.6,7-40,.9-4.9,1.7-9.8,2.7-14.7,1.3-6.1,3.7-7.7,9.9-6.5,17.2,3.3,34.5,6.6,51.7,10,7,1.4,8.3,3.7,6.9,10.9-1.5,7.6-3.1,15.3-4.6,22.9-.3,1.4,0,2.9.1,4.8Z"/>
  <path class="cls-40" d="M372.6,315.1c2.8,12.3,5.1,24.7,7,37.6-.8,2.5-1.6,4.5-1.6,6.5,0,44.9,0,89.8,0,134.7-5.4,0-10.7,0-16.5-.6-.5-29.2-.5-57.8-.5-86.5,1.7-.4,3.4-.9,6.1-1.6-3.4-.5-5.8-.9-8.6-1.8-.4-29.5-.4-58.4-.4-87.4,4.7-.3,9.5-.6,14.6-1Z"/>
  <path class="cls-18" d="M817.3,582.1c-3.9,3.6-7.5,7-10.8,10.6-7.5,8.3-7.5,8.3-17.1,2.6-8.2-5-8-4.8-2.1-12.7,4.2-5.6,7.8-11.6,11.3-17.6,1.9-3.2,3.9-4,6.7-1.7,2.8,2.3,5.3,1.8,8.3.5,7.2-3.1,14.4-6.1,21.6-9,8.1-3.2,13.1-.4,15.1,8,2.7,11.4,1.3,22.8-2.8,33.4-4.7,12.3-11.2,24-17.1,35.9-2,4-5,5.3-9.5,3.3-3.4-1.6-7.1-2.5-11.3-3.9,8.6-16.9,15.6-33.6,17.9-53.4-4,1.6-7,2.7-10.3,4Z"/>
  <path class="cls-17" d="M807.1,294c21.4-6.4,42.8-12.7,64.6-19.2,3-19.8,13.3-30,31.8-30.6.9,3.3,1.7,6.6,2.7,10.3,5.6-1.2,10.8-2.7,16.2-3.4,1.8-.2,4.9.8,5.5,2.1,1.3,3-1.1,4.3-3.9,5-5.3,1.2-10.6,2.5-16.2,3.9,1.6,6.7,3,12.9,4.6,19.5,5.7-1.3,11-2.3,16.3-3.7,2.9-.7,5.5-.3,5.7,2.7,0,1.4-2.3,3.8-4,4.4-5.2,1.7-10.6,2.6-16.1,4,.8,3.7,1.5,7.1,2.2,10.4-15.2,7.4-31.7,3.1-40.2-10.7-1.8-2.9-3.7-2.7-6.2-2.1-14.6,3.9-29.2,7.8-44.6,11.6-5.1-.4-9.4-.6-13.6-1.1-2-.2-3.9-1.3-5.7-2.2.4-.4.7-.6,1-.8Z"/>
  <path class="cls-55" d="M805,400.8c-4.4.8-8.8,1.5-13.6,1.8.6-6.8,1.5-13.2,2.6-20,.4-3.1.7-5.8,1.2-8.9.7-3.8,1.2-7.2,1.8-11.1.7-4.8,1.3-9.3,1.9-13.7,0,0,.1-.4.6-.7,2.1-.9,4-1.4,5.4-2.4,1.2-.8,2.9-2.4,2.7-3.4-.1-1.1-2-2.3-3.3-3-.9-.5-2.2-.3-3.4-.8.5-5.5,1.1-10.5,1.9-15.9.4-1.8.7-3.2,1-4.6,14.9,0,29.8,0,44.7,0,9.4,0,12.5,3,12.5,12.4,0,1.8,0,3.6,0,5.9,0,.4,0,.5-.4.6-4.4,0-8.5-.4-12.3.3-11.9,2.1-14.9-2.5-14.1,15.2.6,5.8,1.2,11.1,1.8,16.4-.3.2-.5.5-1.4.9-5.6.6-10.8.7-15.8,1.4-13.1,1.7-17.7,7.7-15.3,19.4.7,3.4,1.1,6.8,1.7,10.2Z"/>
  <path class="cls-23" d="M1061.7,576.3c6.6,1,13.2,2,20.2,3.2.7.6.9,1.2,1.2,1.4q7.2,3.4,3.7,10.6c-1.8,3.6-3.7,7.1-5.3,10.7-1.2,2.7-2.8,3.3-5.5,2-5-2.3-10-4.4-15.1-6.6-1.6-.7-3.4-1.2-5.7-2,.8,9.4,1.5,18.2,2.2,26.9,1.1,14.5,3.3,12.4-11.4,13.6-10.5.9-10.2.5-11-10.1-1.7-21.3-3.8-42.6-5.8-64.8.5-3.9-2.1-8.2,3.4-9.1,4.3-.3,8.6-.3,12.9-1,4.7-.8,6.2,1.4,6.4,5.6,0,1.8.2,3.6.3,5.9.3,3.8.7,7.2,1,11.4.4,4,.8,7.1,1.1,10,2.6-2.6,5.1-5.1,7.5-7.6Z"/>
  <path class="cls-42" d="M730.9,569.8c5.8-7.6,5.7-7.8-3.1-10.3-4-1.1-8-2.4-12-3.3-3.4-.7-3.9-2.4-2.9-5.4,1-3,2-6,2.6-9.1.8-4.6,2.9-5.6,7.3-4.3,10.4,3,20.9,5.6,31.3,8.5,9.4,2.6,12.4,8.5,8.5,17.4-11.1,25.7-31,41-58,47.1-1.5.3-4.1-.2-4.8-1.3-2.5-3.5-4.7-7.3-6.5-11.2-1.5-3.1,1.5-3.6,3.4-4.2,10.5-3.5,19.3-9.6,27.4-16.9,2.3-2.1,4.4-4.5,6.8-7.1Z"/>
  <path class="cls-46" d="M940.7,581.2q-8.3-.6-7.1-8.2c1.9-12.5,1.9-12.6,14.4-10.9,12.3,1.6,24.6,3.4,36.9,5.1.7,14.5,3.8,18.6,17.3,23.2-4.4,12.1-11.7,22.2-20.7,31.1-5,4.9-10.5,9.2-16,13.5-1.2,1-3.8,1.8-4.8,1.1-4.1-2.6-7.9-5.6-11.4-8.8-.5-.5.4-3.3,1.3-4.5,7.3-9.9,14.8-19.7,22.1-29.5,1.5-2.1,2.5-4.5,4.2-7.6-12.5-1.5-24.1-3-36.2-4.5Z"/>
  <path class="cls-39" d="M378.5,494c-.5-44.9-.5-89.9-.4-134.8,0-2,.8-4,1.6-6.1,4.7,22.2,9.1,44.5,13.4,66.7,4.7,24.5,9.3,48.9,13.8,73.8-9.3.4-18.6.4-28.4.3Z"/>
  <path class="cls-46" d="M1219.9,596.6c.2-2.7.3-5,.5-7.9-9.5,1.3-18.4,2.5-27.2,3.7-1.5.2-3,.5-4.4.6-9.3,1.1-9.5,1.1-10.5-8.3-1.2-11.3-1.9-8.9,7.7-10.4,15.3-2.4,30.6-4.5,46-6.5,9.2-1.2,13.4,2,13.6,11.2.3,15.3-3.5,29.7-11.8,42.6-1,1.6-4.2,2.5-6.3,2.4-13.6-.7-13.5-.8-10.3-13.7,1.1-4.4,1.9-8.8,2.9-13.6Z"/>
  <path class="cls-12" d="M807,293.5c-.2.6-.5.8-1.3,1.2-7.9,3.2-15.4,6.2-23.1,9.2-1.4.7-2.5,1.3-4,2-2.3.6-4.3,1-6,1.8-13.5,6.3-27,12.8-40.5,19.2,2-14.3,4-28.6,6-42.9.8-5.9,3.1-7.9,9.1-7.1,18.1,2.5,36.2,5.2,54.2,7.8,5,.7,6.1,4,5.7,8.7Z"/>
  <path class="cls-42" d="M530.1,566.8c-.4-2.5-.8-4.7-1.2-6.8-1-6-.8-6.2,5.5-7,1-.1,1.9-.3,3-.4-.2-3.7-1.9-8.4-.3-10.3,1.9-2.3,6.6-2.4,10.1-3.1,8.8-1.7,5.2,7.1,9.2,10.7,4.9-.7,10.6-1.5,16.3-2.5,12.7-2.2,17.6,3.5,13.5,15.9-1,3.1-2.7,6.1-4.6,8.8-5.2,7.5-7.4,7.8-14.3,2.2-1-.8-1.4-3-1.3-4.5.1-1.7,1.1-3.4,2-5.9-3.2.5-5.5.9-8.3,1.4,2.5,9.5,4.7,18.5,7.4,27.3,1.3,4.3.6,6.3-4,7.6-9.7,2.8-9.8,3.1-13-6.5-2.4-6.9-4.5-13.9-6.4-21-1-3.7-2.4-5.3-6.6-4.2-2.1.6-4.7-.8-7.1-1.7Z"/>
  <path class="cls-42" d="M924.8,581.2c0,18.7-3.7,35.8-14.8,50.7-1.2,1.6-4.1,3.2-6,2.9-4.7-.7-9.2-2.5-14.4-4.1,1.1-2.4,1.7-4.2,2.7-5.9,7.3-13.1,8.9-27.4,8.4-42-.3-7.8-1.5-15.5-2.4-23.3-.3-2.7.4-4.5,3.5-4.8,5-.4,9.9-.9,14.9-1.5,3.6-.4,4.7,1.9,5.2,4.7,1.1,7.6,2,15.1,3,23.2Z"/>
  <path class="cls-45" d="M357.5,316.1c.5,29,.5,57.9.5,87.4-6.5,0-12.9-.4-19.7-1.5-.3-28.7-.3-56.8-.3-84.8,6.4-.4,12.7-.7,19.5-1.1Z"/>
  <path class="cls-52" d="M329,491.8c-6.4-.5-12.8-1-19.6-2.1-.4-13-.3-25.5-.4-37.9,0-3.3-.6-6.5-1-9.8,1.6-.9,3.4-1.5,4.7-2.7,1.8-1.7,2.6-3.7-1.4-5.1-.4-8.1-.4-15.7-.4-23.3,6-.6,12.1-1.3,18.6-1.4.4,23.4.5,46.4.4,69.3,0,4.3-.6,8.6-1,12.8Z"/>
  <path class="cls-13" d="M337.5,317.1c.4,28.1.4,56.1.4,84.6-7,.1-14.1-.3-21.5-1.2-.4-5.5-.4-10.4-.4-15.4,2.7-.5,5.4-.9,8.1-1.4,0-.2,0-.3,0-.5-1.1,0-2.2-.2-3.6-.7,0-7.9.4-15.3.5-22.7,0-3.4-.7-6.8-1.1-10.2.2-.6.3-1.3.3-2.6-.2-9.8-.2-19-.2-28.2,5.7-.6,11.5-1.1,17.6-1.7Z"/>
  <path class="cls-42" d="M1303.6,600.6c-11.2,5.1-22.1,10-32.9,15.1-3.7,1.7-6.1,1.3-7.8-2.8-1.6-3.8-3.7-7.5-6.1-10.9-2.5-3.7-1.6-5.3,2.3-7,12.5-5.5,24.9-11.2,37.2-17,4.1-1.9,8.1-4,11.9-6.4,3.7-2.4,6.3-2.3,8.2,2.1,1.5,3.3,3.4,6.5,5.3,9.6,1.6,2.6,1,4.3-1.3,5.9-5.5,3.7-11,7.5-16.8,11.4Z"/>
  <path class="cls-42" d="M501.3,580.3c4.2-3.3,8.3-6.3,12-9.5,2.7-2.4,4.4-1.8,6.6.7,9.8,11.5,9.9,11.5-.8,22.2-11.4,11.4-24.3,20.7-38.5,28.3-2.8,1.5-4.8,1.6-6.8-1.3-2.4-3.4-5.2-6.5-8-9.6-2.6-2.9-2.4-4.8,1-7.1,11.5-7.7,22.8-15.6,34.4-23.7Z"/>
  <path class="cls-47" d="M329.4,491.9c-.1-4.3.5-8.6.5-12.9,0-23,0-45.9,0-69.3,5-.9,10.1-1.3,15.6-1.2.4,26,.5,51.5.4,77,0,2.5-.6,4.9-1,7.4-5-.3-10.1-.6-15.6-.9Z"/>
  <path class="cls-43" d="M345.4,492.9c-.1-2.5.5-5,.5-7.4,0-25.5,0-51,0-76.9,4.7-.9,9.4-1.3,14.5-1.7.5,28.6.5,57.3.5,86.4-5,.2-10,0-15.5-.3Z"/>
  <path class="cls-18" d="M731.7,327.2c13.8-6.6,27.3-13,40.8-19.4,1.8-.8,3.8-1.2,6.1-1.4.7,3.5,1.1,6.5,1.4,9.5-16.4,7.9-32.9,15.8-50,23.8-15.1,7.6-29.5,15.1-43.9,22.5-.4-3.6-.7-7.2-1-11.2,1.3-.8,2.6-1,3.7-1.6,14.2-7.4,28.4-14.8,42.9-22.3Z"/>
  <path class="cls-16" d="M1086.1,280.1c4.2-1,8.3-2.1,12.5-3.1,6-1.4,5,3.9,6.2,6.8,1.5,3.6-1.2,4-3.9,4.6-4.4.9-8.7,1.9-13.5,3.3,6.7-.9,7.4,3.6,7.9,8.1.5,4.4.8,8.9,1.2,14.3-3,0-5.2-.2-7.5,0-2.8.3-3.8-1-4.2-3.6-.9-5.9-2.1-11.7-3.1-17.6-.5-.2-1-.4-1.5-.6-1.1,2.3-2.4,4.5-3.4,6.8q-4.1,9.5-13.2,4.7c-.4-.2-.9-.5-1.6-.9,5.2-12.2,10.3-24.1,15.5-36.3,3.7,1.6,7,3,10.8,4.6-1,2.7-1.9,5.1-3,8.1-.1.8,0,1.1,0,1.3.2-.2.4-.4.6-.5Z"/>
  <path class="cls-16" d="M1025.2,290.8c1.1,2,2.1,3.8,3.4,6.2-3.4,1.4-6.3,3.1-9.4,3.7-1.2.3-3.5-1.3-4.2-2.6-3.7-6.6-7-13.5-11.1-21.5-1.3,3.6-2.2,6-3.3,9,2.1.3,3.8.5,6,.8v10.7c-2,0-4,0-5.9,0-2.3-.1-4,.2-4.8,3-1.5,5.3-5.1,1.2-7.8,1.3-2.8,0-3.9-1.8-3-4.3,3.4-9.8,6.9-19.7,10.5-29.5,1.7-4.5,5.3-5.6,9.9-5.7,4.4-.1,5.1,3,6.6,5.6,4.3,7.7,8.6,15.4,13.1,23.4Z"/>
  <path class="cls-5" d="M307.6,442.2c.7,3.2,1.3,6.5,1.3,9.7.1,12.4,0,24.8,0,37.7-7.1-.2-14.1-.8-21.6-2-.4-13.9-.4-27.2-.4-40.5,6.8-1.6,13.5-3.3,20.6-5Z"/>
  <path class="cls-17" d="M608.7,602.1c-2-.5-4-.7-5.1-1.8-3.3-3.3-6.2-7-9.2-10.4-2.1-2.4-2.1-4.2.8-6,9.5-6.1,18.9-12.4,28.5-18.4,1.3-.8,4-.4,5.4.5,2.5,1.6,4.4,4,6.6,6,5,4.7,5.4,5.5.3,9.7-8.7,7.1-17.9,13.6-27.2,20.4Z"/>
  <path class="cls-3" d="M1041.6,279.8c2.6,8,6.6,9.3,18.4,6.2,4.6,7.7,3.5,10.7-5.2,12.7-10.3,2.5-20.5-2.1-24.8-11.2-4-8.5-1.2-20,6.3-25.7,7.5-5.7,20.6-5.2,27.8,1.5,1,.9,1.4,3.5.8,4.8-.8,2-2.6,3.7-3.9,5.4-12.4-6.6-18-4.8-19.4,6.2Z"/>
  <path class="cls-17" d="M677,587c1.9,4.6,3.7,8.9,5.4,13.3,1,2.7.2,4.4-2.8,5.1-4.9,1.1-9.7,2.5-14.5,3.7-2.7.7-4.3,0-5.3-2.9-3.7-10.7-7.6-21.3-11.5-31.9-1.1-3-.5-4.5,2.9-5.2,14.1-2.8,14.1-2.9,21.3,9.8,1.5,2.6,2.9,5.2,4.5,8.2Z"/>
  <path class="cls-60" d="M222,468.1c-23.4-2-46.2-6.9-68.2-15.3-1.9-.7-3.4-2.1-5.1-3.2,0-.4.2-.9.2-1.3,1.5-.3,2.9-1,4.4-.9,18.1.8,36.2,1.8,54.2,2.7,4.5.2,9.1.2,14.1.7.4,6.1.4,11.7.5,17.3Z"/>
  <path class="cls-32" d="M286.6,447.2c.4,13.3.4,26.6.4,40.3-7.1-.3-14.3-1.1-21.7-2.6-.3-12.3-.3-23.9-.3-35.5,7.1-.7,14.1-1.4,21.6-2.2Z"/>
  <path class="cls-15" d="M264.6,449.3c.4,11.7.4,23.3.4,35.4-14.1-.9-28.1-2.7-41.6-6.8,0-.6,0-1.2,0-1.8,7.8-1.1,15.6-2.3,24.8-3.6-2-.8-2.7-1.1-3.7-1.9-.4-7.1-.4-13.7-.4-20.2,6.7-.3,13.4-.7,20.6-.9Z"/>
  <path class="cls-42" d="M873.4,598.2q-8.3.8-9.6-7c-1.2-7.7-2.4-15.5-3.7-23.2-.7-3.9.4-5.9,4.7-6.1,4.5-.2,9-.8,13.4-1.5,3.2-.6,5.1.7,5.3,3.6.7,10.1,1.2,20.2,1.3,30.4,0,1.2-2.4,3-4,3.5-2.2.6-4.6.3-7.4.4Z"/>
  <path class="cls-3" d="M1032.4,551.7c-5.3,1.2-2.8,5.6-3.3,9-24.8-16.7-39.5-40.4-44.9-70.3,3.4.8,6.9,2.1,10.6,3.5,5.5,23.9,18.2,42.8,37.6,57.8Z"/>
  <path class="cls-24" d="M749.5,591.2c2-.3,4-1,5.3-.3,6.4,3.4,12.7,7.1,19,10.7,2.7,1.6,2.4,3.5.4,5.7-3.6,3.9-7.2,7.8-10.7,11.8-2,2.3-3.7,2.2-5.8.2-5.2-4.9-10.5-9.6-15.9-14.3-2.5-2.2-2.3-4,0-6.2,2.6-2.4,4.9-4.9,7.7-7.6Z"/>
  <path class="cls-24" d="M1273.3,549.7c11.5,9.3,11.5,9.4-.2,17.8-11.3,8-8.4,7.6-17.2-1.7-2.7-2.9-5.5-5.8-8.3-8.6-2.1-2.2-2.1-4,.7-5.6,1.3-.7,2.5-1.6,3.7-2.5q10.4-6.9,21.3.6Z"/>
  <path class="cls-9" d="M319.5,318.8c.5,9.2.5,18.3.5,28-7.4.3-14.9,0-22.6-.9-.3-2.5-.2-4.3-.3-6.2-.3-6.1-.8-12.1-1.2-18.2,7.7-.9,15.5-1.8,23.6-2.8Z"/>
  <path class="cls-9" d="M319.4,349.6c.8,3.3,1.6,6.7,1.5,10.1,0,7.4-.5,14.8-.9,22.6-6.1,0-12.2-.6-18.7-1.7-.4-9.8-.5-19-.5-28.2,6-.9,12.1-1.8,18.5-2.9Z"/>
  <path class="cls-57" d="M300.4,352.6c.5,9.1.5,18.3.6,28-7.4-.2-14.8-.8-22.6-1.9,0-8.3.2-16.1.5-23.8,7-.7,14-1.4,21.5-2.2Z"/>
  <path class="cls-3" d="M989.3,568.7c2.7-8.1,7.6-11.9,14.6-11.7,6.4.2,11.7,4.3,13.5,10.6,1.7,5.9-.7,12.3-5.9,15.7-4.9,3.2-10.1,3.4-15.1.5-5.6-3.2-7.9-8.3-7.1-15.1M1008.6,570.8c-.9-3.3-3-5.5-6.4-4.2-1.7.7-3.6,3.4-3.5,5,.1,1.6,2.4,3.9,4.2,4.4,3.2.9,5.1-1.3,5.7-5.3Z"/>
  <path class="cls-27" d="M278.5,354.8c.2,7.8-.1,15.6-.5,23.8-8.1-.4-16.3-1.1-24.7-2.6-.3-6.9-.3-13.1-.3-19.4,8.3-.6,16.7-1.2,25.5-1.8Z"/>
  <path class="cls-53" d="M295.4,321.6c.8,6,1.2,12,1.6,18.1.1,1.8,0,3.6,0,5.9-8.1.1-16.1-.2-24.6-1.1-.4-6.6-.4-12.6-.4-18.7,7.7-1.4,15.3-2.8,23.4-4.3Z"/>
  <path class="cls-26" d="M1525.5,610.9c-2.8-5.4-5.5-10.9-8.3-16.4-1.8-3.5-1.7-5.9,2.8-6.8,2.2-.4,4.4-1.5,6.6-2.2,8.8-3,8.9-3.1,14.5,4.1,2.8,3.5,5.1,7.3,7.8,11.5-7.6,3.6-15.3,6.7-23,9.8,0,0-.2,0-.4,0Z"/>
  <path class="cls-60" d="M226,372.8c-17.6-2.6-35.6-3.9-52.2-11,0-.7,0-1.4,0-2.1,2-.5,4.1-1.3,6.1-1.3,15.1-.2,30.2-.3,45.7.1.5,5.1.5,9.7.5,14.3Z"/>
  <path class="cls-24" d="M451.7,569.7c4.5-3.9,8.6-4.3,13-.2,2.9,2.7,6.3,4.8,9.3,7.5,2.7,2.5,3.5,5.1-.5,7.6-3.7,2.2-7.2,4.7-10.7,7.3-2.6,1.9-4.6,1.8-6.8-.8-4.2-5-8.8-9.8-13.5-15.1,3.5-2.3,6.2-4.2,9.3-6.2Z"/>
  <path class="cls-42" d="M470.3,545c1.5-.9,3.1-2.3,4.1-2,6.2,2.2,12.3,4.7,18.3,7.4.8.4.6,3,.6,4.6,0,.5-.7,1.1-1.2,1.6-3.7,4-7.3,8-11,12-6-3.6-12-7-17.9-10.8-.7-.5-.7-3.4,0-4.4,1.9-2.9,4.4-5.4,7-8.3Z"/>
  <path class="cls-32" d="M267,415.1c7.7-.8,15.4-1.5,23.5-1.8.4,7.3.4,14.2.4,21-7.7,0-15.3-.2-23.5-.8-.5-6.5-.5-12.4-.5-18.4Z"/>
  <path class="cls-15" d="M271.6,325.9c.4,6,.4,12.1.4,18.6-12.3-.2-24.6-.8-36.9-1.5-.1-.8-.3-1.5-.4-2.3,10-9.8,23.6-11.6,36.9-14.9Z"/>
  <path class="cls-10" d="M226.4,372.9c-.4-4.7-.4-9.3-.4-14.4,8.7-1,17.4-1.6,26.6-2.1.4,6.3.4,12.5.4,19.2-8.7-.6-17.5-1.6-26.6-2.7Z"/>
  <path class="cls-14" d="M291.4,434.5c-.4-7-.4-13.8-.4-21.2,6.4-1.1,12.7-1.7,19.6-2.3.5,7.6.4,15.2.4,23.3-6.4.4-12.8.4-19.6.2Z"/>
  <path class="cls-15" d="M266.6,415.1c.4,6,.4,11.9.4,18.4-8,.5-16.1.5-24.5,0-.5-5.3-.5-10.2-.5-15,8.1-1.1,16.2-2.2,24.7-3.3Z"/>
  <path class="cls-35" d="M243.5,450.2c.5,6.6.5,13.2.5,20.2-7.1-.3-14.2-1.1-21.7-2.1-.3-5.8-.3-11.4-.4-17.5,7-.5,14.1-.6,21.5-.6Z"/>
  <path class="cls-20" d="M241.5,418.5c.5,4.8.5,9.6.5,14.8-12.2.7-24.4.4-36.6-2.3,10.1-9.6,23.2-10.2,36.1-12.5Z"/>
  <path class="cls-14" d="M315.5,385.1c.4,5,.4,9.9.4,15.4-8.7.1-17.4-.2-26.6-1.1-.5-4.2-.5-7.8-.5-11.5,8.7-.9,17.4-1.8,26.6-2.7Z"/>
  <path class="cls-23" d="M1261.3,485.1c3-7.3,6.7-14.6,9.8-22.1,3.5-8.4,6.6-17,10.1-25.8,7.3,20.8.5,37.4-19.9,47.9Z"/>
  <path class="cls-3" d="M1045.8,406.8c1.3,2.9,2.1,6,3,9.3-10.7,1.8-20.9,4.6-30.4,10.7-.7-3.2-1.1-6.6-1.5-10.4,9.5-3.5,19-6.5,28.9-9.6Z"/>
  <path class="cls-32" d="M288.5,387.8c.4,3.7.5,7.3.5,11.4-13-.2-26.1-.9-39.1-1.6,0-.5,0-1,0-1.5,12-5.8,25.3-6.6,38.7-8.3Z"/>
  <path class="cls-29" d="M543.3,499c-.2-.5-.2-1.1,0-1.4,12.8-13.2,25.6-26.4,38.4-39.5.3-.3.8-.4,2.2-1.1,0,2.7,0,5-.1,7.6-1.2,1.5-2.6,2.4-3.4,3.7-9.6,13.4-22,23.5-37.1,30.7Z"/>
  <path class="cls-28" d="M803.7,317.5c-.3,1.9-.6,3.3-1.4,5.1-4.6.4-8.8.2-12.8.5-1.6.1-3.1,1.3-4.6,2-1.3-2.8-2.6-5.6-3.8-9,1.9-1.6,3.5-2.5,5.3-3.3,5.2-2.3,10.4-4.5,16-6.7,1.1,0,1.8,0,2.6,0-.4,3.7-.8,7.4-1.2,11.5Z"/>
  <path class="cls-49" d="M805.2,305.7c-1,.3-1.7.3-3.2.1-2.8-.4-4.9-.7-7-.9-4-.4-8-.7-12.1-1.1,7.4-3,14.8-6,22.7-8.9,2.3.7,4.2,1.7,6.2,1.9,4.2.5,8.5.6,13.2,1.1-6.2,2.6-12.9,5-19.8,7.7Z"/>
  <path class="cls-3" d="M1526,611.3c7.7-3.4,15.4-6.5,23.3-9.9.2-.3.4-.4.5-.4q.8,8.7-8.6,12.1c-1.9.7-3.9,1.1-5.6,2.1-4.8,2.9-7.6,1.1-9.6-3.8Z"/>
  <path class="cls-3" d="M673.6,561.1c-1.8,5-5.9,2.4-9,2.8-.7,0-2.1-2.4-2.7-3.9-.8-1.9-1-4.1-1.5-6.1,9.3-4.1,10.9-3.2,13.1,7.1Z"/>
  <path class="cls-24" d="M499,533.9c4.8-1.2,11.4,5,9.1,8.4-1.4,2.2-6.4,3.9-8.9,3-2.3-.8-3.6-5.1-4.7-8.1-.2-.5,2.6-2.1,4.5-3.3Z"/>
  <path class="cls-24" d="M520.2,542.3c-2.8,1.5-10.8-1.6-10.8-4.7,0-2.4,3-6.8,4.7-6.8,3,0,6.4,2.1,8.9,4.3.7.6-1.7,4.5-2.8,7.1Z"/>
  <path class="cls-3" d="M689.1,557.1c1.9,5-2.9,5.6-5.1,7.7-.5.5-3.1-1.1-4.7-1.9-.6-.3-1-.9-1.4-1.4-1.1-2-5.1-3-2-6.3,3.7-3.9,6.1-4.3,9.6-1.2,1.1,1,2.2,2,3.6,3.2Z"/>
  <path class="cls-29" d="M541.3,500c.2-.4.6-.8,1.4-1.1-.2.4-.6.8-1.4,1.1Z"/>
  <path class="cls-58" d="M1399,389.1c6.1-18.8,14.2-36.5,29.2-50.8.6-.4.8-.4,1-.4,13.7,5.1,26.2,12.1,36.9,22.2,19.1,18,27.5,40.3,26.2,66.3-.4,8.1-1.6,16.2-2.5,24.3-1.4,12.4,1.3,23.7,8.9,33.7,7.7,10.2,7.2,12.3-4,18.4-7.6,4.1-15.3,8-22.7,12.4-6.8,4-13,3.9-20,0-25.3-14.5-37.9-39.8-34.3-68.7,1.3-10,2-20.2,1.4-30.2-.8-12.5-8.1-21.1-19.8-26.4-.3-.3-.3-.7-.3-.7Z"/>
  <path class="cls-44" d="M1454.9,580c-2,12.2-4,24-5.9,35.8-1.3,7.8-1.6,7.8-7.8,6.3-4.2-1-8.5-1.6-12.8-2-3.2-.4-4.2-1.7-3.7-5,2-12.3,3.9-24.5,5.9-37.4-7.6.8-14.8,1.4-21.9,2.4-4.6.6-6.8-.8-7.1-5.6-.3-3.3-1.2-6.5-2.1-9.7-.9-3.1.5-4.1,3.2-4.9,20.6-5.8,41.1-11.6,61.6-17.6,3.5-1,5.7-.5,7,3.3,1.7,4.8,3.7,9.6,5.7,14.3,1.4,3.4.4,5.2-3.2,6.2-9.5,2.7-19,5.6-28.9,8.6,2.2.4,4.4.5,6.3,1.4,1.5.7,2.6,2.3,3.8,3.9Z"/>
  <path class="cls-26" d="M1503.7,594c11.3.2,11.1.2,13.4,11.1,1,4.9-.3,7.4-5.1,8.8-11,3.1-22.2,3.9-33.6,3.2-4.2-.3-6.3-3.2-5.1-7.3,5.8-20.4,11.8-40.7,17.6-61.1.7-2.6,2.1-3.5,4.8-2.9,5.3,1.1,10.7,2.2,16.1,3,3.8.5,4.1,2.4,3.1,5.5-3.9,11.6-7.7,23.3-11.4,35-.5,1.5-.2,3.1.2,4.8Z"/>
  <path class="cls-6" d="M1331.7,318c-1,8.5-2.2,17.1-3.8,25.6-4.3,22.7-8.7,45.4-13.1,68-.2,1.1-.5,2.2-.9,3.8-7.9-2.1-15.8-4.6-24-7.3,8.3-27.6,14.4-55.2,31.2-78.5,3-4.2,6.8-7.7,10.6-11.7Z"/>
  <path class="cls-6" d="M1429.4,337.6c-.4.3-.6.4-1.1.4-9.1-2.3-17.9-4.5-27-6.8,1.9-10.1,3.9-20.6,5.9-31.6,19.3,3.3,35.3,13.4,52.1,25.5-12.3.9-21.7,5.2-30,12.6Z"/>
  <path class="cls-34" d="M1259.4,392.8c0-5.9,4.2-8.1,8.9-8.6,5.6-.7,11.4-.2,17.5-.2-1.3,6.5-3,13-4.9,20.2-7.5-4-14.3-7.6-21.5-11.4Z"/>
  <path class="cls-34" d="M1398.6,389.2c.4,0,.5.3.4.4-2.7,10.8-5.4,21.4-8.2,32.4-1.7.3-3.8.6-6.3.9,1.3-10,3.1-20,4.9-30,.3-1.6.7-3.2,1.1-5.2,2.7.5,5.2,1,8.1,1.5Z"/>
  <path class="cls-54" d="M1275.1,422.6c-3.1-4.4-6.1-9.1-9.1-14.2,3.9,1.5,7.9,3.3,12.1,5.2-1,3.1-1.9,5.9-3,9Z"/>
  <path class="cls-54" d="M1390.4,560.3c-.9-5.7-1.5-11.6-2.3-18,6.1,4.8,3.8,11.4,2.3,18Z"/>
  <path class="cls-54" d="M1061.4,576.2c-2.1,2.5-4.5,5-7.2,7.6-.4-2.9-.7-6-1.1-9.6,2.6.3,5.3,1.1,8.3,1.9Z"/>
  <path class="cls-6" d="M1332.7,317.2c.1.4,0,.7-.5,1-.1-.4,0-.7.5-1Z"/>
  <path class="cls-22" d="M500.2,266c18.1-27.5,43.6-43.1,76.9-44.1,18-.6,31.7,9.6,38.5,27.1,5.4,13.7,5.8,27.7,5.3,42.5-1.1,30.2-10.3,58.1-19.8,86.1-1.2,3.5-3.4,4.2-6.3,4.3-9.3.5-18.6.7-28.4,1.1-3.2-2.1-6-4.2-8.2-5.8,4-8.3,9-15.8,11.5-24.1,9.4-30.5-5.6-62.5-34.9-77.2-10.9-5.5-22.4-8.1-34.7-9.8Z"/>
  <path class="cls-22" d="M518.8,431.5c2.7,11.1-.8,19-11.2,25.5-9.3,5.9-19.9,7.1-30.5,7.6-.9,0-2.6-1.9-2.9-3.1-2.5-12.4-4.8-24.7-7-37.2-.2-1.2,1.1-3.8,2-4,10.5-2.1,21.1-4.6,32-2.4,8,1.6,14.3,5.2,17.5,13.5Z"/>
  <path class="cls-1" d="M473.4,323c1.8,16.1,7.4,30.3,18.2,42.7-10,6.6-21.3,9-33.3,11-3.1-16.5-6.1-32.8-9.2-49.4,7.7-3.3,15.6-4.7,24.3-4.3Z"/>
  <path class="cls-34" d="M500,358.6c-8.5-7.2-12.3-17.2-14.9-27.9-.5-1.9-.7-3.9-1-6.2,16.9,4.7,23.7,19.3,15.9,34.1Z"/>
  <path class="cls-34" d="M577,393.4c6.2-.7,12.5-1,19.2-1.4-2.4,8.9-4.8,17.4-7.3,26.3-4-8-8-16.3-11.9-25Z"/>
  <path class="cls-22" d="M805.4,400.8c-1-3.5-1.4-6.9-2.1-10.3-2.4-11.7,2.2-17.7,15.3-19.4,5.1-.7,10.2-.8,15.7-1.1,1.4,12.7,2.4,25.3,3.4,38.4-7.8-2-15.6-4.6-23.5-6.8-2.7-.7-5.6-.5-8.9-.8Z"/>
  <path class="cls-11" d="M834.1,352c-.8-17.3,2.2-12.7,14.1-14.8,3.8-.7,7.9-.2,12.3-.2-1.3,5.3-3,10.5-5.4,15.8-7.5-.2-14.2-.5-21-.7Z"/>
  <path class="cls-30" d="M834.1,352.4c6.8-.2,13.6,0,20.8.5-2.9,8.8-9.5,13.6-18.6,15.9-1-5.4-1.6-10.7-2.2-16.4Z"/>
  <path class="cls-6" d="M686.3,362.6c14.3-7.8,28.7-15.3,43.5-22.7-1.4,12.5-3.1,25-4.9,37.4-.2,1.1-1.1,2.9-1.9,3-6.6,1.3-13.3,3.3-19.9,3-9.8-.4-13.7-8-15.9-16.5-.3-1.3-.5-2.6-.9-4.2Z"/>
  <path class="cls-34" d="M634.3,418.6c-13.1,1.8-25.6,5.3-37.7,13.5.8-4.2,1.2-7.2,2-10.2,2.4-9,5.1-17.9,7.2-26.9,1-4,3-5.8,7-6,1.8-.1,3.6-.7,5.8-1,2.9,11.4,8.2,21.4,15.8,30.6Z"/>
  <path class="cls-21" d="M796.9,363c-.5,3.4-1,6.9-2.2,10.7-6.9.4-13.2.4-19.5.4,1.1-3.9,2.1-7.8,3.9-11.7,6.4.2,12.1.4,17.8.6Z"/>
  <path class="cls-38" d="M793.9,383c-1,6.4-2,12.8-2.9,19.6-.8.7-1.5,1.1-2.6,1.4-3.7-6-7.1-12-10.3-18.6,1.8-1.3,3.4-2.2,5.1-2.3,3.6-.2,7.2,0,10.9-.1Z"/>
  <path class="cls-2" d="M785,325.4c1.4-1,2.9-2.2,4.5-2.3,4.1-.3,8.2-.1,12.7-.1-.2,5-.8,10.1-1.5,15.6-.1.5-.5.6-.5.6-2.8-1.9-5.7-3.6-8.2-5.9-2.5-2.3-4.6-5-7-7.9Z"/>
  <path class="cls-33" d="M794,382.6c-3.7.4-7.3.3-10.9.5-1.7.1-3.3,1-5.1,1.9-1.1-3.1-2-6.7-2.8-10.6,6.3-.4,12.6-.4,19.4-.4.1,2.7-.2,5.4-.6,8.6Z"/>
  <path class="cls-59" d="M796.9,362.6c-5.8.2-11.5,0-17.6-.4,4.3-7,11.6-10.1,19.2-13.2-.3,4.4-.9,8.8-1.5,13.6Z"/>
  <path class="cls-7" d="M782.6,304c4.4.3,8.4.7,12.4,1,2.1.2,4.2.5,6.6.9-4.8,2.4-10,4.6-15.2,6.9-1.8.8-3.4,1.7-5.3,2.9-.2.3-.6.3-.9.3-.6-3.1-.9-6.1-1.3-9.6,1.1-1.1,2.2-1.8,3.6-2.4Z"/>
  <path class="cls-34" d="M800.2,339.6c0-.4.4-.5.6-.6,1.3,0,2.6-.2,3.6.3,1.3.7,3.2,1.9,3.3,3,.1,1.1-1.5,2.6-2.7,3.4-1.5,1-3.3,1.4-5.3,2.2,0-2.6.3-5.3.6-8.3Z"/>
  <path class="cls-54" d="M617,377.5c-1.7.9-3.4,1.3-6.3,2,2-4.9,3.6-8.9,5.5-12.7.4,3.6.6,7,.8,10.8Z"/>
  <path class="cls-50" d="M349.9,585.8c-2,9-4.1,17.6-5.8,26.2-.8,3.7-1.9,5.8-6.3,4.2-3.1-1.1-6.4-1.6-9.7-2.2-3.3-.6-4.4-1.8-3.5-5.4,2.8-11.6,5.3-23.3,7.8-35,.3-1.4.5-2.9.9-4.8-2.7-.6-5-1.2-7.4-1.8-1.1-.3-2.5-.2-3.4-.9-5.6-4.3.1-8.8,0-13.3,0-2.3.9-4.6,4.4-3.7,13.3,3.1,26.6,5.9,39.8,9.1,1.2.3,1.8,2.7,2.7,4.1,0,.1,0,.3,0,.5-1.2,4.1-1.1,10-3.8,11.8-2.6,1.8-8-.6-12.7-1.2-.9,3.9-1.8,7.9-2.8,12.3Z"/>
  <path class="cls-50" d="M396.2,584.9c-.9,3-1.8,5.8-1.7,8.6,0,2.4,1.3,4.8,2,7.2,3.9,14.3-3.2,24.3-18.1,25.3-1.2,0-2.3.2-3.5.1-15.5-.9-15.2-1.3-12.3-17,2.4,0,4.9.2,7.3,0,5.4-.6,7.5-3.6,6.4-9-.8-3.7-1.9-7.4-2.7-11.1-2.6-11.8,2.9-20.2,14.9-21.8,5-.7,10.2.3,15.3.9,3,.3,4.6,2.2,4.2,5.6-.4,3.3-.5,6.6-.7,9.8-3.8.4-7.2.8-11,1.4Z"/>
  <path class="cls-22" d="M658.7,484.6c-5.3,9.5-12,16.9-22.7,19.4-18.3,4.2-37-8-40.6-27.7-1.6-8.9-1-18.2-1.2-27.3,0-1.3.8-3,1.9-3.8,13-10.5,27.5-17.1,44.5-15.4,14.7,1.4,23.5,11.1,24.4,26.2.6,10-1.4,19.5-6.3,28.7Z"/>
  <path class="cls-8" d="M1107.1,397.9c-1.8-3.2-3.3-6.4-5.6-8.9-11.3-12.4-8.6-24,7-30.1,7.9-3.1,8.4-2.9,11.9,4.7.7,1.5,1.2,3,1.8,4.3-.6.6-.7,1-1,1.1-9.2,4.5-9.5,6.6-2.2,14.3,1.5,1.6,3,3.2,4.3,4.9,4.8,6.1,4.8,12.6,0,18.7-4.3,5.4-10.3,8.4-16.9,9.8-1.3.3-3.3-.9-4.3-2-1.2-1.3-1.5-3.3-2.4-4.9-1.7-2.9-1.4-4.5,2.1-6,2.1-.9,3.5-3.6,5.2-5.8Z"/>
  <path class="cls-8" d="M1082.5,419.6c-5.3,4.3-11.1,6.1-17.4,5.5-1.7-.2-4.7-1.9-4.7-2.7.2-3-1.3-6.8,2.8-8.7,8.5-3.7,8.8-3.9,7.8-12.9-1-8.9-2.5-17.7-4-26.6-.7-4.2,0-6.4,4.8-7,13.3-1.5,11.3-4.1,13.2,9.5,1.3,9,2.2,18.1,3.1,27.2.6,5.9-1.1,11.2-5.7,15.7Z"/>
  <path class="cls-22" d="M778.4,538.9c-12.9-2.6-24.9-6.1-35.6-13.3-20.1-13.5-25.9-33.9-14.9-55.7,10.5-20.8,27.1-36,46.7-48,10.6-6.5,21.7-11.7,34.6-10.9,10.2.6,19.4,4.4,28.3,9.1,20.8,11.1,38.3,25.9,50.5,46.3,14.3,23.8,8.5,44.7-15.5,58.6-16.2,9.3-33.9,14-52.3,14.9-13.7.7-27.5-.6-41.7-1M765.8,489.1c2-3.9,1.4-7.4-2-10.2-2.9-2.4-6.1-2.5-9.2-.4-3.7,2.4-4.4,5.9-3.1,11.5-3.2.7-6.5,1.3-9.6,2.2-1,.3-2.5,1.7-2.5,2.5,0,.9,1.4,2.2,2.5,2.6,2.8,1,5.7,2.3,8.5,2.2,7.5-.3,15-1.1,22.5-2,1.1-.1,2-1.9,3-2.9-1.1-.9-2-2.2-3.3-2.7-2.3-.9-4.7-1.4-6.8-2.8M823.6,491c-.6.2-1.3.3-1.9.7-1.3.9-2.4,2-3.6,3,1.2,1.1,2.2,2.5,3.5,3.1,2.4.9,5.1,1.9,7.7,1.8,7.4-.3,14.7-1,22.1-1.9,1.2-.1,2.3-2,3.4-3.1-1.2-1-2.4-2.6-3.8-2.8-4.7-.8-9.5-1.2-14-2.5,2.1-5.9.2-10.4-4.9-11.8-4.4-1.2-9.3,1.9-9.7,6.6-.2,2.3,1.2,4.6,1.1,7M790.4,490.6c-.5-.5-1-.9-1.4-1.4-2.2-2.8-4.7-4.6-8-1.8-3.2,2.7-1.8,5.6.2,8.3,6.6,8.8,21.8,7.2,27.5-2.8,1.5-2.6,1.8-5.2-.8-7.1-2.7-2-5.4-1.4-7.3,1.4-2.4,3.4-5.5,4.7-10.2,3.4M831.6,432.9c4.5-1.9,6.3-5.6,3.4-8-4.1-3.4-8.9-6.2-13.7-8.6-1.3-.6-4.8,1-5.5,2.4-.7,1.4.3,4.8,1.7,5.8,4.2,3.2,8.9,5.6,14.2,8.4M803.6,427.1c.5,2.6.5,5.5,1.8,7.6.9,1.6,3.6,3.3,5.2,3,1.6-.2,4.2-2.9,4.1-4.3-.5-4.9-1.7-9.7-3.3-14.3-.5-1.3-3.9-3-4.9-2.4-1.8,1-3.2,3.3-4,5.4-.5,1.1.5,2.8,1.2,5M790.3,432.1c2.3-2.6,4.6-5.2,6.9-7.7,2.2-2.3,2.4-4.8.2-7-2.5-2.4-5.2-1.7-7.5.4-1.9,1.8-3.8,3.8-5.1,6-1.1,1.9-2.5,5.2-1.7,6.3,1.2,1.6,4.3,1.7,7.2,2Z"/>
  <path class="cls-22" d="M1086,280c0,.3-.3.5-.5.7,0-.3-.2-.5-.2-1,.1-.2.5.1.6.3Z"/>
  <path class="cls-54" d="M1008.6,571.1c-.6,3.6-2.5,5.8-5.7,4.9-1.8-.5-4.1-2.8-4.2-4.4-.1-1.6,1.8-4.4,3.5-5,3.4-1.4,5.5.9,6.4,4.5Z"/>
  <path class="cls-25" d="M790.8,490.8c4.4,1.1,7.5-.2,9.9-3.5,1.9-2.8,4.6-3.3,7.3-1.4,2.6,1.9,2.4,4.4.8,7.1-5.7,10-21,11.6-27.5,2.8-2-2.7-3.5-5.6-.2-8.3,3.2-2.7,5.8-1,8,1.8.4.5.9.9,1.8,1.6Z"/>
  <path class="cls-48" d="M836.9,489.9c4.8.6,9.5.9,14.2,1.8,1.4.2,2.5,1.8,3.8,2.8-1.1,1.1-2.2,3-3.4,3.1-7.3.9-14.7,1.6-22.1,1.9-2.5.1-5.2-.8-7.7-1.8-1.4-.5-2.4-2-3.5-3.1,1.2-1,2.3-2.1,3.6-3,.5-.4,1.2-.5,2.6-.7,5,3.3,8.9,2.2,12.5-1.1Z"/>
  <path class="cls-48" d="M765.4,489.8c2.4.7,4.8,1.1,7.1,2.1,1.3.5,2.2,1.7,3.3,2.7-1,1-1.9,2.8-3,2.9-7.5.9-15,1.8-22.5,2-2.8.1-5.8-1.2-8.5-2.2-1.1-.4-2.4-1.7-2.5-2.6,0-.8,1.4-2.2,2.5-2.5,3.1-1,6.4-1.5,10.3-2.1,5.9,4,8.1,4,13.3-.3Z"/>
  <path class="cls-33" d="M831.2,432.8c-4.9-2.8-9.6-5.2-13.8-8.4-1.4-1-2.4-4.4-1.7-5.8.7-1.4,4.3-3,5.5-2.4,4.8,2.4,9.6,5.2,13.7,8.6,2.9,2.4,1.1,6.2-3.8,8Z"/>
  <path class="cls-41" d="M765.6,489.5c-5.3,4.6-7.5,4.7-13,.6-2.4-5.8-1.8-9.2,2-11.6,3.2-2,6.3-1.9,9.2.4,3.4,2.8,4,6.3,1.8,10.6Z"/>
  <path class="cls-41" d="M837,489.6c-3.7,3.7-7.6,4.8-12.2,1.4-1-2.4-2.4-4.8-2.2-7,.3-4.7,5.2-7.8,9.7-6.6,5.1,1.4,6.9,5.9,4.8,12.2Z"/>
  <path class="cls-33" d="M803.4,426.7c-.5-1.8-1.5-3.5-1-4.7.8-2.1,2.2-4.4,4-5.4,1-.5,4.5,1.1,4.9,2.4,1.6,4.6,2.8,9.5,3.3,14.3.1,1.4-2.5,4.1-4.1,4.3-1.6.2-4.3-1.4-5.2-3-1.2-2.2-1.2-5.1-1.9-8Z"/>
  <path class="cls-33" d="M790,432.4c-2.6-.5-5.7-.6-6.9-2.2-.8-1.1.6-4.4,1.7-6.3,1.3-2.2,3.2-4.2,5.1-6,2.3-2.1,5-2.8,7.5-.4,2.3,2.2,2,4.6-.2,7-2.4,2.5-4.6,5.1-7.3,7.9Z"/>
</svg>