<?xml version="1.0" encoding="UTF-8"?>
<svg id="Layer_1" data-name="Layer 1" xmlns="http://www.w3.org/2000/svg" version="1.1" viewBox="0 0 1920 908">
  <defs>
    <style>
      .cls-1 {
        fill: #fec163;
      }

      .cls-1, .cls-2, .cls-3, .cls-4, .cls-5, .cls-6, .cls-7, .cls-8, .cls-9, .cls-10, .cls-11, .cls-12, .cls-13, .cls-14, .cls-15, .cls-16, .cls-17, .cls-18, .cls-19, .cls-20, .cls-21, .cls-22, .cls-23, .cls-24, .cls-25, .cls-26, .cls-27, .cls-28, .cls-29, .cls-30, .cls-31, .cls-32, .cls-33, .cls-34, .cls-35, .cls-36, .cls-37, .cls-38, .cls-39, .cls-40, .cls-41, .cls-42, .cls-43, .cls-44, .cls-45, .cls-46, .cls-47, .cls-48, .cls-49, .cls-50, .cls-51, .cls-52, .cls-53, .cls-54, .cls-55, .cls-56, .cls-57, .cls-58, .cls-59, .cls-60, .cls-61, .cls-62, .cls-63, .cls-64, .cls-65, .cls-66, .cls-67, .cls-68, .cls-69, .cls-70, .cls-71, .cls-72, .cls-73, .cls-74, .cls-75, .cls-76, .cls-77, .cls-78, .cls-79, .cls-80, .cls-81, .cls-82, .cls-83, .cls-84, .cls-85, .cls-86, .cls-87, .cls-88, .cls-89, .cls-90, .cls-91, .cls-92, .cls-93, .cls-94, .cls-95, .cls-96, .cls-97 {
        stroke-width: 0px;
      }

      .cls-2 {
        fill: #ff650a;
      }

      .cls-3 {
        fill: #ff740a;
      }

      .cls-4 {
        fill: #ff3909;
      }

      .cls-5 {
        fill: #8c6d5a;
      }

      .cls-6 {
        fill: #6d4410;
      }

      .cls-7 {
        fill: #835f33;
      }

      .cls-8 {
        fill: #dcd3c7;
      }

      .cls-9 {
        fill: #faefdd;
      }

      .cls-10 {
        fill: #fece53;
      }

      .cls-11 {
        fill: #ff890b;
      }

      .cls-12 {
        fill: #8e5b2c;
      }

      .cls-13 {
        fill: #f8e6d3;
      }

      .cls-14 {
        fill: #563724;
      }

      .cls-15 {
        fill: #ff710a;
      }

      .cls-16 {
        fill: #f8eedf;
      }

      .cls-17 {
        fill: #6f4410;
      }

      .cls-18 {
        fill: #946031;
      }

      .cls-19 {
        fill: #fcf5eb;
      }

      .cls-20 {
        fill: #76b7fc;
      }

      .cls-21 {
        fill: #ffa00e;
      }

      .cls-22 {
        fill: #c6845c;
      }

      .cls-23 {
        fill: #faf0df;
      }

      .cls-24 {
        fill: #ff6a0a;
      }

      .cls-25 {
        fill: #ff830b;
      }

      .cls-26 {
        fill: #8e6e47;
      }

      .cls-27 {
        fill: #0a0908;
      }

      .cls-28 {
        fill: #ff580a;
      }

      .cls-29 {
        fill: #ff4e0a;
      }

      .cls-30 {
        fill: #fed44d;
      }

      .cls-31 {
        fill: #573927;
      }

      .cls-32 {
        fill: #bc7d54;
      }

      .cls-33 {
        fill: #553725;
      }

      .cls-34 {
        fill: #faefde;
      }

      .cls-35 {
        fill: #fec759;
      }

      .cls-36 {
        fill: #c6855e;
      }

      .cls-37 {
        fill: #fecc51;
      }

      .cls-38 {
        fill: #fdc85b;
      }

      .cls-39 {
        fill: #faecdb;
      }

      .cls-40 {
        fill: #cfc1b0;
      }

      .cls-41 {
        fill: #ff5c0a;
      }

      .cls-42 {
        fill: #543725;
      }

      .cls-43 {
        fill: #c5835b;
      }

      .cls-44 {
        fill: #ff6c0a;
      }

      .cls-45 {
        fill: #cec0a9;
      }

      .cls-46 {
        fill: #845423;
      }

      .cls-47 {
        fill: #ff840b;
      }

      .cls-48 {
        fill: #52a3fb;
      }

      .cls-49 {
        fill: #fdcccf;
      }

      .cls-50 {
        fill: #ab9274;
      }

      .cls-51 {
        fill: #faefdf;
      }

      .cls-52 {
        fill: #7a4d1b;
      }

      .cls-53 {
        fill: #ff7c0b;
      }

      .cls-54 {
        fill: #fecc50;
      }

      .cls-55 {
        fill: #fdbb81;
      }

      .cls-56 {
        fill: #50a4fe;
      }

      .cls-57 {
        fill: #ffce52;
      }

      .cls-58 {
        fill: #faeedc;
      }

      .cls-59 {
        fill: #c5835c;
      }

      .cls-60 {
        fill: #c6845d;
      }

      .cls-61 {
        fill: #fdbb7c;
      }

      .cls-62 {
        fill: #fedd48;
      }

      .cls-63 {
        fill: #ff590a;
      }

      .cls-64 {
        fill: #ff8e0c;
      }

      .cls-65 {
        fill: #84bdfb;
      }

      .cls-66 {
        fill: #fcbd8b;
      }

      .cls-67 {
        fill: #ff3e0b;
      }

      .cls-68 {
        fill: #fdc260;
      }

      .cls-69 {
        fill: #ff7d0a;
      }

      .cls-70 {
        fill: #c38561;
      }

      .cls-71 {
        fill: #fec858;
      }

      .cls-72 {
        fill: #6f4613;
      }

      .cls-73 {
        fill: #ff4f10;
      }

      .cls-74 {
        fill: #583b29;
      }

      .cls-75 {
        fill: #52a5fd;
      }

      .cls-76 {
        fill: #ffe344;
      }

      .cls-77 {
        fill: #7c5627;
      }

      .cls-78 {
        fill: #fdbc72;
      }

      .cls-79 {
        fill: #553726;
      }

      .cls-80 {
        fill: #ff5109;
      }

      .cls-81 {
        fill: #fed24f;
      }

      .cls-82 {
        fill: #ff790a;
      }

      .cls-83 {
        fill: #734714;
      }

      .cls-84 {
        fill: #ff690a;
      }

      .cls-85 {
        fill: #fdbc6f;
      }

      .cls-86 {
        fill: #553826;
      }

      .cls-87 {
        fill: #533626;
      }

      .cls-88 {
        fill: #ff940c;
      }

      .cls-89 {
        fill: #f8eedd;
      }

      .cls-90 {
        fill: #fcc097;
      }

      .cls-91 {
        fill: #c1af99;
      }

      .cls-92 {
        fill: #6e4410;
      }

      .cls-93 {
        fill: #a36c40;
      }

      .cls-94 {
        fill: #9f8463;
      }

      .cls-95 {
        fill: #ffe643;
      }

      .cls-96 {
        fill: #ff6109;
      }

      .cls-97 {
        fill: #b5a086;
      }
    </style>
  </defs>
  <path class="cls-9" d="M599,1c6,0,12,0,18.2.4,1.5.8,2.8,1.5,4.2,1.6,8.3.8,16.8.8,25,2.2,23.3,4,46,9.8,68.1,18.6,40.6,16,75.4,40.2,103.4,73.5,12.5,14.9,23.4,31.3,34.1,47.6,12.7,19.3,23.2,39.8,29.8,60.5,10.1-.4,19.8-.8,29.5-1.4,1.4,0,2.7-.9,4-1.5,5.1-2.3,10.1-5.1,15.4-6.8,22.1-6.7,43.3-5.2,63.1,7.6.9.6,2.4.3,3.6.1,6.6-1.1,13.2-3,19.9-3.2,14.4-.5,28.8-.8,43.2,0,16.3.9,31.7,6,46.6,12.7,33.6,15.1,59.8,39.6,84,66.7,2.9,3.2,5.6,7.7,9.2,8.9,9.4,2.9,18.6,8.2,29.2,5.5,1.9-.5,3.9-1,5.9-.9,14.5.6,29,1.2,43.5,2,3.1.2,5.6-.2,7.8-2.7,2.9-3.3,6.6-6.1,9.7-9.3,1.2-1.3,2.3-3.1,2.7-4.9,3.4-15.4,6.2-31,10-46.3,5.3-21.4,28.6-34.6,49.5-31.5,20.8,3.1,41.6,6.9,62,12,22.6,5.7,34.1,23.4,35.2,44.7.4,7.1,0,14.3-.4,21.5-.3,4.9,2.2,6.3,6.4,6.6,4.5.3,9,.4,13.3,1.4,26.3,5.9,51.2,16,75.5,27.5,36.7,17.4,72.4,36.7,107.1,58,24.2,14.8,48.4,29.4,72.3,44.7,21.2,13.5,42,27.7,62.7,41.8,11.1,7.6,19,17.4,20.3,31.9.8,19.3-7.8,32.6-24.2,41.1-5.3,2.8-10.7,5.4-16,8-56.1,27.1-112.2,54.3-168.5,81.1-5.8,2.8-7.5,7.3-9.7,12.5-5.2,8.5-11.4,15.9-20.2,19.9-10.6,4.8-21.5,8.9-32.7,12-6,1.7-13,1.8-19.2.7-12.5-2.1-24.4.2-36.3,3.2-10.3,2.7-20.4,6-30.8,8.4-21.2,5-41.8,4-60.4-8.8-5.7-3.9-10.7-8.8-16.2-13.4-1.1.7-2.3,1.6-3.5,2.4-18.2,11.3-36.9,12.6-55.9,2.6-5.4-2.9-10.4-6.6-15.3-10.3-2.6-2-4.5-2.1-7.6-1.1-9.1,3-18.3,7.1-27.7,7.6-8.5.5-16.2,1.4-24,5.2-10.4,4.9-21.6,2.4-32.5.9-16.4-2.3-28.3-10.8-35-26.2-.6-1.3-2.4-2.7-3.9-3-11.8-2.3-20.8-8.6-27.2-18.6-1.5-2.4-3-3-5.7-2.3-5.8,1.6-11.6,3.1-17.5,4.2-3.1.6-4.9,1.7-6.2,4.6-3.5,7.4-9,13.1-15.8,17.7-1.7,1.2-3.2,3.3-3.8,5.2-4.9,16.1-15.5,26.3-31.8,29.9-7.3,1.6-14.9,1.8-22.3,2.5-13.6,1.3-25.3-2.7-35-12.4-1.2-1.2-2.1-2.5-3.2-3.8-3.9,1.9-7.4,3.6-10.8,5.2-8.9,4.4-17.1,10.5-27.5,11.1-3.6.2-7.3.8-10.8,1.7-18.8,4.8-38,7.3-57.3,7.3-17.3,0-34.6-1.6-51.9-2.3-2.5-.1-5.4-1.9-7.5,1.7-7.7,13.8-15.5,27.5-23.6,41.4-13.5,16.9-25.9,34.6-40.4,50.1-12.4,13.3-27.3,24.1-41.3,36.2-16.2,8.8-31.6,18.5-48.1,25.9-31.5,14-64.8,20.7-99.2,22.7-31,1.8-61.2-1.5-90.1-13.3-15.6-6.4-30.5-14.4-39.1-29.6-4.2-7.5-6-16.4-8.8-25.1.6-4.7.8-9,1.7-13.1,3.5-16.4,14.6-28.8,23.7-42.1,7.2-10.6,15.2-20.7,23.2-31.1,1.2-1.1,2.2-2,3-3.1,14.2-18.5,28.3-37,42.5-55.6,1.5-2,3.1-4.1,4.7-6.2-4.3-1.7-8.1-2.8-11.6-4.7-2.5-1.3-3.9-1.1-6.2.5-8.8,6-17.5,12.3-26.8,17.4-6.4,3.5-13.7,6.3-20.9,7.5-12,2-23-2.1-32.5-10-.6.7-1,1.2-1.4,1.7-15.2,22.7-36.9,30.7-63.3,23.4-26.8-7.4-53.5-14.8-80.3-22.3-25.9-7.3-40.2-25-42.1-52.3.4-4,.4-7.7,1.1-11.2,1.2-6.1,2.8-12.1,4.6-18.4,4.6-15.3,8.9-30.4,13.3-45.8-1.8-.4-3-.8-4.3-1-14.6-2.1-29.3-3.9-43.9-6.2-13.9-2.2-27.6-5.1-38.2-15.4-1.1-1-3-1.1-4.6-1.5-16-4.3-32.3-8-48-13.1-22.2-7.2-35.4-24.5-32.8-49.4,2.6-14.7,11.2-24.3,24.3-30.5,6.7-1.2,13-2.9,19.4-3.5,5.2-.5,10.6.6,15.9.6,1.9,0,3.8-1.4,5.7-2.1l-.5-1.5c-1.6-.5-3.1-1-4.7-1.5-22.1-6.3-38.2-22.9-35.1-50.4,4-20.9,22.5-33.8,41.9-34.4,7.3-.2,14.7.1,22-.1,1.8,0,3.7-1.3,5.1-2.5,3.9-3.3,7.2-7.3,11.2-10.4,8.5-6.7,18.3-11.1,28.8-13.5,18.2-4.2,36.5-8.2,54.8-11.4,11.3-1.9,22.8-2.1,34.2-3.3,1.6-.2,3.6-1.4,4.5-2.8,7.3-11.2,17.4-18,30.4-21.3,13-3.3,26.3-4.5,38.9-10.5,18.1-8.6,37.7-13.1,57.7-15.5,1.2-.1,2.4-1.5,3.5-2.4,9.1-8.4,17.4-17.7,27.3-24.9,10-7.3,21.6-12.5,32.9-18.6,8.8-2.5,17.2-5,25.8-7.6-.5-1-.8-1.9-1.3-2.7-8.1-12.8-16.4-25.4-24.4-38.3-12-19.3-26.1-37.5-30.3-61.1-.6-8.7.8-16.6,4.4-24,8.7-18,24.1-27.8,42-34.4,16.9-6.2,34.4-9.9,52.5-10.1,1,0,1.9-1.3,2.9-1.9M543,499s0,0,.7,0c16.6-8.3,30.4-19.7,40-35.1,1.1,6.7,1.4,13.6,3.4,20.1,5.6,17.9,18.8,27.4,36.8,30.3,15.8,2.5,28.4-3.9,37.8-16.3,13.8-18.2,17.3-38.1,10.1-59.5,5,.5,10.1,1.1,15.3,2.3-.9,2-1.7,3.9-2.6,5.9-10.4,21.5-7.6,43.3,8.1,59.5,8.9,9.2,19.9,15,31.9,18.8,26.4,8.5,53.3,8.6,80.3,3.4,21.9-4.2,42.2-11.9,58.2-29.5,14-.9,27.9-1.7,41.9-2.7,5.6-.4,7.4-2.6,7-8-.6-8-1.1-15.9-1.6-23.9-1.3-23.9-2.6-47.9-3.9-71.8-.1-2.1,0-4.2,0-6.2,15.1-1.5,26.6,4.6,33.5,16.9,4.7,8.4,6.3,17.6,7,26.8,2,26.4,13.3,46.7,37.3,59.9.3,1.8.6,3.6,1,5.4,6.2,27.6,20.6,49.7,44.3,66.6.2.6.4,1.3.5,1.9,1.8,21.2,3.6,42.4,5.3,63.6.7,9.1.6,9.1,9.5,8.6.7,0,1.3,0,2,0,13.8-1.5,12,1,10.9-13.3-.7-8.9-1.5-17.7-2.3-27.5,4.6,1.8,8.3,3.2,11.9,4.8q12.7,5.5,18.9-7.1,4.4-8.9-3.4-13c22.2.6,43.6-3.9,64.2-11.3,12.6-4.5,24.6-10.5,37.1-14.9.4,3,.8,5.9,1.2,8.9.4,3.2,1.8,4.6,5.4,3.9,9.3-1.8,18.6-3.3,27.9-5,9.9-1.8,9.9-1.9,8.6-12.1-.2-1.3-.4-2.6-.5-3.9-.3-4-2.2-4.9-6-4.1-8.4,1.7-17,3.1-25.1,4.1,9.8-8.2,20.3-15.7,29.2-24.8,9-9.2,16.4-19.9,24.9-30.1.2-.1.4-.3.5-.6,0,0,0,0,.7,0,4.4-2,8.9-3.6,13-6.1,21-12.3,26.2-32.6,14.4-54.8,2.8-8.1,5.7-16.2,8.3-24.4,1-3.1,2.6-4.1,5.7-3.8,8.2.8,16.4,1.4,24.4,2.8-1.8,9.1-3.5,18.2-5.3,27.2-2.8,14.3-5.6,28.6-8.3,42.9-1.3,7,.3,8.8,7.3,10.1,16.6,3.2,33.1,6.4,49.7,9.7,7.4,1.5,9.6,0,11-7.4,3.1-16.6,6.4-33.1,9.5-49.7,2.5-13.5,5-27,8.3-40.6,5.6-1.1,11.3-2.2,17.5-2.9,8.2,5.7,13,13.6,13.5,23.3.4,9.4,0,18.9-1.3,28.2-4.3,30.6,8.6,56.3,35.5,70.8,5.7,3,10.6,3,15.9,0,9.3-5.1,18.7-10.1,28-15.3,6.1-3.4,6.6-6.2,2.8-12.1-3-4.7-6.4-9.4-8.7-14.5-5.2-11.7-3.1-23.8-1.4-35.9,4.7-32.4-3.9-59.9-29.5-82,.3-3.7.6-7.4,1.6-10.9,5.3,4.7,10.9,9.2,15.8,14.2,9.6,9.9,15.5,22.1,20.1,35.8,3.7,14,4.9,28.2,2.2,42.5-3.2,17.4-2.3,33.2,9.8,47.8,6.5,7.9,2.6,18.1-7,23.5-8.8,5-17.6,10.1-26.8,14.3-5.3,2.5-11.2,3.4-17.7,4.9-2.1-.6-4.2-1-6.2-1.8-33-15-50.2-47.6-44.6-83.4,1.2-7.4,1.8-14.9,1.6-22.4-.2-8.5-3.4-15.8-11.9-20.2-.6,2.9-1.2,5.5-1.7,8.1-2.9,16.2-7.2,32.3-8.4,48.6-1.6,21.7-.7,43.6-.8,65.5,0,5.1.3,10,6.3,11.8.7.2,1.4,1,1.8,1.7,2.5,4.5,4.9,9,7.9,14.5,18.3-5.5,37.6-11.3,57.6-17.1,11-2.7,14.2-.9,20.7,12.1,2-5.1,5.2-9.6,10.7-9.3,10.2.6,20.4,1.5,29.9,7.4,3.3,4,3.5,8.3,1.8,13.1-2.4,6.9-4.5,14-7.1,22.1,11.1-4.3,21.3-8.9,30.1,2.9,3.8,5.2,7.6,10.4,11.6,15.9,6.9-3.2,13.6-6.3,21.1-9.5,9.8-4.6,19.6-9.1,30.1-13.9,10.7-5.1,21.4-10.1,32.9-15.2,12.1-5.9,24.2-11.8,37.1-17.9,11.7-5.8,23.5-11.6,35.9-17.6,19-9.6,38-19.1,57.9-29.1-18.1-11.9-35.4-23.4-53.3-35.3-11.4-7.3-22.8-14.6-34.8-22.3-11.2-6.9-22.3-13.8-34-21.2-1.5-.7-3-1.3-4.4-2.1-8.8-5.3-17.5-10.6-26.8-16.4-9.4-5.3-18.9-10.6-28.9-16.4-9.5-5-18.9-10-28.9-15.5-1.7-.8-3.3-1.7-5-2.5-7.5-3.5-15-7-23.2-10.8-9.7-4.4-19.5-8.9-29.8-13.7-5.8-2.1-11.6-4.4-17.5-6.3-12-3.8-23.9-8.6-37.6-5.7-13.4-8.8-28-14.7-43.4-19.9,2.9-15,5.7-30.1,8.6-45.1,1.3-6.6-.2-8.9-6.8-10.1-16.3-3.2-32.7-6.3-49-9.5-9.3-1.8-11.1-.6-12.9,8.6-3.6,18.9-7.4,37.9-11.8,57-3,1.8-6.1,3.3-8.9,5.3-15.1,10.9-23.7,26.5-31.1,43-1.5,3.3-3.2,6.5-4.9,8.9-1.5-6.5-3-12.9-4.3-19.5-1.1-5.7-4.7-8.8-10.1-9.5-7.4-1-14.9-2-22.3-2.1-19.3-.3-38.1,2.6-55.8,11.5-13.2-14.2-26.5-28.5-39.8-42.7-19.8-21.3-41-40.8-68.2-52.6-21.8-9.4-44.4-12.2-67.7-8.6-13.3,2-26.4,5.1-40,7.2-9.3-15-23.8-19.4-41.4-12.3,4.3,18.4,8.6,36.9,12.9,55.3,19.3-1.5,32.6-13.3,32.4-33,15.2-2.7,30.3-6.1,45.6-7.9,25.2-3,48.4,3.7,70,16.7,22.9,13.8,40.8,33,58.6,52.4,9.9,10.8,20,21.4,29.7,32.7-9.4,9.5-13,20.9-9.4,33.8,2,7.1,5,14,8.4,20.6,4,7.7,9.1,14.7,13.2,22.3,3.8,7,1.8,12.5-5.2,16.1-2.3,1.2-5,2.2-7.5,2.4-4.9.4-9.9,0-14.9.1-6,0-7.7,1.9-6.5,7.5,2.3,11,4.9,22,7.3,33.1,1,4.4,3.7,7,8.2,7.5,7.4.7,14.9,1.9,22.3,1.9,9.4,0,18.9-1.2,28.1-1.2-4.4,5.4-8.5,11.1-13.3,16.2-17.7,19.1-39,33.1-63.1,42.7-19.8,7.9-40.3,13.6-61.7,15.1-14.6,1-28.8-1.9-42.6-7.8-.1-2-.4-3.9-.4-5.9,0-4.2-1.9-5.7-6.2-5.1-4.4.6-8.8.6-13.6.4-18.9-14.8-31.7-33.6-36.1-57.3,18.9,4.8,34.8-1.9,43.2-18.2,4.9-9.6,3.9-14.4-4.3-21.1-8.9-7.3-14.5-16.6-15.7-28.4,6.6-2.7,13.1-5.9,19.8-7.9,9.7-2.9,9.8-2.6,12.1,7.1,2.2,9.2,7.9,12.8,17.3,10.7,24.5-5.4,49-10.7,73.6-16,10.2-2.2,14-7.8,12-18-1.2-5.7-2.5-11.4-3.8-17-4.3-19.6-8.5-39.3-12.9-58.9-1.5-6.8-7.8-11-14.1-9.6-26.2,5.6-52.3,11.2-78.5,16.9-8.1,1.8-11.8,8-10.1,16.1,2.1,9.8,4.3,19.5,6.4,29.2,2,9.2,3.9,18.4,5.6,26.4-10.3,3.8-19.9,7.3-30,10.2-.5-3.6-.9-7.3-1.4-10.9-3.3-21.9-12.9-40.5-30.3-54.4-24.4-19.5-52.9-24.4-82.9-20.4-19.5,2.6-38.6,8.2-58.6,8.1-7.8,0-9.5,2.4-9,10.2,1.3,21.4,2.5,42.8,3.1,64.1-7.2-5.2-14.2-10.9-21.7-15.6-6.9-4.4-14.5-7.7-21.6-12.3,1.5-11.1,3.1-22.2,4.9-33.5,0-.2.2-.5,1-.7,7.1-.3,13.2-3.4,17.1-8.8,9-12.6,13.4-26.5,7.6-42.2,0,0,0-.3.7-.4,16.2-4.3,32.5-8.6,49.3-12.4,9.1,15.7,23.8,20.5,41.7,13.3-.7-3.4-1.4-6.9-2.1-10.6,5.6-1.3,10.7-2.6,15.9-3.7,2.6-.6,5.1-1.5,4.4-4.8-.7-3.2-3.2-3.2-6-2.5-5.3,1.3-10.6,2.4-16.2,3.6-1.6-6.7-3-13-4.5-19.5,5.6-1.3,10.7-2.6,15.9-3.8,2.7-.6,5.1-1.5,4.4-4.8-.7-3.3-3.3-3.1-5.9-2.5-5.3,1.2-10.6,2.4-16,3.6-1-3.9-1.9-7.2-2.7-10.4-19.4,1.6-31.9,13.3-32.4,32-16.3,4.4-32.7,8.8-49.7,13.3-4.8,1.5-9.6,3.1-14.3,3.8-.1-1.4-.2-2.7-.5-4.7-1-.8-1.8-2-2.9-2.2-4.7-1-9.5-1.6-14.2-2.4-11.8-1.9-23.6-3.7-36.2-5.8-2.1-.3-4.3-.8-6.4-1-5.7-.5-7.9,1.3-8.7,6.9-2,14.3-4,28.6-6.5,43.3-15.3,7.9-30.6,15.8-46.1,22.8.6-22.5,1.3-44.9,1.8-67.4.2-8.1-2.2-11-10.2-10.3-15,1.3-30,3.4-45.2,4.3-2.3-10.5-3.6-21.4-7.2-31.4-7.9-22.1-26.4-34.5-49.8-33.3-38.6,2-67,21.3-87.9,53.9-21.7.2-42.6,4.6-62.6,12.8-9.5,3.9-18.6,8.8-29.1,10-5.8.7-11.4,2.1-17.1,3.3-7.1,1.5-8.4,3.5-7.2,10.8.7,4.1,1.4,8.2,1.4,12.3-.8.3-1.6.5-3.3.8-3,0-6.1.1-10,.1-3.7.3-7.4.5-12,.8-6.3.4-12.7.8-19.9,1.2-10.7,1.3-21.4,2.5-33,3.9-3.1.4-6.3.5-9.4,1.3-12.7,3.2-25.4,6.4-38,10-4.7,1.3-9.1,3.7-12.5,9.3,20.5,2.4,40.1,3.3,60.6,3.8,9,.6,18,1.2,27,1.8,0,.3,0,.5,0,.8-5.3,1-10.6,2.1-16.8,3.1-9.4,1-18.7,2-29,3-13.4.9-26.7,1.8-40.9,2.5-17.9.3-35.9.6-53.8,1.1-2.5,0-5,.8-7.6,1.2,0,.8,0,1.6,0,2.5,20,7.4,41.2,9.5,63,12.3,13.4,1.5,26.8,3,41.1,4.6,9.4.9,18.8,1.8,29,2.9,6,.4,12,.8,17.8,1.6-.6.3-1.2.6-2.7,1.1-24.3,2-48.9,2.7-72.2,11,0,.7,0,1.4,0,2.1,24.4,1.1,48.7,2.2,73.8,3.8,8.1.4,16.2.9,25.2,1.5,3.7.3,7.5.6,11.9.9,1.7.4,3.5.7,5.2,1.1,0,.2-.1.4-.2.6-4.3.6-8.6,1.2-13.8,2-7,.5-14,1-21.8,1.4-6.7.7-13.4,1.3-21,1.9-11,1-22.1,2.1-33.9,3.1-2.1.3-4.2.5-6.3.8-7.6,1-15.2,2.1-23.7,3-13.9,2.4-28.3,2.9-39.9,12.1.1.9.2,1.8.3,2.6,13.1.4,26.3.8,40.4,1.3,10.4,0,20.7,0,32,.2,10.4.2,20.7.4,31.9.7l4.2,1.5c-1.1,1.4-1.9,3.1-3.2,4.2-1,.9-2.6,1.3-4.7,2.1-12,2.1-24.1,4.2-36.9,6.3-3.1.3-6.2.8-9.3.8-10.3.2-20.6.3-31.8.3-26.3-.8-52.6-1.5-79-2.3-.2.6-.3,1.2-.5,1.9,2,1.1,3.9,2.6,6.1,3.4,24,9,48.9,13.6,75.1,16,5.9.8,11.7,1.6,17.6,2.4-4.2,1.6-8.3,2-12.3,2.6-3.9.6-7.8,1.4-12.8,2.3,7.3,3.9,37.5,9.5,49.6,9.7,11.7,1.2,23.5,2.5,36,3.9,8.1.6,16.1,1.2,25,1.9,6.7.3,13.4.6,21,1.1,5,.3,10.1.5,16,.9,4.4,0,8.7,0,14,0,7.6,0,15.2,0,23,.9.8,11.7,8.5,17,18.6,20,1.4.4,2.9.8,4.3,1.2,18.6,4.1,37.4,3.7,56.1,1.3,10.2-1.3,20.1-4.1,29.9-5.7-12.3,10.7-24.6,21.3-37.7,31.8-4-1.4-6.9,0-9.4,3.3-1.8,2.4-3.9,4.5-6.7,6.9-9,3.5-17.8,7.7-28.1,8.3,1.5-5.7,2.9-10.6,4.2-15.6,2.4-9.4-.9-15.8-10.2-18.4-27.8-7.9-55.7-15.6-83.6-23.3-9.1-2.5-15.6,1.1-18.1,10-7.9,28.2-15.8,56.4-23.5,84.6-2.2,8.1,1.4,14.8,9.5,17.1,28.6,8.1,57.3,16,86,23.9,7,1.9,13.4-1.7,15.9-8.5.7-1.9,1.2-3.8,1.8-5.7,4.6-16.5,9.2-33,13.9-49.5.4-1.4,1.5-3.2,2.7-3.5,6.4-1.6,13-2.8,19.1-3.5-2.8,1.9-5.7,3.9-9.3,6.4,5.3,5.8,10.1,11.2,15.2,16.3.7.7,3.2.4,4.4-.3,3.7-2.2,7.3-4.7,10.8-7.1,4.4-3,4.7-5,.6-8.4-4.4-3.7-9.2-7-13.4-11.1,2.7-1.2,5.5-2.5,8.9-3.5,4.2,2.1,8.9,6.4,12.6,5.7,3.7-.7,6.7-6.3,9.7-10,4.4-5.3,4.3-5.4-.8-9.9,2.1-1.6,4.1-3.2,6.5-4.3,2.9,4.8,6.5,1.5,9.5.5.7-.2.4-4.1.3-6.2,0-.9-.6-1.9-.3-3.1,11.4-11.5,22.8-23,34.9-34.5.5-.4,1-.8,1.5-1.1M1444.8,638.9c12.7-3.5,25.5-7.1,38.2-10.6-1.5-1.2-2.8-1.3-4.1-1.4-9.9-.6-15.6-6.8-14.9-16.7.2-2.6.9-5.2,1.6-7.8,2.3-8.4,4.8-16.7,7.4-26.1-4,1.9-8.3.7-9,6.1-1.7,12.3-4,24.6-5.9,36.9-1.5,9.3-4.8,12.4-14.8,12.6-5.2-.9-10.5-1.8-15.7-2.7-10.8-2-13.9-6.6-12-17.5,1.3-7.5,2.4-14.9,3.7-22.7-5.3.3-10.1.7-14.9.8-4.4,0-8.9,5.7-7.6,10,1.9,6,3.7,12.1,6.4,17.8,8.7,18.8,21.5,25.3,41.7,21.2M1085.8,279.8s-.4-.3-.2-1c.9-2.4,1.8-4.8,2.8-7.5-3.8-1.6-7.1-3-10.8-4.6-5.2,12.2-10.3,24-15.2,35.5.4.7.4,1,.5,1,9.3,5.8,9.8,5.7,14-4,1-2.3,2.3-4.5,3.4-6.8.5.2,1,.4,1.5.6,1.1,5.9,2.2,11.7,3.1,17.6.4,2.6,1.4,3.9,4.2,3.6,2.2-.2,4.5,0,7.5,0-.5-5.6-.9-10.2-1.4-14.8-.4-4.6-1.6-8.4-7.8-7.6,4.7-1.4,9.1-2.4,13.5-3.3,2.6-.5,5.3-.9,3.9-4.5-1.2-3.2-.5-8.4-6.7-6.7-4,1.1-8,2.1-12.4,2.7M796.9,135.3c-11-14.4-23.4-27.5-38.1-39.3-11.8-7.7-23.6-15.5-35.8-23.8-13.3-5.5-26.6-11-40.4-17-12.8-3-25.7-6.1-39.3-9.4-13.7-.9-27.5-1.8-42.1-2.9-17.4.5-34.4,3.5-50.3,11-14.1,6.6-16.2,13.1-8.4,26.3,7.3,12.3,14.9,24.4,22.6,36.5,12.1,18.9,24.4,37.7,36.8,57.1,11.2,16.7,22.6,33.3,33.6,50.2,2.2,3.4,4.7,4.9,9.3,4.6,12.8,1,25.5,2,39.2,3.2,12.7,1,25.4,2,39,3.1,12,.9,24.1,1.9,37,3,12,.9,24.1,1.9,37,3,17.4,1.4,34.7,2.8,52.8,4.3-1.1-5.8-1.8-10.9-3-15.9-9-35.2-28.8-64.6-49.8-94.1M703.1,637.9c-10.4,0-20.7.2-32,.2-12.7.2-25.4.3-39,.3-7.8.1-15.6.8-23.2.2-7.1-.6-11.1,2.4-14.6,8.5-14.7,18.9-29.3,37.8-44.5,57-4.8,6.3-9.7,12.6-14.4,19.1-13.9,19-28,38-41.6,57.3-8,11.3-6.4,17,5.3,24.5,1.1.7,2.3,1.3,3.5,2,15.5,8.3,32.1,12.3,50.4,14.1,3.5.3,7,.8,10.4.7,10.9-.4,21.8-1,33.6-1.4,12.4-2.2,24.8-4.4,38.1-6.7,12-4.1,24-8.2,36.8-12.4,11.4-6.2,22.9-12.4,35-18.9,1.5-1.3,2.9-2.8,4.6-3.7,14-8.4,25.7-19.4,37.2-31.8,22.1-25.4,42.6-51.9,56-83.1,3.6-8.4,5.7-17.3,8.6-26-23.3,0-45.2,0-68-.2-13.7.2-27.4.5-42,.5M1140.4,494.7c1-2.6,2.3-5.2,2.8-7.9,3-14.9-1.4-27.4-13.4-36.7-11.6-8.9-24.5-9.9-37.5-3.5-13.5,6.7-20.2,18.2-20,33.1.3,16.7,11.7,30.2,27.8,34.1,15.7,3.8,31.6-3.5,40.3-19.1M1390.2,545.8c-2.4-4.5-6.4-5.3-11-5.1-7.6.4-15.3.7-22.9,1.4-3.8.3-6.8-.5-9-3.7-2.2-3.1-4.1-2.7-6.8-.2-6.7,6.2-13.5,12.3-20.5,18.1-2.3,1.9-2.3,3.3-.5,5.3,2.8,3.1,5.3,6.4,8.4,9.2,1.1,1,3.7,1.4,5.2.8,3.1-1.2,6-2.9,8.6-4.9,4.7-3.5,9.4-6.7,15.7-6.1,2.7.3,5.4.4,8,.6-1,2.5-1.9,5.1-3,7.6-1.8,4.2-4.9,1.4-7.3,1-11.8-2.2-8.4-4.3-15.9,6.1,0,.1-.1.3-.3.4-1.9,2.2-1.4,3.8,1.1,5.1,3.2,1.6,6.4,3.3,10.3,5.3-6.4,6.9-12.5,13.6-19.1,20.7,3.6,2.7,6.9,5.1,10.1,7.7,2.5,1.9,4.8,1.9,7.1-.1,5.7-5.1,11.6-9.9,17-15.3,2.6-2.6,4.5-3.4,7.9-1.6,8.2,4.2,6.1,4.5,11.4-2.9.3-.4.5-.8.8-1.3q6.3-9.3-3.1-14.7c-.3-.1-.4-.5-.7-1,1.2-2.4,2.7-4.8,3.7-7.4,3.1-7.8,7.1-15.5,4.5-25.1M812.4,585.9c3.7-4.5,9-5.5,15.1-7.5-2.2,19.3-9.2,36-17.9,53,4.3,1.4,8.1,2.5,11.7,4,4,1.7,6.5.6,8.8-2.8,7.8-11.3,13.7-23.6,17.6-36.7,3.2-10.7,5.2-21.7,2.5-33-2-8.7-7.1-11.4-15.5-8-7.2,2.9-14.5,5.9-21.6,9-2.8,1.2-5.3,1.6-7.8-.6-3.2-2.6-5-1.2-7,1.9-4.7,7.4-9.8,14.6-14.9,21.8-1.6,2.3-1.9,3.6.7,5.1,3.6,2,7.2,4.2,10.7,6.5,2.4,1.6,4.2,1.3,6.1-.7,3.6-3.9,7.4-7.7,11.5-12.1M1415,557.5c-1.4.4-2.9.7-4.3,1.1q-11.4,2.9-8.8,14.4c1.7,7.5,1.8,7.6,9.7,6.6,6.3-.9,12.7-1.8,19.3-2.7,0,1.8.2,2.9,0,4-1.8,11-3.6,22-5.5,32.9-.4,2.6-.9,5.1,2.8,5.6,5.3.8,10.5,1.9,15.8,2.4,1.3.1,3.7-1.4,3.9-2.4,2.3-12.7,4.2-25.6,6.3-38.3.5-3-.8-4.3-3.6-4.7-2.6-.4-5.1-.9-8.6-1.5,10.9-3.2,20.7-6.2,30.6-8.9,4.3-1.2,5.3-3.3,3.4-7.3-1.8-3.9-3.4-7.9-4.8-12-1.3-4.1-3.4-4.9-7.5-3.6-15.9,4.9-31.8,9.5-48.6,14.4M715.9,540.4c-1,3.5-1.9,7.1-3,10.5-1,3-.4,4.6,2.9,5.4,4.4,1,8.7,2.4,13,3.6,7.4,2.1,7.7,3,3,8.9-.3.4-.6.8-1,1.1-9.4,10.9-20.7,19.2-34.4,24-3.3,1.1-4.4,2.6-2.4,5.8,1.7,2.8,3,6,5.1,8.6,1.1,1.4,3.8,2.6,5.3,2.3,27.4-6.2,47.4-21.6,58.5-47.8,3.4-8.1.4-14.1-8.1-16.6-11-3.2-22.1-6-33.2-8.9-2.3-.6-4.8-.9-5.6,3.2M966.8,564.8c-9.1-1.3-18.1-2.5-27.2-3.8-3.3-.5-4.9.4-5.1,4.1-.2,3.6-.8,7.3-1.5,10.9-.6,3.5.8,4.8,4.1,5.1,6.6.6,13.2,1.4,19.8,2.2,6.4.8,12.7,1.6,19.8,2.6-1.7,3.1-2.7,5.5-4.3,7.6-7.3,9.9-14.8,19.6-22.1,29.5-.9,1.2-1.8,4-1.3,4.5,3.6,3.2,7.4,6.2,11.4,8.8,1,.6,3.6-.2,4.8-1.2,5.4-4.2,10.8-8.4,15.6-13.2,9.2-9,16.6-19.2,21.1-31.5-13.5-4.5-16.5-8.5-17.3-23.2-5.7-.8-11.4-1.5-18-2.4M1196.5,592c7.8-1.1,15.6-2.1,24.7-3.4-1.5,7.8-2.6,14.5-4.1,21-3.3,14.1-3.1,14.6,11.6,14.5,1.7,0,4.1-1.1,4.9-2.4,8.3-13.1,12.3-27.6,11.8-43.1-.3-8.6-4.5-12-13-10.8-17.2,2.3-34.3,4.9-51.4,7.2-3.1.4-3.9,1.8-3.4,4.7.6,3.6,1,7.3,1.3,10.9.2,2.9,1.6,3.7,4.3,3.3,4.1-.7,8.2-1.2,13.2-1.9M1482,581.6c-2.6,8.9-5.2,17.9-7.7,26.8-1.4,5.1-.2,7.9,4.2,8.2,12,.8,24-.1,35.4-4.4,1.3-.5,3.1-3.1,2.8-4.4-1.1-4.4-2.7-8.7-4.6-12.9-.2-.6-2.8,0-4.3,0-1.9,0-3.8-.2-6.6-.3,4.8-15,9.4-29.3,14.3-44.4-6.5-1.2-12.6-2-18.4-3.6-3.8-1-5.1.4-6,3.6-2.9,10.2-5.9,20.4-9,31.4M562.5,575.1c-.8-3.2-1.7-6.3-2.6-9.9,2.9-.4,5.2-.7,8.1-1.2-.6,2-.7,3.4-1.4,4.5-1.6,2.8-1.4,5,1.8,6.5,3.2,1.4,6.2,5.5,10.1,1.2,4.8-5.3,8.4-11.2,9.1-18.5.8-7.3-2.6-11-10-10.8-1.8,0-3.6.4-5.4.6-5.4.8-10.8,1.6-16.5,2.4-.7-2.4-1.5-4.4-1.9-6.5-.7-4.4-3.3-5.4-7.2-4.2-1,.3-1.9.5-2.9.7q-8.1,1.6-6.3,9.4c.2.9.3,1.9.4,2.6-2.8,2.7-9.7-1.4-9.2,5.8.3,3.6.4,8.6,2.6,10.2,2.4,1.8,7.1.4,11.1.4,2.6,8.2,5.1,16.4,7.8,24.6,3.5,10.6,3.5,10.5,14,6.9,3.3-1.1,4.6-2.6,3.5-6.2-1.8-5.9-3.2-11.9-5.1-18.6M900.1,576.4c2.1,18.9-.6,37-10.7,54.1,4.8,1.5,8.7,2.7,12.6,4,3.6,1.2,6.1.5,8.4-2.9,16.1-23.2,16.8-48.7,10.8-75-.3-1.4-3-3.1-4.6-3.1-4.8,0-9.6,1-14.4,1.3-3.7.2-4.4,2.1-4,5.3.7,5.1,1.2,10.2,1.8,16.3M1294.3,605.9c6.4-3.9,12.9-7.5,19.1-11.8,10.4-7.3,10.3-7.5,3.9-18.5q-4-6.8-11-2.9c-2.5,1.4-4.9,2.8-7.5,4-12.9,6-25.9,12-38.9,17.9-5.7,2.6-5.8,2.5-2.8,7.7,1.9,3.5,4.1,6.9,5.8,10.5,1.6,3.5,3.5,4.7,7.3,3,7.7-3.4,15.6-6.5,24.1-10M511.9,600.4c5-4.9,10.1-9.7,14.9-14.8.9-1,1.1-3.7.4-4.9-2.3-3.5-5.2-6.5-7.8-9.8-1.6-2-3.1-2.5-5.4-.8-15.9,11.5-31.9,23-47.9,34.3-2.5,1.8-2.9,3.4-.9,5.7,2.8,3.3,5.8,6.5,8.3,10,2.2,3.1,4.4,3.6,7.5,1.5,10.1-7,20.3-13.9,30.9-21.3M1002,281.7c.6-1.3,1.1-2.5,2-4.7,4,7.7,7.4,14.7,11.1,21.5.7,1.2,2.8,2.7,3.9,2.4,3.1-.8,6.1-2.3,9.6-3.8-5.7-10.3-11.1-20-16.5-29.7-1.5-2.6-2.2-5.7-6.6-5.6-4.7.1-8.2,1.3-9.9,5.8-3.1,7.9-6.2,15.7-8.9,23.7-3.1,9.5-2.9,9.6,6.7,11.3.4,0,.9-.2,1.7-.4.4-8.2,7.5-3.8,11.6-5.7v-10.1c-2-.2-3.8-.4-5.8-.7.3-1.2.6-2.3,1.1-4.1M628.3,588.8c2.5-2.2,5-4.4,7.4-6.7,5-5,5-5.4,0-10.1-2.3-2.2-4.4-4.6-7-6.4-1.1-.8-3.6-1.1-4.7-.4-9.7,6.1-19.2,12.5-28.9,18.6-2.9,1.9-2.8,3.7-.7,6.1,2.8,3.1,5.6,6.1,8.1,9.4,2.7,3.6,5.7,3.8,9,1.6,5.5-3.7,10.8-7.7,16.7-12.1M1028.8,274.5c-3.2,15.8,10.7,28.4,26.6,24.1,8.3-2.2,9.3-5.1,4.4-12.8-6.1,2.6-12.3,4-16.9-2.4-2.6-3.7-1.7-7.9,1.2-11,5.7-6,11.2-1.9,16.7,1.3,1-1.1,1.9-2.1,2.6-3.1,3.8-5.1,3.5-6.5-2.2-9.4-14.7-7.4-28.9-1.5-32.4,13.3M660.3,607.5c1.9.5,3.9,1.6,5.6,1.4,4.2-.7,8.3-2.2,12.6-3.1,4.3-.8,5.2-3.2,3.5-6.8-3.1-6.8-6.1-13.6-9.7-20.2-6.6-12.2-6.7-12-20.2-9.9-4.6.7-4.9,2.6-3.5,6.4,3.9,10.4,7.6,20.9,11.6,32.2M875.2,560.9c-3.8.4-7.6.8-11.4,1.2-2.8.3-4.3,1.5-3.8,4.5,1.5,9.5,2.7,19.1,4.5,28.6.3,1.4,2.8,3,4.5,3.2,3.4.4,7-.3,10.5-.3,3.6,0,5.7-1.4,5.5-5.3-.4-8.6-.4-17.3-1.1-25.9-.5-6.4-1.6-7-8.8-5.9M1542.3,592.2q-6.8-8.9-17.5-5.4c-1.6.5-3.1,1.1-4.7,1.5-3.2.8-4,2.5-2.5,5.4,3.3,6.5,6.6,13,9.8,19.6,1.2,2.5,3,3.3,5.6,2.3,4.8-1.8,9.5-3.8,14.4-5.3,3.3-1.1,3.8-3.1,2.4-5.7-2.2-4.1-4.8-8-7.6-12.5M745.1,595.6c-.7.7-1.4,1.4-2.1,2.1-4.3,4.4-4.3,4.5.2,8.5,4.8,4.3,9.6,8.7,14.4,13.1,2.1,1.9,3.8,2.4,5.8,0,3.6-4.1,7.3-8.2,11-12.2,1.9-2,1.8-3.8-.5-5.3-4.9-3.1-9.6-6.5-14.8-9.1-7.4-3.8-7.5-3.5-14,3M1248,557.4c4.1,4.3,8.3,8.6,12.3,13.1,2.5,2.9,4.7,3,7.6.7,3.8-3,7.8-5.7,11.8-8.3,2.9-2,3.2-4.3.9-6.6-2.8-2.8-5.7-5.5-8.9-7.9-8.9-6.5-9-6.4-18.1-.3-1.8,1.2-3.6,2.4-5.4,3.6-2.5,1.5-2.4,3.3,0,5.8M1016.2,564.6c-4.8-7.2-11.9-9.6-18.8-6.3-6.2,2.9-9.6,10.1-7.8,16.7,2.2,8.1,10.3,12.6,18.3,10.1,8.1-2.5,11.6-10.6,8.3-20.5M667.4,552c-2.2.4-4.4.7-7.1,1.2.8,3.4,1.1,6.2,2.1,8.7.5,1.1,2.4,2.2,3.7,2.2,2.5,0,5.6-.2,7.2-1.7,2-1.8-2-9.5-5.9-10.3M512.4,531.9c-1.2,2.1-5.9,3.6-2.2,6.6,2.6,2.1,4.9,7.2,9.3,4.3,2.1-1.4,4-5.1,3.9-7.6-.1-2.7-7.6-4.8-10.9-3.3M687.6,562.1c.6-1.6,2-4.3,1.7-4.6-3-2.1-4.5-7.5-9.5-5.1-2,.9-5,4.2-4.7,4.8,1.7,2.9,4,5.6,6.7,7.6.8.6,3.5-1.4,5.8-2.7Z"/>
  <path class="cls-12" d="M1815,545.5c-.6,1-1.8,1.4-1.9,2-1.7,15.7-11.3,25.5-24.6,32.2-26.5,13.4-53.1,26.6-79.7,39.8-10.3,5.1-20.7,10.1-31.5,14.8-2.3-1-4.1-2.2-6-2.3-5.6-.2-11.2,1-16.9.9-6.8-.1-13.8.2-20.8,0-12.9-.2-25.9-.1-38.8-.1,2-5,3.6-9.5,9.5-12.3,56.3-26.8,112.4-54,168.5-81.1,5.4-2.6,10.7-5.3,16-8,16.5-8.5,25-21.8,24.2-41.1.5-.3.9-.2,1.7-.2.3,18.2.3,36.5.3,55.4Z"/>
  <path class="cls-18" d="M267.6,574c-16.1-2.5-32-5.1-47.8-8.1-9.5-1.8-18-5.7-25.7-11.9-2.9-2.4-7.5-2.8-11.3-3.9-14.5-4.1-29.3-7.3-43.5-12.3-14.2-5-25.1-14.4-29.7-29.6-.6-1.8-1.2-3.6-2.2-5.3-.4-19.9-.4-40-.4-60.4.4-.4.8-.4,1.6-.4-2.1,24.4,11,41.7,33.2,48.9,15.8,5.1,32,8.8,48,13.1,1.6.4,3.6.5,4.6,1.5,10.7,10.4,24.4,13.2,38.2,15.4,14.6,2.3,29.3,4.1,43.9,6.2,1.3.2,2.5.6,4.3,1-4.4,15.4-8.7,30.5-13.3,45.8Z"/>
  <path class="cls-17" d="M541.5,909c-1.2-.7-1.8-1.7-2.7-1.9-13.5-3.4-27.5-5.7-40.5-10.4-13.4-4.9-26.5-11.5-35.9-23.6,7.2-.5,14.2-.6,21.2-.4,5.9.2,11.9,1,17.8.9,7.1-.2,14.3-1,21.4-1.6,4.4-.3,8.7-.6,13.1-.8.7,0,1.3,0,2,0,13.2.6,26.3,1.4,39.5,1.8,9.4.3,18.8,0,28.2,0,1,0,2,0,3-.1,5.4,0,10.7-2.2,16.2,0,1.4.5,3.3-.1,4.9-.2,3.1-.2,6.3-.6,9.4-.5,7.5.2,15.1.7,22.6.8,2.3,0,4.6-.9,6.9-.9,7.9.2,15.7.7,23.6.9,1.6,0,3.2-.9,4.8-.9,4.5,0,9,.4,13.6.7.2,0,.3.9.5,1.3-15.6,9.9-32.7,16.5-50.2,21.6-16,4.7-32.6,7.5-48.9,11.2-2.3.5-4.6.9-7,1.7-21,.4-42,.4-63.5.4Z"/>
  <path class="cls-59" d="M373.1,315c-.7-4.1-1.4-8.2-2.1-12.3-1.2-7.3.2-9.3,7.2-10.8,5.7-1.2,11.4-2.6,17.1-3.3,10.5-1.2,19.5-6.1,29.1-10,20-8.2,40.9-12.7,63.5-12.8,4.6,0,8.2,0,12.3,0,12.3,1.8,23.8,4.4,34.7,9.8,34.2,17.1,47.6,56.8,29.9,89.5-2.1,3.9-4.7,7.5-7.2,11.3,2.9,2.2,5.5,4.2,7.7,6.3-10.9-1.3-21.6-1.9-31.9-4.3-13.1-3-24.9-9.1-33.7-20,8.1-14.8,1.1-29.8-16.1-34.7-3.5-.4-6.7-.7-10.3-1-8.6-.3-16.6.9-24.2,4.5,3.1,16.5,6.1,32.8,9.2,49.3,11.8-2.2,23.2-4.2,33.4-10.8,12,12.3,26.3,20.4,42.8,23.2,13.8,2.3,27.9,2.8,42.1,4.4,4.1,8.6,8.1,16.9,12.1,25.6-.9,5.3-1.6,10.2-2.9,15-.7,2.5-2.1,5.2-3.9,7.1-10.5,11-21.4,21.7-31.9,32.8-11.5,12.2-22.6,24.7-33.9,37-10.1,2.1-20,4.9-30.2,6.3-18.7,2.5-37.5,2.8-56.1-1.3-1.5-.3-2.9-.7-4.3-1.2-10.1-3-17.8-8.3-18.7-20.8-2.5-14-5-27.1-7.5-40.3-3.1-16.4-6.2-32.8-9.5-49.2-1.6-7.9-3.3-15.8-4.9-24.1-1.3-8.6-2.5-16.7-4-24.8-2.5-13.6-5.3-27.2-7.9-40.7M514.7,451.1c5.4-6.2,7-13.1,3.4-20.7-3.6-7.8-10.1-11.2-18.3-12.5-9.9-1.7-19.4.6-29,2-3.8.6-4.1,2.3-3.5,5.4,1.9,9.4,3.8,18.9,5.5,28.4,2.2,11.9,2.2,12.1,14.2,10.3,10.1-1.6,19.8-4.4,27.7-12.8Z"/>
  <path class="cls-46" d="M1594.5,633.1c13.2-.2,26.1-.3,39,0,7,.1,14-.2,20.8,0,5.8.1,11.3-1.1,16.9-.9,1.9,0,3.7,1.3,5.6,2.4-18.6,9.1-37.2,17.9-56,26.6-11.1,5.1-22.2,10.1-33.3,15.2-.9.4-1.8,1.1-2.2,2-4.7,9.3-13.4,13.4-22.3,17-7.6,3.1-15.5,5.4-23.4,7.9-1.7.5-3.6,1.1-5.3.8-13.2-2-24.4,4.9-36.3,8.5-13.1,4-26,8.5-39.2,11.9-18.3,4.7-36.7,6-54.7-2.3-10.5-4.8-19-12-26.1-20.9-2.4-3-3.8-3.2-6.7-1.2-15.6,10.6-35.9,8.3-50.7-1.7-3.5-2.4-6.8-5.2-9.4-7.2-12,4.2-23.4,8.6-35,12.1-4.7,1.4-10,.5-15,1-3.3.4-7.1.6-9.8,2.2-9,5.5-18.7,6.3-28.7,5.5-5.7-.5-11.4-1.6-17-2.8-14-3.2-23.8-11.4-29.1-24.9-.5-1.2-1.7-2.7-2.8-2.9-12.5-1.6-21.7-8.5-28.6-18.5-1.8-2.7-3.6-2.9-6.2-2.3-5.4,1.3-11,2.2-16.3,3.9-2.3.8-4.6,2.9-5.9,5-4.4,7.1-9,13.8-16.6,18-1.2.6-2.1,2.3-2.5,3.7-4.1,15.7-13.8,26.4-29.6,30.1-13.8,3.2-28.1,4.4-42.3,1.8-7.5-1.4-13.8-5.5-18.8-11.3-2.2-2.6-4.2-2.7-7.3-1.2-9.8,4.6-19.5,9.7-29.8,12.7-11.1,3.3-22.8,4.6-34.8,6.4-4.2-.9-7.9-1.7-11.6-1.9-5.4-.2-10.8.5-16.1-.1-3.3-.4-6-1.1-9.5,0-3.1,1-6.9,0-10.4-.1-3.9-.2-7.8-.9-11.7-.8-8.2.2-16.4.7-24.6,1-7.7.3-15.4.6-23.1.8-1.2,0-2.5-.3-3.7-.4-2.1-.2-4.1-.4-6.1-.7-1-.2-1.9-.7-2.9-1,7.8-13.7,15.7-27.4,23.4-41.2,2-3.7,5-1.8,7.5-1.7,17.3.7,34.6,2.3,51.9,2.3,19.3,0,38.5-2.4,57.3-7.3,3.5-.9,7.2-1.5,10.8-1.7,10.4-.6,18.6-6.7,27.5-11.1,3.4-1.7,6.9-3.3,10.8-5.2,1.1,1.3,2,2.6,3.2,3.8,9.7,9.6,21.4,13.7,35,12.4,7.5-.7,15-.9,22.3-2.5,16.3-3.6,26.9-13.7,31.8-29.9.6-2,2.1-4.1,3.8-5.2,6.8-4.6,12.3-10.3,15.8-17.7,1.4-2.9,3.1-4.1,6.2-4.6,5.9-1.1,11.7-2.6,17.5-4.2,2.7-.7,4.1-.1,5.7,2.3,6.4,10,15.4,16.3,27.2,18.6,1.5.3,3.3,1.6,3.9,3,6.7,15.5,18.6,23.9,35,26.2,10.9,1.6,22.1,4,32.5-.9,7.8-3.7,15.5-4.6,24-5.2,9.4-.6,18.6-4.6,27.7-7.6,3.1-1,5-.9,7.6,1.1,4.9,3.7,9.9,7.5,15.3,10.3,19,10,37.8,8.7,55.9-2.6,1.3-.8,2.5-1.7,3.5-2.4,5.5,4.6,10.5,9.4,16.2,13.4,18.6,12.8,39.2,13.8,60.4,8.8,10.4-2.4,20.5-5.8,30.8-8.4,11.9-3.1,23.7-5.3,36.3-3.2,6.2,1,13.2,1,19.2-.7,11.2-3.1,22.1-7.2,32.7-12,8.8-4,15-11.4,20.2-19.9Z"/>
  <path class="cls-43" d="M1018.3,426.6c1.8,11.5,7.4,20.8,16.4,28.1,8.2,6.7,9.2,11.5,4.3,21.1-8.3,16.3-24.2,23-43.9,18.1-4.2-1.7-7.6-3.2-11.1-4.7-24-12.5-35.3-32.7-37.2-59.2-.7-9.3-2.3-18.5-7-26.8-6.9-12.3-18.5-18.4-33.5-16.9,0,2,0,4.1,0,6.2,1.3,23.9,2.6,47.9,3.9,71.8.4,8,1,15.9,1.6,23.9.4,5.4-1.4,7.6-7,8-13.9,1-27.9,1.8-42.2,2.4,7.9-11.4,11.2-23.5,7.8-37.3-2.6-10.4-7.2-19.6-13.7-27.9-5.8-7.4-12.4-14.2-18.7-21.2-1.2-21.4-2.4-42.8-3.8-64.2-.5-7.8,1.2-10.2,9-10.2,19.9,0,39-5.5,58.6-8.1,30-4,58.4.9,82.9,20.4,17.5,13.9,27.1,32.5,30.3,54.4.5,3.6,1,7.2,1.7,11.6.7,4,1.2,7.2,1.6,10.4Z"/>
  <path class="cls-43" d="M1197.1,345.1c17.3-9.4,36-12.3,55.4-12,7.5.1,14.9,1.2,22.3,2.1,5.5.7,9,3.8,10.1,9.5,1.3,6.5,2.9,13,4.3,20.3-2.1,6.7-4.3,12.6-6.8,18.4-6.3-.3-12.3-1.2-18,2.5-4.9,1.4-5.7,4.8-5.3,9.3,4,7.6,8,14.7,12,22.3-6.5,21.2-15.2,41.1-26.1,59.9-3.6,6.1-7.9,11.8-11.9,17.6-9.4.7-18.9,1.8-28.3,1.9-7.4,0-14.9-1.1-22.3-1.9-4.5-.5-7.2-3.1-8.2-7.5-2.5-11-5-22-7.3-33.1-1.2-5.6.5-7.5,6.5-7.5,5,0,9.9.3,14.9-.1,2.6-.2,5.2-1.2,7.5-2.4,7-3.6,9-9.1,5.2-16.1-4.1-7.6-9.2-14.6-13.2-22.3-3.4-6.6-6.4-13.5-8.4-20.6-3.6-12.9,0-24.3,9.8-34.2,2.9-2.4,5.4-4.2,7.8-6.1Z"/>
  <path class="cls-46" d="M496.7,707.1c-12.1,4.4-24,6-36,.9-4-1.7-7.7-4.1-9.2-4.3-6.2,4.9-12.2,10.2-18.6,14.8-8,5.7-16.9,9-27,9.7-13.6.9-26-3.5-38.7-7-21.7-6-43.3-12.3-65.1-18.1-22.4-6-39.9-25.5-40.2-49.6-.1-8.9,0-17.8-.1-26.6-.1-7.4-.5-14.9-.4-22.6,2.3,26.5,16.6,44.3,42.5,51.5,26.7,7.5,53.5,14.9,80.3,22.3,26.4,7.3,48.1-.7,63.3-23.4.3-.5.8-1,1.4-1.7,9.6,7.8,20.5,12,32.5,10,7.2-1.2,14.4-4,20.9-7.5,9.3-5.1,18-11.4,26.8-17.4,2.2-1.5,3.7-1.8,6.2-.5,3.5,1.9,7.3,3,11.6,4.7-1.6,2.1-3.1,4.1-4.7,6.2-14.1,18.5-28.3,37-42.5,55.6-.8,1.1-1.8,2-3,3.1Z"/>
  <path class="cls-6" d="M632.1,277.6c15-1.8,30-3.9,45-5.2,8-.7,10.4,2.2,10.2,10.3-.6,22.5-1.2,44.9-1.9,68.3.3,4.3.7,7.7,1,11.5.2,1.7.4,3,.7,4.3,2.2,8.5,6,16.2,15.9,16.7,6.6.3,13.3-1.8,20-3,.8-.1,1.7-1.6,1.8-2.6,1.8-12.7,3.5-25.3,5.4-38.2,13.1-6.7,26-13.1,39.1-19.6.7,0,1.1,0,1.7.2,1.4,1.1,2.7,1.9,3.8,3-4.4,2.8-8.6,5.2-13.3,7.7-5.6,3.6-10.8,7.2-16.3,11-1.6,4.1-2.9,8.1-4.3,12.4.7,4.1,1.5,7.9,2.4,12,3.6,6.4,7.1,12.5,10.2,18.7-22.7,9.1-41.1,23.4-56.3,41.9-3.5,4.3-7,8.7-10.5,13.1-5-.5-10.1-1.1-15.8-1.9-4.9-7.5-10.6-13.4-18.7-15.9-5.7-1.8-11.7-2.2-17.7-3.5-8.1-9.1-13-19.4-15.8-31.2-.6-3.4-1.3-6.5-1.9-10-.3-4.2-.6-8-.8-12.1.5-2,.8-3.6,1.3-5.2,9.2-26.8,15.6-54.1,14.7-82.7Z"/>
  <path class="cls-92" d="M1334.9,306.8c3.7-18.9,7.5-37.9,11.1-56.8,1.8-9.3,3.5-10.5,12.9-8.6,16.3,3.2,32.7,6.3,49,9.5,6.5,1.3,8,3.6,6.8,10.1-2.9,15-5.8,30.1-8.8,45.8-.7,3.9-1.2,7-1.9,10.4-1.1,5-2,9.7-2.9,14.1,9.6,2.4,18.7,4.6,28.1,7.1,7.7,3.9,15.2,7.6,22.8,11.6-2.4,4.1-4.1,8.7-7.4,11.2-6.2,4.9-13,9.4-20.2,12.6-33.6,14.5-69.1,19.4-105.4,18.5,4.5-24.4,9-48.4,13.7-72.8.9-4.5,1.5-8.6,2.2-12.8Z"/>
  <path class="cls-56" d="M468.3,561.7c-2.7,1.2-5.5,2.5-8.8,4-2.4,1-4.2,1.7-6.3,2.4-.6.3-.9.6-1.2.9,0,0,0,0,0,0-6.5,1.3-13,2.5-19.4,4.1-1.1.3-2.3,2.2-2.7,3.5-4.7,16.5-9.3,33-13.9,49.5-.5,1.9-1.1,3.9-1.8,5.7-2.6,6.8-8.9,10.4-15.9,8.5-28.7-7.8-57.4-15.8-86-23.9-8.1-2.3-11.7-9.1-9.5-17.1,7.7-28.2,15.5-56.4,23.5-84.6,2.5-9,9-12.5,18.1-10,27.9,7.7,55.8,15.4,83.6,23.3,9.3,2.6,12.6,9,10.2,18.4-1.3,5-2.7,9.9-4.2,15.6,10.3-.7,19.1-4.8,28.3-8.1-1.1,5.4,4.3,5.1,6.1,7.7M350.9,581.3c.6-2.7,1.2-5.4,1.8-7.9,1,0,1.3-.1,1.6,0,12.4,2.6,12.3,2.5,14.9-9.7.8-3.6,0-5.1-3.7-5.9-9.9-2-19.8-4.4-29.7-6.6-13.1-3-13.1-3-15.6,10.6-.5,2.7,0,4.1,2.9,4.6,3.3.7,6.6,1.6,10.3,2.4-2.3,10.4-4.5,20.3-6.6,30.2-.9,4.5-3.5,10.4-1.7,13.1,2,2.9,8.5,2.5,12.8,4,4.1,1.4,5.3-.4,6-3.9,2.1-10.1,4.4-20.1,6.9-31M373.6,626.2c1.8,0,3.7,0,5.5-.1,14.4-1.4,21.2-11.2,17.5-25-.7-2.6-1.6-5.1-2.2-7.7-1.6-6.8,1-9.8,7.9-9.5,1.5,0,2.9,0,4.3,0,2.6-15.1,3.1-16-12.6-17.1-1.2,0-2.3,0-3.5,0-13.1.9-19.7,9.6-16.9,22.4.8,3.6,1.8,7.1,2.6,10.7,1.2,5.6-1.1,8.7-6.7,9.2-2.4.2-4.8,0-7.1,0-2.8,14.7-1.9,16.2,11.3,16.9Z"/>
  <path class="cls-92" d="M1461.1,356.7c25.7,21.3,34.2,48.8,29.5,81.2-1.7,12-3.8,24.2,1.4,35.9,2.3,5.1,5.6,9.7,8.7,14.5,3.8,5.9,3.3,8.7-2.8,12.1-9.3,5.2-18.7,10.1-28,15.3-5.4,3-10.3,3-15.9,0-26.9-14.4-39.7-40.2-35.5-70.8,1.3-9.3,1.7-18.8,1.3-28.2-.5-9.7-5.3-17.7-13.7-23.8,3.4-1.8,6.9-3.2,10.4-4.5,17.4-6.8,34.6-14,44.5-31.4Z"/>
  <path class="cls-75" d="M632,277.1c1,29.1-5.4,56.4-14.6,83.2-.5,1.6-.8,3.2-1.6,5.4-1.7,4.6-3,8.6-4.6,13.4,2.5-.5,4.1-.8,5.6-1.1.6,3.1,1.3,6.1,1.5,9.6-1.9.8-3.3,1.4-4.8,1.4-4.7,0-7,2.3-8.1,6.8-2.1,8.9-4.7,17.6-7.1,26.5-.6,2.4-1,4.9-1.6,8.5,12.4-7.4,25-10.3,37.9-11.8,5.9,1,11.9,1.5,17.6,3.3,8.1,2.5,13.8,8.4,18.3,15.9,8.3,21.8,4.9,41.7-8.9,59.9-9.5,12.4-22.1,18.8-37.8,16.3-18-2.8-31.2-12.4-36.8-30.3-2-6.4-2.3-13.4-3.4-20.9,0-3.5,0-6.2,0-10.1-2.3,2.1-3.6,3.1-4.7,4.3-11.6,12.9-23.2,25.7-34.7,38.6-.7.8-.9,1.9-1.4,2.9,0,0,0,0-.3-.1-.8.3-1.4.8-1.9,1.2-11.4,11.5-22.8,23-34.8,34.4-4.3-3.4-7.6-.2-10.8,1.1-.5.2.5,3.9.9,6,0,.5.3.9.5,1.4-2.1,1.6-4.1,3.2-6.8,4.9-4-1.3-7.4-2.8-10.8-4.2,12.3-10.7,24.6-21.3,37-32.3,11.5-12.7,22.6-25.2,34.1-37.3,10.5-11.1,21.4-21.7,31.9-32.8,1.8-1.9,3.2-4.5,3.9-7.1,1.3-4.8,2-9.7,3-15.4,2.4-9.3,4.7-17.8,7.2-26.8-7,.4-13.2.8-19.5,1.2-14-1.3-28.1-1.7-41.9-4.1-16.5-2.8-30.8-10.8-43-23.5-10.8-12.7-16.6-26.7-17.8-42.7,3.1.3,6.3.5,9.8,1.3,2.3,13.4,6.5,25.2,16,34.6,8.9,10.6,20.7,16.7,33.8,19.6,10.3,2.3,20.9,2.9,32.3,4.3,10.1-.3,19.2-.6,28.3-1,3.9-.1,6.1-1.6,7.4-5.7,7.3-23.1,16.5-45.7,18.6-70.4.8-7.6,1.2-14.9,1.7-22.7-.2-12.5-1.9-24.4-6.8-35.5-7.4-16.6-19.8-26.4-38.4-25.8-33.2,1.1-58.4,16.8-76.9,44-3.6,0-7.3,0-11.4,0,19.5-32.6,47.9-51.8,86.5-53.9,23.4-1.2,41.9,11.2,49.8,33.3,3.6,10,4.9,20.9,7.3,31.9M624.4,430.8c-9,3.8-18,7.4-26.8,11.5-1.6.7-3.3,3.4-3.2,5.1.3,10.7-.5,21.8,2,32.1,6,24.9,37.5,33.8,54.4,15.9,11.7-12.4,16.6-27.4,13.3-44.5-2.3-12.4-10.1-19.9-22.5-21-5.4-.5-10.9.4-17.2.8Z"/>
  <path class="cls-54" d="M1018.6,426.4c-.8-3.1-1.3-6.3-1.7-9.9,9.6-4,19.2-7.5,29.5-11.3-1.7-8-3.6-17.2-5.6-26.4-2.1-9.7-4.3-19.5-6.4-29.2-1.7-8.1,2-14.4,10.1-16.1,26.1-5.8,52.3-11.4,78.5-16.9,6.3-1.3,12.6,2.9,14.1,9.6,4.4,19.6,8.6,39.3,12.9,58.9,1.2,5.7,2.6,11.3,3.8,17,2.1,10.2-1.8,15.8-12,18-24.5,5.3-49,10.7-73.6,16-9.4,2.1-15.1-1.5-17.3-10.7-2.3-9.6-2.4-10-12.1-7.1-6.8,2-13.2,5.2-20.2,8.1M1125.4,403.6c4-8.1-.3-14-5.5-19.5-8.3-8.8-8.2-10,2.6-16-1.5-3.2-2.9-6.5-4.7-9.6-.5-.8-2.3-1.4-3.4-1.2-6.3,1.2-12,3.7-16.4,8.8-4.8,5.5-5.1,11.9-.7,17.8,2.1,2.8,4.6,5.3,6.9,7.9,4.6,5.1,3.9,9.4-2.4,12.1-3.6,1.5-3.6,3.2-2,6,.8,1.4,1,3.4,2.2,4.4,1.3,1.2,3.6,2.6,5,2.2,7.5-1.8,13.9-5.3,18.4-12.9M1068.1,379.3c1,6.7,2.3,13.5,3,20.2,1,9.8.5,9.5-8,14.5-2,1.2-2.2,5.6-2.6,8.7,0,.6,2.9,2.2,4.5,2.3,14.9.9,24-7.6,23.1-22.4-.6-10.3-2.2-20.5-3.7-30.7-.9-6.6-1.1-6.6-7.9-5.3q-10.2,1.9-8.4,12.7Z"/>
  <path class="cls-83" d="M711.4,874c-.5-.4-.7-1.3-.9-1.3-4.5-.3-9-.6-13.6-.7-1.6,0-3.2.9-4.8.9-7.9-.2-15.7-.7-23.6-.9-2.3,0-4.6.9-6.9.9-7.5-.2-15.1-.7-22.6-.8-3.1,0-6.3.3-9.4.5-1.7.1-3.5.8-4.9.2-5.5-2.1-10.8,0-16.2,0-1,0-2,.1-3,.1-9.4,0-18.8.2-28.2,0-13.2-.4-26.3-1.2-39.5-1.8-.7,0-1.3,0-2,0-4.4.3-8.7.5-13.1.8-7.1.5-14.3,1.4-21.4,1.6-5.9.1-11.9-.7-17.8-.9-7-.2-14-.2-21.4,0-7.7-6.4-12.3-15.2-13-24.7-1.3-17.7-1-35.5-1.2-53.8,3,7.8,4.7,16.7,9,24.2,8.6,15.2,23.5,23.2,39.1,29.6,28.9,11.8,59.2,15,90.1,13.3,34.4-2,67.8-8.7,99.2-22.7,16.5-7.3,31.9-17.1,48.4-25.6,2.8.2,5,0,7.3,0,7.4.2,14.7.6,22.1.7,7.3.1,14.7,0,22,.1-20.7,24.6-45.1,44.6-73.7,60Z"/>
  <path class="cls-15" d="M644,46.1c12.8,3,25.7,6.1,38.8,9.9.2,59,.2,117.3.2,175.6-12.8-1-25.5-2-38.6-3.7-.4-61.1-.4-121.4-.4-181.8Z"/>
  <path class="cls-37" d="M1461.1,356.3c-10,17.8-27.1,25-44.5,31.8-3.5,1.4-7,2.7-10.7,4.3-5.8,1.4-11.4,2.5-17.8,3.8-24,5-47.4,7.2-71.1,6.9-8.2-.7-16.4-1.3-24.6-2.1-3.2-.3-4.7.7-5.7,3.8-2.6,8.2-5.5,16.2-8.5,25.1-6.8,15.6-13.4,30.5-20.1,45.3-2.3,5.1-5.2,9.9-7.9,14.9,0,0,0,0-.2,0-.4.2-.6.4-.7.6-8.1,10.1-15.5,20.8-24.6,30-8.9,9.1-19.4,16.6-29.7,25.2-2.6.9-4.7,1.6-6.8,1.8-3.4.3-4.6,2-4.3,5.2-12.3,5.3-24.4,11.3-36.9,15.8-20.7,7.4-42.1,11.9-65.1,11.3-7-1.1-13.1-2.2-19.4-3.4-3.2-.9-6.2-1.7-9.2-3-.3-3.9-.6-7.3-.9-10.7,13.7,5,27.9,8,42.5,6.9,21.4-1.5,41.9-7.2,61.7-15.1,24.1-9.6,45.4-23.6,63.1-42.7,4.7-5.1,8.9-10.8,13.4-16.5,4.1-6.2,8.5-11.8,12-18,11-18.8,19.6-38.7,26.4-60.1,2.4-6.3,4.4-12.1,6.7-18.4-6.7-1.5-12.9-2.8-19-4.1-.4-4.1.4-7.5,5.7-8.9,4.3.8,7.9,1.3,11.3,2.4,4.8,1.6,6.8,0,6.7-4.9,2.1-5.9,4.2-11.8,6.5-18.1,1.7-3.6,3.4-6.8,4.8-10.1,7.4-16.5,16-32.1,31.1-43,2.8-2,6-3.6,9.3-5.4-.3,4.1-1,8.2-2.2,12.8-2.9,2.3-5.4,3.9-7.5,6-11.1,10.8-17.8,24.3-23.5,38.4-3.5,8.6-6.5,17.3-10,27,10,.6,18.9,1.1,27.7,1.7,36.4.5,71.8-4.4,105.5-18.9,7.2-3.1,13.9-7.7,20.2-12.6,3.3-2.6,5-7.2,7.4-11.6.6-6.1-2.3-9.7-6.2-13-2.9-2.1-5.7-3.9-8.6-6-11.1-4.8-22.1-9.3-33-13.8.5-3.1,1.1-6.2,1.8-9.6,15.5,4.1,30.2,10,44.1,19.2,5.6,5.6,10.7,10.8,12.1,18.3-.3,3.7-.6,7.4-.9,11.5Z"/>
  <path class="cls-53" d="M594.9,646.7c2.9-5.7,6.9-8.8,14-8.2,7.7.7,15.5,0,23.7.4.5,55.3.4,110.2.5,165,0,3.3.8,6.6,1.2,9.8-12.4,2.2-24.8,4.4-37.7,6.1-.8-3.6-1.4-6.7-1.4-9.8-.1-54.4-.1-108.9-.2-163.3Z"/>
  <path class="cls-82" d="M643.6,46c.4,60.5.4,120.9.4,181.8-3.9,1.1-6.3-.4-8.6-3.8-11-16.8-22.4-33.5-33.4-50.8.5-2.4.9-4.2.9-5.9-.3-30.4-.7-60.8-.9-91.2-.1-11,0-22,0-32.9,13.7.9,27.5,1.8,41.6,2.9Z"/>
  <path class="cls-24" d="M1579,588.1c-6.7,3.1-13.5,6.3-20.4,9.5-4-5.5-7.8-10.7-11.3-16.3,1.1-2.3,2.4-4.1,2.6-6.1.9-10.7,1.4-21.5,2.1-32.2,1-16,2.1-32,3-48.1.8-13.9,1.3-27.8,2-41.7.3-5.8.7-11.6,1-17.3,1-14.4,1.9-28.7,2.9-43.1.6-9.1,1.4-18.1,2.1-27.2,9.5,5,18.9,10,28.6,15.7,0,2.8-.6,4.9-.7,7-.7,10.7-1.3,21.5-2,32.2-1.3,21.6-2.7,43.3-4,64.9-.8,13.7-1.3,27.5-2,41.2-.3,5.8-.7,11.6-1,17.4-1,14.7-1.9,29.4-2.9,44.1Z"/>
  <path class="cls-84" d="M683.4,231.7c-.4-58.4-.4-116.7-.4-175.5,13.3,5,26.6,10.5,39.7,16.5-.7,2.1-1.6,3.7-1.7,5.4-.2,3.8,0,7.7,0,11.5.3,48.4.7,96.8,1,145.2-12.7-1-25.4-2-38.6-3.1Z"/>
  <path class="cls-3" d="M634.6,813.6c-.8-3.2-1.6-6.5-1.6-9.8,0-54.8,0-109.6,0-164.9,12.7-.6,25.4-.8,38.5-.5-.2,2.6-1.4,4.8-1.4,7,.3,51.9.6,103.9,1,155.8-12,4.1-24,8.2-36.5,12.4Z"/>
  <path class="cls-47" d="M594.6,646.8c.3,54.2.4,108.7.5,163.1,0,3.1.6,6.2,1,9.8-10.9.9-21.8,1.5-32.7,1.9-3.5.1-7-.5-10.9-1.2-.1-2.5.5-4.4.5-6.4,0-32.4.1-64.8,0-97.2,0-4.4-1.7-8.8-2.6-13.2,14.7-18.9,29.3-37.8,44.3-56.8Z"/>
  <path class="cls-96" d="M1562.9,365.4c-.4,9.3-1.2,18.4-1.8,27.4-1,14.4-2,28.7-2.9,43.1-.4,5.8-.8,11.6-1,17.3-.7,13.9-1.3,27.8-2,41.7-.9,16-2,32-3,48.1-.7,10.7-1.2,21.5-2.1,32.2-.2,1.9-1.5,3.8-2.7,5.8-8.9-11-19.1-6.4-30.2-2.1,2.6-8.1,4.7-15.1,7.1-22.1,1.6-4.8,1.4-9.1-1.9-13.8.2-1.9.7-3,.8-4.1,1-12.9,2.1-25.7,3-38.6,1.1-16.2,2.1-32.4,3-48.6.8-13.9,1.3-27.8,2-41.7.3-5.8.7-11.6,1.1-17.3.9-13.5,1.9-27,2.9-40.6,7.5,3.5,15.1,7,22.6,10.6,1.7.8,3.4,1.7,5.3,2.8Z"/>
  <path class="cls-6" d="M1316.8,403.4c23.8,0,47.3-2.3,70.9-7.2-2.1,13.4-4.6,26.9-7.1,40.4-3.1,16.6-6.4,33.1-9.5,49.7-1.4,7.3-3.5,8.9-11,7.4-16.6-3.3-33.1-6.5-49.7-9.7-7-1.3-8.6-3.2-7.3-10.1,2.7-14.3,5.5-28.6,8.3-42.9,1.8-9.1,3.5-18.2,5.4-27.6Z"/>
  <path class="cls-28" d="M1534.7,352c-.6,13.7-1.6,27.2-2.6,40.7-.4,5.8-.8,11.6-1.1,17.3-.7,13.9-1.3,27.8-2,41.7-.9,16.2-1.9,32.4-3,48.6-.9,12.9-2,25.7-3,38.6,0,1.1-.6,2.2-.9,3.8-9.2-4.9-19.5-5.8-29.7-6.4-5.5-.3-8.7,4.2-10.7,9.3-6.5-13-9.7-14.8-21.2-12.5-.5-1.9-.5-3.4-.6-4.8,5.7-1.6,11.6-2.6,16.9-5.1,9.2-4.3,17.9-9.4,26.8-14.3,9.6-5.4,13.5-15.5,7-23.5-12-14.6-13-30.4-9.8-47.8,2.6-14.2,1.4-28.5-1.9-43,.9-1.4,1.9-2.3,1.9-3.2.8-11.9,1.3-23.7,2.1-35.6.4-5.7,1.4-11.4,2.1-17.2,9.7,4.4,19.5,8.9,29.5,13.5Z"/>
  <path class="cls-96" d="M722.4,234.9c-.8-48.5-1.1-96.9-1.4-145.3,0-3.8-.2-7.7,0-11.5.1-1.7,1-3.3,2-5.1,12.2,7.5,24,15.3,35.9,23.8.1,47.5.1,94.3,0,141-12-.9-24.1-1.9-36.6-2.9Z"/>
  <path class="cls-3" d="M1579.4,588.1c.6-14.7,1.6-29.3,2.5-44,.4-5.8.7-11.6,1-17.4.7-13.7,1.2-27.5,2-41.2,1.3-21.6,2.7-43.3,4-64.9.7-10.7,1.3-21.5,2-32.2.1-2.1.6-4.2,1-6.8,9.4,4.9,18.9,10.2,28.2,16-.8,6-1.7,11.5-2.1,17.1-1.1,16.2-2.1,32.4-3,48.6-.8,13.7-1.3,27.5-2,41.2-.3,6-.7,11.9-1.1,17.9-.9,17.4-1.9,34.7-2.8,52.1-9.8,4.6-19.6,9.1-29.7,13.7Z"/>
  <path class="cls-2" d="M747.9,747c-10.9,12-22.6,23.1-36.6,31.5-1.7,1-3,2.5-5,3.4-.7-2.3-1.3-4.2-1.4-6.2-.4-39.6-.7-79.1-1-118.7,0-6.3,0-12.6,0-19,13.7-.2,27.4-.5,41.5-.2.5,34.9.4,69.3.5,103.7,0,1.8,1.2,3.6,1.9,5.4Z"/>
  <path class="cls-44" d="M703.5,638c.5,6.4.4,12.7.5,19.1.3,39.6.6,79.1,1,118.7,0,2,.6,3.9,1,6.3-11.4,6.7-22.8,12.9-34.6,19.1-.7-51.9-1.1-103.8-1.4-155.7,0-2.2,1.2-4.4,1.9-6.9,10.4-.5,20.8-.6,31.6-.6Z"/>
  <path class="cls-69" d="M1609.5,574.3c.6-17.3,1.5-34.6,2.4-52,.3-6,.8-11.9,1.1-17.9.7-13.7,1.3-27.5,2-41.2.9-16.2,1.9-32.4,3-48.6.4-5.5,1.3-11,2.4-16.8,9.2,5.1,17.9,10.4,26.6,15.7,1.4.8,2.9,1.4,4.5,2.8-.4,5.4-1.3,10.1-1.6,14.9-.8,13.7-1.4,27.5-2.1,41.2-.3,6-.7,11.9-1.1,17.9-1,14-1.9,28.1-2.9,42.1-.6,8.9-1.3,17.8-2,26.7-10.7,5.1-21.4,10.1-32.5,15.3Z"/>
  <path class="cls-31" d="M687,440.4c3.4-4.7,6.9-9.1,10.4-13.4,15.2-18.5,33.6-32.8,56.7-41.9,6.1-1.2,11.4-2.2,17.2-3.2,7.8,1.1,15.1,2.1,22.4,3.1,7.3,3.8,14.8,7.2,21.8,11.5,7.5,4.7,14.5,10.4,22,15.7,6.6,7.1,13.2,13.9,19,21.3,6.5,8.2,11.2,17.5,13.7,27.9,3.4,13.8.1,25.8-8.2,37.3-15.3,17.8-35.5,25.5-57.5,29.8-27,5.2-53.9,5.1-80.3-3.4-12-3.9-23-9.7-31.9-18.8-15.7-16.2-18.5-38-8.1-59.5.9-1.9,1.8-3.9,2.6-6.2M839.5,505.1c23.6-15.8,28.5-34.5,14.2-57.8-15.4-25.1-37.5-42.5-65.1-52.6-10.9-4-22-4.2-32.7.4-26.9,11.5-48,29.5-62.1,55.3-4,7.3-5.9,15.2-5.4,23.5.9,16.7,10.8,27.4,24.5,35.1,14.8,8.3,31.1,11.6,47.9,12.3,27.3,1.2,53.8-2.2,78.7-16.3Z"/>
  <path class="cls-25" d="M601.6,43.1c.5,11,.4,22,.5,33,.3,30.4.7,60.8.9,91.2,0,1.8-.4,3.6-1,5.6-12.6-18.5-24.9-37.3-36.9-56.2-7.7-12-15.3-24.2-22.6-36.5-7.8-13.2-5.7-19.7,8.4-26.3,15.9-7.4,32.8-10.4,50.7-10.9Z"/>
  <path class="cls-63" d="M759.4,237.9c-.4-46.8-.4-93.6-.3-140.9,14.3,10.8,26.7,23.9,37.6,38.9-.4,2.4-.7,4.2-.7,6,0,32.9,0,65.9,0,98.8-12-.9-24.1-1.9-36.6-2.9Z"/>
  <path class="cls-41" d="M748.2,746.8c-1-1.7-2.2-3.5-2.2-5.3-.1-34.4,0-68.7,0-103.6,21.9-.4,43.8-.4,67.1-.4-2.8,8.7-5,17.6-8.6,26-13.3,31.2-33.9,57.7-56.3,83.3Z"/>
  <path class="cls-64" d="M550,703.8c1.2,4.2,2.8,8.6,2.9,13,.2,32.4.1,64.8,0,97.2,0,2-.6,3.9-.9,6.3-17.4-1.2-34-5.2-49.5-13.5-1.2-.6-2.3-1.2-3.5-2-11.7-7.5-13.2-13.2-5.3-24.5,13.6-19.3,27.6-38.2,41.6-57.3,4.7-6.4,9.6-12.7,14.7-19.3Z"/>
  <path class="cls-11" d="M1642.4,559c.3-8.9,1-17.8,1.6-26.7,1-14,2-28.1,2.9-42.1.4-5.9.8-11.9,1.1-17.9.7-13.7,1.3-27.5,2.1-41.2.3-4.8,1.2-9.5,1.9-14.6,11.2,6.5,22.4,13.4,33.7,20.9,0,1.7-.6,2.9-.6,4-.7,13.6-1.4,27.2-2.1,40.8-.3,6.1-.7,12.3-1.1,18.4-.9,13.5-1.9,27.1-2.8,40.6-12.1,5.9-24.2,11.8-36.7,17.8Z"/>
  <path class="cls-4" d="M1459.6,528.1c.4,1.6.5,3,.5,5-19.2,6.2-38.4,12-56.7,17.5-3-5.5-5.4-10.1-7.9-14.5-.4-.7-1.1-1.5-1.8-1.7-6.1-1.9-6.4-6.7-6.3-11.8.2-21.8-.7-43.7.8-65.5,1.2-16.3,5.5-32.4,8.4-48.6.5-2.6,1.1-5.2,1.7-8.1,8.6,4.3,11.8,11.7,11.9,20.2.1,7.4-.5,15-1.6,22.4-5.6,35.8,11.6,68.4,44.6,83.4,1.9.9,4.1,1.2,6.5,1.9Z"/>
  <path class="cls-92" d="M1140.2,495.1c-8.5,15.2-24.4,22.5-40.1,18.7-16.1-3.9-27.6-17.3-27.8-34.1-.2-14.8,6.5-26.4,20-33.1,13-6.5,25.9-5.4,37.5,3.5,12,9.2,16.4,21.8,13.4,36.7-.5,2.7-1.9,5.3-3,8.3Z"/>
  <path class="cls-52" d="M785.4,813.8c-7.6.2-14.9.2-22.3,0-7.4-.1-14.7-.5-22.1-.7-2.2,0-4.5,0-6.9-.2,13.5-12.2,28.4-23.1,40.8-36.4,14.5-15.6,26.9-33.2,40.4-50.1,1.2.1,2.1.6,3.1.8,2,.3,4.1.5,6.1.7,1.2.1,2.5.5,3.7.4,7.7-.2,15.4-.5,23.1-.8,8.2-.3,16.4-.9,24.6-1,3.9,0,7.8.6,11.7.8,3.5.2,7.3,1.1,10.4.1,3.5-1.1,6.2-.4,9.5,0,5.3.7,10.7,0,16.1.1,3.7.2,7.4,1,11.2,1.8-3.8,1-7.6,2.3-11.4,2.3-20.4.2-40.7.3-61.1.2-7.3,0-14.5-.8-21.7-1.2-6,10.7-11.5,21.8-18.3,32.1-9.2,14-19.3,27.5-29,41.1-2.4,3.3-5.2,6.4-8,9.8Z"/>
  <path class="cls-80" d="M796.4,240.9c-.4-33-.4-66-.4-98.9,0-1.8.3-3.6.8-5.7,21.1,28.6,40.9,58,49.9,93.2,1.3,4.9,1.9,10,3,15.9-18.1-1.5-35.5-2.9-53.3-4.4Z"/>
  <path class="cls-42" d="M1390.3,546.1c2.4,9.3-1.6,16.9-4.6,24.7-1,2.6-2.5,5-3.7,7.4.3.5.4.8.7,1q9.4,5.4,3.1,14.7c-.3.4-.5.8-.8,1.3-5.3,7.4-3.3,7-11.4,2.9-3.5-1.8-5.3-1-7.9,1.6-5.4,5.4-11.3,10.2-17,15.3-2.3,2.1-4.7,2.1-7.1.1-3.2-2.5-6.5-5-10.1-7.7,6.6-7.1,12.7-13.8,19.1-20.7-3.9-2-7-3.7-10.3-5.3-2.6-1.3-3.1-2.9-1.1-5.1.1-.1.2-.3.3-.4,7.4-10.4,4.1-8.3,15.9-6.1,2.4.4,5.4,3.3,7.3-1,1.1-2.5,2-5.1,3-7.6-2.7-.2-5.4-.4-8-.6-6.3-.6-11,2.5-15.7,6.1-2.6,2-5.6,3.7-8.6,4.9-1.4.6-4,.2-5.2-.8-3.1-2.8-5.6-6.1-8.4-9.2-1.8-2-1.8-3.3.5-5.3,7-5.8,13.9-11.9,20.5-18.1,2.7-2.5,4.7-2.9,6.8.2,2.2,3.2,5.2,4,9,3.7,7.6-.7,15.3-.9,22.9-1.4,4.6-.3,8.6.6,11.2,5.4Z"/>
  <path class="cls-88" d="M1679.4,541.1c.6-13.5,1.5-27,2.4-40.6.4-6.1.8-12.2,1.1-18.4.7-13.6,1.3-27.2,2.1-40.8,0-1.1.5-2.3.9-3.8,11.5,6.9,22.9,14.2,34.2,22-.8,6.7-1.6,12.9-2.1,19.1-1.1,15-2,30-3.1,45-11.7,5.8-23.5,11.6-35.6,17.4Z"/>
  <path class="cls-33" d="M812.2,586.1c-3.9,4.1-7.6,7.9-11.3,11.8-1.9,2-3.8,2.3-6.1.7-3.5-2.3-7-4.4-10.7-6.5-2.6-1.5-2.4-2.9-.7-5.1,5.1-7.1,10.2-14.3,14.9-21.8,2-3.1,3.8-4.6,7-1.9,2.5,2.1,5,1.8,7.8.6,7.2-3.1,14.4-6.1,21.6-9,8.4-3.4,13.5-.7,15.5,8,2.6,11.3.7,22.2-2.5,33-3.9,13.1-9.8,25.4-17.6,36.7-2.3,3.4-4.9,4.5-8.8,2.8-3.6-1.6-7.4-2.6-11.7-4,8.7-17,15.7-33.7,17.9-53-6,1.9-11.4,2.9-15.3,7.7Z"/>
  <path class="cls-60" d="M1415.4,557.4c16.3-4.8,32.3-9.4,48.2-14.3,4.1-1.3,6.2-.5,7.5,3.6,1.3,4.1,3,8.1,4.8,12,1.9,4,.9,6.1-3.4,7.3-9.9,2.7-19.7,5.7-30.6,8.9,3.5.6,6,1.1,8.6,1.5,2.8.4,4.1,1.7,3.6,4.7-2.1,12.8-4,25.6-6.3,38.3-.2,1.1-2.6,2.6-3.9,2.4-5.3-.5-10.5-1.6-15.8-2.4-3.7-.6-3.2-3.1-2.8-5.6,1.8-11,3.7-21.9,5.5-32.9.2-1.1,0-2.2,0-4-6.6.9-12.9,1.8-19.3,2.7-7.8,1.1-8,1-9.7-6.6q-2.6-11.6,8.8-14.4c1.4-.4,2.9-.7,4.7-1.2Z"/>
  <path class="cls-22" d="M1052.2,562.4c.3,3.9.6,7.3.9,11.6.4,3.9.7,6.9,1,9.3,2.7-2.1,5.6-4.4,8.5-6.6,6.1,1.1,12.2,2.2,18.7,3.3q9.1,4.1,4.7,13-6.3,12.6-18.9,7.1c-3.6-1.6-7.3-3-11.9-4.8.8,9.8,1.6,18.6,2.3,27.5,1.1,14.3,2.9,11.7-10.9,13.3-.7,0-1.3,0-2,0-8.9.4-8.8.4-9.5-8.6-1.7-21.2-3.5-42.4-5.3-63.6,0-.7-.3-1.3-.6-2.7.5-3.8-2.2-8.1,3.2-9.2,4.4-.3,8.9-.3,13.2-.9,4.3-.6,6.1,1,6.2,5.1,0,2,.3,3.9.5,6.3Z"/>
  <path class="cls-57" d="M1196.9,344.9c-2.3,2.2-4.7,4.1-7.5,6.1-10.3-10.5-20.4-21.1-30.3-31.9-17.8-19.4-35.7-38.6-58.6-52.4-21.6-13-44.8-19.6-70-16.7-15.3,1.8-30.4,5.2-46.1,7.6-1.3-3.3-2.2-6.2-3-9.2,13.2-2.6,26.3-5.7,39.6-7.8,23.3-3.6,46-.8,67.7,8.6,27.2,11.8,48.3,31.3,68.2,52.6,13.3,14.2,26.5,28.5,40,43Z"/>
  <path class="cls-60" d="M716,540c.8-3.7,3.2-3.4,5.6-2.8,11.1,2.9,22.2,5.8,33.2,8.9,8.5,2.4,11.5,8.5,8.1,16.6-11,26.2-31.1,41.6-58.5,47.8-1.6.4-4.2-.9-5.3-2.3-2.1-2.5-3.3-5.7-5.1-8.6-2-3.2-.8-4.7,2.4-5.8,13.7-4.7,24.9-13.1,34.4-24,.3-.4.7-.8,1-1.1,4.7-5.9,4.4-6.8-3-8.9-4.3-1.2-8.6-2.6-13-3.6-3.3-.7-3.9-2.3-2.9-5.4,1.2-3.5,2-7,3.1-10.9Z"/>
  <path class="cls-79" d="M967.3,564.8c6.2.8,11.9,1.6,17.6,2.3.9,14.7,3.9,18.8,17.3,23.2-4.5,12.3-11.9,22.5-21.1,31.5-4.8,4.8-10.3,9-15.6,13.2-1.2,1-3.8,1.8-4.8,1.2-4.1-2.5-7.9-5.5-11.4-8.8-.5-.5.4-3.3,1.3-4.5,7.3-9.9,14.8-19.7,22.1-29.5,1.5-2.1,2.6-4.5,4.3-7.6-7.1-.9-13.5-1.8-19.8-2.6-6.6-.8-13.2-1.6-19.8-2.2-3.4-.3-4.8-1.6-4.1-5.1.7-3.6,1.3-7.2,1.5-10.9.2-3.6,1.8-4.6,5.1-4.1,9,1.3,18.1,2.5,27.6,3.8Z"/>
  <path class="cls-55" d="M352.9,407.5c4.3-.6,8.6-1.2,12.9-1.9,0-.2.1-.4.2-.6-1.7-.4-3.5-.7-5.6-1.6-.4-29.5-.4-58.5-.4-87.5,3,0,6.1-.1,9.5.3.5,24.6.5,48.6.5,72.7,0,30.6,0,61.3,0,91.9,0,4.3-.6,8.6-1,12.9-5-.3-10.1-.5-15.5-1.3-.1-16.2.3-31.9.4-47.6,0-8.6-.6-17.2-.8-25.7-.1-3.9,0-7.8-.1-11.7Z"/>
  <path class="cls-79" d="M871.8,275.9c-.3-18.6,12.2-30.3,31.6-31.9.9,3.2,1.7,6.5,2.7,10.4,5.4-1.2,10.7-2.3,16-3.6,2.7-.6,5.2-.9,5.9,2.5.7,3.3-1.7,4.2-4.4,4.8-5.2,1.1-10.3,2.4-15.9,3.8,1.5,6.5,2.9,12.7,4.5,19.5,5.6-1.2,10.9-2.3,16.2-3.6,2.8-.7,5.3-.7,6,2.5.7,3.3-1.8,4.2-4.4,4.8-5.2,1.2-10.3,2.4-15.9,3.7.7,3.7,1.4,7.2,2.1,10.6-17.9,7.2-32.6,2.5-42-13.9-1-3.6-1.8-6.6-2.5-9.6Z"/>
  <path class="cls-79" d="M1196.1,592c-4.6.6-8.7,1.2-12.8,1.9-2.7.4-4.1-.5-4.3-3.3-.3-3.6-.7-7.3-1.3-10.9-.5-2.9.4-4.3,3.4-4.7,17.1-2.4,34.3-4.9,51.4-7.2,8.5-1.1,12.7,2.2,13,10.8.5,15.5-3.5,30-11.8,43.1-.9,1.3-3.2,2.4-4.9,2.4-14.8,0-15-.4-11.6-14.5,1.6-6.6,2.6-13.2,4.1-21-9.1,1.2-16.9,2.3-25.2,3.4Z"/>
  <path class="cls-66" d="M369.4,493.9c-.1-4.3.5-8.6.5-12.9,0-30.6,0-61.3,0-91.9,0-24.1,0-48.1,0-72.7.8-.7,1.6-1,2.7-1.3,3,13.5,5.7,27.1,8.2,40.7,1.5,8.1,2.7,16.3,3.7,24.9-.8,2.4-1.6,4.2-1.6,6.1,0,35.7,0,71.5,0,107.2-4.4,0-8.7,0-13.5,0Z"/>
  <path class="cls-32" d="M527.3,181c-4.7-7.3-9.1-14.5-13.4-21.7-7.1-11.7-14.4-23.3-16.4-37.3-.2-1.6-.5-3.3-.5-4.9,0-14.8,0-29.6,0-44.8,4.3,22.7,18.4,40.9,30.4,60.2,8,12.8,16.3,25.5,24.4,38.3.5.8.9,1.7,1.3,2.7-8.6,2.6-17,5.1-25.8,7.6Z"/>
  <path class="cls-33" d="M1482.1,581.2c3.1-10.6,6-20.8,8.9-31,.9-3.2,2.2-4.6,6-3.6,5.9,1.6,11.9,2.4,18.4,3.6-4.9,15.1-9.5,29.4-14.3,44.4,2.8.1,4.7.3,6.6.3,1.5,0,4.1-.5,4.3,0,1.9,4.2,3.5,8.4,4.6,12.9.3,1.2-1.4,3.9-2.8,4.4-11.4,4.3-23.3,5.2-35.4,4.4-4.4-.3-5.6-3.1-4.2-8.2,2.5-9,5.1-17.9,7.8-27.2Z"/>
  <path class="cls-60" d="M562.6,575.5c1.7,6.3,3.1,12.3,5,18.2,1.1,3.6-.2,5.1-3.5,6.2-10.5,3.6-10.5,3.7-14-6.9-2.7-8.2-5.2-16.4-7.8-24.6-3.9,0-8.7,1.4-11.1-.4-2.2-1.6-2.3-6.6-2.6-10.2-.6-7.2,6.3-3.1,9.2-5.8-.1-.7-.2-1.7-.4-2.6q-1.7-7.7,6.3-9.4c1-.2,2-.4,2.9-.7,3.9-1.1,6.5-.2,7.2,4.2.4,2.1,1.2,4.1,1.9,6.5,5.7-.8,11.1-1.6,16.5-2.4,1.8-.3,3.6-.6,5.4-.6,7.4-.2,10.8,3.4,10,10.8-.8,7.3-4.3,13.2-9.1,18.5-3.9,4.3-6.9.2-10.1-1.2-3.2-1.4-3.4-3.6-1.8-6.5.6-1.1.8-2.5,1.4-4.5-2.8.4-5.2.7-8.1,1.2,1,3.6,1.8,6.8,2.8,10.3Z"/>
  <path class="cls-33" d="M981.2,248.2c1,3.2,1.9,6.2,2.8,9.5,1,20-12.2,31.8-31.6,33.3-4.3-18.4-8.6-36.9-12.9-55.3,17.6-7.2,32.1-2.7,41.6,12.5Z"/>
  <path class="cls-1" d="M306.9,442.5c1.3-.6,2.9-1,3.9-1.9,1.3-1.2,2.2-2.8,3.2-4.2-1.4-.5-2.8-1-4.6-2,0-8.1.3-15.7.6-23.2,6.7-.7,13.4-1.3,20.6-1.6.8,2.5,1.3,4.7,1.3,6.8,0,25.2,0,50.4,0,75.6-8.1-.6-16.1-1.2-24.6-2.4-.3-4.7-1.1-9.1,0-12.9,3.6-11.6,1.8-22.8-.6-34.1Z"/>
  <path class="cls-60" d="M900,575.9c-.6-5.6-1.1-10.7-1.8-15.8-.4-3.2.3-5.1,4-5.3,4.8-.3,9.6-1.3,14.4-1.3,1.6,0,4.3,1.7,4.6,3.1,6,26.3,5.3,51.8-10.8,75-2.3,3.4-4.8,4.1-8.4,2.9-3.9-1.3-7.8-2.5-12.6-4,10.2-17.1,12.8-35.2,10.7-54.6Z"/>
  <path class="cls-21" d="M1715.3,523.6c.7-14.9,1.6-29.9,2.7-44.9.5-6.2,1.3-12.4,2.3-18.8,17.7,11.2,35.1,22.6,53.2,34.5-19.9,10-38.9,19.6-58.2,29.2Z"/>
  <path class="cls-85" d="M348,403c-8.1-.4-16.2-.9-24.7-2-.4-6-.4-11.2-.4-16.5.6-.3,1.2-.6,2.3-1.3,1.3-2.5,2.7-4.7,2.7-6.9.3-9.4.1-18.8.1-28.1,0-10,0-20.1,0-30.1,6.3-.4,12.7-.8,19.5-.7.5,28.9.5,57.3.5,85.7Z"/>
  <path class="cls-78" d="M332.4,492c-.4-25.3-.4-50.5-.5-75.7,0-2.1-.5-4.2-.9-6.7,6.9-.9,13.9-1.4,21.4-1.9.5,3.8.5,7.7.6,11.6.3,8.6.9,17.2.8,25.7,0,15.7-.5,31.4-.8,47.6-6.7.1-13.4-.2-20.6-.6Z"/>
  <path class="cls-68" d="M327.5,318c.5,10.1.5,20.1.5,30.2,0,9.4.1,18.8-.1,28.1,0,2.2-1.4,4.4-2.6,6.7-6.4-.3-12.4-.7-18.9-1.6-.1-4.6.5-8.7.5-12.7,0-5.6-.6-11.1-.9-16.7,5.3-1,10.6-2.1,15.9-3.1,0-.3,0-.5,0-.8-9-.6-18-1.2-27.5-2.4-.1-8.3.2-16.1.5-23.9,10.7-1.3,21.4-2.5,32.6-3.8Z"/>
  <path class="cls-71" d="M306.5,442.6c2.8,11.2,4.6,22.5,1,34-1.2,3.8-.4,8.2-.5,12.8-11.7-.8-23.5-2-35.6-3.9-.7-12.6-1.1-24.5-1.4-36.5,12-2.1,24.1-4.2,36.5-6.5Z"/>
  <path class="cls-29" d="M1504.8,338.3c-.4,5.9-1.4,11.6-1.8,17.3-.8,11.9-1.4,23.7-2.1,35.6,0,.9-1,1.8-2,2.8-4.9-12.8-10.7-25-20.3-34.9-4.9-5.1-10.5-9.5-16.2-14.3-1.8-7.6-6.9-12.8-12.1-18.3,12.8-3.4,24.7,1.4,36.7,5.2,5.9,1.9,11.7,4.2,17.9,6.5Z"/>
  <path class="cls-60" d="M1294,606c-8.2,3.4-16.1,6.4-23.8,9.9-3.8,1.7-5.7.5-7.3-3-1.7-3.6-3.8-7-5.8-10.5-2.9-5.2-2.9-5.1,2.8-7.7,13-5.9,26-11.9,38.9-17.9,2.6-1.2,5-2.6,7.5-4q7-3.9,11,2.9c6.4,11,6.5,11.2-3.9,18.5-6.1,4.3-12.7,7.9-19.4,11.9Z"/>
  <path class="cls-90" d="M383.5,494c-.5-35.8-.5-71.5-.4-107.3,0-1.8.7-3.7,1.5-5.6,2.1,7.8,3.8,15.6,5.4,23.5,3.2,16.4,6.3,32.8,9.5,49.2,2.5,13.2,5,26.3,7.4,39.9-7.7.4-15.3.3-23.4.3Z"/>
  <path class="cls-22" d="M511.6,600.6c-10.4,7.2-20.6,14.1-30.7,21.1-3.1,2.1-5.3,1.6-7.5-1.5-2.5-3.5-5.5-6.7-8.3-10-2-2.3-1.6-3.9.9-5.7,16-11.4,32-22.8,47.9-34.3,2.4-1.7,3.8-1.3,5.4.8,2.6,3.3,5.5,6.3,7.8,9.8.7,1.1.5,3.9-.4,4.9-4.8,5.1-9.9,9.9-15.2,15Z"/>
  <path class="cls-30" d="M269.6,449.1c.8,12,1.1,24,1.4,36.4-11.3.5-41.5-5.1-48.8-9,5-.9,8.9-1.7,12.8-2.3,4.1-.6,8.2-.9,12.3-2.6-5.9-.8-11.7-1.6-18-3-.4-6.5-.4-12.3-.4-18.2,10.3-.2,20.6-.2,30.9-.5,3.1,0,6.2-.5,9.7-.8Z"/>
  <path class="cls-61" d="M348.4,403c-.4-28.5-.4-56.9-.4-85.8,3.7-.7,7.4-1,11.6-1.2.5,29,.5,58,.5,87.4-3.7.2-7.5-.1-11.6-.5Z"/>
  <path class="cls-95" d="M228.5,450.3c.5,6,.5,11.9.5,18.2-25.4-1.7-50.3-6.3-74.3-15.3-2.1-.8-4.1-2.3-6.1-3.4.2-.6.3-1.2.5-1.9,26.3.8,52.6,1.5,79.4,2.4Z"/>
  <path class="cls-31" d="M1086.2,280.2c4-1,8-2,12-3.1,6.2-1.6,5.5,3.6,6.7,6.7,1.4,3.7-1.3,4-3.9,4.5-4.4.9-8.7,1.9-13.5,3.3,6.2-.8,7.4,3,7.8,7.6.4,4.6.8,9.2,1.4,14.8-3,0-5.3-.2-7.5,0-2.8.3-3.8-1-4.2-3.6-.9-5.9-2.1-11.7-3.1-17.6-.5-.2-1-.4-1.5-.6-1.1,2.3-2.4,4.5-3.4,6.8-4.2,9.7-4.7,9.8-14,4-.1,0-.2-.3-.5-1,4.9-11.4,10-23.2,15.2-35.5,3.7,1.6,7,3,10.8,4.6-1,2.7-1.9,5.1-3,8,.1.6.4.7.7.8Z"/>
  <path class="cls-31" d="M1001.9,282.1c-.4,1.5-.7,2.5-1,3.7,2.1.2,3.8.4,5.8.7v10.1c-4.1,1.9-11.1-2.5-11.6,5.7-.8.2-1.3.5-1.7.4-9.6-1.8-9.8-1.9-6.7-11.3,2.6-8,5.8-15.9,8.9-23.7,1.7-4.5,5.2-5.6,9.9-5.8,4.4-.1,5.1,3,6.6,5.6,5.4,9.7,10.8,19.3,16.5,29.7-3.5,1.5-6.5,3-9.6,3.8-1.1.3-3.2-1.2-3.9-2.4-3.7-6.8-7.1-13.7-11.1-21.5-.9,2.2-1.5,3.4-2.2,5.1Z"/>
  <path class="cls-10" d="M294.5,321.8c.1,7.8-.2,15.6-.5,23.8-19.7,0-39.3-.9-59.8-3.2,3.3-5.6,7.8-7.9,12.5-9.3,12.6-3.6,25.3-6.8,38-10,3-.8,6.2-.9,9.8-1.3Z"/>
  <path class="cls-19" d="M824.5,299.2c5.9,15.5,1.5,29.3-7.5,42-3.9,5.5-10,8.5-17.5,8.4-.2-2.5,0-4.6.3-7.1.5-3.8.8-7.2,1.3-10.9.5-3.2,1-5.9,1.6-9.1.9-5.9,1.6-11.3,2.6-17,6.6-2.3,12.9-4.3,19.2-6.4Z"/>
  <path class="cls-86" d="M628.1,589.1c-5.7,4.1-11,8.1-16.4,11.8-3.3,2.3-6.4,2-9-1.6-2.5-3.3-5.4-6.3-8.1-9.4-2.1-2.3-2.2-4.2.7-6.1,9.7-6.2,19.2-12.6,28.9-18.6,1.1-.7,3.5-.4,4.7.4,2.6,1.8,4.7,4.2,7,6.4,5,4.8,5.1,5.1,0,10.1-2.4,2.3-4.9,4.5-7.6,6.9Z"/>
  <path class="cls-31" d="M1028.9,274.1c3.4-14.5,17.6-20.3,32.3-12.9,5.7,2.9,6,4.3,2.2,9.4-.8,1-1.7,2-2.6,3.1-5.5-3.1-11-7.2-16.7-1.3-3,3.1-3.8,7.4-1.2,11,4.6,6.5,10.9,5,16.9,2.4,4.9,7.7,3.8,10.6-4.4,12.8-15.9,4.3-29.8-8.3-26.5-24.5Z"/>
  <path class="cls-86" d="M660.1,607.1c-3.9-10.9-7.6-21.4-11.5-31.8-1.4-3.8-1.1-5.7,3.5-6.4,13.5-2.1,13.6-2.3,20.2,9.9,3.5,6.6,6.6,13.4,9.7,20.2,1.7,3.6.7,5.9-3.5,6.8-4.2.8-8.3,2.4-12.6,3.1-1.8.3-3.8-.9-5.8-1.7Z"/>
  <path class="cls-67" d="M1444,638.8c-19.3,4.2-32.2-2.3-40.9-21.1-2.6-5.7-4.5-11.8-6.4-17.8-1.4-4.3,3.2-9.9,7.6-10,4.8,0,9.5-.5,14.9-.8-1.2,7.8-2.4,15.3-3.7,22.7-1.9,10.9,1.2,15.5,12,17.5,5.2,1,10.4,1.8,16.1,3.2.4,2.4.4,4.4.4,6.3Z"/>
  <path class="cls-48" d="M686.4,362.1c-.4-3.4-.7-6.9-.9-10.7,15.5-8.3,30.8-16.2,46.7-24.4,8.7-4.3,16.8-8.3,25.1-12.2.2,0,.7,0,1,.1,3.8,1.8,7.3,3.5,10.8,5.2-12.9,6.5-25.7,12.9-39.2,19.6-14.9,7.6-29.2,15-43.5,22.4Z"/>
  <path class="cls-81" d="M277,378.9c-13.4-1.5-26.8-3-40.6-5.1-.4-5.8-.4-11-.4-16.2,13.4-.9,26.7-1.8,40.6-2.2.5,8.2.5,15.8.4,23.5Z"/>
  <path class="cls-86" d="M1183.9,553.3c-.4-3.6.8-5.4,4.2-5.6,2.1-.2,4.2-.8,6.6-1.5,8.8-1.7,17.3-3.1,25.8-4.8,3.8-.8,5.8.1,6,4.1,0,1.3.4,2.6.5,3.9,1.3,10.2,1.3,10.3-8.6,12.1-9.3,1.7-18.7,3.2-27.9,5-3.6.7-4.9-.7-5.4-3.9-.4-3-.8-5.9-1.3-9.3Z"/>
  <path class="cls-60" d="M875.6,560.9c6.7-1.1,7.8-.5,8.3,5.9.6,8.6.7,17.3,1.1,25.9.2,3.9-1.9,5.3-5.5,5.3-3.5,0-7,.7-10.5.3-1.7-.2-4.2-1.9-4.5-3.2-1.8-9.5-3-19-4.5-28.6-.5-3.1,1-4.3,3.8-4.5,3.8-.4,7.6-.8,11.9-1.2Z"/>
  <path class="cls-38" d="M322.4,384.5c.5,5.2.5,10.4.5,16.2-24.4-.6-48.7-1.8-73.1-2.9,0-.7,0-1.4,0-2.1,23.3-8.4,47.8-9.1,72.6-11.1Z"/>
  <path class="cls-92" d="M793.9,384.6c-7.4-.6-14.8-1.6-22.5-3.1-1.1-5.5-1.8-10.5-2.5-15.9,1.3-3.8,2.5-7.1,4.1-10.5,8.8-1.4,17.2-2.8,25.7-4.2-1.5,11.1-3.1,22.2-4.7,33.7Z"/>
  <path class="cls-35" d="M277.4,379c-.4-7.8-.4-15.4-.4-23.6,9.4-1.5,18.7-2.5,28.6-3.4.8,5.6,1.3,11.2,1.4,16.7,0,4.1-.6,8.2-.9,12.6-9.4-.5-18.8-1.4-28.6-2.4Z"/>
  <path class="cls-57" d="M1032.1,551.6c-5.2,1.4-2.5,5.7-3.1,9.1-23.4-15.7-37.8-37.7-44-65.3-.4-1.8-.6-3.6-1-5.8,3.5,1.1,6.9,2.6,10.7,4.3,5.5,23.9,18.3,42.6,37.4,57.7Z"/>
  <path class="cls-60" d="M1250.4,490c2.3-4.9,5.2-9.8,7.5-14.9,6.8-14.8,13.3-29.7,20.1-45,12.1,21.1,6.8,41.4-14.1,53.8-4.1,2.4-8.7,4.1-13.4,6.1Z"/>
  <path class="cls-71" d="M309.5,411.1c.1,7.6-.2,15.2-.6,23.2-10.4.2-20.7,0-31.5-.6-.8-6.8-1.1-13.1-1.5-19.5,11-1,22.1-2.1,33.6-3.1Z"/>
  <path class="cls-33" d="M1542.5,592.5c2.6,4.2,5.2,8.1,7.4,12.2,1.4,2.6.9,4.6-2.4,5.7-4.9,1.6-9.6,3.5-14.4,5.3-2.7,1-4.4.2-5.6-2.3-3.2-6.6-6.5-13.1-9.8-19.6-1.5-3-.7-4.6,2.5-5.4,1.6-.4,3.2-1,4.7-1.5q10.7-3.6,17.7,5.6Z"/>
  <path class="cls-76" d="M235.6,357.5c.4,5.3.4,10.5.4,16.1-21.1-2-42.2-4.1-62.2-11.5,0-.8,0-1.6,0-2.5,2.5-.4,5-1.1,7.6-1.2,17.9-.4,35.9-.7,54.2-1Z"/>
  <path class="cls-36" d="M745.3,595.3c6.2-6.2,6.3-6.5,13.8-2.7,5.1,2.6,9.9,6,14.8,9.1,2.4,1.5,2.4,3.3.5,5.3-3.7,4-7.4,8-11,12.2-2.1,2.4-3.8,1.9-5.8,0-4.7-4.4-9.5-8.8-14.4-13.1-4.5-4-4.5-4.1-.2-8.5.7-.7,1.4-1.4,2.4-2.4Z"/>
  <path class="cls-93" d="M133.3,411c-.4-16.9-.5-33.8-.5-50.6,0-2.3.3-4.6.7-7.2-2.7,26.9,13.4,43.5,35.5,49.8,1.6.4,3.1,1,4.7,1.5l.5,1.5c-1.9.7-3.8,2.1-5.7,2.1-5.3,0-10.7-1.1-15.9-.6-6.4.6-12.6,2.3-19.4,3.5Z"/>
  <path class="cls-36" d="M1247.7,557.2c-2.1-2.2-2.2-4,.3-5.5,1.8-1.1,3.6-2.4,5.4-3.6,9.1-6,9.1-6.1,18.1.3,3.2,2.3,6.2,5,8.9,7.9,2.3,2.3,2.1,4.6-.9,6.6-4,2.7-8,5.4-11.8,8.3-2.9,2.3-5.1,2.2-7.6-.7-3.9-4.5-8.2-8.7-12.5-13.3Z"/>
  <path class="cls-72" d="M757,314.7c-8.1,4-16.2,8-24.6,12,1.6-14.2,3.6-28.5,5.6-42.8.8-5.6,3-7.4,8.7-6.9,2.1.2,4.3.6,6.7,1.4,0,.8-.4,1.3-.8,1.4-2.7.5-6.8.1-7.7,1.7-1.3,2.1,0,5.6,0,8.9.7,2.5,1.3,4.5,2,7,.4,1.8.6,3.3,1.3,4.5,2.8,4.4,5.8,8.6,8.7,12.9Z"/>
  <path class="cls-91" d="M798.8,350.8c-8.6,1.5-17,2.9-26.2,4.1-2.7-.4-4.7-.9-6.6-.9-8.3,0-16.5,0-24.8,0,1.3-3.9,2.6-7.9,4.7-11.9,2.7.2,4.6.8,6.6.8,15.8,0,31.6,0,47.4,0-.2,2.1-.5,4.2-.7,6.6,0,.6,0,.9-.3,1.2Z"/>
  <path class="cls-74" d="M1016.4,564.9c3.1,9.6-.4,17.6-8.5,20.1-8,2.5-16.1-2-18.3-10.1-1.8-6.6,1.6-13.7,7.8-16.7,6.9-3.2,14.1-.8,19,6.7M1000.5,575.4c5.2,1.5,9-.8,7.8-4.9-.5-1.6-2.3-3.4-3.9-3.9-1.3-.4-4.3.6-4.6,1.6-.7,2,0,4.4.7,7.2Z"/>
  <path class="cls-73" d="M1444.4,638.8c-.4-2-.4-3.9-.4-6.2,9.2-.8,12.6-3.9,14-13.2,1.9-12.3,4.2-24.6,5.9-36.9.8-5.4,5-4.2,9-6.1-2.7,9.3-5.1,17.7-7.4,26.1-.7,2.5-1.4,5.2-1.6,7.8-.6,9.8,5,16.1,14.9,16.7,1.3,0,2.6.2,4.1,1.4-12.7,3.5-25.5,7.1-38.6,10.6Z"/>
  <path class="cls-81" d="M275.6,414.1c.7,6.3,1.1,12.6,1.4,19.4-10.4.4-20.7.4-31.5,0-.1-5.5.2-10.5.5-15.5,7.6-1,15.2-2.1,22.8-3.1,2.1-.3,4.2-.5,6.8-.8Z"/>
  <path class="cls-36" d="M453.5,568.1c1.8-.7,3.6-1.4,5.7-2.1,5,3.5,9.8,6.8,14.2,10.5,4.1,3.4,3.7,5.5-.6,8.4-3.6,2.4-7.1,5-10.8,7.1-1.2.7-3.7,1-4.4.3-5.1-5.1-9.9-10.6-15.2-16.3,3.6-2.5,6.5-4.4,9.5-6.7.2-.3.1-.2.4-.3.6-.3.9-.6,1.2-.9Z"/>
  <path class="cls-75" d="M871.4,275.9c1.1,3,1.9,6,2.6,9.4-16.2,4.7-32.5,9-49.3,13.1-1.3-3.2-2-6.2-2.7-9.2,16.3-4.4,32.7-8.8,49.4-13.2Z"/>
  <path class="cls-77" d="M745,290c-.1-2.9-1.3-6.5,0-8.6.9-1.5,5-1.1,7.7-1.7.4,0,.7-.6,1.2-1.3,11.9,1.5,23.7,3.3,35.5,5.2,4.7.7,9.5,1.4,14.2,2.4,1.1.2,2,1.5,2.6,2.6-2.9.7-5.6,1.3-8.2,1.3-17.7,0-35.3,0-53,0Z"/>
  <path class="cls-60" d="M478.6,543.5c3.8,1.6,7.2,3,11,4.5,5.9,4.2,6.1,4.3,1.7,9.6-3,3.7-6,9.3-9.7,10-3.7.7-8.4-3.6-12.9-5.9-2.1-2.8-7.6-2.5-6-8,2.2-2.6,4.4-4.7,6.2-7.1,2.5-3.3,5.4-4.7,9.8-3.2Z"/>
  <path class="cls-62" d="M245.6,418c.1,5-.2,10-.6,15.5-13.2,0-26.3-.3-39.5-.7-.1-.9-.2-1.8-.3-2.6,11.6-9.2,26-9.8,40.4-12.1Z"/>
  <path class="cls-7" d="M745,290.4c17.7-.4,35.3-.4,53-.4,2.6,0,5.2-.6,8.3-1,.5,1.3.6,2.7.4,4.6-4.4,2.1-8.5,3.7-12.8,4.8-1.8-.7-3.5-1.4-5.2-1.4-13.9,0-27.8,0-41.7,0-.7-2.1-1.3-4.1-2-6.6Z"/>
  <path class="cls-70" d="M543.3,499c0-1,.3-2.2,1-3,11.5-12.9,23.1-25.8,34.7-38.6,1.1-1.2,2.4-2.2,4.7-4.3,0,3.8,0,6.5-.1,9.6-9.5,16.7-23.3,28-40.3,36.3Z"/>
  <path class="cls-20" d="M794,298.8c4.1-1.5,8.2-3.1,12.6-4.8,5.1-1.7,9.9-3.2,15-4.8,1.1,2.9,1.8,5.9,2.7,9.2.2.3.2.5.1.6-6.4,2.2-12.7,4.2-19.6,6.5-3,1-5.4,1.8-8.1,2.3-3.5-.5-6.9-.4-10.1-1-2-.4-3.9-1.7-5.4-2.8,4.4-1.9,8.6-3.6,12.7-5.3Z"/>
  <path class="cls-74" d="M667.8,552c3.5.8,7.5,8.5,5.5,10.4-1.6,1.5-4.7,1.6-7.2,1.7-1.2,0-3.2-1.1-3.7-2.2-1-2.5-1.4-5.3-2.1-8.7,2.7-.4,4.9-.8,7.5-1.2Z"/>
  <path class="cls-70" d="M496.8,543.2c-.4-.7-.6-1.2-.7-1.6-.4-2.1-1.4-5.8-.9-6,3.2-1.4,6.5-4.5,10.5-1,.6,1.2,1.1,2.1,1.1,3.1,0,2.2.4,6-.3,6.2-3,1-6.7,4.3-9.7-.7Z"/>
  <path class="cls-36" d="M512.6,531.6c3-1.3,10.5.9,10.7,3.5.1,2.5-1.7,6.2-3.9,7.6-4.4,2.9-6.7-2.2-9.3-4.3-3.7-3,1-4.5,2.5-6.9Z"/>
  <path class="cls-74" d="M687.3,562.4c-2.1,1.1-4.8,3-5.6,2.4-2.7-2-5-4.7-6.7-7.6-.3-.6,2.7-3.9,4.7-4.8,5-2.4,6.5,3.1,9.5,5.1.3.2-1.1,3-2,4.8Z"/>
  <path class="cls-70" d="M541.1,500.1c.2-.5.7-.9,1.5-1.3-.2.5-.7.9-1.5,1.3Z"/>
  <path class="cls-60" d="M1249.3,490.6c0-.2.1-.4.5-.6,0,.2,0,.4-.5.6Z"/>
  <path class="cls-23" d="M619.8,306.1c-1.8,24.5-11,47.1-18.3,70.2-1.3,4.1-3.6,5.6-7.4,5.7-9.1.3-18.3.6-27.9.9-3.1-2.1-5.7-4.1-8.6-6.3,2.4-3.8,5.1-7.4,7.2-11.3,17.7-32.7,4.3-72.4-29.9-89.5-10.9-5.4-22.4-8.1-34.7-9.8,18.1-27.2,43.3-42.9,76.5-44.1,18.6-.6,31.1,9.1,38.4,25.8,4.9,11.1,6.6,22.9,6.5,35.7-.7,4.4-1.2,8.2-1.5,11.9-.2,3.6-.2,7.2-.3,10.8Z"/>
  <path class="cls-9" d="M514.4,451.4c-7.6,8.1-17.3,11-27.4,12.5-12,1.8-11.9,1.7-14.2-10.3-1.8-9.5-3.6-18.9-5.5-28.4-.6-3.1-.3-4.8,3.5-5.4,9.6-1.5,19.1-3.7,29-2,8.2,1.4,14.7,4.7,18.3,12.5,3.5,7.7,1.9,14.5-3.7,21Z"/>
  <path class="cls-39" d="M473.4,322.9c1.6,16,7.5,30,18,42.6-9.7,7-21.2,9-33,11.2-3.1-16.6-6.1-32.8-9.2-49.3,7.7-3.6,15.6-4.7,24.2-4.5Z"/>
  <path class="cls-89" d="M499.8,358.6c-9.6-9-13.8-20.9-15.7-34.1,16.8,4.3,23.8,19.3,15.7,34.1Z"/>
  <path class="cls-16" d="M576.7,393.5c6.1-.7,12.4-1.1,19.4-1.5-2.4,9-4.7,17.5-7.2,26.4-4.1-7.9-8.1-16.2-12.2-24.9Z"/>
  <path class="cls-58" d="M1259.1,395.2c6.1.9,12.2,2.3,19,3.7-2.3,6.3-4.3,12-6.7,18-4.3-6.9-8.3-14.1-12.3-21.7Z"/>
  <path class="cls-13" d="M1282.4,383.4c.6,5-1.5,6.5-6.2,4.9-3.4-1.1-7-1.6-11-2.4,4.9-3.7,10.9-2.9,17.2-2.5Z"/>
  <path class="cls-89" d="M686.4,362.4c14.3-7.7,28.6-15.1,43.2-22.5-1.3,12.6-3,25.3-4.8,37.9-.1,1-1.1,2.4-1.8,2.6-6.6,1.2-13.4,3.2-20,3-9.9-.4-13.7-8.1-15.9-16.7-.3-1.3-.5-2.6-.7-4.3Z"/>
  <path class="cls-16" d="M634.6,418.7c-12.8,1.8-25.3,4.7-37.8,12.1.7-3.6,1-6.1,1.6-8.5,2.3-8.8,5-17.6,7.1-26.5,1.1-4.6,3.4-6.8,8.1-6.8,1.5,0,2.9-.6,4.8-1,3.2,11.3,8.2,21.7,16.2,30.7Z"/>
  <path class="cls-97" d="M799.8,342.5c-15.9.4-31.7.5-47.5.4-1.9,0-3.9-.6-6.3-1.1,4.8-3.7,10-7.3,15.8-10.6,13.5.4,26.3.6,39.1.7-.4,3.4-.7,6.7-1.2,10.5Z"/>
  <path class="cls-8" d="M768.8,366c.7,5,1.4,10.1,2.1,15.5-5.4,1.4-10.7,2.4-16.5,3.4-3.9-6-7.3-12.1-10.4-18.5,8.5-.4,16.7-.4,24.8-.4Z"/>
  <path class="cls-94" d="M797.1,308.2c2.4-.8,4.8-1.6,7.5-2.4-.4,5.4-1.1,10.9-2.4,16.7-9.5.4-18.4.4-27.3.5-1.2-.8-2.5-1.6-3.7-3,8.6-4.3,17.2-8,25.8-11.8Z"/>
  <path class="cls-40" d="M768.9,365.6c-8.2.4-16.4.4-25,.4-1.3-3.7-2.1-7.4-2.8-11.6,8.3-.4,16.6-.5,24.9-.4,1.9,0,3.9.5,6.3,1-.8,3.5-2,6.9-3.3,10.6Z"/>
  <path class="cls-50" d="M774.9,323.3c9-.3,17.9-.3,27.3-.4,0,2.7-.5,5.5-1.1,8.7-12.9.2-25.7,0-38.8-.4,4-2.7,8.2-5.2,12.6-7.9Z"/>
  <path class="cls-65" d="M796.8,307.9c-8.3,4.1-16.9,7.8-25.7,11.8-.6.3-1,.3-1.8.3-3.8-1.7-7.3-3.4-10.9-5.5,7.4-3.7,15-7,22.5-10.3,1.9.9,3.8,2.2,5.8,2.6,3.2.6,6.5.5,10.1,1Z"/>
  <path class="cls-16" d="M616.9,377.5c-1.6.8-3.1,1.1-5.7,1.6,1.6-4.8,2.9-8.8,4.5-13,.6,3.5.9,7.2,1.2,11.4Z"/>
  <path class="cls-58" d="M1319,392.4c-8.9-.1-17.8-.7-27.8-1.3,3.6-9.7,6.6-18.5,10-27,5.7-14.1,12.4-27.6,23.5-38.4,2.1-2.1,4.6-3.7,7.3-5.7-4.1,23.9-8.6,47.9-13.1,72.4Z"/>
  <path class="cls-39" d="M1403.9,317.3c11.1,4.1,22.1,8.6,33,13.7-2.2,2.4-4.3,4.2-6.7,6.1-.6.4-.9.8-1.3,1.2-9.1-2.2-18.3-4.5-27.9-6.8.9-4.4,1.8-9.1,2.9-14.1Z"/>
  <path class="cls-13" d="M1429.2,338.5c0-.6.4-1,1.5-1.4,5.6,0,10.4-.1,15.2-.2,3.8,3.1,6.6,6.7,6,12.4-7.5-3.3-15-6.9-22.8-10.9Z"/>
  <path class="cls-87" d="M350.8,581.7c-2.3,10.5-4.7,20.5-6.8,30.6-.7,3.5-1.9,5.3-6,3.9-4.4-1.5-10.8-1.1-12.8-4-1.9-2.7.7-8.7,1.7-13.1,2.1-9.9,4.3-19.7,6.6-30.2-3.6-.9-6.9-1.8-10.3-2.4-2.8-.5-3.4-2-2.9-4.6,2.5-13.6,2.5-13.6,15.6-10.6,9.9,2.2,19.7,4.6,29.7,6.6,3.7.8,4.4,2.3,3.7,5.9-2.6,12.2-2.5,12.3-14.9,9.7-.3,0-.6,0-1.6,0-.6,2.5-1.2,5.2-1.9,8.3Z"/>
  <path class="cls-87" d="M373.1,626.1c-12.7-.7-13.6-2.2-10.8-16.9,2.3,0,4.7.2,7.1,0,5.7-.5,7.9-3.6,6.7-9.2-.8-3.6-1.8-7.1-2.6-10.7-2.8-12.8,3.8-21.5,16.9-22.4,1.2,0,2.3-.2,3.5,0,15.6,1,15.1,2,12.6,17.1-1.4,0-2.9,0-4.3,0-6.9-.3-9.5,2.7-7.9,9.5.6,2.6,1.5,5.1,2.2,7.7,3.8,13.8-3.1,23.7-17.5,25-1.8.2-3.7.1-6,.1Z"/>
  <path class="cls-9" d="M453.1,568.1c0,.2-.3.5-.9.9,0-.2.3-.5.9-.9Z"/>
  <path class="cls-51" d="M624.8,430.7c5.9-.4,11.4-1.2,16.7-.8,12.4,1.1,20.2,8.6,22.5,21,3.2,17.1-1.6,32.1-13.3,44.5-16.9,17.9-48.3,9-54.4-15.9-2.5-10.3-1.7-21.4-2-32.1,0-1.7,1.6-4.4,3.2-5.1,8.8-4.1,17.9-7.7,27.3-11.6Z"/>
  <path class="cls-7" d="M620.2,305.9c-.3-3.4-.3-7,0-10.6.3-3.7.8-7.5,1.4-11.4-.2,7.1-.6,14.4-1.4,22Z"/>
  <path class="cls-14" d="M1125.2,404c-4.3,7.2-10.8,10.8-18.2,12.5-1.5.3-3.7-1-5-2.2-1.1-1-1.3-3-2.2-4.4-1.6-2.8-1.6-4.5,2-6,6.4-2.7,7-6.9,2.4-12.1-2.3-2.6-4.8-5.1-6.9-7.9-4.4-5.9-4-12.2.7-17.8,4.3-5,10-7.6,16.4-8.8,1.1-.2,2.9.4,3.4,1.2,1.8,3.1,3.2,6.4,4.7,9.6-10.8,6-10.9,7.2-2.6,16,5.2,5.5,9.5,11.4,5.3,19.8Z"/>
  <path class="cls-14" d="M1068,378.9q-1.8-10.4,8.4-12.3c6.8-1.3,7-1.3,7.9,5.3,1.4,10.2,3,20.4,3.7,30.7.9,14.8-8.1,23.4-23.1,22.4-1.6-.1-4.6-1.7-4.5-2.3.4-3,.6-7.5,2.6-8.7,8.5-5,8.9-4.7,8-14.5-.7-6.8-2-13.5-3-20.7Z"/>
  <path class="cls-67" d="M1445.7,336.7c-4.7.3-9.5.4-14.8.4,1.7-1.8,3.8-3.6,6.1-5.7,3,1.5,5.7,3.3,8.7,5.3Z"/>
  <path class="cls-13" d="M1062.3,576.5c-2.6,2.4-5.5,4.6-8.2,6.8-.3-2.4-.6-5.4-.9-8.9,3,.4,5.9,1.2,9.1,2.1Z"/>
  <path class="cls-34" d="M839.2,505.3c-24.6,13.9-51.1,17.3-78.4,16.1-16.8-.7-33-4-47.9-12.3-13.8-7.7-23.6-18.4-24.5-35.1-.5-8.3,1.5-16.3,5.4-23.5,14.1-25.8,35.3-43.9,62.1-55.3,10.7-4.6,21.8-4.4,32.7-.4,27.7,10.1,49.7,27.5,65.1,52.6,14.3,23.3,9.4,42-14.5,58M717.4,471c-3.1.6-6.2,1-9.2,1.9-1.2.4-2,1.8-3,2.7,1,1,1.9,2.5,3.1,2.9,3.5,1,7.1,2.3,10.6,2.2,6.9-.3,13.7-1.4,20.5-2.5.9-.1,2.3-1.8,2.3-2.7,0-.8-1.5-1.9-2.5-2.5-2.3-1.2-4.8-2-7.1-3.8,1.6-4.1.5-7.5-3-9.9-3.1-2.1-6.3-1.8-9.2.5-3.8,3.1-3.6,7-2.5,11.2M802.9,470.1c2.1-5.9.2-10.6-4.9-11.9-4.3-1.1-9.1,1.7-9.6,6.2-.2,2.4,1.2,4.9,1.1,7.5-1.8,1.2-3.6,2.3-5.4,3.5,1.9,1.3,3.7,3.1,5.8,3.8,2.6.9,5.5,1.5,8.2,1.4,6.4-.4,12.8-1.1,19.1-2.1,1.3-.2,2.4-2,3.5-3-1.3-1-2.5-2.7-3.9-3-4.7-.9-9.5-1.2-14-2.5M764.6,470.3c-3.7,2.6-7.2,3.1-10.4-1-1.9-2.4-4.3-3.2-6.9-1.3-2.8,2.1-2.6,4.7-.9,7.4,3.5,5.5,8.7,7.4,15,6.7,6.4-.7,11.4-3.8,13.9-9.8.6-1.4,0-4.4-1.2-5.2-1.4-1-4-1-5.8-.5-1.2.3-2,2-3.6,3.7M787.3,408.2c2.4,1.5,4.7,3.1,7.1,4.6,2.8,1.8,5.1,1.1,6.8-1.5,1.7-2.7.9-5.1-1.7-6.9-2.5-1.7-4.9-3.4-7.5-4.9-3.3-1.9-6.8-5.8-10.1-.7-3.3,5.1,1.7,6.8,5.4,9.4M769.2,407.3c.6,2.8.8,5.7,2,8.2.8,1.6,3.2,3.5,4.6,3.3,1.8-.3,4.8-2.7,4.7-4-.5-5.1-1.7-10.1-3.4-14.9-.5-1.3-3.9-2.8-5.2-2.3-1.7.7-2.9,3.2-3.7,5.2-.4,1,.5,2.5,1,4.6M757.9,411.6c1.8-2.1,4.1-4.1,5.3-6.5.9-1.8.2-4.4.2-6.6-2.4,0-5.3-.9-7.1.1-2.4,1.4-3.9,4.4-6,6.5-2.3,2.3-3.3,4.8-.8,7.3,2.5,2.5,5.3,2.3,8.4-.8Z"/>
  <path class="cls-9" d="M1086,280c-.1,0-.5,0-.7-.3.1-.2.5.1.7.3Z"/>
  <path class="cls-26" d="M781.3,304.1c-7.9,3.5-15.5,6.8-23.2,10.4-.2.3-.7.3-.9.3-3.1-4.3-6.1-8.6-8.9-12.9-.7-1.2-.9-2.7-1.3-4.5,13.9-.4,27.8-.4,41.7-.3,1.7,0,3.4.7,5.2,1.4-4,2.1-8.1,3.8-12.6,5.7Z"/>
  <path class="cls-13" d="M1000.3,575.1c-.4-2.5-1.1-5-.4-7,.3-1,3.3-2,4.6-1.6,1.6.5,3.4,2.3,3.9,3.9,1.2,4.1-2.6,6.5-8.1,4.7Z"/>
  <path class="cls-5" d="M764.9,470c1.3-1.4,2.1-3.1,3.3-3.4,1.9-.4,4.4-.5,5.8.5,1.1.8,1.8,3.8,1.2,5.2-2.5,6-7.5,9.1-13.9,9.8-6.2.7-11.5-1.1-15-6.7-1.7-2.7-1.9-5.4.9-7.4,2.6-1.9,5.1-1.2,6.9,1.3,3.2,4.1,6.7,3.6,10.7.7Z"/>
  <path class="cls-49" d="M802.7,470.9c4.7.5,9.5.9,14.2,1.7,1.4.3,2.6,2,3.9,3-1.2,1-2.2,2.8-3.5,3-6.3,1-12.7,1.7-19.1,2.1-2.7.2-5.6-.5-8.2-1.4-2.1-.8-3.9-2.5-5.8-3.8,1.8-1.2,3.6-2.3,6.2-3.5,5,3.2,8.8,2.1,12.4-1.1Z"/>
  <path class="cls-49" d="M731.9,470c2.4,1,4.9,1.9,7.2,3,1.1.5,2.5,1.6,2.5,2.5,0,.9-1.3,2.6-2.3,2.7-6.8,1-13.7,2.1-20.5,2.5-3.5.2-7.2-1.1-10.6-2.2-1.2-.4-2-1.9-3.1-2.9,1-.9,1.9-2.3,3-2.7,3-.9,6.1-1.3,9.9-1.8,6.2,4.1,8.9,3.8,13.8-1.1Z"/>
  <path class="cls-45" d="M787,408c-3.4-2.4-8.4-4.1-5.1-9.2,3.3-5.2,6.9-1.3,10.1.7,2.6,1.5,5,3.2,7.5,4.9,2.6,1.8,3.4,4.2,1.7,6.9-1.7,2.6-4,3.4-6.8,1.5-2.4-1.5-4.7-3.1-7.4-4.8Z"/>
  <path class="cls-27" d="M802.8,470.5c-3.7,3.6-7.5,4.7-12.1,1.5-1-2.6-2.4-5.1-2.2-7.5.4-4.5,5.3-7.4,9.6-6.2,5.1,1.3,7,6,4.7,12.3Z"/>
  <path class="cls-27" d="M732,469.6c-5,5.4-7.6,5.6-13.4,1.5-2.3-4.2-2.5-8.1,1.3-11.3,2.8-2.3,6.1-2.6,9.2-.5,3.6,2.4,4.6,5.8,3,10.3Z"/>
  <path class="cls-45" d="M769.2,406.9c-.4-1.7-1.3-3.2-.9-4.2.8-2,2-4.4,3.7-5.2,1.2-.5,4.7,1,5.2,2.3,1.7,4.8,2.9,9.9,3.4,14.9.1,1.3-2.8,3.7-4.7,4-1.4.2-3.8-1.7-4.6-3.3-1.2-2.5-1.4-5.4-2.1-8.6Z"/>
  <path class="cls-45" d="M757.6,411.8c-2.8,2.9-5.6,3.1-8.1.6-2.5-2.5-1.5-5,.8-7.3,2.1-2.1,3.6-5.1,6-6.5,1.8-1,4.7-.2,7.1-.1,0,2.2.6,4.8-.2,6.6-1.1,2.5-3.5,4.4-5.5,6.8Z"/>
</svg>