<?xml version="1.0" encoding="UTF-8"?>
<svg id="Layer_1" data-name="Layer 1" xmlns="http://www.w3.org/2000/svg" version="1.1" viewBox="0 0 1920 862">
  <defs>
    <style>
      .cls-1 {
        fill: #fcc095;
      }

      .cls-1, .cls-2, .cls-3, .cls-4, .cls-5, .cls-6, .cls-7, .cls-8, .cls-9, .cls-10, .cls-11, .cls-12, .cls-13, .cls-14, .cls-15, .cls-16, .cls-17, .cls-18, .cls-19, .cls-20, .cls-21, .cls-22, .cls-23, .cls-24, .cls-25, .cls-26, .cls-27, .cls-28, .cls-29, .cls-30, .cls-31, .cls-32, .cls-33, .cls-34, .cls-35, .cls-36, .cls-37, .cls-38, .cls-39, .cls-40, .cls-41, .cls-42, .cls-43, .cls-44, .cls-45, .cls-46, .cls-47, .cls-48, .cls-49, .cls-50, .cls-51, .cls-52, .cls-53, .cls-54, .cls-55, .cls-56, .cls-57, .cls-58, .cls-59, .cls-60, .cls-61, .cls-62, .cls-63, .cls-64, .cls-65, .cls-66, .cls-67, .cls-68, .cls-69, .cls-70, .cls-71, .cls-72, .cls-73, .cls-74, .cls-75, .cls-76, .cls-77, .cls-78, .cls-79, .cls-80, .cls-81, .cls-82 {
        stroke-width: 0px;
      }

      .cls-2 {
        fill: #ff7c0a;
      }

      .cls-3 {
        fill: #ff650a;
      }

      .cls-4 {
        fill: #ff740a;
      }

      .cls-5 {
        fill: #ff980c;
      }

      .cls-6 {
        fill: #ff3909;
      }

      .cls-7 {
        fill: #fed34f;
      }

      .cls-8 {
        fill: #8c6d5a;
      }

      .cls-9 {
        fill: #6d4410;
      }

      .cls-10 {
        fill: #fdbb7a;
      }

      .cls-11 {
        fill: #fec75a;
      }

      .cls-12 {
        fill: #dcd3c7;
      }

      .cls-13 {
        fill: #ff8f0c;
      }

      .cls-14 {
        fill: #faefdd;
      }

      .cls-15 {
        fill: #f8e6d3;
      }

      .cls-16 {
        fill: #563724;
      }

      .cls-17 {
        fill: #ff710a;
      }

      .cls-18 {
        fill: #ffdd48;
      }

      .cls-19 {
        fill: #ff5a0a;
      }

      .cls-20 {
        fill: #c0ae98;
      }

      .cls-21 {
        fill: #faeddc;
      }

      .cls-22 {
        fill: #fcf5eb;
      }

      .cls-23 {
        fill: #76b7fc;
      }

      .cls-24 {
        fill: #7d582a;
      }

      .cls-25 {
        fill: #fdbc86;
      }

      .cls-26 {
        fill: #faf0df;
      }

      .cls-27 {
        fill: #90714b;
      }

      .cls-28 {
        fill: #ff830b;
      }

      .cls-29 {
        fill: #fec164;
      }

      .cls-30 {
        fill: #0a0908;
      }

      .cls-31 {
        fill: #ff4e0a;
      }

      .cls-32 {
        fill: #573927;
      }

      .cls-33 {
        fill: #553725;
      }

      .cls-34 {
        fill: #faefde;
      }

      .cls-35 {
        fill: #fecc51;
      }

      .cls-36 {
        fill: #ff6509;
      }

      .cls-37 {
        fill: #866439;
      }

      .cls-38 {
        fill: #ff5c0a;
      }

      .cls-39 {
        fill: #fec65b;
      }

      .cls-40 {
        fill: #543725;
      }

      .cls-41 {
        fill: #ff860b;
      }

      .cls-42 {
        fill: #c5835b;
      }

      .cls-43 {
        fill: #ff6c0a;
      }

      .cls-44 {
        fill: #cec0a9;
      }

      .cls-45 {
        fill: #ff840b;
      }

      .cls-46 {
        fill: #52a3fb;
      }

      .cls-47 {
        fill: #fdcccf;
      }

      .cls-48 {
        fill: #ab9274;
      }

      .cls-49 {
        fill: #faefdf;
      }

      .cls-50 {
        fill: #ff7c0b;
      }

      .cls-51 {
        fill: #fecc50;
      }

      .cls-52 {
        fill: #50a4fe;
      }

      .cls-53 {
        fill: #ffce52;
      }

      .cls-54 {
        fill: #c5835c;
      }

      .cls-55 {
        fill: #c6845d;
      }

      .cls-56 {
        fill: #b59f85;
      }

      .cls-57 {
        fill: #cec0af;
      }

      .cls-58 {
        fill: #ff8e0c;
      }

      .cls-59 {
        fill: #fdbd6f;
      }

      .cls-60 {
        fill: #febf68;
      }

      .cls-61 {
        fill: #84bdfb;
      }

      .cls-62 {
        fill: #ff3e0b;
      }

      .cls-63 {
        fill: #c38561;
      }

      .cls-64 {
        fill: #6f4613;
      }

      .cls-65 {
        fill: #ffa20e;
      }

      .cls-66 {
        fill: #ff4f10;
      }

      .cls-67 {
        fill: #ff510a;
      }

      .cls-68 {
        fill: #583b29;
      }

      .cls-69 {
        fill: #52a5fd;
      }

      .cls-70 {
        fill: #553726;
      }

      .cls-71 {
        fill: #ff790a;
      }

      .cls-72 {
        fill: #ff690a;
      }

      .cls-73 {
        fill: #fec55d;
      }

      .cls-74 {
        fill: #533626;
      }

      .cls-75 {
        fill: #f8eedd;
      }

      .cls-76 {
        fill: #ffe543;
      }

      .cls-77 {
        fill: #6e4410;
      }

      .cls-78 {
        fill: #ff5909;
      }

      .cls-79 {
        fill: #9f8463;
      }

      .cls-80 {
        fill: #ff6109;
      }

      .cls-81 {
        fill: #fdbc76;
      }

      .cls-82 {
        fill: #fbefde;
      }
    </style>
  </defs>
  <path class="cls-82" d="M592,863c-13.4,0-26.7,0-40.2-.4-1-.8-1.8-1.5-2.7-1.6-5.3-.8-10.7-1.1-16-2.1-23-4.2-45-10.8-63.8-25.8-13.1-10.4-20-23.8-21.1-39.9-.9-13.2,4.5-25,11.9-35.7,10-14.4,20.5-28.4,30.9-42.4,15.2-20.3,30.5-40.4,45.8-60.5,3.1-4,6.1-8.1,9.1-12.2-4.2-1.7-7.8-3.4-11.6-4.6-1.2-.4-3,0-4.2.7-11.4,6.9-22.5,14.5-34.2,20.9-7.9,4.3-16.7,6.5-25.8,3.6-7.4-2.3-14.6-5.2-22.2-7.9-.2.2-1,1.4-1.9,2.6-10.4,15.1-24.6,22.8-43,23.4-10.7.4-20.4-3.1-30.4-5.9-19.7-5.4-39.3-10.9-59-16.2-15.4-4.1-30.2-8.8-40.7-22.4-10-13.1-13.1-27.9-10.3-43.4,2.4-13.7,7.3-26.9,11-40.4,2.3-8.1,4.4-16.3,6.8-24.9-2,0-3.4.2-4.7,0-17.3-2.6-34.7-4.9-51.9-8.1-10.6-2-21-5.4-29-13.5-.7-.7-1.9-1.1-3-1.3-18.9-4.1-37.7-7.9-55.5-15.9-14.9-6.6-24.2-17.2-27.3-33.2-.1-.7-1.3-1.3-1.9-1.9,0-3,0-6.1.3-9.2.8-.8,1.5-1.4,1.6-2.1,1.1-12.2,8-20.7,17.3-27.6,11.6-8.7,24.9-9.3,38.7-7.2,2.7.4,7.2,2.4,8.2-2.4-6.8-3-13.7-5-19.5-8.7-14.5-9.1-22.5-26.1-19.8-42.9,3.6-22,23.5-35.4,43.4-35.7,7.2-.1,14.3,0,21.5,0,1.4,0,3.4-.6,4.1-1.7,7.5-10.3,17.9-16.6,29.3-21.1,18.8-7.4,38.7-11.2,58.6-14,14.9-2.1,29.9-3.2,44.6-4.8,2-2.7,4-5.7,6.3-8.4,9-11,21.7-14.4,35-17,8.6-1.7,17.1-4.3,25.5-7,10.5-3.4,20.7-7.8,31.4-10.8,10.1-2.8,20.6-4.1,30.8-6.2,1-.2,1.9-1,2.6-1.8,9.2-8.7,17.8-18.2,27.7-26,17-13.3,36.8-21.2,58.2-25.6-7-11.2-14.2-22.1-20.9-33.2-9.9-16.4-20.2-32.6-29.3-49.4-9.2-17.1-7.4-34.7,2.9-50.7,8.9-13.7,22.7-21.7,37.8-27.1,17-6.1,34.5-10.1,52.8-10.2,1,0,2-1.2,2.9-1.9,6,0,12,0,18.2.4,1.2.8,2.2,1.5,3.2,1.6,7.5.7,15,1.3,22.5,2.1,18.1,1.9,35.5,6.5,52.8,12,19.6,6.2,38.1,14.7,55.9,24.8,13.7,7.8,26.8,16.6,38.1,27.6,13,12.6,26.1,25.3,37.8,39.1,9.4,11.2,17,23.9,24.8,36.4,6.7,10.8,13,21.9,18.6,33.3,4.6,9.3,8.1,19.1,11.8,28,7.2-1.1,14.5-3.4,21.5-2.9,6.5.5,11.1-1.6,16.7-4,8.8-3.7,18.4-6,27.9-7.2,16-2,30.9,2.3,44.7,10.7,1.1.7,2.8,1.1,4,.9,9.6-1.5,19.1-4.3,28.7-4.5,14.1-.4,28.5,0,42.5,2,23.9,3.6,45.7,13.4,65.6,26.8,9.4,6.3,18.2,13.8,26.6,21.5,9.9,9,18.9,19,28.5,28.2,4.8,4.5,8.4,10.2,15.5,12.4,9.7,3,18.8,4.1,29.2,3.3,14.7-1.2,29.6.7,44.4,1.6,3.5.2,6.2.3,8.8-2.8,3.2-3.8,7.1-6.9,10.7-10.4.4-.4.8-.9.9-1.5,2-10.8,3.8-21.7,6.1-32.4,1.7-7.7,3-15.7,6.4-22.7,9.7-19.9,31.2-28.9,54-24.3,14.9,3,29.8,6,44.7,8.8,8.5,1.6,17.1,3.3,24.5,8.2,13.8,9.3,20.8,22.7,21.2,39.1.1,6.9-2.1,13.7-3.1,20.6-.2,1.2,0,3.3.7,3.6,3,1.4,6.2,2.7,9.4,3.3,5.6,1.1,11.4,1.1,16.9,2.5,25.2,6.3,49.1,16.1,72.4,27.3,34.5,16.5,68.1,34.6,100.8,54.4,25.9,15.7,51.8,31.5,77.3,47.8,22.3,14.3,44.2,29.1,65.9,44.3,9.9,6.9,16.5,16.6,17,29.4,0,.8,1.2,1.6,1.9,2.4,0,.8,0,1.5-.4,2.3-.8.9-1.5,1.7-1.6,2.6-1,15.6-9.2,26.6-22.8,33.3-50.7,25.1-101.5,50-152.3,74.8-10.5,5.1-21.4,9.7-32,14.6-3.5,1.7-7.2,2.8-8.8,7.5-3.4,10.1-10.5,18-19.4,23.3-8.1,4.8-17,8.2-25.9,11.5-9.8,3.6-19.9,5.3-30.6,3.3-6.1-1.1-12.6-.4-19-.1-3.7.2-7.4.9-10.9,1.9-17.1,4.5-33.7,10.8-51.7,12.3-12.8,1.1-24.8-.5-35.8-6.2-9-4.6-16.9-11.3-26-17.5-2.7,1.6-6.3,4.6-10.4,6.2-21.2,8.1-41.1,5.5-58.9-8.8-5.6-4.5-10.4-6.2-17.5-2.7-9.4,4.7-19.6,7.1-30.3,5.7-3.4-.5-5.9.2-8.8,2-6.9,4.1-14.5,6.5-22.6,6.1-5.5-.3-11-1.3-16.5-1.9-14.3-1.8-26.2-7.8-33.1-20.9-2.8-5.3-5.9-8.4-11.9-9.9-11.1-2.6-18.2-10.8-24.2-20.1-6.8,1.6-13.4,3.6-20.2,4.7-3,.5-4.6,1.4-6,4-3.7,6.8-8.3,13-15.1,17-3.2,1.9-4.4,4.6-5.6,8-5.8,17.1-17.8,26.9-35.8,29.1-4.2.5-8.5.7-12.7,1.3-8.7,1.3-17.5,1.9-25.5-2-6.9-3.4-13-8.3-20.2-12.9-5.7,3.1-12.3,6.7-19,10.2-7,3.6-14.8,4.1-22.3,5.9-17.1,4.2-34.4,7.4-51.8,8.2-17.9.8-35.8-.3-53.7-.8-4.2-.1-8.5-.9-12.7-1.1-1.3,0-3.4.5-3.8,1.4-9.1,19.4-20.8,37.1-33.3,54.5-14.6,20.4-31.1,38.8-49.8,55.6-16.8,15-35.4,27.4-55.6,37.1-14.6,6.9-29.9,12.6-45.3,17.5-19.6,6.2-39.9,10.1-60.5,11.3-1,0-2,1.3-2.9,1.9M807,293.2c0-.4,0-.8,0-2,0-3.5-1.6-5.7-5.1-6.2-14.6-2.1-29.2-4.1-44.5-6.5-3.2-.4-6.5-.5-9.7-1.2-5.6-1.2-8.7.6-9.5,6.2-2.1,14.4-4,28.9-6.6,43.8-15.3,7.9-30.6,15.8-46.1,22.8.6-22.5,1.3-44.9,1.8-67.4.2-8.1-2.2-11-10.2-10.3-15,1.3-30,3.4-45.2,4.3-2.3-10.5-3.6-21.4-7.2-31.4-7.9-22.1-26.4-34.5-49.8-33.2-38.6,2-67,21.3-87.9,53.9-21.7.2-42.6,4.6-62.6,12.8-9.5,3.9-18.6,8.8-29.1,10-5.6.7-11.1,2-16.6,3.2-7.7,1.6-9,3.5-7.6,11.4.7,3.9,1.3,7.9,1.2,11.9-4.4.3-8.8.6-14.2.9-6.7.4-13.4.7-21,1-6,.6-12.1,1.2-19,1.8-10,1.3-20.1,2.6-30.9,4-14.1,3.6-28.3,7-42.2,11.1-3.8,1.1-7,4.3-10.4,6.6.2.9.5,1.7.7,2.6,17.6.9,35.2,1.9,53.7,2.9,10,.4,20,.8,30.5,1.6.6.3,1.2.6,2.3,1-1.9.6-3.3,1.1-5.5,1.5-4.7.7-9.4,1.4-14.2,1.9-8.3,1-16.7,1.9-25.9,2.9-7.6.4-15.3.8-22.9,1.3-6.1.4-12.2,1-19.2,1.6-17.9.2-35.8.3-53.7.6-2.1,0-4.3.8-6.4,1.2,0,.6-.2,1.3-.3,1.9,2.5,1.2,5,2.9,7.6,3.4,17.9,3.2,35.9,6.2,54.6,9.4,13.7,1.6,27.5,3.1,42,4.8,13,1.1,26,2.2,39.8,3.7,2.1.2,4.1.4,6.2.6,0,.2,0,.4,0,.5-2.9.4-5.8.9-9.6,1.2-21.6,2.2-43.6,2.7-64.2,10.8v2c21.8,1,43.4,2.1,65.9,3.2,7.4.4,14.7.8,22.8,1.6,6.8.4,13.6.8,21.1,1.4,2.1.4,4.1.7,7.1,1.3-2.3.6-3.6,1-5.8,1.5-5,.4-10,.9-15.9,1.2-5.1.4-10.1.8-16,1.2-6.1.6-12.1,1.2-19.1,1.8-10.7,1-21.4,2-33,3-3.9.4-7.8.6-11.7,1.1-6.8.9-13.6,2-21.3,2.9-9.4,2-18.8,3.6-28.1,6.1-4,1.1-7.5,3.9-11.2,5.9.2.9.4,1.8.7,2.7,13.2.4,26.3.8,40.4,1.3,10.7,0,21.4,0,33,.2,10.7.2,21.4.4,32.8.7,3.6,2.3,3.3,3.2-2.5,6.4-.6.2-1.2.6-1.8.7-10.8,2.3-21.7,4.5-33.4,6.8-13.7.5-27.3,1-41.9,1.4-26.2-1-52.5-2-78.7-2.9-1.5,0-3,.8-4.5,1.2,0,.7,0,1.4,0,2.1,26.7,11.7,55.2,16.2,84.8,19.2,4.3.6,8.6,1.1,12.9,1.7,0,.4,0,.8,0,1.2-7.7,1.1-15.5,2.3-23.2,3.4,0,.6,0,1.2,0,1.8,16.8,5.1,34.3,6.5,52.4,9,11.7,1.1,23.4,2.2,35.8,3.7,6.1.4,12.2.8,19.2,1.3,5,.3,10.1.6,16,1,5,.2,10,.5,16,.9,5.7,0,11.4,0,18,.2,8.6,0,17.3,0,26.1.9.7,8.6,5,14.6,13,17.9,2.3.9,4.7,1.8,7.1,2.4,19.5,5.1,39.2,4.6,58.9,2.1,10.2-1.3,20.1-4.1,29.9-5.7-12.3,10.7-24.6,21.3-37.7,31.8-4-1.5-7,0-9.4,3.3-1.8,2.4-3.9,4.5-6.7,7-9,3.5-17.8,7.7-28.1,8.3,1.5-5.5,2.9-10.3,4.1-15.1,2.6-10.1-.7-16.2-10.6-19-27.7-7.8-55.4-15.5-83.1-23.2-9.1-2.5-15.6,1.1-18.1,10-7.9,28.2-15.8,56.4-23.5,84.6-2.2,8.1,1.4,14.8,9.5,17.1,28.6,8.1,57.4,16,86,23.9,4.6,1.3,8.8.3,12-3,2.1-2.2,3.8-5.1,4.7-8,5.1-17.4,9.9-34.9,14.8-52.3.4-1.4,1.3-3.6,2.3-3.9,6.6-1.7,13.3-2.9,19.6-3.6-2.8,1.9-5.7,3.9-9.3,6.4,5.3,5.8,10,11.3,15.1,16.4.7.7,3.5.3,4.8-.5,3.6-2.1,6.9-4.6,10.4-6.9,4.4-3,4.7-5,.7-8.4-4.4-3.7-9.3-7-13.4-11.1,2.8-1.3,5.5-2.5,8.9-3.5,4.2,2.1,8.9,6.4,12.6,5.8,3.8-.7,6.7-6.3,9.8-9.9,4.3-5.1,4.1-5.6-.8-10,2.1-1.6,4.1-3.2,6.5-4.3,3,4.9,6.9,1.5,9.9.5,3.5-1.2.6-3.8.1-5.8-.3-1.1-.7-2.2-.5-3.6,11.4-11.5,22.8-23,34.9-34.5.5-.4,1-.8,1.5-1.1,0,0,0,0,.7,0,16.6-8.3,30.4-19.7,40-35.1,1.1,6.7,1.4,13.6,3.4,20.1,5.6,17.9,18.8,27.4,36.8,30.3,15.8,2.5,28.4-3.9,37.8-16.3,13.8-18.2,17.3-38.1,10.1-59.5,5,.5,10.1,1.1,15.3,2.3-.9,2-1.7,3.9-2.6,5.9-10.4,21.5-7.6,43.3,8.1,59.5,8.9,9.2,19.9,15,31.9,18.8,26.4,8.5,53.3,8.6,80.3,3.4,21.9-4.2,42.2-11.9,58.2-29.5,14.1-.9,28.2-1.7,42.4-2.7,5.1-.4,6.8-2.8,6.5-8-.6-10.3-1.2-20.6-1.8-30.9-.9-15.3-1.8-30.6-2.7-45.9-.5-8.4-.8-16.8-1.1-25.4,15.1-.8,26.3,4.3,33.6,17.2,4.7,8.4,6.3,17.6,7,26.8,2,26.4,13.3,46.7,37.3,59.9.3,1.8.6,3.6,1,5.4,6.2,27.6,20.6,49.7,44.2,66.6.2,1,.5,1.9.6,2.9,1.8,20.9,3.6,41.7,5.3,62.6.7,9.1.6,9.2,9.5,8.6.7,0,1.3,0,2,0,13.9-1.5,11.9.9,10.9-13.3-.7-8.9-1.5-17.7-2.3-27.5,4.4,1.8,7.9,3.1,11.4,4.6q13.2,5.7,19.4-6.9,4.4-8.9-3.4-13c22.2.7,43.5-3.9,64.2-11.3,12.6-4.5,24.6-10.5,37.1-14.9.4,3,.8,5.9,1.2,8.9.4,3.2,1.8,4.6,5.4,3.9,10.9-2.1,21.9-4,32.9-5.8,3.6-.6,5.4-2.1,4.6-6-.6-3.1-1.1-6.2-1.4-9.4-.4-3.9-2.3-4.9-6.1-4.1-8.4,1.7-17,3.1-25.1,4.1,9.8-8.2,20.3-15.7,29.2-24.8,9-9.2,16.4-19.9,24.9-30.1.2-.1.4-.3.5-.6,0,0,0,0,.7,0,4.4-2,8.9-3.6,13-6.1,21-12.3,26.2-32.6,14.4-54.8,2.8-8.1,5.7-16.2,8.3-24.4,1-3.1,2.6-4.1,5.7-3.8,8.2.8,16.4,1.4,24.4,2.8-1.8,9.1-3.5,18.2-5.3,27.2-2.8,14.3-5.6,28.6-8.3,42.9-1.3,7,.3,8.8,7.3,10.1,16.6,3.2,33.1,6.4,49.7,9.7,7.4,1.5,9.6,0,11-7.4,3.1-16.6,6.4-33.2,9.5-49.7,2.6-13.5,5-27,8.3-40.6,5.6-1.1,11.3-2.2,17.5-3,8.2,5.7,13,13.6,13.5,23.3.4,9.4,0,18.9-1.3,28.2-4.3,30.5,8.6,56.3,35.5,70.8,5.7,3,10.6,3,15.9,0,9.3-5.1,18.7-10.1,28-15.3,6.1-3.4,6.6-6.1,2.8-12.1-3-4.7-6.4-9.4-8.7-14.5-5.2-11.7-3.1-23.8-1.4-35.9,4.7-32.4-3.9-59.9-29.5-82,.3-3.7.6-7.4,1.6-10.9,1.8,1.4,3.8,2.7,5.5,4.2,18.6,15.4,29.2,35.3,33.2,59.9-.1,9,.8,18.1-.5,26.8-2.7,17.8-3,34.3,9.7,49.4,6.6,7.9,2.7,18.1-6.9,23.5-9.1,5.1-18.3,10.2-27.6,14.9-3.8,1.9-8,3-12.9,4.4-3.4-.6-7.1-.6-10.1-1.9-32.9-14.9-50.2-47.6-44.6-83.2,1.2-7.4,1.7-14.9,1.6-22.3-.1-8.5-3.4-15.8-12-20.3-1.3,6.5-2.2,12.8-3.7,18.8-9.2,35.6-7.8,71.9-6.7,108.2,0,1.5.4,3.9,1.4,4.4,7.9,3.6,11.8,9.8,12.5,19.6,21.2-6.4,41.8-12.7,63.2-18.8,9.4-.7,14.1,4.8,16.4,13.4,5.4-9.5,8.2-10.7,18.7-8.8,4.4.8,8.8,1.5,13.2,2.4,10.3,2,13.9,8.2,10.7,18.2-2.2,6.7-4.4,13.4-6.9,21.2,4.7-1.7,8.4-3,13-4.4,6.6-1.3,11.8.8,15.8,6,4.2,5.5,8.4,11.1,12.8,17,2.1-1,4.3-2,7.2-3.2,12.4-5.7,24.8-11.4,37.9-17.2,11.4-5.4,22.8-10.7,35-16.1,9.4-4.6,18.9-9.3,29-13.9,9.4-4.7,18.9-9.3,29-14.1,10.1-5,20.2-10.1,30.9-15.3,15-7.6,30-15.2,45.8-23.2-14.8-9.8-29.1-19.2-43.7-29.1-9.2-6-18.5-12-28.2-18.4-9.2-5.6-18.3-11.1-28.1-17-2.1-1.5-4-3.3-6.2-4.5-6.7-3.9-13.4-7.6-20.3-12.1-5.4-3.4-10.8-7-16.4-10.3-5.4-3.1-11-5.9-17.1-9.2-.7-.7-1.3-1.5-2.1-2-11.1-6.2-22.2-12.3-34-18.8-11.4-5.8-22.8-11.6-34.7-17.9-11.2-5-22.4-10-34.3-15.4-7.2-2.7-14.2-5.6-21.5-8-11.9-3.8-23.8-8.5-37.4-5.7-13.4-8.8-28.1-14.7-43.4-19.9,2.8-14.8,5.6-29.7,8.5-44.5,1.4-7.3.2-9.4-7-10.8-16.3-3.2-32.6-6.3-48.9-9.5-9.2-1.8-10.9-.5-12.7,8.8-3.6,18.9-7.4,37.8-11.8,56.8-5.5,3.9-11.5,7.3-16.4,11.8-11,10-17.6,23.1-23.6,36.5-1.5,3.3-3.2,6.5-4.9,8.9-1.5-6.5-3-12.9-4.3-19.5-1.1-5.7-4.7-8.8-10.1-9.5-7.2-.9-14.5-2-21.8-2.1-19.5-.4-38.4,2.5-56.3,11.5-13.5-14.5-26.9-29.1-40.5-43.5-19.6-20.8-40.5-40-67.3-51.7-21.8-9.5-44.5-12.3-67.9-8.7-13.3,2-26.4,5.1-40,7.3-9.3-15-23.8-19.4-41.4-12.3,4.3,18.4,8.6,36.9,12.9,55.3,19.4-1.5,32.6-13.3,32.4-33,12.4-2.4,24.7-5.2,37.2-7.2,27.5-4.4,53.2,1,77.2,15.1,23.4,13.8,41.7,33.4,59.8,53.2,9.9,10.8,20,21.4,29.7,32.7-8.8,8.9-12.9,19.5-9.7,31.8,2,7.8,5.2,15.4,8.8,22.6,3.8,7.7,9.1,14.7,13.2,22.3,3.8,7,1.8,12.5-5.2,16.1-2.3,1.2-5,2.2-7.5,2.4-5.1.4-10.2,0-15.4.1-5.6.1-7.2,2.1-6,7.5,2.4,10.9,4.8,21.7,7.2,32.6,1,4.5,3.5,7.5,8.3,8,7.4.7,14.9,1.9,22.3,1.9,9.4,0,18.9-1.2,28.1-1.2-4.3,5.3-8.3,10.8-12.9,15.8-17.9,19.4-39.5,33.5-63.9,43.3-19.7,7.8-40,13.4-61.2,14.9-14.6,1-28.8-1.9-42.6-7.8-.1-2-.4-3.9-.4-5.9,0-4.2-1.9-5.7-6.2-5.1-4.4.6-8.8.6-13.6.4-18.9-14.8-31.7-33.6-36.1-57.3,18.9,4.8,34.8-1.9,43.2-18.2,4.9-9.6,3.9-14.4-4.3-21.1-8.9-7.3-14.6-16.6-15.7-28.4,6.6-2.7,13.1-5.9,19.9-7.9,9.7-2.9,9.8-2.6,12.1,7.1,2.2,9.2,7.9,12.8,17.3,10.7,24.5-5.4,49-10.7,73.6-16,10.2-2.2,14.1-7.8,12-18-1.2-5.7-2.5-11.4-3.8-17-4.3-19.6-8.5-39.3-12.9-58.9-1.5-6.8-7.8-11-14.1-9.7-26.2,5.6-52.3,11.2-78.5,16.9-8.1,1.8-11.8,8-10.1,16.1,2.3,10.9,4.8,21.8,7.1,32.6,1.7,8,3.4,16.1,4.9,23-10.3,3.8-19.9,7.3-30,10.2-.1-1.2-.3-2.3-.4-3.5-2.1-21.7-9.4-41.2-25.4-56.5-25.1-23.9-55.8-29.9-88.8-25.7-19.5,2.5-38.6,8.1-58.6,8.1-7.9,0-9.5,2.4-9,10.1,1.3,21.4,2.5,42.8,3.1,64-7.2-5.2-14.2-10.8-21.8-15.5-6.9-4.3-14.5-7.7-21.5-12.3,1.5-11.1,3.1-22.2,4.9-33.5,0-.2.2-.5,1-.7,3.7-1.2,7.9-1.8,11.1-3.8,10.9-7.2,14.6-18.5,15.8-30.7.5-5.4,1.5-11.4-3.2-16.2,0-.1.2-.3,1-.5,16.5-4.4,32.9-8.7,49.9-12.6,9.1,15.7,23.8,20.5,41.7,13.3-.7-3.4-1.4-6.9-2.1-10.6,5.6-1.3,10.7-2.6,15.9-3.7,2.6-.6,5.1-1.5,4.4-4.8-.7-3.2-3.2-3.2-6-2.5-5.3,1.3-10.6,2.4-16.2,3.6-1.6-6.7-3-13-4.5-19.5,5.6-1.3,10.8-2.6,15.9-3.8,2.7-.6,5.1-1.5,4.4-4.8-.7-3.3-3.3-3.1-5.9-2.5-5.3,1.2-10.6,2.4-16,3.6-1-3.9-1.9-7.2-2.7-10.4-19.4,1.6-31.9,13.3-32.4,32-16.3,4.4-32.7,8.8-49.7,13.3-4.8,1.5-9.5,3.1-14.3,3.9M1443.2,632c-5.2-.9-10.5-1.8-15.7-2.7-10.8-2-13.9-6.6-12-17.5,1.3-7.4,2.4-14.9,3.7-22.7-5.3.3-10.1.7-14.9.8-4.4,0-8.9,5.7-7.6,10,1.9,6,3.7,12.1,6.4,17.8,8.7,18.8,21.4,25.3,41.7,21.2,12.7-3.5,25.5-7.1,38.2-10.6-1.5-1.2-2.8-1.3-4.1-1.4-9.9-.6-15.6-6.8-14.9-16.7.2-2.6.9-5.2,1.6-7.8,2.3-8.4,4.8-16.7,7.2-25.1-3.5,1.3-8-.4-8.8,5.1-1.7,12.4-3.9,24.6-5.9,36.9-1.5,9.3-4.8,12.4-14.8,12.6M1085.8,279.8s-.4-.3-.2-1c.9-2.4,1.8-4.8,2.8-7.5-3.8-1.6-7.1-3-10.8-4.6-5.2,12.2-10.3,24.1-15.5,36.2.7.5,1.1.8,1.5,1q9.2,4.8,13.2-4.7c1-2.3,2.3-4.6,3.4-6.8.5.2,1,.4,1.5.6,1.1,5.9,2.2,11.7,3.1,17.6.4,2.6,1.4,3.8,4.2,3.6,2.2-.2,4.5,0,7.5,0-.5-5.4-.8-9.9-1.2-14.3-.5-4.5-1.2-9-7.9-8.1,4.7-1.4,9.1-2.4,13.5-3.3,2.6-.5,5.3-.9,3.9-4.6-1.2-2.9-.2-8.2-6.2-6.8-4.2,1-8.4,2.1-12.9,2.8M796.9,135.3c-11-14.5-23.5-27.5-38.1-39.3-11.8-7.7-23.6-15.5-35.8-23.8-13.3-5.5-26.6-11-40.4-17-12.8-3-25.7-6.1-39.3-9.4-13.7-.9-27.5-1.8-42.1-2.9-17.4.5-34.4,3.5-50.3,11-14,6.5-16.2,13.1-8.4,26.3,7.3,12.3,14.9,24.4,22.6,36.4,12.1,18.9,24.4,37.7,36.9,57.1,11.2,16.7,22.6,33.3,33.6,50.2,2.2,3.4,4.7,4.9,9.3,4.6,12.8,1,25.5,2,39.2,3.2,12.7,1,25.4,2,39,3.1,12,.9,24.1,1.9,37,3,12,.9,24.1,1.9,37,3,17.4,1.4,34.7,2.8,52.8,4.3-1-5.7-1.7-10.6-2.9-15.4-8.9-35.3-28.8-64.9-49.9-94.6M745.1,637.3c-13.7.2-27.4.5-42,.5-10.4,0-20.7.2-32,.2-12.7.2-25.4.3-39,.3-7.7.1-15.6.8-23.2.2-7.1-.6-11.1,2.4-14.6,8.5-14.7,18.9-29.3,37.8-44.5,57-5.8,7.7-11.7,15.3-17.4,23.1-13,17.7-26,35.3-38.6,53.2-7.9,11.3-6.4,17,5.3,24.5,1.1.7,2.3,1.3,3.5,2,15.5,8.3,32.1,12.3,50.4,14.1,14.1-.2,28.1-.4,43.1-.5,12.7-2.2,25.5-4.5,39-6.8,12-4.1,24-8.2,36.8-12.4,11.4-6.2,22.9-12.4,35-18.9,1.5-1.3,2.9-2.8,4.6-3.8,14.1-8.3,25.7-19.4,37.2-31.8,22.1-25.4,42.6-51.9,56-83.1,3.6-8.4,5.7-17.3,8.6-26-23.3,0-45.2,0-68-.2M1078.6,458.2c-5.1,8-7.6,16.6-5.9,26.1,2.7,15.3,11.7,25.3,26.6,29.1,14.2,3.6,26.8,0,36.3-11.5,9.7-11.7,11.4-25,4.8-38.7-11.8-24.8-45.2-27.5-61.8-4.9M1369.7,596.5q11.1,4.9,18-5.2c.7-1.1,1.4-2.3,2.2-3.3,2.1-2.5,1.2-4.3-1.3-5.6-2.1-1.2-4.4-2.2-6.8-3.5,1.3-2.7,2.7-4.9,3.5-7.4,2.1-6.2,4.7-12.5,5.6-18.9,1.2-8.4-3.2-12.3-11.7-11.9-7.6.4-15.3.7-22.9,1.4-3.8.3-6.8-.4-9-3.7-2.1-3.1-4.1-2.8-6.8-.3-6.6,6.3-13.6,12.1-20.5,18.2-.7.6-1.7,1.3-1.9,2.1-.7,2.4,11,14.4,13.5,13.7,1.6-.4,3.1-1.1,4.5-2,2.7-1.6,5.6-3,7.9-5.2,5.4-5.2,12.3-4,18.8-4.8.8,0,2.6,1.5,2.6,2.4-.1,5.4-4.7,8.7-9.7,7.4-2.6-.7-5.1-1.3-7.7-1.8-2.9-.5-11,8.6-9.9,11.2.4.9,1.6,1.7,2.5,2.2,3,1.7,6.2,3.2,9.9,5.1-6.4,6.9-12.5,13.6-19.1,20.8,3.4,2.6,6.6,4.9,9.7,7.4,2.7,2.2,5.3,2.3,8-.1,6.7-6,13.3-12,20.7-18.3M816.6,617c-2.2,4.6-4.5,9.1-7,14.4,4.3,1.5,8.1,2.5,11.7,4,4,1.7,6.5.4,8.8-2.9,7.8-11.3,13.6-23.6,17.6-36.7,3.2-10.7,5.1-21.7,2.5-33-2-8.5-7-11.3-15.1-8.1-7.1,2.8-14.2,5.6-21.2,8.8-3.3,1.5-6.2,2-9.2-.5-2.5-2-4.2-1.3-6,1.4-5.1,7.8-10.5,15.3-15.6,23.1-.6.9-.2,3.6.7,4.2,3.5,2.5,7.4,4.5,11,6.9,2.4,1.6,4.3,1.2,6.1-.8,3.8-4,7.2-8.4,11.5-11.8,4.1-3.3,9-5.6,13.5-8.3.4.5.8.9,1.2,1.4-.7,13.1-5.7,25-10.6,37.8M1423.4,577.9c2.4-.3,4.8-.6,7.5-1,0,1.6.1,2.6,0,3.5-1.8,11-3.5,22-5.5,33-.8,4.1.3,5.9,4.4,6.4,4.3.5,8.5,1.3,12.8,2,3.3.6,5.1-.1,5.7-4.1,1.6-11.4,3.6-22.7,5.6-34,1.1-6.4.7-6.9-6-7.9-1.7-.2-3.3-.7-5.5-1.2,10.4-3,20-5.8,29.5-8.7,5.9-1.8,6-2.3,3.7-8.1-1.4-3.6-3.1-7-4.2-10.7-1.3-4.5-3.5-5.5-8.1-4.1-16.7,5.1-33.4,10.2-50.3,14.7-14.6,3.9-14.6,3.6-10.5,18.2,0,.2,0,.4.2.5,1.5,1.1,3.1,3.2,4.5,3.2,5.1-.2,10.2-1.1,16.2-1.7M730.9,560.4c4.7.9,4.9,3.3,2.1,6.5-2.7,3.2-5.3,6.5-8.3,9.3-8.2,7.7-17.3,14-28.1,17.6-1.9.6-4.8,1.2-3.4,4.2,1.9,3.9,4,7.7,6.5,11.2.7,1,3,1.6,4.4,1.3,27.2-6.1,47.2-21.4,58.5-47.3,3.9-9,.9-14.8-8.5-17.4-10.4-2.9-20.9-5.5-31.3-8.5-4.4-1.3-6.6-.3-7.3,4.3-.5,3.1-1.5,6.1-2.6,9.1-1,3-.6,4.6,2.8,5.4,4.9,1.1,9.6,2.6,15.2,4.2M952.7,582.8c7.8.9,15.6,1.9,23.4,2.8.3.6.7,1.1,1,1.7-9.6,13-19.1,26.1-29,39.5,3.4,2.7,7,5.5,10.4,8.3,2.5,2,4.7,2,7.1-.1,3-2.6,6.3-4.9,9.3-7.5,11.8-10.3,21.4-22.2,27.3-37.3-12.4-2.8-18.2-10.4-17.2-23.1-15.3-2.1-30.3-4-45.2-6.2-3.7-.5-5.2.6-5.4,4.3-.2,3.6-.9,7.3-1.5,10.9-.6,3.3.8,4.5,3.9,4.8,5,.4,9.9,1.1,15.8,1.8M1202.7,591.1c5.7-.7,11.4-1.5,17.5-2.3,0,2.2.3,3.9,0,5.4-1.3,6.7-2.4,13.4-4.3,20-2.4,8.5-2.4,8.5,5.7,9.1,2.3.2,4.7,1,6.9.7,1.9-.2,4.4-1.2,5.3-2.6,8.3-13,12.1-27.3,11.7-42.6-.2-8.9-4.5-12.2-13.3-11-17,2.3-33.9,4.9-50.9,7.2-3.3.4-4.2,1.8-3.6,5,.6,3.4,1,6.9,1.2,10.4.2,3.1,1.7,4,4.6,3.6,6.1-1,12.2-1.8,19.2-2.8M1508.4,572c2.3-7,4.6-14.1,7.1-21.8-6.7-1.3-12.8-2.1-18.7-3.6-3.6-.9-4.8.4-5.7,3.4-5.6,19.5-11.2,38.9-16.8,58.4-1.6,5.8.1,8.6,6.1,8.4,8.6-.3,17.3-.7,25.8-2.2,11.5-2,11.4-2.4,9-13.9-.1-.7-.2-1.3-.3-2-.4-2.7-1.6-4.1-4.6-3.8-2.7.3-5.5,0-9.2,0,2.6-8,4.8-15.1,7.3-22.9M567.6,565.3c-.3,3.4-4.7,7,1.3,10.1,7,3.6,7.8,3.9,12.4-2.8,2-3,4-6.2,5.1-9.6,4-12.1-1-17.7-13.4-15.6-5.7,1-11.4,1.8-17.2,2.7-.5-1.6-1-2.9-1.4-4.1q-2.3-7.6-10.3-6c-.3,0-.7,0-1,.1q-7.6,1.5-5.9,8.8c.2,1.1.4,2.2.6,3.3q-10,2.6-8.4,10.5c1.4,7,1.4,7.2,8.8,5.7,3.1-.6,4.5.1,5.3,3.2,2,7.4,4.2,14.7,6.8,21.9,3.9,10.9,1.2,10.1,13.7,6.4,3.6-1.1,4.7-2.7,3.6-6.5-2.7-9.2-5-18.5-7.8-28.8,3.1,0,5.4,0,7.9.7M924,572.6c-.4-3-.5-6-1.2-8.9-2.6-11.7-.9-10.8-12-9.7-.7,0-1.3,0-2,.1-13.2,1.7-11.2.2-9.9,11.3,0,.8.2,1.7.3,2.5,2.4,20.4,2.7,40.5-8.2,59.1-.6,1-.7,2.1-1.2,3.7,1.9.7,3.5,1.4,5.2,1.9,12.9,3.7,11.6,6.3,19.8-8.3,8.9-15.8,11-32.9,9.1-51.6M1296.9,604.5c5.8-3.6,11.7-7,17.3-10.9,9.6-6.7,9.5-6.8,3.6-17.1q-4.4-7.7-11.9-3.5c-2.2,1.2-4.3,2.5-6.6,3.5-13,6-25.9,12.1-38.9,17.9-6.2,2.8-6.3,2.6-3.1,8.4,1.9,3.5,4.1,6.9,5.8,10.5,1.6,3.5,3.7,4,7.1,2.6,8.7-3.8,17.4-7.4,26.8-11.4M484.9,619.5c13.2-7.4,25-16.5,35.6-27.2q8.7-8.9.8-18.8c-.3-.4-.6-.8-.9-1.2-2.3-3.8-4.6-3.5-8-.9-13.6,10.2-27.4,20.1-41.2,29.9-8.5,6-10.2,4.4-2.2,13.5,1,1.1,1.9,2.3,2.8,3.5q4.9,5.8,11.6,2.1c.3-.2.6-.3,1.5-.8M1006.9,282.6c2.7,5.3,5.3,10.7,8.2,15.9.7,1.2,2.9,2.6,4,2.3,3.1-.8,6-2.3,9.5-3.8-5.8-10.4-11.1-20.1-16.6-29.7-1.4-2.4-1.9-5.6-6.1-5.5-4.5,0-8.3.7-10.1,5.4-3.1,8-6.4,16-9.1,24.2-3.1,9.5-2.9,9.6,6.9,11.3.3,0,.6-.1,1.5-.3.2-8.4,7.5-3.9,11.7-5.8v-10.1c-2-.2-3.8-.4-6.1-.7,1-2.9,2-5.4,3.3-9,1.3,2.5,2.1,3.8,3.1,5.8M629.9,587.4c2.6-2.5,5.3-5,7.9-7.6,2-1.9,2.3-3.9,0-5.9-3-2.6-5.7-5.7-8.8-8.1-1.2-.9-3.9-1.3-5-.6-9.7,6-19.3,12.4-28.9,18.6-2.6,1.7-2.8,3.5-.8,5.7,2.6,3,5.5,5.9,7.8,9.1,3.1,4.4,6.6,4.5,10.6,1.7,5.7-4.1,11.2-8.3,17.3-12.9M1038.2,296.4c6.9,3.9,13.9,3.7,21.1.7,2.7-1.1,4.2-2.4,2.9-5.6-.7-1.8-1-3.7-1.6-6-7,2.7-13.7,4.5-18.1-2.8-2.2-3.7-1.2-8,2.1-10.9,5.7-5,10.8-1.4,16.2,1.9,1.1-1.3,2-2.7,3.1-3.8,3.2-3.3,2.2-5.5-1.3-7.9-9.9-6.7-23.7-5-30.1,3.8-7.4,10.3-5.4,22.5,5.7,30.6M678.7,590.8c-2.1-4-4.1-8-6.3-11.9-6.9-12.4-6.9-12.3-20.7-9.9-3.9.7-4.6,2.3-3.3,5.8,3.2,8.5,6.2,17.2,9.4,25.8,3.6,9.8,1.1,10.3,13.5,7q13.3-3.5,7.4-16.7M874.3,560.9c-3.3.4-6.6.9-9.9,1-3.7.2-5,1.9-4.4,5.5,1.2,7.2,2.1,14.5,3.3,21.7,1.6,9.3,1.6,9.3,11,9,1.8,0,3.7-.1,5.5-.1,3.4,0,5.3-1.5,5.2-5.2-.3-8.3-.3-16.6-1-24.9-.7-7.9-1.2-8.1-9.7-7M1543.2,593.3q-7.4-10.2-19.3-6.2c-1.4.5-2.8,1.1-4.2,1.5-2.9.7-3.3,2.5-2.1,4.8,3.4,6.8,6.7,13.7,10.5,20.4.7,1.2,3.4,2.3,4.7,1.9,5.1-1.5,9.9-3.7,14.9-5.3,3.4-1.1,3.6-3.2,2.3-5.7-1.9-3.7-4.2-7.1-6.8-11.3M773.5,608c3-2.6,2.9-4.9-.6-7-3-1.8-5.7-4.1-8.7-5.8-12.4-6.9-12.6-6.8-22.4,3.5-2.4,2.5-2.5,4.3.1,6.5,5.3,4.6,10.5,9.2,15.5,14,2.4,2.3,4.2,2,6.2-.4,3-3.5,6.2-6.9,9.8-10.9M1278.9,563.3c4.3-2.5,3.8-5.4.5-8.3-3.1-2.7-6.3-5.4-9.7-7.8-7.4-5.2-7.5-5.1-14.8-.2-2.1,1.4-4.1,2.9-6.2,4.1-3.1,1.8-3.4,3.7-.9,6.3,4.4,4.5,8.8,9.1,13,13.7,1.9,2.1,3.7,2.4,6.1.7,3.8-2.7,7.6-5.4,12-8.5M1018,571.4c-.3-1.5-.4-3-.8-4.4-1.7-5.7-5.7-9-11.4-9.9-5.9-1-10.9,1.1-14.2,6.2-3.2,4.8-3.4,10-.6,15.1,2.8,5,8.7,8,14.3,7.2,7-1,11-5.2,12.7-14.2M672.5,563.6c-.4-3.5.3-8.1-1.6-10.2-1.7-1.8-6.5-.7-9.9-.9-.3,10.8,1,12.1,10.2,11.5.2,0,.3,0,1.3-.4M516.2,530.4c-2.4,1.9-4.9,3.9-7.3,5.8,1.5,1.7,2.7,3.7,4.5,4.9,1.7,1.2,4.5,2.6,5.8,2,5.8-3,5.7-7.4.2-10.8-.8-.5-1.7-1-3.2-1.8M675,558.1c1.9,2.1,3.5,4.4,5.7,6.1,1,.7,3.5.6,4.5-.2,1.9-1.5,4.8-5.1,4.4-5.5-2.1-2.6-4.8-5.8-7.7-6.3-2.1-.3-4.8,3.3-7,6Z"/>
  <path class="cls-54" d="M373.1,315c-.7-3.9-1.3-7.9-2-11.8-1.3-7.9,0-9.8,7.6-11.4,5.5-1.1,11-2.5,16.6-3.2,10.5-1.2,19.5-6.1,29.1-10,20-8.2,40.9-12.7,63.5-12.8,4.6,0,8.2,0,12.3,0,12.3,1.8,23.8,4.4,34.7,9.8,31.7,15.8,46.1,51.6,32.9,83.2-2.6,6.2-6.5,11.8-9.9,17.8,2.6,2,5.2,4,7.4,6-10.9-1.3-21.6-1.9-31.9-4.3-13.1-3-24.9-9.1-33.7-20,8.1-14.8,1.1-29.8-16.1-34.7-3.5-.4-6.7-.7-10.3-1-8.6-.2-16.6.9-24.2,4.5,3.1,16.5,6.1,32.8,9.2,49.3,11.9-2.1,23.2-4.2,33.4-10.7,12,12.3,26.3,20.4,42.8,23.2,13.8,2.3,27.9,2.8,42.1,4.4,4.1,8.6,8.1,16.9,12.1,25.6-.9,5.3-1.6,10.2-2.9,15-.7,2.5-2.1,5.2-3.9,7.1-10.5,11-21.4,21.7-31.9,32.8-11.5,12.2-22.6,24.7-33.9,37-10.1,2.1-20,5-30.2,6.3-19.7,2.5-39.5,3-58.9-2.1-2.4-.6-4.8-1.5-7.1-2.4-8-3.3-12.4-9.3-13.1-18.7-5.7-30.6-11.3-60.4-16.9-90.2-2.7-14.3-5.4-28.6-8.2-43.3-.3-1.9-.6-3.3-.8-4.8-2.6-13.6-5.3-27.2-7.9-40.8M472.2,419.7c-4.7,0-5.8,2-4.7,6.6,2.1,9,3.6,18.2,5.3,27.4,2.2,11.9,2.2,12,14.2,10.2,8.4-1.3,16.5-3.6,23.5-8.9,7.8-6,11-13.8,8.7-21.6-2.6-8.9-10-15.2-19.7-15.3-8.8-.1-17.7.9-27.3,1.7Z"/>
  <path class="cls-42" d="M1018.3,426.6c1.8,11.5,7.4,20.8,16.4,28.1,8.2,6.7,9.2,11.5,4.3,21.1-8.3,16.3-24.2,23-43.9,18.1-4.2-1.7-7.6-3.2-11.1-4.7-24-12.4-35.3-32.7-37.2-59.1-.7-9.3-2.3-18.5-7-26.8-7.3-12.9-18.5-17.9-33.6-17.2.4,8.6.7,17,1.1,25.4.8,15.3,1.8,30.6,2.7,45.9.6,10.3,1.1,20.6,1.8,30.9.3,5.2-1.4,7.6-6.5,8-14.1,1-28.2,1.8-42.7,2.4,7.9-11.4,11.8-23.7,7.6-37.2-2.3-7.5-5.1-15.3-9.5-21.7-6.7-9.7-15.1-18.4-22.7-27.5-1.2-21.4-2.4-42.8-3.8-64.2-.5-7.7,1.2-10.1,9-10.1,19.9,0,39-5.6,58.6-8.1,33-4.2,63.8,1.8,88.8,25.7,16,15.3,23.3,34.8,25.4,56.5.1,1.2.3,2.3.6,4.2.7,4,1.2,7.2,1.6,10.4Z"/>
  <path class="cls-42" d="M1233,495.1c-9.4.7-18.9,1.8-28.3,1.9-7.4,0-14.9-1.1-22.3-1.9-4.8-.5-7.3-3.5-8.3-8-2.4-10.9-4.9-21.7-7.2-32.6-1.2-5.4.5-7.4,6-7.5,5.1,0,10.3.2,15.4-.1,2.6-.2,5.2-1.2,7.5-2.4,7.1-3.6,9-9.1,5.2-16.1-4.1-7.6-9.3-14.6-13.2-22.3-3.6-7.2-6.7-14.8-8.8-22.6-3.2-12.3.9-22.9,10.1-32.3,2.9-2.4,5.4-4.2,7.8-6.1,17.4-9.5,36.4-12.4,55.9-12,7.3.1,14.6,1.2,21.8,2.1,5.5.7,9,3.8,10.1,9.5,1.3,6.5,2.9,13,4.3,20.3-2.1,6.7-4.3,12.6-6.8,18.4-6.3-.3-12.3-1.2-18,2.5-4.9,1.4-5.7,4.8-5.3,9.3,4,7.6,8,14.7,12,22.3,0,.9,0,1.4-.2,1.9-7.1,19.9-15,39.4-25.7,57.6-3.7,6.3-8.1,12.1-12.2,18.1Z"/>
  <path class="cls-9" d="M632.1,277.5c15-1.8,30-3.9,45-5.2,8-.7,10.4,2.3,10.2,10.3-.6,22.5-1.2,44.9-1.9,68.3.3,4.3.7,7.7,1,11.5.2,1.7.4,3,.7,4.3,2.2,8.5,6,16.2,15.9,16.7,6.6.3,13.3-1.8,20-3,.8-.1,1.7-1.6,1.8-2.6,1.8-12.7,3.5-25.3,5.4-38.2,13.1-6.7,26-13.1,39.1-19.6.7,0,1.1,0,1.7.2,1.4,1.1,2.7,1.9,3.8,3-4.4,2.8-8.7,5.2-13.3,7.7-5.4,3.4-10.4,6.7-15.6,10.3-1.8,4.1-3.3,7.9-4.9,12.2.7,4.5,1.5,8.5,2.4,13,3.6,6.4,7.1,12.5,10.2,18.7-22.7,9.1-41.1,23.4-56.3,41.9-3.5,4.3-7,8.7-10.5,13.1-5-.5-10.1-1.1-15.8-1.9-5.1-7.8-11.1-13.8-19.7-16.2-5.4-1.5-11.1-2-16.8-3.3-8.1-9.1-13-19.4-15.8-31.2-.6-3.5-1.3-6.5-1.9-10-.3-4.2-.6-7.9-.8-12.1.5-2,.8-3.6,1.3-5.2,9.2-26.8,15.6-54.1,14.7-82.8Z"/>
  <path class="cls-77" d="M1334.9,306.8c3.7-18.9,7.5-37.8,11.1-56.7,1.8-9.4,3.5-10.6,12.7-8.8,16.3,3.2,32.6,6.3,48.9,9.5,7.1,1.4,8.4,3.4,7,10.8-2.9,14.8-5.7,29.7-8.7,45.3-.7,3.9-1.2,7-1.9,10.4-1.1,5-2,9.7-2.9,14.1,9.6,2.4,18.7,4.6,28.1,7.1,7.7,3.9,15.2,7.6,22.8,11.6-2.4,4.1-4.1,8.7-7.4,11.2-6.2,4.9-13,9.4-20.2,12.6-33.6,14.5-69.1,19.4-105.4,18.5,4.5-24.4,9-48.4,13.7-72.8.9-4.5,1.5-8.6,2.2-12.8Z"/>
  <path class="cls-52" d="M452,569c-6.7,1.4-13.4,2.6-19.9,4.2-1.1.3-1.9,2.4-2.3,3.9-5,17.4-9.7,34.9-14.8,52.3-.8,2.9-2.6,5.8-4.7,8-3.2,3.2-7.4,4.3-12,3-28.7-8-57.4-15.8-86-23.9-8.1-2.3-11.7-9.1-9.5-17.1,7.7-28.2,15.6-56.4,23.5-84.6,2.5-9,9-12.5,18.1-10,27.7,7.6,55.5,15.4,83.1,23.2,9.9,2.8,13.2,8.9,10.6,19-1.3,4.8-2.6,9.6-4.1,15.1,10.3-.7,19.1-4.8,28.3-8.1-1.1,5.4,4.3,5.1,6.1,7.7-2.8,1.3-5.5,2.5-8.9,4.1-2.4,1-4.2,1.7-6.3,2.4-.6.3-.9.6-1.1.9,0,0,0,0,0,0M368.1,567.7c.2-.6.3-1.3.5-1.9,1.6-6.7,1.6-6.7-5-8.2-9.2-2.1-18.5-4.2-27.7-6.2-13.7-3.1-13.8-3.1-15.6,11-.2,1.3,1.4,3.5,2.7,4,3.2,1.2,6.6,1.7,10.1,2.6-.3,1.8-.4,3.1-.7,4.3-2.6,11.8-5.1,23.7-8,35.5-.8,3.2,0,4.7,3.1,5.3,3.8.7,7.6,1.3,11.2,2.5,3.2,1,4.3-.3,4.9-3.1,1.1-5.2,2.3-10.4,3.4-15.6,1.8-8.2,3.7-16.4,5.6-24.6,2.4.5,4.2.8,6,1.2q7.4,1.7,9.4-6.7M407.9,572.9c-1.3-1.6-2.5-4.3-4-4.6-5.2-.9-10.6-1.7-15.8-1-12,1.7-17.1,10-14.5,22,.8,3.6,1.8,7.1,2.6,10.7,1.2,5.6-1.1,8.7-6.7,9.2-2.4.2-4.8,0-7.5,0-.3,3.8-.5,7.1-.9,10.4-.4,3.3,1,5.2,4.2,5.4,4.8.4,9.6,1.3,14.4.8,14.2-1.4,20.6-11.2,16.9-24.9-.9-3.4-2.1-6.7-2.5-10.1-.6-4.6,1.7-6.8,6.3-7,2.1,0,4.2,0,6.8,0,.2-3.5.5-6.7.7-10.9Z"/>
  <path class="cls-77" d="M1461.1,356.7c25.7,21.3,34.2,48.8,29.5,81.2-1.7,12-3.8,24.2,1.4,35.9,2.3,5.1,5.6,9.7,8.7,14.5,3.8,5.9,3.3,8.7-2.8,12.1-9.3,5.2-18.7,10.1-28,15.3-5.4,3-10.3,3-15.9,0-26.9-14.4-39.8-40.3-35.5-70.8,1.3-9.3,1.7-18.8,1.3-28.2-.5-9.7-5.3-17.7-13.6-23.8,3.4-1.9,6.9-3.2,10.4-4.5,17.4-6.8,34.6-14,44.5-31.4Z"/>
  <path class="cls-69" d="M616.9,378c.6,3.1,1.3,6.1,1.5,9.6-1.9.8-3.3,1.4-4.8,1.4-4.7,0-7,2.2-8.1,6.8-2.1,8.9-4.7,17.6-7.1,26.5-.6,2.4-1,4.9-1.6,8.5,12.4-7.4,25-10.3,37.9-11.8,5.6,1,11.2,1.5,16.6,3,8.6,2.4,14.5,8.4,19.2,16.2,8.3,21.8,4.9,41.7-8.9,59.9-9.5,12.4-22.1,18.8-37.8,16.3-18-2.8-31.2-12.4-36.8-30.3-2-6.4-2.3-13.4-3.4-20.9,0-3.5,0-6.2,0-10.1-2.3,2.1-3.6,3.1-4.7,4.3-11.6,12.9-23.2,25.7-34.7,38.6-.7.8-.9,1.9-1.4,2.9,0,0,0,0-.3-.1-.8.3-1.4.8-1.9,1.2-11.4,11.5-22.8,23-34.8,34.4-4.3-3.4-7.6-.2-10.8,1.1-.5.2.5,3.9.9,6,0,.5.3.9.5,1.4-2.1,1.6-4.1,3.2-6.8,4.9-4-1.3-7.4-2.8-10.9-4.2,12.3-10.7,24.6-21.3,37-32.3,11.5-12.7,22.6-25.2,34.1-37.3,10.5-11.1,21.4-21.7,31.9-32.8,1.8-1.9,3.2-4.5,3.9-7.1,1.3-4.8,2-9.7,3-15.4,2.4-9.3,4.7-17.8,7.2-26.8-7,.4-13.2.8-19.5,1.2-14-1.3-28.1-1.7-41.9-4.1-16.5-2.8-30.8-10.8-43-23.5-10.8-12.7-16.6-26.7-17.8-42.7,3.1.3,6.3.5,9.8,1.3,2.3,13.4,6.5,25.2,16,34.6,8.9,10.6,20.7,16.7,33.8,19.6,10.3,2.3,20.9,2.9,32.3,4.3,10.1-.3,19.2-.6,28.4-1,3.9-.1,6.1-1.6,7.4-5.7,7.3-23.1,16.5-45.7,18.6-70.4.8-7.5,1.2-14.9,1.7-22.7-.2-12.6-1.9-24.4-6.8-35.5-7.3-16.6-19.8-26.4-38.4-25.8-33.2,1.1-58.4,16.8-76.9,44-3.6,0-7.3,0-11.4,0,19.5-32.6,47.9-51.8,86.5-53.9,23.4-1.2,41.9,11.2,49.8,33.2,3.6,10,4.9,20.9,7.3,31.9,1,29.1-5.4,56.4-14.6,83.2-.5,1.6-.8,3.2-1.6,5.4-1.7,4.6-3,8.6-4.6,13.4,2.5-.5,4.1-.8,5.6-1.1M661.9,477.3c1-7,3-14,2.9-21-.1-15.2-9.2-24.9-23.8-26.4-16.3-1.7-30.7,3.9-44,12.8-1.2.8-2.4,2.6-2.5,4-.9,12.6-1.9,25.3,3.2,37.4,6.1,14.5,23,23.5,37.9,20,13.9-3.3,21-13.7,26.3-26.7Z"/>
  <path class="cls-51" d="M1018.6,426.4c-.8-3.1-1.3-6.3-1.7-9.9,9.6-4,19.2-7.5,29.5-11.3-1.5-6.9-3.1-15-4.9-23-2.4-10.9-4.8-21.8-7.1-32.6-1.7-8.1,2-14.3,10.1-16.1,26.1-5.8,52.3-11.4,78.5-16.9,6.3-1.3,12.6,2.9,14.1,9.7,4.4,19.6,8.6,39.3,12.9,58.9,1.2,5.7,2.6,11.3,3.8,17,2.1,10.2-1.8,15.8-12,18-24.5,5.3-49.1,10.7-73.6,16-9.4,2-15.2-1.5-17.3-10.7-2.3-9.6-2.4-10-12.1-7.1-6.8,2-13.2,5.2-20.2,8.1M1117.5,412.1c11.8-8.8,12.6-17.1,2.6-27.8-.5-.5-.9-.9-1.4-1.4-6.9-7.2-6.4-9.7,2.7-13.9.3-.1.4-.5.6-.7-2.6-11-5.2-12.7-14-9.1-15.2,6.3-17.9,18-6.2,29.8,6.5,6.5,8.3,12.2-2.4,16.1-.3,0-.4.5-.6.8,4.3,13.5,3.9,12.8,15.5,8.1.9-.4,1.7-1,3.2-1.9M1071,425c13.7-3.8,17.9-9.3,17.1-23.3-.5-8.3-1.7-16.5-2.9-24.8-2-14-.1-11.1-13.1-9.7-5.1.6-5.6,2.9-4.9,7.3,1.7,9.7,2.8,19.4,4.3,29.1.7,4.7-1.3,8.2-5.7,9.1-6,1.2-5.7,5.6-5.3,9.5.6,4.8,5,2.3,7.7,2.9.6.1,1.3,0,2.9-.2Z"/>
  <path class="cls-36" d="M1543.1,355.6c11.4,5.8,22.8,11.6,34.5,18,0,5.5-.3,10.5-.6,15.5-1,15.9-2,31.7-3,47.6-1,16.2-2.1,32.4-3,48.6-.8,13.9-1.3,27.8-2,41.7-.3,6.1-.7,12.2-1.1,18.3-.9,16.4-1.9,32.7-2.8,49.1-2.2,1.1-4.4,2.1-6.5,3.1-4.5-5.9-8.6-11.5-12.8-17-4-5.2-9.3-7.4-16.3-6.5.5-14.1,1.5-27.8,2.4-41.5,1.1-16.2,2.1-32.4,3-48.5.8-13.9,1.3-27.8,2-41.7.3-5.8.7-11.6,1-17.3,1-14,1.9-28,2.9-42.1.7-9.1,1.4-18.1,2.1-27.2Z"/>
  <path class="cls-17" d="M1565.5,594.2c.6-16.3,1.5-32.6,2.5-49,.4-6.1.7-12.2,1.1-18.3.7-13.9,1.3-27.8,2-41.7.9-16.2,2-32.4,3-48.6,1-15.9,2-31.7,3-47.6.3-5,.7-9.9,1-15.3,11.1,5.7,22.2,11.8,33.3,18,.8.5,1.4,1.3,2.4,2.6,0,2.9-.5,5.1-.6,7.4-1,16-2.1,32.1-3,48.1-1.1,19.2-2,38.4-3,57.6-.3,5.8-.7,11.6-1,17.4-1,17.4-2,34.8-2.9,52.1-12.4,5.7-24.8,11.4-37.5,17.2Z"/>
  <path class="cls-19" d="M1542.9,355.4c-.5,9.3-1.2,18.3-1.9,27.4-1,14-2,28-2.9,42.1-.4,5.8-.8,11.6-1,17.3-.7,13.9-1.3,27.8-2,41.7-.9,16.2-1.9,32.4-3,48.5-.9,13.7-1.9,27.4-2.9,41.5-3.6,1.8-7.3,3.1-12.1,4.8,2.5-7.8,4.7-14.5,6.9-21.2,3.2-10-.4-16.2-10.7-18.2-4.4-.9-8.8-1.6-13.2-2.4-10.5-1.9-13.3-.7-18.7,8.8-2.4-8.7-7.1-14.1-16.9-13.8-.4-1.5-.5-2.6-.5-3.7,4-1.5,8.3-2.5,12.1-4.5,9.3-4.8,18.5-9.8,27.6-14.9,9.6-5.4,13.5-15.6,6.9-23.5-12.7-15.1-12.4-31.6-9.7-49.4,1.4-8.8.4-17.9,1-27.4,1-1.8,2-3,2.1-4.2.8-13,1.2-26.1,2.2-39.1.6-8.4,1.9-16.7,2.9-25,11.2,5,22.4,10,33.9,15.2Z"/>
  <path class="cls-17" d="M644,46.1c12.8,3,25.7,6.1,38.8,9.9.2,59,.2,117.3.2,175.6-12.8-1-25.5-2-38.6-3.7-.4-61.1-.4-121.4-.4-181.8Z"/>
  <path class="cls-35" d="M1461.1,356.3c-10,17.8-27.1,25-44.5,31.8-3.5,1.4-7,2.7-10.7,4.3-5.8,1.4-11.4,2.5-17.8,3.8-24,5-47.4,7.2-71.1,6.9-8.2-.7-16.4-1.3-24.6-2.1-3.2-.3-4.7.7-5.7,3.8-2.6,8.2-5.5,16.2-8.5,25.1-6.8,15.6-13.4,30.5-20.1,45.3-2.3,5.1-5.2,9.9-7.9,14.9,0,0,0,0-.2,0-.4.2-.6.4-.7.6-8.1,10.1-15.5,20.8-24.6,30-8.9,9.1-19.4,16.6-29.7,25.2-2.6.9-4.7,1.6-6.8,1.8-3.4.3-4.7,2-4.3,5.2-12.3,5.3-24.3,11.3-36.9,15.8-20.7,7.4-42,12-65.1,11.3-7-1.1-13.1-2.2-19.5-3.4-3.2-.9-6.2-1.7-9.2-3-.3-3.9-.6-7.3-.9-10.7,13.7,5,27.9,8,42.5,6.9,21.2-1.5,41.6-7.1,61.2-14.9,24.4-9.7,46-23.9,63.9-43.3,4.6-5,8.6-10.5,13-16.1,4.2-6.3,8.7-12.1,12.3-18.4,10.7-18.2,18.6-37.8,25.7-57.6.2-.5.1-1,.4-2.1,2.4-6.3,4.4-12.1,6.7-18.4-6.7-1.5-12.9-2.8-19-4.1-.4-4.1.4-7.5,5.7-8.9,4.3.8,7.9,1.3,11.3,2.4,4.8,1.6,6.8,0,6.7-4.9,2.1-5.9,4.2-11.8,6.5-18.1,1.7-3.6,3.3-6.8,4.8-10.1,6.1-13.3,12.6-26.4,23.6-36.5,5-4.5,10.9-7.9,16.8-11.9-.3,4.1-1,8.2-2.2,12.8-2.9,2.3-5.4,3.9-7.5,6-11.1,10.8-17.8,24.3-23.5,38.4-3.5,8.6-6.5,17.3-10,27,9.9.6,18.8,1.1,27.7,1.7,36.4.5,71.8-4.4,105.5-18.9,7.2-3.1,13.9-7.7,20.2-12.6,3.3-2.6,5-7.2,7.4-11.6.6-6.1-2.3-9.7-6.2-13-2.9-2.1-5.7-3.9-8.6-6-11.1-4.8-22.1-9.3-33-13.8.5-3.1,1.1-6.2,1.8-9.7,15.5,4.1,30.2,10,44.1,19.2,5.6,5.6,10.7,10.8,12.1,18.3-.3,3.7-.6,7.4-.9,11.5Z"/>
  <path class="cls-50" d="M634.2,813.7c-12.7,2.2-25.5,4.5-38.7,6.2-.5-16.3-.5-32.1-.5-47.9,0-41.8,0-83.5-.1-125.3,2.9-5.7,6.9-8.8,14-8.2,7.7.7,15.5,0,23.7.4.5,55.3.4,110.2.5,165,0,3.3.8,6.6,1.2,9.8Z"/>
  <path class="cls-71" d="M643.6,46c.4,60.5.4,120.9.4,181.8-3.9,1.1-6.3-.4-8.6-3.8-11-16.8-22.4-33.5-33.4-50.8.5-2.4.9-4.2.9-5.9-.3-30.4-.7-60.8-.9-91.2-.1-11,0-22,0-32.9,13.7.9,27.5,1.8,41.6,2.9Z"/>
  <path class="cls-72" d="M683.4,231.7c-.4-58.4-.4-116.7-.4-175.5,13.3,5,26.6,10.5,39.7,16.5-.7,2.1-1.6,3.7-1.7,5.4-.2,3.8,0,7.7,0,11.5.3,48.4.7,96.8,1,145.2-12.7-1-25.4-2-38.6-3.1Z"/>
  <path class="cls-45" d="M594.6,646.8c.3,41.6.4,83.3.4,125.1,0,15.8,0,31.6,0,47.9-14,.7-28.1.9-42.6.5-.4-37.2-.4-73.8-.5-110.4,0-2.1-1.1-4.2-1.7-6.3,14.7-18.9,29.3-37.8,44.3-56.8Z"/>
  <path class="cls-4" d="M634.6,813.6c-.8-3.2-1.6-6.5-1.6-9.8,0-54.8,0-109.6,0-164.9,12.7-.6,25.4-.8,38.5-.5-.2,2.6-1.4,4.8-1.4,7,.3,51.9.6,103.9,1,155.8-12,4.1-24,8.2-36.5,12.4Z"/>
  <path class="cls-9" d="M1316.8,403.4c23.8,0,47.3-2.3,70.9-7.2-2.1,13.4-4.6,26.9-7.1,40.4-3.1,16.6-6.4,33.1-9.5,49.7-1.4,7.3-3.5,8.9-11,7.4-16.6-3.3-33.1-6.5-49.7-9.7-7-1.3-8.6-3.2-7.3-10.1,2.7-14.3,5.5-28.6,8.3-42.9,1.8-9.1,3.5-18.2,5.4-27.6Z"/>
  <path class="cls-80" d="M722.4,234.9c-.8-48.5-1.1-96.9-1.4-145.3,0-3.8-.2-7.7,0-11.5.1-1.7,1-3.3,2-5.1,12.2,7.5,24,15.3,35.9,23.8.1,47.5.1,94.3,0,141-12-.9-24.1-1.9-36.6-2.9Z"/>
  <path class="cls-2" d="M1603.4,577c.6-17.3,1.6-34.7,2.6-52.1.3-5.8.7-11.6,1-17.4,1-19.2,2-38.4,3-57.6.9-16,2-32.1,3-48.1.2-2.3.6-4.6,1-7.3,5.5,2.5,11.1,5.3,16.5,8.4,5.6,3.2,10.9,6.8,16.4,11.1-.6,10.2-1.4,19.6-1.9,29-.8,13.9-1.4,27.8-2.1,41.7-.3,5.8-.7,11.6-1,17.3-1.3,19.6-2.6,39.3-3.9,58.9-11.4,5.4-22.8,10.7-34.6,16.1Z"/>
  <path class="cls-3" d="M704,638c13.7-.2,27.4-.5,41.5-.2.5,34.9.4,69.3.5,103.7,0,1.8,1.2,3.6,1.9,5.4-10.9,12-22.5,23.1-36.6,31.5-1.7,1-3,2.5-5,3.4-.7-2.3-1.3-4.2-1.4-6.2-.4-39.6-.7-79.1-1-118.7,0-6.3,0-12.6,0-19Z"/>
  <path class="cls-43" d="M703.5,638c.5,6.4.4,12.7.5,19.1.3,39.6.6,79.1,1,118.7,0,2,.6,3.9,1,6.3-11.4,6.7-22.8,12.9-34.6,19.1-.7-51.9-1.1-103.8-1.4-155.7,0-2.2,1.2-4.4,1.9-6.9,10.4-.5,20.8-.6,31.6-.6Z"/>
  <path class="cls-32" d="M687,440.4c3.4-4.7,6.9-9.1,10.4-13.4,15.2-18.5,33.6-32.8,56.7-41.9,6.1-1.2,11.4-2.2,17.2-3.2,7.8,1.1,15.1,2.1,22.4,3.1,7.3,3.8,14.8,7.1,21.7,11.5,7.5,4.7,14.5,10.3,22.1,15.6,8,9.2,16.3,17.8,23.1,27.6,4.4,6.4,7.1,14.2,9.5,21.7,4.2,13.5.3,25.8-8,37.2-15.3,17.8-35.5,25.5-57.5,29.8-27,5.2-53.9,5.1-80.3-3.4-12-3.9-23-9.7-31.9-18.8-15.7-16.2-18.5-38-8.1-59.5.9-1.9,1.8-3.9,2.6-6.2M738.4,403.9c-18.4,12-34.3,26.4-44.5,46.2-11.3,22.1-5.9,43,14.9,56.4,6.1,3.9,12.9,7,19.8,9.3,19.8,6.5,40.2,7.2,60.7,4.9,17.1-1.9,33.7-6,48.8-14.7,24.1-13.9,29.9-34.7,15.6-58.6-12.2-20.4-29.7-35.3-50.5-46.3-8.8-4.7-18.1-8.4-28.3-9.1-13.5-.9-24.8,5.1-36.6,11.9Z"/>
  <path class="cls-28" d="M601.6,43.1c.5,11,.4,22,.5,33,.3,30.4.7,60.8.9,91.2,0,1.8-.4,3.6-1,5.6-12.6-18.5-24.9-37.3-36.9-56.2-7.7-12-15.3-24.2-22.6-36.4-7.8-13.1-5.6-19.7,8.4-26.3,15.9-7.4,32.8-10.4,50.7-10.9Z"/>
  <path class="cls-78" d="M759.4,237.9c-.4-46.8-.4-93.6-.3-140.9,14.3,10.8,26.8,23.8,37.5,38.8-.7,2-1.6,3.6-1.6,5.1.3,33.3.6,66.6.9,99.9-12-.9-24.1-1.9-36.6-2.9Z"/>
  <path class="cls-38" d="M748.2,746.8c-1-1.7-2.2-3.5-2.2-5.3-.1-34.4,0-68.8,0-103.6,21.9-.4,43.8-.4,67.1-.4-2.8,8.7-5,17.6-8.6,26-13.3,31.3-33.9,57.7-56.3,83.3Z"/>
  <path class="cls-58" d="M550,703.8c.8,1.9,1.9,4,1.9,6.1.1,36.6,0,73.2,0,110.3-17.4-1.1-34-5.1-49.5-13.4-1.2-.6-2.3-1.2-3.5-2-11.7-7.5-13.2-13.2-5.3-24.5,12.6-18,25.7-35.6,38.6-53.2,5.7-7.8,11.6-15.4,17.6-23.3Z"/>
  <path class="cls-6" d="M1463.5,528.1c.4,1.2.5,2.2.5,3.7-20.6,6.6-41.2,12.9-62.4,19.3-.7-9.7-4.6-15.9-12.5-19.6-1-.4-1.3-2.9-1.4-4.4-1.2-36.3-2.6-72.5,6.7-108.2,1.6-6.1,2.5-12.3,3.7-18.8,8.6,4.5,11.8,11.8,12,20.3.1,7.4-.5,15-1.6,22.3-5.6,35.7,11.6,68.3,44.6,83.2,3,1.4,6.7,1.3,10.5,2Z"/>
  <path class="cls-77" d="M1078.8,457.9c16.4-22.3,49.8-19.6,61.6,5.2,6.5,13.7,4.9,27-4.8,38.7-9.5,11.4-22.1,15.1-36.3,11.5-14.9-3.8-23.8-13.8-26.6-29.1-1.7-9.5.8-18.1,6.1-26.4Z"/>
  <path class="cls-41" d="M1638.4,560.9c1-19.6,2.3-39.2,3.6-58.9.4-5.8.7-11.6,1-17.3.7-13.9,1.3-27.8,2.1-41.7.5-9.4,1.3-18.8,2-28.7,6.7,3.3,13.5,7,20.1,10.9,2.2,1.3,4.1,3,6.5,5.1-.4,12.5-1,24.4-1.7,36.3-.3,5.5-.7,10.9-1,16.4-1.3,21.3-2.6,42.6-3.9,63.9-9.4,4.6-18.9,9.3-28.6,13.9Z"/>
  <path class="cls-67" d="M796.4,240.9c-.8-33.4-1.1-66.7-1.4-100,0-1.5.9-3,1.7-4.8,21.2,28.8,41.1,58.4,50.1,93.7,1.2,4.8,1.8,9.7,2.9,15.4-18.1-1.5-35.5-2.9-53.3-4.4Z"/>
  <path class="cls-25" d="M372.7,315.1c3.1,13.6,5.7,27.2,8.3,40.8.3,1.5.6,2.9.5,4.9-.7,2.4-1.4,4.2-1.4,6.1,0,42.4,0,84.7,0,127.1-5.7,0-11.4,0-17.5-.6-.5-29.2-.5-57.9-.5-86.6,1.3-.4,2.7-.8,4.9-1.4-2.9-.5-5-.9-7.5-1.8-.4-29.5-.4-58.4-.4-87.4,4.4-.3,8.8-.6,13.7-1Z"/>
  <path class="cls-40" d="M1369.3,596.6c-7,6.1-13.7,12.1-20.3,18.2-2.6,2.4-5.2,2.3-8,.1-3.1-2.5-6.3-4.8-9.7-7.4,6.6-7.2,12.7-13.8,19.1-20.8-3.8-1.9-6.9-3.4-9.9-5.1-1-.5-2.2-1.3-2.5-2.2-1.1-2.6,7-11.7,9.9-11.2,2.6.5,5.2,1.1,7.7,1.8,5,1.3,9.6-2,9.7-7.4,0-.8-1.8-2.4-2.6-2.4-6.4.8-13.3-.4-18.8,4.8-2.2,2.1-5.2,3.6-7.9,5.2-1.4.8-3,1.6-4.5,2-2.4.6-14.2-11.3-13.5-13.7.2-.8,1.2-1.5,1.9-2.1,6.8-6.1,13.8-11.9,20.5-18.2,2.7-2.6,4.7-2.8,6.8.3,2.2,3.3,5.3,4,9,3.7,7.6-.6,15.3-1,22.9-1.4,8.5-.4,12.9,3.4,11.7,11.9-.9,6.4-3.5,12.7-5.6,18.9-.8,2.4-2.2,4.7-3.5,7.4,2.5,1.2,4.7,2.3,6.8,3.5,2.4,1.4,3.3,3.2,1.3,5.6-.8,1-1.5,2.2-2.2,3.3q-6.9,10.2-18.3,5.3Z"/>
  <path class="cls-13" d="M1667.4,547c1-21.3,2.3-42.6,3.6-63.9.3-5.5.7-10.9,1-16.4.7-11.9,1.4-23.8,2-36.1,9.2,5.1,18.3,10.7,27.7,16.9-.4,7.5-1.3,14.4-1.7,21.3-1.4,21.4-2.7,42.8-4,64.2-9.4,4.7-18.9,9.3-28.6,14Z"/>
  <path class="cls-33" d="M816.8,616.7c4.7-12.4,9.7-24.4,10.4-37.4-.4-.5-.8-.9-1.2-1.4-4.5,2.7-9.4,5-13.5,8.3-4.2,3.4-7.7,7.8-11.5,11.8-1.9,2-3.7,2.4-6.1.8-3.6-2.4-7.5-4.3-11-6.9-.8-.6-1.3-3.3-.7-4.2,5.1-7.8,10.5-15.3,15.6-23.1,1.8-2.7,3.5-3.5,6-1.4,3,2.5,5.9,2,9.2.5,7-3.1,14.1-6,21.2-8.8,8.1-3.2,13.1-.4,15.1,8.1,2.6,11.3.7,22.2-2.5,33-3.9,13.1-9.8,25.4-17.6,36.7-2.3,3.4-4.8,4.7-8.8,2.9-3.6-1.6-7.4-2.6-11.7-4,2.6-5.2,4.8-9.8,7.2-14.7Z"/>
  <path class="cls-55" d="M1423,578c-5.6.7-10.7,1.6-15.8,1.7-1.5,0-3-2-4.5-3.2-.1,0-.1-.3-.2-.5-4.2-14.6-4.1-14.3,10.5-18.2,16.9-4.5,33.6-9.6,50.3-14.7,4.6-1.4,6.8-.4,8.1,4.1,1.1,3.7,2.8,7.1,4.2,10.7,2.3,5.9,2.2,6.3-3.7,8.1-9.5,2.9-19.1,5.6-29.5,8.7,2.2.5,3.9.9,5.5,1.2,6.7,1,7,1.5,6,7.9-1.9,11.3-4,22.6-5.6,34-.6,3.9-2.4,4.6-5.7,4.1-4.3-.7-8.5-1.5-12.8-2-4.1-.5-5.1-2.4-4.4-6.4,2.1-10.9,3.7-22,5.5-33,.2-.9,0-1.9,0-3.5-2.7.3-5.1.6-7.9,1Z"/>
  <path class="cls-55" d="M1062.6,576.7c6.1,1.1,12.2,2.2,18.7,3.3q9.1,4.1,4.7,13-6.2,12.6-19.4,6.9c-3.5-1.5-7-2.8-11.4-4.6.8,9.8,1.6,18.6,2.3,27.5,1.1,14.2,3,11.7-10.9,13.3-.7,0-1.3,0-2,0-8.9.5-8.8.5-9.5-8.6-1.7-20.9-3.5-41.8-5.3-62.6,0-1-.4-1.9-.7-3.8.6-3.8-2.2-8.1,3.2-9.2,4.4-.3,8.9-.3,13.2-.9,4.3-.6,6.1,1,6.2,5.1,0,2,.3,3.9.5,6.3.3,3.9.6,7.3.9,11.6.4,3.9.7,6.9,1.2,10.9,1.5-2.3,2.3-4.1,3.6-5.4,1.3-1.2,3.1-1.9,4.7-2.8Z"/>
  <path class="cls-53" d="M1196.9,344.9c-2.3,2.2-4.7,4.1-7.5,6.1-10.3-10.5-20.4-21.1-30.3-31.9-18.1-19.8-36.4-39.4-59.8-53.2-23.9-14.1-49.6-19.5-77.2-15.1-12.5,2-24.8,4.8-37.7,6.9-1.3-3.3-2.2-6.2-3-9.2,13.2-2.6,26.3-5.8,39.6-7.8,23.4-3.5,46-.8,67.9,8.7,26.8,11.6,47.6,30.8,67.3,51.7,13.6,14.4,27,29,40.7,43.8Z"/>
  <path class="cls-55" d="M730.5,560.3c-5.2-1.4-9.9-3-14.8-4-3.4-.8-3.9-2.4-2.8-5.4,1-3,2-6,2.6-9.1.8-4.6,3-5.6,7.3-4.3,10.4,3,20.9,5.6,31.3,8.5,9.4,2.6,12.4,8.5,8.5,17.4-11.2,25.9-31.2,41.1-58.5,47.3-1.3.3-3.7-.3-4.4-1.3-2.5-3.5-4.6-7.3-6.5-11.2-1.5-3.1,1.4-3.6,3.4-4.2,10.8-3.6,19.9-9.9,28.1-17.6,3-2.8,5.6-6.1,8.3-9.3,2.7-3.2,2.5-5.7-2.5-6.7Z"/>
  <path class="cls-70" d="M952.3,582.7c-5.4-.6-10.3-1.3-15.3-1.8-3.1-.3-4.5-1.5-3.9-4.8.6-3.6,1.3-7.2,1.5-10.9.2-3.7,1.7-4.9,5.4-4.3,14.9,2.2,29.9,4.1,45.2,6.2-1,12.7,4.8,20.3,17.2,23.1-5.8,15.1-15.4,27-27.3,37.3-3,2.6-6.3,4.9-9.3,7.5-2.4,2.1-4.6,2.1-7.1.1-3.4-2.8-7-5.6-10.4-8.3,9.8-13.4,19.4-26.5,29-39.5-.3-.6-.7-1.1-1-1.7-7.8-.9-15.6-1.9-23.9-2.9Z"/>
  <path class="cls-70" d="M871.8,275.9c-.3-18.6,12.2-30.3,31.6-31.9.8,3.2,1.7,6.5,2.7,10.4,5.4-1.2,10.7-2.3,16-3.6,2.7-.6,5.2-.9,5.9,2.5.7,3.3-1.7,4.2-4.4,4.8-5.2,1.1-10.3,2.4-15.9,3.8,1.5,6.5,2.9,12.7,4.5,19.5,5.6-1.2,10.9-2.3,16.2-3.6,2.8-.7,5.3-.6,6,2.5.7,3.3-1.8,4.2-4.4,4.8-5.2,1.2-10.3,2.4-15.9,3.7.7,3.7,1.4,7.2,2.1,10.6-17.9,7.2-32.6,2.5-42-13.9-1-3.6-1.8-6.6-2.5-9.6Z"/>
  <path class="cls-5" d="M1696.4,532.9c1-21.4,2.2-42.8,3.6-64.2.5-6.9,1.3-13.8,2-21,9.3,5.6,18.5,11.6,27.9,18.3-.9,17.7-1.9,34.7-2.9,51.8-10.1,5-20.2,10.1-30.6,15.2Z"/>
  <path class="cls-70" d="M1202.2,591.1c-6.5.9-12.6,1.8-18.7,2.8-2.9.5-4.4-.4-4.6-3.6-.2-3.5-.6-7-1.2-10.4-.6-3.2.3-4.5,3.6-5,17-2.3,33.9-4.9,50.9-7.2,8.8-1.2,13.1,2.1,13.3,11,.4,15.3-3.5,29.7-11.7,42.6-.9,1.5-3.4,2.4-5.3,2.6-2.2.3-4.6-.5-6.9-.7-8.1-.6-8.1-.7-5.7-9.1,1.8-6.5,3-13.3,4.3-20,.3-1.5,0-3.2,0-5.4-6.1.8-11.8,1.5-18,2.3Z"/>
  <path class="cls-33" d="M1508.3,572.3c-2.4,7.4-4.6,14.5-7.2,22.5,3.7,0,6.5.2,9.2,0,3-.3,4.3,1.1,4.6,3.8,0,.7.1,1.3.3,2,2.4,11.5,2.5,11.9-9,13.9-8.5,1.5-17.2,2-25.8,2.2-6,.2-7.7-2.6-6.1-8.4,5.5-19.5,11.2-38.9,16.8-58.4.9-3,2.1-4.3,5.7-3.4,5.9,1.6,12,2.4,18.7,3.6-2.5,7.7-4.8,14.7-7.2,22.2Z"/>
  <path class="cls-55" d="M567.5,564.9c-2.4-.4-4.8-.4-7.8-.4,2.8,10.3,5.1,19.6,7.8,28.8,1.1,3.8,0,5.5-3.6,6.5-12.5,3.7-9.8,4.5-13.7-6.4-2.5-7.2-4.7-14.5-6.8-21.9-.9-3.1-2.2-3.8-5.3-3.2-7.4,1.5-7.4,1.3-8.8-5.7q-1.6-7.9,8.4-10.5c-.2-1.1-.4-2.2-.6-3.3q-1.7-7.3,5.9-8.8c.3,0,.7,0,1-.1q8-1.6,10.3,6c.4,1.2.8,2.5,1.4,4.1,5.8-.9,11.6-1.7,17.2-2.7,12.4-2.1,17.4,3.6,13.4,15.6-1.1,3.4-3.1,6.6-5.1,9.6-4.7,6.8-5.4,6.5-12.4,2.8-6-3.1-1.6-6.6-1.3-10.4Z"/>
  <path class="cls-1" d="M380.5,494c-.5-42.4-.5-84.8-.4-127.2,0-1.9.7-3.7,1.4-5.7,3.1,14.2,5.8,28.5,8.5,42.8,5.6,29.8,11.3,59.6,16.8,89.8-8.7.4-17.3.3-26.4.3Z"/>
  <path class="cls-33" d="M981.2,248.2c1,3.2,1.9,6.2,2.8,9.5,1,20-12.2,31.8-31.6,33.3-4.3-18.4-8.6-36.9-12.9-55.3,17.6-7.2,32.1-2.7,41.6,12.5Z"/>
  <path class="cls-55" d="M924.1,573c1.9,18.2-.2,35.4-9.1,51.1-8.2,14.6-6.9,12-19.8,8.3-1.7-.5-3.3-1.2-5.2-1.9.5-1.5.7-2.7,1.2-3.7,10.8-18.6,10.6-38.7,8.2-59.1,0-.8-.2-1.7-.3-2.5-1.3-11.1-3.3-9.6,9.9-11.3.7,0,1.3,0,2-.1,11.1-1.1,9.4-2,12,9.7.6,2.9.8,5.9,1.2,9.3Z"/>
  <path class="cls-81" d="M358.5,316c.5,29,.5,58,.5,87.4-6.8,0-13.6-.4-20.7-1.5-.3-28.7-.3-56.8-.3-84.8,6.7-.4,13.4-.7,20.5-1.1Z"/>
  <path class="cls-31" d="M1462.4,344.9c-1.8-7.6-6.9-12.8-12.1-18.3,12.8-3.4,24.7,1.3,36.6,5.2,7.3,2.3,14.3,5.3,21.8,8.2-.7,8.6-2,16.9-2.6,25.2-.9,13-1.4,26.1-2.2,39.1,0,1.3-1.1,2.5-2.1,3.8-4.3-23.6-15-43.5-33.6-58.9-1.8-1.5-3.7-2.8-5.9-4.3Z"/>
  <path class="cls-60" d="M337.5,317.1c.4,28.1.4,56.1.4,84.6-7.4,0-14.7-.3-22.5-1.2-.4-5.5-.4-10.4-.4-15.3,2.9-.4,5.8-.9,8.8-1.3,0-.2,0-.4,0-.5-2.1-.2-4.1-.4-6.5-1.3-.3-11.1-.3-21.5-.3-31.9,1.4-.4,2.8-.9,4.7-1.5-1-.5-1.7-.7-2.5-1.7-.2-9.8-.2-18.9-.2-28,6-.6,12.1-1.2,18.6-1.8Z"/>
  <path class="cls-11" d="M274.9,448.7c10.8-2.2,21.7-4.5,32.5-6.7.6-.1,1.2-.5,2.3-.4.7,2.3,1.2,4.2,1.3,6.2,0,14.1,0,28.3,0,42.4-11.7-1.1-23.4-2.2-35.6-3.8-.4-12.9-.5-25.3-.5-37.6Z"/>
  <path class="cls-29" d="M311.3,490.4c-.3-14.4-.3-28.5-.3-42.6,0-2-.5-3.9-.9-6.3,5-3.4,5.3-4.3,1.3-7.2-.4-8.1-.4-15.7-.4-23.3,6.1-.6,12.1-1.2,18.6-1.4.4,27.7.4,54.9.4,82.2-6.1-.4-12.2-.8-18.7-1.4Z"/>
  <path class="cls-55" d="M1296.6,604.6c-9,3.8-17.8,7.4-26.5,11.2-3.4,1.5-5.5,1-7.1-2.6-1.6-3.6-3.8-7-5.8-10.5-3.2-5.7-3.1-5.6,3.1-8.4,13-5.9,26-11.9,38.9-17.9,2.3-1,4.4-2.3,6.6-3.5q7.5-4.2,11.9,3.5c5.9,10.3,5.9,10.4-3.6,17.1-5.6,3.9-11.5,7.3-17.6,11.1Z"/>
  <path class="cls-55" d="M484.6,619.7c-.6.3-.9.5-1.2.6q-6.7,3.7-11.6-2.1c-1-1.2-1.8-2.4-2.8-3.5-8-9.1-6.2-7.5,2.2-13.5,13.9-9.8,27.6-19.7,41.2-29.9,3.4-2.6,5.7-2.9,8,.9.3.4.6.8.9,1.2q7.9,9.9-.8,18.8c-10.6,10.8-22.4,19.9-35.9,27.4Z"/>
  <path class="cls-7" d="M274.5,448.8c.5,12.3.5,24.7.5,37.5-17.3-1.9-34.8-3.3-51.6-8.4,0-.6,0-1.2,0-1.8,7.7-1.1,15.5-2.3,23.2-3.4,0-.4,0-.8,0-1.2-4.3-.6-8.6-1.1-13.3-2.4-.3-6.7-.3-12.7-.3-18.7,13.7-.5,27.3-1,41.5-1.6Z"/>
  <path class="cls-10" d="M361.5,406.7c.5,28.7.5,57.3.5,86.5-5,.2-10.1,0-15.5-.8-.5-28.5-.5-56.4-.5-84.4,5-.4,10-.9,15.5-1.3Z"/>
  <path class="cls-59" d="M345.6,408c.4,28,.4,55.9.4,84.4-5,.2-10.1-.1-15.6-.5-.4-27.3-.4-54.5-.4-82.2,5-.9,10.1-1.3,15.6-1.6Z"/>
  <path class="cls-65" d="M1727.3,517.6c.7-16.9,1.7-33.9,2.7-51.4,14.3,8.9,28.5,18.3,43.4,28.1-15.8,8-30.8,15.6-46.1,23.3Z"/>
  <path class="cls-39" d="M316.6,350.1c.4,10.4.4,20.8.4,31.7-13.1-.6-26.1-1.7-39.5-3.3-.4-8.2-.4-15.9-.4-23.6,8.3-1,16.7-1.9,25-2.9,4.7-.6,9.5-1.3,14.6-1.9Z"/>
  <path class="cls-76" d="M232.5,450.2c.5,6.1.4,12.1.4,18.6-29-2.1-57.4-6.6-84.1-18.3,0-.7,0-1.4,0-2.1,1.5-.4,3-1.3,4.5-1.2,26.2.9,52.5,1.9,79.2,2.9Z"/>
  <path class="cls-32" d="M1086.1,280.1c4.2-1,8.3-2.1,12.5-3.1,6-1.4,5,3.9,6.2,6.8,1.5,3.6-1.2,4-3.9,4.6-4.4.9-8.7,1.9-13.5,3.3,6.7-.9,7.4,3.6,7.9,8.1.5,4.4.8,8.9,1.2,14.3-3,0-5.2-.2-7.5,0-2.8.3-3.8-1-4.2-3.6-.9-5.9-2.1-11.7-3.1-17.6-.5-.2-1-.4-1.5-.6-1.1,2.3-2.4,4.5-3.4,6.8q-4.1,9.5-13.2,4.7c-.4-.2-.8-.5-1.5-1,5.2-12.1,10.3-24,15.5-36.2,3.7,1.6,7,3,10.8,4.6-1,2.7-1.9,5.1-3,8.1-.1.8,0,1.1,0,1.3.2-.2.4-.4.6-.5Z"/>
  <path class="cls-32" d="M1006.8,282.3c-.9-1.6-1.6-2.9-2.9-5.4-1.3,3.5-2.2,6.1-3.3,9,2.3.3,4.1.5,6.1.7v10.1c-4.2,1.8-11.5-2.6-11.7,5.8-.9.2-1.2.3-1.5.3-9.7-1.7-10-1.8-6.9-11.3,2.7-8.2,6-16.1,9.1-24.2,1.8-4.6,5.6-5.3,10.1-5.4,4.2,0,4.7,3,6.1,5.5,5.5,9.6,10.8,19.4,16.6,29.7-3.5,1.5-6.4,3-9.5,3.8-1.1.3-3.3-1.1-4-2.3-2.9-5.2-5.5-10.6-8.4-16.3Z"/>
  <path class="cls-22" d="M823.3,299.6c5,4.4,4.1,10.4,3.5,15.8-1.2,12.2-4.9,23.6-15.8,30.7-3.2,2.1-7.4,2.6-11.6,3.4-.2-2.8,0-5.2.4-8,.4-3.5.8-6.5,1.2-9.9.6-3.2,1-5.9,1.6-9.1.8-5.9,1.6-11.3,2.6-17,6.2-2.1,12.1-4,18-6Z"/>
  <path class="cls-70" d="M629.7,587.7c-5.9,4.4-11.4,8.6-17.1,12.7-4,2.9-7.5,2.7-10.6-1.7-2.3-3.2-5.1-6.1-7.8-9.1-1.9-2.2-1.8-4,.8-5.7,9.6-6.2,19.2-12.6,28.9-18.6,1.2-.7,3.8-.3,5,.6,3.2,2.4,5.8,5.4,8.8,8.1,2.3,2.1,2,4,0,5.9-2.6,2.6-5.3,5.1-8.2,7.8Z"/>
  <path class="cls-32" d="M1037.9,296.3c-10.7-7.9-12.8-20.2-5.4-30.4,6.4-8.8,20.3-10.5,30.1-3.8,3.5,2.4,4.5,4.6,1.3,7.9-1.1,1.1-2,2.5-3.1,3.8-5.4-3.3-10.5-6.9-16.2-1.9-3.3,2.9-4.4,7.2-2.1,10.9,4.4,7.4,11.1,5.5,18.1,2.8.6,2.3.9,4.2,1.6,6,1.3,3.2-.2,4.5-2.9,5.6-7.2,3-14.2,3.2-21.4-.9Z"/>
  <path class="cls-70" d="M678.9,591.1q5.8,12.8-7.5,16.4c-12.4,3.3-9.9,2.8-13.5-7-3.2-8.6-6.2-17.2-9.4-25.8-1.3-3.5-.6-5.1,3.3-5.8,13.8-2.4,13.8-2.5,20.7,9.9,2.2,3.9,4.2,7.9,6.4,12.3Z"/>
  <path class="cls-62" d="M1444,638.8c-19.5,4.1-32.2-2.3-40.9-21.1-2.6-5.7-4.5-11.8-6.4-17.8-1.4-4.3,3.2-9.9,7.6-10,4.8,0,9.5-.5,14.9-.8-1.2,7.8-2.4,15.3-3.7,22.7-1.9,10.9,1.2,15.5,12,17.5,5.2,1,10.5,1.8,16.1,3.2.4,2.4.4,4.4.4,6.3Z"/>
  <path class="cls-46" d="M769.1,320.1c-12.9,6.5-25.7,12.9-39.2,19.6-14.9,7.6-29.2,15-43.5,22.4-.4-3.4-.7-6.9-.9-10.7,15.4-8.3,30.7-16.2,46.7-24.4,8.7-4.3,16.8-8.3,25.1-12.2.2,0,.7,0,1,.1,3.8,1.8,7.3,3.5,10.8,5.2Z"/>
  <path class="cls-7" d="M276.5,354.9c.5,7.7.5,15.4.4,23.5-13.7-1.1-27.5-2.7-41.6-4.8-.4-5.7-.4-10.8-.5-15.8,6.1-.5,12.2-1.2,18.3-1.6,7.6-.5,15.3-.9,23.3-1.3Z"/>
  <path class="cls-32" d="M1183.9,553.3c-.4-3.6.8-5.4,4.2-5.6,2.1-.2,4.2-.8,6.6-1.5,8.8-1.7,17.3-3.1,25.8-4.8,3.8-.8,5.7.2,6.1,4.1.3,3.1.8,6.3,1.4,9.4.8,3.9-.9,5.4-4.6,6-11,1.8-22,3.7-32.9,5.8-3.6.7-5-.7-5.4-3.9-.4-3-.8-5.9-1.3-9.3Z"/>
  <path class="cls-55" d="M874.8,560.9c8-1.1,8.6-1,9.3,7,.7,8.3.7,16.6,1,24.9.1,3.6-1.8,5.1-5.2,5.2-1.8,0-3.7,0-5.5.1-9.3.3-9.4.3-11-9-1.2-7.2-2.1-14.5-3.3-21.7-.6-3.6.7-5.3,4.4-5.5,3.3-.2,6.6-.7,10.4-1Z"/>
  <path class="cls-53" d="M288,345.9c-17.6-.9-35.2-1.9-52.8-2.8-.2-.9-.5-1.7-.7-2.6,3.5-2.2,6.6-5.5,10.4-6.6,14-4.1,28.1-7.4,42.7-10.6.4,7.8.4,15.2.4,22.5Z"/>
  <path class="cls-73" d="M288.4,345.9c-.5-7.4-.5-14.8-.5-22.6,10-1.8,20.1-3.1,30.5-4.4.5,9.1.5,18.2.4,27.8-10,0-20.1-.3-30.5-.8Z"/>
  <path class="cls-77" d="M793.9,384.6c-7.4-.6-14.8-1.6-22.5-3.1-1.1-5.5-1.8-10.5-2.5-15.9,0-4.8,1.2-8.6,5.1-11.4,8.5-1,16.6-2.2,24.7-3.3-1.5,11.1-3.1,22.2-4.7,33.7Z"/>
  <path class="cls-53" d="M1032.1,551.6c-5.2,1.4-2.5,5.7-3.1,9.1-23.4-15.7-37.8-37.7-44-65.3-.4-1.8-.6-3.6-1-5.8,3.5,1.1,6.9,2.6,10.7,4.3,5.5,23.9,18.3,42.6,37.4,57.7Z"/>
  <path class="cls-55" d="M1250.4,490c2.3-4.9,5.2-9.8,7.5-14.9,6.8-14.8,13.3-29.7,20.1-45,12.1,21.1,6.8,41.4-14.1,53.8-4.1,2.4-8.7,4.1-13.4,6.1Z"/>
  <path class="cls-11" d="M310.5,411c.5,7.6.4,15.2.4,23.3-10.7.3-21.4,0-32.5-.7-.5-6.9-.5-13.2-.5-19.6,10.7-1,21.4-2,32.6-3Z"/>
  <path class="cls-11" d="M314.6,385.1c.4,5,.4,9.9.4,15.3-21.7-.6-43.3-1.6-65-2.6v-2c20.5-8.1,42.4-8.5,64.5-10.7Z"/>
  <path class="cls-33" d="M1543.4,593.6c2.4,3.8,4.6,7.3,6.6,11,1.3,2.5,1.1,4.6-2.3,5.7-5,1.6-9.9,3.9-14.9,5.3-1.3.4-4-.7-4.7-1.9-3.7-6.7-7.1-13.5-10.5-20.4-1.2-2.4-.8-4.1,2.1-4.8,1.4-.3,2.8-1,4.2-1.5q11.9-4,19.6,6.5Z"/>
  <path class="cls-76" d="M234.5,357.8c.5,5.1.5,10.2.5,15.7-17.9-2.6-35.9-5.5-53.8-8.7-2.7-.5-5.1-2.2-7.6-3.4,0-.6.2-1.3.3-1.9,2.1-.4,4.3-1.2,6.4-1.2,17.9-.3,35.8-.4,54.2-.6Z"/>
  <path class="cls-55" d="M773.3,608.3c-3.4,3.7-6.6,7.1-9.6,10.6-2,2.4-3.8,2.7-6.2.4-5.1-4.8-10.3-9.4-15.5-14-2.6-2.3-2.5-4-.1-6.5,9.8-10.3,10-10.4,22.4-3.5,3,1.7,5.7,4,8.7,5.8,3.5,2.1,3.6,4.4.4,7.3Z"/>
  <path class="cls-55" d="M1278.6,563.6c-4.1,2.9-7.9,5.5-11.7,8.2-2.3,1.7-4.1,1.4-6.1-.7-4.3-4.7-8.6-9.2-13-13.7-2.5-2.6-2.2-4.5.9-6.3,2.2-1.2,4.2-2.7,6.2-4.1,7.3-4.8,7.4-4.9,14.8.2,3.4,2.4,6.6,5.1,9.7,7.8,3.2,2.9,3.8,5.8-.8,8.5Z"/>
  <path class="cls-24" d="M758.1,278.8c14.6,2,29.2,4,43.8,6.1,3.5.5,5.2,2.7,4.6,6.6-20.8.4-41.1.4-61.4,0,0-1.1,0-1.7,0-2.4-.6-8.1-.6-8,7.8-8.3,1.8,0,3.5-1.3,5.2-2.1Z"/>
  <path class="cls-64" d="M757.7,278.6c-1.4.9-3.1,2.2-4.9,2.3-8.4.3-8.4.2-7.8,8.3,0,.7,0,1.3,0,2.8,1,3.2,1.9,5.6,2.9,8.4,3,5,6,9.7,9,14.4-8.1,4-16.2,8-24.6,12,1.7-14.4,3.6-28.9,5.7-43.3.8-5.6,3.9-7.5,9.5-6.2,3.2.7,6.5.8,10.1,1.4Z"/>
  <path class="cls-20" d="M798.8,350.8c-8.2,1.2-16.3,2.3-25.3,3.3-2.9-.5-5-1-7.1-1.1-8.4-.1-16.8,0-25.2,0,1.5-3.8,3-7.7,5.2-11.7,2.4.1,4.2.6,6,.6,15.8,0,31.6,0,47.5,0-.3,2.4-.5,4.8-.8,7.6,0,.6,0,.9-.3,1.2Z"/>
  <path class="cls-7" d="M277.6,414c.4,6.4.4,12.7.4,19.5-10.7.4-21.4.4-32.5-.1-.5-5.5-.5-10.4-.5-15.4,6.8-1,13.6-2.1,20.5-3,3.9-.5,7.8-.7,12.1-1.1Z"/>
  <path class="cls-68" d="M1018,571.9c-1.8,8.6-5.8,12.8-12.7,13.8-5.6.8-11.5-2.2-14.3-7.2-2.8-5.1-2.6-10.3.6-15.1,3.4-5,8.3-7.2,14.2-6.2,5.7,1,9.7,4.3,11.4,9.9.4,1.4.5,2.9.8,4.8M1008.1,569.4c-2-1-4.5-3.1-6-2.6-1.6.5-3.3,3.7-3.2,5.5.1,1.4,3,3.6,4.8,3.7,3.6.2,5.2-2.3,4.4-6.7Z"/>
  <path class="cls-66" d="M1444.4,638.8c-.4-2-.4-3.9-.4-6.2,9.2-.8,12.6-3.9,14-13.2,1.9-12.3,4.2-24.6,5.9-36.9.8-5.5,5.3-3.8,8.8-5.1-2.4,8.4-4.8,16.7-7.2,25.1-.7,2.5-1.4,5.2-1.6,7.8-.6,9.8,5,16.1,14.9,16.7,1.3,0,2.6.2,4.1,1.4-12.7,3.5-25.5,7.1-38.6,10.5Z"/>
  <path class="cls-55" d="M453.5,568.1c1.8-.7,3.6-1.4,5.7-2.1,5,3.5,9.8,6.8,14.2,10.5,4.1,3.4,3.7,5.4-.7,8.4-3.4,2.3-6.8,4.9-10.4,6.9-1.3.8-4.1,1.2-4.8.5-5.1-5.1-9.9-10.6-15.1-16.4,3.6-2.5,6.4-4.4,9.5-6.6.2-.3.1-.2.4-.3.6-.3.9-.6,1.2-.9Z"/>
  <path class="cls-69" d="M871.4,275.9c1.1,3,1.9,6,2.6,9.4-16.4,4.7-32.9,9.1-49.7,13.1-1-3.3-1.7-6.3-2.3-9.2,16.3-4.4,32.7-8.8,49.4-13.2Z"/>
  <path class="cls-55" d="M478.6,543.5c3.8,1.6,7.2,3,11,4.5,5.8,4.1,6,4.6,1.7,9.6-3.1,3.6-6,9.2-9.8,9.9-3.7.7-8.4-3.6-12.9-5.9-2.2-2.7-7.6-2.5-6-8,2.2-2.6,4.4-4.7,6.2-7.1,2.5-3.3,5.4-4.7,9.8-3.2Z"/>
  <path class="cls-18" d="M244.6,418c.4,5,.4,9.9.4,15.3-13.2,0-26.3-.3-39.5-.7-.2-.9-.4-1.8-.7-2.7,3.7-2,7.3-4.8,11.2-5.9,9.2-2.5,18.7-4.1,28.5-6Z"/>
  <path class="cls-63" d="M543.3,499c0-1,.3-2.2,1-3,11.5-12.9,23.1-25.8,34.7-38.6,1.1-1.2,2.4-2.2,4.7-4.3,0,3.8,0,6.5-.1,9.6-9.5,16.7-23.4,28-40.3,36.3Z"/>
  <path class="cls-37" d="M747.9,300c-.9-2.4-1.9-4.8-2.8-7.6,20.3-.4,40.5-.4,61.3-.4.5.4.5.8.3,1.7-6.4,2.8-12.5,5.1-18.9,7-2.4-.8-4.6-1.7-6.8-1.7-11,.2-22,.6-33,.9Z"/>
  <path class="cls-23" d="M788,301.1c6.1-2.3,12.2-4.6,18.7-7,5.1-1.7,9.9-3.2,15-4.8,1,2.9,1.6,5.8,2.3,9.2,0,.5-.2.7-.5,1-6.1,2.1-12,4-18.6,6.2-3.1,1-5.4,1.8-8.1,2.3-3.5-.5-6.9-.4-10.1-1-2-.4-3.9-1.7-5.5-2.8,2.5-1.1,4.6-2.1,6.7-3.1Z"/>
  <path class="cls-68" d="M672.2,563.7c-.6.2-.7.2-.9.2-9.2.6-10.5-.7-10.2-11.5,3.4.2,8.2-.9,9.9.9,2,2.1,1.2,6.7,1.3,10.4Z"/>
  <path class="cls-63" d="M496.8,543.2c-.4-.7-.6-1.2-.7-1.6-.4-2.1-1.4-5.8-.9-6,3.2-1.4,6.5-4.5,10.5-1,.6,1.3,1,2.4,1.3,3.5.5,2,3.3,4.6-.1,5.8-3.1,1.1-6.9,4.5-10.1-.7Z"/>
  <path class="cls-55" d="M516.5,530.5c1.2.7,2.1,1.1,2.9,1.7,5.5,3.5,5.6,7.8-.2,10.8-1.3.7-4.1-.8-5.8-2-1.8-1.2-3-3.2-4.5-4.9,2.4-1.9,4.9-3.9,7.6-5.7Z"/>
  <path class="cls-68" d="M674.9,557.7c2.3-2.3,5-5.9,7.1-5.6,2.9.4,5.6,3.7,7.7,6.3.4.5-2.5,4-4.4,5.5-1,.8-3.5.9-4.5.2-2.2-1.6-3.9-4-5.9-6.4Z"/>
  <path class="cls-63" d="M541.1,500.1c.2-.5.7-.9,1.5-1.3-.2.5-.7.9-1.5,1.3Z"/>
  <path class="cls-55" d="M1249.3,490.6c0-.2.1-.4.5-.6,0,.2,0,.4-.5.6Z"/>
  <path class="cls-26" d="M619.8,306.1c-1.8,24.5-11,47.1-18.3,70.2-1.3,4.1-3.6,5.6-7.4,5.7-9.1.3-18.3.6-27.9.9-3.1-2.1-5.7-4.1-8.3-6.1,3.4-6,7.3-11.6,9.9-17.8,13.2-31.6-1.3-67.4-32.9-83.2-10.9-5.4-22.4-8-34.7-9.8,18.1-27.2,43.3-42.9,76.5-44.1,18.6-.6,31.1,9.1,38.4,25.8,4.9,11.1,6.6,22.9,6.5,35.7-.7,4.1-1.2,7.5-1.4,10.9-.3,3.9-.2,7.8-.4,11.8Z"/>
  <path class="cls-14" d="M472.6,419.6c9.2-.6,18.1-1.7,26.9-1.6,9.7.1,17.1,6.4,19.7,15.3,2.3,7.8-.9,15.6-8.7,21.6-6.9,5.3-15,7.6-23.5,8.9-12,1.8-12,1.7-14.2-10.2-1.7-9.1-3.2-18.3-5.3-27.4-1.1-4.6,0-6.6,5.1-6.7Z"/>
  <path class="cls-21" d="M473.4,322.9c1.6,16,7.5,30,18,42.6-9.8,7-21.1,9.1-33,11.2-3.1-16.5-6.1-32.7-9.2-49.3,7.7-3.6,15.6-4.7,24.2-4.5Z"/>
  <path class="cls-75" d="M499.8,358.6c-9.6-9-13.8-20.9-15.7-34.1,16.8,4.3,23.8,19.3,15.7,34.1Z"/>
  <path class="cls-75" d="M576.7,393.5c6.1-.7,12.4-1.1,19.4-1.5-2.4,9-4.7,17.5-7.2,26.4-4.1-7.9-8.1-16.2-12.2-24.9Z"/>
  <path class="cls-21" d="M1259.1,395.2c6.1.9,12.2,2.3,19,3.7-2.3,6.3-4.3,12-6.7,18-4.3-6.9-8.3-14.1-12.3-21.7Z"/>
  <path class="cls-15" d="M1282.4,383.4c.6,5-1.5,6.5-6.2,4.9-3.4-1.1-7-1.6-11-2.4,4.9-3.7,10.9-2.9,17.2-2.5Z"/>
  <path class="cls-75" d="M686.4,362.4c14.3-7.7,28.6-15.1,43.2-22.5-1.3,12.6-3,25.3-4.8,37.9-.1,1-1.1,2.4-1.8,2.6-6.6,1.2-13.4,3.2-20,3-9.9-.4-13.7-8.1-15.9-16.7-.3-1.3-.5-2.6-.7-4.3Z"/>
  <path class="cls-75" d="M634.6,418.7c-12.8,1.8-25.3,4.7-37.8,12.1.7-3.6,1-6.1,1.6-8.5,2.3-8.8,5-17.6,7.1-26.5,1.1-4.6,3.4-6.8,8.1-6.8,1.5,0,2.9-.6,4.8-1,3.2,11.3,8.2,21.7,16.2,30.7Z"/>
  <path class="cls-56" d="M799.9,341.6c-15.9.4-31.7.5-47.5.4-1.8,0-3.6-.5-5.8-.8,4.6-3.4,9.6-6.7,15.4-9.9,2.5.4,4.3.8,6.1.8,11,0,22,0,33,0-.4,3-.7,6.1-1.1,9.5Z"/>
  <path class="cls-12" d="M768.8,366c.7,5,1.4,10.1,2.1,15.5-5.4,1.4-10.7,2.4-16.5,3.4-3.9-6-7.3-12.1-10.4-18.5,8.5-.4,16.7-.4,24.8-.4Z"/>
  <path class="cls-57" d="M768.9,365.6c-8.2.4-16.4.4-25,.4-1.3-4-2.1-8.1-2.8-12.6,8.5-.4,16.9-.5,25.3-.4,2.1,0,4.2.6,6.8,1-3,3-4.2,6.8-4.2,11.6Z"/>
  <path class="cls-79" d="M797.1,308.2c2.4-.8,4.8-1.6,7.6-2.4-.4,5.4-1.1,10.9-2.4,16.7-9.5.4-18.4.4-27.3.5-1.2-.8-2.5-1.6-3.7-3,8.6-4.3,17.2-8,25.8-11.8Z"/>
  <path class="cls-48" d="M774.9,323.3c9-.3,18-.3,27.3-.4,0,2.7-.5,5.5-1.1,8.7-11,.4-22,.4-33,.4-1.8,0-3.6-.4-5.8-.8,3.9-2.6,8.2-5,12.6-7.8Z"/>
  <path class="cls-61" d="M796.8,307.9c-8.3,4.1-16.9,7.8-25.7,11.8-.6.3-1,.3-1.8.3-3.8-1.7-7.3-3.4-10.9-5.5,7.4-3.7,15-7,22.5-10.3,1.9.9,3.8,2.2,5.8,2.6,3.2.6,6.5.5,10.1,1Z"/>
  <path class="cls-75" d="M616.9,377.5c-1.6.8-3.1,1.1-5.7,1.6,1.6-4.8,2.9-8.8,4.5-13,.6,3.5.9,7.2,1.2,11.4Z"/>
  <path class="cls-14" d="M1319,392.4c-8.9-.1-17.8-.7-27.8-1.3,3.6-9.7,6.6-18.5,10-27,5.7-14.1,12.4-27.6,23.5-38.4,2.1-2.1,4.6-3.7,7.3-5.7-4.1,23.9-8.6,47.9-13.1,72.4Z"/>
  <path class="cls-21" d="M1403.9,317.3c11.1,4.1,22.1,8.6,33,13.7-2.2,2.4-4.3,4.2-6.7,6.1-.6.4-.9.8-1.3,1.2-9.1-2.2-18.3-4.5-27.9-6.8.9-4.4,1.8-9.1,2.9-14.1Z"/>
  <path class="cls-15" d="M1429.2,338.5c0-.6.4-1,1.5-1.4,5.6,0,10.4,0,15.2-.2,3.8,3.1,6.6,6.7,6,12.4-7.5-3.3-15-6.9-22.8-10.9Z"/>
  <path class="cls-74" d="M368.1,568.1q-1.9,8-9.4,6.3c-1.8-.4-3.5-.7-6-1.2-1.9,8.3-3.8,16.5-5.6,24.6-1.2,5.2-2.3,10.4-3.4,15.6-.6,2.7-1.7,4-4.9,3.1-3.6-1.1-7.4-1.8-11.2-2.5-3.1-.6-3.9-2-3.1-5.3,2.8-11.8,5.4-23.6,8-35.5.3-1.3.4-2.6.7-4.3-3.5-.8-7-1.3-10.1-2.6-1.3-.5-2.9-2.8-2.7-4,1.8-14.1,1.9-14.1,15.6-11,9.2,2.1,18.5,4.1,27.7,6.2,6.6,1.5,6.6,1.5,5,8.2-.2.6-.3,1.3-.5,2.3Z"/>
  <path class="cls-74" d="M407.8,573.3c-.2,3.7-.5,7-.7,10.5-2.6,0-4.7,0-6.8,0-4.6.2-6.9,2.4-6.3,7,.4,3.4,1.6,6.8,2.5,10.1,3.7,13.7-2.7,23.5-16.9,24.9-4.7.5-9.6-.4-14.4-.8-3.2-.3-4.6-2.1-4.2-5.4.4-3.3.6-6.6.9-10.4,2.7,0,5.1.2,7.5,0,5.7-.5,7.9-3.6,6.7-9.2-.8-3.6-1.8-7.1-2.6-10.7-2.6-12,2.5-20.3,14.5-22,5.1-.7,10.6.1,15.8,1,1.5.3,2.7,3,4,5Z"/>
  <path class="cls-82" d="M453.1,568.1c0,.2-.3.5-.9.9,0-.2.3-.5.9-.9Z"/>
  <path class="cls-49" d="M661.8,477.7c-5.2,12.7-12.3,23-26.2,26.4-14.9,3.6-31.8-5.5-37.9-20-5.1-12.1-4.2-24.8-3.2-37.4.1-1.4,1.3-3.2,2.5-4,13.3-8.9,27.7-14.5,44-12.8,14.6,1.5,23.7,11.3,23.8,26.4,0,7-1.9,14-3,21.4Z"/>
  <path class="cls-24" d="M620.2,305.8c-.2-3.7-.2-7.6,0-11.5.2-3.4.7-6.8,1.4-10.4-.2,7.1-.6,14.4-1.4,22Z"/>
  <path class="cls-16" d="M1117.2,412.3c-1.2.7-2,1.3-2.9,1.7-11.6,4.7-11.2,5.4-15.5-8.1.2-.3.4-.7.6-.8,10.7-3.9,8.8-9.6,2.4-16.1-11.7-11.8-9-23.5,6.2-29.8,8.8-3.6,11.4-1.9,14,9.1-.2.3-.3.6-.6.7-9.1,4.2-9.6,6.7-2.7,13.9.5.5.9.9,1.4,1.4,10,10.7,9.2,19-2.9,28Z"/>
  <path class="cls-16" d="M1070.5,425c-1.1,0-1.8.3-2.4.1-2.8-.6-7.2,1.9-7.7-2.9-.4-3.9-.7-8.3,5.3-9.5,4.4-.9,6.4-4.4,5.7-9.1-1.4-9.7-2.6-19.4-4.3-29.1-.8-4.4-.2-6.8,4.9-7.3,13-1.4,11.1-4.3,13.1,9.7,1.2,8.2,2.4,16.5,2.9,24.8.8,14-3.4,19.5-17.5,23.4Z"/>
  <path class="cls-62" d="M1445.7,336.7c-4.7.3-9.5.4-14.8.4,1.7-1.8,3.8-3.6,6.1-5.7,3,1.5,5.7,3.3,8.7,5.3Z"/>
  <path class="cls-15" d="M1062.3,576.5c-1.3,1.1-3.1,1.7-4.4,3-1.3,1.3-2.1,3.1-3.6,5.4-.5-4-.8-7-1.1-10.5,3,.4,5.9,1.2,9.1,2.1Z"/>
  <path class="cls-34" d="M738.8,403.7c11.5-6.7,22.8-12.6,36.3-11.8,10.2.6,19.4,4.4,28.3,9.1,20.8,11,38.3,25.9,50.5,46.3,14.3,23.9,8.5,44.7-15.6,58.6-15.1,8.7-31.7,12.8-48.8,14.7-20.5,2.3-40.9,1.6-60.7-4.9-6.9-2.3-13.7-5.4-19.8-9.3-20.8-13.4-26.2-34.2-14.9-56.4,10.1-19.8,26.1-34.2,44.8-46.4M717.4,471c-3.1.6-6.2,1-9.2,1.9-1.2.4-2,1.8-3,2.7,1,1,1.9,2.5,3.1,2.9,3.5,1,7.1,2.3,10.6,2.2,6.9-.3,13.7-1.4,20.5-2.5.9-.1,2.3-1.8,2.3-2.7,0-.8-1.5-1.9-2.5-2.5-2.3-1.2-4.8-2-7.1-3.8,1.6-4.1.5-7.5-3-9.9-3.1-2.1-6.3-1.8-9.2.5-3.8,3.1-3.6,7-2.5,11.2M789.6,472c-1.8,1.2-3.6,2.3-5.4,3.5,1.9,1.3,3.7,3.1,5.8,3.8,2.6.9,5.5,1.5,8.2,1.4,6.4-.4,12.8-1.1,19.1-2.1,1.3-.2,2.4-2,3.5-3-1.3-1-2.5-2.7-3.9-3-4.7-.9-9.5-1.2-14-2.5,2.1-5.9.2-10.6-4.9-11.9-4.3-1.1-9.1,1.7-9.6,6.2-.2,2.4,1.2,4.9,1.1,7.5M768.3,466.3c-.5.4-1,.8-1.5,1.3-5.3,5.9-7.2,5.9-13.4,1-1.4-1.1-5-1.4-6-.5-1.3,1.3-2.1,4.6-1.4,6.3,2.1,4.9,6.3,7.5,11.8,7.7,6.8.3,12.5-1.9,16.2-7.7,1.1-1.7,1.6-4.7.8-6.2-.8-1.4-3.8-1.6-6.5-2M792.8,411.8c3,1.9,6.2,3.3,8.5-.7,2.3-3.9-.4-6.1-3.4-8-3.1-1.9-6.2-3.9-9.2-5.9-2.8-1.8-5.1-1.1-6.8,1.5-1.7,2.7-1,5.1,1.6,6.9,2.9,2,5.8,3.9,9.3,6.2M768.5,404.1c.9,3.9,1.3,8,2.8,11.6.6,1.5,3.9,3.4,5.2,3,1.8-.6,4-3.4,3.9-5.2,0-3.9-1-8-2.5-11.6-.8-2-3.5-4.5-5.3-4.5-3,0-4.9,2.5-4.1,6.7M748.2,408c1.2,1.9,1.9,4.8,3.6,5.5,1.5.6,4.3-.7,5.9-2,2.2-1.7,4.2-3.9,5.4-6.4.9-1.8,1.2-5.1.1-6.5-1.9-2.5-5-2.5-7.3,0-2.6,2.8-5,5.7-7.7,9.3Z"/>
  <path class="cls-82" d="M1086,280c0,.3-.2.5-.5.7,0-.3-.2-.5-.2-1,.1-.2.5.1.6.3Z"/>
  <path class="cls-27" d="M781.3,304.1c-7.9,3.5-15.4,6.8-23.2,10.4-.2.3-.7.3-.9.3-3.2-4.7-6.2-9.4-9.3-14.4,10.9-.7,21.9-1.1,32.9-1.3,2.2,0,4.4.9,6.8,1.7-1.9,1.3-4,2.2-6.5,3.4Z"/>
  <path class="cls-15" d="M1008.2,569.7c.7,4-.9,6.5-4.5,6.3-1.8,0-4.7-2.3-4.8-3.7-.2-1.9,1.6-5,3.2-5.5,1.5-.5,4,1.6,6.1,2.9Z"/>
  <path class="cls-8" d="M768.7,466.2c2.4.6,5.3.7,6.1,2.1.8,1.5.3,4.5-.8,6.2-3.7,5.9-9.4,8-16.2,7.7-5.4-.3-9.7-2.8-11.8-7.7-.7-1.7,0-5,1.4-6.3,1-1,4.6-.6,6,.5,6.2,4.9,8.1,4.9,13.4-1,.4-.5,1-.9,1.8-1.5Z"/>
  <path class="cls-47" d="M802.7,470.9c4.7.5,9.5.9,14.2,1.7,1.4.3,2.6,2,3.9,3-1.2,1-2.2,2.8-3.5,3-6.3,1-12.7,1.7-19.1,2.1-2.7.2-5.6-.5-8.2-1.4-2.1-.8-3.9-2.5-5.8-3.8,1.8-1.2,3.6-2.3,6.2-3.5,5,3.2,8.8,2.1,12.4-1.1Z"/>
  <path class="cls-47" d="M731.9,470c2.4,1,4.9,1.9,7.2,3,1.1.5,2.5,1.6,2.5,2.5,0,.9-1.3,2.6-2.3,2.7-6.8,1-13.7,2.2-20.5,2.5-3.5.2-7.2-1.1-10.6-2.2-1.2-.4-2-1.9-3.1-2.9,1-.9,1.9-2.3,3-2.7,3-.9,6.1-1.3,9.9-1.8,6.2,4.1,8.9,3.8,13.8-1.1Z"/>
  <path class="cls-44" d="M792.4,411.6c-3.2-2.1-6.2-4-9-6-2.6-1.8-3.3-4.2-1.6-6.9,1.7-2.6,4-3.3,6.8-1.5,3.1,2,6.1,4,9.2,5.9,3,1.9,5.7,4,3.4,8-2.3,4-5.5,2.7-8.8.5Z"/>
  <path class="cls-30" d="M802.8,470.5c-3.7,3.6-7.5,4.7-12.1,1.5-1-2.6-2.4-5.1-2.2-7.5.4-4.5,5.3-7.4,9.6-6.2,5.1,1.3,7,6,4.7,12.3Z"/>
  <path class="cls-30" d="M732,469.6c-5,5.4-7.6,5.6-13.4,1.5-2.3-4.2-2.5-8.1,1.3-11.3,2.8-2.3,6.1-2.6,9.2-.5,3.6,2.4,4.6,5.8,3,10.3Z"/>
  <path class="cls-44" d="M768.4,403.7c-.7-3.9,1.2-6.4,4.2-6.3,1.9,0,4.5,2.5,5.3,4.5,1.5,3.6,2.4,7.7,2.5,11.6,0,1.8-2.2,4.5-3.9,5.2-1.3.5-4.6-1.4-5.2-3-1.5-3.6-1.9-7.7-2.9-12Z"/>
  <path class="cls-44" d="M748.4,407.6c2.6-3.2,5-6.2,7.6-9,2.3-2.5,5.5-2.6,7.3,0,1,1.4.7,4.6-.1,6.5-1.2,2.5-3.2,4.7-5.4,6.4-1.6,1.3-4.5,2.6-5.9,2-1.7-.7-2.4-3.6-3.5-5.9Z"/>
</svg>