<?xml version="1.0" encoding="UTF-8"?>
<svg id="Layer_1" data-name="Layer 1" xmlns="http://www.w3.org/2000/svg" version="1.1" viewBox="0 0 1920 908">
  <defs>
    <style>
      .cls-1 {
        fill: #977954;
      }

      .cls-1, .cls-2, .cls-3, .cls-4, .cls-5, .cls-6, .cls-7, .cls-8, .cls-9, .cls-10, .cls-11, .cls-12, .cls-13, .cls-14, .cls-15, .cls-16, .cls-17, .cls-18, .cls-19, .cls-20, .cls-21, .cls-22, .cls-23, .cls-24, .cls-25, .cls-26, .cls-27, .cls-28, .cls-29, .cls-30, .cls-31, .cls-32, .cls-33, .cls-34, .cls-35, .cls-36, .cls-37, .cls-38, .cls-39, .cls-40, .cls-41, .cls-42, .cls-43, .cls-44, .cls-45, .cls-46, .cls-47, .cls-48, .cls-49, .cls-50, .cls-51, .cls-52, .cls-53, .cls-54, .cls-55, .cls-56, .cls-57, .cls-58, .cls-59, .cls-60, .cls-61, .cls-62, .cls-63, .cls-64, .cls-65, .cls-66, .cls-67, .cls-68, .cls-69, .cls-70 {
        stroke-width: 0px;
      }

      .cls-2 {
        fill: #573a28;
      }

      .cls-3 {
        fill: #c5845c;
      }

      .cls-4 {
        fill: #fea351;
      }

      .cls-5 {
        fill: #fce494;
      }

      .cls-6 {
        fill: #f9eddc;
      }

      .cls-7 {
        fill: #6d4410;
      }

      .cls-8 {
        fill: #faefdd;
      }

      .cls-9 {
        fill: #684d3d;
      }

      .cls-10 {
        fill: #89673e;
      }

      .cls-11 {
        fill: #8e5b2c;
      }

      .cls-12 {
        fill: #feb257;
      }

      .cls-13 {
        fill: #563724;
      }

      .cls-14 {
        fill: #fe954e;
      }

      .cls-15 {
        fill: #6f4410;
      }

      .cls-16 {
        fill: #ddb69f;
      }

      .cls-17 {
        fill: #946031;
      }

      .cls-18 {
        fill: #6e4512;
      }

      .cls-19 {
        fill: #fe9a4f;
      }

      .cls-20 {
        fill: #573927;
      }

      .cls-21 {
        fill: #563826;
      }

      .cls-22 {
        fill: #bc7d54;
      }

      .cls-23 {
        fill: #553725;
      }

      .cls-24 {
        fill: #543624;
      }

      .cls-25 {
        fill: #c2b19b;
      }

      .cls-26 {
        fill: #faefde;
      }

      .cls-27 {
        fill: #fdd776;
      }

      .cls-28 {
        fill: #c6855e;
      }

      .cls-29 {
        fill: #8d6d5b;
      }

      .cls-30 {
        fill: #fdfcfc;
      }

      .cls-31 {
        fill: #fe8047;
      }

      .cls-32 {
        fill: #855524;
      }

      .cls-33 {
        fill: #c5835b;
      }

      .cls-34 {
        fill: #e2c1ae;
      }

      .cls-35 {
        fill: #6d4310;
      }

      .cls-36 {
        fill: #cec0a9;
      }

      .cls-37 {
        fill: #845423;
      }

      .cls-38 {
        fill: #fcdf86;
      }

      .cls-39 {
        fill: #f7ecdb;
      }

      .cls-40 {
        fill: #fdc15e;
      }

      .cls-41 {
        fill: #7a4d1b;
      }

      .cls-42 {
        fill: #fecc50;
      }

      .cls-43 {
        fill: #50a4fe;
      }

      .cls-44 {
        fill: #dad0c3;
      }

      .cls-45 {
        fill: #090808;
      }

      .cls-46 {
        fill: #c6845d;
      }

      .cls-47 {
        fill: #fe904d;
      }

      .cls-48 {
        fill: #fdcb66;
      }

      .cls-49 {
        fill: #fdfdfc;
      }

      .cls-50 {
        fill: #fdda7b;
      }

      .cls-51 {
        fill: #fdcd67;
      }

      .cls-52 {
        fill: #fdd471;
      }

      .cls-53 {
        fill: #ff6943;
      }

      .cls-54 {
        fill: #734714;
      }

      .cls-55 {
        fill: #fdccd0;
      }

      .cls-56 {
        fill: #604433;
      }

      .cls-57 {
        fill: #815220;
      }

      .cls-58 {
        fill: #febc5b;
      }

      .cls-59 {
        fill: #ff7a45;
      }

      .cls-60 {
        fill: #faeeda;
      }

      .cls-61 {
        fill: #553826;
      }

      .cls-62 {
        fill: #fea954;
      }

      .cls-63 {
        fill: #533626;
      }

      .cls-64 {
        fill: #533523;
      }

      .cls-65 {
        fill: #f1e4d2;
      }

      .cls-66 {
        fill: #fcf6ed;
      }

      .cls-67 {
        fill: #6e4410;
      }

      .cls-68 {
        fill: #a36c40;
      }

      .cls-69 {
        fill: #fefefe;
      }

      .cls-70 {
        fill: #b6a288;
      }
    </style>
  </defs>
  <path class="cls-8" d="M599,1c6,0,12,0,18.2.4,1.5.8,2.8,1.5,4.2,1.6,8.3.8,16.8.8,25,2.2,23.3,4,46,9.8,68.1,18.6,40.3,15.9,74.9,39.8,102.8,72.8,12.8,15.1,23.9,31.8,34.8,48.4,12.7,19.3,23.2,39.8,29.8,60.4,10.1-.4,19.8-.8,29.5-1.3,1.5,0,2.9-1.1,4.4-1.8,5.6-2.4,11-5.5,16.9-7.1,21.5-6,42.2-4.3,61.3,8.2.9.6,2.5.2,3.7,0,9.7-1.4,19.4-3.7,29.2-4.2,15.9-.7,31.9-.6,47.8,2.6,22.1,4.5,42.6,12.5,61.3,24.8,11.1,7.3,21.7,15.6,31.5,24.5,12.5,11.3,24.2,23.5,35.8,35.7,5.9,6.3,13.3,8.2,20.8,7.5,15.1-1.5,30-2,45-.6,4.6.4,10.7,2.9,13.5.9,6.3-4.6,13-10.6,16-17.5,3.9-9.3,4.6-20,6.5-30.2,2.5-13.5,6.1-26.4,17.3-35.9,11.5-9.8,24.8-13,39.1-10.8,18.3,2.9,36.3,7.5,54.6,10.6,24,4.1,40.6,24.6,39.7,48.9-.1,2.8.8,3.8,3,5.2,10.4,6.5,20.6,13.2,30.8,20.1,3.6,2.4,6.6,6.1,10.4,7.8,16.9,7.3,34.4,13.4,51,21.3,36.6,17.4,72.2,36.6,106.6,57.8,24.1,14.9,48.5,29.4,72.3,44.7,21.2,13.5,42,27.7,62.7,41.8,11.1,7.6,19.1,17.4,20.3,31.9.8,19.3-7.8,32.6-24.3,41.2-9.2,4.7-18.4,9.4-27.6,13.9-39.9,19.5-79.8,39-119.8,58.3-15.7,7.6-31.6,14.8-47.8,22.2-5.3,1.8-9.2,4.7-12.6,8.9-11.1,13.5-27.6,16.6-43.2,21.1-3.7,1.1-7.9.4-11.9.7-2.7.2-5.6.2-8.2,1-20.8,6.5-41.3,13.8-62.3,19.6-18.6,5.2-37.3,4.4-54.8-5.1-11.1-6-20.2-14.5-27-25.2-21.3,15.5-43,11.4-57.6-.5-4.4-3.6-7.5-3.1-12.3-1.2-10.9,4.4-22,9.7-33.5,10.8-9.8,1-18.8,2.4-27.8,6.1-9.9,4.1-20.4,1.6-30.6,0-16.3-2.4-28-10.8-34.6-26-.6-1.4-2.4-2.8-3.8-3.1-11.8-2.3-20.8-8.6-27.3-18.5-1.6-2.4-2.9-2.9-5.7-2.2-6.1,1.6-12.4,2.6-18.4,4.3-1.9.5-4,2.1-4.9,3.8-4,7.5-9.5,13.6-16.6,18.3-1.6,1-2.9,3.1-3.4,5-4.1,14.2-12.9,24.7-27,28.4-11.4,3-23.6,3.8-35.5,3.9-12.2,0-22.2-6.3-30-15.9-3.7,1.8-7.1,3.5-10.5,5.1-7.2,3.4-14.3,7.1-21.7,9.9-4.1,1.5-8.9,1-13.2,2.1-36.6,9.6-73.7,10-111.1,5.9-8.3-.9-8.3-1.1-11.2,6.9-11.1,17.4-21.9,34.6-33.1,51.9-8.4,10.4-16.2,20.9-24.8,30.7-13.3,15.1-28.7,27.9-45.3,39.9-16.4,8.9-32,18.6-48.6,26.1-31.3,13.9-64.6,20.5-98.8,22.5-31,1.8-61.2-1.5-90.1-13.3-15.6-6.4-30.5-14.4-39.1-29.6-4.2-7.5-6-16.4-8.8-25.1.6-4.7.8-9,1.7-13.1,3.5-16.4,14.6-28.8,23.7-42.1,7.2-10.6,15.2-20.7,23.2-31.1,1.2-1.1,2.2-2,3-3.1,14.2-18.5,28.3-37,42.5-55.6,1.5-2,3.1-4.1,4.7-6.2-4.3-1.7-8.1-2.8-11.6-4.7-2.5-1.3-3.9-1.1-6.2.5-8.8,6-17.5,12.3-26.8,17.4-6.4,3.5-13.7,6.3-20.9,7.5-12,2-23-2.1-32.5-10-.6.7-1,1.2-1.4,1.7-15.2,22.7-36.9,30.7-63.3,23.4-26.8-7.4-53.5-14.8-80.3-22.3-25.9-7.3-40.2-25-42.1-52.3.4-4,.4-7.7,1.1-11.2,1.2-6.1,2.8-12.1,4.6-18.4,4.6-15.3,8.9-30.4,13.3-45.8-1.8-.4-3-.8-4.3-1-14.6-2.1-29.3-3.9-43.9-6.2-13.9-2.2-27.6-5.1-38.2-15.4-1.1-1-3-1.1-4.6-1.5-16-4.3-32.3-8-48-13.1-22.2-7.2-35.4-24.6-32.8-49.4,2.6-14.7,11.2-24.3,24.3-30.5,6.7-1.2,13-2.9,19.4-3.5,5.2-.5,10.6.6,15.9.6,1.9,0,3.8-1.4,5.7-2.1-.2-.5-.4-1-.5-1.5-1.6-.5-3.1-1-4.7-1.5-22.1-6.3-38.2-22.9-35.1-50.4,4-20.9,22.5-33.8,41.9-34.4,7.3-.2,14.7.1,22-.1,1.8,0,3.7-1.3,5.1-2.5,3.9-3.3,7.2-7.3,11.2-10.4,8.5-6.7,18.3-11.1,28.8-13.5,18.2-4.2,36.5-8.2,54.8-11.4,11.3-1.9,22.8-2.1,34.2-3.3,1.6-.2,3.6-1.4,4.5-2.8,7.3-11.2,17.4-18,30.4-21.3,13-3.3,26.3-4.5,38.9-10.5,18.1-8.6,37.7-13.1,57.7-15.5,1.2-.1,2.4-1.5,3.5-2.4,9.1-8.4,17.4-17.7,27.3-24.9,10-7.3,21.6-12.5,32.9-18.6,8.8-2.5,17.2-5,25.8-7.6-.5-1-.8-1.9-1.3-2.7-8.1-12.8-16.4-25.4-24.4-38.3-12-19.3-26.1-37.5-30.3-61.1-.6-8.7.8-16.6,4.4-24,8.7-18,24.1-27.8,42-34.4,16.9-6.2,34.4-9.9,52.5-10.1,1,0,1.9-1.3,2.9-1.9M805.5,305.5c6.6-2.4,13.1-4.7,20.4-7.2,14.8-4,29.5-8,44.3-11.8,1.6-.4,4.6.4,5.3,1.5,8.1,13.8,23.9,18.4,40.8,11.3-.7-3.3-1.4-6.7-2.2-10.5,5.3-1.3,10.4-2.6,15.5-3.7,2.8-.6,5.6-1.4,4.7-5-.9-3.5-3.8-2.9-6.5-2.2-5.1,1.2-10.2,2.3-15.6,3.5-1.6-6.9-3-13.1-4.5-19.5,5.7-1.4,10.9-2.6,16.1-3.8,2.7-.6,5.3-1.9,4-4.9-.5-1.3-3.7-2.5-5.4-2.2-5.4.7-10.7,2.2-16.3,3.5-1-3.7-1.9-7-2.7-10.3-18.3.2-29.1,10.9-31.9,30.6-21.8,6.5-43.2,12.9-64.6,18.4.4-4.3-.7-7.6-5.7-8.3-18.1-2.6-36.1-5.4-54.2-7.8-6-.8-8.3,1.2-9.1,7.1-2,14.3-4,28.6-6.6,43.3-14.2,7.4-28.4,14.8-42.6,22.2-1.1.6-2.4.7-3.5.3.6-22.3,1.3-44.5,1.9-66.8.2-8.6-2.2-11.4-10.8-10.6-14.9,1.3-29.7,3.3-44.6,4.2-2.3-10.5-3.4-21.5-7.2-31.5-7.4-19.4-21.6-32.3-42.9-32.9-41.8-1.1-72.2,18.9-94.7,53.7-21.4,0-41.9,4.5-61.7,12.4-9.8,3.9-19.1,9.2-30,10.4-5.9.7-11.8,2.1-17.6,3.3-6.2,1.3-7.8,3.6-6.8,9.8.7,4.4,1.4,8.8,1.3,13.3-2.7.3-5.5.6-9.1.9-7,.3-14,.7-22,1-7,.6-14.1,1.2-22,1.8-8.7,1.1-17.4,2.2-26.9,3.2-8.4,1.7-16.8,3.3-25.9,5-11.1,3.3-23.1,4.8-31.5,14,.1.6.2,1.2.3,1.8,10.6.7,21.3,1.3,32.8,2.1,8.4.3,16.7.7,25.9,1.1,8.7.4,17.4.8,26.5,1.5.5.4,1.1.9.8,1.4-6.8,1.2-13.5,2.3-21.2,3.6-8,.8-16,1.6-24.9,2.3-9.7.7-19.4,1.4-30,2.1-8.7.4-17.4.8-27,1.2-12.8,0-25.6.1-38.5.3-2,0-3.9.8-5.9,1.3v2.2c14.3,6.1,29.8,7.7,46,10.1,8.7,1.1,17.4,2.2,26.8,3.7,9.5,1,18.9,2,29.2,3.2,8.7.7,17.4,1.4,26.8,2.6,6.8.4,13.6.9,20.8,1.5-.5.5-1.1,1.1-2.5,1.7-9,.8-18,1.6-27.9,2.3-14.7,1.9-29.6,2.8-43.4,8.9,0,.6,0,1.1,0,1.7,14.7.7,29.4,1.4,45,2.3,9,.4,18.1.8,27.8,1.6,6.4.4,12.9.8,20.2,1.3,6.7.4,13.4.8,20.7,1.4,1.1.5,2.3,1.1,2.5,1.6-4.4.4-8.8.8-13.9,1.3-4.1.5-8.1,1-13.1,1.5-4.7.4-9.4.8-15,1.1-8.7.7-17.4,1.5-27,2.1-9.7,1-19.4,2-30,3-8.4,1.1-16.8,2.3-26.1,3.5-12.5,2.3-25.6,2.9-35.7,12.5,12.2,2.5,24.4,3,37.6,2.8,8.4,0,16.7,0,26,.2,9.7.1,19.4.3,29.9.7h14.7c.3.5.6,1,1,1.5-1.1,1.4-2,3.3-3.5,4.2-2.5,1.5-5.4,2.3-8.9,3.5-6.7,1.3-13.4,2.7-21,4-3.4.3-6.9.7-10.3,1-3.3.3-6.6.6-10.8.8-7.7.2-15.4.4-24,.4-6.7,0-13.4,0-21,0-22-.8-44-1.7-66-2.5-.1.9-.3,1.8-.4,2.6,21.3,10,44.2,14.1,68.2,17.6,6.7.7,13.4,1.4,21,2.3,3,.5,5.9,1,8.9,1.5v1c-7.8,1.1-15.6,2.3-23.4,3.4,0,.6,0,1.2,0,1.8,12.2,4,25,5.3,38.5,7.2,6.7.8,13.4,1.6,20.8,2.7,6.8.7,13.6,1.3,21.2,2.2,7,.5,14.1.9,21.8,1.8,4.8.2,9.5.3,15,1,4.4.1,8.9.2,14.2.4,4,.2,8.1.5,13.1.8,4.7,0,9.4,0,15,0,8,0,15.9,0,24.1.8.8,11.7,8.4,17.6,18.7,19.8,10,2.2,20.3,4,30.5,4,13.2,0,26.5-1.7,39.4-2.1-18.3,9.2-37.8,14.7-58.5,17.3-3.3-2.1-6.4-5.1-10-6.1-27.5-7.9-55-15.5-82.6-23.1-9.4-2.6-15.8,1-18.4,10.2-7.8,27.8-15.6,55.7-23.2,83.6-2.5,9,1.2,15.7,10,18.1,27.8,7.8,55.7,15.6,83.6,23.2,9.4,2.6,15.8-1.2,18.5-10.7,2-7,3.9-14.1,5.9-21.1,6-21.3,12-42.5,18.9-63.9,37.9-5.2,71-21.3,101.7-44.1.5-.4.9-.8,1.4-1.1,0,0,0,0,.7,0,14.7-7.3,27.1-17.3,36.7-30.8.9-1.2,2.2-2.2,3.4-2.4,1.1,6,1.4,12.3,3.3,18,10,31.5,50.5,41.6,71.6,17.7,16.3-18.5,21.1-39.8,13-63.3,8.3.7,16.5,1.6,24.8,1.9,13.5.6,26.8-5.3,40.4-.6-6.1,8.7-13.2,16.9-18.1,26.2-11.1,21.2-7.7,43.3,8,59.5,8.9,9.2,19.9,15.1,32,18.8,35,10.7,69.8,9,103.9-3.4,21.3-7.8,38.4-20.6,44.1-44.6,4.5-.7,5.3-3.9,5.1-7.8-.6-10.6-1.2-21.3-1.8-31.9-.9-14.8-1.8-29.5-2.6-44.3-.5-8.6-.8-17.2-1.1-25.7,13.7-2,26.5,4.4,33,15.6,5.3,9.2,6.8,19.4,7.8,29.6,1.8,19.5,8.6,36.5,24.3,49.1,4.1,3.3,8.6,6.1,12.9,10,5.4,29.6,20.1,53.2,45.1,71.1.9,9.6,1.9,19.2,2.8,28.7,1.3,14.1,2.6,28.1,3.8,42.2.2,2.5.9,4.1,3.9,3.7,4.8-.6,9.6-1.2,14.4-1.4,3.3-.1,4.4-1.4,4.1-4.6-.7-6.3-1.1-12.6-1.6-18.9-.4-5.2-.8-10.4-1.3-16.5,4.4,1.8,7.9,3.2,11.4,4.6,4.3,1.6,9.5,5.4,12.6,4.2,3.3-1.3,4.8-7.4,6.9-11.5,4.1-8.1,4-8.1-3.7-12.1-.3-.1-.5-.5.3-.7,10.6-.8,21.3-.7,31.8-2.5,24-4.1,47.1-11.5,69.5-22.2.4,2.6.8,4.8,1,7.1.4,3.7,1.8,5.2,5.9,4.3,8-1.7,16-2.8,24-4.3,16.2-3,13.6.3,11.5-16.7-.5-4.1-2.4-4.8-6.1-4-5,1.2-10,1.9-15,2.8.8-1.8,1.8-2.6,2.9-3.3,20.2-13.6,36.6-30.8,49.4-51.5,1-1.5,2.2-2.9,4-4.4,20-10.5,26.8-27.1,20-48.9,1.9-6.1,3.7-12.2,5.6-18.3,8.7,2.9,16.7,5.5,24.7,9-3.1,15.9-6.1,31.8-9.3,47.7-1.2,6.1,0,8.3,6,9.5,18.1,3.7,36.3,7.3,54.5,10.8,4.4.8,6.9-1.8,7.8-5.9,1.1-5.3,2-10.7,3.1-16.1,2.6-13.3,5.3-26.6,8.8-39.9,2.3-.1,4.5-.3,5.9-.3-.6,21.5-1.4,42.7-1.6,64-.1,15.1.6,30.3.1,45.3-4.9-.4-9.7-.8-14.6-1.3-9.4-.9-20.2,5.9-27.9-5-.1-.2-.6-.2-.9-.3-8.8,7.8-17.6,15.5-27,23.8,3.8,4.3,7.7,8.8,11.9,13,.7.7,2.9.5,4,0,4.1-2.2,8.4-4.2,11.9-7.2,6.2-5.2,13.2-3.7,21.4-4-2.1,4-3.6,7-5.1,9.8-4.8-1-9.1-2-13.5-2.6-1.4-.2-3.4.5-4.2,1.5-2.4,2.9-4.3,6.2-6.9,10,4.5,2.5,8.6,4.8,13.2,7.3-3.6,4.1-6.9,8-10.5,11.7-10.1,10.4-10.6,7,1.6,16.6,2.9,2.3,5.7,2.5,8.5,0,5.8-5.2,11.7-10.3,17.3-15.8,1.9-1.9,3.3-2.6,5.9-1.3,9.8,4.9,7.6,4.8,13.7-3.8.4-.5.7-1.1,1.1-1.7,5.7-8.2,6.6-8.2-3.4-13-.5-.3-1-.7-1.4-1,2.6-5.6,5-11,7.6-15.6.3,2.5.7,4.9,1,7.4,2.2,15.3,4.9,30.5,11,44.9,8.9,21,22.5,28.5,44.5,23,15.1-3.8,30-8.6,44.8-13.7,11.6-4,22.8-9.1,34.4-13.7,0,0,.3,0,.4.8,1.9,4.6,4.7,6.3,9.5,3.5,1.8-1.1,4-1.5,6-2.2q9-3.3,8.9-12c75.3-32.8,149.1-68.8,222.4-106.4-1.1-.8-1.8-1.5-2.6-2.1-59-40.2-119-78.9-181.6-113.4-35.6-19.6-71.6-38.2-110.6-50.2-1.1-.3-2.3-.9-3-1.7-12.9-15-29.7-24.5-47.5-32.2-5.6-2.4-11.7-3.4-17.9-5.9,0-1.3,0-2.7.3-4,1.4-7.3,2.7-14.7,4.2-22,1.9-9.4.9-11.2-8.3-13-16.6-3.2-33.2-6.3-49.8-9.4-6.2-1.2-8.6.4-9.8,6.5-1,4.9-1.8,9.8-2.7,14.7-2.5,13.3-4.9,26.7-7.8,40.6-11.6,6.8-21,16-27.2,27.8-6.6,12.7-11.9,26.2-18.2,38.7-1.8-8.1-3.8-16.2-5.5-24.3-1.2-5.7-4.6-8.7-10-9.6-19.9-3.3-39.7-3.1-59.3,2.4-5.5,1.6-11,3.6-16.8,4.9-6.4-7-12.8-14-19.1-21.1-19.1-21.4-38.3-42.7-62.5-58.7-29.4-19.4-61.5-27.3-96.5-21.9-11.8,1.8-23.5,4.6-35.3,6.8-1.7.3-4.5-.3-5.4-1.5-10.2-13.6-24.8-17.5-40.4-10.2,4.3,18.3,8.5,36.8,12.8,55.1,22.6-1.6,32.4-15.7,31.9-32.8,7.3-1.6,14.6-3.1,21.9-4.7,17.9-3.9,35.8-5.7,54-2.8,29.4,4.6,54,18.9,74.8,39.3,19.4,18.9,37.3,39.4,55.7,59.8-11.7,10.7-15.5,23.8-10.7,38.9,1.9,6.1,4.8,12,7.8,17.7,4.1,7.6,9.1,14.7,13.2,22.3,3.7,6.8,1.8,12.2-5,15.8-2.5,1.3-5.3,2.4-8,2.6-5.1.4-10.2,0-15.4.1-5.3.1-6.9,2-5.9,7.2,2.4,11.2,4.9,22.4,7.4,33.6.9,4.2,3.5,6.8,7.8,7.2,7.4.8,14.9,2.3,22.3,1.9,12.9-.7,25.7-2.6,38.4-3.3-10.4,14.7-23.1,27.1-37.8,37.4-24.7,17.2-52.4,27.1-81.3,34.2-24.2,5.9-48,6.5-71.5-3.2-.1-1.8-.3-3.6-.3-5.5-.1-4.1-1.6-6.4-6.4-5.6-4.2.7-8.6.7-13.2.4-19.2-14.7-31.9-33.6-36.3-57.3,20.8,5.2,39.6-4.6,45.2-23.4,1.8-6,.7-10.7-4.5-14.5-10-7.3-15.9-17.2-17.8-29.4,9.2-5.9,19.4-8.8,30.3-9.4.6,2.6,1.2,5.2,1.8,7.8,2.3,9.6,7.9,13.1,17.6,11,24.3-5.3,48.6-11,73.1-15.8,9.7-1.9,14.6-8.4,12.1-18.8-1.3-5.3-2.4-10.7-3.6-16.1-4.3-19.6-8.5-39.3-12.9-58.9-1.6-7-7.6-11.4-13.8-10.1-26.5,5.6-53,11.3-79.4,17.2-7.5,1.7-11.2,7.9-9.6,15.5,1,5,2.3,10,3.3,15.1,2.9,14.1,5.8,28.3,7.8,42.6-9.5,3-18.9,6.1-28.9,8.5-.5-3.6-.9-7.3-1.4-10.9-5.2-32.4-22.9-55.2-53.2-67.7-25.9-10.8-52.5-10.1-79.4-3.6-7.1,1.7-14.4,2.4-21.5,2.6,0-2,0-4,0-6,0-7.7-3.1-10.9-10.7-10.9-15.6,0-31.2,0-46.8-1,.5-4,1-8,2-12.6M1085.8,279.8s-.4-.3-.2-1c.9-2.4,1.8-4.8,2.8-7.5-3.8-1.6-7.1-3-10.8-4.6-5.2,12.2-10.3,24-15.3,35.8,9.5,6.8,10.4,6.6,14.6-3.3.7-1.5,1.2-3.1,2-4.5.5-.8,1.5-1.4,2.8-2.5,1.2,6.7,2.4,12.6,3.3,18.4.4,2.6,1.4,3.9,4.2,3.6,2.2-.2,4.5,0,7.5,0-.5-5.6-.9-10.2-1.4-14.8-.4-4.6-1.6-8.4-7.8-7.6,4.7-1.4,9.1-2.5,13.5-3.3,2.6-.5,5.3-.8,3.9-4.5-1.2-3.2-.5-8.4-6.7-6.7-4,1.1-8,2.1-12.4,2.7M595.2,645.7c-21,27.1-42.1,54.2-62.8,81.5-13,17.1-25.6,34.5-37.9,52.1-8.9,12.6-7.4,19.9,6.6,26.6,10.5,5.1,21.8,9.2,33.1,12,21.6,5.3,43.5,4.9,65.5,2.3,33.1-3.9,64.6-12.9,93.5-29.5,52-30,86.6-75.3,111.9-128.6,3.6-7.7,5.3-16.3,8.1-25.1-3,0-4.8,0-6.6,0-66,.6-131.9,1.2-197.9,1.6-6,0-10.2,1.4-13.5,7.2M740.2,82.3c-2.6-1.6-5.1-3.2-7.7-4.7-47.1-26.5-97.1-39.7-151.4-32.6-13.1,1.7-25.8,5.2-36.8,13-7.2,5-8.1,9.2-4.5,17.1.8,1.8,1.6,3.7,2.7,5.3,31.4,48.5,62.8,96.9,94.4,145.3.9,1.4,3.1,2.4,4.8,2.5,11.9,1.1,23.9,2,35.9,3,51.1,4.2,102.3,8.4,153.4,12.6,6.1.5,12.2.9,18.3,1.3-1.4-39.2-52.9-128.8-109.1-162.8M1102.5,514.1c3.5,0,7,.4,10.4,0,16-1.6,29.3-15,31-31,1.8-17.1-8.2-33.2-23.9-38.4-16.5-5.4-34,.9-42.5,15.1-12.9,21.6-1.1,49.3,25,54.2M822,635.7c3.6,1.6,5.9,0,7.9-2.9,7.9-11.4,13.8-23.9,17.8-37.2,3.2-10.7,5-21.7,2.4-33-1.9-8.2-7-11-14.8-8-7.6,3-15,6.4-22.6,9.1-2.1.8-5.2.5-7.2-.5-3.3-1.8-5-1.6-7.2,1.8-4.8,7.6-9.9,14.9-15.2,22.2-1.8,2.5-1.3,3.7,1.1,5.1,3.5,2,6.9,4,10.2,6.2,2.6,1.7,4.5,1.5,6.5-.7,3.9-4.1,7.4-8.7,11.8-12.2,3.9-3.1,8.8-5.1,13.2-7.6.4.5.9,1,1.3,1.5-2.3,18.2-9.1,35-17.9,51.9,4.3,1.4,8,2.7,12.5,4.3M735.5,541c-4.7-1.3-9.3-2.5-14-3.8-3-.8-5.1-.3-5.8,3.3-.7,3.6-1.8,7.1-3,10.5-1.1,3.2,0,4.5,3.1,5.2,4,.9,8,2.2,12,3.3,8.6,2.4,8.9,3.3,3.1,10.1-9.4,11-20.6,19.3-34.3,24.2-1.9.7-4.9,1-3.5,4.1,1.8,3.9,4,7.7,6.5,11.2.8,1.1,3.3,1.7,4.8,1.3,27.2-6.2,47.1-21.6,58.2-47.5,3.7-8.6.6-14.4-8.6-17.1-5.9-1.7-11.9-3.2-18.6-5M942.1,561.3q-6.8-.8-7.8,5.7c-.4,3-.7,6-1.2,8.9-.7,3.5.8,4.7,4.2,5,6.6.6,13.2,1.4,19.8,2.2,6.4.8,12.7,1.6,19.8,2.6-1.7,3.1-2.7,5.6-4.3,7.6-7.3,9.9-14.8,19.6-22.1,29.5-.9,1.2-1.8,4-1.2,4.5,3.6,3.2,7.4,6.2,11.4,8.8,1,.6,3.6-.2,4.8-1.2,7.2-6.2,14.5-12.3,21-19.1,7-7.3,12.3-15.9,15.6-25.6-13.4-4.4-16.4-8.3-17.3-23.2-13.9-1.9-27.9-3.7-42.7-5.8M1180.1,575.1c-5.3,2.3-1.9,6.5-1.7,9.6.7,9.4,1.1,9.4,10.4,8.3,1.5-.2,3-.4,4.4-.6,8.8-1.2,17.7-2.4,27-3.7,0,2.2.3,3.9,0,5.4-1.2,6.4-2.4,12.7-4,19-2.5,9.8-3.8,9,6.4,10.3,2,.2,4,.9,5.9.6,1.9-.3,4.4-1.1,5.4-2.6,8.2-12.8,12-27,11.8-42.1-.2-9.6-4.2-12.8-13.8-11.5-17,2.3-33.9,4.8-51.7,7.3M536.1,543.6c.6,2.9,1.2,5.7,1.9,8.8-2.5.4-4.5.5-6.4,1-1.2.3-3.1,1.4-3,2,.5,4.2.9,8.6,2.4,12.5.4.9,4.8.8,7.3.3,3.2-.6,4.4.3,5.2,3.4,2,7.4,4.4,14.7,6.7,21.9,3.2,9.7,3.2,9.4,13.1,6.5,4.5-1.3,5.3-3.3,4-7.6-2.7-8.9-4.9-17.9-7.4-27.3,2.8-.5,5.1-.8,8.3-1.4-.9,2.5-1.9,4.2-2,5.9,0,1.5.3,3.6,1.3,4.5,6.8,5.5,9,5.3,14-1.9,1.9-2.7,3.6-5.6,4.7-8.7,4.5-12.9-.5-18.5-13.9-16.2-5.5,1-11,1.6-16.6,2.4-1-3.1-1.5-5.7-2.6-8.1-.5-1.2-2.1-2.9-2.8-2.7-4.7,1-9.4,2.5-14.1,4.6M890.6,628.1c.8,1.3,1.4,3.1,2.5,3.6,3,1.3,6.3,2.1,9.5,3,3.3,1,5.5.1,7.6-2.9,16.2-23.2,17-48.6,11-75-.3-1.4-3.2-3.2-4.9-3.3-4.6,0-9.2,1-13.9,1.2-3.6.2-4.6,1.8-4.2,5.1.8,6.6,1.4,13.2,2,19.8,1.6,16.8-.8,32.8-9.6,48.3M1311.2,595.8c12.9-9.6,12.9-9.5,4.5-23.2-1.8-3-3.6-3.3-6.5-1.6-4.2,2.4-8.4,4.8-12.7,6.9-12.5,5.9-25.1,11.6-37.7,17.2-3.6,1.6-4.6,3.1-2.2,6.7,2.6,3.9,4.7,8.1,6.8,12.2,1.3,2.4,2.6,3.3,5.5,2.3,14.8-4.8,28.7-11.5,42.3-20.5M501.9,608.4c8.3-7.6,16.8-15.2,24.9-23,.9-.8.6-3.4.1-4.9-.5-1.5-2-2.6-3-3.9-7.1-8.6-6.9-8.4-16-1.6-13.4,9.8-27.1,19.4-40.8,28.8-3.5,2.4-4.2,4.2-1.3,7.4,2.8,3.1,5.6,6.2,8,9.6,2.1,2.8,4.1,2.8,6.8,1.1,6.9-4.4,13.8-8.7,21.3-13.4M1011,290.6c1.4,2.8,2.7,5.8,4.4,8.4.7,1.1,2.7,2.2,3.7,1.9,3.1-.8,6-2.4,9.5-3.8-5.8-10.4-11.1-20.1-16.6-29.7-1.4-2.4-1.9-5.6-6.1-5.5-4.5,0-8.3.8-10.1,5.4-3.1,7.9-6.4,15.6-8.9,23.7-3.5,11.2-3.5,9.3,6.7,11.7.3,0,.6-.1,1.5-.3.2-8.4,7.5-3.9,11.6-5.8v-10.1c-2.1-.2-3.8-.4-6.1-.7,1-2.8,1.9-5.4,3.2-9.1,2.7,5.1,4.8,9.2,7.2,13.9M613.6,572.1c-6,3.8-12,7.8-18.1,11.5-3,1.9-3.3,3.8-1,6.4,2.9,3.2,5.8,6.4,8.5,9.8,2.3,2.9,5.1,3.6,7.8,1.5,9.2-7,18.2-14.3,27.2-21.6,1.9-1.6,1.9-3.4,0-5.5q-10.4-11.5-23-3c-.3.2-.5.4-1.4.9M1062.1,291.2c-.5-1.7-.9-3.4-1.5-5.6-6.7,2.7-13.2,4.5-17.8-2.3-2.5-3.7-1.6-7.9,1.4-11,5.7-5.8,11.2-1.6,16.4,1.3,7.5-7.4,7.1-9.7-2.3-13.6-.5-.2-.9-.5-1.4-.6-9.8-3.4-19.7-.5-24.9,7.3-5.7,8.5-5,19.2,1.6,26.3,6.5,6.9,18.3,8.7,26.7,3.7,1.2-.7,1.3-3.1,1.8-5.4M671,607.6c1.8-.5,3.5-1,5.3-1.4,7.5-1.9,8.2-2.6,4.7-9.8-4.3-9-9.3-17.6-14.2-26.3-.7-1.3-2.5-3-3.7-2.8-5.2.5-10.3,1.6-15.9,2.6.7,2.6,1.1,4.4,1.7,6,3,8.5,5.9,16.9,9.1,25.3,3.4,8.9,1.3,9.2,13,6.3M863.2,588.2c.4,2.3.2,4.8,1.2,6.8.8,1.6,2.8,3.3,4.4,3.5,3.8.3,7.7,0,11.4-.6,1.7-.3,4.4-2.3,4.4-3.5-.1-10.1-.6-20.2-1.3-30.4-.2-3-2.1-4.2-5.3-3.6-4.4.8-8.9,1.3-13.4,1.5-4.3.2-5.3,2.3-4.7,6.1,1.1,6.4,2,12.8,3.1,20.1M755.9,617.7q4.9,4.4,9.3-.4c3-3.3,6-6.7,9-10,2-2.2,2.1-4-.5-5.7-3.2-2.1-6.2-4.5-9.5-6.4-12.5-7-12.6-6.9-22.3,3.5-.1.1-.2.2-.4.3-2.2,1.9-2.3,3.8,0,5.8,4.6,4.1,9.1,8.2,14.2,12.8M1276.9,552.6c-2-1.5-3.8-3.2-5.9-4.6q-8.6-5.9-17.3-.1c-1.8,1.2-3.6,2.5-5.4,3.6-2.7,1.6-2.8,3.4-.7,5.6,4.6,4.8,9,9.8,13.8,14.3,1,1,3.9,1.3,5.1.5,4.7-2.8,9-6.2,13.5-9.3,2.5-1.7,2.6-3.7.9-5.9-1-1.3-2.3-2.4-3.9-4.1M1002.7,556.9c-6.7.7-11.1,4.1-13,10.6-1.7,5.9,0,10.9,4.6,14.8,4.7,4.1,11.5,4.5,16.7,1.3,5.2-3.2,8-9.7,6.5-15.5-1.6-6.7-6.4-10.4-14.9-11.2M457.1,566.5c-4.7,2.9-9.4,5.9-14.9,9.3,5.5,6,10.1,11.3,15.1,16.3.8.8,3.2.7,4.3,0,4.4-2.6,8.8-5.4,12.8-8.6,1-.8,1.4-4.3.7-4.8-5.6-4.4-11.6-8.4-18.1-12.3M473.9,564.7q7.9,4.8,13.8-2.5c1.8-2.2,3.9-4.2,5.2-6.6.7-1.3.6-4.6,0-4.9-6.1-2.8-12.3-6.2-18.7-7.2-2.5-.4-5.9,4.9-8.9,7.6-.6.6-1.1,1.3-1.7,1.8-2.5,2.4-1.8,4.3.8,6,2.9,1.8,6,3.6,9.6,5.8M497.1,543.4c3,5.2,7,1.7,9.9.4,3.7-1.6.4-4.6-.4-6.7-1.8-4.9-3.9-5.1-9.8-2.5-4.7,2-1.1,4.5-.5,6.8.1.5.4.9,1,2M661.5,558.9c1.4,5.5,3.8,7.1,9.7,5,5.5-1.9,1.2-5.9.7-8.7-.6-4-3.8-4.2-11.3-1.4.2,1.4.4,2.8.9,5M523.9,535.8c-2.4-1.7-4.7-4.2-7.3-4.8-1.8-.4-4.4,1.7-6.2,3.2-.8.6-1.3,2.9-.9,3.7,3.8,6.9,9.6,6.9,13.8.4.3-.5.5-1.2.6-2.6M680.6,564.3c4.9,3,6.7-1.8,8.6-4.1,2.7-3.2-1.8-4.3-3.4-5.9-3.7-3.7-6.3-3.3-10,.8-3.1,3.4,1,4.4,2.2,6.4.5.8,1.3,1.5,2.6,2.7Z"/>
  <path class="cls-11" d="M1815,545.5c-.6,1-1.8,1.4-1.9,2-1.7,15.7-11.3,25.5-24.6,32.2-26.5,13.4-53.1,26.6-79.7,39.8-5.7,2.9-11.7,5.4-18.3,7.8-4,0-7.3,0-10.5.3-6.2.7-12.4,1.8-18.6,2.2-2.3.1-4.7-1.5-7-1.7-3.9-.3-7.8-.2-11.7,0-3.4,0-6.7.6-10.1.6-3.9,0-8.6,1.1-11.5-.7-4-2.5-6.5-1.6-9.9.4-6,3.4-14,2.2-17.3-2.3,15.8-7.4,31.7-14.6,47.4-22.2,40-19.3,79.9-38.8,119.8-58.3,9.3-4.5,18.5-9.2,27.6-13.9,16.5-8.5,25.1-21.8,24.3-41.2.5-.3.9-.2,1.7-.2.3,18.2.3,36.5.3,55.4Z"/>
  <path class="cls-17" d="M267.6,574c-16.1-2.5-32-5.1-47.8-8.1-9.5-1.8-18-5.7-25.7-11.9-2.9-2.4-7.5-2.8-11.3-3.9-14.5-4.1-29.3-7.3-43.5-12.3-14.2-5-25.1-14.4-29.7-29.6-.6-1.8-1.2-3.6-2.2-5.3-.4-19.9-.4-40-.4-60.4.4-.4.8-.4,1.6-.4-2.1,24.4,11,41.7,33.2,48.9,15.8,5.1,32,8.8,48,13.1,1.6.4,3.6.5,4.6,1.5,10.7,10.4,24.4,13.2,38.2,15.4,14.6,2.3,29.3,4.1,43.9,6.2,1.3.2,2.5.6,4.3,1-4.4,15.4-8.7,30.5-13.3,45.8Z"/>
  <path class="cls-15" d="M541.5,909c-1.2-.7-1.8-1.7-2.7-1.9-13.5-3.4-27.5-5.7-40.5-10.4-13.4-4.9-26.5-11.5-35.9-23.6,6.9-.6,13.6-.7,20.3-.7,10.8,0,21.5.5,32.3.3,7.5-.1,15-1.6,22.5-1.5,15.8.2,31.7,1.3,47.5,1.7,4.9.1,9.9-.7,14.9-.7,5.7,0,11.4.3,17.1.3,7.1,0,14.1-.5,21.2-.4,7.9,0,15.7.7,23.6.8,2.4,0,4.9-.9,7.4-.8,8,.2,16.1.6,24.1.8,1.3,0,2.6-.9,3.8-.9,4.5,0,9.1.4,13.6.7.2,0,.3.9.5,1.3-15.6,9.9-32.7,16.5-50.2,21.6-16,4.7-32.6,7.5-48.9,11.2-2.3.5-4.6.9-7,1.7-21,.4-42,.4-63.5.4Z"/>
  <path class="cls-24" d="M1388,542c-.3-15.1-1-30.3-.9-45.4.2-21.3,1-42.5,1.6-64-1.4,0-3.7.2-6.4,0,.3-3.5,1-6.6,2.1-9.7,2.5-.3,4.6-.7,6.3-.9,2.8-11,5.5-21.6,8.4-32,11.8,5.2,19.1,13.8,19.8,26.3.6,10-.1,20.2-1.4,30.2-3.7,28.9,8.9,54.2,34.3,68.7,7,4,13.2,4.1,20,0,7.4-4.4,15.2-8.3,22.7-12.4,11.2-6.1,11.8-8.2,4-18.4-7.7-10.1-10.3-21.3-8.9-33.7.9-8.1,2.1-16.2,2.5-24.3,1.4-26-7.1-48.3-26.2-66.3-10.7-10.1-23.2-17.1-36.7-22.5,8.2-7.4,17.7-11.6,30-12.6-16.8-12.1-32.8-22.2-52.4-25.9-3.4-.4-6.3-.9-9.3-1.1-13-.7-25.9,1.1-38,5.5-9.3,3.4-17.9,9-27.1,13.7-4,4.1-8.1,7.8-11.3,12.2-16.9,23.4-23,51.1-31.3,78.8,8.2,2.6,16.1,5.1,24,8.1-.6,3.5-1.3,6.6-2,9.8-8-2.7-16-5.3-24.7-8.2-1.9,6.1-3.7,12.2-5.9,19-3.6,9.2-6.7,17.8-10.2,26.2-3.1,7.5-6.8,14.8-10.2,22.1-1.1,1.4-2.3,2.8-3.3,4.4-12.8,20.7-29.2,37.9-49.4,51.5-1.1.7-2.1,1.5-2.9,3.3,5-.9,10.1-1.6,15-2.8,3.7-.9,5.6-.1,6.1,4,2.1,17,4.7,13.7-11.5,16.7-8,1.5-16.1,2.6-24,4.3-4.1.9-5.5-.6-5.9-4.3-.2-2.3-.7-4.5-1-7.1-22.5,10.7-45.6,18.1-69.5,22.2-10.4,1.8-21.2,1.7-32.5,2.3-7.3-1.2-13.8-2.2-20.6-3.2-3-.8-5.7-1.6-8.3-2.8-.3-3.8-.7-7.2-1-10.5,23.6,8.9,47.4,8.2,71.6,2.3,29-7.1,56.7-17,81.3-34.2,14.8-10.3,27.4-22.7,38.2-37.9,15-21.9,24.7-45.5,31.9-70.6,1.1-3.1,2-5.8,3-9-4.2-1.9-8.2-3.7-12.3-5.8-2.4-5.2-4.6-10.1-6.4-14.9,7.2,3.7,14,7.4,21.5,11.4,1.9-7.2,3.6-13.7,5.6-20.5,1.6-4.8,3-9.4,4.4-14,5.9-13.1,11.2-26.6,17.8-39.3,6.1-11.8,15.5-21,27.7-28.2,12.8-6.2,25.4-10.9,39-12.9,11.6-1.6,23.3-2.8,34.8.5,5.9,1.7,12,2.7,17.6,5.1,17.8,7.7,34.6,17.2,47.5,32.2.7.8,1.9,1.4,3,1.7,39,12,75.1,30.6,110.6,50.2,62.6,34.5,122.6,73.2,181.6,113.4.8.6,1.5,1.2,2.6,2.1-73.4,37.6-147.1,73.6-222.8,106.4-.4,0-.6.1-.9,0-2.6-3.6-4.8-7.1-7.3-10.4-6.1-8-6.1-8-15.6-4.8-2.2.7-4.3,1.7-6.6,2.1-4,.9-4.1,3.1-2.6,6.2,2.8,5.6,5.6,11.3,8.4,16.9-11.4,4.6-22.6,9.7-34.1,13.6-14.8,5.1-29.7,9.9-44.8,13.7-22,5.5-35.6-2-44.5-23-6.1-14.4-8.8-29.6-11-44.9-.3-2.5-.7-4.9-1-8.2,0-1.1,0-1.3.4-1.9,1.5-6.6,3.8-13.1-2.4-18.4,0,0,0,0,0,0M1450.2,607.8c1.3-7.4,2.6-14.7,3.7-22.1,1.3-8.4,1.2-8.4-7-10.4-.7-.2-1.4-.4-1.9-.6,9.6-2.9,19.3-5.8,29-8.6,3.3-1,4.2-2.8,3-5.9-2-4.9-4-9.8-5.8-14.8-1.3-3.5-3.5-4-6.7-3-20.7,5.9-41.4,11.8-62.1,17.7-2.8.8-3.7,2.2-2.8,5.1,1.1,3.5,1.9,7.1,2.3,10.7.4,3.7,2.2,4.8,5.6,4.4,7.5-.9,15.1-1.6,23-2.4-.1,1-.1,1.6-.2,2.2-1.8,11.6-3.5,23.3-5.5,34.9-.6,3.5.5,4.9,3.9,5.2,3.3.3,6.5,1.1,9.8,1.7q9.1,1.6,10.7-7.7c.3-1.8.6-3.6,1-6.3M1475.6,616.3c9.7-.3,19.6.7,29.1-1,16.2-2.9,13.5-3,10.7-17.6-.5-2.8-2-3.9-4.8-3.7-2.7.2-5.4,0-8.6,0,4.5-13.7,8.7-26.6,12.9-39.4,1.1-3.3.9-5.3-3.2-5.8-4.9-.7-9.8-1.7-14.6-2.8-3.6-.8-5.4,0-6.4,3.9-5.5,19.8-11.4,39.5-16.9,59.2-.6,2,.8,4.5,1.9,7.3M1203.6,544.4s.1.1,0,0Z"/>
  <path class="cls-64" d="M595.5,645.4c3-5.5,7.3-6.9,13.3-7,66-.3,131.9-1,197.9-1.6,1.8,0,3.6,0,6.6,0-2.8,8.8-4.5,17.4-8.1,25.1-25.3,53.3-59.9,98.6-111.9,128.6-28.9,16.7-60.5,25.6-93.5,29.5-22,2.6-44,3.1-65.5-2.3-11.3-2.8-22.6-6.9-33.1-12-14-6.7-15.5-14-6.6-26.6,12.4-17.5,25-34.9,37.9-52.1,20.7-27.3,41.9-54.3,63.1-81.8Z"/>
  <path class="cls-64" d="M740.5,82.5c55.9,33.8,107.3,123.4,108.8,162.6-6.1-.4-12.2-.8-18.3-1.3-51.1-4.2-102.3-8.4-153.4-12.6-12-1-23.9-1.8-35.9-3-1.7-.2-3.9-1.2-4.8-2.5-31.6-48.4-63-96.8-94.4-145.3-1.1-1.7-1.9-3.5-2.7-5.3-3.6-7.9-2.7-12.1,4.5-17.1,11-7.7,23.8-11.2,36.8-13,54.3-7.1,104.3,6.1,151.4,32.6,2.6,1.5,5.1,3.1,8,4.9Z"/>
  <path class="cls-33" d="M495.9,516c-13.3,1-26.5,2.8-39.8,2.7-10.2,0-20.5-1.9-30.5-4-10.3-2.2-17.9-8.1-18.7-20.6-3.6-19.4-7.1-38-10.6-56.6-3.8-20.2-7.7-40.3-11.5-60.9-1.3-7.2-2.5-14-3.8-20.8-2.6-13.6-5.3-27.2-7.9-40.7-.7-4.4-1.4-8.8-2.1-13.3-1-6.2.5-8.5,6.8-9.8,5.9-1.2,11.7-2.7,17.6-3.3,10.8-1.2,20.1-6.5,30-10.4,19.8-7.9,40.3-12.3,62.6-12.4,4.6,0,8.2,0,12.3.1,12.3,1.7,23.8,4.3,34.7,9.8,29.3,14.7,44.3,46.7,34.9,77.2-2.5,8.3-7.5,15.8-11.5,24.1,2.1,1.6,4.9,3.7,7.2,5.8-10.6-1.3-21-1.9-30.9-4.1-13.4-3-25.7-8.8-34.7-20.3,7.9-14.9,1.1-29.4-16.3-34.7-3.5-.4-6.7-.6-10.3-.9-8.7-.4-16.6,1-24.3,4.3,3.1,16.6,6.1,32.9,9.2,49.4,11.9-1.9,23.3-4.4,33.7-10.5,10.4,10.8,22.7,17.7,36.7,21.8,15.8,4.6,32,5.4,48.3,5.6,3.9,8.7,7.9,17,11.8,25.7-.6,3.7-1.6,6.9-1.9,10.2-.8,8.1-3.4,15-10.4,19.9-2.3,1.6-3.9,4.1-5.8,6.2-14.7,15.8-28.6,32.6-47,44.3-9.1,5.8-18.5,10.9-27.8,16.3M488.7,417.1c-5.6.9-11.1,2-16.7,2.6-4.4.4-5.5,2-4.5,6.4,2.1,9.4,3.8,18.9,5.5,28.4,1.7,10,1.7,10.3,11.5,9.5,11-.8,21.3-3.9,29.3-12.1,10.6-10.7,7.1-27.4-7-32.4-5.4-1.9-11.4-1.7-18.1-2.5Z"/>
  <path class="cls-32" d="M1593.6,626c3.7,4.5,11.7,5.7,17.7,2.3,3.4-1.9,5.8-2.9,9.9-.4,2.9,1.8,7.6.7,11.5.7,3.4,0,6.7-.5,10.1-.6,3.9-.1,7.8-.2,11.7,0,2.4.2,4.7,1.9,7,1.7,6.2-.4,12.4-1.5,18.6-2.2,3.2-.3,6.5-.4,10.2-.4-5,3.1-10.3,6.4-16,9.1-15.6,7.5-31.3,14.8-47.1,22.1-12.7,5.9-25.5,11.7-38.2,17.6-1.3.6-2.9,1.3-3.5,2.4-4.8,9.2-13.5,13.4-22.4,16.9-7.8,3.1-15.9,5.5-23.9,8-1.5.5-3.3.8-4.9.6-13.2-2-24.3,5-36.2,8.5-12.9,3.9-25.7,8.3-38.7,11.7-18.3,4.8-36.7,6.1-54.7-2.1-10.7-4.9-19.2-12.2-26.5-21.1-1.7-2-2.8-3.6-5.5-1.8-19.6,12.6-38.1,9.1-55.9-4-2-1.5-3.9-3-5.3-4.1-12,4.2-23.4,8.7-35.2,12.2-4.5,1.4-9.7.6-14.5.9-2.7.2-6.1-.3-8.1,1.1-8.7,5.9-18.3,7.7-28.4,6.7-8.3-.8-16.6-2.4-24.6-4.7-11.5-3.3-19-11.6-23.5-22.4-1-2.5-2.1-3.3-4.8-3.8-11.5-2-20.3-8.5-26.8-18-1.9-2.8-3.7-3.2-6.6-2.4-5.2,1.4-10.6,2.2-15.8,3.8-2.1.6-4.6,2.2-5.6,4-4.5,8.1-9.8,15.3-18.2,19.8-.7.4-.9,1.5-1.9,2.7-3.8.7-7.2,1.5-10.5,1.2-6.6-.6-13.2-.6-19.9-.5-6.8.1-13.8-1.3-20.9-.5-2.5.3-5.2-.7-7.8-1.1-1.3-.2-2.6-.5-3.8-.5-6.7.2-13.3.7-20,.8-4.8,0-9.7-.5-14.5-.2-11.1.5-22.2,1.8-33.3,2-11.3.2-22.7-1.3-33.9-.5-5.6.4-10.7,1.3-16.1-.9-1.8-.8-4.2-.5-6.3-.3-5.6.5-11.3,2.2-16.8,1.5-4.7-.6-9.1-4-13.1,1.2-.1.2-.7.2-1,.1-4.1-.7-8.2-1.5-12.3-2.3-1.1-.2-2.3-.6-3.4-.5-9,.9-18,.9-27-.2,2.6-7.7,2.6-7.5,11-6.6,37.3,4.1,74.4,3.6,111.1-5.9,4.3-1.1,9.1-.6,13.2-2.1,7.4-2.8,14.5-6.5,21.7-9.9,3.5-1.6,6.9-3.3,10.5-5.1,7.9,9.6,17.8,15.9,30,15.9,11.9,0,24.1-.9,35.5-3.9,14.1-3.7,22.9-14.2,27-28.4.5-1.9,1.9-3.9,3.4-5,7.1-4.7,12.6-10.8,16.6-18.3.9-1.7,3.1-3.3,4.9-3.8,6.1-1.7,12.4-2.7,18.4-4.3,2.7-.7,4.1-.2,5.7,2.2,6.5,10,15.5,16.3,27.3,18.5,1.4.3,3.2,1.7,3.8,3.1,6.7,15.2,18.4,23.7,34.6,26,10.2,1.5,20.7,4,30.6,0,9.1-3.8,18.1-5.2,27.8-6.1,11.4-1.1,22.6-6.5,33.5-10.8,4.8-1.9,8-2.4,12.3,1.2,14.5,11.9,36.3,15.9,57.6.5,6.8,10.7,15.9,19.2,27,25.2,17.5,9.5,36.2,10.2,54.8,5.1,21-5.8,41.5-13.1,62.3-19.6,2.6-.8,5.4-.8,8.2-1,4-.3,8.2.4,11.9-.7,15.6-4.5,32.1-7.6,43.2-21.1,3.4-4.2,7.3-7,12.6-8.9Z"/>
  <path class="cls-33" d="M860.9,336.7c7.2-1.1,14.5-1.8,21.5-3.5,26.9-6.5,53.5-7.2,79.4,3.6,30.2,12.6,48,35.3,53.2,67.7.6,3.6,1,7.2,1.7,11.6.6,4.1,1,7.5,1.4,10.8,2.6,12,8.4,21.9,18.5,29.2,5.2,3.7,6.2,8.5,4.5,14.5-5.5,18.8-24.3,28.6-45.9,23.2-4.2-1.4-7.6-2.7-11-3.9-4.3-3-8.8-5.9-12.9-9.2-15.6-12.6-22.5-29.6-24.3-49.1-.9-10.3-2.5-20.4-7.8-29.6-6.5-11.3-19.3-17.6-33-15.6.4,8.5.7,17.1,1.1,25.7.8,14.8,1.8,29.5,2.6,44.3.6,10.6,1.2,21.3,1.8,31.9.2,3.8-.5,7-5.5,7.3.6-16.9-6.2-30.5-15.5-43.2-13.9-19-32-33-52.9-43.9-1-13.1-2-25.8-2.9-38.7.4-.5.6-.7,1.3-.9,9.1-2.3,15.7-7.1,19.3-15.9,2-5.5,3.7-10.7,5.4-16,0,0,0-.2,0-.2Z"/>
  <path class="cls-35" d="M736.9,439.1c-13.6-4.1-27,1.8-40.5,1.2-8.3-.3-16.5-1.2-25.4-2.2-8.6-14.3-21.6-18.7-36.7-19.5-7.6-9.2-12.8-19.2-15.4-31-.7-3.5-1.3-6.6-1.9-10.2-.2-3.8-.4-7.2-.4-11,1.1-4.5,1.8-8.6,3-12.5,7.9-24.9,13.6-50.1,12.4-76.5,14.8-1.7,29.6-3.8,44.5-5.1,8.7-.8,11.1,2,10.8,10.6-.6,22.3-1.3,44.5-2,67.7.2,4.5.6,8.1,1.1,12,.4,1.6.5,3,.9,4.2,2.2,8.5,6.1,16.2,15.9,16.5,6.6.3,13.3-1.7,19.9-3,.8-.2,1.7-1.9,1.9-3,1.8-12.5,3.5-24.9,5.5-37.6,16.7-8.1,33.2-16,49.9-23.8.2,0,.7,0,.7.4,1.3,3.2,2.6,5.9,4,9.1,2.4,2.9,4.4,5.7,7,7.9,2.5,2.2,5.5,3.9,8.2,6.3-.3,3.1-.6,5.7-1.1,8.6-.1.2-.3.6-.6.7-7.6,3.1-14.9,6.2-19.8,13.3-1.3,4.1-2.4,8-3.5,12.3.8,3.9,1.7,7.4,2.7,11.3,3.5,6.3,6.8,12.3,9.9,18.4-9.8,5.5-19.7,10.4-28.7,16.5-7.9,5.4-14.8,12.2-22.1,18.4Z"/>
  <path class="cls-7" d="M1332.9,317.2c8.9-4.6,17.4-10.2,26.8-13.6,12.1-4.4,24.9-6.2,38-5.5,2.9.2,5.9.7,9.2,1.5-1.6,11-3.6,21.5-5.5,31.6,9.1,2.3,17.9,4.6,26.6,7.2-14.7,14.3-22.8,32-29.3,50.8-2.9-.5-5.5-1-8.2-1.6-.4,2-.8,3.6-1.1,5.2-1.8,10.1-3.5,20.1-5.3,30.2-.7,3.1-1.4,6.2-2.1,9.7-2.7,13.7-5.4,27-8,40.3-1.1,5.3-1.9,10.7-3.1,16.1-.9,4.1-3.3,6.7-7.8,5.9-18.2-3.5-36.3-7.1-54.5-10.8-6.1-1.2-7.2-3.5-6-9.5,3.1-15.9,6.2-31.8,9.3-48.1.7-3.5,1.3-6.6,2-10.5.3-2.3.7-3.7,1-5.2,6-31.2,12-62.3,18-93.5Z"/>
  <path class="cls-33" d="M1259,392.7c2.2,4.9,4.4,9.8,6.8,15.4,3.2,5.4,6.1,10.1,9.1,14.8-7,24.8-16.7,48.4-31.6,69.9-13.1,1.5-26,3.4-38.9,4.1-7.4.4-14.9-1.1-22.3-1.9-4.3-.5-6.9-3-7.8-7.2-2.5-11.2-5.1-22.4-7.4-33.6-1.1-5.1.6-7,5.9-7.2,5.1-.1,10.3.3,15.4-.1,2.7-.2,5.5-1.3,8-2.6,6.9-3.6,8.7-8.9,5-15.8-4.1-7.6-9.1-14.7-13.2-22.3-3.1-5.7-5.9-11.6-7.8-17.7-4.8-15.1-1-28.2,11.2-39.2,2.9-2.3,5.4-4.3,7.9-6.2,5.5-1.8,10.9-3.9,16.4-5.4,19.6-5.5,39.4-5.7,59.3-2.4,5.5.9,8.9,3.9,10,9.6,1.7,8.1,3.6,16.2,5.7,24.6-1.2,4.9-2.5,9.4-4.6,14.3-6.4.3-12.1-.2-17.7.5-4.6.6-8.9,2.7-9.2,8.5Z"/>
  <path class="cls-37" d="M496.7,707.1c-12.1,4.4-24,6-36,.9-4-1.7-7.7-4.1-9.2-4.3-6.2,4.9-12.2,10.2-18.6,14.8-8,5.7-16.9,9-27,9.7-13.6.9-26-3.5-38.7-7-21.7-6-43.3-12.3-65.1-18.1-22.4-6-39.9-25.5-40.2-49.6-.1-8.9,0-17.8-.1-26.6-.1-7.4-.5-14.9-.4-22.6,2.3,26.5,16.6,44.3,42.5,51.5,26.7,7.5,53.5,14.9,80.3,22.3,26.4,7.3,48.1-.7,63.3-23.4.3-.5.8-1,1.4-1.7,9.6,7.8,20.5,12,32.5,10,7.2-1.2,14.4-4,20.9-7.5,9.3-5.1,18-11.4,26.8-17.4,2.2-1.5,3.7-1.8,6.2-.5,3.5,1.9,7.3,3,11.6,4.7-1.6,2.1-3.1,4.1-4.7,6.2-14.1,18.5-28.3,37-42.5,55.6-.8,1.1-1.8,2-3,3.1Z"/>
  <path class="cls-43" d="M439,544.3c-6,21.3-12,42.5-18,63.8-2,7-3.9,14.1-5.9,21.1-2.8,9.5-9.1,13.3-18.5,10.7-27.9-7.7-55.8-15.4-83.6-23.2-8.8-2.5-12.5-9.2-10-18.1,7.7-27.9,15.4-55.8,23.2-83.6,2.6-9.3,9-12.8,18.4-10.2,27.6,7.6,55.1,15.2,82.6,23.1,3.6,1,6.7,4,10.3,6.7.8,3.6,1.2,6.7,1.6,9.7M330.4,568.1c3.4.3,2.7,2.6,2.2,4.8-2,8.9-4,17.8-6,26.7-3.1,13.5-3,13.2,10.3,16.5,5,1.2,6.3-.3,7.2-4.8,2.6-12.7,5.6-25.2,8.5-38,4.4.8,9.7,3.4,12.2,1.7,2.8-1.8,2.9-7.5,4.3-11.5,1.3-3.7-.3-5-3.8-5.7-11.9-2.5-23.7-5.2-35.5-7.9-6.5-1.4-6.5-1.4-7.9,5.3q-2.2,10.2,8.5,12.8M384.2,625c12.1-4.6,15.7-11.7,12.3-24.2-.8-3-1.9-6.1-2.4-9.2-.8-5.3,1.6-7.8,6.9-7.8,1.9,0,3.9,0,5.8,0,2-15,3.4-16.1-13.5-17-1.3,0-2.7,0-4,.2-12.4,1.5-18.4,9.9-15.7,22.1.8,3.6,1.8,7.1,2.6,10.7,1.3,5.8-1.1,9-7,9.4-2.3.2-4.5,0-7.2,0-.3,3.7-.5,7.2-.9,10.6-.4,3.2,1.1,4.9,4,5.1,6.1.3,12.2.1,19.1,0Z"/>
  <path class="cls-21" d="M439.5,544.2c-.8-3-1.2-6-1.7-9.4,20.1-3.5,39.6-9,58.1-18.5,9.4-5.7,18.9-10.9,28-16.6,18.5-11.8,32.3-28.6,47-44.3,1.9-2.1,3.5-4.6,5.8-6.2,7-4.9,9.6-11.8,10.4-19.9.3-3.3,1.3-6.5,2-10.5,2.4-9.3,4.8-17.9,7.2-26.7-6.7.4-12.9.7-19.2,1-16.3.2-32.5-.6-48.3-5.2-13.9-4.1-26.3-10.9-36.7-22.1-11.1-12.6-16.7-26.8-18.1-42.8,3.1.2,6.3.5,9.8,1.3.7,2.5.9,4.5,1.4,6.4,2.6,10.7,6.4,20.7,14.9,28.2,9,11.1,21.3,16.9,34.7,19.9,10,2.3,20.3,2.8,31.4,4.2,10.2-.4,19.5-.6,28.8-1.1,2.6-.1,5-.4,6.1-3.8,9.8-28.7,19.1-57.2,20.1-88.1.5-14.2-.3-27.8-5.5-41-6.8-17.5-20.5-27.7-38.5-27.1-33.3,1.1-58.8,16.7-77.3,44.1-3.6,0-7.3,0-11.4,0,21.1-34.9,51.6-54.9,93.4-53.7,21.3.6,35.5,13.5,42.9,32.9,3.8,10,4.9,20.9,7.3,31.9,1.3,26.8-4.4,52.1-12.3,77-1.2,3.9-2,8-3.3,12.3-2,4.3-3.6,8.3-5.6,13.2,2.9-.7,4.6-1.1,6.3-1.5.6,3.1,1.3,6.2,1.6,9.7-2.1.7-3.9,1.3-5.7,1.4-3.9.2-6,2-7,6-2.1,9-4.8,17.9-7.2,26.9-.8,2.9-1.2,6-2,10.2,12.2-8.2,24.6-11.7,37.8-13.2,15,.5,28,4.9,36.1,19.1,9.2,23.8,4.5,45.1-11.9,63.6-21.1,23.9-61.6,13.8-71.6-17.7-1.8-5.8-2.2-12-3.2-18.9.1-3.1.1-5.3.1-8-1.3.7-1.9.8-2.2,1.1-12.8,13.2-25.6,26.3-38.4,39.5-.3.3-.3.9-.5,1.3,0,0,0,0-.3,0-.8.3-1.2.7-1.7,1-30.1,22.9-63.2,39.1-101.5,44.3M610.5,499.1c15.9,8.7,30.7,7.2,41-4.3,9.9-11.1,14.4-24.2,13.5-39-.9-15.2-9.8-24.7-25-26.2-12.9-1.2-24.5,3-35.6,9.3-7.7,4.3-12.1,9.8-10.7,19.1.6,3.6,0,7.3.4,11,1.3,12,5,22.8,16.5,30.1Z"/>
  <path class="cls-57" d="M836.8,690.2c9.2.9,18.2.9,27.2,0,1.1-.1,2.3.3,3.4.5,4.1.7,8.2,1.5,12.3,2.3.3,0,.8,0,1-.1,4-5.2,8.4-1.9,13.1-1.2,5.4.7,11.2-1,16.8-1.5,2.1-.2,4.5-.4,6.3.3,5.4,2.2,10.5,1.3,16.1.9,11.2-.9,22.6.7,33.9.5,11.1-.2,22.2-1.5,33.3-2,4.8-.2,9.7.3,14.5.2,6.7-.1,13.3-.6,20-.8,1.3,0,2.6.3,3.8.5,2.6.4,5.3,1.4,7.8,1.1,7.1-.9,14,.6,20.9.5,6.7-.1,13.2,0,19.9.5,3.3.3,6.7-.5,10.4-.9-3.5,15.8-13.3,26.4-29.1,30.1-13.8,3.3-28.1,4.4-42.3,1.8-7.3-1.3-13.6-5.2-18.4-10.9-2.5-2.9-4.5-3.1-8.1-1.4-9.6,4.6-19.2,10-29.4,12.4-17.2,4.1-34.8,7-52.4,8.7-16.6,1.6-33.5,1.3-50.3,1.1-8.9,0-17.7-1.5-27.1-2.3-1.9,3.6-3.8,7.4-6.3,11.1-5.6.2-10.7.7-15.8.7-4.8,0-9.6-.2-14.3-.4,10.8-17.2,21.7-34.3,32.8-51.7Z"/>
  <path class="cls-42" d="M1046.3,406.8c-2.9-14.2-5.7-28.3-8.7-42.5-1-5-2.3-10-3.3-15.1-1.5-7.6,2.1-13.8,9.6-15.5,26.4-5.9,52.9-11.6,79.4-17.2,6.2-1.3,12.2,3.1,13.8,10.1,4.4,19.6,8.6,39.3,12.9,58.9,1.2,5.4,2.3,10.7,3.6,16.1,2.5,10.4-2.5,16.9-12.1,18.8-24.5,4.8-48.7,10.4-73.1,15.8-9.7,2.1-15.3-1.4-17.6-11-.6-2.6-1.2-5.2-2-8.5-1-3.8-1.8-6.8-2.6-9.8M1114.1,375.4c2.4-2.6,4.8-5.2,7.6-8.2-4.1-12.2-4.2-12.3-15.9-7-13.5,6.2-15.1,17.5-4,28.6,6.5,6.5,8.4,12.2-2.4,16.1-.3,0-.4.5-.6.7,4.2,13.3,3.9,13,15.9,7.9,2.1-.9,4-2.4,5.8-3.9,8.1-6.8,8.6-14.9,1.8-23.1-2.8-3.4-5.4-7-8.2-11.3M1077.9,366.3c-1.5.3-2.9.5-4.4.8-7.2,1.2-7.2,1.3-6,8.5,1.4,8.2,2.8,16.4,3.6,24.7,1,9.5.6,9.2-7.7,13.7-1.9,1-2.4,5.2-3,8-.2.8,1.7,2.8,2.8,3,11.9,1.5,26.2-4.6,24.9-21-.9-11.3-2.8-22.4-3.9-33.7-.4-3.9-2.1-4.9-6.4-3.9Z"/>
  <path class="cls-54" d="M711.4,874c-.5-.4-.7-1.3-.9-1.3-4.5-.3-9-.6-13.6-.7-1.3,0-2.6.9-3.8.9-8-.2-16.1-.7-24.1-.8-2.4,0-4.9.9-7.4.8-7.9-.2-15.7-.7-23.6-.8-7.1,0-14.1.4-21.2.4-5.7,0-11.4-.4-17.1-.3-5,0-9.9.9-14.9.7-15.8-.5-31.7-1.5-47.5-1.7-7.5-.1-15,1.4-22.5,1.5-10.8.2-21.5-.3-32.3-.3-6.7,0-13.4,0-20.4.4-7.7-6.4-12.3-15.2-13-24.7-1.3-17.7-1-35.5-1.2-53.8,3,7.8,4.7,16.7,9,24.2,8.6,15.2,23.5,23.2,39.1,29.6,28.9,11.8,59.2,15,90.1,13.3,34.2-2,67.4-8.6,98.8-22.5,16.6-7.4,32.2-17.2,48.7-25.6,1,.8,1.6,1.7,2.3,1.7,6.5.2,13.1.6,19.6.4,7.2-.2,14.4-1,21.7-1.1,1.9,0,3.9,1.3,5.9,2-19.9,24-44.1,42.9-71.7,57.9Z"/>
  <path class="cls-20" d="M736.8,439.4c7.4-6.5,14.3-13.4,22.2-18.8,9-6.1,18.9-10.9,29-16.5,1.4-.5,2.2-.8,3.4-1.1,4.8-.7,9.2-1.5,14-2.2,3.3.3,6.2,0,8.9.8,7.9,2.2,15.7,4.8,23.5,7.2,20.9,10.5,39,24.6,52.9,43.5,9.3,12.7,16.1,26.3,15.1,43.1-4.9,24.6-22,37.4-43.3,45.2-34.1,12.4-68.9,14.1-103.9,3.4-12.1-3.7-23.1-9.6-32-18.8-15.7-16.2-19.1-38.2-8-59.5,4.9-9.3,12-17.5,18.1-26.5M799.4,411.6c-8.7,3.6-17.9,6.3-25.9,11.1-19.3,11.5-35.3,26.7-45.6,47-9.1,18-7,36.1,6.4,48.6,5.9,5.5,13.3,10.2,20.7,13.4,22.4,9.8,46.2,10.5,70.1,7.7,16.6-1.9,32.6-6.1,47.3-14.6,24.1-13.9,29.8-34.8,15.6-58.6-12.3-20.5-29.9-35.5-50.9-46.5-11.5-6-23.4-10.4-37.6-8.3Z"/>
  <path class="cls-21" d="M1198.9,342.8c-2.3,2.2-4.7,4.2-7.5,6.2-18.9-19.8-36.8-40.2-56.3-59.2-20.8-20.3-45.4-34.7-74.8-39.3-18.2-2.9-36.2-1.1-54,2.8-7.3,1.6-14.6,3.1-21.9,4.7.5,17.1-9.4,31.2-31.9,32.8-4.3-18.4-8.5-36.8-12.8-55.1,15.6-7.2,30.2-3.3,40.4,10.2.9,1.2,3.7,1.8,5.4,1.5,11.8-2.1,23.5-4.9,35.3-6.8,35-5.4,67.1,2.5,96.5,21.9,24.2,16,43.4,37.3,62.5,58.7,6.3,7.1,12.7,14.1,19.3,21.4Z"/>
  <path class="cls-67" d="M1102.1,514.1c-25.7-4.9-37.5-32.6-24.6-54.1,8.5-14.2,26.1-20.6,42.5-15.1,15.7,5.2,25.7,21.2,23.9,38.4-1.7,16-15,29.4-31,31-3.4.3-6.9,0-10.8,0Z"/>
  <path class="cls-23" d="M1390.1,560.6c0,.3,0,.5-.2,1.2-2.5,5.8-5,11.1-7.5,16.7.4.3.8.7,1.4,1,10,4.8,9.1,4.8,3.4,13-.4.5-.7,1.1-1.1,1.7-6.1,8.6-4,8.8-13.7,3.8-2.6-1.3-4-.6-5.9,1.3-5.6,5.4-11.5,10.5-17.3,15.8-2.8,2.5-5.6,2.3-8.5,0-12.2-9.5-11.7-6.1-1.6-16.6,3.6-3.7,6.8-7.6,10.5-11.7-4.6-2.5-8.7-4.8-13.2-7.3,2.6-3.8,4.5-7.1,6.9-10,.8-1,2.9-1.7,4.2-1.5,4.4.6,8.7,1.6,13.5,2.6,1.5-2.8,3-5.8,5.1-9.8-8.2.3-15.2-1.2-21.4,4-3.5,2.9-7.8,5-11.9,7.2-1.1.6-3.3.7-4,0-4.2-4.2-8-8.7-11.9-13,9.4-8.3,18.2-16.1,27-23.8.3.1.8.1.9.3,7.7,10.8,18.5,4,27.9,5,4.9.5,9.7.9,15,1.4.4,0,.3,0,.5.4.8,6.3,1.4,12.3,2,18.2Z"/>
  <path class="cls-67" d="M1409.9,289.5c-11.4-2.9-23-1.8-34.7-.1-13.5,1.9-26.2,6.7-38.8,12.6,2.1-13.3,4.6-26.6,7.1-40,.9-4.9,1.7-9.8,2.7-14.7,1.3-6.1,3.7-7.7,9.8-6.5,16.6,3.1,33.2,6.2,49.8,9.4,9.2,1.8,10.3,3.6,8.3,13-1.5,7.3-2.9,14.6-4.2,22-.2,1.3-.2,2.6-.1,4.4Z"/>
  <path class="cls-41" d="M783.3,815.9c-2.2-.5-4.2-1.9-6.1-1.8-7.2.2-14.4,1-21.7,1.1-6.5.2-13.1-.2-19.6-.4-.6,0-1.2-.9-1.9-1.8,16.1-12.3,31.6-25.1,44.9-40.2,8.6-9.8,16.3-20.4,24.8-30.7,5.1,0,9.9.3,14.7.2,5.1,0,10.2-.5,15.5-.5-5.7,10.5-11.1,21.1-17.9,30.8-10.3,14.7-21.5,28.8-32.6,43.3Z"/>
  <path class="cls-23" d="M821.7,635.5c-4.1-1.4-7.8-2.7-12.1-4.1,8.8-17,15.6-33.7,17.9-51.9-.4-.5-.9-1-1.3-1.5-4.4,2.5-9.3,4.5-13.2,7.6-4.4,3.5-7.9,8-11.8,12.2-2,2.2-4,2.5-6.5.7-3.3-2.3-6.8-4.2-10.2-6.2-2.4-1.3-2.9-2.6-1.1-5.1,5.3-7.3,10.4-14.6,15.2-22.2,2.1-3.4,3.8-3.5,7.2-1.8,2,1,5.1,1.3,7.2.5,7.7-2.7,15.1-6.2,22.6-9.1,7.8-3,12.9-.2,14.8,8,2.6,11.2.8,22.2-2.4,33-4,13.3-9.9,25.7-17.8,37.2-2,2.9-4.3,4.6-8.3,2.8Z"/>
  <path class="cls-38" d="M372.6,315.1c3.1,13.6,5.7,27.1,8.4,40.7,1.3,6.8,2.6,13.6,3.5,20.9-1.1,2.5-2.4,4.5-2.4,6.5-.1,36.9,0,73.8,0,110.7-4.7,0-9.4,0-14.5-.5-.5-29.5-.5-58.5-.5-87.5-1.1-.5-2.3-1.1-3.7-2.2,0-29.6.4-58.7.7-87.7,2.7-.3,5.5-.6,8.6-.9Z"/>
  <path class="cls-61" d="M807.1,294c21.4-6.4,42.8-12.7,64.6-19.2,2.7-19.6,13.6-30.4,31.9-30.6.9,3.3,1.7,6.6,2.7,10.3,5.6-1.3,10.9-2.7,16.3-3.5,1.8-.2,4.9.9,5.4,2.2,1.2,3-1.3,4.3-4,4.9-5.2,1.2-10.3,2.4-16.1,3.8,1.5,6.4,2.9,12.6,4.5,19.5,5.3-1.2,10.5-2.3,15.6-3.5,2.7-.7,5.6-1.3,6.5,2.2.9,3.6-1.9,4.4-4.7,5-5.1,1.2-10.2,2.5-15.5,3.7.8,3.8,1.5,7.2,2.2,10.5-17,7.1-32.7,2.5-40.8-11.3-.7-1.2-3.7-1.9-5.3-1.5-14.8,3.8-29.6,7.8-45,11.5-4.9-.5-9.2-.6-13.5-1-2-.2-3.9-1.3-5.7-2.2.4-.4.7-.6.9-.8Z"/>
  <path class="cls-3" d="M1061.8,576.3c6.5,1,13,1.9,19.8,3.1.5.5.7.8,1,1,7.7,4,7.8,4.1,3.7,12.1-2.1,4.1-3.6,10.2-6.9,11.5-3.2,1.2-8.4-2.5-12.6-4.2-3.5-1.4-7-2.8-11.4-4.6.5,6.1.9,11.3,1.3,16.5.5,6.3,1,12.6,1.6,18.9.3,3.2-.8,4.5-4.1,4.6-4.8.2-9.6.8-14.4,1.4-3,.4-3.7-1.2-3.9-3.7-1.2-14.1-2.5-28.2-3.8-42.2-.9-9.6-1.9-19.2-2.9-29.6.5-3.9-2.1-8.2,3.4-9.1,4.3-.3,8.6-.3,12.9-1,4.7-.8,6.2,1.4,6.4,5.6,0,1.8.2,3.6.3,5.9.3,3.8.7,7.2,1,11.4.4,4,.8,7.1,1.1,10,2.6-2.7,5.1-5.1,7.5-7.6Z"/>
  <path class="cls-66" d="M805,400.8c-4.4.8-8.8,1.5-13.6,1.8.6-6.8,1.5-13.2,2.6-20,.4-3.1.7-5.8,1.2-8.9.7-3.8,1.2-7.2,1.8-11.1.7-4.8,1.3-9.3,1.9-13.7,0,0,.1-.4.6-.7,2.1-.9,4-1.4,5.4-2.4,1.2-.8,2.9-2.4,2.7-3.4-.1-1.1-2-2.3-3.3-3-.9-.5-2.2-.3-3.4-.8.5-5.5,1.1-10.5,1.8-15.9.3-1.5.5-2.6.7-3.7,15.6,0,31.2,0,46.8,0,7.6,0,10.7,3.2,10.7,10.9,0,2,0,4,0,6.4,0,.4,0,.5-.4.6-4.4,0-8.5-.4-12.3.3-11.9,2.1-14.9-2.5-14.1,15.2.6,5.8,1.2,11.1,1.8,16.4-.3.2-.5.5-1.4.9-5.6.6-10.8.7-15.8,1.4-13.1,1.7-17.7,7.7-15.3,19.4.7,3.4,1.1,6.8,1.7,10.2Z"/>
  <path class="cls-46" d="M736,541c6.3,1.7,12.3,3.2,18.2,4.9,9.2,2.7,12.3,8.4,8.6,17.1-11.1,25.9-31,41.3-58.2,47.5-1.5.3-4-.3-4.8-1.3-2.5-3.5-4.7-7.3-6.5-11.2-1.4-3.1,1.6-3.4,3.5-4.1,13.6-4.9,24.9-13.2,34.3-24.2,5.8-6.8,5.5-7.7-3.1-10.1-4-1.1-8-2.4-12-3.3-3.1-.7-4.2-2-3.1-5.2,1.2-3.4,2.3-7,3-10.5.7-3.7,2.8-4.1,5.8-3.3,4.7,1.2,9.3,2.5,14.4,3.9Z"/>
  <path class="cls-23" d="M942.6,561.4c14.4,2,28.4,3.8,42.3,5.7,1,14.9,3.9,18.8,17.3,23.2-3.3,9.7-8.7,18.3-15.6,25.6-6.5,6.8-13.8,12.9-21,19.1-1.2,1-3.8,1.8-4.8,1.2-4.1-2.5-7.9-5.5-11.4-8.8-.5-.5.3-3.3,1.2-4.5,7.3-9.9,14.8-19.7,22.1-29.5,1.5-2.1,2.6-4.5,4.3-7.6-7.1-.9-13.5-1.8-19.8-2.6-6.6-.8-13.2-1.6-19.8-2.2-3.3-.3-4.8-1.5-4.2-5,.6-2.9.8-5.9,1.2-8.9q1-6.5,8.3-5.6Z"/>
  <path class="cls-23" d="M1180.5,575.1c17.4-2.5,34.3-5,51.3-7.2,9.6-1.3,13.6,1.9,13.8,11.5.2,15.1-3.6,29.3-11.8,42.1-.9,1.4-3.4,2.2-5.4,2.6-1.9.3-4-.3-5.9-.6-10.1-1.3-8.8-.5-6.4-10.3,1.6-6.3,2.8-12.7,4-19,.3-1.5,0-3.2,0-5.4-9.3,1.3-18.2,2.5-27,3.7-1.5.2-3,.5-4.4.6-9.3,1.1-9.6,1.1-10.4-8.3-.2-3-3.6-7.3,2.1-9.6Z"/>
  <path class="cls-22" d="M527.3,181c-4.7-7.3-9.1-14.5-13.4-21.7-7.1-11.7-14.4-23.3-16.4-37.3-.2-1.6-.5-3.3-.5-4.9,0-14.8,0-29.6,0-44.8,4.3,22.7,18.4,40.9,30.4,60.2,8,12.8,16.3,25.5,24.4,38.3.5.8.9,1.7,1.3,2.7-8.6,2.6-17,5.1-25.8,7.6Z"/>
  <path class="cls-18" d="M807,293.5c-.2.6-.5.8-1.3,1.2-7.9,3.2-15.4,6.2-23.1,9.2-1.4.7-2.5,1.3-4,2-2.3.6-4.3,1-6,1.8-13.5,6.3-27,12.8-40.5,19.2,2-14.3,4-28.6,6-42.9.8-5.9,3.1-7.9,9.1-7.1,18.1,2.5,36.1,5.2,54.2,7.8,5,.7,6.1,3.9,5.7,8.7Z"/>
  <path class="cls-46" d="M536.1,543.2c4.7-1.7,9.4-3.2,14.1-4.2.7-.2,2.3,1.6,2.8,2.7,1.1,2.4,1.6,5,2.6,8.1,5.5-.8,11.1-1.5,16.6-2.4,13.4-2.3,18.4,3.3,13.9,16.2-1.1,3.1-2.8,6-4.7,8.7-5,7.1-7.1,7.4-14,1.9-1-.8-1.4-3-1.3-4.5.1-1.7,1.1-3.4,2-5.9-3.2.5-5.5.9-8.3,1.4,2.5,9.5,4.7,18.5,7.4,27.3,1.3,4.3.6,6.3-4,7.6-9.9,2.9-9.9,3.1-13.1-6.5-2.4-7.3-4.7-14.6-6.7-21.9-.8-3.1-2-4-5.2-3.4-2.4.4-6.9.6-7.3-.3-1.5-3.9-2-8.3-2.4-12.5,0-.6,1.9-1.7,3-2,1.9-.5,3.9-.6,6.4-1-.7-3.1-1.3-6-1.9-9.2Z"/>
  <path class="cls-27" d="M363.5,316c.1,29.1-.2,58.1-.5,87.6-6.7,0-13.4-.3-20.6-1.2-.4-28.8-.4-57.1-.4-85.4,7-.3,14-.7,21.5-1Z"/>
  <path class="cls-46" d="M890.7,627.8c8.7-15.2,11-31.2,9.5-48-.6-6.6-1.2-13.2-2-19.8-.4-3.4.7-4.9,4.2-5.1,4.6-.2,9.3-1.3,13.9-1.2,1.7,0,4.6,1.8,4.9,3.3,6,26.4,5.2,51.8-11,75-2.1,3-4.3,3.8-7.6,2.9-3.2-1-6.5-1.7-9.5-3-1.1-.5-1.7-2.4-2.4-4Z"/>
  <path class="cls-40" d="M325,491.3c-7-.5-14.1-.9-21.5-1.9-.4-15.5-.4-30.5-.5-45.5,2.7-1.1,5.6-2,8.1-3.5,1.5-.9,2.3-2.8,3.5-4.2-.3-.5-.6-1-1-1.5-4.9,0-9.8,0-15.2-.5-.4-7.7-.4-14.9-.4-22.1,8.7-.7,17.4-1.5,26.6-1.7.4,27.3.4,54.1.4,80.9Z"/>
  <path class="cls-48" d="M341.5,317c.5,28.3.5,56.6.4,85.3-6.4,0-12.9-.3-19.7-1.4-.4-5.9-.4-11.1-.4-16.3.5-.5,1.1-1.1,1.3-2.1-.2-9.8-.2-19.1-.3-28.4,0-1.7-.6-3.4-1-5.2-.5-.4-1.1-.9-1.8-2-.2-9.8-.2-19-.2-28.2,7-.6,14.1-1.2,21.6-1.8Z"/>
  <path class="cls-5" d="M382.5,494c-.5-36.9-.5-73.9-.4-110.8,0-2,1.3-4,2.4-6.1,4.2,20.1,8,40.2,11.8,60.4,3.5,18.6,7,37.2,10.5,56.2-8,.4-15.9.4-24.4.3Z"/>
  <path class="cls-46" d="M1310.9,595.9c-13.3,8.8-27.2,15.5-42,20.3-2.9.9-4.3,0-5.5-2.3-2.1-4.1-4.2-8.3-6.8-12.2-2.4-3.6-1.4-5.1,2.2-6.7,12.6-5.6,25.2-11.3,37.7-17.2,4.4-2,8.6-4.4,12.7-6.9,2.9-1.7,4.7-1.3,6.5,1.6,8.3,13.6,8.4,13.6-4.8,23.3Z"/>
  <path class="cls-46" d="M501.6,608.7c-7.2,4.5-14.1,8.8-21,13.2-2.7,1.7-4.7,1.7-6.8-1.1-2.4-3.4-5.2-6.5-8-9.6-2.9-3.2-2.2-5,1.3-7.4,13.7-9.4,27.4-18.9,40.8-28.8,9.2-6.7,9-7,16,1.6,1.1,1.3,2.5,2.4,3,3.9.5,1.5.7,4.1-.1,4.9-8.2,7.8-16.6,15.4-25.2,23.2Z"/>
  <path class="cls-51" d="M325.3,491.5c-.3-27-.3-53.8-.3-81.1,4.7-.9,9.4-1.3,14.5-1.2.5,28,.5,55.5.5,83-4.8-.2-9.5-.3-14.7-.7Z"/>
  <path class="cls-52" d="M340.3,492.4c-.3-27.7-.3-55.2-.3-83.2,4.1-1,8.1-1.5,12.6-1.6.8,28.7,1.1,57.1,1.4,85.4-4.4-.1-8.9-.2-13.7-.6Z"/>
  <path class="cls-50" d="M354.4,493.1c-.8-28.4-1.1-56.7-1.4-85.4,4.4-.8,8.7-1.3,13.6-1.7.4,29,.4,58,.4,87.4-4.1.2-8.1,0-12.6-.3Z"/>
  <path class="cls-23" d="M731.7,327.2c13.8-6.6,27.3-13,40.8-19.4,1.8-.8,3.8-1.2,6.1-1.4.7,3.5,1.1,6.5,1.4,9.5-16.4,7.9-32.9,15.8-50,23.8-15.1,7.6-29.5,15.1-43.9,22.5-.4-3.6-.7-7.2-1-11.2,1.3-.8,2.6-1,3.7-1.6,14.2-7.4,28.4-14.8,42.9-22.3Z"/>
  <path class="cls-20" d="M1086.2,280.2c4-1,8-2,12-3.1,6.2-1.6,5.5,3.6,6.7,6.7,1.4,3.7-1.3,4-3.9,4.5-4.4.9-8.7,1.9-13.5,3.3,6.2-.8,7.4,3,7.8,7.6.4,4.6.8,9.2,1.4,14.8-3,0-5.3-.2-7.5,0-2.8.3-3.8-1-4.2-3.6-.9-5.9-2.1-11.7-3.3-18.4-1.3,1.2-2.3,1.7-2.8,2.5-.8,1.4-1.4,3-2,4.5-4.2,9.9-5.1,10.1-14.6,3.3,5-11.7,10.1-23.5,15.3-35.8,3.7,1.6,7,3,10.8,4.6-1,2.7-1.9,5.1-3,8,.1.6.4.7.7.8Z"/>
  <path class="cls-20" d="M1010.9,290.2c-2.3-4.4-4.4-8.4-7.1-13.5-1.3,3.7-2.2,6.3-3.2,9.1,2.2.2,4,.4,6.1.7v10.1c-4.1,1.9-11.4-2.6-11.6,5.8-.9.2-1.2.4-1.5.3-10.2-2.4-10.2-.6-6.7-11.7,2.5-8,5.9-15.8,8.9-23.7,1.8-4.6,5.6-5.3,10.1-5.4,4.2,0,4.7,3,6.1,5.5,5.5,9.6,10.8,19.4,16.6,29.7-3.5,1.5-6.4,3-9.5,3.8-1,.3-3-.9-3.7-1.9-1.7-2.6-3-5.6-4.5-8.7Z"/>
  <path class="cls-61" d="M613.9,571.9c.6-.4.8-.6,1.1-.8q12.7-8.6,23,3c1.9,2.1,1.9,4,0,5.5-9,7.3-18,14.6-27.2,21.6-2.7,2.1-5.5,1.4-7.8-1.5-2.7-3.4-5.6-6.6-8.5-9.8-2.3-2.6-2.1-4.5,1-6.4,6.1-3.7,12.1-7.7,18.4-11.7Z"/>
  <path class="cls-2" d="M1062.2,291.5c-.6,2-.7,4.3-1.9,5-8.4,5-20.2,3.2-26.7-3.7-6.6-7.1-7.2-17.8-1.6-26.3,5.2-7.8,15.1-10.7,24.9-7.3.5.2.9.4,1.4.6,9.4,3.8,9.9,6.2,2.3,13.6-5.2-2.9-10.7-7.1-16.4-1.3-3,3.1-3.9,7.3-1.4,11,4.6,6.8,11.1,5,17.8,2.3.6,2.2,1,3.9,1.6,6Z"/>
  <path class="cls-61" d="M670.6,607.7c-11.3,2.8-9.2,2.5-12.6-6.4-3.2-8.4-6.1-16.9-9.1-25.3-.6-1.7-1-3.5-1.7-6,5.6-1,10.7-2.1,15.9-2.6,1.1-.1,2.9,1.6,3.7,2.8,4.9,8.7,9.9,17.3,14.2,26.3,3.4,7.1,2.7,7.8-4.7,9.8-1.8.5-3.5,1-5.7,1.6Z"/>
  <path class="cls-12" d="M302.6,443.9c.4,15,.4,30,.4,45.4-6.8-.2-13.6-.9-20.7-2.2,0-3.6.7-6.5.6-9.4-.2-9.9-.6-19.8-.9-29.7,6.7-1.3,13.4-2.7,20.6-4.1Z"/>
  <path class="cls-47" d="M261,484.8c-12.7-1.7-25.4-3-37.6-7,0-.6,0-1.2,0-1.8,7.8-1.1,15.5-2.3,23.3-3.4v-1c-2.9-.5-5.8-1-9.2-2.1-.4-6.8-.4-13-.4-19.2,7.7-.2,15.4-.4,23.5,0,.5,11.9.5,23.2.5,34.5Z"/>
  <path class="cls-46" d="M863.2,587.7c-1.1-6.8-1.9-13.3-3.1-19.7-.7-3.9.4-5.9,4.7-6.1,4.5-.2,9-.8,13.4-1.5,3.2-.6,5.1.6,5.3,3.6.7,10.1,1.2,20.2,1.3,30.4,0,1.2-2.7,3.2-4.4,3.5-3.7.7-7.6,1-11.4.6-1.6-.1-3.7-1.9-4.4-3.5-1-2-.9-4.5-1.3-7.3Z"/>
  <path class="cls-53" d="M216,467.6c-23.2-3.2-46.1-7.3-67.3-17.3.1-.9.3-1.8.4-2.6,22,.8,44,1.7,66.5,3,.5,6,.5,11.5.4,16.9Z"/>
  <path class="cls-4" d="M261.4,484.9c-.4-11.4-.4-22.8-.4-34.6,3.3-.8,6.6-1.1,9.9-1.4,3.4-.3,6.9-.6,10.7-1,.8,9.9,1.2,19.8,1.4,29.7,0,2.9-.6,5.9-1,9.3-6.8-.3-13.5-1.1-20.6-2Z"/>
  <path class="cls-2" d="M1032.4,551.7c-5.3,1.2-2.8,5.6-3.3,9-24.8-16.7-39.5-40.4-44.9-70.3,3.4.8,6.9,2.1,10.6,3.5,5.5,23.9,18.2,42.8,37.6,57.8Z"/>
  <path class="cls-58" d="M319.5,318.8c.5,9.2.5,18.3.5,28-8.7.1-17.4-.3-26.5-1.2-.4-8.2-.4-15.9-.4-23.6,8.7-1.1,17.4-2.2,26.5-3.2Z"/>
  <path class="cls-12" d="M302,381.1c-8.7-.7-17.4-1.4-26.6-2.7,0-8.2.3-15.8.6-23.4,8-.8,16-1.6,24.6-2,.9,2,1.4,3.6,1.4,5.2,0,7.6,0,15.3,0,22.9Z"/>
  <path class="cls-40" d="M302.3,381.3c-.3-7.9-.3-15.5-.4-23.1,0-1.6-.5-3.2-.9-5.2,6.6-1.6,13.4-2.8,20.5-4,.7,1.7,1.4,3.4,1.4,5.1,0,9.3,0,18.6,0,28.3-6.8,0-13.6-.4-20.7-1.1Z"/>
  <path class="cls-28" d="M755.6,617.5c-4.8-4.3-9.4-8.5-14-12.6-2.3-2-2.3-3.9,0-5.8.1-.1.2-.2.4-.3,9.7-10.4,9.8-10.5,22.3-3.5,3.3,1.9,6.3,4.3,9.5,6.4,2.6,1.7,2.5,3.5.5,5.7-3.1,3.3-6,6.7-9,10q-4.4,4.8-9.6.2Z"/>
  <path class="cls-68" d="M133.3,411c-.4-16.9-.5-33.8-.4-50.6,0-2.3.3-4.6.7-7.2-2.7,26.9,13.4,43.5,35.5,49.8,1.6.4,3.1,1,4.7,1.5.2.5.4,1,.5,1.5-1.9.7-3.8,2.1-5.7,2.1-5.3,0-10.7-1.1-15.9-.6-6.4.6-12.6,2.3-19.4,3.5Z"/>
  <path class="cls-19" d="M275.5,355c.1,7.7-.2,15.3-.6,23.4-9.5-.6-18.9-1.6-28.7-3.3-.3-6.4-.3-12.2-.3-18,9.7-.7,19.4-1.4,29.6-2.1Z"/>
  <path class="cls-28" d="M1277.2,552.9c1.4,1.4,2.6,2.6,3.7,3.9,1.8,2.2,1.6,4.2-.9,5.9-4.5,3.1-8.8,6.5-13.5,9.3-1.2.7-4,.4-5.1-.5-4.8-4.6-9.2-9.5-13.8-14.3-2.1-2.2-1.9-4,.7-5.6,1.9-1.1,3.6-2.4,5.4-3.6q8.7-5.8,17.3.1c2,1.4,3.9,3.1,6.2,4.8Z"/>
  <path class="cls-62" d="M297.5,412.1c.4,7.2.4,14.4.4,22-9.7.3-19.4.1-29.5-.5-.5-6.5-.5-12.5-.5-18.5,9.7-1,19.4-2,29.6-3Z"/>
  <path class="cls-2" d="M1003.1,556.9c8.1.8,12.8,4.5,14.5,11.2,1.4,5.8-1.3,12.3-6.5,15.5-5.2,3.2-12.1,2.8-16.7-1.3-4.5-3.9-6.3-8.9-4.6-14.8,1.9-6.5,6.3-9.9,13.4-10.6M1007.6,574.3c1.9-3.4,1.2-6.6-2.5-7.5-1.8-.4-4.6,1.5-6.1,3.1-.7.7.3,4.6,1.4,5,1.9.8,4.5,0,7.3-.5Z"/>
  <path class="cls-30" d="M1525.5,610.9c-2.9-5.6-5.7-11.2-8.5-16.9-1.5-3.1-1.4-5.3,2.6-6.2,2.2-.5,4.4-1.4,6.6-2.1,9.5-3.2,9.6-3.3,15.6,4.8,2.5,3.3,4.7,6.8,7,10.8-7.7,3.6-15.3,6.7-22.9,9.7,0,0-.3,0-.4,0Z"/>
  <path class="cls-62" d="M292.6,322c.4,7.7.4,15.4.4,23.5-8.4.1-16.7-.2-25.5-1-.4-6.1-.5-11.8-.5-17.5,8.4-1.7,16.8-3.3,25.6-5Z"/>
  <path class="cls-28" d="M457.4,566.3c6.2,4,12.1,8,17.8,12.4.7.5.3,4.1-.7,4.8-4,3.2-8.4,6-12.8,8.6-1.1.6-3.6.7-4.3,0-5-5-9.7-10.4-15.1-16.3,5.5-3.4,10.2-6.4,15.2-9.4Z"/>
  <path class="cls-46" d="M473.6,564.5c-3.3-2-6.3-3.8-9.2-5.6-2.6-1.6-3.3-3.6-.8-6,.6-.6,1.1-1.3,1.7-1.8,3-2.7,6.3-8,8.9-7.6,6.5,1,12.6,4.3,18.7,7.2.7.3.8,3.6,0,4.9-1.3,2.4-3.4,4.4-5.2,6.6q-5.9,7.3-14.1,2.3Z"/>
  <path class="cls-14" d="M267.6,415.1c.4,6,.4,12,.4,18.4-8.4.5-16.7.5-25.5,0-.5-5.3-.5-10.2-.6-15,8.4-1.1,16.8-2.3,25.7-3.4Z"/>
  <path class="cls-31" d="M245.5,357c.5,5.8.4,11.6.4,17.8-8.7-.6-17.4-1.7-26.5-3.4-.4-4.8-.4-9-.4-13.2,8.7-.4,17.4-.8,26.6-1.2Z"/>
  <path class="cls-53" d="M218.5,358.2c.5,4.3.5,8.5.5,13.2-15.4-1.8-31-3.4-45.4-9.5v-2.2c2.1-.4,4-1.2,6-1.3,12.8-.2,25.6-.2,38.9-.2Z"/>
  <path class="cls-58" d="M321.4,384.7c.5,5.1.5,10.3.5,16-9,0-18.1-.3-27.5-1.2-.4-4.5-.5-8.4-.5-12.3,9-.8,18-1.6,27.5-2.5Z"/>
  <path class="cls-31" d="M241.5,418.5c.5,4.8.5,9.6.5,14.8-12.2.8-24.4.2-36.7-2.2,10.1-9.6,23.2-10.2,36.1-12.6Z"/>
  <path class="cls-59" d="M216.4,467.7c-.4-5.6-.4-11.1-.4-17,6.7-.5,13.4-.5,20.5-.5.5,6.3.5,12.5.5,19.2-6.7-.2-13.4-.9-20.6-1.7Z"/>
  <path class="cls-14" d="M266.6,327c.4,5.7.5,11.4.4,17.4-10.7-.3-21.3-.9-32-1.6-.1-.6-.2-1.2-.3-1.8,8.3-9.2,20.3-10.7,31.9-14Z"/>
  <path class="cls-62" d="M293.6,387.1c.4,4,.4,7.9.4,12.3-14.7-.3-29.4-1-44.1-1.7,0-.6,0-1.1,0-1.7,13.8-6.1,28.7-7.1,43.8-8.9Z"/>
  <path class="cls-3" d="M1261.3,485.1c3-7.3,6.7-14.6,9.8-22.1,3.5-8.4,6.6-17,10.1-25.8,7.3,20.8.5,37.4-19.9,47.9Z"/>
  <path class="cls-2" d="M1045.8,406.8c1.3,2.9,2.1,6,3,9.3-10.7,1.8-20.9,4.6-30.4,10.7-.7-3.2-1.1-6.6-1.5-10.4,9.5-3.5,19-6.5,28.9-9.6Z"/>
  <path class="cls-33" d="M543.3,499c-.2-.5-.2-1.1.1-1.4,12.8-13.2,25.6-26.4,38.4-39.5.3-.3.8-.4,2.2-1.1,0,2.7,0,5-.1,7.6-1.2,1.5-2.6,2.4-3.4,3.7-9.6,13.4-22,23.5-37.1,30.7Z"/>
  <path class="cls-10" d="M803.5,318.5c-.2,1.6-.4,2.7-1.2,4.1-4.9.3-9.2.2-13.5.5-1.3,0-2.6,1.3-3.9,2-1.3-2.8-2.6-5.6-3.8-9,1.9-1.6,3.5-2.5,5.3-3.3,5.2-2.3,10.4-4.5,16-6.7,1.1,0,1.8,0,2.6,0-.5,4-1,8-1.5,12.5Z"/>
  <path class="cls-56" d="M805.2,305.7c-1,.3-1.7.3-3.2.1-2.8-.4-4.9-.7-7-.9-4-.4-8-.7-12.1-1.1,7.4-3,14.9-6,22.7-8.9,2.3.7,4.2,1.7,6.2,1.9,4.2.5,8.5.5,13.1,1.1-6.3,2.7-12.9,5.1-19.7,7.7Z"/>
  <path class="cls-2" d="M1526,611.3c7.6-3.4,15.2-6.5,23.2-9.9.4-.3.6-.4.6-.5q.9,8.7-8.2,12c-2,.7-4.2,1.1-6,2.2-4.8,2.9-7.6,1.1-9.6-3.8Z"/>
  <path class="cls-28" d="M497,543.1c-.4-.8-.7-1.2-.8-1.7-.5-2.3-4.2-4.8.5-6.8,6-2.6,8-2.3,9.8,2.5.8,2.1,4.2,5.1.4,6.7-2.9,1.3-6.9,4.8-10-.8Z"/>
  <path class="cls-2" d="M661.4,558.4c-.3-1.8-.5-3.3-.7-4.6,7.6-2.9,10.7-2.6,11.3,1.4.4,2.8,4.7,6.7-.7,8.7-5.9,2.1-8.3.5-9.9-5.4Z"/>
  <path class="cls-28" d="M524,536.1c-.2,1-.3,1.7-.7,2.2-4.2,6.6-10,6.5-13.8-.4-.5-.9,0-3.1.9-3.7,1.9-1.5,4.4-3.6,6.2-3.2,2.7.6,4.9,3.1,7.4,5.1Z"/>
  <path class="cls-2" d="M680.3,564c-1-1-1.8-1.6-2.3-2.5-1.2-2-5.2-3-2.2-6.4,3.7-4.1,6.4-4.5,10-.8,1.6,1.6,6,2.7,3.4,5.9-1.9,2.2-3.8,7.1-8.9,3.8Z"/>
  <path class="cls-33" d="M541.3,500c.2-.4.6-.8,1.4-1.1-.2.4-.6.8-1.4,1.1Z"/>
  <path class="cls-69" d="M1399,389.1c6.1-18.8,14.2-36.5,29.2-50.8.6-.4.8-.4,1-.4,13.7,5.1,26.2,12.1,36.9,22.2,19.1,18,27.5,40.3,26.2,66.3-.4,8.1-1.6,16.2-2.5,24.3-1.4,12.4,1.3,23.7,8.9,33.7,7.7,10.2,7.2,12.3-4,18.4-7.6,4.1-15.3,8-22.7,12.4-6.8,4-13,3.9-20,0-25.3-14.5-37.9-39.8-34.3-68.7,1.3-10,2-20.2,1.4-30.2-.8-12.5-8.1-21.1-19.8-26.4-.3-.3-.3-.7-.3-.7Z"/>
  <path class="cls-49" d="M1450.1,608.2c-.4,2.2-.7,4-1,5.8q-1.5,9.4-10.7,7.7c-3.3-.6-6.5-1.4-9.8-1.7-3.5-.3-4.5-1.7-3.9-5.2,2-11.6,3.7-23.3,5.5-34.9,0-.6.1-1.2.2-2.2-7.9.8-15.5,1.5-23,2.4-3.5.4-5.2-.6-5.6-4.4-.4-3.6-1.3-7.2-2.3-10.7-.9-2.9,0-4.3,2.8-5.1,20.7-5.8,41.4-11.7,62.1-17.7,3.2-.9,5.4-.4,6.7,3,1.8,5,3.8,9.9,5.8,14.8,1.3,3.1.3,5-3,5.9-9.7,2.8-19.3,5.7-29,8.6.5.2,1.2.4,1.9.6,8.2,2.1,8.3,2.1,7,10.4-1.1,7.4-2.5,14.7-3.8,22.5Z"/>
  <path class="cls-30" d="M1475.3,616.1c-.8-2.5-2.2-5-1.6-7.1,5.5-19.8,11.4-39.5,16.9-59.2,1.1-3.8,2.9-4.7,6.4-3.9,4.8,1.1,9.7,2.1,14.6,2.8,4.1.5,4.3,2.6,3.2,5.8-4.3,12.9-8.5,25.8-12.9,39.4,3.2,0,5.9.1,8.6,0,2.8-.2,4.3.9,4.8,3.7,2.8,14.6,5.5,14.7-10.7,17.6-9.5,1.7-19.4.8-29.4.8Z"/>
  <path class="cls-6" d="M1332.6,317.2c-5.7,31.1-11.6,62.3-17.6,93.5-.3,1.5-.7,2.9-1,4.8-7.9-2.1-15.8-4.6-24-7.2,8.3-27.6,14.4-55.4,31.3-78.8,3.2-4.4,7.3-8.1,11.3-12.2Z"/>
  <path class="cls-6" d="M1429.4,337.6c-.4.3-.6.4-1.1.4-9.1-2.3-17.9-4.5-27-6.8,1.9-10.1,3.9-20.7,5.9-31.6,19.3,3.3,35.3,13.4,52.1,25.4-12.3,1-21.7,5.2-30,12.6Z"/>
  <path class="cls-39" d="M1259.4,392.8c0-5.9,4.2-8.1,8.9-8.6,5.6-.7,11.4-.2,17.5-.2-1.3,6.5-3,13-4.9,20.2-7.5-4-14.3-7.6-21.5-11.4Z"/>
  <path class="cls-39" d="M1398.6,389.2c.4,0,.4.3.4.4-2.7,10.8-5.4,21.4-8.2,32.4-1.7.3-3.8.6-6.3.9,1.4-10,3.1-20.1,4.9-30.1.3-1.6.6-3.2,1.1-5.2,2.7.6,5.2,1.1,8.2,1.6Z"/>
  <path class="cls-65" d="M1275.1,422.6c-3.1-4.4-6.1-9.1-9.1-14.2,3.9,1.5,7.9,3.3,12.1,5.2-1,3.1-1.9,5.9-3,9Z"/>
  <path class="cls-65" d="M1390.4,560.3c-.9-5.7-1.5-11.6-2.3-18,6.1,4.8,3.8,11.4,2.3,18Z"/>
  <path class="cls-65" d="M1061.4,576.2c-2.1,2.5-4.5,5-7.2,7.6-.4-2.9-.7-6-1.1-9.6,2.6.3,5.3,1.1,8.3,1.9Z"/>
  <path class="cls-8" d="M1203.7,544.5c0,0,0,0,0,0Z"/>
  <path class="cls-26" d="M500.2,266c18.1-27.5,43.6-43.1,76.9-44.1,18-.6,31.7,9.6,38.5,27.1,5.1,13.2,5.9,26.7,5.5,41-1,30.8-10.3,59.4-20.1,88.1-1.2,3.4-3.6,3.7-6.1,3.8-9.3.5-18.6.8-28.4,1.1-3.2-2.1-6-4.2-8.2-5.8,4-8.3,9-15.8,11.5-24.1,9.4-30.5-5.6-62.5-34.9-77.2-10.9-5.5-22.4-8.1-34.7-9.8Z"/>
  <path class="cls-8" d="M489.2,417.1c6.2.8,12.2.7,17.6,2.5,14.2,4.9,17.6,21.7,7,32.4-8.1,8.1-18.3,11.2-29.3,12.1-9.9.7-9.8.5-11.5-9.5-1.7-9.5-3.3-19-5.5-28.4-1-4.4,0-6,4.5-6.4,5.6-.5,11.2-1.7,17.2-2.6Z"/>
  <path class="cls-60" d="M473.4,323c1.8,16.1,7.4,30.3,18.2,42.7-10,6.6-21.3,9.1-33.3,11-3.1-16.5-6.1-32.8-9.2-49.4,7.7-3.4,15.6-4.7,24.3-4.3Z"/>
  <path class="cls-39" d="M500,358.6c-8.5-7.2-12.3-17.2-14.9-27.9-.5-1.9-.7-3.9-1-6.2,17,4.7,23.7,19.3,15.9,34.1Z"/>
  <path class="cls-39" d="M577,393.4c6.2-.7,12.5-1,19.2-1.4-2.4,8.9-4.8,17.4-7.3,26.3-4-8-8-16.3-11.9-25Z"/>
  <path class="cls-26" d="M805.4,400.8c-1-3.5-1.4-6.9-2.1-10.3-2.4-11.7,2.2-17.7,15.3-19.4,5.1-.7,10.2-.8,15.7-1.1,1.4,12.7,2.4,25.3,3.4,38.4-7.8-2-15.6-4.6-23.5-6.8-2.7-.7-5.6-.5-8.9-.8Z"/>
  <path class="cls-16" d="M834.1,352c-.8-17.3,2.2-12.7,14.1-14.8,3.8-.7,7.9-.2,12.3-.2-1.3,5.3-3,10.5-5.4,15.8-7.5-.2-14.2-.5-21-.7Z"/>
  <path class="cls-34" d="M834.1,352.4c6.8-.2,13.6,0,20.8.5-2.9,8.8-9.5,13.6-18.6,15.9-1-5.4-1.6-10.7-2.2-16.4Z"/>
  <path class="cls-6" d="M686.3,362.6c14.3-7.8,28.7-15.3,43.5-22.7-1.4,12.5-3.1,25-4.9,37.4-.2,1.1-1.1,2.9-1.9,3-6.6,1.3-13.3,3.3-19.9,3-9.8-.4-13.7-8-15.9-16.5-.3-1.3-.5-2.6-.9-4.2Z"/>
  <path class="cls-39" d="M634.3,418.6c-13.1,1.8-25.6,5.3-37.7,13.5.8-4.2,1.2-7.2,2-10.2,2.4-9,5.1-17.9,7.2-26.9,1-4,3-5.8,7-6,1.8-.1,3.6-.7,5.8-1,2.9,11.4,8.2,21.4,15.8,30.6Z"/>
  <path class="cls-44" d="M793.9,383c-1,6.4-2,12.8-2.9,19.6-.8.7-1.5,1.1-2.6,1.4-3.7-6-7.1-11.9-10.3-18.6,1.8-1.3,3.4-2.2,5.1-2.3,3.6-.3,7.2,0,10.9-.1Z"/>
  <path class="cls-25" d="M796.9,363c-.5,3.4-1,6.9-2.2,10.7-6.9.4-13.2.4-19.5.4,1.1-3.9,2.1-7.8,3.9-11.7,6.4.2,12.1.4,17.8.6Z"/>
  <path class="cls-1" d="M785,325.4c1.2-1,2.5-2.2,3.8-2.3,4.3-.3,8.6-.1,13.4-.1-.2,5-.8,10.1-1.5,15.6-.1.5-.5.6-.5.6-2.8-1.9-5.7-3.6-8.2-5.9-2.5-2.3-4.6-5-7-7.9Z"/>
  <path class="cls-36" d="M775.1,374.4c6.3-.4,12.6-.4,19.4-.4.1,2.7-.2,5.4-.6,8.6-3.7.4-7.3.3-10.9.5-1.7.1-3.3,1-5.1,1.9-1.1-3.1-2-6.7-2.8-10.6Z"/>
  <path class="cls-70" d="M796.9,362.6c-5.8.2-11.5,0-17.6-.4,4.3-7,11.6-10.1,19.2-13.2-.3,4.4-.9,8.8-1.5,13.7Z"/>
  <path class="cls-9" d="M782.6,304c4.4.3,8.4.7,12.4,1,2.1.2,4.2.5,6.6.9-4.8,2.4-10,4.6-15.2,6.9-1.8.8-3.4,1.7-5.3,2.9-.2.3-.6.3-.9.3-.6-3.1-.9-6.1-1.3-9.6,1.1-1.1,2.2-1.8,3.6-2.4Z"/>
  <path class="cls-39" d="M800.2,339.6c0-.4.4-.5.6-.6,1.3,0,2.6-.2,3.6.3,1.3.7,3.2,1.9,3.3,3,.1,1.1-1.5,2.6-2.7,3.4-1.5,1-3.3,1.4-5.3,2.2,0-2.6.3-5.3.6-8.3Z"/>
  <path class="cls-65" d="M617,377.5c-1.7.9-3.4,1.3-6.3,2,2-4.9,3.6-8.9,5.5-12.7.4,3.6.6,7,.8,10.8Z"/>
  <path class="cls-63" d="M330,568q-10.3-2.6-8.1-12.7c1.5-6.7,1.5-6.7,7.9-5.3,11.8,2.6,23.6,5.4,35.5,7.9,3.5.7,5.1,2,3.8,5.7-1.4,4-1.5,9.7-4.3,11.5-2.5,1.6-7.7-.9-12.2-1.7-2.9,12.8-5.9,25.4-8.5,38-.9,4.5-2.3,6-7.2,4.8-13.3-3.3-13.4-3-10.3-16.5,2-8.9,4-17.8,6-26.7.5-2.2,1.2-4.4-2.6-4.8Z"/>
  <path class="cls-63" d="M383.8,625.1c-6.5,0-12.6.1-18.7-.1-2.9-.1-4.4-1.9-4-5.1.4-3.4.6-6.9.9-10.6,2.7,0,4.9.1,7.2,0,5.9-.5,8.2-3.6,7-9.4-.8-3.6-1.8-7.1-2.6-10.7-2.6-12.2,3.3-20.6,15.7-22.1,1.3-.2,2.7-.2,4-.2,16.9.9,15.6,2,13.5,17-1.9,0-3.8,0-5.8,0-5.4,0-7.7,2.5-6.9,7.8.5,3.1,1.5,6.1,2.4,9.2,3.4,12.5-.2,19.6-12.7,24.3Z"/>
  <path class="cls-26" d="M610.2,498.9c-11.1-7.1-14.9-17.9-16.1-29.9-.4-3.6.2-7.4-.4-11-1.4-9.3,3-14.8,10.7-19.1,11.1-6.3,22.7-10.5,35.6-9.3,15.1,1.4,24.1,10.9,25,26.2.9,14.8-3.6,27.9-13.5,39-10.3,11.5-25,13-41.3,4.1Z"/>
  <path class="cls-13" d="M1114.1,375.8c2.7,3.9,5.3,7.5,8.2,10.9,6.8,8.2,6.2,16.2-1.8,23.1-1.8,1.5-3.7,3-5.8,3.9-12,5.2-11.7,5.5-15.9-7.9.2-.3.4-.6.6-.7,10.7-4,8.8-9.7,2.4-16.1-11.1-11.1-9.5-22.5,4-28.6,11.7-5.4,11.7-5.3,15.9,7-2.8,3-5.2,5.6-7.6,8.5Z"/>
  <path class="cls-13" d="M1078.3,366.2c3.9-.9,5.6.1,6,4,1.1,11.2,3,22.4,3.9,33.7,1.3,16.4-13,22.5-24.9,21-1.1-.1-3-2.2-2.8-3,.5-2.8,1-7,3-8,8.3-4.5,8.7-4.1,7.7-13.7-.9-8.3-2.3-16.5-3.6-24.7-1.2-7.3-1.3-7.4,6-8.5,1.5-.2,2.9-.5,4.8-.8Z"/>
  <path class="cls-26" d="M799.8,411.5c13.8-2,25.7,2.4,37.2,8.4,21.1,11,38.6,26,50.9,46.5,14.3,23.8,8.5,44.7-15.6,58.6-14.7,8.5-30.7,12.6-47.3,14.6-23.9,2.8-47.6,2.1-70.1-7.7-7.5-3.3-14.8-7.9-20.7-13.4-13.4-12.5-15.5-30.6-6.4-48.6,10.3-20.4,26.3-35.5,45.6-47,8-4.8,17.3-7.5,26.4-11.3M751.5,490c-3.2.7-6.5,1.3-9.6,2.2-1,.3-2.5,1.7-2.5,2.5,0,.9,1.4,2.2,2.5,2.6,2.8,1,5.7,2.3,8.5,2.2,7.5-.3,15-1.1,22.5-2,1.1-.1,2-1.9,3-2.9-1.1-.9-2-2.2-3.3-2.7-2.3-.9-4.7-1.4-6.8-2.8,2-3.9,1.4-7.4-2-10.2-2.9-2.4-6.1-2.5-9.2-.4-3.7,2.4-4.4,5.9-3.1,11.5M837.1,489.2c2.1-5.9.2-10.4-4.9-11.8-4.4-1.2-9.3,1.9-9.7,6.6-.2,2.3,1.2,4.6,1.1,7-.6.2-1.3.3-1.9.7-1.2.9-2.4,2-3.6,3,1.2,1.1,2.2,2.5,3.5,3.1,2.4.9,5.1,1.9,7.7,1.8,7.4-.3,14.7-1,22.1-1.9,1.2-.1,2.3-2,3.4-3.1-1.2-1-2.4-2.6-3.8-2.8-4.7-.8-9.5-1.2-14-2.5M807.7,485.5c-3.3-1.6-5.5-.3-7.7,2.4-3.7,4.5-7.7,4.6-11.7.4-2.1-2.2-4.3-3.2-7-1.2-2.8,2.1-2.6,4.7-.8,7.5,3.3,5.1,8.1,7.3,14,6.8,6.8-.6,12.1-3.6,14.9-10,.6-1.4-.7-3.6-1.7-5.9M836,427.6c-1.4-4.4-12.2-12.2-16.5-11.6-1.5.2-3.7,1.5-4.1,2.8-.4,1.5.2,4.3,1.3,5.2,3.9,3,8.1,5.8,12.5,8.1,3.5,1.8,6,.4,6.8-4.4M813.8,436.3c2.1-5.9-.2-11.4-2.2-16.6-.6-1.6-4.5-3.5-5.5-2.9-1.8,1-3.5,3.9-3.5,6,0,3.4,1.3,6.7,2.1,10.1,1.3,5.3,3.2,6.2,9,3.4M788.2,433c2.9-2.8,5.9-5.5,8.8-8.3,2.5-2.3,2.8-5,.2-7.3-2.8-2.5-5.6-1.3-7.9,1-1.8,1.9-3.5,3.9-5.2,6-3.5,4.3-2.4,7.2,4,8.7Z"/>
  <path class="cls-8" d="M1086,280c-.1,0-.5,0-.7-.3.1-.2.5.1.7.3Z"/>
  <path class="cls-65" d="M1007.3,574.6c-2.5.4-5.1,1-7,.3-1-.4-2-4.2-1.4-5,1.5-1.6,4.4-3.5,6.1-3.1,3.7.9,4.4,4.1,2.2,7.8Z"/>
  <path class="cls-29" d="M808,485.8c.7,2.1,2,4.3,1.4,5.6-2.7,6.4-8.1,9.5-14.9,10-5.9.5-10.7-1.7-14-6.8-1.8-2.7-2-5.3.8-7.5,2.6-2,4.9-1,7,1.2,4,4.2,8,4.1,11.7-.4,2.2-2.7,4.4-4,8-2.1Z"/>
  <path class="cls-55" d="M836.9,489.9c4.8.6,9.5.9,14.2,1.8,1.4.2,2.5,1.8,3.8,2.8-1.1,1.1-2.2,3-3.4,3.1-7.3.9-14.7,1.6-22.1,1.9-2.5.1-5.2-.8-7.7-1.8-1.4-.5-2.4-2-3.5-3.1,1.2-1,2.3-2.1,3.6-3,.5-.4,1.2-.5,2.6-.7,5,3.3,8.9,2.2,12.5-1.1Z"/>
  <path class="cls-55" d="M765.4,489.8c2.4.7,4.8,1.1,7.1,2.1,1.3.5,2.2,1.7,3.3,2.7-1,1-1.9,2.8-3,2.9-7.5.9-15,1.8-22.5,2-2.8.1-5.8-1.2-8.5-2.2-1.1-.4-2.4-1.7-2.5-2.6,0-.8,1.4-2.2,2.5-2.5,3.1-1,6.4-1.5,10.3-2.1,5.9,4,8.1,4,13.3-.3Z"/>
  <path class="cls-36" d="M836,428c-.7,4.5-3.3,5.9-6.8,4-4.4-2.3-8.6-5-12.5-8.1-1.2-.9-1.8-3.7-1.3-5.2.3-1.2,2.5-2.5,4.1-2.8,4.3-.6,15.1,7.2,16.5,12Z"/>
  <path class="cls-45" d="M765.6,489.5c-5.3,4.6-7.5,4.7-13,.6-2.4-5.8-1.8-9.2,2-11.6,3.2-2,6.3-1.9,9.2.4,3.4,2.8,4,6.3,1.8,10.6Z"/>
  <path class="cls-45" d="M837,489.6c-3.7,3.7-7.6,4.8-12.2,1.4-1-2.4-2.4-4.8-2.2-7,.3-4.7,5.2-7.8,9.7-6.6,5.1,1.4,6.9,5.9,4.8,12.2Z"/>
  <path class="cls-36" d="M813.6,436.6c-5.6,2.4-7.5,1.6-8.8-3.7-.8-3.4-2.2-6.7-2.1-10.1,0-2.1,1.7-4.9,3.5-6,1-.6,4.9,1.3,5.5,2.9,2,5.3,4.3,10.7,1.9,16.9Z"/>
  <path class="cls-36" d="M787.8,433c-6-1.5-7.1-4.4-3.6-8.7,1.7-2,3.3-4.1,5.2-6,2.3-2.3,5.1-3.5,7.9-1,2.6,2.3,2.2,5-.2,7.3-2.9,2.8-5.9,5.6-9.2,8.4Z"/>
</svg>