<?xml version="1.0" encoding="UTF-8"?>
<svg id="Layer_1" data-name="Layer 1" xmlns="http://www.w3.org/2000/svg" version="1.1" viewBox="0 0 1920 680">
  <defs>
    <style>
      .cls-1 {
        fill: #825b46;
      }

      .cls-1, .cls-2, .cls-3, .cls-4, .cls-5, .cls-6, .cls-7, .cls-8, .cls-9, .cls-10, .cls-11, .cls-12, .cls-13, .cls-14, .cls-15, .cls-16, .cls-17, .cls-18, .cls-19, .cls-20, .cls-21, .cls-22, .cls-23, .cls-24, .cls-25, .cls-26, .cls-27, .cls-28, .cls-29, .cls-30, .cls-31, .cls-32, .cls-33, .cls-34, .cls-35, .cls-36, .cls-37, .cls-38, .cls-39, .cls-40, .cls-41, .cls-42, .cls-43, .cls-44, .cls-45, .cls-46, .cls-47, .cls-48, .cls-49, .cls-50, .cls-51, .cls-52, .cls-53, .cls-54 {
        stroke-width: 0px;
      }

      .cls-2 {
        fill: #dbe1e7;
      }

      .cls-3 {
        fill: #040404;
      }

      .cls-4 {
        fill: #fafcfc;
      }

      .cls-5 {
        fill: #fe515a;
      }

      .cls-6 {
        fill: #67d142;
      }

      .cls-7 {
        fill: #815a45;
      }

      .cls-8 {
        fill: #ff525b;
      }

      .cls-9 {
        fill: #684630;
      }

      .cls-10 {
        fill: #2269b2;
      }

      .cls-11 {
        fill: #97f1fc;
      }

      .cls-12 {
        fill: #c0c9d3;
      }

      .cls-13 {
        fill: #474747;
      }

      .cls-14 {
        fill: #454545;
      }

      .cls-15 {
        fill: #eceff2;
      }

      .cls-16 {
        fill: #ced5dd;
      }

      .cls-17 {
        fill: #fa4e56;
      }

      .cls-18 {
        fill: #684530;
      }

      .cls-19 {
        fill: #fbfbfb;
      }

      .cls-20 {
        fill: #50a433;
      }

      .cls-21 {
        fill: #050505;
      }

      .cls-22 {
        fill: #98f0fa;
      }

      .cls-23 {
        fill: #e3e8ed;
      }

      .cls-24 {
        fill: #fdfdfd;
      }

      .cls-25 {
        fill: #ff535c;
      }

      .cls-26 {
        fill: #03e5ff;
      }

      .cls-27 {
        fill: #ad6d4c;
      }

      .cls-28 {
        fill: #ae6e4d;
      }

      .cls-29 {
        fill: #fffefe;
      }

      .cls-30 {
        fill: #ae6e4c;
      }

      .cls-31 {
        fill: #070707;
      }

      .cls-32 {
        fill: #af6f4d;
      }

      .cls-33 {
        fill: #060606;
      }

      .cls-34 {
        fill: #03e4fe;
      }

      .cls-35 {
        fill: #68d243;
      }

      .cls-36 {
        fill: #fb4f58;
      }

      .cls-37 {
        fill: #4fa332;
      }

      .cls-38 {
        fill: #b5c0cb;
      }

      .cls-39 {
        fill: #464646;
      }

      .cls-40 {
        fill: #66d141;
      }

      .cls-41 {
        fill: #15d5eb;
      }

      .cls-42 {
        fill: #fc4f58;
      }

      .cls-43 {
        fill: #4290de;
      }

      .cls-44 {
        fill: #fc5059;
      }

      .cls-45 {
        fill: #bc8a70;
      }

      .cls-46 {
        fill: #67d242;
      }

      .cls-47 {
        fill: #af6f4e;
      }

      .cls-48 {
        fill: #090909;
      }

      .cls-49 {
        fill: #ae6d4c;
      }

      .cls-50 {
        fill: #a96a49;
      }

      .cls-51 {
        fill: #4ea231;
      }

      .cls-52 {
        fill: #ae6d4b;
      }

      .cls-53 {
        fill: #805a45;
      }

      .cls-54 {
        fill: #ae6f4e;
      }
    </style>
  </defs>
  <path class="cls-29" d="M145,463c0-16,0-32,.4-48.2.8-1,1.5-1.8,1.6-2.7,1.7-12.6,3-25.2,5.1-37.7,3.6-21.8,10.4-42.7,20-62.6,8.4-17.4,18.2-33.8,30.9-48.5,2.6-3,7.4-5.4,6.1-11-.8-3.5-.8-7.1-1.3-10.7-1.2-9-2.6-18-3.8-27-1.1-8.4-2.6-16.7-3.2-25.2-.7-9.2-2.1-18.8-.5-27.7,3.6-19,19.1-31.2,35.5-34.5,12.7-2.6,25.8-3.5,38.7-5.2,3.5-.5,7.1-.8,10.4-2,7-2.6,13.9-5.8,20.1-8.4,0-5.7-.4-11.3,0-16.8,1.1-13.3,8-23.3,18.6-31,8.7-6.2,17.3-12.5,25.9-18.8,12.4-9.2,25.3-17,41.6-16,1.1,0,2.4-1,3.2-1.9,10.9-12.1,23.1-22,40.1-24.1.6,0,1-1.2,1.5-1.9,6.4,0,12.7,0,19.2.3.7.8,1.1,1.5,1.7,1.6,23.4,4,39.2,17.4,48.4,38.9,4.7,11,5.8,22.4,3.9,34.4-1.6,10.3-6,19.2-11,27.4,2.8,4.1,5.2,7.9,7.9,11.5.8,1,2.8,2,4,1.8,18.1-3.8,36.2-7.7,54.3-11.6,14.4-3.1,27.3-.1,38.7,9.3.9.8,3.2,1.2,4.1.6,8.2-5.8,16-12.1,24.2-17.9,14.3-10.2,29.8-14.3,46.9-8.3,5.8-9.5,12.8-17.8,23.4-22,5.9-2.3,12.2-4.2,18.4-5.3,12-2.2,24-4.4,36.1-5.4,11.1-.9,22.3-.5,33.5,0,4.7.2,9.8,1.1,13.9,3.3,7.3,3.9,14.1,9.1,20.2,13.2,7.3-1.6,14.6-3.6,22-4.6,10.9-1.4,20.6,3,30.2,7.4,15.4,7,29.6,16,42.1,27.3,9.7,8.8,19.5,17.7,25.6,30.5,3.3-.4,7.2,0,10.3-1.5,21-9.5,42.8-13.2,65.6-9.9,3.1.4,6.4.7,9.5.4,10.4-1,17.9-7.3,24.5-14.6,9.7-10.6,21.5-15.3,36-13.9,9.1.9,17,4.1,23.2,10.6,9.5,10,18.5,20.5,27.9,30.7,1.4,1.5,3.5,2.3,5.8,3.8,1.4-9.8,5.8-17,10.9-24,.6-.8,1.2-2.4.8-3.1-4-8.3-5.4-16.9-4.4-26.2.9-8.3-.3-17,1.3-25.1,3.8-19.2,21.5-33.6,41.6-33.5,24.9.2,49.8.8,74.7.9,9.3,0,18.6-.2,26.7,5.4,9.6-10.9,22-13.7,35.3-14.3,5.2-.2,10.6-.2,15.7-1.2,11.9-2.3,23.1-.3,33,6.3,11.9,7.9,19.1,19.1,19.9,33.8,10.5.2,19.7,3,28,8.9,6.1,4.3,12.3,8.4,18,13.1,11.8,9.6,23,19.9,26.9,35.6.3,1.1,2.2,2.4,3.4,2.5,10.3.5,19.4,4.1,28.1,9.3,1.5.9,3.7,1,5.6,1,6.1,0,12.3,0,18.4-.3,4.3-.2,8.6,1.6,12.8-1.6,2.4-1.8,5.8-2.6,8.9-3.3,8.5-1.8,17-4.1,25.7-4.9,14.2-1.3,27.7,1,38.3,11.8,9.6,9.9,16.5,21.5,21.6,34.2,1.6,4.1,3,8.3,9.1,7,1.9-.4,4.3,1,6.4,1.8,31.2,10.7,62.6,21,93.6,32.3,15.1,5.5,25.3,16.6,28,33.3,0,.6,1.3,1,1.9,1.5,0,4,0,8-.3,12.2-.7.5-1.3.8-1.4,1.2-3.1,10.3-5.8,20.7-9.4,30.8-4.6,12.7-12.8,22.7-25.9,27.1-7.1,2.4-14.9,2.5-21.4,3.6,1.7,6.7,4.5,14,5.2,21.5,1.6,16.8-3.4,32-13.4,45.6-3.3,4.6-7.9,8.6-10.1,13.6-6.5,14.6-12.1,29.7-17.9,44.6-1,2.6-2.5,5.7-2.1,8.2,3,18.5,7.4,36.9,9.4,55.5,2.6,23.7-7.2,40.2-28.5,51.7-10.6,5.7-22.6,9.1-34.2,12.7-21.2,6.5-42.9,8.9-65.2,6.9-16.3-1.4-31.9-4.6-47.2-10.2-18-6.6-34.5-15.9-49-28.6-2.2-1.9-5.7-2.9-8.7-3.3-7.5-1-15-1.6-22.5-2.1-5.5-.3-10.6-.4-15.1,4.7-10,11.3-20.8,21.9-31.4,32.7-18.8,19.2-37.7,38.5-56.6,57.6-8.4,8.5-17.6,16.4-25.3,25.6-12.3,14.6-26.9,23.5-46.4,22.2-14.5-1-26.9-7.1-35.6-19.1-6-8.3-11.3-17.2-16.8-25.7-6.8,1-13.5,2.5-20.2,2.7-15.9.5-30-4.8-40.2-17.1-4.1-5-7.9-4-12.4-3.5-9.4,1.1-18.7,2.6-28.1,3.6-8.6.9-17.4.8-26,2.2-15.8,2.6-30.2.2-42.9-10-8.8,8.4-19.2,13.7-30.9,13.7-23.9.1-47.8-.4-71.7-.9-10.6-.2-19.2-5.7-27.4-11.5-9.4,6.3-19.2,11.1-31,10.6-11.7-.5-23.5-.7-35.3-1-9.6-.3-19.3,0-28.7-1.2-7.5-1-15.1-3.1-22.2-6-5.3-2.1-9.7-6.2-14.8-9.6-9.1,5-19.2,8.7-30.1,7.6-9.6-1-19.1-3.3-28.5-5.5-12.2-2.9-24.4-5.9-36.4-9.4-15.7-4.6-30.1-11.5-36.9-28-1.3-3.1-3.4-3.4-5.9-2.9-13.4,3-25.4-1.2-36.3-8.4-14.5-9.6-26.5-22.1-38.7-34.5-1.6-1.6-3.5-3-5.4-4.2-6.9-4.4-13.9-8.8-20.9-13-1.2-.7-2.7-1.1-4.1-1-4,.3-8.1.9-11.8,1.4.1,1.3.6,2.6.3,3.8-1.2,6.6-2.3,13.3-4,19.9-4.6,18-14.8,32.3-30.1,42.8-17,11.8-36.1,14.2-55.9,10.8-8.8-1.5-18.1-3-24.7-9.9-5.2-5.4-10.1-11.4-14.3-17.6-13.8-20.4-27.3-41-41-61.6-10.8-16.2-21.6-32.5-32.5-48.7-.9-1.3-2.5-2.8-3.8-2.9-2.7-.2-5.4.6-8.1,1-9,1.3-18,2.9-27,3.7-9.5.9-18.6-1.2-27-6.2-.7,1.1-1.2,1.8-1.5,2.5-7,16.7-15,33.1-20.7,50.2-7.1,20.9-26.8,35.9-48.1,31.7-15.3-3-29.5-15.9-32.1-32.4-1.3-8.4-2-16.8-3.1-25.2-.1-.9-1.3-1.7-1.9-2.5M1640.1,382.9c4.7,3.4,7.8,3.2,11.6-.9,2.9-3.1,5.6-6.4,9-9.2,8.5-3.5,14.2-10,19-17.5,5.8-9.2,5.3-18.4-1.1-27-3.5-4.8-7.5-9.6-12.2-13.1-37.9-28.2-80.4-36.7-126.5-28.6-15.7,2.8-30.1,9.3-43.8,16.6-.7-6.4-1.4-12.8-1.9-20.1-1.4-15.7-2.7-31.4-4-48-.6-7.6-1.3-15.1-1.2-23.2.4-2.1,1.4-4.2,1.3-6.3-.8-12.4-1.8-24.8-3-37.2-.7-7-5.3-10.6-12.3-10-18.4,1.5-36.8,3-55.2,4.5-5.8.5-9.8,3.3-12.7,8.3-18.5,32-33.1,65.8-47.9,99.6-.8,1.9-1.8,3.7-3,6.4-2.1-2.6-3.5-4.4-5-6.2-22.5-28.7-44.9-57.4-70.6-83.5-4.6-4.6-9.7-6-15.8-4.9-16.5,3-32.9,6.6-49.5,9-11,1.6-15.9,7.1-14.7,20.3,1,11.5,5.4,21.8,10.7,32.5.3.2.5.4.8.5,0,0,0,0-.4.8,1.9,10,3.8,20,5.6,30.9,2.7,14.4,5.3,28.9,7.9,44.2,2.7,15.2,5.3,30.4,8,45.6,3.2,18.1,6.5,36.2,9.9,54.3,1.3,6.9,5,9,11.9,7.5,8.6-1.8,17.2-3.5,25.8-5.4,8.6-1.8,17.2-3.5,25.7-5.8,7.3-2,10.1-7.3,8.5-14.5-.6-2.6-1.3-5.2-1.9-7.7-6.1-25.3-12.1-50.6-18.2-76.6-1.9-7.4-3.8-14.8-5.7-23.1-.8-4.4-1.6-8.8-2.4-13.2.7-.4,1.4-.9,2.1-1.3,2,2.5,4,5.1,6.2,8.2,6.7,9.4,13.4,18.7,20.1,28.7,8.6,12.4,17.3,24.9,25.9,37.3,2.7,3.9,6.1,6.7,11.2,5.9,9.7-1.6,19.4-2.8,28.9-5.2,3.4-.8,7.5-4,8.8-7.1,5.6-14,10.2-28.4,15.7-43.1,5.1-14.5,9.2-29.3,16.4-43,.8.1,1.6.3,2.3.4.3,12.7.6,25.4.7,39,.4,22.1.7,44.2,1.1,66.4.1,7.3.4,14.6.7,22,.3,6.6,4.7,10.7,11.3,10.6,2.3,0,4.6-.5,7.6-.6.7,0,1.3-.1,2.2.7.1,6,.2,12,.3,18.8.7,5.1,1.4,10.2,2,16,4.9,23.4,15.4,43.9,32.2,60.8,33.7,33.8,74.7,44.4,120.8,35.8,12.7-2.4,25-7.4,37.3-11.9,8.3-3,9.8-6.1,8.5-14.9-1.9-13-4.1-25.9-6-38.9-1.3-9.2-5.7-11.9-14.1-8.1-10.6,4.8-21.6,7.7-33.1,8.3-22.7,1-42.2-6-57.9-23.7-2.6-4.8-5.8-9.4-7.7-14.4-9.4-25.5,7.8-65.1,38.6-72.9,3.7-.6,7.4-1.3,12-1.8,4.3.5,8.6.8,12.8,1.6,14.4,2.7,26.6,9.9,38.5,19.1,2.5,2.5,5,5,7.9,8.1M1436,125.3c-1.5-2.1-2.7-4.7-4.7-6.3-7.5-6.3-15.2-12.2-22.9-18.3-3.4-2.7-6.7-2.4-10.1,0-4.9,3.4-9.9,6.8-14.8,10.1-4.7,3.2-5,4.6-1.1,9,4.6,5.2,9.4,10.3,14.4,16.1,2.9,3.1,6,6.2,8.8,9.4,2.3,2.6,4.6,2.7,7.3.7,6.9-5.1,14-10,20.8-15.2,1.3-1,1.6-3.1,2.3-5.5M595.1,211c-1.4,1.2-2.8,2.3-4.1,3.6-5.1,4.6-5.1,5.9.4,10.4,5.1,4.2,10.4,8.2,15.4,12.6,3.4,3,6.9,3.4,10.2.6,4.9-4.2,9.4-8.7,14.7-13.3,6.8-8.8,13.7-17.5,20.5-26.3,2.8-3.7,2.6-6.8-1.9-9.4-5-2.9-9.9-6.1-14.7-9.4-3.2-2.2-5.5-2-8.3.7-10.4,10.2-21,20.3-32.2,30.7M1513.4,237.6c0,4.5,0,9-.2,13.5-.1,3.4,1.4,5.1,4.7,5.8,30.2,6.5,60.6,7.8,91.2,3.1,3.2-.5,4.9-1.8,4.8-5.1-.1-4-.1-8-.1-12.9,0-1.5,0-3,0-4.5,0-7.8,0-7.6-7.7-7.9-15.8-.7-31.6-1.4-47.4-2.5-12.9-1-25.8-2.7-38.7-4-5.7-.6-6.2-.1-6.3,5.8,0,2.7,0,5.3-.4,8.7M357.2,342.4c3.9-3.4,3.4-7.4,2.4-12,9.3-2.1,18.9-3.6,28-6.5,35.8-11.4,57.5-38.9,61.2-76.7,1.4-5,2.8-9.9,4.3-15.2-1.9-.5-3.5-.9-5.2-2.1-.3-1.5-.6-2.9-.8-4.4-2.7-18.2-10.1-34.4-22.8-47.8-29.7-31.2-75.1-40.6-115.1-24-5.3,2.2-10.7,4.3-16.9,6.4-2,.3-3.9.7-5.9.9-13.2,1.8-26.3,3.5-39.5,5.4-6,.9-8,3-7.4,7.8,2,15.2,4.1,30.3,6,45.4,2.2,17.1,4.4,34.3,6,51.7-23.5,21.2-39.9,47-50.5,76.7-9.4,26.6-14.1,54.1-14.6,82.2-.3,17.3,1.2,34.6,1.9,51.9.6,0,1.2,0,1.7,0,3.7-9.6,7.3-19.1,11-28.7,2.2-5.7,4.3-11.5,7.2-17.4,1-1.7,2-3.4,2.9-5.1,9.2-17.4,17.9-35.2,27.9-52.2,6.7-11.5,15.3-21.9,23.4-32.1,2.2,16.5,4.5,32.9,6.6,49.4.9,7.2,2.7,8.8,10.1,8,4.3-.5,8.6-1.1,12.9-1.6,15-1.8,30-3.7,45.2-4.8,30.7,46.3,61.4,92.5,92.1,138.7.9,1.3,2.1,2.9,3.5,3.3,13.3,3.3,26.1,3.6,37-7.8,2-3.3,4.1-6.6,6.4-10.6.6-1.4,1.2-2.7,1.8-4.1,2.8-5.6,1.6-10.1-2.3-15.3-23.4-30.6-46.4-61.6-69.5-92.5-16.5-22.1-33-44.3-49-67M1629.2,233.4c-2.3,7-2,7.7,4.9,10.1,4.9,1.7,9.7,3.4,14.6,5,23.8,8.2,47.6,16.3,71.5,24.5,2.8,1,5.6,2.2,7-1.8,2.4-7,4.7-14.1,7.5-21.8,1.6-3.8,0-5.9-3.7-7.1-29.5-10.2-58.9-20.4-88.4-30.6-3.6-1.2-5.6-.4-6.8,3.3-1.9,6-4,11.9-6.6,18.4M991.3,258.6c5.1,5.7,10.5,11.2,15.3,17.1,2.5,3.1,3.7,2.5,6.1,0,5.1-5.2,10.1-10.6,16-14.9,13.7-10.2,29.4-14.1,47.2-13,9.8.4,19.7,1.7,29.5,1.1,20.3-1.1,36.1-11.5,50.3-26.2,1.2-2.3,4-5.3,3.3-6.7-1.4-2.8-4.5-4.8-7.1-7.8-3.6-3.8-7.3-7.6-11-12.1-4.3-5-8.7-10.1-13.3-15.7-7.2-7.5-14.4-15-21.7-23.1-6.7-7.5-13.3-15.1-20.2-22.7-1.4,1-2.3,1.7-3.2,2.4-7.5,5.8-14.5,12.2-22.4,17.1-12.8,8-26.9,10.6-42,8.2-9.5-1.5-19-1.8-28.6.4-15.1,3.4-28.3,10.5-40.3,19.9-5.2,4-9.7,8.7-14.6,13.2l-1.1,2.6c3.8,2.9,7.6,5.9,11.8,9.4,6.9,7.5,13.8,15,21,23,4.5,4.8,9.1,9.6,13.7,15.1,3.7,4.1,7.3,8.2,11.3,12.9M861.1,211.2c.4-3.8.5-7.7,1.4-11.4,1.1-4.8-.7-6.5-5.4-7.1-30.7-3.7-61.3-7.7-92-11.5-3.8-.5-6.1.5-6.3,4.9,0,3-.6,5.9-1.3,9.6-.5,3.8-.8,7.6-1.5,11.4-.8,4.5,1.2,6.4,5.5,6.9,28.5,3.4,57.1,6.7,85.6,10.3,14.2,1.8,12.2,2.3,14-12.9M1384.8,135.3c-1.5-2.8-3.1-5.5-4.3-8.4-1.6-3.9-4.1-4.7-7.9-3.3-4,1.4-8.2,2.3-13.3,3.7,0-2.8,0-4.7,0-6.6.8-19.3,1.6-38.6,2.5-57.9.2-4.3-1.5-5.6-5.6-5.2-8.1.9-16.2,1.8-24.4,2.2-4.1.2-5.7,1.9-5.7,5.8,0,20.2,0,40.3-.2,61.4,0,11.2-.2,22.3,0,33.5,0,6.3,4.2,9.7,10.1,8.3,16.3-4.1,32.1-9.5,46.4-18.8,7.3-4.8,7.6-6.4,2.5-14.6M718.2,207c-6.6-8.7-13.2-17.3-19.9-26.1,14.5.2,23-4.7,26.4-15.1,3.1-9.4-.4-20-8.6-25.6-8-5.5-19.2-5.5-26.4,1.1-3.4,3.1-6,7.5-7.7,11.8-2.8,6.8-.2,13.3,3.5,19.4-5.7,2.1-11,4.1-16.2,6.1-6.4,2.4-6.5,2.6-3,8.7,6.1,10.6,12.3,21.2,18.6,32.5,2.3,4,4.8,7.9,6.9,12,1.9,3.5,4.4,4.1,7.8,2.5,7.3-3.4,14.7-6.9,22-10.2,3-1.4,4-3.4,2.5-6.3-1.8-3.5-3.8-6.9-6.1-11M384.6,112.8c9.1-5.5,6.7-6,15.4.3,7.6,5.5,14.6,11.9,22.3,18.5,9,8.4,18,16.9,26.9,25.3,2.3,2.2,4.2,3.2,6.6.2,4.6-5.9,9.5-11.6,14-17.6.8-1.1.4-3.2.3-5.5-13.9-13.4-27.3-27.3-41.7-40.1-9-8-19.5-14.4-29.6-21.2-4.6-3.1-10.1-5.3-15.4-1.7-8.3,5.7-16.3,11.9-25.2,18-3.6,2.4-7.1,4.9-10.7,7.2-3,2-3.5,4.7-1.8,7.7,3,5.3,6.1,10.6,9.1,15.9,2,3.5,4.8,4.3,8.4,2.6,6.9-3.2,13.7-6.5,21.3-9.8M1253.8,129.1v-32.9c7.6,0,14.6-.2,21.6,0,4,.1,5.8-1.2,5.7-5.4-.2-5.8-.1-11.7,0-17.5,0-3.6-1.3-5.2-4.9-5.3-25.5-.3-51-.6-76.5-.9-4.1,0-5.7,1.7-5.6,5.7.1,5,0,10,0,15,0,7.4.3,7.7,8,7.8,6.3,0,12.6,0,19.7,0,0,11.2,0,21.7-.5,32.8v12.1c-10.6.5-20.3,1.1-30.1,1.4-4,.1-4.7,2-4.4,5.4.6,5.8,1,11.6,1.4,17.4.3,5.2,1.6,6.2,6.9,5.9,16.6-1,33.2-1.8,49.8-2.8,15.1-.9,30.2-1.9,45.4-2.7,3.6-.2,5.1-1.8,4.8-5.3-.5-5.6-1-11.3-1.2-16.9-.2-4.6-2.1-6.3-6.9-6.1-10.8.4-21.5.1-32.6.1-.1-1.7-.3-4.3-.3-7.9M506.9,231.8c-1.5,5.8-3,11.5-4.6,17.3-.7,2.6-.3,4.7,2.6,5.5,8.7,2.2,17.3,4.4,26,6.6,2.8.7,4.4-.3,5.1-3.2,1.3-5.6,2.7-11.3,4.3-17.6,3.4-13.4,6.7-26.8,10.3-40.1,1.1-4-.3-5.5-3.9-6.3-4.4-1-8.7-2.2-14.4-3.7,2.4-.7,3.4-1.1,4.5-1.3,15.2-2.9,30.4-5.8,45.6-8.7,4.5-.8,5.6-3.1,4.2-7.5-2.3-6.9-4.2-14-6.2-21-2.1-7.3-2.9-7.6-10.2-6.2-30.9,5.9-61.7,11.8-92.6,17.6-4.3.8-6.9,2-5.5,7,.7,2.7.7,5.6,1.1,8.4,2.5,16-1.7,14,15.7,14.4,9.3.2,18.5-.8,28.4-1.2-3.4,13.4-6.7,26.4-10.2,40.1M658.2,451.3c-4.5-.4-8.9-.8-13.4-1.1-5.4-.4-9.3,2.4-9.7,7-.5,4.8,2.5,8.2,8,8.9,5.9.7,11.9,1.3,17.9,2.8,1.2,13.3,2.2,26.5,3.6,39.7.6,6.1,2.9,7.6,9,7.1,17.6-1.6,35.1-3.2,52.7-4.7,6.1-.5,8.2-2.8,7.7-9-1.1-12.6-2.4-25.2-3.5-37.7-.9-10.4-1.8-20.7-2.7-31.4,13.6,1.6,26.5,2.1,40.1-.9,1.5-.3,2.9-.6,4.4-.9,38-8.5,66.3-34,69.4-73.5,2.4-31.3-7.4-58.2-32.8-77.4-32.7-24.6-68.4-26.7-105.6-10.4-3.6,1.6-7.5,2.7-11.3,3.2-12.9,1.5-25.9,2.4-38.8,3.7-8.4.8-9.5,2.6-8.8,10.8,2.7,28.5,5.3,57,7.8,86.4.3,2.4.6,4.9.8,7.3,2.1,23.3,4.1,46.6,5.3,70.1M1123.6,362.4c1.4-7.1,2.9-14.2,4.3-21.3,9.9-.5,18.1,2.7,26.2,7.1,5.7,3.1,9,2,11.8-3.6,6.1-12.2,12.2-24.4,18.1-36.7,2.8-5.8,1.5-8.9-4.2-11.7-15.4-7.5-31.6-12.1-48.7-13.5-12.6-1-25.3,0-37.6-3.7-4.9-1.5-10.1-2.2-15.1-3.1-5.5-1-8,.5-9.1,5.7-4.8,23.4-9.5,46.9-14.6,71-4.9,24.1-9.8,48.2-14.7,72.3-1.3,6.2.3,8.5,6.5,9.8,17.3,3.5,34.5,7,51.8,10.4,6.6,1.3,8.5,0,9.9-6.8,1.8-9,3.8-17.9,5.6-26.8,3.2-16.1,6.4-32.3,10-49M951.1,413.7c2,2.4,4,4.8,6,7.3,2.7,3.4,6,4,9.7,2,9.1-4.9,18.2-10,28-15,4.6-3.3,9.2-6.5,13.7-10.1,13.4-10.6,16.8-23.6,9.4-39-3.5-7.3-7.9-14.4-13-20.6-13.4-16.5-30.8-25.1-52.3-24.2-17.8.7-33.9,6.9-48.8,16-26.9,16.3-43.5,39.3-44.1,72.8.3,20,6.6,37.9,19.1,53.4,29.8,37.1,77.5,39.5,116.5,21.1,4.4-2.1,7.2-5.9,7.3-10.6.2-11.5,0-22.9-.5-34.4-.1-3.4-2.8-5.4-6.1-5.4-2.6,0-5.1.9-7.7,1.5-8.5,2.1-16.9,5.6-25.5,6.1-17,1.1-30-6.8-39.4-21.8-4.4-8.4-6.1-17.2-3.3-26.4,4.1-13.5,19.1-20.7,30.2-14.4,5.8,3.3,6.2,6.4,1,10.5-3.5,2.8-7.2,5.3-10.8,8-3,2.3-3.5,5-1,8.1,3.9,4.7,7.7,9.5,11.6,15M596.1,470.6c6.2-8.3,12.3-16.6,18.6-24.7,2.7-3.4,2.6-6.2-1-8.9-7.5-5.6-10.2-13.5-9.6-22.4.6-8.9,2.3-17.8,3.8-27.3.8-3.2,1.5-6.5,2.5-9.6,4.7-14.9,9.4-29.7,14.1-44.6,2-6.4.4-9.7-5.9-12-1.4-.5-2.9-.9-4.3-1.3-8.7-2.3-17.3-4.8-26-6.8-8.7-2-17.4-4.4-26.3-4.8-9.4-.5-15.6-8.1-24.4-9.4-1.3-.2-2.5-.8-3.8-1.2-20.8-6.2-41.4-6.5-61.1,3.7-23.7,12.2-37.8,32.2-44.8,58.5-.7,6.2-1.4,12.4-2.7,18.4-5.2-3.3-10.3-6.7-15.7-9.7-2.1-1.2-5.1-2.6-6.9-1.9-2.6,1-5.3,3.4-6.4,6-1.5,3.6.7,6.8,3.9,8.8,9.7,6.1,19.4,12.2,29.4,19.1.3.9.6,1.9.9,2.8,15.5,42.5,62,67.3,107.5,56.9,6.3-1.5,11.7-2.7,15.5,4.1.8,1.4,2.3,2.4,3.6,3.4,7.8,6.2,15.7,12.2,26.4,14.6,7.2,7.8,14.2,15.9,21.8,23.3,6.2,6,13.2,11.2,20.1,16.3,3.8,2.8,8.6,1.7,11.1-1.8,2.5-3.5,1.9-7.5-1.6-10.7-2-1.8-4.2-3.2-6.3-4.9-12.2-9.8-23.8-20.3-32.5-33.8M1227.6,585.6c1,1.3,2.2,2.4,3.1,3.8,7.8,12.6,15.5,25.2,23.4,37.8,4.9,7.8,11,8.6,17.5,2,26.8-27.3,53.6-54.7,80.4-82.1,16-16.3,31.8-32.7,47.8-49,3.1-3.2,4.4-6.8,2.9-10.9-1.4-4-4.7-5.8-8.9-6.2-32.8-3.3-65.6-6.6-98.3-9.8-43-4.3-86.1-8.6-129.2-12.6-3.1-.3-7,1.8-9.4,4-2.9,2.7-2.5,6.7-.4,10.2,8.4,13.4,16.7,26.8,25.2,40.2,2.2,3.5,5.4,5.3,9.7,5,5.3-.3,10.6-.7,16-1,19.3-1.2,38.5-2.5,57.8-3.7,17.6-1.1,35.2-2.1,54.2-3.2-2.6.9-3.9,1.5-5.3,1.8-24.1,6.4-48.2,12.7-72.3,19.1-13.3,3.6-26.6,7.4-40.5,11.2-7.9,10.8-15.8,21.7-23.8,32.5-2.7,3.6-3.7,7.4-1.5,11.6,2.3,4.3,6.1,5.3,10.6,4.6,13.4-1.9,26.9-3.8,41-5.4M425.9,78.5c7.2,10,18.2,13.6,28.8,9.4,9.6-3.8,16.1-14.4,14.8-24.2-1.4-10.2-6.9-17.2-16.6-20.4-9.2-3-19.2,0-25.2,7.6-6.7,8.4-7.3,17.5-1.8,27.6M1011.2,568.6c-2.8-1.5-5.5-4.2-8.4-4.3-20.5-.4-41-.3-61.5-.2-5.3,0-9.1,3.5-9.1,7.9,0,4.6,3.5,8,8.9,8,20.7.1,41.3.2,62,0,6.9,0,9.6-3.8,8.1-11.5M822.4,441.9c3.1-1.7,6.2-3.3,9.2-5.1,5.2-3.1,6.7-7.3,4.4-11.6-2.4-4.4-7-5.1-12.5-2.3-8.7,4.5-17.4,9.2-26.4,12.9-9.3,3.9-19.1,6.7-28.7,9.9-3.8,1.2-6.4,3.8-6,7.5.3,2.6,2.2,5.8,4.4,7.1,2.1,1.2,5.7.9,8.1,0,15.7-5.9,31.2-12.1,47.5-18.5M876.8,578.8c4.7-.9,7.5-3.7,7.1-8.7-.3-4.4-3.2-7-7.6-7.2-21.1-1-42.2-2-63.4-2.9-4.9-.2-8.6,3.4-8.8,7.7-.1,4.4,3.3,7.9,8.3,8.2,21.1,1,42.2,1.9,64.2,2.8M1087.5,560c-6.1.6-12.3,1.1-18.4,1.8-6.3.7-9.6,4.3-8.9,9,.8,4.8,5.1,7.4,11,6.8,9.8-.9,19.6-1.6,29.3-2.7,10.6-1.2,21.1-2.6,31.7-4,4.7-.7,7.8-4.5,7.4-8.6-.4-4.3-3.9-7.3-8.6-7.3-1.5,0-3,.3-4.5.4-12.7,1.5-25.5,3-39.1,4.5M664.1,126.9c-2.5.7-5.4.8-7.4,2.2-9.3,6.7-18.7,13.3-27.5,20.7-7.2,6.1-13.7,13.1-20.1,20.1-4.6,5.1-2.9,11.9,3,13.7,3.9,1.2,6.7-.7,9.2-3.5,13.4-14.7,28.1-27.9,45.1-38.5,6.6-4.1,5.7-11-2.3-14.8M715.4,106.1c-1.9,3.2-2.5,6.8.4,9.1,2.3,1.8,5.9,3,8.8,2.8,5.8-.4,11.4-2.5,17.2-3,14.1-1.3,28.2-2.1,42.3-3,5.9-.4,9.3-3.2,9.1-8.3-.1-4.8-3.4-7.6-9.2-7.8-20.9-.6-41.6,1.7-61.9,6.5-2.2.5-4.1,2-6.6,3.6M905,158.5c3.1-3.9,2.8-7.8-.4-11.3-4.8-5.3-9.7-10.5-15.1-15.2-11.4-10-24.4-17.4-38.4-22.9-4.7-1.8-9.1.2-10.7,4.4-1.5,4,.3,8.1,4.6,10.3.7.4,1.5.7,2.3,1,17.5,7.3,32.6,17.9,45,32.4,3.9,4.6,6.8,4.9,12.8,1.3M925.3,280.4c7.2,3.6,12.3,1.1,12.9-6.9.7-9.3,1.3-18.7.6-27.9-.9-11.7-2.9-23.4-4.9-35-1-5.7-4.6-8.2-9.3-7.6-5.3.7-7.5,5.2-6,12,4.1,18.7,5.7,37.5,4,56.6-.2,2.7,1.4,5.5,2.8,8.9M679.2,542.2c-1.1,5,.6,8.9,5.5,10.2,20.5,5.4,41.1,10.7,61.7,15.5,5.7,1.3,9.7-2,10.2-6.8.5-4.4-2.8-7.7-8.1-9-19.3-4.7-38.6-9.5-57.9-14.5-4.8-1.2-8.5-.7-11.4,4.6M573.2,255.7c3.5-7.3,7-14.7,10.6-22,2.6-5.3,1.9-9.8-2.2-12.2-4.4-2.5-8.8-1-11.9,4.5-10.1,18.4-17.9,37.8-23.3,58.1-1.4,5.4.6,9.7,5,10.9,5,1.4,8.6-1.2,10.6-7.1,3.5-10.6,7.2-21,11.1-32.2M1544.7,206.9c11.8.7,12.2.4,10.3-11.6-1-6.5-2.9-12.9-4.4-19.4-.9-3.8-3.4-5.5-7.1-5.9-5.8-.6-11.6-1-17.3-2.2-5.2-1-6.2,1.5-6,5.6.4,8.8,1.1,17.6,1.4,26.4.1,3.7,2,4.8,5.2,5.1,5.6.5,11.2,1.2,17.8,1.9M1593.1,165.4c-2.5-3.1-3.7-7.9-9.2-7-6.2,1-12.4,2.2-18.7,3.1-3.8.5-4.8,2.4-3.6,5.8,2.9,8.5,5.9,17,8.5,25.5,1.2,3.9,3.3,4.9,7,4.1,6.7-1.4,13.4-2.7,20.1-3.9,6.2-1.2,7.7-2.9,5.3-8.7-2.5-6.3-6-12.2-9.4-18.9Z"/>
  <path class="cls-14" d="M652.1,373c-2.6-28.5-5.2-57-7.9-85.5-.8-8.3.3-10,8.8-10.8,12.9-1.3,25.9-2.2,38.8-3.7,3.9-.4,7.8-1.6,11.3-3.2,37.2-16.3,72.9-14.2,105.6,10.4,25.4,19.1,35.2,46.1,32.8,77.4-3.1,39.5-31.4,65-69.4,73.5-1.5.3-2.9.6-5,.6-40.8-13-77.9-31.7-111.4-57.4-1-.7-2.4-.9-3.6-1.3M729.5,317.9c-2.4.7-4.8,1.5-7.2,1.9-4.2.8-4.9,3-4.5,7.1,1.7,16.4,2.8,32.8,4.4,49.2.1,1.4,2,3.6,3.3,3.8,6.4.9,12.9,2.2,19.2,1.6,13.5-1.3,23.8-9.8,25.9-21.4,5-27.6-14.8-46.8-41.1-42.2Z"/>
  <path class="cls-43" d="M1201.9,542.2c13.3-3.7,26.5-7.5,39.8-11.1,24.1-6.5,48.2-12.7,72.3-19.1,1.4-.4,2.7-.9,5.3-1.8-19,1.1-36.6,2.1-54.2,3.2-19.3,1.2-38.5,2.5-57.8,3.7-5.3.3-10.6.6-16,1-4.2.3-7.5-1.4-9.7-5-8.4-13.4-16.8-26.8-25.2-40.2-2.1-3.4-2.6-7.5.4-10.2,2.4-2.2,6.4-4.3,9.4-4,43.1,3.9,86.1,8.3,129.2,12.6,32.8,3.3,65.6,6.6,98.3,9.8,4.2.4,7.5,2.2,8.9,6.2,1.4,4.1.2,7.7-2.9,10.9-16,16.3-31.9,32.7-47.8,49-26.8,27.4-53.6,54.8-80.4,82.1-6.5,6.6-12.7,5.9-17.5-2-7.8-12.6-15.5-25.2-23.4-37.8-.9-1.4-2-2.5-3.4-4.3-1.3-2.5-2.1-4.7-3.3-6.6-7.3-12.1-14.7-24.2-22-36.3Z"/>
  <path class="cls-3" d="M293.1,160.2c5.4-2.1,10.8-4.2,16.1-6.4,39.9-16.5,85.4-7.2,115.1,24,12.7,13.4,20,29.5,22.8,47.8.2,1.5.6,2.9.9,5.3.1,6.2.3,11.5.4,16.9-3.2,37.4-24.9,64.9-60.7,76.3-9.1,2.9-18.6,4.4-28.7,6.5-6.1-4.8-11.5-9.5-16.9-14.7-2.2-13.8-4.4-27.1-6.2-40.5,3.3-.1,6.1,0,8.9-.3,19.1-1.7,30.2-14.2,29.3-33.5-.6-7.6-2.4-14.3-7.7-20-4.1-5.4-9.5-8.5-15.6-10.6-11.3-3.7-22-1.4-32.6,2.3-3.5-7.2-7.1-14-10.3-20.9-5-10.6-9.8-21.4-14.7-32.1Z"/>
  <path class="cls-14" d="M292.6,160.1c5.3,10.7,10.1,21.5,15.1,32.1,3.2,6.9,6.8,13.7,10.3,21.3.8,6.4,1.5,12.1,2.2,18.1.8,6.2,1.7,11.9,2.6,18.1.5,5.3,1,10.3,1.8,15.1,1.4,9.4,1.5,9.4,10.8,10.3,2.2,13.3,4.5,26.7,6.4,40.3-3.9-2.9-7.6-6-11.1-9.3-6.5-6.2-12.8-12.6-19.4-18.6-5.3-4.9-13.1-2.7-13.6,4-.2,2.8,1.7,6.5,3.8,8.6,10.6,10.5,21.6,20.6,32.5,31.3.5,4.4,1,8.4,1.5,12.7.1.6.3.8.7.9,0,0,0,0,0,.5.2,3.2.4,6,.8,8.8,1.4,11.3,2.9,22.6,4.4,33.9.5,3.9-.8,6.8-4.2,8.7-15,1.8-30,3.7-45,5.5-4.3.5-8.6,1.2-12.9,1.6-7.4.8-9.1-.8-10.1-8-2.1-16.5-4.4-32.9-6.8-50.2-2.2-16.2-4.3-31.6-6.3-47.4-1.3-9.4-2.6-18.5-3.8-27.5-2.2-17.1-4.3-34.3-6.6-51.4-2-15.2-4.1-30.3-6-45.4-.6-4.8,1.4-7,7.4-7.8,13.2-1.9,26.3-3.6,39.5-5.4,2-.3,3.9-.6,6.3-.9Z"/>
  <path class="cls-6" d="M1211.2,243.9c-5.3-10-9.7-20.3-10.7-31.9-1.2-13.2,3.8-18.7,14.7-20.3,16.6-2.4,33-6,49.5-9,6.1-1.1,11.2.3,15.8,4.9,25.6,26,48,54.8,70.6,83.5,1.4,1.8,2.9,3.6,5,6.2,1.3-2.7,2.2-4.5,3-6.4,14.8-33.8,29.4-67.6,47.9-99.6,2.9-5,6.9-7.9,12.7-8.3,18.4-1.5,36.8-3,55.2-4.5,7-.6,11.6,3,12.3,10,1.2,12.4,2.1,24.8,3,37.2.1,2.1-.8,4.2-1.9,6.4-4.8-6-8.9-12-12.8-17.8-3.8,11.9-9.1,23.9-18.3,34.6-10.6-11.7-15.4-25.2-19.6-39.9-.6,2.4-1,3.8-1.2,5.2-2,12.6-6,24.5-12.5,35.5-4,6.8-5.5,6.9-10.9,1-3.5-3.7-6.7-7.7-10.5-12.2-1.8,9.2-2.9,17.6-5.3,25.7-3.8,12.9-8.1,25.6-12.7,38.2-1.8,4.9-4.3,4.9-7.4.6-1.7-2.3-2.9-4.9-4.5-7.8-.5,1.8-.9,3.1-1.3,4.3-3.2,10.4-7.4,20.3-14.2,29-2.5,3.1-4.8,3.5-7.2.4-3.3-4.2-6.5-8.4-9.4-12.8-2.4-3.7-4.2-7.7-6.3-11.7-1.7,3.2-3.2,6.1-5.2,10-10.5-16.8-18.4-33.4-22.8-51-5.6,9-11.3,18.1-17.5,28.1-10.9-14.4-16.7-29.3-20.3-46.1-5.9,12.2-11.3,23.3-16.7,34.5-.6,0-1.2,0-1.9.1-5.3-13-10.5-25.9-15.7-38.6,0,.1-.4,1-.7,1.8-2.6,6.3-4.6,12.9-7.8,18.9-4.6,8.6-4.1,10.7-13.2,3,0,0,0,0,0-.2-.2-.5-.4-.7-.7-.9Z"/>
  <path class="cls-7" d="M1538.2,443.9c15.4,17.1,35,24.1,57.6,23.1,11.6-.5,22.6-3.5,33.1-8.3,8.4-3.8,12.7-1.1,14.1,8.1,1.9,13,4.1,25.9,6,38.9,1.3,8.8-.1,11.9-8.5,14.9-12.3,4.4-24.6,9.5-37.3,11.9-46.1,8.6-87.1-2-120.8-35.8-16.8-16.9-27.3-37.4-31.8-61.2,4.3.6,8.1,1.6,12,2.5,24.9,5.5,50.2,6.6,75.6,6Z"/>
  <path class="cls-14" d="M428.1,359c6.8-25.5,20.9-45.5,44.6-57.7,19.7-10.1,40.3-9.8,61.1-3.7,1.3.4,2.5,1,3.8,1.2,8.8,1.3,15,8.9,24.4,9.4,8.8.5,17.6,2.9,26.3,4.8,8.7,2,17.4,4.5,26,6.8,1.4.4,2.9.7,4.3,1.3,6.3,2.3,7.9,5.5,5.9,12-4.7,14.9-9.4,29.7-14.1,44.6-1,3.2-1.7,6.4-3.2,10-16.9,0-33.1-.4-49.5-1.1-1.4-11.2-2.8-22-3.6-32.8-.6-7.2-2.8-10.8-8.1-10.8-5.1,0-7.7,3.4-8,10.3,0,.3,0,.7-.4.9-13.3-8.2-26-6.8-35.9,3.5-5.5,5.8-8.1,12.8-10.1,20.3-20.6-4.2-40.3-9.7-59.1-18.2-1.3-.6-2.9-.5-4.3-.8Z"/>
  <path class="cls-40" d="M1496,304.1c13.6-8.2,28-14.7,43.7-17.5,46.1-8.1,88.6.5,126.5,28.6,4.7,3.5,8.6,8.3,12.2,13.1,6.4,8.6,6.9,17.8,1.1,27-4.7,7.5-10.4,14.1-19.2,16.9-.3-2.5-.4-4.4-.4-6.7.3-6.9.7-13.4,1-21.1-8,8.8-15.4,16.3-26.3,19.7-.9-3.6-1.8-6.9-2.6-10.7,0-6.4-.2-12.4-.2-18.8.8-7.5,1.5-14.6,2.4-21.8.2-.4.2-.8.2-1.2-.1.4-.2.8-.7,1.4-7.4,9.6-14.7,18.7-26,25.1-2.1-4.9-4.4-9.3-5.9-14-1.4-4.7-2-9.7-3.1-15.4-7,12.9-14.5,23.9-27.3,30.2-8.4-7.4-12.4-17.1-15.9-28.5-3.4,17.1-8.8,31.9-20.8,43.3-9.9-4.6-14.1-12.3-14.5-23-4.5,21.4-13.6,39.8-31.8,55.1-2.1-9-3.9-16.9-5.8-24.7-8.8,15.2-18.6,29.9-34.9,38.8-.7,0-1.3.1-2.4-.3-.4-19.4,5-37,13.4-53.5,8.7-17.2,21.5-31,37.3-42.1Z"/>
  <path class="cls-21" d="M558,387c16.2.4,32.4.8,49.1,1.1-.7,8.8-2.3,17.7-3,26.6-.6,8.9,2.1,16.8,9.6,22.4,3.6,2.6,3.6,5.4,1,8.9-6.3,8.2-12.4,16.5-19,24.9-1.8-1.5-3.1-3.2-4.5-4.8-3-3.4-7.2-4.1-10.6-1.8-3.6,2.4-4.7,6.8-2.4,10.9,1.4,2.4,3.1,4.6,4.7,6.9-10.1-2-18-8-25.8-14.2-1.3-1-2.8-2-3.6-3.4-3.8-6.8-9.2-5.6-15.5-4.1-45.5,10.5-92-14.4-107.5-56.9-.3-.9-.6-1.9-.7-3.1,3.1,1.3,6.1,2.8,9,4.3,5.8,2.9,11.4,6.1,17.3,8.7,4.2,1.9,8.1.2,10.1-3.7,1.9-3.8.8-7.9-3.1-10.3-2-1.2-4.2-2-6.2-3.2-10.4-5.9-20.7-11.8-31.1-17.7.7-6.2,1.4-12.4,2.1-18.9,1.5-.1,3.1-.2,4.4.4,18.8,8.5,38.6,14,59.2,18.6-.2,24,18.7,37.4,43.4,31.1,1.5-9.4,3-18.7,4.6-27.6.8,3.1,1.6,5.8,2.3,8.5,1.9,7.7,3.8,15.4,5.7,23.1.2.6.3,1.3.5,1.9,1.9,4.9,5.8,7.2,10,5.8,4.6-1.4,6.5-5.5,5.2-10.7-1.9-7.9-3.7-15.8-5.5-23.6M572.9,438.6c-16.6-4.8-33.1-9.6-49.7-14.5-6.5-1.9-10.7-.8-12.5,4.1-1.8,4.9.5,8.8,7,11,10.6,3.5,21.2,6.8,31.8,9.9,8.9,2.5,18,4.7,27,6.8,5.7,1.3,9.7-1.3,10.7-6.1.9-4.6-1.8-8.2-7.3-9.6-2.1-.5-4.2-.9-7.2-1.5Z"/>
  <path class="cls-14" d="M859.9,401.9c.4-32.7,16.9-55.6,43.8-71.9,14.9-9.1,31.1-15.3,48.8-16,21.5-.8,39,7.7,52.3,24.2,5.1,6.3,9.5,13.3,13,20.6,7.4,15.3,3.9,28.4-9.4,39-4.4,3.5-9.1,6.7-14.2,9.8-2.4-.2-4.2-.3-5.9,0-12.4,1.8-24.8,3.6-37.2,5.5-3.8-4.8-7.6-9.5-11.5-14.3-2.5-3.1-2-5.8,1-8.1,3.5-2.7,7.3-5.2,10.8-8,5.1-4.1,4.8-7.2-1-10.5-11.1-6.3-26.2.8-30.2,14.4-2.8,9.3-1,18,2.9,26.9-12.5-1-24.8-1.9-36.8-4-8.9-1.6-17.5-4.9-26.3-7.4M893.8,383.3c10.4-13.1,19.3-27,26.2-42.2.9-2,1.7-4.5,1.5-6.6-.4-3.6-2.8-6-6.5-6.5-4.2-.5-6.9,1.6-8.8,5.1-4,7.4-7.5,15.2-12.2,22.2-6.3,9.3-13.5,18.1-20.4,27-3.5,4.5-3.6,9.4-.1,12.5,3.6,3.1,7.8,2.7,11.9-1.5,2.9-3,5.4-6.3,8.6-10Z"/>
  <path class="cls-14" d="M1054.9,352c4.7-23.5,9.4-46.9,14.2-70.4,1.1-5.2,3.6-6.7,9.1-5.7,5.1.9,10.2,1.7,15.1,3.1,12.3,3.7,25.1,2.7,37.6,3.7,17.1,1.3,33.3,6,48.7,13.5,5.8,2.8,7,5.9,4.2,11.7-5.9,12.3-11.9,24.5-18.1,36.7-2.8,5.7-6.1,6.7-11.8,3.6-8-4.3-16.2-7.6-26.2-7.1-1.4,7.1-2.9,14.2-5,21.6-16.7.6-32.5-.7-48-4.8-6.7-1.8-13.3-4-20-6Z"/>
  <path class="cls-3" d="M859.7,402.4c8.9,2.1,17.5,5.3,26.4,7,12,2.2,24.3,3.1,36.9,4.4,9.7,14.1,22.7,22.1,39.7,21,8.6-.6,17-4,25.5-6.1,2.5-.6,5.1-1.5,7.7-1.5,3.3,0,6,1.9,6.1,5.4.4,11.5.7,22.9.5,34.4,0,4.7-2.9,8.5-7.3,10.6-39,18.4-86.6,16-116.5-21.1-12.5-15.6-18.8-33.4-18.9-53.9Z"/>
  <path class="cls-21" d="M652.1,373.5c1.2,0,2.7,0,3.6.8,33.5,25.7,70.6,44.4,111,57.3-12.6,3.3-25.4,2.8-39.1,1.2.9,10.7,1.8,21,2.7,31.4,1.1,12.6,2.4,25.2,3.5,37.7.5,6.2-1.6,8.5-7.7,9-17.6,1.5-35.1,3.1-52.7,4.7-6.1.6-8.4-1-9-7.1-1.3-13.2-2.4-26.5-3.1-40.3,6.9-.2,13.4.2,19.8.3,8.5.2,16.9.3,25.4,0,5-.2,8.3-4,8.1-8.4-.2-4.2-3.6-7.3-8.4-7.5-3.5-.1-7,.1-10.5,0-12.2-.5-24.5-1.2-36.7-1.7-2.1-23.3-4.1-46.6-6.2-69.9-.2-2.4-.5-4.9-.8-7.7Z"/>
  <path class="cls-7" d="M1294.8,319c6.1,25.3,12.1,50.6,18.2,75.9.6,2.6,1.3,5.1,1.9,7.7,1.6,7.2-1.2,12.5-8.5,14.5-8.5,2.3-17.1,3.9-25.7,5.8-8.6,1.8-17.2,3.6-25.8,5.4-6.9,1.5-10.6-.7-11.9-7.5-3.4-18.1-6.7-36.2-9.9-54.3-2.7-15.2-5.4-30.4-7.5-46,23.4-.8,46.3-1.1,69.2-1.4Z"/>
  <path class="cls-18" d="M1211.7,245.4c9.3,7.3,8.8,5.2,13.4-3.4,3.2-6,5.2-12.5,7.8-18.9.3-.8.7-1.7.7-1.8,5.2,12.7,10.4,25.7,15.7,38.6.6,0,1.2,0,1.9-.1,5.4-11.2,10.8-22.3,16.7-34.5,3.7,16.9,9.4,31.7,20.3,46.1,6.2-10,11.9-19.1,17.5-28.1,4.4,17.6,12.3,34.2,22.8,51,2-3.9,3.5-6.8,5.2-10,2.1,4,4,8,6.3,11.7,2.9,4.4,6.1,8.7,9.4,12.8,2.4,3.1,4.7,2.7,7.2-.4,6.8-8.7,11-18.6,14.2-29,.4-1.3.7-2.5,1.3-4.3,1.7,2.9,2.9,5.5,4.5,7.8,3.1,4.3,5.6,4.3,7.4-.6,4.6-12.6,9-25.3,12.7-38.2,2.4-8.1,3.5-16.5,5.3-25.7,3.9,4.5,7.1,8.5,10.5,12.2,5.4,5.9,6.9,5.7,10.9-1,6.5-11,10.5-22.9,12.5-35.5.2-1.5.7-2.9,1.2-5.2,4.3,14.7,9.1,28.1,19.6,39.9,9.1-10.7,14.5-22.7,18.3-34.6,3.9,5.8,8,11.9,12.5,18.1,1,7.7,1.6,15.2,1.9,23.5-.9,2.6-1.9,4-3.5,1.7-2.6-3.8-5-7.7-7.3-11.7-1.1-2-1.8-4.3-3-7.5-4.6,13.8-9.6,25.9-18.9,36.4-10.8-11.4-15.3-25.1-19.5-39.1-.4.7-.8,1.1-.9,1.6-.2.6-.4,1.3-.5,1.9-1.5,13.1-6,25.2-12.4,36.5-3.9,6.9-6,6.9-11.3.9-.3-.4-.5-.9-.8-1.2-2.9-3.3-5.9-6.6-9.4-10.6-4.9,22.4-7.5,44.5-18.2,64.6-.9,1.5-1.7,2.6-2.6,3.9-1.7-1.3-3-2.2-4.4-3.5-1.5-2.9-2.9-5.5-4.6-8.9-1.2,3.9-2.2,7-3.2,10.5-4.2,8.1-8.3,15.8-12.5,23.4-1.8,3.2-4.3,3.6-6.6.6-3.5-4.4-6.9-8.9-9.9-13.5-2.3-3.6-4-7.6-6.3-11.8-1.8,3.6-3.2,6.4-5.4,10.7-1.6-2.3-2.4-3.5-3.3-5-7.7-15.3-15.7-30.1-19.5-47.3-3.8,7.1-7.3,13.5-10.7,19.9-2-2.5-4-5.1-6-7.6-.7.4-1.4.9-2.1,1.3.8,4.4,1.6,8.8,2,13.6-1.4-.4-2.7-1-3.3-2.1-3.6-6.4-7.4-12.6-10.3-19.3-3-6.9-4.9-14.3-7.5-22-5.5,11.4-10.9,22.5-16.3,33.6-.6,0-1.3.1-1.9.2-5.2-12.9-10.5-25.9-15.7-38.7,0,.1-.4.8-.7,1.5-3.3,7.8-6.4,15.6-10.2,23.2-.9,1.8-3.7,2.7-5.7,3.9-1.9-10-3.8-20-5.5-30.5Z"/>
  <path class="cls-30" d="M337,397.3c3.3-2.2,4.6-5.1,4.1-9-1.5-11.3-3-22.6-4.4-33.9-.4-2.8-.5-5.6-.5-8.7,4.7,5.9,9.1,12.2,13.5,18.4,25.3,35.6,50.5,71.2,75.8,106.8,14.5,20.4,29.1,40.8,43.6,61.3-10.4,11.1-23.1,10.8-36.4,7.5-1.4-.3-2.6-2-3.5-3.3-30.7-46.2-61.4-92.5-92.2-139.1Z"/>
  <path class="cls-3" d="M1054.7,352.3c6.8,1.7,13.4,3.9,20.1,5.6,15.5,4,31.3,5.3,47.8,5.1-2.7,16.2-5.9,32.3-9.1,48.4-1.8,9-3.7,17.9-5.6,26.8-1.4,6.7-3.3,8.1-9.9,6.8-17.3-3.4-34.6-6.9-51.8-10.4-6.2-1.3-7.7-3.7-6.5-9.8,4.9-24.1,9.8-48.2,14.9-72.6Z"/>
  <path class="cls-14" d="M507.1,231c3.3-13,6.5-26,9.9-39.4-9.8.5-19.1,1.4-28.4,1.2-17.4-.3-13.1,1.6-15.7-14.4-.4-2.8-.4-5.7-1.1-8.4-1.4-5.1,1.2-6.2,5.5-7,30.9-5.7,61.8-11.6,92.6-17.6,7.3-1.4,8-1.1,10.2,6.2,2,7,3.9,14.1,6.2,21,1.5,4.4.3,6.7-4.2,7.5-15.2,2.8-30.4,5.8-45.6,8.7-1.1.2-2.1.6-4.5,1.3,5.7,1.5,10,2.7,14.4,3.7,3.6.8,5,2.3,3.9,6.3-3.6,13.3-6.9,26.7-10.9,40.4-6.7-.7-13-1.2-18.9-2.9-4.8-1.4-9.1-4.4-13.6-6.7Z"/>
  <path class="cls-52" d="M1384.1,308.9c10.5-19.8,13.1-41.9,18-64.3,3.5,4,6.5,7.3,9.4,10.6.3.4.5.9.8,1.2,5.3,6,7.4,6,11.3-.9,6.5-11.4,11-23.4,12.4-36.5,0-.7.2-1.3.5-1.9.2-.4.5-.8.9-1.6,4.3,14,8.7,27.7,19.5,39.1,9.3-10.5,14.3-22.7,18.9-36.4,1.2,3.2,1.9,5.5,3,7.5,2.3,4,4.7,8,7.3,11.7,1.6,2.3,2.7.9,3.5-1.3,1.6,15.5,3,31.2,3.9,47.3-9.2,2.8-18,5.4-26.8,7.6-13.8,3.4-27.6,6.6-41.5,9.9l-.9-38.1c-.8-.1-1.6-.3-2.3-.4-7.1,13.6-11.2,28.5-17.1,43.2-7.4,1.2-14.2,2.2-20.9,3.2Z"/>
  <path class="cls-26" d="M251.7,271.1c1.6,8.9,2.9,17.9,3.9,27.5-4.1,6.6-8.2,12.5-11.7,18.7-12.4,22.6-20.6,46.8-26.8,71.7-3.9,15.5-6.5,31.4-9.7,47.1-2.2,5.7-4.3,11.5-6.5,17.2-3.6,9.6-7.3,19.1-11,28.7-.6,0-1.2,0-1.7,0-.7-17.3-2.2-34.6-1.9-51.9.5-28.1,5.1-55.6,14.6-82.2,10.6-29.7,27-55.5,50.8-76.8Z"/>
  <path class="cls-23" d="M1106,158c7.2,7.5,14.4,15,21.4,22.8-24.7,7.5-49.2,14.7-73.7,21.9-24.5,7.2-49,14.2-73.4,21.6-4.9,1.5-9.6,3.9-14.4,5.9-6.9-7.5-13.8-15-20.5-22.9,2.1-1.3,4-2.5,6.1-3.1,19.2-5.7,38.4-11.4,57.6-17,25.4-7.5,50.8-14.9,76.2-22.4,6.9-2.1,13.8-4.5,20.6-6.7Z"/>
  <path class="cls-49" d="M1538,443.6c-25.3,1-50.5-.1-75.5-5.6-3.9-.9-7.7-1.9-11.9-2.9-1.1-5.1-1.8-10.2-2.1-15.7,12.6-6.6,20.6-16.9,27.8-28,2.3-3.5,4.5-7.1,6.8-10.6.2,8.9,1.6,17,7.5,25.3,6.7-8.9,14-16.7,18.8-25.7,4.9-9.1,7.4-19.5,11.5-30.7-.7,12.1,3.9,19.7,13.8,24.2,11.9-11.7,17.3-26.3,20.1-40.9,4.2,7.4,8.6,15.2,13.1,23.1-30,7.8-47.2,47.4-37.8,72.9,1.9,5.1,5.1,9.6,7.8,14.7Z"/>
  <path class="cls-53" d="M1425.2,301.5c13.9-3.7,27.8-6.9,41.6-10.3,8.8-2.2,17.6-4.7,26.7-7.2,1.1,6.4,1.7,12.8,2.5,19.7-15.8,11.4-28.6,25.3-37.3,42.5-8.4,16.6-13.8,34.1-13.7,53.5-2.2.7-4.5,1.2-6.9,1.2-6.6.1-11-4-11.3-10.6-.3-7.3-.6-14.6-.7-22-.4-22.1-.7-44.2-1-66.8Z"/>
  <path class="cls-15" d="M1106,157.6c-6.8,2.6-13.7,5-20.6,7.1-25.4,7.5-50.8,14.9-76.2,22.4-19.2,5.6-38.4,11.3-57.6,17-2,.6-3.9,1.7-6.2,2.8-4.2-2.8-8-5.7-11.8-8.7l1.1-2.6c4.8-4.4,9.4-9.2,14.6-13.2,12.1-9.3,25.2-16.5,40.3-19.9,9.6-2.2,19.1-1.9,28.6-.4,15.1,2.4,29.3-.2,42-8.2,7.9-5,15-11.4,22.4-17.1.9-.7,1.8-1.3,3.2-2.4,6.8,7.7,13.5,15.2,20.2,23.1Z"/>
  <path class="cls-18" d="M1568.4,355.9c-4.9-7.9-9.3-15.7-13.5-23.1-2.8,14.6-8.2,29.2-20.1,40.9-10-4.5-14.5-12.1-13.8-24.2-4.1,11.2-6.6,21.6-11.5,30.7-4.9,9-12.1,16.8-18.8,25.7-5.9-8.3-7.3-16.4-7.5-25.3-2.3,3.5-4.5,7.1-6.8,10.6-7.2,11.2-15.2,21.4-27.8,27.6-.4-5.9-.6-11.9-.8-18.4,16.2-9.4,26.1-24.1,34.8-39.3,1.8,7.8,3.7,15.8,5.8,24.7,18.2-15.3,27.3-33.7,31.8-55.1.4,10.6,4.7,18.4,14.5,23,12-11.4,17.4-26.2,20.8-43.3,3.5,11.4,7.5,21.1,15.9,28.5,12.8-6.3,20.3-17.3,27.3-30.2,1.1,5.8,1.7,10.7,3.1,15.4,1.4,4.7,3.8,9.1,5.9,14,11.2-6.4,18.6-15.5,25.9-25.1.3-.1.3-.1.3-.1-.7,7.1-1.4,14.2-2.4,21.9-6.6,9.4-13.9,17.2-23.5,23.1-6.2-8.8-8-18.5-8.8-28-6.6,8.1-13,16.1-19.4,24-3.7.6-7.4,1.3-11.6,1.9Z"/>
  <path class="cls-32" d="M1221.6,127.8v-32.1c-7.1,0-13.4,0-19.7,0-7.7,0-8-.4-8-7.8,0-5,.2-10,0-15-.1-4,1.5-5.8,5.6-5.7,25.5.4,51,.7,76.5.9,3.6,0,5,1.7,4.9,5.3-.2,5.8-.2,11.7,0,17.5.2,4.2-1.7,5.5-5.7,5.4-7-.2-14,0-21.6,0,0,11.1,0,22-.5,33.4-11.1,2.4-21.5,1.3-31.7-1.7Z"/>
  <path class="cls-52" d="M1217.2,276.3c2-1.7,4.8-2.5,5.7-4.4,3.7-7.6,6.8-15.4,10.2-23.2.3-.7.6-1.4.7-1.5,5.2,12.8,10.4,25.8,15.7,38.7.6,0,1.3-.1,1.9-.2,5.4-11.1,10.8-22.2,16.3-33.6,2.6,7.7,4.5,15.1,7.5,22,2.9,6.7,6.7,13,10.3,19.3.6,1,1.9,1.7,3.3,2.5,2.3,7.4,4.2,14.8,6.1,22.6-22.9.7-45.8,1.1-69.1,1.4-3.1-14.4-5.8-28.9-8.4-43.7Z"/>
  <path class="cls-2" d="M966.1,230.3c4.6-2.3,9.3-4.7,14.3-6.2,24.4-7.3,48.9-14.4,73.4-21.6,24.5-7.2,48.9-14.4,73.8-21.6,4.7,5,9.1,10.1,13.2,15.8-1.3,1.1-2.3,1.6-3.4,1.9-21.8,6.4-43.6,12.8-65.4,19.2-30.7,9-61.4,18.1-92.1,27.2-4.5-4.8-9.1-9.6-13.7-14.7Z"/>
  <path class="cls-7" d="M1221.4,128.2c10.5,2.7,20.9,3.8,31.9,1.9.6,2.6.7,5.2.8,6.9,11.1,0,21.9.2,32.6-.1,4.8-.2,6.7,1.6,6.9,6.1.3,5.6.8,11.3,1.2,16.9.3,3.6-1.2,5.1-4.8,5.3-15.1.8-30.2,1.8-45.4,2.7-16.6,1-33.2,1.8-49.8,2.8-5.3.3-6.6-.7-6.9-5.9-.4-5.8-.8-11.6-1.4-17.4-.3-3.4.4-5.3,4.4-5.4,9.8-.3,19.6-.9,30.1-1.4,0-3.9,0-8,.3-12.4Z"/>
  <path class="cls-14" d="M359,88.9c8.1-6,16.1-12.2,24.5-17.9,5.3-3.6,10.8-1.4,15.4,1.7,10.1,6.7,20.5,13.2,29.6,21.2,14.4,12.8,27.9,26.7,41.4,40.5-15.2,1.2-29.9.2-44.4-3.7-1.1-.3-2.3.2-3.5.3-7.3-6-14.3-12.4-21.9-17.9-8.7-6.3-6.3-5.8-15.8-.6-5.5-4.4-10.8-8.4-15.6-12.8-3.6-3.3-6.5-7.2-9.7-10.8Z"/>
  <path class="cls-39" d="M684.8,219.3c-6.2-10.6-12.3-21.2-18.4-31.8-3.5-6.1-3.4-6.3,3-8.7,5.3-2,10.6-4,16.2-6.1-3.7-6.2-6.3-12.6-3.5-19.4,1.7-4.3,4.3-8.7,7.7-11.8,7.2-6.5,18.4-6.6,26.4-1.1,8.2,5.6,11.7,16.2,8.6,25.6-3.5,10.4-12,15.2-26.4,15.1,6.7,8.7,13.3,17.4,19.6,26.5-10.4,3.5-20.5,6.6-30.6,9.8-1,.3-1.7,1.4-2.6,2.1M702.7,151c-3.8.7-6.9,2.8-6.6,6.7.2,2.7,1.8,6.3,3.9,7.6,1.9,1.2,6.1.8,8-.7,1.9-1.4,3-5.1,2.8-7.7-.3-3.9-3.4-5.8-8.1-6Z"/>
  <path class="cls-35" d="M1326.2,126c0-20.2,0-40.3,0-60.5,0-3.9,1.6-5.6,5.7-5.8,8.1-.4,16.3-1.3,24.4-2.2,4.1-.5,5.8.8,5.6,5.2-1,19.3-1.7,38.6-2.5,57.9,0,1.9,0,3.8,0,6.6,5.1-1.4,9.3-2.3,13.3-3.7,3.9-1.4,6.3-.6,7.9,3.3,1.2,2.9,2.9,5.6,3.9,8.8-7.2.1-14.1.8-20.7-.5-12.6-2.5-25-6-37.5-9.2Z"/>
  <path class="cls-7" d="M1383.9,309.2c6.9-1.3,13.6-2.3,20.8-3.2-4.5,14.3-9.2,28.6-14.7,42.6-1.2,3.1-5.4,6.2-8.8,7.1-9.5,2.4-19.2,3.7-28.9,5.2-5.1.8-8.5-2-11.2-5.9-8.6-12.4-17.3-24.9-25.5-37.6,3.4-.7,6.5-1,9.6-1.3.8,1.2,1.7,2.4,3.3,4.7,2.1-4.2,3.5-7.1,5.4-10.7,2.2,4.2,3.9,8.2,6.3,11.8,3,4.7,6.5,9.1,9.9,13.5,2.3,3,4.9,2.6,6.6-.6,4.2-7.6,8.3-15.4,12.9-23.4,2.8-.7,5.2-1,7.5-1.3,1.3,1,2.6,1.9,4.3,3.2.9-1.3,1.7-2.5,2.6-3.9Z"/>
  <path class="cls-45" d="M469.4,532c-14.8-20.3-29.4-40.7-43.9-61.1-25.3-35.6-50.5-71.2-75.8-106.8-4.4-6.2-8.8-12.5-13.5-18.9-.3-.1-.3-.2-.3-.4-.2-.5-.3-.7-.6-.9-.5-4-1-8-1.1-12.3,5.5,3.9,10.7,8.2,15.9,12.7.6,1.4.9,2.5,1.6,3.5,8,11.2,16.1,22.3,24.1,33.5,29.2,41.3,58.4,82.6,87.6,123.9,4,5.7,8.4,11.1,12.6,16.6-2,3.3-4.1,6.6-6.4,10.1Z"/>
  <path class="cls-14" d="M757.9,195c.3-3,.8-5.9.9-8.9.1-4.3,2.5-5.4,6.3-4.9,30.7,3.9,61.3,7.8,92,11.5,4.7.6,6.5,2.3,5.4,7.1-.8,3.7-.9,7.6-1.9,11.7-2.2.5-3.8.6-5.5.9-19.9,3.6-39.6,3.6-59.4-1-13.7-3.2-25.7-10-37.8-16.5Z"/>
  <path class="cls-12" d="M1152.1,208.9c2.4,2.3,5.6,4.3,7,7.1.7,1.4-2.1,4.4-4.1,6.8-2.6.2-4.5,0-6.2.4-23.5,6.8-46.9,13.8-70.4,20.8-1.4.4-2.3,2.3-3.4,3.5-17-.9-32.7,3-46.4,13.2-5.8,4.3-10.9,9.7-16,14.9-2.4,2.5-3.6,3.1-6.1,0-4.8-5.9-10.2-11.4-15.4-17.7,1.3-1.5,2.5-2.6,4-3.1,9.6-3,19.3-5.9,29-8.7,30.5-9,61-18,91.5-26.9,12.1-3.5,24.2-6.8,36.3-10.3Z"/>
  <path class="cls-16" d="M1152,208.6c-12.1,3.8-24.2,7.1-36.3,10.6-30.5,8.9-61,17.9-91.5,26.9-9.7,2.9-19.4,5.7-29,8.7-1.5.5-2.7,1.6-4.1,2.8-3.7-3.7-7.4-7.8-11.1-12.3,30.6-9.4,61.3-18.5,92-27.5,21.8-6.4,43.6-12.8,65.4-19.2,1.1-.3,2.2-.8,3.5-1.6,3.9,3.5,7.5,7.3,11.2,11.5Z"/>
  <path class="cls-11" d="M207.8,436.1c2.9-15.6,5.4-31.5,9.3-47.1,6.2-24.8,14.3-49.1,26.8-71.7,3.4-6.2,7.6-12.1,11.6-18.3,2.4,15.2,4.4,30.6,6.5,46.4-7.8,11.3-16.4,21.8-23.2,33.3-10,17-18.6,34.8-27.9,52.2-.9,1.7-1.9,3.4-3.2,5.2Z"/>
  <path class="cls-46" d="M1629.7,232.9c2-6,4.2-11.9,6.1-17.9,1.2-3.7,3.2-4.5,6.8-3.3,29.4,10.3,58.9,20.5,88.4,30.6,3.7,1.3,5.2,3.3,3,7.4-4.8.6-9,1.2-13.1,1.2-9.3-.1-18.6-.5-27.9-.9-14.8-.6-29.3-3.4-43.2-8.6-6.8-2.5-13.4-5.7-20.1-8.6Z"/>
  <path class="cls-47" d="M476,521.6c-4.4-5.2-8.7-10.6-12.7-16.3-29.2-41.3-58.4-82.6-87.6-123.9-7.9-11.2-16.1-22.3-24.1-33.5-.7-.9-1-2.1-1.2-3.5,2.4-.7,4.3-1,6.3-1.4,16.5,22.1,32.9,44.3,49.4,66.4,23.1,30.9,46.1,61.9,69.5,92.5,3.9,5.2,5.1,9.6,2.3,15.3-.7,1.3-1.2,2.7-2,4.4Z"/>
  <path class="cls-1" d="M1613.6,243.1c0,4,.1,8,.2,12,0,3.3-1.5,4.6-4.8,5.1-30.6,4.7-61,3.4-91.2-3.1-3.3-.7-4.8-2.4-4.7-5.8.2-4.5.1-9,.8-13.8,17.7,4.8,35.2,7.6,53,7.6,15.6,0,31.1-1.2,46.7-1.8Z"/>
  <path class="cls-51" d="M1326.1,126.5c12.6,2.7,25,6.2,37.6,8.7,6.6,1.3,13.6.6,20.8.8,5.4,7.5,5.1,9.1-2.2,13.9-14.2,9.3-30,14.7-46.4,18.8-5.9,1.5-10-1.9-10.1-8.3,0-11.2,0-22.3.2-33.9Z"/>
  <path class="cls-28" d="M1613.7,242.6c-15.6,1.1-31.2,2.2-46.8,2.3-17.8,0-35.3-2.8-52.8-7.9-.4-2.7-.4-5.4-.4-8.1,0-5.9.5-6.4,6.3-5.8,12.9,1.4,25.8,3.1,38.7,4,15.8,1.2,31.6,1.9,47.4,2.5,7.7.3,7.7.1,7.7,7.9,0,1.5,0,3,0,5Z"/>
  <path class="cls-13" d="M425.7,78.2c-5.4-9.8-4.7-18.9,2-27.3,6-7.5,16-10.6,25.2-7.6,9.8,3.2,15.3,10.2,16.6,20.4,1.3,9.9-5.1,20.4-14.8,24.2-10.7,4.2-21.7.6-29-9.7M438.2,63.1c-.9,3.9-.4,7.8,3.4,9.4,2.5,1.1,6.5,1.2,8.7-.1,2-1.2,3.8-5,3.5-7.3-.4-2.5-2.9-5.7-5.3-6.8-4-1.8-7.8,0-10.3,4.8Z"/>
  <path class="cls-14" d="M595.7,210.8c10.5-10.1,21.1-20.2,31.5-30.5,2.8-2.7,5.1-3,8.3-.7,4.7,3.4,9.6,6.6,14.7,9.4,4.5,2.6,4.7,5.6,1.9,9.4-6.8,8.8-13.6,17.6-21.2,26.5-14-.3-25.1-6-35.2-14.1Z"/>
  <path class="cls-10" d="M1201.6,542.2c7.7,12.1,15,24.1,22.3,36.3,1.2,1.9,2,4.1,3,6.5-13.5,2.2-26.9,4.1-40.4,6-4.5.6-8.4-.3-10.6-4.6-2.2-4.1-1.2-7.9,1.5-11.6,8-10.8,15.9-21.7,24.2-32.6Z"/>
  <path class="cls-37" d="M1629.5,233.1c7,2.6,13.6,5.7,20.4,8.3,13.9,5.2,28.3,8,43.2,8.6,9.3.4,18.6.8,27.9.9,4.1,0,8.2-.6,12.8-.9-1.9,7.1-4.1,14.2-6.5,21.2-1.4,3.9-4.2,2.7-7,1.8-23.8-8.2-47.6-16.4-71.5-24.5-4.9-1.7-9.7-3.3-14.6-5-6.9-2.4-7.2-3.1-4.7-10.4Z"/>
  <path class="cls-25" d="M1011.3,569c1.4,7.4-1.4,11.1-8.2,11.2-20.7,0-41.3,0-62,0-5.5,0-9-3.4-8.9-8,0-4.5,3.8-7.9,9.1-7.9,20.5,0,41-.1,61.5.2,2.8,0,5.6,2.8,8.5,4.6Z"/>
  <path class="cls-8" d="M822,442.1c-15.9,6.3-31.5,12.5-47.2,18.3-2.4.9-6.1,1.2-8.1,0-2.2-1.3-4.1-4.5-4.4-7.1-.4-3.8,2.2-6.3,6-7.5,9.6-3.2,19.4-6,28.7-9.9,9-3.7,17.7-8.4,26.4-12.9,5.5-2.8,10.1-2.1,12.5,2.3,2.3,4.2.8,8.5-4.4,11.6-3,1.8-6.1,3.4-9.5,5.2Z"/>
  <path class="cls-8" d="M876.4,578.9c-21.6-.9-42.7-1.8-63.8-2.8-5-.2-8.5-3.8-8.3-8.2.1-4.3,3.9-7.9,8.8-7.7,21.1.8,42.3,1.8,63.4,2.9,4.4.2,7.2,2.7,7.6,7.2.4,5-2.4,7.7-7.6,8.7Z"/>
  <path class="cls-8" d="M1088,560c13.2-1.5,25.9-3,38.6-4.5,1.5-.2,3-.4,4.5-.4,4.7,0,8.2,3,8.6,7.3.4,4.1-2.7,7.9-7.4,8.6-10.5,1.5-21.1,2.9-31.7,4-9.8,1.1-19.6,1.7-29.3,2.7-6,.6-10.3-2-11-6.8-.7-4.8,2.6-8.3,8.9-9,6.1-.7,12.3-1.2,18.9-1.8Z"/>
  <path class="cls-8" d="M664.5,127c7.6,3.8,8.5,10.7,1.9,14.7-17,10.6-31.6,23.8-45.1,38.5-2.5,2.8-5.3,4.6-9.2,3.5-5.9-1.8-7.6-8.6-3-13.7,6.4-7,12.9-14,20.1-20.1,8.7-7.4,18.1-14.1,27.5-20.7,2-1.4,4.9-1.5,7.8-2.1Z"/>
  <path class="cls-8" d="M715.6,105.8c2.3-1.3,4.2-2.8,6.4-3.3,20.3-4.8,41-7.1,61.9-6.5,5.7.2,9,3,9.2,7.8.2,5.1-3.2,7.9-9.1,8.3-14.1.9-28.2,1.7-42.3,3-5.8.5-11.4,2.6-17.2,3-2.9.2-6.5-1-8.8-2.8-2.9-2.3-2.3-6-.1-9.4Z"/>
  <path class="cls-8" d="M904.8,158.7c-5.7,3.3-8.6,3-12.5-1.6-12.3-14.5-27.5-25.1-45-32.4-.8-.3-1.6-.6-2.3-1-4.3-2.2-6.1-6.3-4.6-10.3,1.6-4.2,6.1-6.2,10.7-4.4,14.1,5.5,27.1,12.9,38.4,22.9,5.4,4.7,10.3,10,15.1,15.2,3.2,3.5,3.5,7.4,0,11.6Z"/>
  <path class="cls-8" d="M925,280.1c-1.1-3.1-2.8-5.9-2.5-8.6,1.7-19.1,0-37.9-4-56.6-1.5-6.8.8-11.3,6-12,4.8-.6,8.4,1.8,9.3,7.6,2,11.6,4,23.3,4.9,35,.7,9.2,0,18.6-.6,27.9-.6,8-5.7,10.5-13.2,6.6Z"/>
  <path class="cls-8" d="M679.4,541.8c2.7-4.9,6.4-5.5,11.2-4.2,19.3,5,38.6,9.8,57.9,14.5,5.4,1.3,8.7,4.6,8.1,9-.6,4.8-4.5,8.1-10.2,6.8-20.6-4.9-41.2-10.1-61.7-15.5-4.9-1.3-6.6-5.2-5.3-10.6Z"/>
  <path class="cls-8" d="M573,256.1c-3.8,10.9-7.5,21.3-11,31.9-1.9,5.9-5.5,8.5-10.6,7.1-4.4-1.2-6.4-5.5-5-10.9,5.4-20.3,13.1-39.7,23.3-58.1,3-5.5,7.5-7.1,11.9-4.5,4.1,2.4,4.8,6.9,2.2,12.2-3.6,7.3-7.1,14.6-10.8,22.3Z"/>
  <path class="cls-44" d="M425.5,378.3c10.7,6,21,11.9,31.4,17.8,2,1.1,4.2,2,6.2,3.2,3.8,2.4,5,6.6,3.1,10.3-1.9,3.8-5.9,5.5-10.1,3.7-5.9-2.6-11.6-5.8-17.3-8.7-2.9-1.5-5.9-3-9.2-4.7-10.1-6.2-19.8-12.3-29.5-18.4-3.2-2.1-5.4-5.3-3.9-8.8,1.1-2.5,3.8-5,6.4-6,1.8-.7,4.8.7,6.9,1.9,5.3,3,10.5,6.4,16,9.8Z"/>
  <path class="cls-42" d="M658.6,451.2c12.7.5,24.9,1.1,37.2,1.6,3.5.1,7,0,10.5,0,4.8.2,8.1,3.2,8.4,7.5.2,4.4-3.1,8.2-8.1,8.4-8.5.3-16.9.1-25.4,0-6.5-.1-12.9-.6-19.9-.8-6.4-.6-12.4-1.1-18.3-1.8-5.5-.7-8.5-4.1-8-8.9.5-4.6,4.3-7.5,9.7-7,4.5.3,8.9.8,13.9,1Z"/>
  <path class="cls-5" d="M583.2,482.1c-1.9-2.5-3.6-4.7-5-7.1-2.3-4-1.3-8.5,2.4-10.9,3.4-2.2,7.6-1.6,10.6,1.8,1.4,1.6,2.7,3.3,4.3,5.1,9.3,13.2,20.9,23.6,33.1,33.4,2.1,1.7,4.3,3.1,6.3,4.9,3.5,3.2,4,7.2,1.6,10.7-2.5,3.5-7.3,4.6-11.1,1.8-6.9-5.2-13.9-10.4-20.1-16.3-7.7-7.4-14.6-15.5-22.1-23.5Z"/>
  <path class="cls-42" d="M357,342.7c-2.2.6-4.2,1-6.6,1.3-5.6-4.2-10.7-8.5-16.2-12.8-11.2-10.3-22.2-20.4-32.8-30.9-2.1-2.1-4-5.8-3.8-8.6.5-6.7,8.3-8.9,13.6-4,6.6,6.1,12.9,12.5,19.4,18.6,3.5,3.3,7.2,6.4,11.1,9.7,5.7,4.9,11.2,9.6,16.8,14.5,2.1,4.4,2.6,8.4-1.5,12.2Z"/>
  <path class="cls-35" d="M1396.6,135.1c-4.7-5.1-9.5-10.2-14.1-15.4-3.9-4.4-3.6-5.7,1.1-9,4.9-3.4,9.9-6.7,14.8-10.1,3.4-2.4,6.7-2.7,10.1,0,7.6,6.1,15.4,12.1,22.9,18.3,2,1.6,3.2,4.2,4.3,6.7-13.3,3.4-26.2,6.4-39.1,9.5Z"/>
  <path class="cls-32" d="M1544.3,206.9c-6.1-.7-11.7-1.3-17.3-1.9-3.3-.3-5.1-1.4-5.2-5.1-.3-8.8-.9-17.6-1.4-26.4-.2-4.1.8-6.7,6-5.6,5.7,1.1,11.5,1.5,17.3,2.2,3.7.4,6.2,2.1,7.1,5.9,1.5,6.5,3.3,12.9,4.4,19.4,1.9,12.1,1.5,12.3-10.8,11.6Z"/>
  <path class="cls-32" d="M1593.3,165.7c3.2,6.4,6.7,12.3,9.2,18.6,2.3,5.8.9,7.6-5.3,8.7-6.7,1.3-13.4,2.5-20.1,3.9-3.7.8-5.9-.2-7-4.1-2.6-8.6-5.6-17-8.5-25.5-1.2-3.5-.2-5.3,3.6-5.8,6.3-.9,12.5-2.1,18.7-3.1,5.5-.9,6.7,4,9.4,7.3Z"/>
  <path class="cls-48" d="M757.7,195.3c12.4,6.2,24.4,13.1,38.1,16.2,19.8,4.6,39.5,4.6,59.4,1,1.6-.3,3.3-.4,5.4-.5-1.2,14.4.8,13.9-13.4,12.1-28.5-3.6-57.1-6.9-85.6-10.3-4.3-.5-6.3-2.4-5.5-6.9.7-3.8,1-7.6,1.7-11.7Z"/>
  <path class="cls-38" d="M1075.5,247.7c.7-1.3,1.6-3.2,3-3.6,23.4-7.1,46.9-14,70.4-20.8,1.7-.5,3.6-.2,5.9-.2-13.1,14.4-29,24.8-49.3,25.9-9.8.5-19.7-.7-29.9-1.2Z"/>
  <path class="cls-27" d="M1580.4,354.1c6-8,12.4-16,18.9-24.1.8,9.6,2.6,19.3,8.8,28,9.6-5.9,16.8-13.7,23.4-22.7.3,5.8.4,11.7.5,18.6,0,7.4-.1,13.9-.2,20.4-11.5-8.6-23.8-15.8-38.2-18.5-4.2-.8-8.6-1.1-13.3-1.7Z"/>
  <path class="cls-31" d="M358.6,89c3.6,3.5,6.5,7.5,10.1,10.7,4.8,4.4,10.1,8.3,15.2,12.8-6.8,3.6-13.7,6.8-20.6,10-3.6,1.7-6.4,1-8.4-2.6-3-5.3-6.2-10.6-9.1-15.9-1.7-3-1.2-5.7,1.8-7.7,3.6-2.4,7.1-4.8,11-7.3Z"/>
  <path class="cls-31" d="M507,231.4c4.6,1.9,9,4.9,13.7,6.3,5.9,1.8,12.2,2.2,18.8,3.3-.9,5.7-2.3,11.3-3.6,16.9-.6,2.8-2.3,3.9-5.1,3.2-8.7-2.2-17.3-4.3-26-6.6-2.9-.8-3.3-2.9-2.6-5.5,1.5-5.8,3-11.5,4.7-17.6Z"/>
  <path class="cls-31" d="M684.9,219.6c.8-1,1.5-2.1,2.5-2.4,10.1-3.2,20.2-6.3,30.7-9.5,2.3,3.4,4.4,6.8,6.2,10.2,1.5,2.9.5,5-2.5,6.3-7.4,3.3-14.7,6.8-22,10.2-3.4,1.6-5.9.9-7.8-2.5-2.2-4.1-4.6-8-7-12.3Z"/>
  <path class="cls-33" d="M422.2,131.3c1-.4,2.2-.9,3.3-.6,14.4,3.9,29.1,4.9,44.5,4,.3,1.5.7,3.6-.1,4.7-4.5,6-9.3,11.7-14,17.6-2.4,3-4.3,2-6.6-.2-8.9-8.5-17.9-16.9-27.1-25.6Z"/>
  <path class="cls-33" d="M595.4,210.9c10.4,8,21.5,13.6,35.2,14.1-4.2,4.4-8.8,8.9-13.7,13.1-3.4,2.9-6.8,2.4-10.2-.6-5-4.3-10.3-8.4-15.4-12.6-5.4-4.4-5.4-5.8-.4-10.4,1.4-1.2,2.8-2.4,4.4-3.7Z"/>
  <path class="cls-27" d="M1325.1,315.6c-3,.7-6.1,1-9.6,1.4-7.1-9.4-13.8-18.7-20.5-28.4,3.4-6.7,6.8-13.1,10.6-20.3,3.8,17.1,11.8,31.9,19.5,47.3Z"/>
  <path class="cls-9" d="M1632,374.6c-.1-6.8,0-13.2,0-20.2.9,2.8,1.7,6.1,2.6,9.7,10.8-3.4,18.3-10.9,26.3-19.7-.4,7.7-.7,14.2-1.3,21.2-6.9,6-13.4,11.3-20,16.7-2.5-2.5-5-5-7.6-7.7Z"/>
  <path class="cls-20" d="M1396.7,135.4c12.8-3.4,25.6-6.4,38.9-9.4-.4,1.6-.7,3.8-1.9,4.7-6.8,5.2-13.9,10.1-20.8,15.2-2.7,2-5,1.9-7.3-.7-2.8-3.2-5.8-6.3-8.9-9.7Z"/>
  <path class="cls-48" d="M951,413.3c12.3-2.2,24.7-4,37.1-5.8,1.8-.3,3.6-.1,5.6.1-8.9,5.3-17.9,10.4-27,15.3-3.7,2-7,1.4-9.7-2-2-2.5-4-4.9-6-7.6Z"/>
  <path class="cls-54" d="M1639.9,382.6c6.3-5.7,12.9-11,19.7-16.5.3,1.7.4,3.6.4,5.9-2.8,3.6-5.5,6.9-8.4,10-3.8,4.1-6.9,4.3-11.8.6Z"/>
  <path class="cls-41" d="M448.5,247.4c-.4-5.1-.5-10.4-.5-16.2,1.6,0,3.2.3,5.1.9-1.5,5.2-2.9,10.2-4.6,15.4Z"/>
  <path class="cls-18" d="M1211.2,244.2c.3-.1.5,0,.7.6-.2,0-.5-.1-.7-.6Z"/>
  <path class="cls-24" d="M730,317.8c25.9-4.4,45.6,14.8,40.7,42.3-2.1,11.5-12.3,20.1-25.9,21.4-6.3.6-12.9-.7-19.2-1.6-1.3-.2-3.2-2.4-3.3-3.8-1.6-16.4-2.8-32.8-4.4-49.2-.4-4.1.4-6.3,4.5-7.1,2.4-.5,4.8-1.3,7.6-2Z"/>
  <path class="cls-22" d="M335.7,275.2c-9.7-.9-9.8-.9-11.2-10.3-.8-4.9-1.2-9.8-1.3-15.2,16.9-5.2,33.6-7.8,50.7-7.8,1,18.9-10.1,31.4-29.2,33.1-2.8.2-5.6.1-8.9.3Z"/>
  <path class="cls-34" d="M373.9,241.5c-17.2.4-33.9,3.1-50.7,7.8-1.3-5.7-2.2-11.4-2.6-17.7,15.6-3.6,30.7-6.8,45.9-9.9,5.1,5.4,6.9,12.2,7.5,19.8Z"/>
  <path class="cls-4" d="M366.3,221.4c-15,3.4-30.2,6.5-45.7,9.7-1.1-5.6-1.8-11.2-2.5-17.3,10.7-4.4,21.4-6.8,32.6-3,6.1,2,11.5,5.1,15.6,10.6Z"/>
  <path class="cls-30" d="M335.3,344.2c.3,0,.5.1.6.6-.3.1-.5,0-.6-.6Z"/>
  <path class="cls-24" d="M539.6,381.6c-1.5,9.3-3,18.5-4.5,28-24.8,6.2-43.6-7.1-43-31.1,1.5-8,4.1-15,9.6-20.8,9.8-10.3,22.5-11.7,35.9-3.1.9,9.4,1.5,18.2,2,27Z"/>
  <path class="cls-36" d="M539.7,382c-.6-9.2-1.1-18-1.7-27.2,0-.8,0-1.1,0-1.4.3-7,2.9-10.3,8-10.3,5.3,0,7.6,3.6,8.1,10.8.8,10.9,2.3,21.7,3.6,32.8,2,8.2,3.8,16.1,5.7,24,1.3,5.3-.6,9.3-5.2,10.7-4.3,1.3-8.1-.9-10-5.8-.2-.6-.4-1.3-.5-1.9-1.9-7.7-3.8-15.4-5.7-23.1-.7-2.7-1.5-5.4-2.3-8.5Z"/>
  <path class="cls-18" d="M1634,313c.1-.4.2-.8.4-1.3,0,.4,0,.7-.2,1.2-.2,0-.2,0-.2,0Z"/>
  <path class="cls-17" d="M573.3,438.7c2.5.5,4.7.9,6.7,1.4,5.4,1.3,8.1,5,7.3,9.6-1,4.9-5,7.4-10.7,6.1-9.1-2-18.1-4.2-27-6.8-10.7-3-21.3-6.4-31.8-9.9-6.5-2.1-8.9-6.1-7-11,1.8-4.9,6-6,12.5-4.1,16.5,4.9,33.1,9.7,50.1,14.6Z"/>
  <path class="cls-42" d="M893.6,383.6c-2.9,3.4-5.5,6.7-8.4,9.7-4,4.2-8.3,4.7-11.9,1.5-3.5-3.1-3.4-7.9.1-12.5,6.9-8.9,14.1-17.7,20.4-27,4.7-7,8.2-14.8,12.2-22.2,1.9-3.5,4.7-5.7,8.8-5.1,3.8.5,6.2,2.9,6.5,6.5.2,2.1-.6,4.6-1.5,6.6-6.9,15.2-15.8,29.2-26.4,42.5Z"/>
  <path class="cls-50" d="M1376.9,309.7c-2.2.7-4.6,1-7.4,1.3.6-3.1,1.5-6.3,2.7-10.1,1.8,3.4,3.2,6,4.6,8.9Z"/>
  <path class="cls-19" d="M703.1,151c4.3.3,7.5,2.2,7.7,6,.2,2.6-.9,6.2-2.8,7.7-1.9,1.4-6.1,1.9-8,.7-2.1-1.3-3.7-4.9-3.9-7.6-.3-3.9,2.8-6,7-6.8Z"/>
  <path class="cls-19" d="M438.3,62.8c2.4-4.5,6.1-6.3,10.1-4.5,2.4,1.1,4.9,4.3,5.3,6.8.4,2.3-1.4,6.2-3.5,7.3-2.2,1.3-6.2,1.2-8.7.1-3.8-1.6-4.3-5.5-3.2-9.8Z"/>
</svg>