<?xml version="1.0" encoding="UTF-8"?>
<svg id="Layer_1" data-name="Layer 1" xmlns="http://www.w3.org/2000/svg" version="1.1" viewBox="0 0 1920 746">
  <defs>
    <style>
      .cls-1 {
        fill: #825b46;
      }

      .cls-1, .cls-2, .cls-3, .cls-4, .cls-5, .cls-6, .cls-7, .cls-8, .cls-9, .cls-10, .cls-11, .cls-12, .cls-13, .cls-14, .cls-15, .cls-16, .cls-17, .cls-18, .cls-19, .cls-20, .cls-21, .cls-22, .cls-23, .cls-24, .cls-25, .cls-26, .cls-27, .cls-28, .cls-29, .cls-30, .cls-31, .cls-32, .cls-33, .cls-34, .cls-35, .cls-36, .cls-37, .cls-38, .cls-39, .cls-40, .cls-41, .cls-42, .cls-43, .cls-44, .cls-45, .cls-46, .cls-47, .cls-48, .cls-49, .cls-50, .cls-51, .cls-52, .cls-53, .cls-54, .cls-55, .cls-56, .cls-57, .cls-58, .cls-59, .cls-60, .cls-61, .cls-62, .cls-63, .cls-64, .cls-65, .cls-66, .cls-67, .cls-68, .cls-69, .cls-70, .cls-71 {
        stroke-width: 0px;
      }

      .cls-2 {
        fill: #74a34a;
      }

      .cls-3 {
        fill: #74a349;
      }

      .cls-4 {
        fill: #040404;
      }

      .cls-5 {
        fill: #375b54;
      }

      .cls-6 {
        fill: #fafcfc;
      }

      .cls-7 {
        fill: #fe515a;
      }

      .cls-8 {
        fill: #476e51;
      }

      .cls-9 {
        fill: #67d142;
      }

      .cls-10 {
        fill: #815a45;
      }

      .cls-11 {
        fill: #ff525b;
      }

      .cls-12 {
        fill: #684630;
      }

      .cls-13 {
        fill: #2269b2;
      }

      .cls-14 {
        fill: #97f1fc;
      }

      .cls-15 {
        fill: #474747;
      }

      .cls-16 {
        fill: #454545;
      }

      .cls-17 {
        fill: #fa4e56;
      }

      .cls-18 {
        fill: #5f8657;
      }

      .cls-19 {
        fill: #684530;
      }

      .cls-20 {
        fill: #fbfbfb;
      }

      .cls-21 {
        fill: #50a433;
      }

      .cls-22 {
        fill: #050505;
      }

      .cls-23 {
        fill: #d0d8df;
      }

      .cls-24 {
        fill: #537c4f;
      }

      .cls-25 {
        fill: #3d6253;
      }

      .cls-26 {
        fill: #98f0fa;
      }

      .cls-27 {
        fill: #fdfdfd;
      }

      .cls-28 {
        fill: #ff535c;
      }

      .cls-29 {
        fill: #03e5ff;
      }

      .cls-30 {
        fill: #ad6d4c;
      }

      .cls-31 {
        fill: #ebeef2;
      }

      .cls-32 {
        fill: #ae6e4d;
      }

      .cls-33 {
        fill: #3e6258;
      }

      .cls-34 {
        fill: #ae6e4c;
      }

      .cls-35 {
        fill: #070707;
      }

      .cls-36 {
        fill: #5a854e;
      }

      .cls-37 {
        fill: #335655;
      }

      .cls-38 {
        fill: #af6f4d;
      }

      .cls-39 {
        fill: #060606;
      }

      .cls-40 {
        fill: #b5c0ca;
      }

      .cls-41 {
        fill: #4d7550;
      }

      .cls-42 {
        fill: #fafafa;
      }

      .cls-43 {
        fill: #03e4fe;
      }

      .cls-44 {
        fill: #68d243;
      }

      .cls-45 {
        fill: #67944b;
      }

      .cls-46 {
        fill: #6b994a;
      }

      .cls-47 {
        fill: #fb4f58;
      }

      .cls-48 {
        fill: #4fa332;
      }

      .cls-49 {
        fill: #464646;
      }

      .cls-50 {
        fill: #33555a;
      }

      .cls-51 {
        fill: #416752;
      }

      .cls-52 {
        fill: #608c4c;
      }

      .cls-53 {
        fill: #66d141;
      }

      .cls-54 {
        fill: #15d5eb;
      }

      .cls-55 {
        fill: #fc4f58;
      }

      .cls-56 {
        fill: #4290de;
      }

      .cls-57 {
        fill: #fc5059;
      }

      .cls-58 {
        fill: #bc8a70;
      }

      .cls-59 {
        fill: #67d242;
      }

      .cls-60 {
        fill: #af6f4e;
      }

      .cls-61 {
        fill: #090909;
      }

      .cls-62 {
        fill: #ae6d4c;
      }

      .cls-63 {
        fill: #a96a49;
      }

      .cls-64 {
        fill: #4ea231;
      }

      .cls-65 {
        fill: #ae6d4b;
      }

      .cls-66 {
        fill: #c1cad3;
      }

      .cls-67 {
        fill: #fefefe;
      }

      .cls-68 {
        fill: #e0e5eb;
      }

      .cls-69 {
        fill: #805a45;
      }

      .cls-70 {
        fill: #709f49;
      }

      .cls-71 {
        fill: #ae6f4e;
      }
    </style>
  </defs>
  <path class="cls-67" d="M1777,240c0,3.4,0,6.7-.3,10.3-.8,1.1-1.4,1.9-1.6,2.8-3.7,11.4-6.8,23-11.1,34.1-5.7,14.5-16.8,23.3-32.2,26-4.7.8-9.5.8-14.5,1.2.1.5.1,1.2.4,1.8,11.3,23.9,7,46.3-8.3,66.5-6.7,8.8-11.5,18.1-15.4,28.2-3.3,8.7-6.7,17.4-10.4,25.9-2.8,6.4-4.9,12.5-1.6,19.4,1.1,2.3.9,5.2,1.3,7.8,1.9,10.8,3.8,21.5,5.8,32.7.3,7,.7,13.6.7,20.5-3.3,18.4-13.7,31.1-30,38.8-8.9,4.2-18.4,7.4-28,11-17.4,5.1-34.7,8.8-52.5,8.1-14.4-.6-28.8-2.5-43.5-3.9-5.5-1.6-10.7-3-15.8-4.7-20.1-6.7-38.2-17-54.4-30.7-1.5-1.2-3.3-2.6-5.1-2.7-7.8-.8-15.6-1.2-23.8-1.8-8.7-1.4-15.7.2-20.9,7.6-2.5,3.5-5.8,6.4-8.8,9.5-34,34.8-68.3,69.3-102,104.4-11.7,12.2-24.6,20.7-42.3,21.3-6.9-1.4-14-1.6-19.8-4.4-6.4-3.1-12.6-7.8-17.2-13.2-5.7-6.6-10-14.4-14.2-22.1-2.5-4.6-5.1-5.8-10.2-4.8-20.9,4.3-40,1.2-55.2-15.9-1.9-1.4-3.9-3.5-5.5-3.4-18.9,1.9-37.7,4.1-56.5,6.4-16.6,2.1-32.7,1.6-46.3-10-10.8,10.1-23.4,14-37.7,13.6-7-.2-13.9.3-21.4.4-10.3-.2-20.1-.7-29.9-.4-15.3.5-29.4-2.2-41.2-12.9-12.1,9.8-25.8,12.3-40.6,11.3-12.6-.8-25.3-1-38.3-1.5-8.9-.7-17.4-.8-25.7-2-10.7-1.6-19.4-7.3-26.7-15.2-12.4,7.8-25.3,9.8-39.1,7-9-1.8-17.9-3.6-27.2-5.6-10.2-2.9-20-5.5-29.8-8.2-16.9-4.7-30.6-13.4-37.7-30.4-.1-.3-.5-.4-.9-.7-8.8,2-17.9,2.3-26.3-1.3-7.4-3.1-14.1-7.8-21.3-12.1-4.9-4.1-9.9-7.5-14.2-11.8-10.2-10.1-19.2-21.7-33-27.5-3.3-1.4-6-4.1-9.1-6-1.2-.8-2.7-1.6-4-1.6-4.4.1-8.8.7-13.2,1.1-.5,43-28.7,72.1-60.4,77.7-10.5,2-20.5,1.4-30.6-.5-15.8-2.9-27.4-10.6-35.6-24.6-7.3-12.5-15.8-24.2-23.9-36.3-.6-.9-1.6-1.6-2.5-2.7-15.9-24.5-31.9-48.6-47.6-72.8-2-3-3.9-4.3-7.6-3.7-10.3,1.7-20.7,2.9-31.5,4.3-8.4-1.3-16.6-1.7-24.3-4-4.3-1.3-5.7-.7-7.2,3-7.2,18-14.5,35.9-21.8,53.8-7.2,17.7-24.3,28-42.9,25.9-17.5-2-31.7-16.1-34.5-34.5-1.2-8.2-1.9-16.5-3-24.8-.2-1.3-1.3-2.4-2-3.7,0-15,0-30,.4-45.2.8-1.2,1.5-2.2,1.6-3.2.7-6.5.9-13.1,2.1-19.4,3.4-16.7,6.3-33.5,11.1-49.8,8.4-28.4,22.2-54.1,41.3-77.2,1.6-1.6,2.7-3.4,4.2-4.6,3.7-2.9,4.3-6.3,3.5-10.9-1.8-10.8-2.9-21.7-4.4-32.5-1.9-13.4-3.8-26.9-5.8-40.8-1.9-24.2,12.5-41.9,32.4-47.9,10.9-3.3,22.6-3.7,34-5.4,6.3-1,12.9-1.3,18.9-3.2,7.3-2.2,14.1-5.8,20.6-8.5,0-5.9-.3-11.6,0-17.3.9-12.8,7.9-22.5,17.7-30.1,8.6-6.6,17.9-12.3,26.5-18.9,12.5-9.4,25.5-17.1,42-16.2,1.1,0,2.6-1.1,3.4-2.1,10.6-12.4,23.1-21.7,39.8-24,.5,0,.9-1.3,1.4-1.9,6.4,0,12.7,0,19.2.3,1.3.8,2.5,1.5,3.7,1.8,17.1,3.7,30.8,12.8,40.4,27.2,7.9,11.8,11.5,25.2,10.4,39.9-1.2,12.6-5.5,23.7-12.2,33.3,3.1,4.4,5.7,8.4,8.7,12.2.7.9,2.6.8,4.3,1.1,18.6-3.9,36.7-8,54.9-11.6,14.2-2.8,27.2,0,38.3,9.8.7.6,2.8.6,3.7,0,2.5-1.8,4.6-4.1,7.1-6,6.8-5,13.5-10.2,20.7-14.5,13.5-8.1,27.9-11,43.3-5.6,6.7-11.8,15.8-20.7,28.8-24.3,10.8-2.9,21.9-4.8,32.9-6.4,10.4-1.5,21-2.7,31.5-3,12.8-.3,25.9-.3,37.3,6.8,5.4,3.4,10.2,7.7,15.4,11.7,13-7,27.2-7.9,41.4-2.6,16.8,6.3,32.4,15.2,46.4,26.6,10.8,8.8,20.9,18.4,28.8,30.1,1.4,2,1,6,5.3,5.2,2.7-.5,5.7-.2,8.1-1.3,20.9-9.6,42.7-13,65.6-10,4.7.6,9.8.3,14.4-.8,10-2.4,16.4-10.3,23.4-17.1,14.3-14,41.7-13.9,55.5.7,9.2,9.8,18.1,19.9,27.2,29.8,1.6,1.7,3.7,2.9,5.3,4.1,2.9-6.5,5.3-11.9,8-17.5.9-.9,1.4-1.8,2.2-2.5,3.3-3,3.5-5.8,1.9-10.3-2.2-6.1-2.5-12.8-3.6-19.8,0-6.8.1-13.1.1-19.5.1-22.7,19.4-42,42.1-41.9,28.3.2,56.6.5,84.9,1.1,4.7.1,9.4,1.7,13.9,3.3,2.8,1,4.3.8,6.5-1.2,6.6-6.3,14.6-9.7,23.8-10.4,8.7-.6,17.3-2.1,26-2.7,14.1-1.1,27,1.6,37.7,12.1,8.1,8,12.4,17.5,13.3,28.7,18.4-.4,31.5,10,44.6,20.4,13.3,10.6,25,22.2,29.3,39.4,11.7.2,22.1,3.6,31.4,10.2.9.6,2.4.6,3.5.6,6.7-.2,13.4-.5,20.1-.6,4.5,0,8.9,1.1,13.1-2.1,2-1.5,4.8-2.3,7.4-2.8,9.1-1.8,18.3-3.9,27.5-4.9,12.9-1.4,25.3.9,35.3,10,11.2,10.2,18.5,23.3,24.1,37.2,1.7,4.1,3.2,6.3,7.9,5.8,2.1-.2,4.5.7,6.6,1.5,31.2,10.8,62.4,21.4,93.4,32.5,15.6,5.6,25.7,16.5,28.6,33.4,0,.6,1.3,1,1.9,1.5M1640.1,382.9c4.7,3.4,7.8,3.2,11.6-.9,2.9-3.1,5.6-6.4,9-9.2,8.5-3.4,14.2-10,19-17.5,5.8-9.2,5.2-18.4-1.1-27-3.5-4.8-7.5-9.6-12.2-13.1-37.9-28.2-80.4-36.7-126.5-28.6-15.7,2.8-30.1,9.3-43.8,16.6-.7-6.4-1.4-12.8-1.9-20.1-1.4-15.7-2.7-31.4-4-48-.6-7.6-1.3-15.1-1.2-23.2.4-2.1,1.4-4.2,1.3-6.3-.8-12.4-1.8-24.8-3-37.2-.7-7-5.3-10.6-12.3-10-18.4,1.5-36.8,3-55.2,4.5-5.8.5-9.8,3.3-12.7,8.3-18.5,32-33.1,65.9-47.9,99.6-.8,1.9-1.8,3.7-3,6.4-2.1-2.6-3.5-4.4-5-6.2-22.5-28.7-44.9-57.4-70.5-83.5-4.6-4.7-9.7-6-15.8-4.9-16.5,3-32.9,6.6-49.5,9-11.1,1.6-15.8,7.1-14.7,20.3,1,11.5,5.4,21.8,10.7,32.5.3.2.5.4.8.5,0,0,0,0-.4.8,1.9,10,3.8,20,5.6,30.9,2.7,14.4,5.3,28.9,7.9,44.2,2.7,15.2,5.3,30.4,8,45.5,3.2,18.1,6.5,36.2,9.9,54.3,1.3,6.9,5,9,11.9,7.5,8.6-1.8,17.2-3.5,25.8-5.4,8.6-1.8,17.2-3.5,25.7-5.8,7.3-2,10.1-7.3,8.5-14.5-.6-2.6-1.3-5.2-1.9-7.7-6.1-25.3-12.1-50.6-18.2-76.6-1.9-7.4-3.8-14.8-5.7-23.1-.8-4.4-1.6-8.7-2.4-13.1.5-.2.9-.5,1.4-.7,2.3,2.3,4.6,4.6,7,7.6,6.7,9.4,13.4,18.7,20.1,28.7,8.6,12.4,17.3,24.9,25.9,37.3,2.7,3.9,6.1,6.7,11.2,5.9,9.7-1.6,19.4-2.8,28.9-5.2,3.4-.8,7.5-4,8.8-7.1,5.6-14,10.2-28.4,15.7-43.1,5.1-14.5,9.2-29.3,16.4-43,.8.1,1.6.3,2.3.4.3,12.7.6,25.4.7,39,.4,22.1.7,44.2,1.1,66.3.1,7.3.4,14.6.7,22,.3,6.6,4.7,10.7,11.3,10.6,2.3,0,4.6-.5,7.6-.6.7,0,1.3-.1,2.2.7.1,6,.2,12,.3,18.8.7,5.1,1.4,10.2,2,16,4.8,23.2,15.2,43.7,31.8,60.5,33.7,34,74.8,44.8,121.1,36.2,12.7-2.4,25-7.4,37.3-11.8,8.4-3,9.8-6.1,8.5-14.9-1.9-13-4.1-25.9-6-38.9-1.3-9.3-5.6-11.9-14.1-8.1-10.6,4.8-21.6,7.7-33.1,8.3-22.7,1-42.2-6-57.9-23.7-2.6-4.8-5.8-9.4-7.7-14.4-9.5-25.6,7.9-65.2,38.6-72.9,3.7-.6,7.4-1.3,12-1.8,4.3.5,8.6.8,12.8,1.6,14.4,2.7,26.6,9.9,38.5,19.1,2.5,2.5,5,5,7.9,8.1M1396.9,135.8c2.8,3,5.8,6,8.5,9.2,2.4,2.8,4.8,3.1,7.7.9,6.8-5,13.8-9.9,20.5-15,1.3-1,1.6-3.2,2.4-5.5-1.7-2.3-3-4.9-5.1-6.7-7.4-6.2-15-12-22.5-18-3.4-2.7-6.7-2.4-10.1,0-4.9,3.4-9.9,6.8-14.8,10.1-4.7,3.2-5,4.6-1.1,9,4.6,5.2,9.4,10.3,14.4,16.1M631.6,224.7c6.8-8.8,13.7-17.5,20.5-26.3,2.8-3.7,2.6-6.8-1.9-9.4-5-2.9-9.9-6.1-14.7-9.4-3.2-2.2-5.5-2-8.3.7-10.4,10.2-21,20.3-32.2,30.7-1.4,1.2-2.8,2.3-4.1,3.6-5.1,4.6-5.1,5.9.4,10.4,5.1,4.2,10.4,8.2,15.4,12.6,3.4,3,6.9,3.4,10.2.6,4.8-4.2,9.4-8.7,14.7-13.3M1613.7,242.1c0-1.5,0-3,0-4.5,0-7.8,0-7.6-7.7-7.9-15.8-.7-31.6-1.4-47.4-2.5-12.9-1-25.8-2.7-38.7-4-5.7-.6-6.2,0-6.3,5.8,0,2.7,0,5.3-.4,8.7,0,4.5,0,9-.2,13.5-.1,3.4,1.4,5.1,4.7,5.8,30.2,6.5,60.6,7.8,91.2,3.1,3.2-.5,4.9-1.8,4.8-5.1-.1-4-.1-8-.1-12.9M357.2,342.4c3.9-3.4,3.4-7.4,2.4-12,9.3-2.1,18.9-3.6,28-6.5,35.8-11.4,57.5-38.9,61.2-76.7,1.4-5,2.8-9.9,4.3-15.2-1.9-.5-3.5-.9-5.2-2.1-.3-1.5-.6-2.9-.8-4.4-2.7-18.2-10.1-34.4-22.8-47.8-29.7-31.2-75.1-40.6-115.1-24-5.3,2.2-10.7,4.3-16.9,6.4-2,.3-3.9.7-5.9.9-13.2,1.8-26.3,3.5-39.5,5.4-6,.9-8,3-7.4,7.8,2,15.3,4.2,30.6,6.1,45.9,2.2,17,4.3,33.9,5.9,51.2-23.5,21.2-39.9,47-50.5,76.7-9.4,26.6-14.1,54.1-14.6,82.1-.3,17.3,1.2,34.6,1.9,51.9h1.8c.6-1.4,1.3-2.8,1.9-4.3,3.6-9.5,7.2-18.9,10.8-28.4,1.6-4.3,3.2-8.7,5.4-13.2.9-1.6,1.9-3.1,2.7-4.7,10.2-19.1,20-38.6,30.9-57.3,5.8-10,13.5-18.8,20.6-27.4,2.2,16.5,4.5,32.9,6.6,49.4.9,7.2,2.7,8.8,10.1,8,4.3-.4,8.6-1.1,12.9-1.6,15-1.8,30-3.7,45.2-4.8,30.7,46.2,61.4,92.5,92.1,138.7.9,1.3,2.1,2.9,3.5,3.3,13.3,3.3,26,3.6,37-7.8,2-3.3,4.1-6.6,6.4-10.6.6-1.4,1.2-2.7,1.8-4.1,2.8-5.6,1.6-10.1-2.3-15.3-22.6-29.6-44.8-59.5-67.1-89.3-17.3-23.2-34.5-46.4-51.4-70.2M1734.7,249.5c1.6-3.8,0-5.9-3.7-7.1-29.5-10.2-58.9-20.4-88.4-30.6-3.6-1.2-5.6-.4-6.8,3.3-1.9,6-4,11.9-6.6,18.4-2.3,7.1-2,7.7,4.9,10.1,4.9,1.7,9.7,3.4,14.6,5,23.8,8.2,47.6,16.3,71.5,24.5,2.8,1,5.6,2.2,7-1.8,2.4-7,4.7-14.1,7.5-21.8M757.5,195.6c-.5,3.8-.8,7.6-1.5,11.4-.8,4.5,1.2,6.4,5.5,6.9,28.5,3.4,57.1,6.7,85.6,10.3,14.2,1.8,12.2,2.3,14-12.9.4-3.8.5-7.7,1.4-11.4,1.1-4.8-.8-6.5-5.4-7.1-30.7-3.7-61.3-7.7-92-11.5-3.8-.5-6.1.5-6.3,4.9,0,3-.6,5.9-1.3,9.6M1074.7,247.3c10.3,1.1,20.4,3.2,31,1.9,20-2.5,35.8-12,50-26.5,5.3-5.5,5.3-6.1,0-11.5-1.2-1.2-2.5-2.2-3.9-3.9-4.6-4.8-9.1-9.6-13.8-15.2-8.6-9.4-17.3-18.8-26.2-28.8-8.6-9.6-17.2-19.1-26-28.8-1.3.9-2.1,1.5-2.9,2.1-7.6,5.9-14.7,12.4-22.8,17.5-12.8,8.1-27,10.4-42,8.1-9.5-1.4-19-1.8-28.6.4-15,3.5-28.2,10.6-40.3,19.8-5.2,4-9.8,8.7-14.9,13.4,5.6,6.2,10.6,11.7,15.9,17.8,8.9,9.5,17.8,18.9,27,29,3.9,4.1,7.7,8.3,11.8,13.1,6.2,7.1,12.4,14.2,18.7,21.2,2.1,2.3,3.5.6,4.8-1,15.8-19.6,36.5-28.8,62.3-28.6M1384.8,135.3c-1.5-2.8-3.1-5.5-4.3-8.4-1.6-3.9-4.1-4.7-7.9-3.3-4,1.4-8.2,2.3-13.3,3.7,0-2.8,0-4.7,0-6.6.8-19.3,1.6-38.6,2.5-57.9.2-4.4-1.5-5.6-5.6-5.2-8.1.9-16.2,1.8-24.4,2.2-4.1.2-5.7,1.9-5.7,5.8,0,20.2,0,40.3-.2,61.4,0,11.2-.2,22.3,0,33.5,0,6.3,4.2,9.7,10.1,8.3,16.3-4.1,32.1-9.5,46.4-18.8,7.3-4.8,7.6-6.4,2.5-14.6M718.2,207c-6.6-8.7-13.2-17.3-19.9-26.1,14.6.2,23.3-4.9,26.5-15.5,2.9-9.4-.7-19.7-8.7-25.1-8-5.5-19.2-5.5-26.4,1.1-3.4,3.1-6,7.5-7.7,11.8-2.8,6.8-.2,13.3,3.5,19.5-5.6,2.1-10.9,4.1-16.2,6.1-6.4,2.4-6.5,2.6-3,8.7,6.1,10.6,12.3,21.2,18.6,32.5,2.3,4,4.8,7.9,6.9,12,1.9,3.5,4.4,4.1,7.8,2.5,7.3-3.4,14.7-6.9,22-10.2,3-1.4,4-3.4,2.5-6.3-1.8-3.5-3.8-6.9-6.1-11M470.2,134c-13.9-13.4-27.3-27.3-41.7-40.1-9-8-19.5-14.4-29.6-21.2-4.6-3.1-10.1-5.3-15.5-1.7-8.3,5.7-16.3,11.9-25.1,18-3.6,2.4-7.1,4.9-10.7,7.2-3,2-3.5,4.7-1.8,7.7,3,5.3,6.1,10.6,9.1,15.9,2,3.5,4.8,4.3,8.4,2.6,6.9-3.2,13.7-6.5,21.3-9.8,9.1-5.5,6.7-6,15.4.3,7.6,5.5,14.6,11.9,22.3,18.5,9,8.4,18,16.9,26.9,25.3,2.3,2.1,4.2,3.2,6.6.2,4.6-5.9,9.5-11.6,14-17.6.8-1.1.4-3.2.4-5.5M1253.8,129.1v-32.9c7.6,0,14.6-.2,21.5,0,4,.1,5.9-1.1,5.7-5.4-.2-5.8-.1-11.7,0-17.5,0-3.6-1.3-5.2-4.9-5.3-25.5-.3-51-.6-76.5-.9-4.1,0-5.7,1.7-5.6,5.7.1,4.2,0,8.3,0,12.5q0,10.2,10,10.3c5.6,0,11.2,0,17.7,0,0,11.2,0,21.7-.5,32.8v12.1c-10.6.5-20.3,1.1-30.1,1.4-4,.1-4.7,2-4.4,5.4.6,5.8,1,11.6,1.4,17.4.3,5.2,1.6,6.2,6.9,5.9,16.6-1,33.2-1.8,49.8-2.8,15.1-.9,30.2-1.9,45.3-2.7,3.6-.2,5.1-1.8,4.8-5.3-.5-5.6-1-11.3-1.3-16.9-.2-4.6-2.1-6.3-6.9-6.1-10.7.4-21.5.1-32.6.1-.1-1.7-.3-4.3-.3-7.9M540.2,240.3c3.4-13.4,6.7-26.8,10.3-40.1,1.1-4-.3-5.5-3.9-6.3-4.4-1-8.7-2.2-14.4-3.7,2.4-.7,3.4-1.1,4.5-1.3,15.2-2.9,30.4-5.8,45.6-8.7,4.5-.8,5.6-3.1,4.2-7.5-2.3-6.9-4.2-14-6.2-21-2.1-7.3-2.9-7.6-10.2-6.2-30.9,5.9-61.7,11.8-92.6,17.5-4.3.8-6.8,2-5.5,7.1.7,2.7.7,5.6,1.1,8.4,2.6,16-1.7,14,15.7,14.4,9.3.2,18.5-.8,28.4-1.2-3.4,13.4-6.7,26.4-10.2,40.1-1.5,5.8-3,11.5-4.6,17.3-.7,2.6-.3,4.7,2.6,5.5,8.7,2.2,17.3,4.4,26,6.6,2.8.7,4.4-.3,5.1-3.2,1.3-5.6,2.7-11.2,4.3-17.6M658.2,451.3c-4.5-.4-8.9-.8-13.4-1.1-5.4-.4-9.3,2.4-9.7,7-.5,4.8,2.5,8.2,8,8.8,5.9.7,11.9,1.3,17.9,2.8,1.2,13.3,2.2,26.5,3.6,39.7.6,6.1,2.9,7.6,9,7.1,17.6-1.6,35.1-3.2,52.7-4.7,6.1-.5,8.2-2.8,7.7-9-1.1-12.4-2.3-24.8-3.4-37.3-.9-10.5-1.8-21.1-2.8-31.9,13.6,1.6,26.5,2.1,40.1-.9,1.5-.3,2.9-.6,4.4-.9,38-8.5,66.3-34,69.4-73.5,2.4-31.3-7.4-58.2-32.8-77.4-32.7-24.6-68.4-26.7-105.6-10.4-3.6,1.6-7.5,2.7-11.3,3.2-12.9,1.5-25.9,2.4-38.8,3.7-8.4.8-9.5,2.6-8.8,10.8,2.7,28.5,5.3,57,7.8,86.4.3,2.4.6,4.9.8,7.3,2.1,23.3,4.1,46.6,5.3,70.1M1054.5,352.6c-4.9,24.1-9.8,48.2-14.7,72.3-1.3,6.2.3,8.5,6.5,9.8,17.3,3.5,34.5,7,51.8,10.4,6.6,1.3,8.5,0,9.9-6.8,1.8-9,3.8-17.9,5.6-26.8,3.2-16.1,6.4-32.3,10-49,1.4-7.1,2.9-14.2,4.3-21.3,9.9-.5,18.1,2.7,26.2,7.1,5.7,3.1,9,2,11.8-3.6,6.1-12.2,12.2-24.4,18.1-36.7,2.8-5.8,1.5-8.9-4.2-11.7-15.4-7.5-31.6-12.1-48.7-13.5-12.6-1-25.3,0-37.6-3.7-4.9-1.5-10.1-2.2-15.1-3.1-5.5-1-8,.5-9.1,5.7-4.8,23.4-9.5,46.9-14.6,71.1M994.7,407.9c4.6-3.3,9.2-6.5,13.7-10.1,13.4-10.6,16.8-23.6,9.4-39-3.5-7.3-7.9-14.4-13-20.6-13.4-16.5-30.8-25.1-52.3-24.2-17.7.7-33.9,6.9-48.8,16-26.9,16.3-43.5,39.3-44.1,72.8.3,20,6.6,37.9,19.1,53.4,29.8,37.1,77.5,39.5,116.5,21.1,4.4-2.1,7.2-5.9,7.3-10.6.2-11.5,0-22.9-.5-34.4-.1-3.4-2.8-5.4-6.1-5.4-2.6,0-5.1.9-7.7,1.5-8.5,2.1-16.9,5.6-25.5,6.1-17,1.1-30-6.8-39.4-21.8-4.4-8.4-6.1-17.2-3.3-26.4,4.1-13.5,19.1-20.7,30.2-14.4,5.8,3.3,6.2,6.4,1,10.5-3.5,2.8-7.2,5.3-10.8,8-3,2.3-3.5,5-1,8.1,3.9,4.7,7.7,9.5,11.6,15,2,2.4,4,4.8,6,7.3,2.7,3.4,6,4,9.7,2,9.1-4.9,18.2-10,28-15M425.2,378.2c-5.2-3.3-10.3-6.7-15.7-9.7-2.1-1.2-5.1-2.6-6.9-1.9-2.6,1-5.4,3.4-6.4,6-1.6,3.8.9,7,4.3,9.1,9.6,6,19.1,12,29.1,18.7.3.9.6,1.9.9,2.8,14.7,42.1,63.8,68.1,107.5,56.9,6.3-1.6,11.7-2.7,15.5,4.1.8,1.4,2.3,2.4,3.6,3.4,7.8,6.2,15.7,12.2,26.4,14.6,7.2,7.8,14.2,16,21.8,23.3,6.2,6,13.2,11.2,20.1,16.3,3.8,2.8,8.6,1.7,11.1-1.8,2.5-3.5,1.9-7.5-1.6-10.7-2-1.8-4.2-3.2-6.3-4.9-12.2-9.8-23.8-20.3-32.5-33.8,6.2-8.3,12.3-16.6,18.6-24.7,2.7-3.4,2.6-6.2-1-8.9-7.5-5.6-10.2-13.5-9.6-22.4.6-8.9,2.3-17.8,3.8-27.3.9-3.4,1.6-6.8,2.7-10.1,4.6-14.7,9.3-29.4,13.9-44.2,2-6.4.4-9.7-5.9-12-1.4-.5-2.9-.9-4.3-1.3-8.7-2.3-17.3-4.8-26-6.8-8.7-2-17.4-4.4-26.2-4.8-9.4-.5-15.6-8.1-24.4-9.4-1.3-.2-2.5-.8-3.8-1.2-20.8-6.2-41.4-6.5-61.1,3.7-23.7,12.2-37.8,32.2-44.8,58.5-.7,6.2-1.4,12.4-2.7,18.4M1227.6,585.6c1,1.3,2.2,2.4,3.1,3.8,7.8,12.6,15.5,25.2,23.4,37.8,4.9,7.8,11,8.6,17.5,2,42.8-43.7,85.5-87.5,128.2-131.2,3.1-3.2,4.4-6.8,2.9-10.9-1.5-4.2-5-5.9-9.4-6.2-11.1-1-22.2-2.1-33.3-3.2-35.1-3.5-70.2-7.1-105.3-10.6-29.3-2.9-58.6-5.8-87.9-8.7-4.1-.4-7.6.5-10.1,4-2.6,3.8-2.1,7.5.3,11.2,8.2,13,16.3,26,24.4,38.9,2.4,3.9,5.8,5.7,10.5,5.4,5.1-.4,10.3-.7,15.4-1,19.3-1.2,38.5-2.5,57.8-3.7,17.6-1.1,35.2-2.1,54.3-3.2-2.7.9-4,1.5-5.3,1.9-24.1,6.4-48.2,12.7-72.3,19.1-13.3,3.6-26.6,7.4-40.5,11.2-7.9,10.8-15.8,21.7-23.8,32.5-2.7,3.6-3.7,7.4-1.5,11.6,2.3,4.3,6.1,5.3,10.6,4.6,13.4-1.9,26.9-3.8,41-5.4M425.5,77.8c7.2,11,19.8,14.8,30.8,9.3,10.7-5.3,15.8-17.4,12.1-28.6-4.4-13.2-18.5-19.7-31.4-14.6-13,5.2-18.2,19.5-11.5,33.9M966.5,564.3c-8.5,0-17-.2-25.5-.1-5.2,0-9,3.7-8.9,8.2.1,4.5,3.5,7.6,8.7,7.7,5.2.2,10.3.1,15.5.1,15.6,0,31.3,0,46.9,0,6,0,9.9-4.3,8.6-9.5-1.2-4.8-4.8-6.5-9.4-6.4-11.6,0-23.3,0-35.9,0M835.8,433c2-3.7,1.4-7.2-1.7-9.9-3.1-2.8-6.5-2.3-10.2-.5-10.9,5.4-21.7,10.9-32.8,15.6-7.5,3.2-15.5,5-23.2,7.7-4.4,1.5-6.6,5.3-5.7,9.2,1,4.3,4.5,6.6,9.5,6,1.1-.1,2.3-.4,3.4-.8,14.9-5.7,29.8-11.2,44.5-17.3,5.6-2.3,10.5-6.2,16.1-10M878.5,578.5c4.4-1.7,6.4-5,5.3-9.5-1.1-4.6-4.6-6-9.1-6.2-15-.5-30-1.1-44.9-1.8-5.8-.2-11.6-.9-17.5-.9-4.6,0-8.1,3.8-8.1,7.9,0,4,3.1,7.7,7.5,7.9,22,1,43.9,1.8,66.7,2.5M1139.7,563.4c-1.3-6.8-4-8.9-10.6-8.2-20.1,2.2-40.3,4.4-60.4,6.7-5.8.7-9.1,4.3-8.5,8.9.7,4.7,4.9,7.6,10.4,7,20.1-2.2,40.3-4.4,60.4-6.6,4.5-.5,7.5-2.5,8.7-7.7M656,129.4c-17.4,11.1-32.7,24.7-46.4,40-4.1,4.5-4.2,9.1-.7,12.4,3.7,3.5,8.1,2.9,12.6-1.7,3.6-3.7,6.9-7.8,10.8-11.1,11-9.1,22.4-17.7,33.4-26.9,2.3-1.9,4.4-5.1,4.7-8,.2-2-2.4-5.7-4.4-6.3-2.8-.8-6.2.7-10,1.6M700.2,557.3c15.5,3.6,31,7.4,46.5,10.6,5.5,1.1,9.2-1.9,9.9-6.6.6-4.2-2.4-7.9-7.4-9.1-19.8-4.9-39.6-9.9-59.3-14.9-4.9-1.2-9.3.6-10.7,4.8-1.4,4.3.6,8.4,5.4,10.3,4.8,1.8,9.8,3.1,15.5,4.9M861.1,113.4c-3-1.4-6-2.9-9.1-4.1-5.1-2-9.5-.5-11.4,3.7-2,4.4,0,8.6,5.4,11.1,4.7,2.2,9.4,4.3,13.9,6.7,12.4,6.7,23,15.6,32.5,26.1,1.9,2.1,5.6,3.7,8.5,3.6,2.1,0,5.3-3.1,5.7-5.2.5-2.6-.5-6.4-2.3-8.5-11.5-14.3-26-25-43.2-33.4M927.9,203.1c-8-.5-11.4,3.5-9.6,11.4,4.2,19,5.9,38.1,4,57.5-.5,5.5,2.3,9.4,6.8,10,5,.7,8.4-2.4,9.1-8.2,2.3-21.4.4-42.6-4.5-63.4-.6-2.6-3.3-4.6-5.8-7.2M564.7,279.2c6.4-15.3,12.8-30.6,19.4-45.8,2.2-5.1,1.6-9.4-2.3-11.8-4.2-2.5-8.7-1.2-11.6,4-2.6,4.6-5.3,9.3-7.2,14.2-5.7,14.8-11.2,29.8-16.4,44.8-1.8,5.1.9,9.5,5.4,10.6,4.8,1.1,8.4-1.3,10-6.6.8-2.9,1.6-5.7,2.8-9.4M788.3,111.3c4.1-1.9,5.6-5.3,4.5-9.4-1.1-4.3-4.6-6-8.8-5.9-10.3.3-20.7.1-30.9,1.2-11,1.2-22,3.6-32.9,5.8-4.7,1-7,5.2-6.1,9.4.9,4.1,5,6.7,9.6,6,1.5-.2,2.9-.7,4.4-.9,10.7-1.6,21.3-3.6,32-4.7,9.1-.9,18.3-.8,28.2-1.5M1539.9,169.5c-4.5-.5-9-.8-13.3-1.7-4.7-.9-6.5.9-6.2,5.5.5,9.1,1.1,18.3,1.5,27.4.1,3.1,2,3.9,4.5,4.2,7.3.7,14.5,1.5,21.8,2.2,6.8.6,8.7-1.4,7.6-8.3-1.1-6.9-3-13.6-4.2-20.5-1.1-6.2-4.8-8.7-11.6-8.8M1597.6,173c-2.6-4-5-8.3-8-12-1.2-1.5-4-2.6-5.9-2.4-6.1.6-12.1,1.9-18.2,2.8-3.8.5-5.2,2.2-3.9,6.1,2.9,8.5,5.9,16.9,8.5,25.5,1.2,4,3.6,4.7,7.1,3.9,7.2-1.4,14.3-2.9,21.5-4.1,3.9-.6,5.3-2.8,4.2-6.3-1.4-4.4-3.3-8.6-5.4-13.6Z"/>
  <path class="cls-45" d="M1409,619.1c-4.8,5.2-9.4,10.6-14.4,15.7-25.8,26.2-51.6,52.3-77.4,78.5-6,6.1-11.8,12.6-17.8,18.7-6.3,6.4-13.7,11.2-22.7,13.2-.4,0-.7.7-.9,1.4-8.2.4-16.6.4-25.4.4-1.8-1-3-2.1-4.5-2.9-1.8-1-3.8-1.6-5.7-3,2-3.9-.3-9.8,6.2-10.4.2,0,.7-2.1.3-2.7-2.7-4.6-.3-8.5,1.5-12.6.6-1.4.6-3.1,1.2-4.6.5-1.5,1.4-2.9,2.1-4.3,1.1-2.2,2.2-3.8,3.4-5.5.6-.9,1.3-1.7,1.6-2.7,1.7-4.6,3.3-9.3,4.9-14,.8-1.4.5-3.3.6-5.2,0-1.7.6-3.4,1-5.1,17.3-.6,30.2-9.2,41.9-21.4,33.7-35.1,68-69.6,102-104.4,3-3.1,6.4-6,8.8-9.5,5.2-7.4,12.1-9,20.9-7.2.5,1.1.7,1.8.6,2.4-.8,5,3.1,10.4-1.8,15.1-2.2,2-3.9,4.9-4.9,7.7-2.7,7.9-4.7,16-7.4,23.9-1.9,5.6-4.5,11.1-6.8,16.6,0,.1-.2.2-.3.4-4.1,5.3-7.4,10.8-3.4,17.7,0,0,0,0-.5,0-1.2,1.2-2.1,2.5-2.9,3.8Z"/>
  <path class="cls-37" d="M255,513.8c-1.2-.5-2.4-.9-4.5-1.7-6.9,17.7-14,35.1-20.5,52.8-3.8,10.4-8.7,19.7-18.2,25.8-23.2,14.9-57.1,3.3-61.7-26.7-1.8-11.6-2.1-23.3-3.1-35-.2-1.7-.7-3.3-1.6-5-.4-21-.4-42-.4-63.5.7.7,1.8,1.9,2,3.2,1.1,8.2,1.8,16.5,3,24.8,2.8,18.4,17,32.5,34.5,34.5,18.6,2.1,35.7-8.2,42.9-25.9,7.3-17.9,14.6-35.8,21.8-53.8,1.5-3.7,2.8-4.3,7.2-3,7.6,2.3,15.8,2.8,24.2,4.4-1.1,3.3-2.6,6.2-3.3,7.8,0,3.8.8,8-.1,8.4-5.5,2.4-4,7.3-5.1,11.4-1.2,4.2-1.6,9.5-4.4,12.2-4.7,4.6-5.3,10.8-8.4,15.9-.5.9.6,2.6.3,3.8-.5,2.3-1.3,4.5-2.3,6.6-.5,1.1-1.5,2-2.2,3Z"/>
  <path class="cls-2" d="M1777,323.5c-.7,1.4-1.7,2.3-1.9,3.4-3.5,13.8-7,27.7-14.5,39.9-6.7,10.8-17.1,16.6-29.3,19.1-2.2.5-4.5.9-7.2,1.4,0,9.2,0,18.3,0,27.4,0,18-8.1,32.6-18.5,46.6-4.6,6.1-7.1,13.8-10.4,20.9-2.1,4.4-3.7,9.1-5.9,13.8-2.3-10.6-4.2-21.4-6.1-32.1-.5-2.6-.3-5.5-1.3-7.8-3.3-6.9-1.1-13.1,1.6-19.4,3.7-8.5,7.1-17.2,10.4-25.9,3.9-10.1,8.7-19.4,15.4-28.2,15.4-20.2,19.6-42.6,8.3-66.5-.3-.6-.3-1.2-.4-1.8,5-.4,9.8-.4,14.5-1.2,15.5-2.7,26.5-11.5,32.2-26,4.4-11.1,7.4-22.7,11.1-34.1.3-.9.9-1.7,1.6-2.3.3,24.3.3,48.3.3,72.8Z"/>
  <path class="cls-16" d="M652.1,373c-2.6-28.5-5.2-57-7.9-85.5-.8-8.3.3-10,8.8-10.8,12.9-1.3,25.9-2.2,38.8-3.7,3.9-.4,7.8-1.6,11.3-3.2,37.2-16.3,72.9-14.2,105.6,10.4,25.4,19.1,35.2,46.1,32.8,77.4-3.1,39.4-31.4,65-69.4,73.5-1.5.3-2.9.6-5,.6-40.8-13-77.9-31.7-111.4-57.4-1-.7-2.4-.9-3.6-1.3M743.1,381.8c26.8-3.6,37.7-30.2,21.3-51.8-9.4-12.4-26.3-16.2-43-9.9-2.9,1.1-4,2.4-3.7,5.8,1.6,16.7,2.9,33.5,4.5,50.2.1,1.4,1.9,3.6,3.2,3.8,5.5,1,11.2,1.4,17.7,1.9Z"/>
  <path class="cls-56" d="M1201.9,542.2c13.3-3.7,26.5-7.5,39.8-11.1,24.1-6.5,48.2-12.7,72.3-19.1,1.4-.4,2.7-.9,5.3-1.9-19,1.1-36.7,2.1-54.3,3.2-19.3,1.2-38.5,2.5-57.8,3.7-5.2.3-10.3.6-15.4,1-4.6.4-8.1-1.5-10.5-5.4-8.1-13-16.2-26-24.4-38.9-2.3-3.7-2.9-7.4-.3-11.2,2.4-3.5,6-4.4,10.1-4,29.3,2.9,58.6,5.7,87.9,8.7,35.1,3.5,70.2,7.1,105.3,10.6,11.1,1.1,22.2,2.2,33.3,3.2,4.4.4,7.9,2.1,9.4,6.2,1.5,4.1.2,7.7-2.9,10.9-42.8,43.7-85.5,87.5-128.2,131.2-6.5,6.6-12.7,5.9-17.5-2-7.8-12.6-15.5-25.2-23.4-37.8-.9-1.4-2-2.5-3.4-4.3-1.3-2.5-2.1-4.7-3.3-6.6-7.3-12.1-14.7-24.2-22-36.3Z"/>
  <path class="cls-4" d="M293.1,160.2c5.4-2.1,10.8-4.2,16.1-6.4,39.9-16.5,85.4-7.2,115.1,24,12.7,13.4,20,29.5,22.8,47.8.2,1.5.6,2.9.9,5.3.1,6.2.3,11.5.4,16.8-3.2,37.4-24.9,64.9-60.7,76.3-9.1,2.9-18.6,4.4-28.7,6.4-6.1-4.8-11.5-9.5-16.9-14.7-2.2-13.8-4.4-27.1-6.2-40.5,3.3-.1,6.1,0,8.9-.3,19.1-1.7,30.2-14.2,29.3-33.5-.7-7.6-2.4-14.3-7.7-20-4.1-5.5-9.5-8.5-15.6-10.6-11.3-3.8-22-1.4-32.7,2.3-3.7-7.5-7.4-14.5-10.8-21.8-4.9-10.3-9.5-20.8-14.2-31.2Z"/>
  <path class="cls-16" d="M292.6,160.1c5.1,10.4,9.8,20.9,14.6,31.2,3.4,7.2,7.1,14.3,10.7,22.2.8,6.4,1.5,12.1,2.2,18.1.8,6.2,1.7,12,2.6,18.2.5,5.3,1,10.3,1.8,15.1,1.4,9.4,1.5,9.4,10.8,10.3,2.2,13.3,4.5,26.7,6.4,40.3-3.9-2.9-7.6-6-11.1-9.3-6.5-6.2-12.8-12.6-19.4-18.6-5.3-4.9-13.1-2.7-13.6,4-.2,2.8,1.7,6.5,3.8,8.6,10.6,10.5,21.6,20.6,32.5,31.3.5,4.4,1,8.4,1.5,12.7.1.6.3.8.7.9,0,0,0,0,0,.5.2,3.2.4,6,.8,8.8,1.4,11.3,2.9,22.6,4.4,33.9.5,3.9-.8,6.8-4.2,8.7-15,1.8-30,3.7-45,5.5-4.3.5-8.6,1.2-12.9,1.6-7.4.8-9.1-.8-10.1-8-2.1-16.5-4.4-32.9-6.8-50.2-2.2-16.2-4.3-31.6-6.3-47.4-1.3-9.4-2.6-18.5-3.9-27.5-2.2-17-4.3-33.9-6.5-50.9-2-15.3-4.1-30.6-6.1-45.9-.6-4.8,1.4-7,7.4-7.8,13.2-1.9,26.3-3.6,39.5-5.4,2-.3,3.9-.6,6.3-.9Z"/>
  <path class="cls-9" d="M1211.2,243.9c-5.3-10-9.8-20.3-10.7-31.9-1.1-13.2,3.6-18.7,14.7-20.3,16.6-2.4,33-6,49.5-9,6.1-1.1,11.2.3,15.8,4.9,25.6,26.1,48,54.8,70.5,83.5,1.4,1.8,2.9,3.6,5,6.2,1.3-2.7,2.2-4.5,3-6.4,14.8-33.8,29.4-67.6,47.9-99.6,2.9-5,6.9-7.9,12.7-8.3,18.4-1.5,36.8-3,55.2-4.5,7-.6,11.6,3,12.3,10,1.2,12.4,2.1,24.8,3,37.2.1,2.1-.8,4.2-1.9,6.4-4.8-6-8.9-12-12.8-17.8-3.8,12-9.1,23.9-18.2,34.5-10.7-11.6-15.3-25.2-19.8-39.9-.6,2.6-1,4.2-1.2,5.8-2.3,13.2-6.5,25.7-13.8,37.1-2,3.2-4,4.4-6.9,1.2-1.2-1.3-2.7-2.5-3.9-3.8-3-3.3-5.9-6.6-9.3-10.6-1.8,9.1-2.9,17.5-5.3,25.6-3.8,12.9-8.1,25.6-12.7,38.2-1.8,4.9-4.3,4.9-7.4.6-1.7-2.3-2.9-4.9-4.5-7.8-.5,1.8-.9,3.1-1.3,4.3-3.2,10.4-7.3,20.3-14.1,29-2.5,3.1-4.8,3.5-7.2.4-3.3-4.2-6.5-8.4-9.4-12.8-2.4-3.7-4.2-7.7-6.5-11.9-.9,2-1.5,3.6-2.3,5-.7,1.4-1.6,2.7-3,5-10.4-16.6-18.3-33.2-22.7-50.8-5.6,9-11.3,18.1-17.4,28.1-11-14.3-16.6-29.3-20.4-46.1-5.9,12.2-11.3,23.3-16.7,34.5-.6,0-1.2,0-1.9.1-5.3-13-10.5-25.9-15.7-38.6,0,.1-.4,1-.7,1.8-2.6,6.3-4.6,12.9-7.8,18.9-4.6,8.6-4.1,10.7-13.2,3,0,0,0,0,0-.2-.2-.5-.4-.7-.7-.9Z"/>
  <path class="cls-10" d="M1538.2,443.9c15.4,17.1,34.9,24.1,57.6,23.1,11.6-.5,22.6-3.5,33.1-8.3,8.5-3.8,12.7-1.2,14.1,8.1,1.9,13,4.1,25.9,6,38.9,1.3,8.8-.1,11.9-8.5,14.9-12.3,4.4-24.6,9.5-37.3,11.8-46.3,8.7-87.5-2.1-121.1-36.2-16.6-16.8-27-37.3-31.4-60.9,4.3.6,8.1,1.7,12,2.5,24.9,5.5,50.2,6.6,75.6,6Z"/>
  <path class="cls-36" d="M1116,686.8c-17,1.4-34.1,3.2-51.2,4-8.5.4-16.3-2.9-23.3-7.9-2.6-1.8-4.4-2.5-7.3,0-6.8,6-15,9.6-24.1,9.9-18,.6-36.1.7-54.6.6,0-2.4.5-4.4.8-6.4.9-7,2.6-13.7,7.3-19.2,2.3-2.7,3-5.3,1.2-8.6-1.5-2.7-1.2-5.2,2.3-6.2,4.1-1.1,4.3-4.5,4.8-7.8.3-2,.8-4,1.5-6.9-2-4.1-1.5-5.3,3.8-8.3.7-3.4,1.2-6.4,1.8-9.3,7-.2,14-.7,20.9-.5,14.3.4,26.9-3.6,37.7-13.6,13.7,11.6,29.7,12.1,46.3,10,18.8-2.3,37.7-4.5,56.5-6.4,1.7-.2,3.6,2,5.1,3.4-2,.5-3.7.6-6.4.9,1.7,1.9,2.6,2.8,4,4.4-5.8,1.6-6.6,5.6-6.4,10.7.1,3-1.7,6-2.6,9.1-.3,1.1-1,2.1-1.1,3.3-.3,3.7-.3,7.4-4.8,8.8-.6.2-1.1,1.6-1.2,2.5-.4,4.3-.4,8.6-1.2,12.8-.4,2.3-2,4.5-3.6,6.3-1.2,1.4-3.2,2.2-4.9,3.3.4.1.8.3,1.2.4-.5,2.2-.9,4.5-1.4,6.7-.3,1.4-.8,2.7-1.3,4.1Z"/>
  <path class="cls-16" d="M428.1,359c6.8-25.5,20.9-45.5,44.6-57.7,19.7-10.2,40.3-9.8,61.1-3.7,1.3.4,2.5,1,3.8,1.2,8.8,1.3,15,8.9,24.4,9.4,8.8.5,17.6,2.9,26.2,4.8,8.7,2,17.4,4.5,26,6.8,1.4.4,2.9.7,4.3,1.3,6.3,2.3,7.9,5.5,5.9,12-4.6,14.7-9.3,29.4-13.9,44.2-1,3.3-1.8,6.7-3.3,10.5-16.9,0-33.1-.4-49.5-1.1-1.4-11.2-2.8-22-3.6-32.8-.6-7.2-2.8-10.8-8.1-10.8-5.1,0-7.7,3.4-8,10.3,0,.3,0,.7-.4.9-13.3-8.2-26-6.8-35.9,3.5-5.5,5.8-8.1,12.8-10.1,20.3-20.6-4.2-40.3-9.7-59.1-18.2-1.3-.6-2.9-.5-4.3-.8Z"/>
  <path class="cls-53" d="M1496,304.1c13.6-8.2,28-14.7,43.7-17.5,46.1-8.1,88.6.4,126.5,28.6,4.7,3.5,8.7,8.3,12.2,13.1,6.4,8.6,6.9,17.8,1.1,27-4.7,7.5-10.4,14.1-19.2,16.9-.3-2.5-.4-4.4-.4-6.7.3-6.9.7-13.4,1-21.1-8,8.9-15.4,16.3-26.3,19.7-.9-3.6-1.8-6.9-2.6-10.7,0-6.4-.2-12.4-.2-18.8.8-7.5,1.5-14.6,2.4-21.8.2-.4.2-.8.2-1.2-.1.4-.2.8-.7,1.4-7.4,9.6-14.7,18.7-25.3,24.7-6.4-8.5-7.9-18.3-9.4-29.4-7.2,13.2-14.7,24.3-28.2,30.9-3.1-4.4-6.5-8.5-9-13-2.5-4.6-4.1-9.6-6.2-14.6-7,24.8-12,34.8-21.1,42-9.5-4.4-13.8-12.2-14.2-22.8-4.5,21.4-13.6,39.8-31.8,55.1-2.1-9-3.9-16.9-5.8-24.7-8.8,15.2-18.6,29.9-34.9,38.8-.7,0-1.3.1-2.4-.3-.4-19.4,5-37,13.4-53.5,8.7-17.2,21.5-31,37.3-42.1Z"/>
  <path class="cls-24" d="M978.6,620.6c-.1,3.1-.7,6.1-1.3,9.5-5.4,3-5.9,4.2-3.8,8.3-.6,2.9-1.1,4.9-1.5,6.9-.5,3.3-.7,6.7-4.8,7.8-3.6,1-3.8,3.5-2.3,6.2,1.8,3.3,1.1,5.9-1.2,8.6-4.7,5.5-6.4,12.2-7.3,19.2-.3,2-.8,4-1.2,6.3-13.6,1-27.6,1.1-39.2-6.9-6.6-4.5-11-4.5-17.3,0-6.4,4.5-14.2,5.7-22.2,5.5-14.8-.5-29.5-.5-44.3-1.1-8.7-.3-17.4-1.3-26.6-2.4-1.9-4.3-2.2-7.8,1.3-10.8,2.5-2.1,1.7-6.8,5.9-7.7.3,0,.6-2.2.1-2.8-2.6-3-1-5.9.5-8.2,2.3-3.6,4.4-6.8,5.5-11.1.7-2.5.6-5.6,2-7.8,2-3.2,4.8-5.9,7.3-8.9-1.6-1.3-2.7-2.3-2.8-2.3,1.4-4.4,2.6-8,3.7-11.5,12.6.4,25.3.6,37.9,1.4,14.8.9,28.5-1.5,40.6-11.3,11.8,10.6,25.9,13.4,41.2,12.9,9.8-.3,19.6.1,29.9.4Z"/>
  <path class="cls-22" d="M428,359.4c1.5-.1,3.1-.2,4.4.4,18.8,8.5,38.6,14,59.2,18.6-.2,24,18.7,37.4,43.4,31.1,1.5-9.4,3-18.7,4.6-27.6.8,3.1,1.6,5.8,2.3,8.5,1.9,7.7,3.8,15.4,5.7,23.1.2.6.3,1.3.5,1.9,1.9,4.9,5.8,7.2,10,5.8,4.6-1.4,6.5-5.5,5.2-10.7-1.9-7.9-3.7-15.8-5.5-23.6,16.2.4,32.4.8,49.1,1.1-.7,8.8-2.3,17.7-3,26.6-.6,8.9,2.1,16.8,9.6,22.4,3.6,2.6,3.6,5.4,1,8.9-6.3,8.2-12.4,16.5-19,24.9-1.8-1.5-3.1-3.2-4.5-4.8-3-3.4-7.2-4.1-10.6-1.8-3.6,2.4-4.7,6.8-2.3,10.9,1.4,2.4,3.1,4.6,4.7,6.9-10.1-2-18-8-25.8-14.2-1.3-1-2.8-2-3.6-3.4-3.8-6.8-9.2-5.7-15.5-4.1-43.7,11.3-92.8-14.8-107.5-56.9-.3-.9-.6-1.9-.7-3.1,3.1,1.3,6.1,2.8,9,4.3,5.8,2.9,11.4,6.1,17.3,8.7,4.2,1.9,8.1.2,10.1-3.7,1.9-3.8.8-7.9-3.1-10.3-2-1.2-4.2-2-6.2-3.2-10.4-5.9-20.7-11.8-31.1-17.7.7-6.2,1.4-12.4,2.1-18.9M511.8,435.6c1.5,1.1,2.8,2.6,4.4,3.1,20.2,5.9,40.5,11.7,60.8,17.2,5.4,1.5,9.3-1.3,10.3-6,1-4.6-1.8-8.2-7.1-9.7-19.5-5.4-38.9-11.1-58.5-16.2-2.8-.7-6.7,0-9.1,1.6-3.2,2.1-3.2,5.9-.9,10Z"/>
  <path class="cls-16" d="M951,413c-3.8-4.8-7.6-9.5-11.5-14.3-2.5-3.1-2-5.8,1-8.1,3.5-2.7,7.3-5.2,10.8-8,5.1-4.1,4.8-7.2-1-10.5-11.1-6.3-26.2.8-30.2,14.4-2.8,9.3-1,18,2.9,26.9-12.5-1-24.8-1.9-36.8-4-8.9-1.6-17.5-4.9-26.3-7.4.4-32.7,16.9-55.6,43.8-71.9,14.9-9.1,31.1-15.3,48.8-16,21.5-.8,39,7.7,52.3,24.2,5.1,6.3,9.5,13.3,13,20.6,7.4,15.3,3.9,28.4-9.4,39-4.4,3.5-9.1,6.7-14.2,9.8-2.4-.2-4.2-.3-5.9,0-12.4,1.8-24.8,3.6-37.2,5.5M909.9,329c-1.5,1.9-3.3,3.7-4.5,5.8-6.2,10.2-11.9,20.8-18.5,30.8-4.2,6.4-9.9,11.7-14.1,18.1-1.5,2.3-1.7,6.5-.7,9.1.7,1.9,4.4,3.8,6.8,3.7,2.4,0,5.3-2.1,7-4,14.4-15.7,26.1-33.3,34.7-52.8,1.1-2.4.6-6.3-.7-8.7-1.8-3.4-5.6-3.8-10-2Z"/>
  <path class="cls-51" d="M573.9,604c-2.2-1.7-4.9-3-6.4-5.2-5-7.7-12.5-12.1-20.3-16.2-.9-.5-1.8-.9-2.6-1.5-6.7-6-14.2-8.1-22.6-4.7-1.3,7.1-2.1,14.5-4.2,21.5-8.3,27.6-24.6,48.1-53.8,55.3-7.4,1.8-15.4,1.2-23.6,1.3-3.9-8.2,1.6-13.2,5.2-18.6-1-.9-1.7-1.5-2.3-2,7.9-11,10.6-23.7,15.1-36.2-3.5-3.4-.2-5.6,2.3-8.1,4-4.1,3.8-5.6-.6-9.1,31.3-5.5,59.5-34.7,60.1-77.7,4.4-.4,8.8-.9,13.2-1.1,1.3,0,2.8.8,4,1.6,3.1,2,5.8,4.6,9.1,6,13.8,5.9,22.8,17.4,33,27.5,4.3,4.2,9.4,7.7,14.2,12.2,0,8.1-1.2,15.3-4.8,21.9-1.7,3.1-3,6.6-3.7,10.1-.6,3-.1,6.3-.1,9.3-7.3,1.1-8,2.5-6.7,10.8-1.5.9-3.1,1.8-4.6,2.8Z"/>
  <path class="cls-52" d="M1116.4,686.9c0-1.4.5-2.7.8-4.1.5-2.2.9-4.5,1.4-6.7-.4-.1-.8-.3-1.2-.4,1.6-1.1,3.6-1.9,4.9-3.3,1.6-1.8,3.1-4.1,3.6-6.3.8-4.2.8-8.5,1.2-12.8,0-.9.6-2.3,1.2-2.5,4.5-1.4,4.5-5.1,4.8-8.8,0-1.1.8-2.2,1.1-3.3,1-3,2.7-6.1,2.6-9.1-.2-5.1.6-9.1,6.4-10.7-1.4-1.5-2.3-2.5-4-4.4,2.7-.2,4.4-.4,6.5-.5,15.5,16.7,34.6,19.8,55.5,15.5,5.1-1,7.7.2,10.2,4.8,4.2,7.7,8.5,15.5,14.2,22.1,4.6,5.4,10.8,10.1,17.2,13.2,5.8,2.8,12.8,2.9,19.8,4.4,0,1.8-.5,3.5-.5,5.2,0,1.9.3,3.8-.6,5.2-1.6,4.7-3.2,9.3-4.9,14-.4,1-1.1,1.8-1.6,2.7-1.1,1.7-2.3,3.3-3.4,5.5-.7,1.4-1.6,2.8-2.1,4.3-.5,1.5-.6,3.2-1.2,4.6-1.8,4.1-4.2,7.9-1.5,12.6.4.7-.1,2.7-.3,2.7-6.4.6-4.2,6.5-6.3,10.1-9.8-3.9-16-11.6-21.3-20.3-3.1-5.2-6.3-10.4-9.4-15.6-1.6-2.6-3.4-3-6.5-2.4-16.2,3.1-32.4,3.8-46.7-6.5-3.9-2.8-7.4-6.4-10.7-10-2.1-2.3-3.9-2.5-6.8-2-7.2,1.3-14.6,2.1-22.3,3Z"/>
  <path class="cls-41" d="M828.5,617.2c-.7,3.7-1.8,7.2-3.3,11.6,0,0,1.2,1,2.8,2.3-2.5,3-5.3,5.8-7.3,8.9-1.4,2.2-1.3,5.3-2,7.8-1.1,4.3-3.2,7.6-5.5,11.1-1.5,2.2-3.1,5.2-.5,8.2.5.5.1,2.7-.1,2.8-4.2,1-3.5,5.6-5.9,7.7-3.5,3-3.2,6.6-1.8,10.8-10.3-1.1-19.2-5.8-26.9-12.8-.9-.8-3.2-1.4-4.1-.8-12.8,7.8-26.4,8.3-40.4,5.1-16.7-3.8-33.4-8.1-50.2-12.8.5-1.4,1-2.4,1.7-3,4.5-3.5,5.2-7.6,3.4-13-.6-1.9,1.5-4.7,2.4-7,.9-2.3,1.9-4.5,2.8-6.8.3-.8,0-2.1.5-2.6,5.2-5,6.7-11.3,6.9-18.3.1-4.5,1.6-8.3,6.4-10.2,1.3-.5,1.8-2.9,2.6-4.5,9,1.8,17.9,3.6,26.9,5.3,13.8,2.8,26.8.8,39.1-7,7.3,7.9,16,13.6,26.7,15.2,8.3,1.2,16.8,1.3,25.7,2Z"/>
  <path class="cls-16" d="M1054.9,352c4.7-23.5,9.4-46.9,14.2-70.4,1.1-5.2,3.6-6.7,9.1-5.7,5.1.9,10.2,1.7,15.1,3.1,12.3,3.7,25.1,2.7,37.6,3.7,17.1,1.3,33.3,6,48.7,13.5,5.8,2.8,7,5.9,4.2,11.7-5.9,12.3-11.9,24.5-18.1,36.7-2.8,5.7-6.1,6.7-11.8,3.6-8-4.3-16.2-7.6-26.2-7.1-1.4,7.1-2.9,14.2-5,21.6-16.7.6-32.5-.7-48-4.7-6.7-1.8-13.3-4-20-6Z"/>
  <path class="cls-8" d="M709.8,601.5c-.5,1.7-1,4.1-2.3,4.7-4.8,2-6.3,5.8-6.4,10.2-.2,7-1.7,13.3-6.9,18.3-.5.5-.2,1.8-.5,2.6-.9,2.3-1.9,4.5-2.8,6.8-.9,2.3-3,5.1-2.4,7,1.8,5.4,1.1,9.5-3.4,13-.8.6-1.2,1.6-2,2.7-16.9-2.6-30.4-10.6-38.9-25.7-2.3-4.1-4-5.1-8.9-4.4-11.5,1.5-22.9-.7-32.3-7.9-10-7.5-19.2-16.1-28.9-24.5,1.4-1.2,2.9-2.1,4.5-3.1-1.4-8.3-.6-9.7,6.7-10.8,0-3-.5-6.2.1-9.3.7-3.5,2-6.9,3.7-10.1,3.6-6.7,4.8-13.8,4.9-21.6,7,3.6,13.7,8.3,21.1,11.4,8.4,3.6,17.5,3.3,26.3,1.3.4.3.8.4.9.7,7,17,20.7,25.7,37.7,30.4,9.8,2.7,19.7,5.4,29.8,8.2Z"/>
  <path class="cls-4" d="M859.7,402.4c8.9,2.1,17.5,5.3,26.4,7,12,2.2,24.3,3.1,36.9,4.4,9.7,14.1,22.7,22.1,39.7,21,8.6-.6,17-4,25.5-6.1,2.5-.6,5.1-1.5,7.7-1.5,3.3,0,6,1.9,6.1,5.4.4,11.5.7,22.9.5,34.4,0,4.7-2.9,8.5-7.3,10.6-39,18.4-86.6,16-116.5-21.1-12.5-15.6-18.8-33.4-18.9-53.9Z"/>
  <path class="cls-22" d="M652.1,373.5c1.2,0,2.7,0,3.6.8,33.5,25.6,70.6,44.4,111,57.3-12.6,3.3-25.4,2.8-39.1,1.2.9,10.8,1.8,21.4,2.8,31.9,1.1,12.4,2.4,24.8,3.4,37.3.5,6.2-1.6,8.5-7.7,9-17.6,1.5-35.1,3.1-52.7,4.7-6.1.6-8.4-1-9-7.1-1.3-13.2-2.4-26.5-3.1-40.3,6.9-.2,13.4.2,19.8.3,8.5.2,16.9.3,25.4,0,5-.2,8.3-4,8.1-8.4-.2-4.2-3.6-7.3-8.4-7.5-3.5-.1-7,.1-10.5,0-12.2-.5-24.5-1.2-36.7-1.7-2.1-23.3-4.1-46.6-6.2-69.9-.2-2.4-.5-4.9-.8-7.7Z"/>
  <path class="cls-10" d="M1294.8,319c6.1,25.3,12.1,50.6,18.2,75.9.6,2.6,1.3,5.1,1.9,7.7,1.6,7.2-1.2,12.5-8.5,14.5-8.5,2.3-17.1,3.9-25.7,5.8-8.6,1.8-17.2,3.6-25.8,5.4-6.9,1.5-10.6-.7-11.9-7.5-3.4-18.1-6.7-36.2-9.9-54.3-2.7-15.2-5.4-30.4-7.5-46,23.4-.8,46.3-1.1,69.2-1.4Z"/>
  <path class="cls-19" d="M1211.7,245.4c9.3,7.3,8.8,5.2,13.4-3.4,3.2-6,5.2-12.5,7.8-18.9.3-.8.7-1.7.7-1.8,5.2,12.7,10.4,25.7,15.7,38.6.6,0,1.2,0,1.9-.1,5.4-11.2,10.8-22.3,16.7-34.5,3.7,16.8,9.4,31.7,20.4,46.1,6.2-9.9,11.9-19.1,17.4-28.1,4.4,17.6,12.3,34.2,22.7,50.8,1.3-2.2,2.2-3.6,3-5,.8-1.5,1.4-3,2.3-5,2.2,4.2,4.1,8.3,6.5,11.9,2.9,4.4,6.1,8.7,9.4,12.8,2.4,3.1,4.7,2.7,7.2-.4,6.8-8.7,11-18.6,14.1-29,.4-1.3.7-2.5,1.3-4.3,1.7,2.9,2.9,5.5,4.5,7.8,3.1,4.3,5.6,4.3,7.4-.6,4.6-12.6,9-25.3,12.7-38.2,2.4-8.1,3.5-16.5,5.3-25.6,3.4,3.9,6.3,7.3,9.3,10.6,1.2,1.3,2.7,2.5,3.9,3.8,3,3.2,4.9,2,6.9-1.2,7.3-11.4,11.5-23.9,13.8-37.1.3-1.6.7-3.2,1.2-5.8,4.4,14.7,9,28.2,19.8,39.9,9.1-10.7,14.4-22.6,18.2-34.5,3.9,5.8,8,11.9,12.5,18.1,1,7.7,1.6,15.3,1.9,23.5-.9,2.6-1.9,4-3.5,1.7-2.6-3.8-5-7.7-7.3-11.7-1.1-2-1.8-4.3-3-7.5-4.6,13.8-9.6,25.9-19.7,37.4-4.2-7.2-8.1-13.2-11.1-19.5-3.1-6.5-5.3-13.4-7.9-20.3-.4,1.1-.9,2.2-1,3.3-1.5,13.1-6,25.2-12.5,36.5-3.9,6.9-6,6.9-11.3.9-.3-.4-.5-.9-.8-1.2-2.9-3.3-5.9-6.6-9.4-10.6-4.9,22.4-7.5,44.5-18.2,64.6-.9,1.5-1.7,2.6-2.6,3.9-1.7-1.3-3-2.2-4.4-3.5-1.5-2.9-2.9-5.5-4.7-8.9-1.2,3.9-2.1,7-3.2,10.5-4.1,7.9-8.1,15.5-12.2,23-2.3,4.2-5.1,3.7-7.6.4-3.2-4.2-6.4-8.4-9.2-12.8-2.3-3.6-4-7.6-6.2-11.8-1.8,3.6-3.2,6.4-5.4,10.7-1.6-2.3-2.4-3.5-3.3-5-7.7-15.3-15.7-30.1-19.5-47.3-3.8,7.1-7.3,13.5-10.7,19.9-2.3-2.3-4.6-4.6-6.8-7-.5.2-.9.5-1.4.7.8,4.4,1.6,8.7,2,13.5-1.4-.4-2.7-1-3.3-2.1-3.6-6.4-7.4-12.6-10.3-19.3-3-6.9-4.9-14.3-7.5-22-5.5,11.4-10.9,22.5-16.3,33.6-.6,0-1.3.1-1.9.2-5.2-12.9-10.5-25.9-15.7-38.7,0,0-.3.5-.6,1-3.3,7.8-6.3,15.7-10,23.2-.9,2-3.9,3-5.9,4.4-1.9-10-3.8-20-5.5-30.5Z"/>
  <path class="cls-46" d="M1412.7,615.3c-4.4-6.8-1.1-12.3,3.1-17.6.1-.1.3-.2.3-.4,2.3-5.5,4.9-10.9,6.8-16.6,2.7-7.9,4.7-16,7.4-23.9,1-2.8,2.7-5.7,4.9-7.7,5-4.7,1-10.1,1.8-15.1.1-.6,0-1.3-.1-2.4,7.8.2,15.6.5,23.4,1.3,1.8.2,3.6,1.5,5.1,2.7,16.2,13.7,34.3,24,54.4,30.7,5.1,1.7,10.3,3.1,15.7,5.1-2.7,5.3-4.5,10.5-5.9,16-.8,3-3.8,5.2-4.5,9.3-1,6-5,11.5-7.6,17.3-.7,1.4-1.1,3-1.5,4.5-1.7,5.8-3.4,11.7-5.1,17.5-16.9-6.3-32.1-15.6-45.8-27.3-1.4-1.2-3.3-2.5-5.1-2.7-10-.9-20.1-1.3-30.1-2.2-4-.3-6.9.8-9.5,3.9-2.2,2.7-5,4.9-7.8,7.4Z"/>
  <path class="cls-70" d="M1511.2,636.4c1.5-6.2,3.2-12,4.9-17.8.4-1.5.8-3.1,1.5-4.5,2.6-5.8,6.6-11.3,7.6-17.3.7-4.1,3.7-6.3,4.5-9.3,1.5-5.5,3.2-10.8,6.3-15.9,14.4,1,28.8,2.9,43.2,3.5,17.8.7,35.1-3.1,52.5-7.8,0,1.8-.2,3.6-1.1,4.7-3.3,4-7.5,7.4-4.7,13.6.4.9-.1,2.8-.9,3.7-2.5,3-1.1,8.5-6.2,9.9-.4.1-.6,1.5-.7,2.2-.7,4.5-1.3,9.1-2.1,13.6-.1.8-.8,1.8-1.6,2.3-6.4,3.8-4.5,10.9-6.6,16.4-.8,2.2-1.3,4.6-1.9,6.9-.4,1.7-.6,3.5-.9,5.3-4,.7-8,1.6-12,2.1-12.8,1.5-25.7,1.5-38.4-.9-11.7-2.2-23.4-4.7-35-7.3-2.8-.6-5.5-2-8.5-3.3Z"/>
  <path class="cls-25" d="M459.8,580.5c4.8,3.5,5,5,1,9.1-2.5,2.5-5.8,4.7-2.3,8.1-4.5,12.5-7.3,25.2-15.1,36.2.5.5,1.3,1.1,2.3,2-3.7,5.4-9.2,10.4-5.7,18.5-17-1.2-33-4.8-43.3-20.3-5.2-7.8-10.4-15.6-15.5-23.5-11.4-17.3-22.8-34.6-33.8-52.4,2.7-3.9,5.2-7.3,7.5-10.8.4-.6.2-1.7,0-2.4-1.1-4.2.4-8.1,3.8-9.9,4.7-2.5,1.6-8.1,5.2-10.7.1,0-.3-.9-.4-1.4-2-5.4-1.8-5.6,3.9-6.2.8.8,1.8,1.4,2.4,2.3,8,12,16.6,23.8,23.9,36.3,8.2,14,19.9,21.7,35.6,24.6,10.2,1.9,20.1,2.5,30.6.5Z"/>
  <path class="cls-5" d="M367.3,516.5c-5.7.9-5.8,1.1-3.8,6.6.2.5.5,1.3.4,1.4-3.5,2.6-.5,8.2-5.2,10.7-3.4,1.8-4.9,5.7-3.8,9.9.2.8.4,1.9,0,2.4-2.3,3.5-4.8,6.9-7.6,10.4-7.7-10.5-14.9-21.1-22.2-31.7-1.2-1.8-2.8-3.4-3.5-5.4-2.7-7.3-7.9-8.2-14.7-6.9-8.7,1.7-17.6,3.6-26.4,3.7-8.3,0-16.5-2.2-25.1-3.6.4-1.2,1.4-2.1,1.9-3.2.9-2.1,1.8-4.4,2.3-6.6.3-1.2-.8-2.9-.3-3.8,3-5.1,3.7-11.3,8.4-15.9,2.8-2.8,3.2-8,4.4-12.2,1.1-4-.4-9,5.1-11.4.9-.4.1-4.6.1-8.4.8-1.5,2.3-4.4,3.8-7.7,10.4-1.8,20.7-3.1,31.1-4.7,3.7-.6,5.6.7,7.6,3.7,15.8,24.2,31.7,48.3,47.6,72.8Z"/>
  <path class="cls-34" d="M337,397.3c3.3-2.3,4.6-5.1,4.1-9-1.5-11.3-3-22.6-4.4-33.9-.4-2.8-.5-5.6-.5-8.7,4.7,5.9,9.1,12.2,13.5,18.4,25.3,35.6,50.5,71.2,75.8,106.8,14.5,20.4,29.1,40.8,43.6,61.3-10.4,11.1-23.1,10.8-36.4,7.5-1.4-.3-2.6-2-3.5-3.3-30.7-46.2-61.4-92.5-92.2-139.1Z"/>
  <path class="cls-68" d="M1112,164c8.6,9.4,17.3,18.8,25.8,28.9-20.1,6.7-40.1,12.8-60.1,18.7-22.1,6.6-44.2,12.9-66.2,19.5-11.6,3.5-23,7.3-34.5,10.9-8.9-9.5-17.8-18.9-26.6-29,1.6-1.5,3.1-2.6,4.8-3.1,9.7-3,19.3-5.9,29-8.8,30.5-9,61-18,91.6-26.9,12.1-3.5,24.2-6.8,36.3-10.2Z"/>
  <path class="cls-4" d="M1054.7,352.3c6.8,1.7,13.4,3.9,20.2,5.6,15.5,4,31.3,5.3,47.8,5.1-2.7,16.2-5.9,32.3-9.1,48.4-1.8,9-3.7,17.9-5.6,26.8-1.4,6.7-3.3,8.1-9.9,6.8-17.3-3.4-34.6-6.9-51.8-10.4-6.2-1.3-7.8-3.7-6.5-9.8,4.9-24.1,9.8-48.2,14.9-72.6Z"/>
  <path class="cls-16" d="M507.1,231c3.3-13,6.6-26,9.9-39.4-9.8.5-19.1,1.4-28.4,1.2-17.4-.3-13.1,1.6-15.7-14.4-.4-2.8-.4-5.7-1.1-8.4-1.3-5,1.2-6.3,5.5-7.1,30.9-5.7,61.8-11.6,92.6-17.5,7.3-1.4,8-1.1,10.2,6.2,2,7,3.9,14.1,6.2,21,1.5,4.4.3,6.7-4.2,7.5-15.2,2.8-30.4,5.8-45.6,8.7-1.1.2-2.1.6-4.5,1.3,5.7,1.5,10,2.7,14.4,3.7,3.6.8,5,2.3,3.9,6.3-3.6,13.3-6.9,26.7-10.9,40.4-6.7-.7-13-1.2-18.9-2.9-4.8-1.4-9.1-4.4-13.6-6.7Z"/>
  <path class="cls-3" d="M1605.4,645.9c-.1-1.8.1-3.6.5-5.3.5-2.3,1-4.7,1.9-6.9,2-5.5.1-12.6,6.6-16.4.7-.4,1.4-1.4,1.6-2.3.8-4.5,1.4-9,2.1-13.6.1-.8.3-2.1.7-2.2,5.1-1.4,3.7-6.9,6.2-9.9.8-.9,1.3-2.8.9-3.7-2.8-6.1,1.4-9.6,4.7-13.6.9-1.1,1.1-2.9,1.5-4.7,9.2-4,18.7-7.1,27.6-11.3,16.3-7.7,26.7-20.4,30-38.8.3,23.1,1.3,46.6.2,70-.8,17.6-9.4,31.7-25.9,40-18.4,9.3-37.6,15.6-58.4,18.8Z"/>
  <path class="cls-31" d="M1111.9,163.7c-12,3.7-24.1,7-36.2,10.5-30.5,8.9-61.1,17.9-91.6,26.9-9.7,2.9-19.4,5.8-29,8.8-1.7.5-3.2,1.6-4.9,2.8-5.2-5.2-10.1-10.7-15.8-16.9,5.1-4.6,9.7-9.4,14.9-13.4,12.1-9.2,25.2-16.3,40.3-19.8,9.6-2.2,19.1-1.8,28.6-.4,15,2.3,29.2,0,42-8.1,8-5.1,15.2-11.6,22.8-17.5.8-.6,1.6-1.1,2.9-2.1,8.7,9.7,17.3,19.3,26.1,29.1Z"/>
  <path class="cls-65" d="M1384.1,308.9c10.5-19.8,13.2-41.9,18-64.3,3.5,4,6.5,7.3,9.4,10.6.3.4.5.9.8,1.2,5.3,6,7.4,6,11.3-.9,6.5-11.4,11-23.4,12.5-36.5.1-1.1.6-2.2,1-3.3,2.7,6.9,4.9,13.9,7.9,20.3,3,6.3,6.9,12.3,11.1,19.5,10.2-11.4,15.1-23.6,19.7-37.4,1.2,3.2,1.9,5.5,3,7.5,2.3,4,4.7,8,7.3,11.7,1.6,2.3,2.7.9,3.5-1.3,1.6,15.5,3,31.2,3.9,47.3-9.2,2.8-18,5.4-26.8,7.6-13.8,3.4-27.6,6.6-41.5,9.9-.3-12.7-.6-25.4-.9-38.1-.8-.1-1.6-.3-2.3-.4-7.1,13.6-11.2,28.5-17.1,43.2-7.4,1.2-14.2,2.2-20.9,3.2Z"/>
  <path class="cls-29" d="M251.7,271.1c1.6,8.9,2.9,17.9,3.9,27.5-4.1,6.6-8.2,12.5-11.7,18.7-12.4,22.6-20.6,46.8-26.8,71.7-3.9,15.5-6.5,31.4-9.7,47.1-1.6,4.4-3.2,8.7-4.8,13.1-3.6,9.5-7.2,18.9-10.8,28.4-.6,1.5-1.2,3-1.9,4.4h-1.8c-.7-17.4-2.2-34.7-1.9-52,.5-28.1,5.1-55.5,14.6-82.1,10.6-29.7,27-55.5,50.8-76.8Z"/>
  <path class="cls-62" d="M1538,443.6c-25.3,1-50.5-.1-75.5-5.6-3.9-.9-7.7-1.9-11.9-2.9-1.1-5.1-1.8-10.2-2.1-15.7,12.6-6.6,20.6-16.9,27.8-28,2.3-3.5,4.5-7.1,6.8-10.6.2,8.9,1.6,17,6.7,24.1,16.9-14.4,25.9-33,30.4-54.3,0,11.1,4.6,18.7,14.6,23.2,11.9-11.7,17.3-26.3,20.1-40.9,4.2,7.4,8.6,15.2,13.1,23.1-29.9,7.7-47.3,47.3-37.8,72.9,1.9,5.1,5.1,9.6,7.9,14.7Z"/>
  <path class="cls-69" d="M1425.2,301.5c13.9-3.7,27.8-6.9,41.6-10.4,8.8-2.2,17.6-4.8,26.7-7.2,1.1,6.4,1.7,12.8,2.5,19.7-15.8,11.4-28.6,25.3-37.3,42.5-8.4,16.6-13.8,34.1-13.7,53.5-2.2.7-4.5,1.2-6.9,1.2-6.6.1-11-4-11.3-10.6-.3-7.3-.6-14.6-.7-22-.4-22.1-.7-44.2-1-66.8Z"/>
  <path class="cls-19" d="M1568.4,355.9c-4.9-7.9-9.3-15.7-13.5-23.1-2.8,14.6-8.2,29.2-20.1,40.9-10-4.5-14.5-12.1-14.6-23.2-4.5,21.3-13.5,39.8-30.4,54.3-5.1-7.2-6.5-15.3-6.7-24.1-2.3,3.5-4.5,7.1-6.8,10.6-7.2,11.2-15.2,21.4-27.8,27.6-.4-5.9-.6-12-.8-18.4,16.2-9.4,26.1-24.1,34.8-39.3,1.8,7.8,3.7,15.8,5.8,24.7,18.2-15.3,27.3-33.7,31.8-55.1.4,10.6,4.7,18.4,14.2,22.8,9.1-7.2,14.1-17.2,21.1-42,2.1,5,3.7,10.1,6.2,14.6,2.5,4.6,5.9,8.7,9,13,13.5-6.6,21-17.6,28.2-30.9,1.5,11.1,3,21,9.4,29.4,10.6-6.1,18-15.2,25.3-24.7.3-.1.3-.1.3-.1-.7,7.1-1.4,14.2-2.4,21.9-6.6,9.4-13.9,17.2-23.5,23.1-6.2-8.8-8-18.5-8.8-28-6.6,8.1-13,16.1-19.4,24-3.7.6-7.4,1.3-11.6,1.9Z"/>
  <path class="cls-38" d="M1221.6,127.8v-32.1c-6.5,0-12.1,0-17.7,0q-10,0-10-10.3c0-4.2.2-8.3,0-12.5-.1-4,1.5-5.8,5.6-5.7,25.5.4,51,.7,76.5.9,3.6,0,5,1.7,4.9,5.3-.2,5.8-.2,11.7,0,17.5.2,4.2-1.7,5.5-5.7,5.4-7-.2-14,0-21.5,0,0,11.1,0,22-.5,33.4-11.1,2.4-21.5,1.3-31.7-1.7Z"/>
  <path class="cls-65" d="M1217.2,276.3c2.1-1.8,5-2.8,5.9-4.8,3.7-7.6,6.7-15.5,10-23.2.2-.6.6-1.1.6-1,5.2,12.8,10.4,25.7,15.7,38.7.6,0,1.3-.1,1.9-.2,5.4-11.1,10.8-22.2,16.3-33.6,2.6,7.7,4.5,15.1,7.5,22,2.9,6.7,6.7,13,10.3,19.3.6,1,1.9,1.7,3.3,2.5,2.3,7.4,4.2,14.8,6.1,22.6-22.9.7-45.8,1.1-69.1,1.4-3.1-14.4-5.8-28.9-8.4-43.7Z"/>
  <path class="cls-10" d="M1221.4,128.2c10.5,2.7,20.9,3.8,31.9,1.9.6,2.6.7,5.2.8,6.9,11.1,0,21.9.2,32.6-.1,4.8-.2,6.7,1.5,6.9,6.1.3,5.6.8,11.3,1.3,16.9.3,3.6-1.2,5.1-4.8,5.3-15.1.8-30.2,1.8-45.3,2.7-16.6,1-33.2,1.8-49.8,2.8-5.3.3-6.6-.7-6.9-5.9-.4-5.8-.8-11.6-1.4-17.4-.3-3.4.4-5.3,4.4-5.4,9.8-.3,19.6-.9,30.1-1.4,0-3.9,0-8,.3-12.4Z"/>
  <path class="cls-16" d="M359,88.9c8.1-6,16.1-12.2,24.5-17.9,5.3-3.6,10.8-1.4,15.5,1.7,10.1,6.7,20.5,13.2,29.6,21.2,14.4,12.8,27.9,26.7,41.4,40.5-15.2,1.2-29.9.2-44.4-3.7-1.1-.3-2.3.2-3.5.3-7.3-6-14.3-12.4-21.9-17.9-8.8-6.3-6.3-5.8-15.8-.6-5.5-4.4-10.8-8.4-15.6-12.8-3.6-3.3-6.5-7.2-9.7-10.8Z"/>
  <path class="cls-23" d="M977.1,242.3c11.3-3.9,22.8-7.8,34.4-11.2,22-6.6,44.2-12.9,66.2-19.5,20-6,39.9-12.1,60.1-18.4,4.8,4.5,9.4,9.4,13.6,14.5-1.6.5-3,.4-4.2.8-23.4,6.9-46.7,13.8-70.1,20.6-29.4,8.7-58.8,17.3-88.2,25.9-3.9-4.1-7.7-8.3-11.7-12.7Z"/>
  <path class="cls-49" d="M684.8,219.3c-6.2-10.6-12.3-21.2-18.4-31.8-3.5-6.1-3.4-6.3,3-8.7,5.3-2,10.6-4,16.2-6.1-3.7-6.2-6.3-12.7-3.5-19.5,1.8-4.3,4.3-8.7,7.7-11.8,7.2-6.5,18.4-6.6,26.4-1.1,8,5.5,11.6,15.8,8.7,25.1-3.3,10.6-11.9,15.7-26.5,15.5,6.7,8.7,13.3,17.4,19.6,26.5-10.4,3.5-20.5,6.6-30.6,9.8-1,.3-1.7,1.4-2.6,2.1M696.1,156.1c-.9,3.9-.3,7.7,3.6,9.2,2.4.9,6.2.8,8.1-.6,1.9-1.4,3.3-5.2,2.8-7.5-.5-2.3-3.3-4.9-5.7-5.9-3.6-1.4-6.6.8-8.9,4.8Z"/>
  <path class="cls-44" d="M1326.2,126c0-20.2,0-40.3,0-60.5,0-3.9,1.6-5.6,5.7-5.8,8.1-.4,16.3-1.3,24.4-2.2,4.1-.5,5.8.8,5.6,5.2-1,19.3-1.7,38.6-2.5,57.9,0,1.9,0,3.8,0,6.6,5.1-1.4,9.3-2.3,13.3-3.7,3.9-1.4,6.3-.6,7.9,3.3,1.2,2.9,2.9,5.6,3.9,8.8-7.2.1-14.1.8-20.7-.5-12.6-2.5-25-6-37.5-9.2Z"/>
  <path class="cls-66" d="M988.9,255.4c29.3-9,58.7-17.6,88.2-26.3,23.4-6.9,46.7-13.8,70.1-20.6,1.2-.4,2.6-.3,4.3-.4,1.6,1.1,3,2.1,4.1,3.2,5.4,5.4,5.4,6-.6,11.5-2.2,0-3.9-.2-5.3.2-24.1,7.1-48.1,14.2-72.1,21.4-1.4.4-2.4,1.8-3.6,2.7-25,0-45.7,9.3-61.5,28.8-1.3,1.6-2.7,3.4-4.8,1-6.3-7-12.4-14.1-18.8-21.5Z"/>
  <path class="cls-10" d="M1383.9,309.2c6.9-1.3,13.6-2.3,20.8-3.2-4.5,14.3-9.2,28.6-14.7,42.6-1.2,3.1-5.4,6.2-8.8,7.1-9.5,2.4-19.2,3.7-28.9,5.2-5.1.8-8.5-2-11.2-5.9-8.6-12.4-17.3-24.9-25.5-37.6,3.4-.7,6.5-1,9.6-1.3.8,1.2,1.7,2.4,3.3,4.7,2.1-4.2,3.6-7.1,5.4-10.7,2.2,4.2,4,8.2,6.2,11.8,2.8,4.4,6,8.7,9.2,12.8,2.6,3.3,5.3,3.8,7.6-.4,4.1-7.5,8.1-15.1,12.6-23,2.8-.7,5.2-1,7.5-1.3,1.3,1,2.6,1.9,4.3,3.2.9-1.3,1.7-2.5,2.6-3.9Z"/>
  <path class="cls-58" d="M469.4,532c-14.8-20.3-29.4-40.7-43.9-61.1-25.3-35.6-50.5-71.2-75.8-106.8-4.4-6.2-8.8-12.5-13.5-18.8-.3-.1-.3-.2-.3-.4-.2-.5-.3-.7-.6-.9-.5-4-1-8-1.1-12.3,5.5,3.9,10.7,8.2,15.9,12.7.6,1.4.9,2.5,1.6,3.5,8,11.2,16.1,22.3,24.1,33.5,29.2,41.3,58.4,82.6,87.6,123.9,4,5.7,8.4,11.1,12.6,16.6-2,3.3-4.1,6.6-6.4,10.1Z"/>
  <path class="cls-16" d="M757.9,195c.3-3,.8-5.9.9-8.9.1-4.3,2.5-5.3,6.3-4.9,30.6,3.9,61.3,7.8,92,11.5,4.7.6,6.5,2.3,5.4,7.1-.8,3.7-.9,7.6-1.9,11.7-2.2.5-3.8.6-5.5.9-19.9,3.5-39.6,3.6-59.4-1-13.7-3.2-25.7-10-37.8-16.6Z"/>
  <path class="cls-14" d="M207.8,436.1c2.9-15.6,5.5-31.5,9.4-47.1,6.2-24.8,14.3-49.1,26.8-71.7,3.4-6.2,7.6-12.1,11.6-18.3,2.4,15.2,4.4,30.6,6.5,46.4-6.9,9.8-14.6,18.6-20.3,28.6-10.9,18.8-20.6,38.2-30.9,57.3-.8,1.6-1.8,3.1-3.1,4.7Z"/>
  <path class="cls-59" d="M1629.7,232.9c2-6,4.2-11.9,6.1-17.9,1.2-3.7,3.2-4.5,6.8-3.3,29.4,10.3,58.9,20.5,88.4,30.6,3.7,1.3,5.2,3.3,3,7.4-4.8.6-9,1.2-13.1,1.2-9.3-.1-18.6-.5-27.9-.9-14.8-.6-29.3-3.4-43.2-8.6-6.8-2.5-13.4-5.7-20.1-8.6Z"/>
  <path class="cls-60" d="M476,521.6c-4.4-5.2-8.7-10.6-12.7-16.3-29.2-41.3-58.4-82.6-87.6-123.9-7.9-11.2-16.1-22.4-24.1-33.5-.7-.9-1-2.1-1.2-3.5,2.4-.7,4.4-1,6.4-1.4,17.3,23.2,34.5,46.4,51.8,69.6,22.3,29.8,44.5,59.7,67.1,89.3,3.9,5.2,5.1,9.6,2.3,15.3-.7,1.3-1.2,2.7-2,4.4Z"/>
  <path class="cls-1" d="M1613.6,243.1c0,4,.1,8,.2,12,0,3.3-1.5,4.6-4.8,5.1-30.6,4.7-61,3.4-91.2-3.1-3.3-.7-4.9-2.4-4.7-5.8.2-4.5.1-9,.8-13.8,19.7,5.3,39.1,8.1,59,7.6,13.6-.3,27.1-1.2,40.7-1.9Z"/>
  <path class="cls-64" d="M1326.1,126.5c12.6,2.7,25,6.2,37.6,8.7,6.6,1.3,13.6.6,20.8.8,5.4,7.5,5.1,9.1-2.2,13.9-14.2,9.3-30,14.7-46.4,18.8-5.9,1.5-10-1.9-10.1-8.3,0-11.2,0-22.3.2-33.9Z"/>
  <path class="cls-32" d="M1613.7,242.6c-13.6,1.1-27.2,2-40.8,2.3-19.8.4-39.3-2.4-58.7-8-.4-2.7-.4-5.4-.4-8,0-5.9.5-6.4,6.3-5.8,12.9,1.4,25.8,3.1,38.7,4,15.8,1.2,31.6,1.9,47.4,2.5,7.7.3,7.7.1,7.7,7.9,0,1.5,0,3,0,5Z"/>
  <path class="cls-15" d="M425.3,77.5c-6.5-14-1.3-28.4,11.7-33.6,12.9-5.1,27,1.4,31.4,14.6,3.7,11.2-1.4,23.3-12.1,28.6-11,5.5-23.6,1.7-31-9.6M448.8,58.2c-3.9-1-7.8-.5-9.5,3.2-1.1,2.5-1.3,6.4,0,8.7,1.1,2,4.7,3.4,7.3,3.7,3.7.4,6.2-2.2,7.2-5.7,1.1-4.2-.4-7.5-5-10Z"/>
  <path class="cls-16" d="M595.7,210.8c10.5-10.1,21.1-20.2,31.5-30.5,2.8-2.7,5.1-3,8.3-.7,4.7,3.4,9.6,6.6,14.7,9.4,4.5,2.6,4.7,5.6,1.9,9.4-6.8,8.8-13.6,17.6-21.2,26.5-14-.3-25.1-6-35.2-14.1Z"/>
  <path class="cls-13" d="M1201.6,542.2c7.7,12.1,15.1,24.1,22.3,36.3,1.2,1.9,2,4.1,3,6.5-13.5,2.2-26.9,4.1-40.4,6-4.5.6-8.4-.3-10.6-4.6-2.2-4.1-1.2-7.9,1.5-11.6,8-10.8,15.9-21.7,24.1-32.6Z"/>
  <path class="cls-48" d="M1629.5,233.1c7,2.6,13.6,5.7,20.4,8.3,13.9,5.2,28.3,8,43.2,8.6,9.3.4,18.6.8,27.9.9,4.1,0,8.2-.6,12.8-.9-1.9,7.1-4.1,14.2-6.5,21.2-1.4,3.9-4.2,2.7-7,1.8-23.8-8.2-47.6-16.4-71.5-24.5-4.9-1.7-9.7-3.3-14.6-5-6.9-2.4-7.2-3-4.7-10.4Z"/>
  <path class="cls-28" d="M967,564.3c12.1,0,23.8,0,35.4,0,4.6,0,8.3,1.6,9.4,6.4,1.2,5.2-2.6,9.5-8.6,9.5-15.6.1-31.3,0-46.9,0-5.2,0-10.3,0-15.5-.1-5.2-.2-8.6-3.3-8.7-7.7-.1-4.5,3.6-8.1,8.9-8.2,8.5,0,17,0,26,.1Z"/>
  <path class="cls-11" d="M835.6,433.4c-5.4,3.5-10.4,7.4-15.9,9.7-14.7,6.1-29.6,11.6-44.5,17.3-1.1.4-2.2.7-3.4.8-4.9.6-8.5-1.7-9.5-6-.9-3.9,1.3-7.7,5.7-9.2,7.7-2.6,15.7-4.5,23.2-7.7,11.1-4.7,22-10.2,32.8-15.6,3.6-1.8,7-2.3,10.2.5,3.1,2.8,3.6,6.2,1.5,10.3Z"/>
  <path class="cls-11" d="M878.1,578.6c-22.4-.8-44.3-1.6-66.3-2.6-4.4-.2-7.5-3.9-7.5-7.9,0-4.1,3.5-7.9,8.1-7.9,5.8,0,11.6.6,17.5.9,15,.6,30,1.3,44.9,1.8,4.5.1,8,1.6,9.1,6.2,1,4.5-1,7.8-5.7,9.6Z"/>
  <path class="cls-11" d="M1139.7,563.7c-1.2,4.9-4.2,6.9-8.6,7.3-20.1,2.2-40.3,4.4-60.4,6.6-5.5.6-9.7-2.3-10.4-7-.6-4.6,2.7-8.2,8.5-8.9,20.1-2.3,40.3-4.5,60.4-6.7,6.6-.7,9.3,1.5,10.5,8.6Z"/>
  <path class="cls-11" d="M656.3,129.2c3.5-.7,6.9-2.1,9.7-1.4,2,.6,4.6,4.3,4.4,6.3-.3,2.8-2.4,6.1-4.7,8-11,9.1-22.4,17.8-33.4,26.9-4,3.3-7.2,7.4-10.8,11.1-4.5,4.6-8.9,5.2-12.6,1.7-3.5-3.4-3.4-7.9.7-12.4,13.8-15.3,29-28.9,46.8-40.2Z"/>
  <path class="cls-11" d="M699.8,557.2c-5.3-1.6-10.3-3-15.1-4.8-4.9-1.8-6.9-6-5.4-10.3,1.4-4.1,5.7-6,10.7-4.8,19.8,5,39.5,10,59.3,14.9,5,1.2,8,4.9,7.4,9.1-.7,4.7-4.4,7.8-9.9,6.6-15.6-3.2-31-7.1-46.9-10.7Z"/>
  <path class="cls-11" d="M861.4,113.6c16.8,8.2,31.3,18.9,42.9,33.2,1.7,2.2,2.8,5.9,2.3,8.5-.4,2.1-3.6,5.1-5.7,5.2-2.8,0-6.6-1.5-8.5-3.6-9.5-10.5-20-19.4-32.5-26.1-4.5-2.4-9.2-4.5-13.9-6.7-5.3-2.5-7.4-6.7-5.4-11.1,1.9-4.2,6.3-5.7,11.4-3.7,3.1,1.2,6.1,2.7,9.4,4.3Z"/>
  <path class="cls-11" d="M928.3,203.2c2.1,2.4,4.8,4.5,5.4,7.1,4.9,20.9,6.8,42,4.5,63.4-.6,5.9-4.1,8.9-9.1,8.2-4.6-.6-7.4-4.5-6.8-10,1.9-19.4.3-38.6-4-57.5-1.8-7.9,1.6-11.9,10-11.3Z"/>
  <path class="cls-57" d="M425.5,378.3c10.7,6,21,11.9,31.4,17.8,2,1.1,4.2,2,6.2,3.2,3.8,2.4,5,6.6,3.1,10.3-1.9,3.8-5.9,5.5-10.1,3.7-5.9-2.6-11.6-5.8-17.3-8.7-2.9-1.5-5.9-3-9.2-4.7-10-6.1-19.5-12.1-29.1-18.1-3.4-2.1-5.8-5.3-4.3-9.1,1-2.5,3.8-5,6.4-6,1.8-.7,4.8.7,6.9,1.9,5.3,3,10.5,6.4,16,9.8Z"/>
  <path class="cls-11" d="M564.5,279.5c-1,3.2-1.8,6.1-2.6,9-1.6,5.3-5.2,7.7-10,6.6-4.5-1-7.2-5.4-5.4-10.6,5.2-15,10.7-30,16.4-44.8,1.9-4.9,4.6-9.6,7.2-14.2,2.9-5.1,7.4-6.5,11.6-4,3.9,2.4,4.5,6.7,2.3,11.8-6.6,15.2-12.9,30.5-19.5,46.1Z"/>
  <path class="cls-11" d="M788,111.5c-9.5.5-18.7.4-27.8,1.4-10.7,1.1-21.4,3.1-32,4.7-1.5.2-2.9.7-4.4.9-4.6.7-8.6-1.8-9.6-6-1-4.2,1.4-8.5,6.1-9.4,10.9-2.2,21.8-4.6,32.9-5.8,10.2-1.1,20.6-.9,30.9-1.2,4.2-.1,7.7,1.5,8.8,5.9,1.1,4.2-.4,7.5-4.9,9.6Z"/>
  <path class="cls-55" d="M658.6,451.2c12.7.5,24.9,1.1,37.2,1.6,3.5.1,7,0,10.5,0,4.8.2,8.1,3.2,8.4,7.5.2,4.4-3.1,8.2-8.1,8.4-8.5.3-16.9.1-25.4,0-6.5-.1-12.9-.6-19.9-.8-6.4-.6-12.4-1.1-18.3-1.8-5.5-.7-8.5-4.1-8-8.8.5-4.6,4.4-7.5,9.7-7,4.5.3,8.9.8,13.9,1Z"/>
  <path class="cls-7" d="M583.2,482.1c-1.9-2.5-3.6-4.7-5-7.1-2.3-4-1.3-8.5,2.3-10.9,3.4-2.2,7.6-1.6,10.6,1.8,1.4,1.6,2.7,3.3,4.3,5.1,9.3,13.1,20.9,23.6,33.2,33.4,2.1,1.7,4.3,3.1,6.3,4.9,3.5,3.2,4,7.2,1.6,10.7-2.5,3.5-7.3,4.6-11.1,1.8-6.9-5.2-13.9-10.4-20.1-16.3-7.7-7.4-14.6-15.5-22.1-23.5Z"/>
  <path class="cls-55" d="M357,342.7c-2.2.6-4.2,1-6.6,1.3-5.6-4.2-10.7-8.5-16.2-12.8-11.2-10.3-22.2-20.4-32.8-30.9-2.1-2.1-4-5.8-3.8-8.6.5-6.7,8.3-8.9,13.6-4,6.6,6.1,12.9,12.5,19.4,18.6,3.5,3.3,7.2,6.4,11.1,9.7,5.7,4.8,11.2,9.6,16.8,14.5,2.2,4.4,2.6,8.4-1.5,12.2Z"/>
  <path class="cls-44" d="M1396.6,135.1c-4.7-5.1-9.5-10.2-14.1-15.4-3.9-4.4-3.6-5.7,1.1-9,4.9-3.4,9.9-6.7,14.8-10.1,3.4-2.4,6.7-2.7,10.1,0,7.5,6,15.2,11.8,22.5,18,2.1,1.7,3.4,4.4,4.7,7.1-13.3,3.4-26.2,6.4-39,9.5Z"/>
  <path class="cls-38" d="M1540.3,169.6c6.4,0,10.1,2.5,11.2,8.7,1.2,6.9,3.1,13.6,4.2,20.5,1.1,6.9-.8,8.9-7.6,8.3-7.3-.6-14.6-1.4-21.8-2.2-2.5-.3-4.4-1.1-4.5-4.2-.4-9.1-.9-18.3-1.5-27.4-.3-4.6,1.5-6.3,6.2-5.5,4.4.8,8.9,1.1,13.8,1.7Z"/>
  <path class="cls-38" d="M1597.8,173.3c1.9,4.6,3.8,8.9,5.2,13.3,1.1,3.5-.3,5.6-4.2,6.3-7.2,1.2-14.4,2.6-21.5,4.1-3.6.7-5.9,0-7.1-3.9-2.6-8.6-5.5-17-8.5-25.5-1.3-3.9,0-5.5,3.9-6.1,6.1-.9,12.1-2.2,18.2-2.8,1.9-.2,4.7.9,5.9,2.4,3,3.7,5.4,8,8.2,12.3Z"/>
  <path class="cls-61" d="M757.7,195.3c12.4,6.2,24.4,13,38,16.2,19.8,4.6,39.5,4.5,59.4,1,1.6-.3,3.3-.4,5.4-.5-1.2,14.4.9,13.9-13.4,12.1-28.5-3.6-57.1-6.9-85.6-10.3-4.3-.5-6.3-2.4-5.5-6.9.7-3.8,1-7.6,1.7-11.7Z"/>
  <path class="cls-40" d="M1074.4,247.2c.8-1.1,1.9-2.5,3.2-2.9,24-7.2,48.1-14.3,72.1-21.4,1.5-.4,3.1-.1,5.1,0-13.2,14.4-29,23.9-49,26.4-10.7,1.3-20.7-.8-31.4-2.1Z"/>
  <path class="cls-30" d="M1580.4,354.1c6-8,12.4-16,18.9-24.1.8,9.6,2.6,19.3,8.8,28,9.6-5.9,16.8-13.7,23.4-22.7.3,5.8.4,11.7.5,18.6,0,7.4-.1,13.9-.2,20.4-11.5-8.6-23.8-15.8-38.2-18.5-4.2-.8-8.6-1.1-13.3-1.7Z"/>
  <path class="cls-35" d="M358.6,89c3.6,3.5,6.5,7.5,10.1,10.7,4.8,4.4,10.1,8.3,15.2,12.8-6.8,3.6-13.7,6.8-20.6,10-3.6,1.7-6.4,1-8.4-2.6-3-5.3-6.1-10.6-9.1-15.9-1.7-3-1.2-5.7,1.8-7.7,3.6-2.4,7.1-4.8,11-7.3Z"/>
  <path class="cls-35" d="M507,231.4c4.6,1.9,8.9,4.9,13.7,6.3,5.9,1.8,12.2,2.2,18.8,3.3-.9,5.7-2.3,11.3-3.6,16.9-.6,2.8-2.3,3.9-5.1,3.2-8.7-2.2-17.3-4.3-26-6.6-2.9-.8-3.3-2.9-2.6-5.5,1.5-5.8,3-11.5,4.7-17.6Z"/>
  <path class="cls-35" d="M684.9,219.6c.8-1,1.5-2.1,2.5-2.4,10.1-3.2,20.2-6.3,30.7-9.5,2.3,3.4,4.4,6.8,6.2,10.2,1.5,2.9.5,5-2.5,6.3-7.4,3.3-14.7,6.8-22,10.2-3.4,1.6-5.9.9-7.8-2.5-2.2-4.1-4.6-8-7-12.3Z"/>
  <path class="cls-39" d="M422.2,131.3c1-.4,2.2-.9,3.3-.6,14.4,3.9,29.1,4.9,44.5,4,.3,1.5.7,3.6-.1,4.7-4.5,6-9.3,11.7-14,17.6-2.4,3-4.3,2-6.6-.2-8.9-8.5-17.9-16.9-27.1-25.6Z"/>
  <path class="cls-39" d="M595.4,210.9c10.4,8,21.5,13.6,35.2,14.1-4.2,4.4-8.8,8.9-13.7,13.1-3.4,2.9-6.8,2.4-10.2-.6-5-4.3-10.3-8.4-15.4-12.6-5.4-4.4-5.4-5.8-.4-10.4,1.4-1.2,2.8-2.4,4.4-3.7Z"/>
  <path class="cls-30" d="M1325.1,315.6c-3,.7-6.1,1-9.6,1.4-7.1-9.4-13.8-18.7-20.5-28.4,3.4-6.7,6.8-13.1,10.6-20.3,3.8,17.1,11.8,31.9,19.5,47.3Z"/>
  <path class="cls-12" d="M1632,374.6c-.1-6.8,0-13.2,0-20.2.9,2.8,1.7,6.1,2.6,9.7,10.8-3.4,18.3-10.9,26.3-19.7-.4,7.7-.7,14.2-1.3,21.2-6.9,6-13.4,11.3-20,16.7-2.5-2.5-5-5-7.6-7.7Z"/>
  <path class="cls-50" d="M201.6,265.2c-1.1-7.8-2.3-15.6-2.4-23.5-.3-21.3-.2-42.6-.1-64.3,2.1,13,4,26.4,5.9,39.8,1.5,10.8,2.5,21.7,4.4,32.5.8,4.6.2,8-3.5,10.9-1.5,1.2-2.6,3-4.2,4.6Z"/>
  <path class="cls-21" d="M1396.7,135.4c12.7-3.4,25.6-6.4,38.9-9.4-.4,1.6-.7,3.8-2,4.8-6.7,5.2-13.7,10-20.5,15-3,2.2-5.3,1.9-7.7-.9-2.7-3.1-5.7-6.1-8.6-9.5Z"/>
  <path class="cls-61" d="M951,413.3c12.3-2.2,24.7-4,37.1-5.8,1.8-.3,3.6-.1,5.6.1-8.9,5.3-17.9,10.4-27,15.3-3.7,2-7,1.4-9.7-2-2-2.5-4-4.9-6-7.6Z"/>
  <path class="cls-33" d="M509.7,70.2c.2,15,.3,30.4.3,46.2-1.3,0-3.2.2-3.9-.7-3-3.7-5.6-7.8-8.7-12.2,6.7-9.6,11-20.7,12.2-33.3Z"/>
  <path class="cls-71" d="M1639.9,382.6c6.3-5.7,12.9-11,19.7-16.5.3,1.7.4,3.6.4,5.9-2.8,3.6-5.5,6.9-8.4,10-3.8,4.1-6.9,4.3-11.8.6Z"/>
  <path class="cls-18" d="M1153.5,121c-.3-10.4-.3-21,0-31.8,1.4,6.2,1.7,13,4,19,1.7,4.5,1.4,7.3-1.9,10.3-.7.7-1.2,1.5-2.2,2.5Z"/>
  <path class="cls-54" d="M448.5,247.4c-.4-5.1-.5-10.4-.5-16.2,1.6,0,3.2.3,5.1.9-1.5,5.2-2.9,10.2-4.6,15.4Z"/>
  <path class="cls-19" d="M1211.2,244.2c.3-.1.5,0,.7.6-.2,0-.5-.1-.7-.6Z"/>
  <path class="cls-46" d="M1409.3,619c.5-1.2,1.4-2.5,2.6-3.7-.5,1.2-1.4,2.4-2.6,3.7Z"/>
  <path class="cls-27" d="M742.7,381.9c-6-.6-11.7-.9-17.2-1.9-1.3-.2-3.1-2.4-3.2-3.8-1.6-16.7-2.8-33.5-4.5-50.2-.3-3.3.8-4.6,3.7-5.8,16.6-6.4,33.6-2.5,43,9.9,16.4,21.7,5.5,48.2-21.7,51.9Z"/>
  <path class="cls-26" d="M335.7,275.2c-9.7-.9-9.8-.9-11.2-10.3-.8-4.9-1.2-9.8-1.3-15.2,16.9-5.2,33.6-7.8,50.7-7.8,1,18.9-10.1,31.4-29.2,33.1-2.8.2-5.6.1-8.9.3Z"/>
  <path class="cls-43" d="M373.9,241.5c-17.2.4-33.9,3.1-50.7,7.8-1.3-5.7-2.2-11.5-2.6-17.7,15.6-3.6,30.7-6.7,45.8-9.9,5.2,5.4,6.9,12.2,7.5,19.8Z"/>
  <path class="cls-6" d="M366.3,221.4c-15,3.4-30.2,6.5-45.7,9.7-1.1-5.6-1.8-11.2-2.5-17.3,10.7-4.4,21.4-6.8,32.6-3,6.1,2,11.5,5.1,15.6,10.6Z"/>
  <path class="cls-34" d="M335.3,344.2c.3,0,.5.1.6.6-.3.1-.5,0-.6-.6Z"/>
  <path class="cls-27" d="M539.6,381.6c-1.5,9.3-3,18.6-4.5,28-24.8,6.2-43.6-7.1-43-31.1,1.6-8,4.2-15,9.6-20.8,9.8-10.3,22.5-11.7,35.9-3.1.9,9.4,1.5,18.2,2,27Z"/>
  <path class="cls-47" d="M539.7,382c-.6-9.2-1.1-18-1.7-27.2,0-.8,0-1.1,0-1.4.3-7,2.9-10.3,8-10.3,5.3,0,7.6,3.6,8.1,10.8.8,10.9,2.3,21.7,3.6,32.8,2,8.2,3.8,16.1,5.7,24,1.3,5.3-.6,9.3-5.2,10.7-4.3,1.3-8.1-.9-10-5.8-.2-.6-.4-1.3-.5-1.9-1.9-7.7-3.8-15.4-5.7-23.1-.7-2.7-1.5-5.4-2.3-8.5Z"/>
  <path class="cls-19" d="M1634,313c.1-.4.2-.8.4-1.3,0,.4,0,.7-.2,1.2-.2,0-.2,0-.2,0Z"/>
  <path class="cls-17" d="M511.5,435.3c-2.1-3.8-2.1-7.6,1.1-9.7,2.4-1.6,6.3-2.3,9.1-1.6,19.6,5.1,39,10.8,58.5,16.2,5.3,1.5,8.1,5.1,7.1,9.7-1,4.7-4.9,7.5-10.3,6-20.3-5.5-40.6-11.3-60.8-17.2-1.6-.5-3-2-4.6-3.4Z"/>
  <path class="cls-55" d="M910.2,328.8c4-1.6,7.8-1.3,9.6,2.2,1.3,2.4,1.8,6.3.7,8.7-8.6,19.5-20.3,37-34.7,52.8-1.8,2-4.6,3.9-7,4-2.3,0-6-1.8-6.8-3.7-1-2.6-.8-6.8.7-9.1,4.2-6.3,9.9-11.7,14.1-18.1,6.5-10,12.3-20.5,18.5-30.8,1.3-2.1,3-3.9,4.9-6Z"/>
  <path class="cls-63" d="M1376.9,309.7c-2.2.6-4.6,1-7.4,1.3.6-3.1,1.5-6.3,2.7-10.1,1.8,3.4,3.2,6,4.7,8.9Z"/>
  <path class="cls-42" d="M696.3,155.8c2.2-3.6,5.2-5.9,8.8-4.4,2.4,1,5.2,3.6,5.7,5.9.5,2.3-1,6.1-2.8,7.5-1.9,1.4-5.7,1.5-8.1.6-3.9-1.5-4.5-5.3-3.5-9.6Z"/>
  <path class="cls-20" d="M449.2,58.3c4.2,2.3,5.7,5.6,4.6,9.8-.9,3.5-3.5,6.1-7.2,5.7-2.6-.3-6.2-1.7-7.3-3.7-1.3-2.3-1.1-6.2,0-8.7,1.7-3.8,5.6-4.2,9.9-3.1Z"/>
</svg>