<?xml version="1.0" encoding="UTF-8"?>
<svg id="Layer_1" data-name="Layer 1" xmlns="http://www.w3.org/2000/svg" version="1.1" viewBox="0 0 1920 885">
  <defs>
    <style>
      .cls-1 {
        fill: #205374;
      }

      .cls-1, .cls-2, .cls-3, .cls-4, .cls-5, .cls-6, .cls-7, .cls-8, .cls-9, .cls-10, .cls-11, .cls-12, .cls-13, .cls-14, .cls-15, .cls-16, .cls-17, .cls-18, .cls-19, .cls-20, .cls-21, .cls-22, .cls-23, .cls-24, .cls-25, .cls-26, .cls-27, .cls-28, .cls-29, .cls-30, .cls-31, .cls-32, .cls-33, .cls-34, .cls-35, .cls-36, .cls-37, .cls-38, .cls-39, .cls-40, .cls-41, .cls-42, .cls-43, .cls-44, .cls-45, .cls-46 {
        stroke-width: 0px;
      }

      .cls-2 {
        fill: #316b95;
      }

      .cls-3 {
        fill: #feffff;
      }

      .cls-4 {
        fill: #346d96;
      }

      .cls-5 {
        fill: #69fdef;
      }

      .cls-6 {
        fill: #eef2f5;
      }

      .cls-7 {
        fill: #fcfdfe;
      }

      .cls-8 {
        fill: #316d96;
      }

      .cls-9 {
        fill: #215576;
      }

      .cls-10 {
        fill: #fcfefe;
      }

      .cls-11 {
        fill: #316e96;
      }

      .cls-12 {
        fill: #434244;
      }

      .cls-13 {
        fill: #62efe4;
      }

      .cls-14 {
        fill: #205073;
      }

      .cls-15 {
        fill: #6bfff0;
      }

      .cls-16 {
        fill: #488dbf;
      }

      .cls-17 {
        fill: #4a8ec0;
      }

      .cls-18 {
        fill: #66d6fd;
      }

      .cls-19 {
        fill: #316b94;
      }

      .cls-20 {
        fill: #366e97;
      }

      .cls-21 {
        fill: #215676;
      }

      .cls-22 {
        fill: #65d3fa;
      }

      .cls-23 {
        fill: #6bfdef;
      }

      .cls-24 {
        fill: #6cfff0;
      }

      .cls-25 {
        fill: #fefeff;
      }

      .cls-26 {
        fill: #225174;
      }

      .cls-27 {
        fill: #215475;
      }

      .cls-28 {
        fill: #225877;
      }

      .cls-29 {
        fill: #fbfcfd;
      }

      .cls-30 {
        fill: #356d96;
      }

      .cls-31 {
        fill: #6bfef0;
      }

      .cls-32 {
        fill: #66d7fd;
      }

      .cls-33 {
        fill: #fdfefe;
      }

      .cls-34 {
        fill: #336c95;
      }

      .cls-35 {
        fill: #1f5073;
      }

      .cls-36 {
        fill: #326b95;
      }

      .cls-37 {
        fill: #225777;
      }

      .cls-38 {
        fill: #498ec0;
      }

      .cls-39 {
        fill: #326c95;
      }

      .cls-40 {
        fill: #1f4f72;
      }

      .cls-41 {
        fill: #488cbf;
      }

      .cls-42 {
        fill: #488ec0;
      }

      .cls-43 {
        fill: #4b8fc0;
      }

      .cls-44 {
        fill: #215173;
      }

      .cls-45 {
        fill: #fefefe;
      }

      .cls-46 {
        fill: #fdfeff;
      }
    </style>
  </defs>
  <path class="cls-25" d="M419.5,1c3,0,6.1,0,9.2.4,3.3.9,6.5,1.3,9.6,2,5,1.1,9.9,3.2,15,3.4,9.2.5,17.6,2.9,24.8,8.4,12.7,9.9,21.3,22.8,25.5,38.5.3,1.2,1.7,3,2.7,3.2,9.3,1.2,17.2,5.2,24.1,11.4.9.8,2.2,1.5,3.3,1.6,6,.8,11.9,1.3,17.9,2.1,15.4,2.1,26.4,10.7,35.4,22.8,2.1,2.8,4.3,5.9,8.6,6.2,13.3,1,26.5,2.3,39.5,3.4-1.5-11.4-.9-22.6,1.9-33.6,4.2-16.3,13.2-29.5,26.2-40.3,16.3-13.5,35.1-21.1,55.8-23.4,18.3-2,36,2,52.4,10.3,22,11.1,38.2,28.2,50.7,49.3.8-1.8,1.7-3.5,2.2-5.3,6.3-22.1,31.2-35.2,53.7-28.8,24,6.8,48.3,12.2,72.4,18.4,19.8,5.1,33.3,16.4,36.1,37.9.1,1.1,1.1,2.6,2,3,12.7,5,23,13.7,33.8,21.9.4-.8.7-1.7,1.1-2.5,1.7-4.3,3-8.8,5.1-12.8,5.2-10.1,14.9-15,24.7-19.3,3.3-1.5,6.1-2.7,7.8-6.2,1.1-2.3,3-4.3,4.9-6,5.3-4.9,10.8-9.5,16.2-14.3,12.3-11,26.3-16.3,43-12.8,1.3.3,2.9-.3,4.1-.9,10-5.5,20.8-6.9,32-7,3.7,0,7.5.7,11-.2,9.6-2.3,18.3,0,27,3.5,7.4,3,12.3,9,18.2,13.9,6.1,5.2,10.5,11.2,13.6,18.7.9,0,2.1-.1,3.2,0,1.1.2,2.1.6,3.2,1,20.7,6.8,37.1,19.7,50.5,36.6,1.9,2.4,3.6,2.8,5.7,2.3,11.6-2.6,22.5-.7,31.9,6.2,6.4,4.7,11.5,11.2,17.4,17.2,18.6-9.6,39.1-9.9,56,7.7,8.9-16.8,23.1-24.4,41.7-24.1,4.3-12.6,11-23.2,21.5-31.5,11.1-8.7,23.4-13.3,37.3-14.3,15-1.1,29.5,3.2,44.1,5.3,18.6,2.7,37,6.5,55.5,9.7,14.7,2.5,29.5,4.6,44.2,7.1,15,2.5,29.9,5.7,44.9,7.8,18.4,2.6,34.8,8.6,47.4,23,8.5,9.7,14,20.7,15.7,33.7.1.9,1.3,1.7,1.9,2.5,0,5,0,10-.4,15.2-.8,1-1.5,1.8-1.6,2.7-.8,5.3-1.2,10.7-2.1,16-3.6,20.6-7.4,41.1-10.9,61.6-2.9,16.8-5.3,33.6-8.1,50.4-3.2,19.2-6.7,38.3-9.9,57.4-3,17.4-9.7,32.5-23.7,44.1-12,10-25.8,15.1-40.9,15.3-10.8.1-21.6-2.4-32.3-4.3-3.1-.5-3.9,0-4.7,2.7-.8,2.8-1.7,5.6-3.1,8-5.1,8.9-10.4,17.7-15.6,26.6,2.7,1.9,6.2,4,9.1,6.7,14.1,12.7,25.9,27,32.4,45.2,6.5,17.9,10.9,36,7.8,55.3-3.4,21.4-15.3,36.7-33.3,47.9-1.1.7-2.4,1.8-2.7,2.9-1.5,6.1-2.3,12.4-4.2,18.3-3.6,11.8-5.7,24.2-12.9,34.5-2.2,3.2-2,6.5-2,9.9,0,5.7.4,11.4,0,17-1.2,13.8-7,25.8-16,36-14,15.9-31.8,26.1-51.7,32.4-17.4,5.6-35,10.7-52.8,14.8-15.7,3.6-31.8,5.8-47.8,8.3-11.1,1.7-22.3,2.8-33.5,4.1-11.5,1.4-23,2.8-34.5,3.9-8.2.8-16.3,1.3-24.5,2.1-14.5,1.3-29,2.7-43.5,3.9-6.9.6-13.9.5-20.7,1.1-4.9.4-9,2.1-12.7,6-9.1,9.6-20.9,13.7-33.8,14.8-11.5,1-23,1.4-34.5,2.1-13.5.7-27,1.3-40.5,2-12.5.6-25,1.3-37.5,2-13.5.7-27,1.4-40.5,2-10.7.5-21.5.7-32.3,1-.8,0-1.6,0-2.5.2-16.4,2.4-31.7.2-45.2-10.2-2.8-2.1-5.6-5.3-8.7-5.7-9.7-1.3-19.7-1.1-29.4-2.4-12-1.6-24-3.7-35.8-6.2-7.7-1.6-8.7-1.5-12.5,5.6-9.2,17.3-27.5,24.2-44.1,21.5-14-2.3-24.8-10.6-31.5-23.6-.9-1.7-2.7-3-4.5-4-10.2-5.9-17.9-14-21.6-25.4-1.4-4.3-1.6-8.9-2.5-14.1-6.3,9.3-12.9,16.9-22.4,21.5-9.6,4.6-19.8,6-30.2,6-3.7,13.4-16.2,27.1-29.4,30.7-9.5,2.6-19.3,3.6-29.1,5.1-12.1,1.8-24.2,3.2-36.2,5.1-9.1,1.4-18.1,3.2-27.2,4.8-11.5,2-23.1,4.8-34.7,2.9-23.7-3.8-41.6-23.4-41.7-47.6,0-2.7.7-5.7-.4-7.9-4-8-6.5-16.2-5.5-25.8-4.6,1.2-8.5,2.3-12.4,3.1-12.2,2.5-24,7-37,5.5-12-1.4-22.1-6.2-30.4-14.5-9.3-9.2-14.3-20.4-14.4-33.9-.1-15,4.9-27.4,15.6-38,6.5-6.4,14.3-9.8,22.5-12.8,1.2-.4,2.7-2,2.8-3,.1-2.2-.7-4.4-1.1-6.6-1.9-10.8-3.8-21.7-5.7-32.5-1.9-11-3.8-22-5.6-33-2.1-12.6-4.4-25.2-6.2-37.9-.4-2.8-1.7-4-3.8-3.8-2.5.3-5.2,1.2-7.4,2.6-3.8,2.5-7,5.8-10.9,8.2-12,7.5-25.8,6.9-39.1,8-12.3,1-24.7,1.4-37,2.1-13.7.7-27.3,1.3-41,2-12.3.6-24.7,1.4-37,2-17,.8-34,1.5-51,2-9.5.3-19.2,1.2-28.4-.2-20-3.1-33.2-15.1-40.5-33.9-3.6-9.4-4.1-19-4-28.9,0-1.3-1.2-2.6-1.9-4,0-6.7,0-13.4.3-20.2.8-1.8,1.3-3.5,1.8-5.1,7-25.6,27.6-41.2,53.5-41.7,9.2-.2,18.5-.6,27.7-1,.8,0,1.6-.7,1.3-.6-9.6-8.7-19.8-17-28.9-26.3-7.1-7.3-13.4-15.5-19.1-24-18.2-27.1-25.3-57.6-26.7-89.8-.2-5.4.2-10.9,1-16.2,1.6-11,2.6-22.3,5.5-33,8.7-31.9,27.9-57.1,53.4-77.3,14-11.1,29.5-20.1,46.5-26.1,1.4-.5,3.2-2.2,3.3-3.5,1.3-9.4,2.1-18.8,3.2-28.2,1.3-11.6,4.5-22.4,13.2-31,1.1-1.1,1-3.7.9-5.5-.4-6.6-2.3-13.4-1.2-19.7,1.7-9.7,5.4-19.1,8.4-28.5,6.3-19.8,29.8-35.8,52.6-28.4,8.4,2.7,16.8,5.2,25.3,7.6,1.4.4,3.7.7,4.6,0,6.6-5.7,14.1-9,22.8-9.6.5,0,1-1.2,1.5-1.9M639.5,365s0,0,.7,0c.4-.4.9-.8,1.3-1.1,0,0,0,0,.7,0,1.4-.8,3-1.5,4.3-2.4,14.5-9.9,28.9-19.8,43.3-28.7,0,7.6-.8,15.4.4,22.9,6,37.1,36.8,66.9,74.2,72.4,15.7,2.3,31.2,1.3,46.3-3.6,2.6-.9,4.9-1.4,7,1.4,7.7,9.7,18,15.6,29.3,20.1,8.6,3.5,11.5,2.7,16.7-5.1,4.2-6.4,8.4-12.8,13.5-19,13.9-.8,27.3-3.2,40.2-9.7,10.2,12.3,22.6,21.5,37.7,27.1,31.1,11.4,60.8,7,88.8-9.2,54.6-31.5,51-95.6,18.9-130.2-18.7-20.3-42.9-27.7-69.6-28.4-19.4-.5-37.6,4.2-54.6,13.3-3.2-4.8-6.5-9.5-10.3-15.2,5.8-.6,10.9-1.4,15.9-1.6,21.9-.7,43.9-2.2,65.8-1.3,25.2,1,50.3,4.1,75.4,6.6,9.8,1,19.6,3.1,28.5,4.8-4,.4-8,.7-11.9,1.1-5.5.6-7.6,2.7-7.3,8,1,14.9,2.1,29.9,3.5,44.8.5,5.5,3.1,7.5,8.8,7.1,5.5-.4,10.9-1.1,16.4-1.8,3.1-.4,4,.7,2.7,4.1-2.1,10.4-5.1,20.7-6,31.2-2.7,30.9,6.6,58.8,23.7,84.3,1.1,1.6,1.6,3.5,1.8,5.7-16.8,23-3.3,51.3,15.5,57.9,2.6-6.8,5.3-13.6,7.7-20.4.3-1-.5-2.9-1.4-3.7-4.5-4.2-5.7-9.2-3.7-14.8,6,5.6,12,11.2,18.1,17.6,1.4,8,2.9,15.9,4.5,25,6-3.3,11.4-6.2,17.2-8.6,2.6,1.8,5.1,3.7,7.7,5.4,7.3,4.7,14.6,9.4,21.8,15,1.1,15.3,2.1,30.5,3.3,45.8,2.5,32.7,5.1,65.3,7.6,98,.6,7.4,2.2,9.2,9.5,8.6,17.1-1.2,34.1-2.7,51.2-4,7.7-.6,9-1.8,8.4-9.5-2.2-30.2-4.6-60.3-6.8-90.5-.3-3.4,0-6.9,0-11,4.7.3,9.3.6,14.1,1.1,0,0,.3,0,.7.5.7.1,1.3.2,2,.3,0,0,0,0,.3.7,7.4,3,12.8,8.1,16.7,15,5.5,9.9,6.6,20.8,8,31.7,3.9,29.3,23.6,51.2,52.1,58.3,6.5,1.6,11.6.3,16.3-4.4,6.5-6.5,13.3-12.6,19.8-19,9.3-9.1,9.2-10.1-1.1-18.3-10-8-15.6-18.4-16.3-31,18.3,7.7,36.6,15.5,55.4,23.7,8.2,4.1,16.3,8.2,24.8,12.8.4.1.7.3,1.1.4,0,0,0,0,.5.5,6.7,4.4,13.7,8.3,19.9,13.3,5.8,4.6,11.2,10,15.8,15.8,4.9,6.2,4.1,12.2-1.7,17.3-4,3.5-8.4,6.7-13,9.1-19.6,10-40.7,15.6-62.2,19-36.8,5.8-73.7,11.3-110.7,15.2-38.4,4-77,6.1-115.9,8.3-.1-1.2-.3-2.3-.4-3.5-.7-11.4-5.8-15.8-17.4-15.1-33.9,1.8-67.8,3.5-101.8,5.2-29.4,1.5-58.9,2.8-88.3,4.4-12.3.6-16.5,5.3-16.5,17.6,0,1-.2,2-1.3,3-29,3-57.3-.8-85.2-8.4-4.1-1.1-8.4-1.7-13-3.1-7.4-.5-9.6-6.7-12.5-12.9-1.7,2.7-2.8,4.6-4.7,6.2-19.9-9.9-39.7-19.8-59.8-30.4-1.7-6-5.9-8.8-12-9.2-1.6-.1-3.1-.7-5.2-1.6-4.9-3.5-9.8-7-13.7-10.6,5,.2,9.9.7,14.9.7,18.6.2,37.3.4,55.9.5,4.1,0,8.3.4,12.4-.2,4.7-.8,7.6-4,8-9,.3-4.1-2.9-8.5-7.1-9.8-1.9-.6-3.9-1-5.9-1-23.4-.4-46.9-.7-70.3-.9-2,0-4,.3-5.9.8-6.3,1.6-9.2,7.4-6.9,13.5.3.9.4,1.9,0,2.3-4.2-3.3-8.5-6.6-13-10.5-2.3-1.8-4.5-3.6-7.1-5.9-6.5-6.1-12.9-12.2-18.6-18.2,1.5,0,3,0,4.5,0,5.8-.2,7.6-1.8,7.5-7.5-.5-25.8-1.2-51.6-1.7-77.4-.2-8.4,0-16.8,0-25.3,17.9-.5,30.8,8.2,35.2,25.1,2.4,9.1,3.2,18.6,4.3,28,3.1,28.3,21.4,50.4,48.6,58.6,6.5,2,11.6.9,16.6-3.4,7.9-6.9,15.9-13.7,23.8-20.6,5.7-5,5.8-8.1,0-12.9-8.6-7.1-14.9-15.7-17.2-26.7-1.3-6.3-2-12.8-2.5-19.3-1.6-21.4-8.1-40.8-23.4-56.4-25-25.5-56.3-32.3-90.4-28.6-18.3,2-36.2,6.7-54.9,5.8-10.1-.5-11.3,1.5-11.1,11.8.8,31,1.6,61.9,2.3,92.9,0,1.4-.4,2.9-1.2,3.9-19.5-13.3-38.9-26.7-58.4-40.9-1.4-13.2-2.7-26.5-4.1-39.7-.5-4.3-3.1-6.5-7.4-6.4-2.2,0-4.3.3-6.5.5-14.8,1.7-29.7,3.5-45,5.2-1.5-8.2-2.8-16.1-4.3-24.4,6.8-1.2,13-2.3,19.2-3.3,15.2-2.6,30.5-5.1,45.7-7.9,5.6-1,7.6-4.2,6.7-9.6-2.4-14.6-4.8-29.2-7.2-43.8-1.6-9.3-4.1-11-13.1-9.4-28.7,4.9-57.4,9.8-86.1,14.8-12,2.1-23.9,4.1-35.9,6.2-7,1.2-8.8,4.1-7.5,11.2.7,3.6,1.3,7.2,1.8,10.8,2.2,13.9,4.4,27.9,5.8,41.7-21.9-4.7-43.9-7.9-66.5-9-.2-.8-.4-1.6-.5-2.4-1.3-10.3-5.8-14.2-16.2-13.8-5,.2-10,.3-15,.5-43.4,2.2-86.8,4.5-130.2,6.8-16.6.9-33.2,1.7-49.9,2.8-7.9.5-13.1,6.6-12.8,14.4.4,8.8,1,17.6,1.6,26.4.5,7.8,6.5,13.4,14.3,13,19.6-.9,39.2-1.9,58.9-3,43.2-2.2,86.4-4.6,129.7-6.7,17.7-.8,20.8-3.6,22.1-21.2,23.1.3,45.7,4.4,68.6,9.9,3.2,18.2,6.5,36.3,9.6,54.5,5.3,30.8,10.5,61.6,15.9,92.4,1.1,6.2,4.1,8.2,10.2,7.1,41.3-7.2,82.5-14.3,123.8-21.5,10-1.7,11.4-4.2,9.7-14.3-2.3-14.3-4.4-28.6-5.9-42.7,3.2,2.3,6.5,4.5,9.6,7,7.1,5.8,14.1,11.8,21,18.6.2,7.3.4,14.6.7,21.8.2,5.9,2.4,7.9,8.3,7.8,8.3-.2,16.5-.4,25.4-.3,6.5,6.3,12.9,12.6,18.6,19-4.1.3-8.3.6-12.4.9-14.6,1.3-29.2,2.3-43.7,3.9-6.2.7-10.2,5.7-9.7,10.8.6,5.1,5.3,9,11.4,9.1,1.3,0,2.7-.2,4-.3,9.9-.9,19.9-1.8,29.8-2.6,14.8-1.1,29.5-2,44.6-2.4,4.5,3.7,9,7.5,12.7,11.2-4,0-8,0-12,.3-10.1.5-20.2,1-30.3,1.9-5.9.5-9.7,5.1-9.5,10.3.2,5.1,4.5,9.1,10.3,9.6,1,0,2,0,3,0,9.3-.5,18.6-1.2,27.9-1.4,13.9-.3,27.9-.3,42.3,0,14.5,7.9,29,15.8,43.2,24.3-1.9,13-12.8,17-23.2,21.8,2.4,2,4.3,3.5,6.4,4.1,8,2.3,13.6,6.9,15.8,15.3.6,2.5,2.4,4.7,4.2,8.2,1.1-1.8,1.6-2.4,1.8-3,3.1-11.4,9.5-19.4,21.5-22,.2,0,.4-.1.4-.2,0-1.4.7-3.4,0-4.1-1.2-1.2-3.1-1.9-4.8-2.4-7.9-2.1-13-6.8-13.9-14.7,6.7,2.7,13.5,5.3,20.7,8.5,1,1.9,2.1,3.9,3.4,6.3,1.4-1.8,2.4-3.1,4.1-4,35.5,11.8,71.6,18,109.3,15,1.6,12.7,6.2,17.4,16.2,16.9,49.7-2.6,99.4-5,149.2-7.5,15-.8,29.9-1.3,44.9-2.5,10.9-.9,15.4-7.4,14.5-18.3,8-.5,16-.8,23.9-1.5,40.8-3.5,81.6-6.6,122.3-10.7,36.2-3.6,72.3-8.9,107.6-18,17.7-4.6,35.1-10.1,50.6-20.4,19.2-12.8,22.1-31,7.5-48.7-3-3.7-6.4-7.1-8.8-10.5,4-.1,8,0,12-.3,7.1-.5,13.1-3,15.5-10.4,3-9.2,5.8-18.4,8.2-27.7,2.1-8.4-2.1-12.5-10.7-11.6-5.3.5-10.7,1-15.9.7-16.2-1.2-29.7-7.7-37.7-22.4-6.7-12.4-8.1-25.4-.1-37.9,7.9-12.4,25.3-14.5,33.8-4.5,3.5,4.1,2.9,7.1-2.1,9.2-4.3,1.8-8.8,3.1-13.1,4.7-3.5,1.3-5.1,3.7-3.6,7.4,3.5,9,7.1,17.9,10.7,26.9,1.4,3.6,4.2,5.1,8,4.5,16.5-2.4,32.8-5.8,48.2-12.1,15.8-6.5,22.3-17.6,19.7-34.4-1.2-7.8-3.2-15.7-6.1-23-8.1-20.5-22.8-34.1-44.5-39.2-20.4-4.8-40.5-2.6-59.9,4.3-30.4,10.7-49.9,31.6-55.7,64-3.6,19.7.3,38.4,8.3,55.8-12.5-5.1-25-10.2-37.6-16.2-3.2-18.5-11.5-34.3-25.3-46.9-23.3-21.2-51.5-27.6-81.9-24.3-18.2,2-36.2,6.2-55,9.3-.9-.3-1.8-.5-2.6-1-12.1-7.3-24.3-14.7-36.7-22.9.4-1.9.7-3.8,1.3-5.7,5.9-18.9-4.1-39.6-22.4-47-11.2-4.5-22-3.5-33.3.4-14.9-21.7-23.9-45.2-22-71.6.5,1.4,1,2.8,1.5,4.2,12.5,34.3,32.1,49.4,65.8,50.6,8.5.3,11-1.4,13.1-9.7,3.1-12.1,5.9-24.2,8.9-36.3,1.1-4.3,0-7-4.7-8.1-7.3-1.7-12.2-6.4-15.7-12.9-6-11.2-7.9-23.4-10.2-36.2,5.9-.7,11.5-1.3,17.1-1.9,5.2-.6,7.2-2.5,6.9-7.7-.4-7.5-1-14.9-.6-22.3,18.1,4.1,36.2,8.1,54.4,13,4,28.6,8,57.2,12,85.8,4.6,0,8.6.1,12.6,0,13.8-.5,27.6-1.1,41.4-1.8,4.8-.2,7.5,1.6,8.4,6.4,1.1,6.1,2.6,12,3.8,18.1.5,2.7,1.5,4,4.6,3.7,8.1-.7,16.3-1.1,24.4-1.6,6.6-.4,13.2-.9,20.1-1.4,0-7.4,0-14.2,0-21,0-4.3,2-7,6.3-7.6,18.5-2.6,36.9-5,55.4-7.6,4.6-.6,7.2,1.4,8.3,5.9,1.4,5.5,3.3,10.8,4.7,16.3.6,2.3,1.4,3.6,4.1,3,14.6-3.2,29.2-6.2,44.1-9.4-.4-7.3-.9-14.3-1.2-21.2-.4-7.4.5-8.5,7.8-10.3,16.8-4,33.6-8,50.9-11.5.5,3.8,1,7.6.7,11.4-15.6,3.8-31.3,7.5-47.4,11.4.5,7.9.8,15.5,1.4,23.1.3,4.3-1.3,7-5.7,7.9-18.2,3.8-36.4,7.8-54.6,11.6-5.6,1.2-7.6-.2-9.2-5.6-2-6.6-4-13.3-6-20.2-15.1,2.1-30,4-44.7,6.2-1.1.2-2.6,2.3-2.7,3.6-.3,5.8-.1,11.7-.2,17.5,0,6-2,8.1-8,8.5-18.3,1.2-36.5,2.3-54.8,3.6-4.6.3-7.3-1.6-8.2-6.1-1.3-6.2-2.8-12.3-3.8-18.6-.5-3.3-1.9-4-4.9-3.9-11.1.6-22.3.9-33.4,1.4-3.9.2-7.9.6-11.8.9.7,26,12.2,44.9,35,56.6,20.7,10.7,43.2,14.1,66.1,15,31.9,1.3,63.5-2.3,94.5-10,26.3-6.5,51.7-15.5,73.5-32.2,12.5-9.6,22.3-21.4,26.5-37.1,2.9-10.9,1.2-21.8.8-32.7,1.2,0,2.3,0,3.5.3,20.5,3.5,40.9,6.8,61.3,10.5,15.9,2.9,28.6-5,32-20.9,2.1-9.7,3.4-19.6,5-29.4,8.9-52.2,17.8-104.4,26.6-156.6,2.8-16.8-5.8-29.8-21.5-32.6-15.7-2.8-31.4-5.4-47.1-8-43.4-7.3-86.8-14.3-130.1-22.1-21.1-3.8-31.9,8.8-34.1,20.7-1.9,10.1-3.4,20.3-6,30.4-10.3-1.7-20.7-3.4-31-5.3-3.9-.7-6,.4-7.3,4.5-2.7,8.7-6,17.3-8.8,26-.9,2.8-2.3,3.6-5.2,3.9-8.9.9-17.8,2.1-26.6,3.8-3.4.6-5.2.4-7.3-2.7-5.8-8.9-12-17.6-18.1-26.4-14.8,5.3-28.4,11.8-40.9,20.3-1.1.8-1.5,3.4-1.4,5,.2,3.8.9,7.5.6,11.4-16.8,4.1-33.8,7.3-50.3,12.4-31.8,9.9-61.4,24.4-88.5,44.6-.8-7.6-1.6-15.2-2.4-22.8-.7-7.5-3.1-9.7-10.5-9.2-7.4.6-14.9,1.4-22.3,2.2-9.9,1-19.8,2-29.7,3.2-6.5.8-8.6,3.2-8.3,9.5.3,6.4,1.1,12.9.9,19.3-1,0-2,0-3-.1-34.1-5.7-68.4-9.1-102.9-10.6-30.9-1.3-61.8-1.2-92.4,4.9-1.6.3-3.8-.4-5.2-1.4-5-3.8-9.9-7.9-14.7-12.7,2.3-9.7,4.5-19.4,6.8-29.1,1.4-6.1-.3-9.1-6.3-10.9-1.6-.5-3.2-.8-4.8-1.1-14.5-2.6-29.1-5.1-43.6-7.7-9.9-1.8-13.4.4-15.7,10-.2.9-.6,1.8-1.6,2.4-8.6-4-17.2-8.1-25.9-11.8-3.5-1.5-4.1-3.6-3.4-7,1.1-5.2,2.3-10.4,2.6-15.7,2.3-33.5-5.2-64.7-24.6-92.2-19.1-27-50.7-40.7-83.2-22.1-13.5,7.7-22.3,18.7-22.7,34.6-.4,11.7,3.7,22.5,9.5,32.7,10.2,17.7,24,32.4,40.1,44.7,16.1,12.3,34.4,20.8,52.8,29.1,4.2,1.9,4.8,3.8,2.9,8-7.6,16.4-17.2,31.5-28.5,45.6-3.8,4.8-7.5,9.7-11.2,14.5,0,0,0,0-.5,0-.2.3-.5.6-1.3,1.3-10,5.4-19.6,11.4-26.9,20.4-4.7,5.8-8.9,12-13.9,18.3-1.3,1-2.6,2.1-3.9,3.1-10,7.4-20.1,14.7-29.8,21.3.5-1.9,1-3.9,1.5-5.8,7.5-35.3-1.6-65.3-29.5-88.7-15.4-13-34.1-18.6-53.8-20.5-25.3-2.4-48.8,2.6-68.9,19.1-16.3,13.4-25.4,31.1-29.4,51.4-6.3,31.8,2.5,59,26.9,80.6,14.9,13.2,32.8,19.9,52.2,22.7-.8.5-1.6,1.2-2.5,1.5-20.7,8.3-41.4,16.4-62,24.9-2.8,1.2-6.2,4-6.9,6.7-1.9,7,4.4,11.3,12.2,8.2,26-10.5,52.1-21.1,77.8-32.3,10.6-4.6,20.5-10.9,30.7-16.3,0,0,0,0,.6,0,.5-.3,1-.7,2.1-1.3,7.7-4.5,15.4-9.1,23.7-13.7.2-.3.5-.6.6-.9M496.4,146.9s-.3-.3-.3-1.1c2.3-14.3,4.4-28.6,6.9-42.9.7-4.2-.6-5.8-4.5-6.4-7.6-1.1-15.1-2.3-22.7-3.6-3.8-.7-5.8.2-6.4,4.5-3,19.7-6.4,39.4-9.6,59.1-3,18.5-6,37.1-9,55.6-.5,3-.2,5.3,3.4,5.9,8.2,1.3,16.4,2.6,24.6,4,3.6.6,5.2-.9,5.7-4.4,1.3-8.9,2.7-17.8,4.2-26.6,1.4-8.9,2.9-17.8,4.6-27.6,9.5,7.4,18.4,14.2,27.1,21.1,3.2,2.5,5.6,2.7,8.4-.7,5.3-6.6,10.8-13.1,16.5-19.4,3.3-3.6,2.5-6.2-1.4-8.2-9.8-5.2-19.7-10.3-29.5-15.5-5.4-2.8-9.8-2-13.5,3-1.1,1.4-2.7,2.4-4.3,3.3M306.2,266.2c6.4-10.3,15.5-17.3,26.8-21.4,16.3-5.8,32.8-6.9,49.5-2.1,6.2,1.8,10.3-.3,10.9-5.7,1.7-15.9,3.4-31.8,4.8-47.7.4-4.6-1.9-8.3-6.7-9.3-8.9-1.9-17.9-4.3-26.9-4.8-33-1.7-63.2,8.1-90.9,25.4-23.1,14.5-40.1,34.4-48.8,60.6-6.6,20.2-7.1,40.8-3.5,61.7,6.6,38.4,25.8,68.6,60.3,87.1,46.2,24.8,92.4,22.6,136.3-5.9,41.1-26.7,56.1-71.9,44.3-117.2-3.8-14.6-12.2-23.4-29.8-22.1-7.8.6-15.5,1.9-23.2,3-17.6,2.6-35.2,5.1-52.8,7.9-6,.9-8.8,4.2-8.2,9.9,1,11.3,2.2,22.5,3.8,33.7,1,7,4.8,9.2,11.7,8.1,8.9-1.5,17.7-2.9,26.6-4.3,4.7-.7,7.1,1.5,5.7,5.9-1.4,4.4-3.2,8.9-6,12.4-16.9,21.5-51.9,23.6-72.8,4.7-20.9-18.9-25.9-53.4-11-80.1M1089.7,612.7c3.4-13.5,7-27,10.2-40.6,4-17,7.7-34.1,11.4-51.1,1.6-7.5-.2-11.1-6.5-12.9-16.8-4.6-33.7-9.1-50.6-13.5-2-.5-4.2.1-6.3.1-1.7,0-3.9.6-5.2-.2-16.1-9.7-33.6-14.3-52.2-14.8-23.3-.6-43.3,6.7-58.4,25-16.2,19.6-20.9,42.6-18.6,67.4,3.5,38,35.3,70.4,73.1,73.9,6.8.6,13.7,0,21.4,0-1.6,2.8-2.6,4.7-3.8,6.4-10.3,15.6-24.3,24.2-43.4,21.2-7.9-1.2-15.6-4.3-23.3-6.9-4.6-1.6-8.3-1.3-10.9,3-5,8.1-9.9,16.2-14.4,24.5-3.3,6.1-2.2,8.6,3.7,12.2,1.7,1,3.4,2.1,5.2,3,23.2,12.3,47.8,18.6,74.1,15.1,35.8-4.6,60.5-25.1,75.1-57.2,7.9-17.3,13-35.9,19.5-54.7M1130.1,609.1c-2.4,23.8-4.9,47.7-7.3,71.5-.5,4.7,1.5,7.1,6.5,7.6,16.9,1.8,33.8,3.4,50.6,5.3,10.1,1.1,11.6-.1,12.6-10.1,2-21.9,4.4-43.7,6.5-65.6,2.2-22.5,4.5-45,6.6-67.6.5-5.7-1.3-7.7-6.7-8.2-17.9-1.8-35.8-3.6-53.6-5.4-5.7-.6-8.2,1.4-8.7,6.9-2.2,21.5-4.2,43.1-6.5,65.5M916.5,156.5c-4-.8-8-1.6-12.2-2.5,3.3-14,6.5-27.4,9.7-41.3,7.5,1.9,14.8,3.5,21.9,5.5,3.4.9,5,0,5.8-3.4,1.4-6,3-11.9,4.5-17.9.9-3.4-.1-5.3-3.7-6.1-7.1-1.6-14.2-3.6-21.3-5.4-17.2-4.4-34.5-8.9-51.7-13.3-5.5-1.4-6.5-.8-8,4.9-1.3,5-2.4,10-3.9,15-1.2,4.2-.2,6.6,4.4,7.5,6.8,1.4,13.5,3.3,20.7,5.2-3.4,14.6-6.8,28.8-10.2,43.4-1.9-.3-3.6-.5-5.1-.8-8.5-1.5-17-3-25.5-4.7-3.1-.6-4.3.4-4.8,3.3-1,6.6-2.1,13.1-3.2,19.7-.6,3.5,1.5,4.7,4.5,5.2,31.6,5.8,63.1,11.7,94.7,17.6,3.4.6,5.1-.3,5.6-3.7.9-5.8,1.6-11.6,3-17.2,1.1-4.6-.6-6.6-4.8-7.3-6.5-1.2-13.1-2.4-20.5-3.8M345.2,64.4c-2,4.2-.6,6.3,3.8,7.6,14.4,4.5,28.8,9.3,43.1,14,5.9,1.9,6.3,2.7,3.8,8.6-3.4,8.1-7.2,16.1-10.3,24.3-1.8,4.7-4.5,5.7-9.2,4.7-12.8-2.8-25.8-5.1-38.6-7.9-3.8-.8-5.1.3-5.5,4-.8,6.3-1.7,12.5-3.1,18.7-1.1,4.5.4,6.5,4.7,7.3,22,4.3,44,8.8,66,13.1,6,1.2,8.2,0,10.5-5.7,8.9-21.5,17.9-43,26.8-64.5,3.9-9.5.5-18-9.2-21.3-23.6-8-47.4-15.4-71.1-23.1-3.2-1-5,.1-6,3.3-1.7,5.4-3.6,10.7-5.6,16.8M591.1,707c22.7-3.6,45.3-7.2,68-10.8,8.7-1.4,13.4-5.9,12.3-11.9-1.1-6.2-6.9-9.3-15.4-8.1-.2,0-.3,0-.5,0-29.5,4.9-59.1,9.3-88.5,14.9-23.2,4.4-46.1,10.3-69,15.8-7.1,1.7-10.7,7.3-9.1,12.7,1.6,5.6,7.3,8.4,14.2,6.8,29-6.5,58.1-12.9,88-19.5M662.1,759c23.5-2.4,47-4.9,70.5-7.3,7.3-.7,14.6-1,21.9-1.7,6.1-.6,10.3-5.1,10-10.4-.2-5.4-4.7-9.4-10.8-9.6-3.2,0-6.3,0-9.5.4-23.4,2.2-46.8,3.8-70,6.8-27.4,3.6-54.6,8.3-81.8,12.8-7.2,1.2-10.9,6.4-9.7,12.1,1.2,5.7,6.7,8.9,13.6,7.8,21.7-3.6,43.3-7.1,65.8-10.8M991.2,235.2c24.8-8.8,47.3-21.8,68.2-37.7,3.1-2.4,3.6-4.5,1.5-7.9-3.5-5.7-6.7-11.5-9.7-17.4-1.9-3.7-3.9-4.7-7.8-2.3-5.9,3.7-12.1,7.1-18.4,10-19.9,9.3-39.8,18.3-59.8,27.4-5.3,2.4-5.6,3.1-2.9,8.1,2.2,3.9,4.4,7.8,6.6,11.8q7.3,13.1,22.3,8.2M1218.9,197.1c3.4,6.1,6.9,12.1,10.2,18.3,1.5,2.7,3.3,3.3,6.1,2.5,29.3-8.9,55.7-23.3,79.9-42,2.4-1.8,2.9-3.7,1.3-6.4-3.7-6.3-7.3-12.7-10.7-19.1-1.7-3.3-3.7-3.6-6.8-1.8-6.2,3.6-12.4,7.2-18.8,10.3-19.9,9.3-39.8,18.3-59.8,27.4-5.3,2.4-5.6,3.1-2.9,8.1.4.7.8,1.5,1.6,2.8M570.6,143.9c-.7,7.1-1.2,14.3-2.1,21.4-.6,4.8,1.4,6.5,6,6.9,19.1,1.7,38.1,3.7,57.1,5.6,11.8,1.1,23.5,2.2,35.3,3.3,2.9.3,5.3,0,5.7-3.9.6-7.5,1.3-14.9,2.1-22.4.5-4.1-1.2-5.7-5.2-6-7.5-.6-14.9-1.5-22.4-2.3-23.7-2.4-47.4-4.8-71-7.1-2.7-.3-5,.4-5.6,4.5M1179.5,138.5c-1-1.7-2.1-3.4-2.9-5.2-1.9-4.3-4.3-5.2-8.5-2.6-6.1,3.7-12.3,7.2-18.8,10.3-20.1,9.4-40.4,18.7-60.7,27.8-3.9,1.7-5.3,3.4-2.9,7.4,4,6.7,7.8,13.5,11.6,20.4,1.5,2.7,3.4,3.3,6.2,2.4,29.9-9.1,56.9-23.8,81.5-43,2.2-1.7,2.5-3.6,1-6-2.2-3.5-4.1-7.2-6.5-11.5M625.6,733.7c27.9-3.6,55.7-7.1,83.6-10.7,1.5-.2,3-.2,4.5-.4,7.5-1.2,11.7-5.9,10.7-11.8-.9-5.8-6.7-9.3-13.9-8.4-32.3,4.2-64.6,8.3-96.9,12.7-9.4,1.3-18.7,3.1-28,5-6.4,1.3-10,6.2-9.1,11.7.9,5.5,5.7,8.7,12.4,8.2,1.2,0,2.3-.4,3.4-.6,10.8-1.9,21.6-3.7,33.3-5.7M592.3,782.2c-3.9,3.6-5,7.8-2.6,12.6,2.2,4.3,6.9,5.9,13,4.9,17.5-3,35.1-6.1,52.7-8.7,14.8-2.2,29.7-3.8,44.5-5.9,5.8-.8,9.6-5.5,9.3-10.6-.4-5.4-5-9.3-11-9.4-1.2,0-2.3,0-3.5.2-23.4,3.2-46.8,6.3-70.2,9.8-10.6,1.6-21.1,4.4-32.3,7.1M1083.1,426.1c-1.9,6.7-6.5,10.3-13.2,12.1-4.1,1.1-8.1,2.9-12.1,4.7-1.4.6-3.5,2.2-3.3,2.9.3,1.5,1.7,3.1,3,3.9,5.6,3,11.4,5.5,16.9,8.6,1.8,1,3.6,2.9,4.5,4.9,2.5,5.8,4.5,11.8,6.9,17.6.6,1.5,2.2,2.7,3.3,4.1,1.2-1.2,2.9-2.2,3.7-3.6,2.8-5.3,5.1-10.8,8.1-16,1.4-2.4,3.7-4.6,6.2-5.8,5.2-2.5,10.8-4.1,16.2-6.4,1.6-.7,2.8-2.4,4.2-3.6-1.3-1.3-2.5-3-4.1-3.8-5.1-2.8-10.6-4.9-15.5-7.9-2.2-1.3-4.3-3.6-5.4-6-2.6-5.7-4.6-11.7-7-17.6-.5-1.2-2-3-2.8-2.9-1.3.2-2.9,1.4-3.6,2.7-2.1,3.7-3.9,7.7-6.2,12.2M433.5,447.7c1.7,5.9,3.4,11.8,5.3,17.6.5,1.4,1.7,2.8,3,3.4.6.2,2.4-1.4,3.1-2.6,3-4.8,5.6-9.9,8.8-14.5,1.4-2,3.7-3.7,6-4.6,5.4-2,11.1-3.4,16.6-5.2,1.1-.4,2.6-1.5,2.7-2.5.1-.9-1.1-2.3-2-3-1.7-1.3-3.6-2.6-5.6-3.3-10.5-3.9-15.7-11.7-17.6-22.5-.5-3-2.6-5.7-4-8.6-2.1,2.4-5,4.4-6.1,7.1-4.2,10.8-12.2,16.3-23.3,18.1-2.8.5-5.3,2.6-8,4,2.2,2,4.3,4.2,6.7,5.9,4.7,3.4,9.5,6.5,14.4,10.5M1234.9,112c-5.6-4.7-11-5.1-16.9,0-3.8,3.2-8.2,5.6-12.4,8.4-4.8,3.2-5.1,3.9-1,8.4,6.7,7.4,13.8,14.4,20.6,21.8,2.7,3,5,3,8.1.7,6.1-4.6,12.5-8.8,18.7-13.3,5.6-4,6.2-6,1.2-11-5.4-5.3-11.8-9.7-18.3-14.9M960.1,135.1c-3.2,2.1-6.2,4.5-9.6,6.3-4,2.2-4.2,4.7-1.2,7.8,7.3,7.7,14.7,15.4,22,23.1,2.3,2.4,4.3,1.7,6.5,0,6.6-4.7,13.3-9.4,19.9-14.1,4.7-3.4,5.4-5.4,1.3-9.5-4.9-5.1-10.5-9.7-16.2-13.8-11-7.8-11.1-7.6-22.7.1M1099.4,143.4c1.8-.8,3.6-1.6,5.5-2.4,6.7-3,7.5-5.2,2.9-11.1-4.8-6.1-10.4-11.6-15.6-17.4-2.7-3.1-5.9-3.2-9.5-1.6-5.5,2.4-10.9,4.8-16.5,6.9-3.6,1.3-4.3,3.2-2.3,6.4,5.1,8,10,16.1,15.3,23.9.9,1.3,4.1,2.1,5.7,1.6,4.7-1.5,9.2-3.8,14.4-6.2M1141.1,104c4.7-4.2,5.1-6.1.2-9.8-7-5.2-14.6-9.7-22.3-13.9-1.7-1-5.3-.3-7.1.9-4.7,3.1-8.9,7-13.3,10.5-4.5,3.7-4.8,4.6-.6,8.5,6.7,6.2,13.7,12.1,20.5,18.2,2.3,2.1,4.1,1.4,6.1-.3,5.3-4.6,10.6-9.1,16.4-14.1M883.7,472.7c-.4.3-.9.5-1.3.8-1.7,1.5-3.3,3-4.9,4.5,2,1,3.8,2.7,5.9,2.9,8.8.9,14.6,5.5,18,13.5.2.5.5.9.8,1.3,1.2,1.2,2.5,2.3,3.8,3.5.8-1.5,2.2-3,2.4-4.6,1.1-9.6,5.8-16.3,14.8-19.9.2,0,.3-.2.4-.3,1.1-1.1,2.3-2.2,3.4-3.3-1.4-.9-2.8-2.4-4.3-2.6-9.5-1.1-16.3-5.6-20.1-14.5-.7-1.6-2.6-2.7-3.9-4.1-.9,1.6-2.2,3.2-2.7,5-1.8,7.3-3.2,14.8-12.3,18M670.8,424.8c-5.1,5.6-6.4,11.9-3.4,18.9,2.7,6.3,7.8,9.7,14.7,10.2,7.4.5,14.6-4.3,17.1-11.2,2.6-7.3,0-15.3-6.3-19.9-6.4-4.6-14.5-4-22.1,2M733,230c3.3-2.2,6.6-4.5,9.9-6.7-.1-.5-.3-1-.4-1.5-2.5-.8-4.9-2-7.4-2.3-7.7-.7-12.7-4.8-15.8-11.7-1-2.2-2.9-4-4.4-6-1,.8-1.4,1-1.5,1.3-.5,1.4-1.2,2.8-1.4,4.2-1,9.1-5.4,15.6-14,19.3-1.4.6-2.3,2.5-3.5,3.8,1.5.9,2.9,2.3,4.5,2.5,9.3.8,15.5,5.6,19.4,13.9.7,1.5,2.4,2.6,4.5,4.9,1.4-5.1,2.8-8.9,3.4-12.7.7-3.9,2.4-6.8,6.7-8.8M1274.2,474.2c1.6-1,3.1-2.1,5.7-3.8-3.2-1.4-5.1-2.7-7.2-3.1-7.1-1.2-11.4-5.3-14-11.8-.8-2-2.5-3.7-3.8-5.5-1.2,2-2.9,3.9-3.4,6.1-1.7,6.8-5.4,11.4-12.1,13.7-2.1.7-4,2.5-6.9,4.4,6.4,2.6,12.4,3.6,16.4,7.1,3.9,3.4,5.7,9.2,9.1,15.2,4.5-9.1,4.9-19.5,16.3-22.2M551.9,132.9c1.4-.9,2.7-1.9,4.2-2.7,4-2.1,4.3-4.5,1.2-7.8-2.2-2.3-4-4.8-6-7.3-2.1-2.6-4.4-3-7.5-1.4-11.3,6.2-11.1,4.2-4,15,.5.8,1.1,1.7,1.7,2.5,3.8,5.6,3.9,5.6,10.4,1.6M525.5,110.1c-12.9.1-13.4-3.4-11.3,12.6.1,1,0,2.1.4,2.9.5,1.1,1.4,2.8,2.2,3,4.7.6,9.6,1.3,14.2.6.9-.1.9-6.4,1.2-9.9.1-1.3-.2-2.6-.4-4-.3-3.2-2-5.2-6.3-5.3M447.4,66.6c1.8.5,4.1,2,5.3,1.3,3.7-1.9,7.1-4.5,10.5-6.9.1,0,0-.7-.1-.9-3-4.1-5.4-9.3-9.5-11.8-2.1-1.4-7.3,1.5-10.8,3.1-1,.4-1.8,3.4-1.4,4.6,1.4,3.5,3.6,6.7,5.8,10.7M1153,90.6c1.3.2,2.6.4,3.9.4,12.1,0,12.2-.2,9.7-11.7-.1-.6,0-1.5-.4-1.9-1.4-1.8-3.1-5-4.5-4.9-4.3,0-8.6,1.4-12.9,2.5-.3,0-.5,1.9-.2,2.8,1.2,4.1,2.5,8.2,4.4,12.8M1181.2,92.9c2.4-1.6,5.1-2.9,7.3-4.7,6.1-5.1,6-5.2,0-10.7-8.4-7.7-8.3-7.7-17.1-.5-2.3,1.9-2.8,3.6-.7,5.7,3.2,3.3,6.5,6.6,10.4,10.2M427.9,43c-2.5.4-6.3-2-6.7,2.6-.4,4.1,0,8.3.5,12.4.1,1,1.6,2.3,2.6,2.6,3.4.8,6.8,1.3,10.3,1.6,1,0,3.1-1,3.1-1.6.2-4.8.8-9.8-.4-14.2-.5-1.8-5.5-2.2-9.4-3.4Z"/>
  <path class="cls-41" d="M1579.6,356c-16.8,4-33.6,8-50.5,12.1-7.2,1.7-8.2,2.9-7.8,10.3.4,7,.8,13.9,1.2,21.2-14.9,3.2-29.5,6.3-44.1,9.4-2.7.6-3.5-.8-4.1-3-1.5-5.5-3.3-10.8-4.7-16.3-1.2-4.4-3.7-6.5-8.3-5.9-18.5,2.5-36.9,5-55.4,7.6-4.3.6-6.3,3.3-6.3,7.6,0,6.8,0,13.6,0,21-7,.5-13.6,1-20.1,1.4-8.1.6-16.3.9-24.4,1.6-3.1.3-4.1-1-4.6-3.7-1.1-6-2.7-12-3.8-18.1-.9-4.8-3.5-6.7-8.4-6.4-13.8.7-27.6,1.3-41.4,1.8-4,.2-8,0-12.6,0-4-28.5-8-57.1-12-86.5-6.2-7.6-12.4-14.3-18.8-21.4-.9-1.2-1.6-2.2-2.5-2.9-3.7-2.9-3.5-6.1-1.3-9.9,6.8-11.6,13.4-23.3,20-35,1.6-2.8,3.2-3.1,6-1.9,8.1,3.5,16.3,6.6,24.4,10.2,3.1,1.4,4.9.9,7.2-1.6,6.9-7.2,13.9-14.3,21.4-20.8,3.6-3.1,4.5-5.8,2.6-10.2-1.4-5.3-2.8-10.1-4.2-15-.5-3.8-1.2-7.5-1.4-11.3,0-1.7.3-4.3,1.4-5,12.6-8.5,26.2-15.1,40.9-20.3,6.1,8.9,12.4,17.5,18.1,26.4,2,3.1,3.9,3.3,7.3,2.7,8.8-1.7,17.7-2.9,26.6-3.8,2.9-.3,4.3-1,5.2-3.9,2.8-8.7,6.1-17.2,8.8-26,1.2-4,3.3-5.2,7.3-4.5,10.3,1.8,20.6,3.5,31.7,5.5,1.6.6,2.5,1,3.5,1.2,4.6.8,7,2.7,7.1,8.1,0,9.1,1.2,18.2,1.6,27.3.1,2.7,1,4.1,3.4,5.3,9.9,5.1,19.5,10.6,29.4,15.7,1.2.6,3.5.9,4.4.2,4.4-3.5,8.5-7.3,13.1-11.1,4.3-2.8,8.2-5.5,12.4-8.1,3.3,2,6.2,4,9.3,6.1,2.5,2.5,4.9,4.8,7.5,7.4,4.9,5.3,9.4,10.5,14.3,15.4,3.3,3.2,5.4,6.4,3,11.2-1.1,2-1.8,3.9-2.9,5.9-1.1,1.8-1.9,3.4-3,5.2-1.1,2-1.9,3.9-3,5.9-5.4,6.7-6.4,13.8-4,21.5.2.8.1,1.6.2,2.9.3,2.4.7,4.4,1,6.8.3,1.5.1,3,.8,3.7,2.9,2.7,3.5,5.4,1.4,8.9-.6,1-.2,2.6,0,3.9.8,5.7,1.5,11.5,2.8,17.2.6,2.9,2.3,5.6,3.1,7.4-.4,3.5-1,6.4-.9,9.4.4,5.8,1.2,11.5,1.9,17.3M1320.2,315.3c-.6,1-1.2,2-1.8,3-8.3,14.7-3.8,34.1,10,43.4,14.7,9.9,34,7.1,44.8-6.5,10.8-13.4,9.4-33-3-44.8-13.8-13.1-36.7-12.6-50,4.9M1481.9,286.8c-14.6,11.9-17,32.1-5.4,46.8,11.3,14.2,32,16.6,46.5,5.2,13.9-10.9,16.7-31.5,6.1-45.6-11.2-14.9-31.6-17.9-47.2-6.4M1437.5,336.5c-1-6.4-1.6-12.9-3-19.1-1.3-5.5-6.5-8.3-11.9-7.3-5.5,1-9.4,5.5-8.8,10.9,1.1,10,2.5,20.1,4.2,30,1,5.9,6.5,9.4,12.1,8.4,6.2-1.1,9.7-6,8.9-12.2-.4-3.3-.9-6.6-1.5-10.7Z"/>
  <path class="cls-41" d="M305.9,266.5c-14.7,26.4-9.7,60.8,11.2,79.7,20.9,18.9,55.9,16.8,72.8-4.7,2.8-3.5,4.7-8.1,6-12.4,1.4-4.4-1.1-6.6-5.7-5.9-8.9,1.4-17.7,2.9-26.6,4.3-6.9,1.2-10.8-1.1-11.7-8.1-1.6-11.2-2.8-22.5-3.8-33.7-.5-5.7,2.2-9,8.2-9.9,17.6-2.8,35.2-5.3,52.8-7.9,7.7-1.1,15.5-2.4,23.2-3,17.5-1.4,26,7.5,29.8,22.1,11.8,45.4-3.1,90.5-44.3,117.2-43.8,28.5-90.1,30.7-136.3,5.9-34.5-18.5-53.7-48.7-60.3-87.1-3.6-20.8-3.1-41.5,3.5-61.7,8.6-26.3,25.6-46.2,48.8-60.6,27.7-17.3,57.9-27.1,90.9-25.4,9,.5,18,2.9,26.9,4.8,4.7,1,7,4.7,6.7,9.3-1.4,15.9-3,31.8-4.8,47.7-.6,5.4-4.7,7.5-10.9,5.7-16.7-4.8-33.2-3.7-49.5,2.1-11.4,4-20.4,11.1-27,21.7Z"/>
  <path class="cls-41" d="M1089.6,613.1c-6.5,18.4-11.6,37-19.4,54.3-14.6,32.1-39.3,52.6-75.1,57.2-26.3,3.4-50.9-2.8-74.1-15.1-1.8-.9-3.5-2-5.2-3-5.9-3.5-7-6.1-3.7-12.2,4.5-8.3,9.5-16.4,14.4-24.5,2.6-4.2,6.3-4.5,10.9-3,7.7,2.6,15.4,5.7,23.3,6.9,19.1,3,33.1-5.6,43.4-21.2,1.2-1.8,2.2-3.7,3.8-6.4-7.6,0-14.6.5-21.4,0-37.8-3.5-69.6-35.9-73.1-73.9-2.3-24.8,2.5-47.8,18.6-67.4,15.1-18.3,35.1-25.6,58.4-25,18.6.5,36.1,5,52.2,14.8,1.3.8,3.4.2,5.2.2,2.1,0,4.3-.7,6.3-.1,16.9,4.4,33.8,8.9,50.6,13.5,6.3,1.7,8.1,5.4,6.5,12.9-3.7,17.1-7.4,34.1-11.4,51.1-3.2,13.6-6.8,27.1-10.3,41M1001.9,533.7c-23.6,4.8-29.3,38.6-17.1,54.3,8.1,10.4,22.7,13.7,36.7,8.6,2.9-1,4.2-2.7,4.8-5.5,2.1-10.1,4.5-20.1,6.7-30.1,1.7-7.9-.2-14.9-6.2-20.4-6.8-6.3-15-8.3-24.8-6.8Z"/>
  <path class="cls-5" d="M1535.3,208.2c-4.2,3.7-8.3,7.6-12.7,11-.9.7-3.2.4-4.4-.2-9.8-5.2-19.5-10.6-29.4-15.7-2.4-1.3-3.3-2.6-3.4-5.3-.4-9.1-1.5-18.2-1.6-27.3,0-5.4-2.5-7.3-7.1-8.1-1-.2-1.9-.6-3.1-1.2,1.4-10.4,3-20.6,4.9-30.7,2.2-11.9,13-24.5,34.1-20.7,43.3,7.8,86.7,14.7,130.1,22.1,15.7,2.6,31.4,5.2,47.1,8,15.7,2.8,24.3,15.8,21.5,32.6-8.8,52.2-17.7,104.4-26.6,156.6-1.7,9.8-2.9,19.7-5,29.4-3.4,15.8-16.2,23.7-32,20.9-20.4-3.7-40.9-7-61.3-10.5-1.1-.2-2.3-.2-4.1-.4-.7-.3-.7-.5-.7-.7-.5-3.8-1-7.6-1.7-11.7-.9-6.1-1.7-11.8-2.1-17.6-.2-2.9.5-5.9.9-9.4-.8-1.8-2.4-4.5-3.1-7.4-1.2-5.7-1.9-11.4-2.8-17.2-.2-1.3-.5-2.9,0-3.9,2.1-3.5,1.4-6.2-1.4-8.9-.7-.7-.6-2.2-.4-3.6,2.7.9,5.4,1.7,6.2-1.6.3-1.3-1.9-3.5-3.4-4.8-1-.8-2.8-.7-4.2-.9,0-.8,0-1.7-.2-2.5-2.5-7.8-1.4-14.9,4.3-21.5,2.4-.1,4.3.4,5.9-.2,1.2-.4,2.1-2,3.1-3.1-1.2-1-2.4-2.2-3.7-3-.6-.4-1.6,0-2.4,0,.8-1.6,1.6-3.2,3-4.8,2-.6,3.5-1.2,4.9-1.9-.7-1.4-1.4-2.9-2-4.3,2.1-4.7,0-7.9-3.4-11.1-4.9-4.8-9.4-10-13.9-15.4,1.2-.4,2.2-.7,3.1-.5,6.2,1.8,6.2,1.8,7.1-4.6.1-1,.2-2,.4-2.9q1.4-7.4-5.4-9c-.2,0-.3-.2-.4-.2-8.3-2.7-12.6.6-12.8,9.7-2.9-2-5.9-4-9.2-6.4-.3-2.3-.1-4.2,0-6.4-4.2-2.3-10-.4-13.5-5.7-1.3-2-6.8-1.3-10.9-1.9-1.2,6.9-2.3,13.3-3.5,20.2,5.4.9,10.3,1.6,15.1,2.4M1581.5,210.1c-1.3.7-2.6,1.4-3.9,2,.8,1.1,1.3,2.8,2.3,3.2,2,.9,4.4,1.4,6.6,1.7,3.2.4,5.4-1,6.4-4.3,1-3.3-.6-5.4-3.4-6.9-1.3-.7-2.7-1.4-4-2.1,2-.7,3.5,0,5.1,0,.9,0,2.3-.7,2.7-1.4.3-.7-.2-2.2-.9-2.8-2.7-2.5-9.5-2.5-11.5-.2-2.4,2.7-1.6,6.3,1.7,10.3-.1.1-.3.3-1.1.3M1652.5,222.1c-1.3.7-2.6,1.3-3.9,2,.8,1.1,1.3,2.8,2.3,3.2,2,.9,4.4,1.5,6.6,1.7,3.2.4,5.4-1,6.4-4.3,1-3.3-.5-5.4-3.4-6.9-1.3-.7-2.6-1.4-4-2.1,2-.7,3.5,0,5.1,0,.9,0,2.3-.7,2.7-1.4.3-.7-.2-2.2-.9-2.8-2.7-2.5-9.6-2.5-11.5-.2-2.4,2.8-1.6,6.3,1.8,10.3-.1.1-.3.3-1.1.3M1643.4,306.4c-1.4.8-2.8,1.5-4.3,2.4,4.9,5.3,11.9,6.8,14.6,3.3,5.5-7.2-1.6-9.3-6.6-12.2,3.5-1.6,7.8,4.2,9.2-2.2-4.7-3.9-10.5-4.8-13-1.6-2.8,3.6-1.6,6.8,1.1,10.1-.1.2-.3.3-1,.3M1564.4,167.4c-1.4.8-2.7,1.6-4.2,2.5,5,5.2,11.6,6.4,14.7,3.3,3.2-3.1,1.9-6-5.2-12.1,2.4-1.6,6.9,3.8,7.7-2.4-4.5-3.9-10.4-4.8-12.9-1.7-2.7,3.5-1.7,6.8,1,10.1-.1.2-.3.3-1,.3M1489,155.9c-.1,1.6-.3,3.1-.5,4.9,8.7,1.5,16.8,2.8,25.3,4.2,1-5.9,1.9-11.2,2.8-16.7-4.7-2.4-10.4-.5-14-5.9-1.3-2-6.8-1.3-10.9-1.9-.9,5.2-1.7,9.9-2.7,15.4M1603.7,300.7c-.5,3.1-1.3,6.2-1.3,9.3,0,1.5,1.5,2.9,2.3,4.4,1.2-1.2,2.7-2.2,3.5-3.7.7-1.3.7-3.1,1-5,1.4.5,2.3.9,3.2,1.1,4.3.8,8.8-2.1,9.9-6.3,1.3-4.6-1-9.8-5.2-11-2.8-.8-5.8-1.3-8.8-1.5-.9,0-2.5,1.5-2.8,2.6-.8,3-1.2,6.2-1.9,10.1M1616.3,206.2c-3.7,3.8-4.5,8.1-2.1,12.8,1.7,3.4,7.7,5.9,11.8,4.8,1.3-.3,2.2-1.9,3.3-2.9-1.2-.9-2.2-2.1-3.5-2.6-2-.7-4.1-.9-6.2-1.3,0-.5.2-.9.3-1.4,1.7.2,3.5.7,5.2.5,2.2-.3,6.1-1.3,6.1-2,0-2.7-.5-6.2-2.2-7.9-3.4-3.4-7.9-2.8-12.6,0M1559.3,163.3c1.7-5,.3-8.7-4.3-10.4-4.5-1.7-8.5-.8-11.7,3-2.6,3.2-2.6,8.9-.2,12.1,2.2,3,8.8,5.1,12.2,3.8,1-.4,2.3-2,2.1-2.7-.3-1.1-1.6-2.2-2.7-2.6-2.1-.7-4.4-.8-6.6-1.1,0-.5.1-1,.2-1.5,3.5,0,7,0,11-.6M1627.7,257.7c.9,7.7,5.1,11.2,12.7,10.3,1.3-.2,2.5-1.9,3.7-2.8-1.2-.8-2.3-1.8-3.7-2.3-1.9-.7-3.9-1-5.8-1.5.1-.4.2-.9.4-1.3,1.3.1,2.6.2,3.9.5,3,.6,6.1,1.5,7.5-2.5,1.2-3.4-1-7.3-4.7-8.8-6.2-2.5-11.6.5-14,8.5M1596.8,253.3c2.4-.4,6.1,0,6.9-1.3,1.1-1.7,0-4.9-.6-7.3-.3-1-1.9-1.9-3-2.4-4.2-1.8-8.2-1.3-11.5,2.1-3.1,3.2-3.6,7-1.9,11.1,1.7,4,6.3,6.3,11.8,5.6,1.4-.2,2.5-1.8,3.8-2.8-1.2-.8-2.3-1.8-3.7-2.3-1.9-.7-3.9-1.1-5.9-1.6.1-.4.2-.8.3-1.3,1,0,2,0,3.7.3M1601,332.8c-4.2,3.5-4.8,7.9-2.7,12.6,2.1,4.7,6.6,5.4,11,5.3,1.4,0,2.8-1.9,4.2-3-1.3-.9-2.6-1.9-4-2.5-1.8-.7-3.8-1-5.7-1.5.2-.4.3-.8.5-1.3,1.6.2,3.2.5,4.8.7,2.6.4,5.5,1.3,6.6-2.4,1.1-3.5,0-7-3.2-8-3.3-1.1-7.2-.3-11.5.1M1625.2,258c.7-3.9,1-8.3-2.7-10.4-3.6-2-8.1-2.6-12.2-3.4-.6-.1-2.1,1.5-2.4,2.6-.9,4-1.7,8.1-2.1,12.2,0,1.2,1.5,2.4,2.3,3.7,1.3-.9,3.1-1.6,3.7-2.8.9-1.7.5-4,1.3-5.7.6-1.1,2.5-2.4,3.6-2.2,1,.2,2.2,2.2,2.3,3.5.2,2.1-.8,4.3-.7,6.4,0,1.1,1.5,2.7,2.5,2.9,1,.2,2.6-1,3.3-2,.7-1,.5-2.5,1-4.7M1650,264c-3.5,1.4-3.6,3.4-.4,5,2.1,1.1,4.7,1.7,7.1,1.9,3.2.3,6-1.3,5.9-4.6,0-2.2-1.7-4.5-3.1-6.5-.8-1.1-2.5-1.5-3.8-2.2,1.8-.7,3.2,0,4.6,0,1,0,2.1-.5,2.9-1.1.4-.3.3-2.1.2-2.2-3.5-.9-7.2-2.6-10.6-2.2-3.6.4-3.6,4.2-2.9,7.3.3,1.4.6,2.8.2,4.4M1620.2,340c0,2-.1,3.9-.3,5.9-.3,4.4,2.4,7.5,6.7,7.5.9,0,2.4-.7,2.7-1.4.4-1.1.2-3.3-.3-3.5-4.1-1.5-2.4-4.4-2.3-5.7,2.7-1.9,4.4-3.2,6.1-4.4-1.3-1.6-2.6-3.2-4.4-5.5,0,.5.2-.2,0-.8-.6-1.5-1.4-2.8-2.1-4.2-1.3,1-2.7,2-3.9,3.1-.8.7-1.2,1.9-2,2.4-3,1.7-2.7,3.7-.2,6.6M1627.8,307.6c1.9,1.1,3.8,2.5,5.9,3.3.7.3,2.5-.8,2.9-1.7.4-.9-.2-2.3-.7-3.4-.8-2-1.9-3.9-2.9-5.9.6,0,1.2,0,1.8,0,1.7-1.3,3.5-2.6,5.2-3.9-1.3-1.6-2.5-3.2-4.5-5.7,0,.6.3-.4,0-1.1-.7-1.4-1.6-2.7-2.5-4-1.2,1-2.4,2-3.5,3.1-.8.8-1.6,1.7-2.1,2.7-.8,1.3-2.2,3.5-1.8,3.9,3.4,3.6,1,7.9,2.2,12.6M1645.4,225c-.2-1.2-.1-3.3-.7-3.5-4.1-1.8-1.9-4.5-1.9-5.6,2.6-1.9,5.4-2.9,5.5-4.2.2-1.5-2-3.3-3.2-4.9-1.1-2.1.4-7.2-4.2-5.4-3,1.2-4.6,6.3-6.8,9.6,0,0,0,.4.2.4,3.2,2,1.6,4.9,1.4,7.6-.4,5.6,3.8,8.6,9.6,6.1M1633.3,350.1c.4,1.3.4,3.4,1.3,3.8,2.5,1.1,5.4,2.3,8,1.9,2.1-.3,4.8-2.6,5.4-4.5.5-1.6-1.3-4.4-2.7-6.1-1-1.2-3-1.6-4.5-2.4.2-.4.3-.8.5-1.2,1.5.4,3,1.1,4.5,1.2.9,0,2.2-.6,2.8-1.3.4-.5.1-1.9-.4-2.6-1.8-2.3-8.8-3-11.2-1.3-2.8,2.1-2.7,5.7.2,9.6.3.4.4.9.6,1.3-1.3.3-2.6.6-4.3,1.5M1604.5,205.9c2,.1,4,.3,6,.3.3,0,.9-2,.7-2-1.9-1.2-3.9-2.2-5.9-3.2-.4-.2-1,0-1.5-.1-3.1-.2-5.7.4-6.6,3.9-.8,3.4.4,5.8,3.4,7.5,1.2.7,2.5,1.4,4,2.3-3.4,1.9-7.9-5.5-10.1,2.6,2.8,1,5.4,2.3,8.2,2.9,3.3.7,6.4-.1,7.6-3.9,1.2-4-.8-6.2-4.3-7.8-.9-.4-1.5-1.6-1.4-2.4M1603.8,160.8c.6-.8,1.2-1.6,1.7-2.4,1.1-1.8,2.9-3.5.2-5.5-2.8-2-3.8.3-5,2-4.4,6.2-8.8,12.4-13.1,18.7-1.1,1.6-3.2,3.4-.4,5.4,3,2.2,4-.4,5.3-2.2,3.7-5.1,7.3-10.3,11.3-16M1608.6,182.8c5.3-7.4,10.8-14.7,15.9-22.2.7-1-.1-3.1-.3-4.6-1.5.4-3.6.4-4.3,1.4-4.9,6.5-9.4,13.2-14.1,19.8-2.2,3.1-1.4,4.8,2.8,5.6M1580.1,301.9c3.9.9,4.2-1.7,4.7-4.6.6-3.6.5-8.1,6.6-6.5.6.2,2-2.6,3-4-3.6-1.1-7.1-2.3-10.7-3.2-.8-.2-2.8.6-2.8,1.1-.7,5.6-1.1,11.2-.8,17.2M1525.4,159.3c-.3,1.6-1.1,3.4-.7,4.9.3,1.2,1.6,2.7,2.8,3.1.7.3,2.4-1.1,3.1-2.1.7-1,.8-2.5.9-3.8.2-3.6,1-6.2,5.7-5.3,1,.2,2.4-1.9,3.5-3-1.2-1-2.3-2.4-3.7-3-1.1-.4-2.9.8-3.8.3-6.2-4.1-6.5.4-7.1,4.6-.2,1.1-.4,2.3-.7,4.3M1581.5,335.6c0,.8-.3,1.6-.3,2.5,0,2.8-3.2,6.8,1.7,7.8,5.2,1,3.7-4.1,4.3-6.6.8-3.3,1.5-5.1,5.5-4.5,1.1.2,2.6-2.3,3.9-3.6-3.6-1.2-7.2-2.7-10.9-3.5-.8-.2-2.5,1.6-3.1,2.8-.7,1.2-.7,2.9-1,5.2M1595.3,296.2c-.3,1.6-1,3.3-.7,4.8.3,1.4,1.7,2.6,2.6,3.9,1.1-.9,2.9-1.7,3.2-2.8,1-4.1,1.7-8.4,2-12.7,0-1-1.6-2.7-2.7-3.1-.7-.2-2.7,1.1-3,2.2-.8,2.1-.9,4.5-1.4,7.6M1579.8,176.3c1.6-.6,3.4-1,4.5-2.1.4-.4-.3-3-1.2-3.6-1-.6-3.9-.3-3.9,0-.4,1.7,0,3.6.6,5.7M1597.9,280.6c1.3,1.1,2.6,2.3,4.1,3,.2.1,2.1-1.8,2.1-2.7,0-1.1-1.4-3.1-2-3.1-1.4.1-2.7,1.3-4.2,2.7M1580.1,163.1c1.6.6,3.3,1.2,4.9,1.7.5-1.3,1.5-2.8,1.2-3.9-.3-1-2.4-2.3-3.2-2-1.3.5-2.1,2.2-2.9,4.1Z"/>
  <path class="cls-42" d="M876.2,421.7c-4.2,6.4-8.3,12.8-12.6,19.2-5.2,7.8-8,8.6-16.7,5.1-11.2-4.6-21.6-10.5-29.3-20.1-2.2-2.8-4.4-2.2-7-1.4-15.1,4.9-30.6,5.9-46.3,3.6-37.4-5.5-68.2-35.3-74.2-72.4-1.2-7.5-.3-15.3-.1-23.6,1.7-6.3,3.1-11.8,4.8-17.3,1-3.4,2.5-6.7,3.7-10,4.4-6,8.6-12.2,13.3-18,7.3-8.9,16.8-15,27.5-20.6.8-.5,1-.8,1.3-1.2,0,0,0,0,.4,0,8.4-1.4,16.5-2.9,25-4.4,18.5-.8,35.2,4.1,51.7,12.7,3.9-17.7,7.7-35,11.6-52.6,1.2-5.4,2.3-10.5,3.4-15.6.3-.9.7-1.8.9-2.8,2.3-9.6,5.9-11.8,15.7-10,14.5,2.6,29.1,5.1,43.6,7.7,1.6.3,3.3.6,4.8,1.1,5.9,1.8,7.7,4.8,6.3,10.9-2.2,9.7-4.5,19.4-7,29.8-3.1,13.2-5.9,25.6-9,38.4-4.7,20.4-9.7,40.4-13.5,60.6-2.3,12.3-3.3,25-3.9,37.6-.4,9,3,16.9,11,22.2,1.6,1.1,2.6,2.9,3.9,4.7-3.1,5.7-6.2,11-9.3,16.4M756.1,356.7c5.1,16.6,23.6,25.8,39.2,19.7-.5-5.1-1.5-10.3-1.2-15.3.6-11.1,4-21.5,9.6-31.1,1.5-2.6,1-4.5-1-6.6-8.3-8.5-23.1-10.1-33-3-12.2,8.8-16.1,21-13.5,36.3Z"/>
  <path class="cls-41" d="M667.5,593.1c2.2,14.3,4.2,28.6,6.6,42.9,1.7,10.1.2,12.6-9.7,14.3-41.3,7.2-82.5,14.4-123.8,21.5-6.1,1.1-9.1-.9-10.2-7.1-5.4-30.8-10.6-61.6-15.9-92.4-3.1-18.2-6.4-36.3-9.8-55.3-1.1-6.1-2.1-11.5-3.1-16.9-2.2-13.9-4.4-27.9-6.6-41.8-.6-3.6-1.2-7.2-1.8-10.8-1.3-7.1.6-10,7.5-11.2,12-2.1,23.9-4.1,35.9-6.2,28.7-4.9,57.4-9.8,86.1-14.8,9-1.6,11.5.2,13.1,9.4,2.4,14.6,4.8,29.2,7.2,43.8.9,5.4-1.2,8.6-6.7,9.6-15.2,2.8-30.5,5.3-45.7,7.9-6.2,1.1-12.4,2.2-19.2,3.3,1.4,8.2,2.8,16.1,4.3,24.4,15.3-1.8,30.1-3.5,45-5.2,2.1-.2,4.3-.5,6.5-.5,4.4,0,7,2.1,7.4,6.4,1.4,13.2,2.8,26.5,4.1,40.6,0,9.2-.9,10.1-9.2,11.2-.6,0-1.2.5-2.3.7-14.1,1.5-27.8,3-41.9,4.5,1.6,9.2,3.1,17.8,4.6,26.5,21.8-3.7,43.1-7.3,64.3-11,.9-.2,1.6-1.2,2.8-1.7,5.2.8,9.6,2.1,10.6,7.9Z"/>
  <path class="cls-19" d="M638.3,366c-7.7,4.5-15.4,9.1-23.7,13.7-1.1.5-1.6.8-2.1,1.2,0,0,0,0-.3,0-16.1,5-32,8-48.6,6.8-19.7-2.3-37.5-9-52.5-22.2-24.4-21.6-33.2-48.8-26.9-80.6,4-20.3,13.1-38,29.4-51.4,20.1-16.5,43.6-21.4,68.9-19.1,19.7,1.8,38.3,7.5,53.8,20.5,27.9,23.4,36.9,53.4,29.5,88.7-.4,2-1,3.9-1.8,6.5-3.1,6.3-5.4,12.3-8.9,17.5-3.9,5.8-8.9,11-13.5,16.4,0,0,0,0-.3,0-.8.3-1.2.8-1.6,1.2,0,0,0,0-.3,0-.5.4-.7.7-1,1M606.3,288.1c-5.6-20.9-31.8-24-44.2-17-13.4,7.6-20.1,27.7-14.3,42.9,4.6,11.8,15.9,19.7,29,20.1,12,.4,21.5-6.2,27-18.4,3.8-8.6,4.7-17.6,2.5-27.6Z"/>
  <path class="cls-19" d="M938.7,285.4c16.8-9.8,35-14.6,54.4-14,26.7.8,50.9,8.2,69.6,28.4,32.1,34.7,35.7,98.7-18.9,130.2-28,16.2-57.7,20.6-88.8,9.2-15-5.5-27.5-14.8-38.1-27.6-3.1-4.6-5.8-8.8-8.6-13.2-16.1-35-9.3-75,17.6-102.8,4.4-3.5,8.5-6.9,12.7-10.3M967.9,340.1c-3.6,6.6-5.2,13.7-4.6,21.1,1.1,13.3,7.8,22.9,20.2,27.8,11,4.3,21.6,3.1,30.6-5.2,10.5-9.7,13.7-30.2,7.1-43.6-2.7-5.4-6.5-9.6-12-12.1-13.4-6-32-4.7-41.3,12Z"/>
  <path class="cls-19" d="M697.6,595.4c.2-1.4.6-2.9.6-4.3-.7-31-1.5-61.9-2.3-92.9-.3-10.3,1-12.2,11.1-11.8,18.7.9,36.6-3.8,54.9-5.8,34.1-3.7,65.4,3.1,90.4,28.6,15.3,15.6,21.8,35,23.4,56.4.5,6.5,1.2,13,2.5,19.3,2.3,11,8.6,19.6,17.2,26.7,5.8,4.8,5.7,7.9,0,12.9-7.9,6.9-15.9,13.6-23.8,20.6-4.9,4.4-10.1,5.4-16.6,3.4-27.2-8.3-45.5-30.3-48.6-58.6-1-9.4-1.9-18.9-4.3-28-4.4-16.9-17.3-25.6-35.2-25.1,0,8.4-.1,16.8,0,25.3.5,25.8,1.2,51.6,1.7,77.4.1,5.6-1.7,7.3-7.5,7.5-1.5,0-3,0-5.3,0-12.6-11.2-24.3-22.4-36.3-33.3-7.1-6.4-14.7-12.2-22-18.3Z"/>
  <path class="cls-19" d="M1452.3,604.5c-8.8-17.8-12.6-36.4-9.1-56.1,5.8-32.4,25.3-53.2,55.7-64,19.4-6.9,39.6-9,59.9-4.3,21.7,5.1,36.4,18.8,44.5,39.2,2.9,7.3,4.9,15.2,6.1,23,2.6,16.7-4,27.9-19.7,34.4-15.5,6.3-31.7,9.8-48.2,12.1-3.8.5-6.5-.9-8-4.5-3.6-8.9-7.1-17.9-10.7-26.9-1.5-3.8,0-6.1,3.6-7.4,4.4-1.6,8.8-2.9,13.1-4.7,5-2.1,5.6-5.1,2.1-9.2-8.5-10.1-26-8-33.8,4.5-7.9,12.5-6.6,25.5.1,37.9,8,14.8,21.5,21.3,37.7,22.4,5.3.4,10.6-.1,15.9-.7,8.7-.9,12.9,3.2,10.7,11.6-2.4,9.3-5.2,18.5-8.2,27.7-2.4,7.4-8.4,9.9-15.5,10.4-4,.3-8,.2-12.9.3-5.2-.3-9.6-.2-13.8-.9-7.5-1.2-14.9-2.8-22.4-4.2,0,0,0,0-.2-.2-.5-.4-.8-.5-1.2-.7-8.2-4.1-16.3-8.2-24.5-12.7,0-.9,0-1.5-.2-1.7-9.1-6.7-15.3-15.8-21.1-25.1Z"/>
  <path class="cls-41" d="M1126.3,340.7c.6-2.8-.3-4-3.3-3.6-5.4.7-10.9,1.4-16.4,1.8-5.7.4-8.3-1.5-8.8-7.1-1.3-14.9-2.5-29.8-3.5-44.8-.4-5.3,1.8-7.5,7.3-8,4-.4,7.9-.8,12.8-1.1,1.6-1.2,3-2.4,3-3.5-.1-4.5-.7-8.9-1.2-13.4-.6-6.4-1.4-12.8-1.7-19.3-.3-6.3,1.8-8.7,8.3-9.5,9.9-1.2,19.8-2.2,29.7-3.2,7.4-.8,14.9-1.6,22.3-2.2,7.4-.6,9.8,1.7,10.5,9.2.7,7.6,1.6,15.2,2.6,23.3.2,3.9.2,7.2.2,10.8,5.7-.5,10.2-.9,15-1.3,9.8-1.2,11.4,0,12.3,9.6,0,.8.2,1.7.2,2.9.5,5.8,1,11.1,1.5,16.5.5,7.5,1.1,14.9,1.5,22.4.3,5.2-1.7,7.2-6.9,7.7-5.6.6-11.2,1.3-17.1,1.9,2.3,12.8,4.1,25,10.2,36.2,3.5,6.5,8.4,11.1,15.7,12.9,4.6,1.1,5.8,3.8,4.7,8.1-3,12.1-5.8,24.2-8.9,36.3-2.1,8.2-4.6,10-13.1,9.7-33.6-1.2-53.3-16.3-65.8-50.6-.5-1.4-1-2.8-1.9-4.8-2.5-9.7-4.7-18.9-6.9-28.1-.7-3-1.7-5.9-2.5-8.9Z"/>
  <path class="cls-16" d="M1581.1,368.1c.4.2.4.4.7.7,1.5,11,3.2,21.9.3,32.8-4.2,15.7-14,27.4-26.5,37.1-21.8,16.8-47.2,25.7-73.5,32.2-31,7.7-62.5,11.3-94.5,10-22.9-.9-45.4-4.3-66.1-15-22.8-11.7-34.3-30.6-35-56.6,3.9-.3,7.8-.7,11.8-.9,11.1-.5,22.3-.8,33.4-1.4,3-.2,4.4.6,4.9,3.9,1,6.2,2.6,12.4,3.8,18.6.9,4.5,3.6,6.4,8.2,6.1,18.3-1.2,36.5-2.4,54.8-3.6,6-.4,7.9-2.5,8-8.5,0-5.8-.1-11.7.2-17.5,0-1.3,1.6-3.4,2.7-3.6,14.8-2.2,29.6-4.2,44.7-6.2,2,6.9,3.9,13.6,6,20.2,1.7,5.4,3.6,6.8,9.2,5.6,18.2-3.8,36.4-7.7,54.6-11.6,4.4-.9,6-3.6,5.7-7.9-.5-7.6-.9-15.2-1.4-23.1,16.1-3.9,31.7-7.6,47.8-11.4Z"/>
  <path class="cls-16" d="M435.3,507.8c-.3,17.6-3.4,20.3-21.1,21.2-43.2,2.1-86.4,4.4-129.7,6.7-19.6,1-39.2,2.1-58.9,3-7.7.3-13.7-5.2-14.3-13-.6-8.8-1.2-17.6-1.6-26.4-.4-7.8,4.9-13.9,12.8-14.4,16.6-1.1,33.2-1.9,49.9-2.8,43.4-2.3,86.8-4.5,130.2-6.8,5-.3,10-.4,15-.5,10.4-.3,15,3.5,16.2,13.8,0,.8.3,1.6.6,3.3.3,5.9.6,10.9.9,16M412.5,500.5c.7,1.7,1,3.6,2,4.9,2.9,3.9,8.6,4.1,12.3.7,3.2-3,3.1-8.3-.2-11.5-5.1-5.1-11.4-2.8-14.1,5.9Z"/>
  <path class="cls-16" d="M1232.6,760.2c1.8,10.8-2.8,17.3-13.6,18.1-14.9,1.2-29.9,1.8-44.9,2.5-49.7,2.5-99.4,5-149.2,7.5-10,.5-14.6-4.1-16.3-17.7-.5-5.9-.9-10.9-1.2-15.9.1-1,.4-2,.4-3,0-12.3,4.3-16.9,16.5-17.6,29.4-1.5,58.9-2.9,88.3-4.4,33.9-1.7,67.8-3.4,101.8-5.2,11.6-.6,16.8,3.7,17.4,15.1,0,1.2.3,2.3.6,4.3.2,5.9.3,11,.3,16.1M1033.6,763.2c0-6.1-2.6-9.6-7.3-10-3.3-.2-7.9,3.1-8.6,6.3-1.1,4.4,1.5,8.8,5.8,10.2,4,1.3,7.8-.9,10.2-6.6M1225.4,755c.7-4.1-.5-7.8-4.2-9.2-2.4-.9-5.9-.5-8.4.7-3.7,1.7-4.4,5.7-3,9.1.9,2.2,3.5,4.6,5.9,5.3,4.3,1.3,7.8-.7,9.7-5.8Z"/>
  <path class="cls-2" d="M1130.2,608.6c2.2-22,4.3-43.5,6.4-65,.6-5.6,3-7.5,8.7-6.9,17.9,1.8,35.8,3.6,53.6,5.4,5.5.5,7.3,2.6,6.7,8.2-2.1,22.5-4.4,45-6.6,67.6-2.2,21.9-4.5,43.7-6.5,65.6-.9,10-2.5,11.3-12.6,10.1-16.9-1.9-33.8-3.5-50.6-5.3-4.9-.5-6.9-2.9-6.5-7.6,2.4-23.8,4.8-47.7,7.3-72Z"/>
  <path class="cls-41" d="M1319.6,574.1c-4.6-.3-9.1-.6-13.9-1,0,4.1-.2,7.6,0,11,2.2,30.2,4.6,60.3,6.8,90.5.6,7.7-.7,8.9-8.4,9.5-17.1,1.3-34.1,2.7-51.2,4-7.3.5-9-1.3-9.5-8.6-2.5-32.7-5.1-65.3-7.6-98-1.2-15.3-2.2-30.5-2.9-46.2,22.8,10,45.2,20.4,67.6,30.6,6.3,2.9,12.7,5.4,19,8.1Z"/>
  <path class="cls-15" d="M832.3,204.9c-.8,5.3-1.9,10.4-3.5,15.7-9.7-4.1-19-8.2-28.1-12.6-2.9-1.4-4-.8-5.6,2.2-6,11.3-12.3,22.4-18.7,33.5-3.4,5.8-7.3,11.3-11,17-8,1.5-16,3-24.5,4.5,3.3-4.9,7-9.9,10.8-14.7,11.3-14.1,20.9-29.2,28.5-45.6,1.9-4.1,1.3-6.1-2.9-8-18.4-8.2-36.7-16.8-52.8-29.1-16.2-12.3-29.9-26.9-40.1-44.7-5.8-10.1-9.9-21-9.5-32.7.5-15.9,9.2-26.9,22.7-34.6,32.5-18.6,64.1-4.8,83.2,22.1,19.4,27.5,26.8,58.7,24.6,92.2-.4,5.3-1.5,10.5-2.6,15.7-.7,3.4-.1,5.5,3.4,7,8.7,3.7,17.3,7.9,26.2,12M700.3,118.7c20.3,32.8,52.1,50.2,86.6,64.8,3.2-13.6,3.4-26.6,1.8-39.8-2.8-23-10-44.3-25.4-61.8-16.8-19.2-37.2-24.8-60-10.8-9,5.5-14.2,13.5-11.7,24.2,1.8,7.8,5.5,15.2,8.8,23.3Z"/>
  <path class="cls-36" d="M916.9,156.7c7,1.3,13.5,2.5,20.1,3.7,4.2.8,6,2.7,4.8,7.3-1.4,5.6-2.1,11.4-3,17.2-.5,3.4-2.2,4.3-5.6,3.7-31.5-5.9-63.1-11.8-94.7-17.6-3-.6-5-1.7-4.5-5.2,1.1-6.6,2.2-13.1,3.2-19.7.4-2.9,1.7-3.9,4.8-3.3,8.5,1.7,17,3.2,25.5,4.7,1.6.3,3.2.5,5.1.8,3.4-14.6,6.8-28.7,10.2-43.4-7.2-1.8-13.9-3.8-20.7-5.2-4.6-1-5.6-3.3-4.4-7.5,1.4-4.9,2.6-10,3.9-15,1.5-5.7,2.4-6.3,8-4.9,17.2,4.4,34.5,8.9,51.7,13.3,7.1,1.8,14.1,3.7,21.3,5.4,3.6.8,4.6,2.8,3.7,6.1-1.5,6-3.1,11.9-4.5,17.9-.8,3.3-2.4,4.3-5.8,3.4-7.2-2-14.4-3.6-21.9-5.5-3.3,13.8-6.4,27.2-9.7,41.3,4.2.8,8.2,1.6,12.6,2.6Z"/>
  <path class="cls-36" d="M345.3,64c1.9-5.7,3.8-11.1,5.5-16.5,1-3.1,2.8-4.3,6-3.3,23.7,7.7,47.5,15.2,71.1,23.1,9.7,3.3,13.1,11.8,9.2,21.3-8.9,21.5-17.8,43-26.8,64.5-2.3,5.6-4.5,6.8-10.5,5.7-22-4.3-44-8.8-66-13.1-4.4-.9-5.8-2.8-4.7-7.3,1.4-6.1,2.3-12.4,3.1-18.7.5-3.6,1.7-4.8,5.5-4,12.8,2.8,25.8,5.1,38.6,7.9,4.7,1,7.4,0,9.2-4.7,3.2-8.2,6.9-16.2,10.3-24.3,2.5-5.9,2.1-6.7-3.8-8.6-14.4-4.7-28.7-9.5-43.1-14-4.4-1.4-5.8-3.5-3.7-8Z"/>
  <path class="cls-41" d="M1417.5,608c1.5,12.6,7.1,23.1,17.1,31,10.3,8.2,10.4,9.2,1.1,18.3-6.6,6.4-13.3,12.5-19.8,19-4.7,4.7-9.8,6-16.3,4.4-28.5-7-48.2-29-52.1-58.3-1.4-10.9-2.5-21.8-8-31.7-3.9-7-9.3-12.1-16.4-15.4,2.3.1,4.5.5,6.5,1.2,12.9,4.4,25.8,8.6,38.6,13.2,16.5,5.9,32.9,12.2,49.4,18.3Z"/>
  <path class="cls-44" d="M1233.1,760.2c-.5-5-.6-10.1-.6-15.7,38.5-3.4,77.2-5.4,115.6-9.5,37-3.9,73.9-9.3,110.7-15.2,21.5-3.4,42.6-9,62.2-19,4.7-2.4,9.1-5.6,13-9.1,5.8-5.1,6.6-11.1,1.7-17.3-4.6-5.8-10-11.1-15.8-15.8-6.2-5-13.2-8.9-20.1-13.5,7.2,1.2,14.7,2.8,22.2,4,4.2.7,8.6.6,13.4.9,3.7,3.5,7.1,6.9,10.1,10.6,14.6,17.8,11.7,35.9-7.5,48.7-15.5,10.3-32.9,15.8-50.6,20.4-35.3,9.2-71.4,14.4-107.6,18-40.7,4-81.5,7.2-122.3,10.7-8,.7-15.9,1-24.4,1.5Z"/>
  <path class="cls-36" d="M496.6,147.1c1.4-1.2,3-2.2,4-3.6,3.7-4.9,8.1-5.8,13.5-3,9.8,5.2,19.7,10.3,29.5,15.5,3.9,2.1,4.7,4.6,1.4,8.2-5.7,6.3-11.2,12.8-16.5,19.4-2.8,3.5-5.2,3.3-8.4.7-8.7-6.9-17.6-13.7-27.1-21.1-1.6,9.8-3.1,18.7-4.6,27.6-1.4,8.9-2.9,17.7-4.2,26.6-.5,3.5-2.1,5-5.7,4.4-8.2-1.4-16.4-2.7-24.6-4-3.7-.6-3.9-2.9-3.4-5.9,3-18.5,6-37.1,9-55.6,3.2-19.7,6.6-39.4,9.6-59.1.7-4.3,2.6-5.2,6.4-4.5,7.5,1.3,15.1,2.5,22.7,3.6,3.9.6,5.3,2.2,4.5,6.4-2.5,14.2-4.6,28.6-7,43.5,0,.9,0,1.1,0,1.4.2-.2.5-.4.7-.6Z"/>
  <path class="cls-41" d="M1252.4,526.1c18.1-3.2,36-7.5,54.3-9.5,30.4-3.3,58.6,3.1,81.9,24.3,13.8,12.6,22.1,28.4,24.9,47.3-12.3-3.9-24.1-8.1-36-12.4-31.8-11.6-63.7-22.9-95.3-35-10.3-3.9-19.9-9.8-29.8-14.7Z"/>
  <path class="cls-40" d="M1252,526.1c10.3,5,19.9,10.9,30.2,14.8,31.6,12.1,63.5,23.4,95.3,35,11.9,4.3,23.7,8.6,36,12.8,12.9,5.1,25.4,10.3,38.4,15.6,6.3,9.6,12.5,18.6,21.5,25.3.2.2.1.8,0,1.5-18.6-7.5-36.9-15.3-55.6-23-16.8-6.1-33.3-12.3-49.8-18.3-12.8-4.6-25.7-8.9-38.6-13.2-2-.7-4.2-1.1-6.6-1.5-.4,0-.4,0-.5-.3-.8-.4-1.5-.4-2.2-.5,0,0-.3,0-.4,0-6.4-2.8-12.9-5.3-19.1-8.2-22.4-10.3-44.8-20.7-67.5-31.1-7.7-4.8-15-9.4-22.3-14.2-2.6-1.7-5.1-3.6-7.8-5.9,3.2-4.3,6.5-8.1,9.8-12,12.1,7.4,24.2,14.7,36.4,22.1.8.5,1.7.7,3,1.1Z"/>
  <path class="cls-15" d="M1115.8,261c.8,4.5,1.4,8.9,1.6,13.4,0,1.2-1.4,2.3-2.5,3.5-10.2-1.7-19.9-3.8-29.8-4.8-25.1-2.6-50.2-5.6-75.4-6.6-21.9-.9-43.8.7-65.8,1.3-5.1.2-10.1,1-15.9,1.6,3.9,5.7,7.1,10.5,10.5,15.6-4,3.7-8.1,7.1-12.6,10.3-5-6.7-9.5-13.2-14.4-19.5-1-1.2-3.9-1.8-5.7-1.4-5.9,1.5-11.7,3.6-17.6,5.4,2.8-12.5,5.7-24.9,8.8-37.7,5.1,3.7,9.9,7.8,15,11.5,1.4,1,3.6,1.7,5.2,1.4,30.6-6.1,61.5-6.2,92.4-4.9,34.5,1.5,68.8,4.9,102.9,10.6,1,.2,2,0,3.4.1Z"/>
  <path class="cls-17" d="M590.6,707.1c-29.5,6.5-58.5,13-87.5,19.5-6.9,1.5-12.5-1.2-14.2-6.8-1.6-5.4,1.9-11,9.1-12.7,22.9-5.5,45.8-11.4,69-15.8,29.4-5.6,59-10,88.5-14.9.2,0,.3,0,.5,0,8.5-1.2,14.3,1.9,15.4,8.1,1.1,6.1-3.6,10.6-12.3,11.9-22.7,3.6-45.3,7.2-68.4,10.8Z"/>
  <path class="cls-34" d="M661.6,759.1c-22.1,3.6-43.8,7.2-65.4,10.7-6.9,1.1-12.4-2-13.6-7.8-1.2-5.7,2.6-10.9,9.7-12.1,27.2-4.5,54.4-9.2,81.8-12.8,23.2-3,46.7-4.6,70-6.8,3.1-.3,6.3-.4,9.5-.4,6.1.1,10.6,4.2,10.8,9.6.2,5.3-3.9,9.9-10,10.4-7.3.7-14.6,1-21.9,1.7-23.5,2.4-47,4.9-70.9,7.3Z"/>
  <path class="cls-36" d="M990.9,235.4q-14.6,4.7-21.9-8.4c-2.2-3.9-4.4-7.8-6.6-11.8-2.8-5-2.4-5.6,2.9-8.1,20-9.1,39.9-18.1,59.8-27.4,6.3-2.9,12.4-6.4,18.4-10,3.9-2.4,5.9-1.4,7.8,2.3,3.1,5.9,6.2,11.8,9.7,17.4,2.1,3.4,1.6,5.5-1.5,7.9-20.9,16-43.4,29-68.6,37.9Z"/>
  <path class="cls-36" d="M1218.7,196.8c-.6-1.1-1-1.8-1.4-2.5-2.7-5-2.4-5.6,2.9-8.1,20-9.1,39.9-18.1,59.8-27.4,6.5-3,12.7-6.6,18.8-10.3,3.1-1.8,5.1-1.5,6.8,1.8,3.4,6.5,7,12.8,10.7,19.1,1.6,2.7,1.1,4.6-1.3,6.4-24.1,18.7-50.5,33.1-79.9,42-2.8.8-4.7.2-6.1-2.5-3.3-6.2-6.8-12.2-10.4-18.6Z"/>
  <path class="cls-36" d="M570.6,143.5c.5-3.7,2.8-4.4,5.5-4.1,23.7,2.3,47.4,4.7,71,7.1,7.5.8,14.9,1.7,22.4,2.3,3.9.3,5.7,1.9,5.2,6-.9,7.4-1.5,14.9-2.1,22.4-.3,3.8-2.8,4.1-5.7,3.9-11.8-1.1-23.5-2.1-35.3-3.3-19-1.9-38.1-3.9-57.1-5.6-4.6-.4-6.6-2.1-6-6.9.9-7.1,1.4-14.2,2.1-21.8Z"/>
  <path class="cls-36" d="M1179.7,138.8c2.2,3.9,4.2,7.6,6.3,11.2,1.5,2.4,1.2,4.3-1,6-24.6,19.2-51.6,33.9-81.5,43-2.8.9-4.7.3-6.2-2.4-3.7-6.9-7.5-13.7-11.6-20.4-2.4-4-1-5.7,2.9-7.4,20.3-9.1,40.5-18.4,60.7-27.8,6.5-3,12.7-6.5,18.8-10.3,4.2-2.6,6.6-1.8,8.5,2.6.8,1.8,1.9,3.5,3.1,5.5Z"/>
  <path class="cls-38" d="M625.2,733.7c-11.2,1.9-22,3.8-32.9,5.7-1.1.2-2.3.5-3.4.6-6.7.5-11.5-2.7-12.4-8.2-.9-5.5,2.7-10.4,9.1-11.7,9.3-1.9,18.6-3.8,28-5,32.3-4.4,64.6-8.5,96.9-12.7,7.2-.9,12.9,2.6,13.9,8.4,1,5.9-3.2,10.6-10.7,11.8-1.5.2-3,.2-4.5.4-27.9,3.5-55.7,7.1-84,10.7Z"/>
  <path class="cls-14" d="M697.3,595.2c7.6,6.3,15.2,12.1,22.3,18.5,12,10.9,23.7,22.1,35.9,33.3,6.8,6.2,13.3,12.3,19.7,19-7.6.7-15.1.9-22.6,1.1-6.5-6.3-12.9-12.6-19.9-19.3-6.7-6.4-12.8-12.4-19.2-18.1-4.6-4.1-9.7-7.8-14.6-11.7-7-5.9-14-11.9-21.1-17.7-3.1-2.5-6.4-4.7-9.9-7.1-1.3-5.9-5.7-7.2-11.2-8.1-10.1-6.2-19.6-12.2-29-18.2.6-.2,1.2-.6,1.8-.7,8.3-1,9.2-2,9.2-10.7,19.5,12.9,38.9,26.2,58.7,39.8Z"/>
  <path class="cls-14" d="M1126,340.9c1.1,2.7,2.1,5.7,2.8,8.7,2.2,9.1,4.3,18.3,6.5,27.8-1.2,27.2,7.8,50.7,23.1,72.9,6,7.3,11.6,14,17.4,20.9,5,4.8,9.8,9.4,14.7,14.3-.1,7.1-3.3,11.2-9.3,12.6-6-5.6-12-11.2-18.4-17.2-2.8-3.2-5.1-6-7.5-8.7-3.1-3.5-6.4-6.9-9.5-10.3-.8-1.8-1.3-3.7-2.3-5.3-17.1-25.5-26.3-53.4-23.7-84.3.9-10.5,4-20.8,6.3-31.5Z"/>
  <path class="cls-44" d="M1202.7,268.9c-4.4.4-8.8.8-14.6,1.3,0-3.6,0-6.9.1-10.6,26.5-21,56.1-35.5,87.9-45.4,16.5-5.1,33.5-8.3,50.7-12.5,1.8,4.8,3.2,9.7,4.2,15-3.5,1.1-6.6,1.7-9.7,2.3-34.2,6.4-66.7,17.9-96.9,35.2-7.6,4.3-14.5,9.8-21.8,14.7Z"/>
  <path class="cls-17" d="M592.6,782c10.9-2.5,21.3-5.2,31.9-6.8,23.3-3.6,46.8-6.6,70.2-9.8,1.2-.2,2.3-.2,3.5-.2,6,0,10.6,4,11,9.4.4,5.1-3.4,9.8-9.3,10.6-14.8,2.1-29.7,3.7-44.5,5.9-17.6,2.7-35.1,5.7-52.7,8.7-6.1,1-10.8-.5-13-4.9-2.5-4.8-1.4-9,2.9-12.8Z"/>
  <path class="cls-36" d="M1175.7,471c-5.6-6.7-11.3-13.4-17-20.4,10.7-4.7,21.5-5.8,32.7-1.2,18.3,7.4,28.2,28.1,22.4,47-.6,1.8-.9,3.8-1.2,6.1-3.1,4.2-6.4,8-9.9,12.1-5.5,3.2-10.8,6.1-16.8,9.4-1.6-9.1-3.1-17-4.6-25.4,6-1.7,9.1-5.9,9.4-13.4-.7-9.5-6.3-14.5-14.9-14.2Z"/>
  <path class="cls-32" d="M1083.3,425.8c2.1-4.2,3.9-8.2,6-11.9.7-1.2,2.3-2.5,3.6-2.7.8-.1,2.2,1.7,2.8,2.9,2.4,5.8,4.4,11.9,7,17.6,1.1,2.3,3.2,4.7,5.4,6,5,2.9,10.4,5.1,15.5,7.9,1.6.8,2.7,2.5,4.1,3.8-1.4,1.2-2.6,2.9-4.2,3.6-5.3,2.3-11,3.9-16.2,6.4-2.4,1.2-4.8,3.4-6.2,5.8-3,5.1-5.3,10.7-8.1,16-.8,1.4-2.4,2.4-3.7,3.6-1.1-1.3-2.6-2.5-3.3-4.1-2.4-5.8-4.4-11.8-6.9-17.6-.8-1.9-2.6-3.8-4.5-4.9-5.5-3.1-11.3-5.6-16.9-8.6-1.4-.7-2.8-2.4-3-3.9-.1-.7,2-2.3,3.3-2.9,3.9-1.7,7.9-3.6,12.1-4.7,6.7-1.7,11.3-5.3,13.3-12.4Z"/>
  <path class="cls-43" d="M796,682.3c-.2-.9-.3-1.9-.7-2.8-2.3-6.1.6-11.9,6.9-13.5,1.9-.5,3.9-.8,5.9-.8,23.4.3,46.9.6,70.3.9,2,0,4,.4,5.9,1,4.3,1.3,7.4,5.7,7.1,9.8-.4,4.9-3.3,8.2-8,9-4,.7-8.2.3-12.4.2-18.6-.1-37.3-.3-55.9-.5-5,0-9.9-.5-15.6-.7-1.7-.9-2.7-1.7-3.6-2.6Z"/>
  <path class="cls-34" d="M752.1,667.1c7.9-.2,15.5-.4,23.2-.8,2.5,1.5,4.8,3.3,6.9,5.6,1.1,6.8-1.1,11.4-6.9,14.2-14.8,1-29.5,1.9-44.3,3-10,.7-19.9,1.7-29.8,2.6-1.3.1-2.7.3-4,.3-6.1-.1-10.8-4-11.4-9.1-.5-5,3.5-10.1,9.7-10.8,14.5-1.6,29.1-2.7,43.7-3.9,4.1-.4,8.3-.6,12.9-1Z"/>
  <path class="cls-34" d="M814.5,696c1.6.4,3.1,1,4.7,1.1,6.1.4,10.3,3.2,11.8,9.8-.9,7.4-5.8,9.7-11.6,11.1-13.9.1-27.9.1-41.8.5-9.3.2-18.6.9-27.9,1.4-1,0-2,0-3,0-5.8-.5-10.1-4.5-10.3-9.6-.2-5.2,3.6-9.7,9.5-10.3,10.1-.9,20.2-1.3,30.3-1.9,4-.2,8-.2,12.9-.2,9.1-.6,17.2-1.2,25.3-1.9Z"/>
  <path class="cls-44" d="M1006.9,754.8c.8,5,1.2,10,1.6,15.5-37.5,4.3-73.6-2-109.5-14.2.1-5.3,4-6.6,7.7-8.1,1.9-.8,3.8-1.5,1.9-4,4.2.8,8.5,1.4,12.6,2.5,28,7.5,56.3,11.3,85.7,8.3Z"/>
  <path class="cls-32" d="M433.4,447.3c-4.9-3.6-9.7-6.7-14.3-10.1-2.4-1.7-4.5-3.9-6.7-5.9,2.7-1.4,5.2-3.6,8-4,11.2-1.9,19.1-7.3,23.3-18.1,1.1-2.8,4-4.8,6.1-7.1,1.4,2.8,3.5,5.6,4,8.6,1.9,10.8,7.1,18.6,17.6,22.5,2,.7,3.8,2,5.6,3.3,1,.7,2.2,2.1,2,3-.1,1-1.6,2.1-2.7,2.5-5.5,1.8-11.2,3.2-16.6,5.2-2.3.8-4.6,2.6-6,4.6-3.2,4.6-5.8,9.7-8.8,14.5-.7,1.1-2.5,2.8-3.1,2.6-1.3-.6-2.6-2-3-3.4-1.9-5.8-3.6-11.7-5.4-18Z"/>
  <path class="cls-31" d="M563.3,388c16.7.9,32.7-2.1,48.8-7.1-9.8,5.6-19.7,11.8-30.3,16.4-25.8,11.2-51.8,21.8-77.8,32.3-7.8,3.1-14.1-1.2-12.2-8.2.7-2.7,4.1-5.6,6.9-6.7,20.6-8.5,41.3-16.6,62-24.9.9-.4,1.7-1,2.7-1.8Z"/>
  <path class="cls-34" d="M1235.2,112.2c6.2,5,12.6,9.4,18,14.7,5,4.9,4.4,7-1.2,11-6.2,4.4-12.6,8.7-18.7,13.3-3.1,2.3-5.4,2.3-8.1-.7-6.7-7.4-13.8-14.4-20.6-21.8-4-4.5-3.8-5.1,1-8.4,4.1-2.8,8.6-5.1,12.4-8.4,5.9-5.1,11.3-4.6,17.2.3Z"/>
  <path class="cls-39" d="M960.4,134.9c11.3-7.5,11.4-7.7,22.4,0,5.8,4.1,11.3,8.7,16.2,13.8,4.1,4.2,3.4,6.2-1.3,9.5-6.6,4.7-13.3,9.4-19.9,14.1-2.2,1.6-4.3,2.4-6.5,0-7.3-7.8-14.6-15.4-22-23.1-3-3.2-2.8-5.6,1.2-7.8,3.3-1.9,6.4-4.2,9.9-6.5Z"/>
  <path class="cls-34" d="M1099.1,143.6c-4.9,2.2-9.3,4.5-14.1,6-1.6.5-4.8-.3-5.7-1.6-5.4-7.8-10.3-15.9-15.3-23.9-2-3.1-1.3-5,2.3-6.4,5.6-2.1,11.1-4.5,16.5-6.9,3.6-1.6,6.7-1.4,9.5,1.6,5.2,5.8,10.7,11.3,15.6,17.4,4.6,5.9,3.8,8.1-2.9,11.1-1.8.8-3.6,1.6-5.8,2.6Z"/>
  <path class="cls-39" d="M1140.8,104.2c-5.6,4.8-10.9,9.3-16.2,13.9-2,1.7-3.8,2.4-6.1.3-6.8-6.1-13.8-12-20.5-18.2-4.2-3.9-3.9-4.8.6-8.5,4.4-3.6,8.6-7.4,13.3-10.5,1.8-1.2,5.4-1.9,7.1-.9,7.7,4.2,15.3,8.7,22.3,13.9,4.9,3.6,4.5,5.6-.5,10Z"/>
  <path class="cls-44" d="M435.8,507.9c-.8-5-1-10.1-1.3-15.6,22.4-.2,44.5,3,66.8,7.8,1.4,5.4,2.4,10.8,3.3,16.6-22.6-4.3-45.2-8.4-68.8-8.8Z"/>
  <path class="cls-34" d="M1145.4,462.2c3.5,3.2,6.7,6.6,9.8,10.1,2.4,2.7,4.7,5.5,7.2,8.6-1.2,6.1,0,11.1,4.5,15.3.9.8,1.7,2.7,1.4,3.7-2.4,6.9-5.1,13.6-7.7,20.4-18.8-6.6-32.3-34.9-15.2-58.1Z"/>
  <path class="cls-26" d="M819.7,718.2c5.5-1.7,10.5-3.9,11.5-11,20.1,9.7,40,19.6,60.1,30-3,3.3-6.4,6-10.2,9.2,2.1,1,4.2,1.6,5.8,2.8,1.7,1.2,3,3,4.5,4.6-6.7-2.7-13.5-5.3-20.7-8.4-1.6-2.4-2.8-4.5-4.3-7.3-1.4,1.8-2.2,2.9-3.1,4-14.5-7.9-29-15.8-43.7-23.9Z"/>
  <path class="cls-18" d="M863.3,742.5c1-1.4,1.8-2.5,3.2-4.3,1.5,2.8,2.7,4.8,3.9,7.2,1.8,8.4,6.9,13.1,14.8,15.3,1.7.5,3.7,1.2,4.8,2.4.7.7,0,2.7,0,4.1,0,0-.3.2-.4.2-12,2.6-18.4,10.7-21.5,22-.2.6-.7,1.1-1.8,3-1.8-3.5-3.5-5.7-4.2-8.2-2.2-8.4-7.8-13-15.8-15.3-2.1-.6-4-2-6.4-4.1,10.4-4.8,21.3-8.8,23.3-22.2Z"/>
  <path class="cls-4" d="M883.9,472.5c8.8-3,10.2-10.5,12-17.8.4-1.8,1.8-3.3,2.7-5,1.3,1.3,3.2,2.4,3.9,4.1,3.8,8.9,10.6,13.5,20.1,14.5,1.5.2,2.9,1.7,4.3,2.6-1.1,1.1-2.3,2.2-3.4,3.3-.1.1-.3.2-.4.3-9,3.6-13.8,10.3-14.8,19.9-.2,1.6-1.6,3.1-2.4,4.6-1.3-1.2-2.5-2.3-3.8-3.5-.3-.3-.6-.8-.8-1.3-3.4-8-9.2-12.5-18-13.5-2-.2-3.9-1.9-5.9-2.9,1.6-1.5,3.3-3,4.9-4.5.4-.3.8-.5,1.6-1Z"/>
  <path class="cls-34" d="M671.1,424.6c7.3-5.8,15.4-6.3,21.8-1.8,6.3,4.5,8.9,12.5,6.3,19.9-2.5,7-9.6,11.8-17.1,11.2-6.8-.5-12-3.9-14.7-10.2-3-6.9-1.6-13.3,3.7-19.1Z"/>
  <path class="cls-24" d="M732.7,230.2c-4,1.8-5.7,4.7-6.4,8.6-.7,3.8-2,7.6-3.4,12.7-2.1-2.2-3.8-3.3-4.5-4.9-3.9-8.3-10.1-13.1-19.4-13.9-1.5-.1-3-1.6-4.5-2.5,1.1-1.3,2-3.1,3.5-3.8,8.6-3.7,13-10.2,14-19.3.2-1.4.9-2.8,1.4-4.2,0-.3.5-.4,1.5-1.3,1.5,2,3.4,3.8,4.4,6,3.2,6.9,8.1,11,15.8,11.7,2.5.2,4.9,1.5,7.4,2.3.1.5.3,1,.4,1.5-3.3,2.2-6.6,4.5-10.2,6.9Z"/>
  <path class="cls-31" d="M1217.5,297.9c-.9-5.4-1.5-10.7-1.5-16.5,12.9,2.3,25.3,4.9,37.7,7.6,6.2,6.8,12.4,13.6,18.5,20.7-18.1-3.7-36.2-7.8-54.7-11.9Z"/>
  <path class="cls-23" d="M641.8,364c4.2-5.5,9.2-10.6,13.1-16.4,3.5-5.2,5.8-11.2,8.8-17,10.2-7.6,20.2-15,30.3-22.4,1.3-1,2.6-2,4.2-3.2-.9,3.2-2.4,6.5-3.4,9.9-1.6,5.5-3,11-4.8,16.8-14.7,10.2-29.1,20.1-43.6,30-1.4.9-2.9,1.6-4.7,2.4Z"/>
  <path class="cls-24" d="M1273.9,474.4c-11,2.6-11.5,12.9-15.9,22.1-3.4-6-5.2-11.8-9.1-15.2-4-3.4-10-4.5-16.4-7.1,2.9-1.9,4.7-3.6,6.9-4.4,6.7-2.3,10.4-7,12.1-13.7.5-2.2,2.3-4.1,3.4-6.1,1.3,1.8,3,3.4,3.8,5.5,2.6,6.5,6.9,10.6,14,11.8,2.1.4,4.1,1.7,7.2,3.1-2.6,1.7-4.1,2.7-6,4Z"/>
  <path class="cls-36" d="M698.8,618.4c5,3.4,10,7.1,14.7,11.2,6.4,5.7,12.5,11.8,18.9,18-8.1.5-16.4.8-24.7,1-6,.1-8.1-1.9-8.3-7.8-.2-7.3-.4-14.6-.6-22.3Z"/>
  <path class="cls-31" d="M908.4,398.8c2.7,4.1,5.4,8.2,8.3,12.7-12.2,7.2-25.7,9.6-40,10.3,2.6-5.4,5.7-10.7,9.2-16.4,7.8-2.4,15.2-4.5,22.5-6.5Z"/>
  <path class="cls-44" d="M814.3,695.8c-7.9.9-16,1.5-24.6,2.2-5-3.8-9.5-7.5-14.2-11.6,5.7-3.1,7.8-7.7,6.9-14.2,4.5,3.1,8.7,6.4,13.3,9.9,1.3,1.1,2.3,2,3.5,2.9,5.1,3.5,10,7,15.2,10.8Z"/>
  <path class="cls-30" d="M551.6,133.1c-6.2,3.8-6.3,3.8-10.1-1.8-.6-.8-1.1-1.7-1.7-2.5-7.1-10.7-7.3-8.8,4-15,3-1.6,5.4-1.2,7.5,1.4,2,2.4,3.9,5,6,7.3,3.1,3.3,2.8,5.7-1.2,7.8-1.5.8-2.8,1.8-4.5,2.8Z"/>
  <path class="cls-30" d="M526,110.1c3.9,0,5.5,2,5.9,5.3.1,1.3.5,2.7.4,4-.3,3.5-.3,9.7-1.2,9.9-4.6.7-9.5,0-14.2-.6-.9-.1-1.7-1.8-2.2-3-.4-.9-.3-2-.4-2.9-2.1-16-1.5-12.5,11.8-12.6Z"/>
  <path class="cls-22" d="M891.7,754c-1.7-1.8-3-3.6-4.7-4.8-1.7-1.2-3.7-1.8-5.8-2.8,3.8-3.1,7.2-5.9,10.6-9,1.2-2.3,2.4-4.2,4-6.9,2.9,6.1,5,12.3,12.7,13.2,2.1,2.9.2,3.6-1.7,4.3-3.7,1.5-7.5,2.8-8,8-.9,1.6-1.9,2.8-3.3,4.7-1.3-2.5-2.4-4.4-3.7-6.6Z"/>
  <path class="cls-20" d="M447.3,66.3c-2.1-3.7-4.2-6.9-5.6-10.4-.5-1.2.4-4.1,1.4-4.6,3.5-1.6,8.6-4.5,10.8-3.1,4,2.6,6.4,7.7,9.5,11.8.2.2.2.8.1.9-3.5,2.4-6.8,5.1-10.5,6.9-1.3.6-3.5-.8-5.5-1.7Z"/>
  <path class="cls-20" d="M1152.6,90.3c-1.6-4.4-2.9-8.4-4.1-12.5-.3-.9,0-2.7.2-2.8,4.3-1.1,8.6-2.4,12.9-2.5,1.5,0,3.1,3.1,4.5,4.9.4.5.2,1.3.4,1.9,2.5,11.5,2.4,11.7-9.7,11.7-1.3,0-2.6-.3-4.2-.7Z"/>
  <path class="cls-30" d="M1180.9,92.8c-3.6-3.4-6.8-6.7-10.1-10.1-2.1-2.2-1.7-3.8.7-5.7,8.7-7.2,8.7-7.2,17.1.5,5.9,5.5,6,5.6,0,10.7-2.2,1.9-4.9,3.2-7.6,4.6Z"/>
  <path class="cls-20" d="M428.3,43.1c3.4,1.1,8.4,1.6,8.9,3.3,1.3,4.4.6,9.4.4,14.2,0,.6-2.1,1.7-3.1,1.6-3.5-.3-6.9-.8-10.3-1.6-1.1-.2-2.5-1.6-2.6-2.6-.4-4.1-.9-8.3-.5-12.4.4-4.6,4.3-2.2,7.2-2.5Z"/>
  <path class="cls-41" d="M1320.3,574.5c.5-.2,1.2-.1,2,.3-.5.2-1.2.1-2-.3Z"/>
  <path class="cls-31" d="M612.7,381c.2-.4.7-.7,1.5-1-.2.4-.7.7-1.5,1Z"/>
  <path class="cls-23" d="M639.8,365.1c.1-.4.6-.9,1.3-1.2-.1.5-.6.9-1.3,1.2Z"/>
  <path class="cls-44" d="M1498.3,644.3c.2,0,.5,0,1,.4-.2,0-.5,0-1-.4Z"/>
  <path class="cls-23" d="M638.6,366c0-.3.2-.6.7-.9,0,.3-.2.6-.7.9Z"/>
  <path class="cls-15" d="M740.2,265.1c0,.3-.2.6-.7.9,0-.3.2-.6.7-.9Z"/>
  <path class="cls-7" d="M1253.6,288.7c-12.3-2.4-24.7-5-37.5-7.7-.5-.9-.6-1.7-.6-2.5-.9-9.6-2.4-10.8-12.3-9.6,6.9-4.9,13.8-10.3,21.4-14.6,30.2-17.3,62.7-28.8,96.9-35.2,3.1-.6,6.2-1.3,9.7-1.9,2.3,4,1.4,6.7-2.2,9.7-7.5,6.5-14.5,13.6-21.4,20.8-2.4,2.4-4.1,2.9-7.2,1.6-8-3.6-16.3-6.7-24.4-10.2-2.8-1.2-4.5-.9-6,1.9-6.6,11.7-13.2,23.4-20,35-2.2,3.8-2.4,7,1.3,9.9.9.7,1.5,1.7,2.5,2.9Z"/>
  <path class="cls-29" d="M1320.4,315c13.2-17.1,36-17.7,49.8-4.6,12.4,11.8,13.8,31.4,3,44.8-10.9,13.5-30.1,16.3-44.8,6.5-13.8-9.3-18.3-28.7-10-43.4.6-1,1.2-2,2-3.3M1340.1,355.1c9.7,4.5,18.9,3.3,25.8-3.3,6.5-6.2,8.6-16.1,5.2-24.3-3.6-8.8-12-14-21.8-13.5-9,.4-17.3,7.1-19.7,15.8-2.7,9.7.8,18.7,10.5,25.4Z"/>
  <path class="cls-29" d="M1482.1,286.6c15.3-11.3,35.7-8.3,46.9,6.6,10.6,14.2,7.9,34.8-6.1,45.6-14.5,11.3-35.2,9-46.5-5.2-11.6-14.7-9.3-34.9,5.6-47M1508.8,335.1c11.9-6.5,16-19.1,9.9-30.4-5.8-10.8-19.3-14.6-30.1-8.7-9.8,5.5-13.9,17.7-9.3,28,4.9,11.1,16.2,15.6,29.5,11Z"/>
  <path class="cls-7" d="M1437.5,336.9c.5,3.7,1,7,1.4,10.3.8,6.3-2.8,11.1-8.9,12.2-5.6,1-11.2-2.5-12.1-8.4-1.7-10-3.1-20-4.2-30-.6-5.4,3.4-9.9,8.8-10.9,5.4-1,10.7,1.8,11.9,7.3,1.4,6.3,2,12.7,3,19.6Z"/>
  <path class="cls-8" d="M1535.7,208.1c-5.2-.7-10.1-1.5-15.5-2.3,1.2-6.9,2.3-13.3,3.5-20.2,4.1.6,9.6-.1,10.9,1.9,3.5,5.4,9.3,3.5,13.5,5.7-.1,2.1-.3,4-.4,6.3-3.9,3.1-7.8,5.8-12,8.6Z"/>
  <path class="cls-1" d="M1557.4,206.1c.1-9.3,4.4-12.6,12.7-9.9.2,0,.3.2.4.2q6.8,1.6,5.4,9c-.2,1-.3,2-.4,2.9-1,6.5-.9,6.4-7.1,4.6-.9-.3-1.9.1-3.3.2-2.8-2.3-5.2-4.6-7.7-7.1M1564.1,202.2c.3,1.5.5,3.2,1.1,4.6.1.3,2.5.2,3-.4.7-.8,1.2-3.2.9-3.4-1.3-.8-2.9-.9-5-.8Z"/>
  <path class="cls-28" d="M1569.5,281.5c1.4-.1,3.2-.3,4.2.5,1.5,1.3,3.7,3.5,3.4,4.8-.8,3.3-3.5,2.5-6.2,1.2-.7-2.1-1-4.1-1.4-6.5Z"/>
  <path class="cls-21" d="M1576.3,251.2c1.1-.2,2.1-.6,2.7-.2,1.4.8,2.5,2,3.7,3-1,1.1-1.9,2.7-3.1,3.1-1.6.5-3.5,0-5.7,0,.5-1.9,1.3-3.7,2.3-5.8Z"/>
  <path class="cls-28" d="M1582.2,240.1c1,1.3,1.7,2.7,2.3,4.2-1.5.6-2.9,1.2-4.7,1.7.5-2,1.2-3.8,2.3-5.8Z"/>
  <path class="cls-33" d="M1002.4,533.6c9.5-1.4,17.6.6,24.4,6.9,6,5.6,7.9,12.5,6.2,20.4-2.1,10.1-4.5,20.1-6.7,30.1-.6,2.9-1.9,4.5-4.8,5.5-14,5-28.6,1.8-36.7-8.6-12.2-15.7-6.5-49.4,17.5-54.4Z"/>
  <path class="cls-11" d="M1489.1,155.5c.9-5.1,1.7-9.8,2.6-15,4.1.6,9.6-.1,10.9,1.9,3.6,5.4,9.3,3.5,14,5.9-.9,5.5-1.8,10.8-2.8,16.7-8.4-1.4-16.6-2.8-25.3-4.2.2-1.7.3-3.3.6-5.3Z"/>
  <path class="cls-1" d="M1603.8,300.3c.6-3.5,1-6.7,1.8-9.7.3-1.1,1.9-2.6,2.8-2.6,2.9.1,5.9.6,8.8,1.5,4.2,1.3,6.5,6.4,5.2,11-1.2,4.3-5.7,7.1-9.9,6.3-.9-.2-1.8-.6-3.2-1.1-.3,1.9-.3,3.6-1,5-.8,1.4-2.3,2.5-3.5,3.7-.8-1.5-2.3-2.9-2.3-4.4,0-3.1.8-6.2,1.4-9.8M1616,299.8c1.1-2.4.9-4.5-2-4.7-1,0-3,1.9-3,2.9.1,2.6,1.8,3.8,5,1.8Z"/>
  <path class="cls-28" d="M1616.6,205.9c4.4-2.6,8.9-3.1,12.3.3,1.7,1.7,2.2,5.2,2.2,7.9,0,.7-3.9,1.6-6.1,2-1.7.3-3.5-.3-5.2-.5,0,.5-.2.9-.3,1.4,2.1.4,4.3.6,6.2,1.3,1.3.5,2.3,1.7,3.5,2.6-1.1,1-2,2.6-3.3,2.9-4.1,1.1-10.1-1.5-11.8-4.8-2.4-4.7-1.7-9,2.4-13Z"/>
  <path class="cls-21" d="M1559,163.6c-3.8.3-7.2.3-10.7.3,0,.5-.1,1-.2,1.5,2.2.3,4.5.5,6.6,1.1,1.1.4,2.4,1.5,2.7,2.6.2.7-1.1,2.3-2.1,2.7-3.5,1.4-10.1-.8-12.2-3.8-2.4-3.3-2.4-9,.2-12.1,3.1-3.7,7.1-4.6,11.7-3,4.6,1.7,6.1,5.3,4,10.6Z"/>
  <path class="cls-27" d="M1627.7,257.3c2.5-7.7,7.8-10.6,14-8.1,3.7,1.5,5.9,5.4,4.7,8.8-1.4,4-4.5,3-7.5,2.5-1.3-.2-2.6-.3-3.9-.5-.1.4-.2.9-.4,1.3,1.9.5,3.9.8,5.8,1.5,1.3.5,2.4,1.5,3.7,2.3-1.2,1-2.4,2.7-3.7,2.8-7.7.9-11.8-2.6-12.7-10.7Z"/>
  <path class="cls-28" d="M1596.4,253.2c-1.4-.1-2.4-.2-3.3-.2-.1.4-.2.8-.3,1.3,2,.5,4,.8,5.9,1.6,1.3.5,2.5,1.5,3.7,2.3-1.3,1-2.4,2.6-3.8,2.8-5.4.8-10.1-1.6-11.8-5.6-1.7-4.1-1.2-7.9,1.9-11.1,3.3-3.4,7.3-3.8,11.5-2.1,1.2.5,2.8,1.4,3,2.4.7,2.4,1.7,5.6.6,7.3-.8,1.3-4.5.9-7.3,1.2Z"/>
  <path class="cls-21" d="M1601.3,332.5c4-.2,7.9-.9,11.2.1,3.1,1,4.3,4.4,3.2,8-1.1,3.7-4,2.8-6.6,2.4-1.6-.2-3.2-.5-4.8-.7-.2.4-.3.8-.5,1.3,1.9.5,3.9.8,5.7,1.5,1.4.6,2.7,1.7,4,2.5-1.4,1.1-2.8,3-4.2,3-4.4,0-8.9-.6-11-5.3-2.1-4.7-1.4-9.1,3-12.9Z"/>
  <path class="cls-37" d="M1625.1,258.4c-.3,1.7-.2,3.3-.9,4.3-.7,1-2.3,2.1-3.3,2-1-.2-2.4-1.8-2.5-2.9-.2-2.1.8-4.3.7-6.4-.1-1.3-1.3-3.3-2.3-3.5-1.1-.2-3.1,1.1-3.6,2.2-.9,1.7-.5,4-1.3,5.7-.6,1.2-2.4,1.9-3.7,2.8-.8-1.2-2.4-2.5-2.3-3.7.4-4.1,1.1-8.2,2.1-12.2.2-1,1.8-2.7,2.4-2.6,4.2.8,8.6,1.4,12.2,3.4,3.7,2.1,3.4,6.5,2.6,10.8Z"/>
  <path class="cls-37" d="M1565.8,166.7c-3.1-2.9-4.1-6.2-1.4-9.7,2.5-3.1,8.3-2.2,12.9,1.7-.8,6.2-5.3.8-7.7,2.4,7.2,6.2,8.4,9,5.2,12.1-3.2,3.1-9.7,1.9-14.7-3.3,1.5-.9,2.9-1.7,4.8-2.2.9.1,1.3,0,1.7,0-.3-.3-.6-.6-.8-.9M1568.3,169.4c.6,0,1.2,0,1.7,0-.2-.4-.4-1.1-.5-1.1-.6.2-1.2.5-1.2,1.2Z"/>
  <path class="cls-28" d="M1644.8,305.6c-3.1-2.8-4.3-6.1-1.5-9.6,2.5-3.2,8.3-2.3,13,1.6-1.4,6.4-5.6.6-9.2,2.2,4.9,3,12,5,6.6,12.2-2.7,3.6-9.7,2-14.6-3.3,1.6-.9,3-1.6,4.9-2.1,1,.5,1.5.7,2.3,1.2,1.1.4,1.9.5,2.8.7l.2-.9c-.8-.3-1.6-.6-2.6-1.1-.7-.4-1.2-.6-1.8-.8Z"/>
  <path class="cls-27" d="M1650.4,263.9c0-1.5-.2-2.9-.6-4.3-.7-3.1-.7-6.9,2.9-7.3,3.4-.4,7.1,1.3,10.6,2.2.1,0,.2,1.8-.2,2.2-.8.6-1.9,1.2-2.9,1.1-1.4,0-2.7-.7-4.6,0,1.3.7,3,1.1,3.8,2.2,1.4,1.9,3.1,4.3,3.1,6.5,0,3.3-2.8,4.9-5.9,4.6-2.4-.2-4.9-.8-7.1-1.9-3.2-1.7-3.1-3.6.8-5.1Z"/>
  <path class="cls-27" d="M1619.9,339.7c-2.2-2.6-2.5-4.6.5-6.3.8-.5,1.3-1.7,2-2.4,1.2-1.1,2.6-2.1,3.9-3.1.7,1.4,1.5,2.8,2.1,4.2.2.6,0,1.3,0,.8,1.9,2.3,3.2,3.9,4.4,5.5-1.7,1.3-3.5,2.5-6.1,4.4-.1,1.3-1.8,4.1,2.3,5.7.5.2.7,2.5.3,3.5-.3.7-1.8,1.4-2.7,1.4-4.3,0-7-3.1-6.7-7.5.1-2,.2-3.9,0-6.2Z"/>
  <path class="cls-21" d="M1627.7,307.2c-1.1-4.2,1.3-8.6-2-12.2-.4-.4,1.1-2.7,1.8-3.9.6-1,1.3-1.9,2.1-2.7,1.1-1.1,2.4-2.1,3.5-3.1.8,1.3,1.8,2.6,2.5,4,.3.7,0,1.6,0,1.1,2,2.5,3.2,4.1,4.5,5.7-1.7,1.3-3.5,2.6-5.2,3.9-.6,0-1.2,0-1.8,0,1,1.9,2,3.9,2.9,5.9.5,1.1,1.1,2.5.7,3.4-.4.9-2.2,1.9-2.9,1.7-2.1-.8-3.9-2.1-6-3.7Z"/>
  <path class="cls-37" d="M1654,221.4c-3.7-3.6-4.5-7.1-2.1-9.9,2-2.3,8.9-2.3,11.5.2.7.6,1.2,2.1.9,2.8-.3.8-1.8,1.5-2.7,1.4-1.5,0-3.1-.8-5.1,0,1.3.7,2.6,1.4,4,2.1,2.8,1.5,4.3,3.6,3.4,6.9-.9,3.2-3.2,4.6-6.4,4.3-2.3-.3-4.6-.8-6.6-1.7-1.1-.5-1.6-2.1-2.3-3.2,1.3-.7,2.6-1.3,4.4-1.7,1.1.5,1.6.7,2.4,1.2,1,.2,1.7.2,3.6.2-1.7-.8-2.4-1.1-3.3-1.6-.7-.4-1.2-.6-1.7-.8Z"/>
  <path class="cls-37" d="M1583,209.4c-3.7-3.6-4.5-7.1-2.1-9.9,2-2.3,8.9-2.3,11.5.2.7.6,1.2,2.1.9,2.8-.3.8-1.8,1.5-2.7,1.4-1.5,0-3.1-.8-5.1,0,1.3.7,2.7,1.4,4,2.1,2.8,1.5,4.3,3.5,3.4,6.9-.9,3.2-3.2,4.6-6.4,4.3-2.3-.3-4.6-.8-6.6-1.7-1.1-.5-1.6-2.1-2.3-3.2,1.3-.7,2.6-1.4,4.4-1.7,1.1.5,1.6.7,2.4,1.2,1,.2,1.8.2,3.6.2-1.7-.8-2.4-1.1-3.3-1.6-.7-.4-1.2-.6-1.7-.8Z"/>
  <path class="cls-9" d="M1645.3,225.3c-5.7,2.2-9.9-.8-9.5-6.4.2-2.7,1.7-5.5-1.4-7.6-.1,0-.2-.4-.2-.4,2.2-3.3,3.7-8.5,6.8-9.6,4.6-1.8,3.2,3.3,4.2,5.4,1.2,1.6,3.3,3.4,3.2,4.9-.1,1.3-2.9,2.4-5.5,4.2,0,1-2.2,3.8,1.9,5.6.6.3.5,2.3.6,3.9Z"/>
  <path class="cls-37" d="M1633.5,349.8c1.5-.6,2.7-.9,4.1-1.2-.2-.4-.3-.9-.6-1.3-3-3.9-3.1-7.5-.2-9.6,2.4-1.8,9.5-1,11.2,1.3.5.6.8,2.1.4,2.6-.6.7-1.8,1.3-2.8,1.3-1.5,0-3-.8-4.5-1.2-.2.4-.3.8-.5,1.2,1.5.8,3.6,1.2,4.5,2.4,1.4,1.8,3.2,4.5,2.7,6.1-.6,1.9-3.3,4.2-5.4,4.5-2.5.4-5.4-.9-8-1.9-.8-.4-.9-2.5-1-4.1M1640.5,349.2c-.6,0-1.2-.1-1.8-.2,0,.3-.1.7-.2,1,1.2.2,2.3.4,3.5.5-.3-.4-.6-.7-1.5-1.4Z"/>
  <path class="cls-9" d="M1604.1,205.9c.4.8.9,2,1.8,2.4,3.5,1.6,5.5,3.8,4.3,7.8-1.2,3.8-4.2,4.6-7.6,3.9-2.8-.6-5.4-1.9-8.2-2.9,2.3-8.1,6.8-.7,10.1-2.6-1.5-.9-2.7-1.6-4-2.3-3-1.6-4.2-4.1-3.4-7.5.9-3.5,3.5-4.1,6.6-3.9.5,0,1.1,0,1.5.1,2,1,4,2,5.9,3.2.1,0-.5,2-.7,2-2,0-4-.1-6.3-.2Z"/>
  <path class="cls-37" d="M1603.6,161.1c-3.8,5.4-7.5,10.6-11.1,15.7-1.3,1.8-2.3,4.4-5.3,2.2-2.8-2-.7-3.8.4-5.4,4.3-6.3,8.7-12.5,13.1-18.7,1.2-1.7,2.3-4,5-2,2.7,1.9,1,3.7-.2,5.5-.5.8-1.1,1.6-1.9,2.7Z"/>
  <path class="cls-9" d="M1608.3,182.9c-3.8-.8-4.7-2.6-2.5-5.7,4.7-6.6,9.3-13.3,14.1-19.8.7-1,2.9-.9,4.3-1.4.1,1.6,1,3.6.3,4.6-5.1,7.5-10.6,14.8-16.3,22.2Z"/>
  <path class="cls-9" d="M1579.7,301.8c0-5.8.5-11.4,1.2-17,0-.5,2-1.4,2.8-1.1,3.6.9,7.2,2.1,10.7,3.2-1,1.4-2.4,4.2-3,4-6.1-1.6-6.1,2.9-6.6,6.5-.4,2.9-.7,5.5-5.1,4.4Z"/>
  <path class="cls-27" d="M1525.4,158.9c.2-1.6.5-2.7.7-3.9.6-4.2.9-8.8,7.1-4.6.8.5,2.7-.7,3.8-.3,1.4.6,2.5,1.9,3.7,3-1.2,1-2.6,3.1-3.5,3-4.7-.9-5.5,1.7-5.7,5.3,0,1.3-.2,2.8-.9,3.8-.7,1-2.3,2.4-3.1,2.1-1.2-.4-2.6-1.9-2.8-3.1-.3-1.5.4-3.2.8-5.3Z"/>
  <path class="cls-27" d="M1581.6,335.2c.3-1.9.3-3.5,1-4.8.7-1.2,2.3-2.9,3.1-2.8,3.7.8,7.3,2.3,10.9,3.5-1.3,1.3-2.8,3.7-3.9,3.6-4-.6-4.7,1.2-5.5,4.5-.6,2.5.9,7.7-4.3,6.6-5-1-1.8-5-1.7-7.8,0-.8.2-1.6.3-2.9Z"/>
  <path class="cls-37" d="M1595.4,295.8c.4-2.7.5-5.1,1.3-7.2.4-1,2.3-2.4,3-2.2,1.2.4,2.8,2.1,2.7,3.1-.3,4.3-1,8.5-2,12.7-.3,1.1-2.1,1.9-3.2,2.8-.9-1.3-2.3-2.5-2.6-3.9-.3-1.5.4-3.2.8-5.3Z"/>
  <path class="cls-28" d="M1579.5,176.1c-.4-1.9-.6-3.8-.3-5.5,0-.3,3-.6,3.9,0,.9.6,1.6,3.2,1.2,3.6-1.2,1.1-3,1.4-4.9,1.9Z"/>
  <path class="cls-28" d="M1597.9,280.2c1.4-1.1,2.7-2.2,4.1-2.4.6,0,2,2,2,3.1,0,.9-1.9,2.8-2.1,2.7-1.5-.8-2.8-2-4-3.4Z"/>
  <path class="cls-9" d="M1580,162.7c.9-1.6,1.7-3.2,3-3.7.7-.3,2.9,1,3.2,2,.3,1.1-.7,2.6-1.2,3.9-1.6-.6-3.3-1.2-5-2.1Z"/>
  <path class="cls-33" d="M908.4,398.4c-7.3,2.4-14.7,4.5-22.4,6.5-1.7-1.5-2.7-3.3-4.3-4.4-8-5.3-11.4-13.3-11-22.2.6-12.6,1.6-25.2,3.9-37.6,3.8-20.2,8.8-40.2,13.5-60.6,6.1-2.2,11.9-4.2,17.8-5.7,1.7-.4,4.7.1,5.7,1.4,4.9,6.2,9.4,12.8,14.1,19.6-26.6,28-33.4,68-17.3,103Z"/>
  <path class="cls-46" d="M765.9,260.6c3.2-5.7,7.1-11.2,10.5-17,6.5-11,12.8-22.2,18.7-33.5,1.6-3,2.6-3.6,5.6-2.2,9.2,4.4,18.4,8.6,28,13-3.4,17.4-7.2,34.7-11.1,52.4-16.5-8.7-33.2-13.5-51.7-12.7Z"/>
  <path class="cls-10" d="M755.9,356.3c-2.4-14.9,1.5-27.1,13.7-35.9,9.9-7.1,24.7-5.5,33,3,2,2.1,2.6,3.9,1,6.6-5.6,9.6-9,20-9.6,31.1-.3,5,.8,10.2,1.2,15.3-15.5,6.1-34.1-3.2-39.3-20.1Z"/>
  <path class="cls-7" d="M627.1,566.8c9.9,6,19.4,12,29.1,18.1-.5.8-1.2,1.8-2.1,1.9-21.2,3.7-42.5,7.3-64.3,11-1.5-8.7-3-17.3-4.6-26.5,14.1-1.5,27.8-3,41.9-4.5Z"/>
  <path class="cls-33" d="M606.4,288.5c2.1,9.6,1.2,18.6-2.6,27.2-5.4,12.3-15,18.8-27,18.4-13-.4-24.4-8.3-29-20.1-5.9-15.2.9-35.3,14.3-42.9,12.3-7,38.5-3.9,44.2,17.4Z"/>
  <path class="cls-45" d="M968.1,339.7c9.1-16.4,27.7-17.7,41.1-11.7,5.5,2.5,9.4,6.7,12,12.1,6.6,13.4,3.4,33.9-7.1,43.6-9,8.3-19.6,9.5-30.6,5.2-12.4-4.9-19.1-14.5-20.2-27.8-.6-7.5,1-14.5,4.8-21.5Z"/>
  <path class="cls-35" d="M412.5,500.1c2.7-8.3,9-10.6,14.1-5.5,3.3,3.2,3.3,8.6.2,11.5-3.7,3.4-9.4,3.2-12.3-.7-1-1.4-1.4-3.3-2-5.3Z"/>
  <path class="cls-35" d="M1033.5,763.6c-2.3,5.2-6.2,7.4-10.1,6.1-4.4-1.4-6.9-5.8-5.8-10.2.8-3.2,5.3-6.6,8.6-6.3,4.7.3,7.3,3.9,7.3,10.4Z"/>
  <path class="cls-40" d="M1225.3,755.4c-1.9,4.7-5.3,6.8-9.6,5.4-2.3-.7-4.9-3-5.9-5.3-1.4-3.3-.7-7.4,3-9.1,2.4-1.1,6-1.6,8.4-.7,3.7,1.4,4.9,5.1,4.1,9.6Z"/>
  <path class="cls-3" d="M700.1,118.4c-3.1-7.9-6.7-15.2-8.6-23-2.5-10.7,2.7-18.7,11.7-24.2,22.8-14,43.3-8.4,60,10.8,15.3,17.5,22.6,38.8,25.4,61.8,1.6,13.1,1.4,26.1-1.8,39.8-34.5-14.7-66.2-32.1-86.8-65.1Z"/>
  <path class="cls-25" d="M496.5,147c-.1.3-.4.5-.6.7,0-.3,0-.5,0-1,.2-.2.4,0,.6.2Z"/>
  <path class="cls-6" d="M1175.8,471.3c8.5-.6,14,4.4,14.8,13.5-4.9-4.1-9.8-8.7-14.8-13.5Z"/>
  <path class="cls-12" d="M1339.8,354.9c-9.4-6.5-12.9-15.4-10.2-25.2,2.4-8.7,10.7-15.3,19.7-15.8,9.8-.5,18.2,4.8,21.8,13.5,3.4,8.3,1.3,18.2-5.2,24.3-6.9,6.6-16.1,7.8-26.2,3.1Z"/>
  <path class="cls-12" d="M1508.5,335.3c-12.9,4.4-24.2,0-29.1-11.2-4.6-10.3-.5-22.5,9.3-28,10.7-6,24.3-2.1,30.1,8.7,6.1,11.2,2,23.8-10.3,30.5Z"/>
  <path class="cls-13" d="M1564.4,201.9c1.8.1,3.4.3,4.7,1,.3.2-.1,2.5-.9,3.4-.5.6-2.9.7-3,.4-.6-1.4-.8-3-.9-4.9Z"/>
  <path class="cls-13" d="M1615.7,300.1c-2.9,1.7-4.6.5-4.7-2.1,0-1,2-2.9,3-2.9,2.9.2,3.2,2.3,1.8,4.9Z"/>
  <path class="cls-5" d="M1568,169.2c.3-.5.9-.8,1.5-.9,0,0,.3.7.5,1.1-.6,0-1.2,0-2-.1Z"/>
  <path class="cls-5" d="M1565.6,166.9c.5,0,.8.4,1,.7-.4.1-.7.2-1.3.1-.1-.3,0-.5.3-.8Z"/>
  <path class="cls-5" d="M1646.8,306.7c.8.3,1.6.6,2.4.9l-.2.9c-.8-.2-1.7-.3-2.6-.9.1-.6.2-.7.4-.9Z"/>
  <path class="cls-5" d="M1644.6,305.9c.7,0,1.2.2,2,.6,0,.4,0,.5-.4.9-.7,0-1.2-.2-1.9-.7,0-.3,0-.5.4-.9Z"/>
  <path class="cls-5" d="M1656,222.4c.7.3,1.4.6,3.1,1.4-1.9,0-2.6,0-3.4-.4,0-.6.2-.8.3-.9Z"/>
  <path class="cls-5" d="M1653.8,221.6c.7,0,1.2.2,1.9.6,0,.3,0,.5-.3.9-.7,0-1.3-.2-2-.6,0-.4,0-.5.4-.9Z"/>
  <path class="cls-5" d="M1585,210.4c.7.3,1.4.6,3.1,1.4-1.9,0-2.6,0-3.4-.4,0-.6.2-.8.3-.9Z"/>
  <path class="cls-5" d="M1582.8,209.6c.7,0,1.2.2,1.9.6,0,.3,0,.5-.4.9-.7,0-1.3-.2-2-.6,0-.4,0-.5.4-.9Z"/>
  <path class="cls-5" d="M1640.8,349.3c.6.5.9.9,1.2,1.2-1.2-.2-2.3-.4-3.5-.5,0-.3.1-.7.2-1,.6,0,1.2.1,2.2.3Z"/>
</svg>