<?xml version="1.0" encoding="UTF-8"?>
<svg id="Layer_1" data-name="Layer 1" xmlns="http://www.w3.org/2000/svg" version="1.1" viewBox="0 0 1920 885">
  <defs>
    <style>
      .cls-1 {
        fill: #205374;
      }

      .cls-1, .cls-2, .cls-3, .cls-4, .cls-5, .cls-6, .cls-7, .cls-8, .cls-9, .cls-10, .cls-11, .cls-12, .cls-13, .cls-14, .cls-15, .cls-16, .cls-17, .cls-18, .cls-19, .cls-20, .cls-21, .cls-22, .cls-23, .cls-24, .cls-25, .cls-26, .cls-27, .cls-28, .cls-29, .cls-30, .cls-31, .cls-32, .cls-33, .cls-34, .cls-35, .cls-36, .cls-37, .cls-38, .cls-39, .cls-40, .cls-41, .cls-42, .cls-43, .cls-44, .cls-45, .cls-46, .cls-47, .cls-48, .cls-49, .cls-50 {
        stroke-width: 0px;
      }

      .cls-2 {
        fill: #316b95;
      }

      .cls-3 {
        fill: #feffff;
      }

      .cls-4 {
        fill: #346d96;
      }

      .cls-5 {
        fill: #69fdef;
      }

      .cls-6 {
        fill: #eef2f5;
      }

      .cls-7 {
        fill: #346e96;
      }

      .cls-8 {
        fill: #fcfdfe;
      }

      .cls-9 {
        fill: #316d96;
      }

      .cls-10 {
        fill: #215576;
      }

      .cls-11 {
        fill: #fcfefe;
      }

      .cls-12 {
        fill: #205072;
      }

      .cls-13 {
        fill: #316e96;
      }

      .cls-14 {
        fill: #434244;
      }

      .cls-15 {
        fill: #356e97;
      }

      .cls-16 {
        fill: #62efe4;
      }

      .cls-17 {
        fill: #205073;
      }

      .cls-18 {
        fill: #6bfff0;
      }

      .cls-19 {
        fill: #488dbf;
      }

      .cls-20 {
        fill: #4a8ec0;
      }

      .cls-21 {
        fill: #366f97;
      }

      .cls-22 {
        fill: #66d6fd;
      }

      .cls-23 {
        fill: #316b94;
      }

      .cls-24 {
        fill: #215676;
      }

      .cls-25 {
        fill: #65d3fa;
      }

      .cls-26 {
        fill: #235979;
      }

      .cls-27 {
        fill: #6bfdef;
      }

      .cls-28 {
        fill: #f9fbfc;
      }

      .cls-29 {
        fill: #6cfff0;
      }

      .cls-30 {
        fill: #225174;
      }

      .cls-31 {
        fill: #215475;
      }

      .cls-32 {
        fill: #225877;
      }

      .cls-33 {
        fill: #fbfcfd;
      }

      .cls-34 {
        fill: #6bfef0;
      }

      .cls-35 {
        fill: #27637f;
      }

      .cls-36 {
        fill: #6afff0;
      }

      .cls-37 {
        fill: #66d7fd;
      }

      .cls-38 {
        fill: #fdfefe;
      }

      .cls-39 {
        fill: #336c95;
      }

      .cls-40 {
        fill: #1f5073;
      }

      .cls-41 {
        fill: #326b95;
      }

      .cls-42 {
        fill: #225777;
      }

      .cls-43 {
        fill: #498ec0;
      }

      .cls-44 {
        fill: #326c95;
      }

      .cls-45 {
        fill: #1f4f72;
      }

      .cls-46 {
        fill: #488cbf;
      }

      .cls-47 {
        fill: #488ec0;
      }

      .cls-48 {
        fill: #4b8fc0;
      }

      .cls-49 {
        fill: #215173;
      }

      .cls-50 {
        fill: #fdfeff;
      }
    </style>
  </defs>
  <path class="cls-50" d="M417.5,1c4,0,8,0,12.2.4,2.9.9,5.7,1.4,8.5,2,5.5,1.2,11.1,2.4,16.6,3.6,5.8,1.4,11.9,2.2,17.3,4.5,10.7,4.6,17.4,13.8,23.2,23.3,3.3,5.4,6,11.5,7.8,17.5.9,3.1,1.6,4.3,4.8,4.7,7.5,1.1,14.5,3.9,20.1,9.1,4.3,4,9.5,5.8,15,5.7,18.8-.2,33.4,7.1,43.8,22.8,2.8,4.3,6.9,6.5,12.5,6.5,5.2,0,10.4,1.2,15.6,1.6,6.5.6,13,1,19.1,1.4.5-8.7.8-16.6,1.5-24.4,1.4-15.2,7.4-28.7,17.7-39.7,24.6-26.3,55.4-37.2,90.9-31.8,20.9,3.2,39.3,13.3,54.2,28.4,9,9,16.5,19.5,24.3,28.8,0,0,.4-1.2.8-2.5,2.5-8.4,6.2-16.3,12.8-22,11.9-10.2,26-12.2,40.9-8.5,24.7,6.1,49.3,12.2,73.9,18.7,18.9,4.9,32.2,15.7,35.5,36.2.3,1.7,1.8,3.8,3.3,4.8,10.9,7,21.9,13.8,32.4,20.4,1.4-3.8,2.9-9,5.2-13.7,4.6-9.2,12.8-14.3,22.2-17.9,4.6-1.8,9.8-3.3,11.9-9.1.9-2.5,3.2-4.6,5.3-6.4,7-6,14-12,21.3-17.4,10.9-8.1,23.1-10.7,36.5-8.2,1.1.2,2.6-.1,3.6-.7,10.6-5.5,22-6.9,33.7-7,3.3,0,6.6-.3,10-.2,6.8.2,14.1-.9,20.4,1.1,18,5.6,30.2,18.5,39.7,34.9,1.1.2,2.7.2,4.3.7,21.1,6.8,38,19.7,51.6,36.8,2.2,2.7,3.7,2.5,6.4,2.3,5.2-.4,10.7-.9,15.8,0,14.6,2.5,24.8,11.4,31.7,24.2,20.6-9.9,40.1-11,56.6,6.6,4-4.8,7.4-10.2,12-14.1,7.7-6.6,17-9.3,27.2-9.4,1.3,0,3-1.7,3.8-3.1,4.4-7,7.6-14.9,13-21,17.4-19.8,40.1-24.8,65.2-20.6,14.9,2.4,29.8,5.3,44.7,7.8,14.8,2.5,29.6,4.7,44.3,7.2,14.9,2.5,29.8,5.3,44.7,7.8,15.9,2.7,31.8,4.9,47.6,8.1,26.8,5.5,47.4,29.1,50.5,54,0,.7,1.3,1.2,2,1.9,0,4,0,8-.4,12.3-.7,1.1-1.3,2-1.5,2.9-5.3,31.6-10.4,63.2-15.7,94.8-5.1,30.8-11,61.5-15.3,92.4-5.8,41.4-40.1,66.7-79.4,59.6-5.7-1-11.4-2.2-17.2-2.8-1.6-.2-4.6.9-5,2.1-4.6,12.9-11.7,24.2-20.6,34.9,4.9,3.4,9.7,6.6,14.6,10,6.2,7.1,13.2,13.4,18,21.2,13.2,21.5,20.7,44.9,19.1,70.8-2.6,22.9-13.4,40.1-32.7,52-3.2,2-4.2,4.4-5,7.8-3.9,17.9-7.8,35.8-17.6,51.7-.8,1.4-.8,3.4-.8,5.1,0,7,.9,14,0,20.9-3,21.7-15.6,37.4-33.1,49.6-20.7,14.4-44.5,21.5-68.6,27.6-31,7.8-62.5,12.5-94.2,16.1-24.1,2.8-48.2,5.5-72.3,7.7-19.9,1.8-39.8,2.8-59.7,4.4-2.1.2-4.8.9-6.1,2.4-11.6,12.9-26.5,17.6-43.3,18.4-19.3.9-38.5,2-57.8,2.9-29.9,1.5-59.8,2.8-89.7,4.3-14,.7-27.9,1.2-41.9,2.2-15.4,1.1-28.8-3.4-40.5-13.4-1.7-1.5-4.2-2.8-6.4-2.9-22.2-.8-44-4.2-65.5-9.3-6-1.4-8.1-.6-10.9,4.7-7.9,15.2-20.8,23.1-37.5,23.1-16.5,0-29.1-8-37.4-22.7-1.2-2.1-3.2-4.2-5.4-5.4-11.7-6.8-19.7-16.3-22.2-29.8-.7-3.6-.8-7.2-1.2-10.7-3.2,4.2-5.9,8.4-9.2,12.1-9.8,10.6-22.1,15.7-36.4,16-4.5,0-7.9.8-10.1,5.9-2.2,5.1-5.7,9.8-9.4,14-10,11.1-23.4,14.2-37.6,16.1-28.6,3.9-57.3,7.6-85.7,12.9-36.2,6.8-64.9-19.2-63.1-52,0-1.1,0-2.4-.3-3.4-2.4-8.2-4.9-16.4-7.5-25-8.6,2.1-18.4,4.6-28.2,7-22.8,5.6-44.7-3-56.8-23.1-3.4-5.5-4.7-12.3-7.1-18.9,0-5.1-.9-9.9,0-14.4,4.5-19.8,15.9-33.9,36.1-40.2,1.8-.4,3.2-.9,5.3-1.6-6.6-38.8-13.2-77.3-20-117.3-3.6.8-8,.5-10,2.5-10.8,11.1-24.2,15.5-39.1,16.4-19.6,1.1-39.2,2.1-58.8,3-23.6,1.1-47.2,2.2-70.8,3.3-7.8.4-15.6,1.1-23.4,1.4-16.4.6-32.9,2.1-49.3,1.3-22.7-1.1-42.4-19.6-46.3-42.2-1.5-8.6-1.4-17.5-2.2-26.3-.1-1.5-1.2-2.9-1.9-4.4,0-4.7,0-9.4.3-14.2,1.8-4.7,2.8-9.4,4.8-13.7,9.8-21.1,26.5-32.1,50.2-33,11-.3,21.5-.7,33.1-1.2-2.3-1.7-3.4-2.5-4.6-3.4-42.9-29-66.2-69.7-71.9-120.8-.8-6.9-1.2-13.8-1.8-21.2.6-7.8,1.3-15.2,1.9-22.5,1.2-14.6,5.5-28.4,11.5-41.6,8.9-19.8,21.7-36.7,38.4-50.8,16.4-13.9,34.2-25.3,54.5-32.7,1.5-.6,3.4-2.4,3.6-3.9,1.3-9.7,2-19.5,3.2-29.3,1.2-9.2,3.8-18,9.4-25.7,1.4-1.9,2.4-4.6,2.6-6.9.5-7.4-.5-15.1.9-22.3,2-9.9,5.7-19.4,8.8-29.1,7.5-23.6,31.5-34.8,54.9-27.4,8.7,2.8,17.4,5.6,26.1,8.4,6.3-5.9,10.7-8.1,21.5-10.8.7-.2,1.2-1.3,1.8-2M639.5,365s0,0,.7,0c.4-.4.9-.8,1.3-1.1,0,0,0,0,.7,0,1.4-.8,3-1.5,4.3-2.4,14.5-9.9,28.9-19.8,43.4-28.7-5.7,47.2,27.5,82.2,63,92.5,19.5,5.6,38.7,5.1,58-.9,2.3-.7,4.4-1.8,6.6,1,7.7,9.8,18.2,15.9,29.6,20.5,8.7,3.5,11.5,2.7,16.7-5.1,4.2-6.4,8.4-12.8,13.5-19,13.9-.8,27.3-3.2,40.2-9.7,10.2,12.3,22.6,21.5,37.7,27,31.1,11.4,60.8,7,88.7-9.2,54.6-31.5,51-95.6,18.9-130.2-18.9-20.4-43.2-27.8-70.1-28.4-19.2-.5-37.2,4.3-54.1,13.3-3.2-4.8-6.5-9.5-10.3-15.2,5.5-.6,10.2-1.4,14.9-1.6,22.3-.7,44.6-2.3,66.8-1.4,25.2,1,50.3,4.1,75.4,6.6,9.8,1,19.6,3.1,28.5,4.8-4,.4-8,.7-11.9,1.1-5.5.6-7.6,2.7-7.3,8,1,14.9,2.1,29.9,3.5,44.8.5,5.5,3.1,7.5,8.8,7.1,5.5-.4,10.9-1.1,16.4-1.8,3.1-.4,3.9.8,2.7,4.1-2.1,10.4-5.1,20.7-6,31.2-2.7,30.9,6.6,58.8,23.7,84.3,1.1,1.6,1.6,3.5,1.8,5.7-16.8,23.1-3.3,51.3,15.5,57.9,2.6-6.8,5.3-13.6,7.7-20.4.3-1-.5-2.9-1.4-3.7-4.5-4.2-5.7-9.2-3.7-14.8,6,5.6,12,11.2,18.1,17.6,1.4,8,2.9,15.9,4.5,25,6-3.3,11.4-6.2,17.2-8.6,2.6,1.8,5.1,3.7,7.7,5.4,7.3,4.7,14.6,9.4,21.8,15,1.1,14.9,2.1,29.9,3.2,44.8,2.5,33,5.2,66,7.7,99,.6,7.3,2.2,9.1,9.5,8.6,17.4-1.2,34.8-2.7,52.2-4,6.3-.5,7.9-2.1,7.5-8.5-1.9-25.7-3.9-51.4-5.8-77.1-.6-8.2-1.1-16.5-1.7-25.4,5.3.4,9.9.7,14.6,1.2,0,0,.3,0,.7.5.7.1,1.3.2,2,.3,0,0,0,0,.3.7,7.4,3,12.8,8.1,16.7,15,5.5,9.9,6.6,20.8,8,31.7,3.8,29.3,23.6,51.3,52.1,58.2,6.5,1.6,11.6.4,16.3-4.3,6.5-6.5,13.3-12.6,19.8-19,9.3-9,9.2-10-1.1-18.3-10-8-15.6-18.4-16.3-31,18.4,7.7,36.7,15.5,55.2,23.1,0,0-.1,0,.2.5.6.2,1.2.4,2.2,1.1,7.4,3.7,14.9,7.5,22.6,11.7.4.1.7.3,1.1.4,0,0,0,0,.5.5,6.7,4.4,13.7,8.3,19.9,13.3,5.8,4.6,11.2,10,15.8,15.8,4.9,6.1,4.1,12.2-1.7,17.3-4,3.5-8.4,6.7-13,9.1-19.6,10-40.7,15.6-62.2,19-36.8,5.8-73.7,11.3-110.7,15.2-38.4,4.1-77,6.1-115.9,8.3-.1-1.2-.3-2.3-.4-3.5-.7-11.4-5.8-15.8-17.4-15.1-33.9,1.8-67.8,3.5-101.8,5.2-29.4,1.5-58.9,2.8-88.3,4.4-12.3.6-16.5,5.2-16.5,17.6,0,1-.2,2-1.3,3-29,3-57.3-.8-85.2-8.4-4.1-1.1-8.4-1.7-13-3.1-7.4-.6-9.6-6.7-12.5-12.9-1.7,2.7-2.8,4.6-4.7,6.2-19.9-9.9-39.7-19.8-59.8-30.4-1.7-6-5.9-8.8-12-9.2-1.6-.1-3.1-.7-5.2-1.6-4.9-3.5-9.8-7-13.7-10.6,5,.3,9.9.7,14.9.7,18.6.2,37.3.4,55.9.5,4.1,0,8.3.4,12.4-.2,4.7-.8,7.6-4,8-9,.3-4.1-2.9-8.5-7.1-9.8-1.9-.6-3.9-1-5.9-1-23.4-.4-46.9-.7-70.3-.9-2,0-4,.3-5.9.8-6.3,1.6-9.2,7.4-6.9,13.5.3.9.4,1.9,0,2.3-4.2-3.3-8.5-6.6-13-10.5-2.3-1.8-4.5-3.6-7.1-5.9-6.5-6.1-13-12.2-18.6-18.2,1,0,2,0,3,0,8-.1,9.1-1.3,9-9.5-.6-25.3-1.2-50.6-1.7-75.9-.2-8.3,0-16.5,0-24.8,18.2-.5,30.9,8.3,35.4,25.5,2.3,8.9,3.2,18.3,4.1,27.6,2.9,28.2,21.3,50.3,48.5,58.6,6.5,2,11.6,1,16.6-3.4,7.8-6.8,15.7-13.4,23.5-20.2,6.2-5.4,6.2-8.3,0-13.6-6.3-5.4-12.2-11.3-14.5-19.3-2.3-8.4-4.1-17.1-4.8-25.8-1.8-21.6-8.1-41.2-23.5-56.9-25-25.5-56.3-32.4-90.4-28.6-18.8,2.1-37.3,6.6-56.4,5.8-8.2-.3-9.8,2-9.6,10.2.8,31.3,1.6,62.6,2.4,93.9,0,1.6-.4,3.2-1.2,4.4-19.5-13.3-39-26.7-58.4-40.9-1.4-13.2-2.7-26.5-4.1-39.7-.5-4.3-3.1-6.5-7.4-6.4-2.2,0-4.3.3-6.5.6-14.8,1.7-29.7,3.5-45,5.2-1.5-8.2-2.8-16.2-4.3-24.3,2.9-.5,5.1-1,7.4-1.4,18.8-3.2,37.7-6.4,56.5-9.7,6.9-1.2,8.6-4,7.5-10.8-2.3-14.3-4.7-28.6-7-42.8-1.6-9.5-3.9-10.9-13.5-9.3-26.5,4.6-53.1,9-79.7,13.6-14.1,2.4-28.2,4.8-42.3,7.3-6.5,1.2-8.2,4-7.1,10.6.7,3.8,1.3,7.5,1.9,11.3,2.2,13.9,4.4,27.9,5.8,41.7-21.9-4.7-43.9-7.9-66.5-9-.2-.8-.4-1.6-.5-2.4-1.2-10.3-5.8-14.2-16.2-13.8-4.8.2-9.7.2-14.5.5-44.5,2.3-89.1,4.6-133.6,6.9-15.6.8-31.2,1.6-46.9,2.7-8.1.6-13.2,6.7-12.8,14.9.5,8.5,1,16.9,1.5,25.4.5,8.4,6.5,13.9,14.8,13.5,25.8-1.3,51.5-2.6,77.3-3.9,36.9-1.9,73.8-4,110.7-5.7,17.7-.8,20.8-3.7,22.1-21.2,23.1.3,45.7,4.4,68.6,9.9,3.2,18.2,6.5,36.3,9.6,54.5,5.3,30.8,10.5,61.6,15.9,92.4,1.1,6.2,4.1,8.2,10.2,7.2,41.3-7.2,82.5-14.3,123.8-21.5,10-1.7,11.4-4.2,9.7-14.3-2.3-14.3-4.4-28.6-5.9-42.7,3.2,2.3,6.5,4.5,9.6,7,7.1,5.8,14.1,11.8,21,18.6.2,7.4.4,14.9.7,22.3.2,5.3,2.4,7.4,7.8,7.3,8.4-.1,16.9-.4,25.9-.3,6.5,6.3,12.9,12.6,18.6,19-8.8.6-17.6,1.2-26.4,1.9-10.3.9-20.6,1.7-30.8,3.1-5.3.7-8.9,5.5-8.7,10.1.2,4.8,4.5,8.9,9.9,9.5,1.6.2,3.3,0,5-.1,10.3-.9,20.5-1.9,30.8-2.6,14.6-1.1,29.2-2,44.1-2.3,4.5,3.7,9,7.5,12.7,11.2-4.3,0-8.6,0-13,.3-9.8.5-19.6,1-29.3,1.8-5.9.5-9.7,5.1-9.5,10.3.2,5.1,4.5,9.1,10.3,9.6,1,0,2,0,3,0,9.3-.5,18.6-1.2,27.9-1.4,13.9-.3,27.9-.3,42.3,0,14.5,7.9,29,15.8,43.4,24.3-2.2,12.9-12.9,17.1-23.3,21.9,3.2,2.3,5.8,4,8.7,4.8,6.6,1.9,10.7,6,12.7,12.6.9,3.1,2.9,5.9,4.4,8.9.5,0,1.1-.1,1.6-.2,1.3-3,3-5.8,4-8.9,1.8-6,5.2-10.2,11.5-11.8,2.5-.7,5-1.9,7.2-3.3.7-.5.8-3.2.1-3.9-1.2-1.2-3.1-1.9-4.8-2.4-7.9-2.1-13-6.8-13.9-14.7,6.7,2.7,13.5,5.3,20.7,8.5,1,1.9,2.1,3.9,3.4,6.3,1.4-1.9,2.4-3.1,4.1-4,35.5,11.8,71.6,18,109.3,15,1.6,12.7,6.2,17.4,16.2,16.9,49.7-2.6,99.4-5,149.2-7.5,15-.8,29.9-1.3,44.9-2.5,10.9-.9,15.4-7.4,14.5-18.3,8-.5,16-.8,23.9-1.5,40.8-3.5,81.6-6.7,122.3-10.7,36.2-3.6,72.3-8.9,107.6-18,17.9-4.6,35.4-10.2,51-20.7,18.7-12.7,21.6-30.7,7.4-48.1-3.1-3.8-6.6-7.4-9.1-10.9,3.8,0,7.7,0,11.5-.3,7-.4,13.4-2.6,15.8-10,3.3-10.1,6-20.4,8.9-30.6,1.2-4.3-.9-7.3-4.9-8.4-2.4-.7-5.2-.5-7.8-.3-18,1.7-34.6-.9-47.4-15.3-10.9-12.2-13.2-31.9-5-44.6,7.8-12.2,24.6-14.9,33.5-5.4,4.4,4.6,3.8,7.8-2,10.2-4.2,1.7-8.5,2.9-12.7,4.5-3.5,1.3-5,3.6-3.5,7.4,3.6,9,7.1,17.9,10.6,26.9,1.4,3.6,4.4,5.2,8,4.4,16-3.8,32.2-7,47.7-12.1,16.3-5.4,22.6-17.3,20.1-34.5-1.2-7.8-3.2-15.7-6.1-23-8.2-20.4-22.9-34.1-44.7-39.1-19.7-4.5-39-2.2-58.1,3.7-45.3,14.2-69.1,60.2-54.4,105.3,1.7,5.1,3.6,10.1,4.7,14.9-12.3-5.1-24.6-10.2-36.9-16.1-3.2-18.5-11.5-34.3-25.3-46.9-23.3-21.2-51.5-27.6-81.9-24.3-18.2,2-36.2,6.2-55,9.3-.9-.3-1.8-.5-2.6-1-12.1-7.3-24.3-14.7-36.7-22.9.4-1.9.7-3.8,1.3-5.7,5.9-18.9-4.1-39.6-22.4-47-11.2-4.5-22-3.5-33.3.4-14.9-21.7-23.9-45.2-22-71.6.5,1.4,1,2.8,1.5,4.2,12.4,34.1,32.1,49.4,65.2,50.6,9.2.3,11.4-1.1,13.7-10,3-11.9,5.8-23.9,8.8-35.8,1.1-4.3,0-7.1-4.6-8.2-7.6-1.8-13.4-6.6-16-13.7-4.2-11.3-7.4-22.9-11.3-35.2,7.3-.8,13-1.5,18.8-2.1,4.6-.5,7-2.7,6.6-7.5-.6-7.5-1.1-14.9-.9-22.4,1.3.2,2.6.3,3.9.6,16.9,3.8,33.7,7.7,50.8,12.4,4,28.6,8,57.2,12,85.8,4.6,0,8.6.1,12.6,0,13.8-.5,27.6-1.1,41.4-1.8,4.8-.2,7.5,1.6,8.4,6.4,1.1,6.1,2.6,12,3.8,18.1.5,2.7,1.5,4,4.6,3.7,8-.7,15.9-1.1,23.9-1.6,6.7-.5,13.5-1,20.6-1.5,0-7.4,0-14.2,0-21,0-4.3,2-7,6.3-7.6,18.5-2.6,36.9-5,55.4-7.6,4.6-.6,7.2,1.4,8.3,5.9,1.4,5.5,3.3,10.8,4.7,16.3.6,2.3,1.4,3.6,4.1,3,14.6-3.2,29.2-6.2,44.1-9.4-.4-7.3-.9-14.3-1.2-21.2-.4-7.4.5-8.5,7.8-10.3,16.8-4,33.6-8,50.9-11.5.5,3.8,1,7.6.7,11.4-15.6,3.7-31.3,7.5-47.4,11.4.5,7.9.8,15.5,1.4,23.1.3,4.3-1.3,7-5.7,7.9-18.2,3.8-36.4,7.8-54.6,11.6-5.6,1.2-7.6-.2-9.2-5.6-2.1-6.6-4-13.3-6-20.2-15.1,2.1-29.9,4-44.7,6.2-1.1.2-2.6,2.3-2.7,3.6-.3,5.8-.1,11.7-.2,17.5,0,6-2,8.1-8,8.5-18.3,1.2-36.5,2.3-54.8,3.6-4.6.3-7.3-1.6-8.2-6.1-1.3-6.2-2.8-12.3-3.8-18.6-.5-3.3-1.9-4-4.9-3.9-11.1.6-22.3.9-33.4,1.4-3.9.2-7.9.6-11.8.9.7,26,12.2,44.9,35,56.6,20.7,10.7,43.2,14.1,66.1,15,31.9,1.3,63.5-2.3,94.5-10,26.3-6.5,51.7-15.5,73.5-32.2,12.5-9.6,22.3-21.4,26.5-37.1,2.9-10.9,1.2-21.8.8-32.7,1.2,0,2.3,0,3.5.3,20.5,3.5,40.9,6.8,61.3,10.5,15.8,2.9,28.6-5,32-20.9,2.1-9.7,3.4-19.6,5-29.4,8.9-52.2,17.8-104.4,26.6-156.6,2.8-16.8-5.8-29.8-21.5-32.6-15.7-2.8-31.4-5.4-47.1-8-43.4-7.3-86.8-14.3-130.1-22.1-21.1-3.8-31.9,8.8-34.1,20.8-1.9,10.1-3.4,20.3-6,30.4-10.3-1.7-20.7-3.4-31-5.3-3.9-.7-6,.4-7.3,4.5-2.7,8.7-6,17.3-8.8,26-.9,2.8-2.3,3.6-5.2,3.9-8.9.9-17.8,2-26.6,3.8-3.8.8-5.5,0-7.5-3.1-5.8-8.9-12-17.4-18.7-27.1-13.4,7.1-26.1,13.9-38.9,20.5-2.9,1.5-3.4,3.5-2.7,6.5.8,3.5,1,7.2.6,10.9-16.8,4.1-33.8,7.3-50.3,12.4-31.8,9.9-61.4,24.4-88.5,44.6-.8-7.6-1.6-15.2-2.4-22.8-.7-7.5-3.1-9.7-10.5-9.2-4,.3-7.9.7-11.9,1.1-13.4,1.4-26.8,2.7-40.1,4.3-6.7.8-8.7,3.3-8.4,9.9.3,6.3,1.1,12.6.9,18.8-1,0-2,0-3-.1-34.1-5.7-68.4-9.1-102.9-10.6-30.9-1.3-61.8-1.2-92.4,4.9-1.6.3-3.8-.4-5.2-1.4-5-3.8-9.9-7.9-14.7-12.7,2-8.7,4-17.4,6.1-26.1,2.4-10,.5-13-9.5-14.8-15.2-2.7-30.4-5.4-45.6-8-9-1.5-12.4.8-14.6,9.7-.3,1.1-.7,2.2-1.7,2.9-8.6-4-17.2-8.1-25.9-11.8-3.5-1.5-4.1-3.6-3.4-7,1.1-5.2,2.3-10.4,2.6-15.7,2.3-33.5-5.2-64.7-24.6-92.2-19-26.9-50.7-40.7-83.2-22.1-13.5,7.7-22.3,18.7-22.8,34.6-.4,11.7,3.7,22.5,9.5,32.7,10.2,17.7,24,32.3,40.1,44.7,16,12.2,34.2,20.6,52.3,28.9,5.7,2.6,5.7,2.7,3.1,8.5-7.4,16.5-17.2,31.5-28.5,45.6-3.7,4.6-7.3,9.4-10.9,14.2,0,0,0,0-.5,0-.2.3-.5.6-1.2,1.3-10.2,5.5-19.9,11.6-27.2,20.8-4.6,5.7-8.7,11.7-13.6,17.9-1.4,1.1-2.8,2.3-4.3,3.4-9.9,7.3-19.8,14.5-29.5,21,.5-1.8,1-3.5,1.4-5.3,7.6-35.5-1.3-65.6-29.4-89.2-15.6-13.1-34.4-18.7-54.3-20.5-42.9-4-81,16.1-94.7,59-10.7,33.7-5.1,63.9,20.5,89.1,15.4,15.2,34.5,22.8,55.5,25.7-.8.5-1.6,1.2-2.5,1.5-20.7,8.3-41.4,16.5-62.1,24.7-3.6,1.4-6.6,3-7.2,7.3-.8,5.7,4,10.9,13.1,7.8,33.9-11.7,66.6-26.1,98.4-42.7,3.2-1.7,6.2-3.8,9.3-5.8,0,0,0,0,.8,0,.6-.4,1.2-.7,2.4-1.4,7.7-4.5,15.4-9.1,23.7-13.7.2-.3.5-.6.6-.9M334.3,244.2c16.1-5.1,32.2-6.2,48.6-1.4,6,1.8,9.8-.6,10.4-6.3,1.6-15.6,3.2-31.1,4.7-46.7.5-4.9-1.9-8.7-6.7-9.7-8.9-1.9-17.9-4.3-26.9-4.8-33-1.6-63.2,8.1-90.9,25.5-23.1,14.5-40.1,34.4-48.7,60.7-6.6,20.2-7,40.9-3.4,61.7,6.5,37.4,25.3,66.6,58.2,85.9,26.2,15.4,54.6,20.7,84.6,15.9,39.5-6.3,71.1-25.2,90.3-61.2,13.9-26.3,15.4-54.1,5.7-82.2-4-11.7-12.8-17.5-25.1-16.5-14.1,1-28.1,3.3-42.1,5.3-12.2,1.7-24.4,3.5-36.5,5.5-6,1-8.8,4-8.3,9.3,1,11.8,2.3,23.5,4,35.2.9,6.2,4.7,8.3,10.9,7.2,9-1.5,18.1-3,27.1-4.4,4.9-.8,7.3,1.5,5.7,6.3-1.4,4.3-3.4,8.8-6.2,12.3-17,21.2-51.8,23.3-72.5,4.4-16.8-15.3-21.5-34.9-18.9-56.8,2.6-22.1,14.4-37,35.9-45.2M1031.3,712.4c21-13,34.4-32,43.4-54.5,12.5-31.3,20.4-64,27.8-96.8,3-13.3,5.9-26.6,8.8-40,1.6-7.6-.1-11.3-6.3-13-16.8-4.6-33.7-9.1-50.6-13.4-2.1-.5-4.5.2-6.7.2-1.6,0-3.6.5-4.8-.3-16-9.8-33.5-14.4-52.2-14.9-29.1-.7-51.8,10.8-66.4,36.3-9.8,17-12.5,35.5-10.9,54.9,2.8,34.1,28.5,65.1,61.8,72.9,10.3,2.4,21.2,2.6,31.8,3.9-.6,1-1.6,3-2.7,4.7-10.3,15.6-24.2,24.3-43.3,21.4-7.9-1.2-15.6-4.3-23.3-6.9-3.6-1.2-7.5-2.1-9.6,1.3-6.1,9.7-11.7,19.7-17.1,29.8-1.6,2.9-.1,5.8,3.1,7.4,6.2,3.2,12.2,7,18.6,9.6,33,13.5,65.8,15.6,98.7-2.6M1191.1,690.8c.8-5.9,1.7-11.8,2.3-17.8,2.6-25.3,5.2-50.6,7.7-76,1.6-15.7,3.1-31.5,4.5-47.2.5-5.1-1.3-7.3-6.2-7.8-18.2-1.9-36.4-3.7-54.6-5.4-5.3-.5-7.7,1.5-8.3,6.9-.4,3.1-.7,6.3-1,9.4-4.2,42.2-8.4,84.4-12.6,126.6-.6,5.6,1,8,6.4,8.6,18.2,2,36.4,3.9,54.6,5.6,2.1.2,4.5-1.5,7.2-3M834.3,164.8c-1,3.8.7,5.5,4.4,6.2,31.4,5.8,62.8,11.5,94.1,17.5,4,.8,5.6-.5,6.1-4.2.8-5.1,1.8-10.2,2.6-15.2,1.1-7.1.6-7.7-6.7-9-10.1-1.8-20.1-3.8-30.5-5.8,3.3-14.1,6.5-27.6,9.8-41.4,7.7,1.9,14.9,3.6,22.1,5.6,3.1.8,4.7,0,5.5-3.1,1.5-6.1,3.1-12.2,4.7-18.4.8-3.2-.2-5.1-3.5-5.8-4.7-1.1-9.4-2.3-14-3.5-19.6-5-39.3-10.1-58.9-15.1-5.9-1.5-6.7-1-8.3,5-1.2,4.7-2.3,9.4-3.5,14-1.6,6.1-1.2,6.8,4.8,8.4,6.5,1.7,13.1,3.3,20,5.1-3.5,14.7-6.8,28.9-10.2,43.4-2.1-.3-3.7-.5-5.3-.8-8-1.5-16-2.8-24-4.5-3.9-.8-5.9,0-6.4,4.3-.6,5.6-1.7,11.2-2.7,17.6M396,57c-12.5-4-25.1-7.9-37.5-12.2-4.4-1.5-6.8-1-8.1,3.9-1.4,5.1-3.4,10.1-5,15.1-1.9,5.8-1.7,6.3,4.1,8.2,14.4,4.7,28.8,9.4,43.1,14.1,5.2,1.7,5.8,2.9,3.6,8-3.5,8.3-7.4,16.4-10.6,24.8-1.8,4.7-4.6,5.8-9.2,4.7-12.7-2.8-25.4-5.1-38.1-7.8-3.8-.8-5.5-.2-6,3.9-.7,5.9-1.9,11.8-2.8,17.7-1.1,6.7-.7,7.1,6.1,8.4,21.2,4.2,42.4,8.4,63.6,12.6,6.9,1.4,8.8.4,11.5-6.2,8.7-20.9,17.4-41.8,26-62.7,4.7-11.3,1.2-19-10.4-23-9.8-3.3-19.6-6.4-30.2-9.8M502,108c.2-1.3.4-2.6.6-3.9.9-6.5.7-6.8-5.5-7.9-7.1-1.2-14.1-2.1-21.2-3.4-4-.7-6,.2-6.7,4.8-2.2,15.1-4.8,30.2-7.3,45.3-3.8,23.1-7.5,46.3-11.3,69.4-.5,2.8,0,5,3.3,5.6,8.4,1.4,16.8,2.7,25.1,4.1,3.5.6,4.9-1,5.3-4.2.6-4.6,1.4-9.2,2.1-13.8,2.1-13.2,4.3-26.4,6.5-40.2,1.9,1.3,3.3,2.1,4.5,3.1,7.7,5.9,15.3,11.7,22.9,17.7,3,2.4,5.4,2.5,8-.7,5.5-6.9,11.3-13.5,17.1-20.2,2.5-2.8,2.3-5.2-.9-6.9-11-5.8-22.1-11.4-33.2-17.1-3.5-1.8-6.3-.9-8.9,1.9-2,2.2-4.2,4.2-7.1,7.1,2.3-14.3,4.3-27.1,6.5-40.7M581.2,688.2c-2.9.6-5.9,1.2-8.8,1.8-24.2,5.5-48.3,10.9-72.5,16.4-.6.1-1.3.4-1.9.6-7,2.2-10.7,7.3-9.1,12.7,1.6,5.8,7.4,8.6,14.6,6.8,51.3-13.2,103.1-23.1,155.6-30.2,8.5-1.2,13.1-5.5,12.3-11.5-.8-6.5-6.8-9.8-15.5-8.5-.2,0-.3,0-.5,0-24.5,3.9-48.9,7.9-74.2,11.9M601.7,768.8c41.7-7.9,83.8-13.4,126.1-16.8,9-.7,17.9-1.2,26.9-2,5.8-.5,9.8-5,9.8-10.2,0-5.4-4.5-9.6-10.6-9.8-2.8,0-5.7,0-8.5.3-44.5,3.1-88.8,8.2-132.7,15.8-7.2,1.2-14.4,2.5-21.6,4.1-6,1.4-9.5,6.4-8.5,11.7.9,5.3,5.7,8.6,11.9,8.1,2.1-.2,4.3-.7,7.3-1.2M1249.9,212.9c23.2-8.7,44.3-21.1,64.1-36.1,3.5-2.6,4.1-4.9,1.7-8.7-3.6-5.7-6.8-11.8-10-17.8-1.6-2.9-3.2-3.5-6.4-2-26.6,12.9-53.2,25.6-79.9,38.3-3.4,1.6-4.7,3.2-2.6,6.8,4.2,7.2,8.3,14.4,12.2,21.7,1.6,2.9,3.6,3.7,6.5,2.6,4.5-1.6,9.1-3.1,14.4-4.9M1007,229c18.8-8.3,36.1-19,52.4-31.5,2.8-2.2,3.8-4.1,1.8-7.5-3.7-6.1-7.1-12.4-10.5-18.7-1.6-3-3.3-3.4-6.4-1.9-26.6,12.9-53.2,25.7-79.9,38.3-3.9,1.9-4.3,3.7-2.2,7.3,4.1,6.9,8,13.8,11.7,20.9,1.7,3.3,3.9,4.1,7.3,2.9,8.4-3.2,16.8-6.3,25.9-9.7M648.4,146.7c-4-.4-7.9-.9-11.9-1.3-20.2-2-40.4-4.1-60.6-6-3.1-.3-5.1,1-5.4,4.4-.6,7.1-1.4,14.2-2,21.4-.5,5.7.4,6.4,6.3,6.9,19,1.8,38.1,3.8,57.1,5.6,11.6,1.1,23.2,2.2,34.8,3.3,2.8.3,5.5.1,5.8-3.7.7-7.6,1.3-15.2,2.2-22.8.4-3.9-1.4-5.4-5-5.7-6.8-.5-13.6-1.3-21.3-2.1M1085.4,170.5c0,1.6-.5,3.6.2,4.9,3.7,7.1,7.9,13.9,11.6,20.9,1.6,3,3.6,3.5,6.6,2.5,29.6-9.1,56.3-23.6,80.8-42.6,2.6-2,2.9-4,1.2-6.8-3.4-5.7-6.7-11.5-9.8-17.4-1.7-3.2-3.7-3.8-6.8-1.9-26.7,15.5-54.8,28-83.7,40.3M591.1,719c-2.9.7-5.9,1.2-8.7,2.3-4.2,1.7-6.6,6.3-5.8,10.5.9,4.6,3.8,7.3,8.4,8.1,2.1.3,4.3,0,6.4-.3,33.2-4.9,66.4-9.9,99.6-14.7,8.4-1.2,16.9-1.8,25.3-3,4.3-.6,7.8-3.6,7.8-7.9,0-3.2-1.5-7.4-3.9-9.4-2.3-1.9-6.5-2.4-9.8-2.2-13.9,1.2-27.8,2.5-41.7,4.5-25.7,3.7-51.3,7.9-77.7,11.9M588.5,789.6c.9,8.2,5.8,11.5,14.3,10,15.1-2.7,30.1-5.4,45.3-7.6,16.9-2.5,34-4.5,51-6.8,1.8-.2,3.7-.6,5.2-1.6,3.7-2.5,5.7-6,4.6-10.7-1.2-4.9-4.9-8.1-10.2-7.8-8.8.6-17.6,1.6-26.3,2.9-24.8,3.8-49.6,7.8-74.4,11.8-5.1.8-8.5,3.6-9.5,9.7M1114.9,441.1c-8.1-2.5-13.1-7.7-15.1-16.1-.8-3.5-2.4-6.9-3.9-10.2-.7-1.5-2.2-2.5-3.3-3.8-1.2,1.2-3.2,2.1-3.6,3.5-4.7,15.7-15.1,25-31,28.4-1.3.3-3.4,2.1-3.3,2.9.3,1.5,1.7,3.1,3,3.9,5.6,3,11.4,5.5,16.9,8.6,1.8,1,3.6,2.9,4.5,4.9,2.5,5.8,4.5,11.8,7,17.6.6,1.5,2.2,2.7,3.3,4.1,1.2-1.2,2.9-2.2,3.7-3.6,2.8-5.3,5.1-10.8,8.1-16,1.4-2.4,3.7-4.6,6.2-5.8,5.2-2.5,10.8-4.1,16.2-6.4,1.6-.7,2.8-2.4,4.2-3.6-1.3-1.3-2.5-2.9-4.1-3.8-2.5-1.6-5.3-2.7-8.7-4.4M441.6,412.6c-3.1,8-9,12.2-17.4,13.5-2.9.4-5.8,1.5-8.6,2.6-1.2.5-2.8,1.7-3,2.7-.1,1,1.2,2.6,2.2,3.3,4.6,3,9.6,5.4,14,8.6,2.2,1.6,4.3,4.1,5.3,6.6,2,5.1,3.1,10.5,4.8,15.7.4,1.3,1.6,2.9,2.7,3.1.9.2,2.5-1.2,3.2-2.3,3.1-4.9,5.8-10.1,9-14.9,1.3-1.9,3.5-3.5,5.6-4.3,5.4-2,11.1-3.3,16.6-5.2,1.2-.4,2.5-1.7,2.9-2.9.2-.7-1.2-2.2-2.3-2.9-4.8-3-9.9-5.5-14.5-8.8-2.2-1.6-4.2-4.2-5.1-6.7-2-5.1-3.1-10.5-4.8-15.7-.4-1.2-1.7-2.5-2.8-2.8-.7-.2-2.3,1.1-2.9,2.1-1.7,2.5-3.1,5.1-4.9,8.4M1217.5,112.5c-3.9,2.6-7.8,5.1-11.6,7.7-5.1,3.4-5.3,4-1,8.7,6.7,7.4,13.8,14.4,20.6,21.7,2.6,2.8,4.8,2.7,7.7.5,6.3-4.6,12.7-9,19.1-13.5,5.4-3.8,6-5.6,1.4-10.2-5.6-5.6-11.9-10.5-18.4-15.1-8.3-6-8.8-5.8-17.7.2M955.7,156.3c5,5.1,10,10.2,14.9,15.4,2.4,2.6,4.5,2.8,7.3.7,6.3-4.6,12.7-9,19.1-13.5,5.7-4,6.4-6.2,1.4-10.9-6.4-6-13.6-11-20.6-16.4-4.4-3.4-8.7-3.4-13,.4-2.2,1.9-4.9,3.4-7.4,5q-12.2,8.1-1.6,19.3M1062.8,121.4c5.6,9.1,11,18.2,16.8,27.1.8,1.2,4.3,1.6,5.9.9,7.3-2.8,14.3-6.2,21.5-9.3,3.6-1.5,4.5-4,2.4-7.1-3-4.4-6-8.9-9.6-12.7-13.3-13.9-10.1-12.1-26-5.6-1.1.4-2.2.8-3.2,1.3-2.7,1.5-5.3,3.1-7.9,5.3M1117.5,79.6c-1.9.6-4.2.6-5.8,1.7-4.6,3.3-8.7,7.3-13.3,10.5-3.9,2.8-4.1,5.2-.6,8.3,7,6.1,14,12.3,20.9,18.5,2.4,2.2,4.2,1,6-.6,5.7-4.9,11.2-9.9,17.1-14.6,3.8-3,3.7-6.1.2-8.5-7.8-5.3-15.9-10.1-24.6-15.3M902,452.9c-1.2-1-2.3-2.1-3.5-3.1-.8,1.3-2.1,2.6-2.3,4.1-1.2,9.9-6.1,16.8-15.4,20.7-1.4.6-2.3,2.2-3.4,3.3,1.4.9,2.8,2.4,4.3,2.6,9.3,1.4,16.4,5.5,20.1,14.6.7,1.6,2.6,2.7,3.9,4.1.9-1.6,2.4-3.2,2.6-4.9,1.1-9.2,5.5-15.7,14.2-19.2.3-.1.6-.3.8-.5,1.2-1.2,2.4-2.5,3.5-3.7-1.5-.8-3-2.2-4.6-2.4-9.5-1.1-16.4-5.7-20.3-15.4M674.3,422.1c-7.4,5.5-10,12.2-7.7,19.9,2,6.6,8.2,11.5,15.1,12,7,.5,13.6-3.3,16.7-9.7,3.1-6.5,1.9-14.2-3.2-19.4-5.2-5.4-12.4-6.5-20.9-2.8M697.6,232.5c7.5,1.9,15.4,2.6,19,11.4,1,2.4,3.8,4.1,5.7,6.2,1-2.5,2.6-5,3-7.6.8-6.7,4.1-11.2,10.2-14.2,2.6-1.2,4.8-3.2,7.2-4.9,0-.5,0-1-.1-1.5-3.2-1-6.3-2.3-9.6-2.8-6-.9-9.9-3.9-12.6-9.2-1.4-2.8-3.5-5.3-5.7-8.6-1.1,1.7-2,2.5-2.1,3.3-1.1,10.7-5.9,18.7-16.2,22.9-.2,0-.3.2-.4.3-2.5,2-2.2,3.5,1.6,4.7M1249,480.9c2.7,4.8,5.5,9.5,8.9,15.5,1.4-3.3,2.5-5,2.9-6.8,1.7-7.5,5.9-12.8,13.3-15.3.5-.2,1-.4,1.3-.7,1.1-.9,2.1-1.9,3.1-2.9-1.1-.9-2.1-2.3-3.3-2.5-9.1-1.5-14.9-6.7-17.7-15.3-.2-.5-.5-.9-.7-1.3-1.5-2.4-2.9-2-4,.2-.8,1.6-1.4,3.4-1.8,5.2-1.2,6-4.5,10.1-10.4,12.2-2.6.9-4.9,2.8-7.3,4.3.1.5.2,1,.4,1.5,4.9,1.8,9.8,3.7,15.4,6M541.3,115.2c-1.3.7-2.6,1.5-3.9,2.1-2.4,1.2-3.1,2.9-1.6,5.2,2.5,3.9,5,7.8,7.9,11.5.8,1,3,1.6,4.2,1.3,12.3-4.1,13.4-8,5.4-17.9-.1-.1-.2-.2-.3-.4-2.9-4.5-6.4-5.4-11.5-1.8M513.5,111.9c.3,4.4.4,8.9,1.2,13.3.2,1.4,1.9,3.5,3.2,3.7,3.9.8,7.9,1,11.8,1,1,0,2.8-1.6,2.8-2.5,0-4.6-.4-9.2-1.1-13.8-.2-1.1-1.8-2.9-2.9-2.9-4.9-.1-9.7.2-15,1.2M462.8,59.3c-.9-1.4-1.9-2.8-2.8-4.1-6.4-9.4-6.5-9.5-16.6-4.2-.1,0-.4,0-.4.2-.5,1.6-1.8,3.5-1.4,4.7,1.1,3.1,3.3,5.7,4.7,8.8,2,4.3,4.6,5.3,8.6,2.6,1.8-1.2,4-1.8,5.6-3.1,1.2-1,1.8-2.7,2.3-4.7M1163.1,72.6c-14.4-1.3-17.6,2.8-11.6,15.5.7,1.5,3.6,2.8,5.4,2.7,3.7-.3,7.4-1.6,11.1-2.5.2,0,.4-1,.3-1.4-1.4-4.7-2.9-9.3-5.1-14.3M1170,78.3c-1.8,4.4,2.3,5.8,4.3,8,7.8,8.5,5.9,9.3,15.5.8,4.5-3.9,4.4-4.3,0-8.4-10.2-9.4-8.3-9.3-19.8-.4M421.2,45c0,3.5.3,7,.1,10.4-.1,3.5,1.5,5,4.8,5.7,12.1,2.4,12.4,2.3,12.2-9.9,0-2.2-.8-6.1-1.8-6.2-4.9-.8-10-.6-15.3,0Z"/>
  <path class="cls-36" d="M484.8,668.9c-1.5-8.2-2.4-16.5-3.7-24.7-2-12.6-4.4-25.2-6.6-37.9-1.4-8.3-2.6-16.7-4.2-25-.2-1.3-2.1-3.2-3.1-3.2-2.4,0-5.6.4-7.1,1.9-6.1,6.3-13.2,10.7-21.4,13.1-5.3,1.5-10.8,2.4-16.3,2.7-15,.9-30,1.4-45,2.1-11.2.6-22.4,1.4-33.5,2-14.7.7-29.4,1.3-44,2-12.7.6-25.4,1.3-38,2-12.3.7-24.7,1.6-37,1.9-25.9.7-47.6-17.7-53-42.8-1.4-6.4-.8-13.1-1.3-19.7-.1-1.7-.8-3.4-1.6-4.8-.4-10.7-.4-21.7-.4-33.2.6,1,1.7,2.4,1.9,3.9.8,8.8.7,17.7,2.2,26.3,3.8,22.6,23.6,41.1,46.3,42.2,16.4.8,32.8-.7,49.3-1.3,7.8-.3,15.6-1,23.4-1.4,23.6-1.1,47.2-2.1,70.8-3.3,19.6-.9,39.2-1.9,58.8-3,14.9-.8,28.3-5.3,39.1-16.4,1.9-2,6.3-1.6,10-2.5,6.8,40,13.4,78.6,20,117.3-2.1.7-3.5,1.1-5.3,1.6Z"/>
  <path class="cls-18" d="M1753.5,201.5c-.7,1.1-1.8,1.7-1.9,2.5-3.1,17.7-6.1,35.5-9,53.3-3.4,20.7-6.6,41.4-10.1,62-2.8,16.6-5.9,33.2-8.9,49.8-2.2,11.9-3.8,24-7.2,35.6-4.2,14.5-13.9,25.3-26.6,33.2-11.8,7.5-25.1,10.9-39,10-9.4-.6-18.6-2.7-28-4-1-.1-2.8.8-3.2,1.7-2.5,5.6-4.7,11.2-6.9,17.3-4.6-2.9-9.3-6.1-14.2-9.5,8.9-10.8,16.1-22.1,20.6-34.9.4-1.2,3.4-2.3,5-2.1,5.8.6,11.5,1.8,17.2,2.8,39.3,7.1,73.6-18.3,79.4-59.6,4.3-30.9,10.2-61.6,15.3-92.4,5.3-31.6,10.5-63.2,15.7-94.8.2-.9.7-1.8,1.5-2.5.4,10.6.4,20.9.4,31.8Z"/>
  <path class="cls-46" d="M1579.6,356c-16.8,4-33.6,8-50.5,12.1-7.2,1.7-8.2,2.9-7.8,10.3.4,7,.8,13.9,1.2,21.2-14.9,3.2-29.5,6.3-44.1,9.4-2.7.6-3.4-.7-4.1-3-1.5-5.5-3.3-10.8-4.7-16.3-1.2-4.4-3.7-6.5-8.3-5.9-18.5,2.5-36.9,5-55.4,7.6-4.3.6-6.3,3.3-6.3,7.6,0,6.8,0,13.6,0,21-7.2.5-13.9,1-20.6,1.5-8,.5-16,.9-23.9,1.6-3.1.3-4.1-1-4.6-3.7-1.1-6-2.7-12-3.8-18.1-.9-4.8-3.6-6.7-8.4-6.4-13.8.7-27.6,1.3-41.4,1.8-4,.2-8,0-12.6,0-4-28.5-8-57.1-12-86.5-6.2-7.6-12.4-14.3-18.8-21.4-1.6-2-3.3-3.5-4.3-5.3-.7-1.3-1.2-3.5-.6-4.7,6.8-12.5,13.8-25,20.8-37.4,1.4-2.6,3.4-3.2,6.3-2,7.9,3.4,15.9,6.4,23.7,9.9,3.4,1.5,5.5.9,8.1-1.9,6.8-7.1,13.7-14.1,21.1-20.5,3.5-3,4.5-5.8,2.6-10.2-1.4-5.3-2.8-10.2-4.1-15-.5-3.6-.6-7.3-1.4-10.8-.7-3-.3-5,2.7-6.5,12.8-6.6,25.5-13.4,38.9-20.5,6.7,9.6,13,18.2,18.7,27.1,2,3.1,3.8,3.9,7.5,3.1,8.8-1.8,17.7-2.9,26.6-3.8,2.9-.3,4.3-1.1,5.2-3.9,2.8-8.7,6.1-17.2,8.8-26,1.2-4,3.3-5.2,7.3-4.5,10.3,1.8,20.6,3.5,31.7,5.5,1.6.6,2.5,1,3.5,1.2,4.6.7,7,2.7,7.1,8.1,0,9.1.9,18.2,1.7,27.3.1,1.7,1,4,2.3,4.8,10.1,5.7,20.4,11.1,30.7,16.5,1.1.6,3.2.6,4,0,4.4-3.5,8.5-7.3,13.1-11.1,4.3-2.8,8.2-5.5,12.4-8.1,3.3,1.7,6.2,3.3,9.3,5.3,2.5,2.9,4.9,5.5,7.4,8.3,4.9,5.3,9.4,10.5,14.3,15.4,3.3,3.2,5.4,6.4,3,11.2-1.1,2-1.8,3.9-2.9,5.9-1.1,1.8-1.9,3.4-3,5.2-1.1,2-1.9,3.9-3,5.9-5.4,6.7-6.4,13.8-4,21.5.2.8.1,1.6.2,2.9.3,2.4.7,4.4,1,6.9.4,1.7.3,3.4,1.1,4.1,2.8,2.4,3,4.9,1.3,8.1-.6,1.1-.5,2.6-.3,3.9.6,4.8,1.1,9.6,2,14.3.8,4.2.4,9.1,3.9,10.5-.4,3.8-1.1,6.7-.9,9.6.4,5.8,1.2,11.5,1.9,17.3M1378.1,322c-7.7-16.8-23.9-24.4-41-19.2-15.9,4.9-25.9,21.9-22.4,38.1,3.7,17.1,19.4,28.5,36.3,26.4,21.8-2.8,34.1-22.8,27.1-45.3M1528.5,333.4c6.5-8.8,8.8-18.6,5.8-29.2-3.6-12.6-12-20.8-24.7-23.6-13-2.8-24.6.9-33.1,11.5-8.2,10.2-9.7,21.9-4.6,33.8,9.6,22.7,39.8,27.4,56.5,7.5M1415,331c.9,6.4,1.6,12.8,2.6,19.2,1,6.2,5.7,9.9,11.5,9.4,5.6-.5,10.4-5.1,9.9-10.5-1.1-10.4-2.5-20.7-4.3-31-1.1-6.1-6.6-9.1-12.4-7.9-5.9,1.2-9.3,6-8.6,12.1.3,2.6.7,5.3,1.3,8.7Z"/>
  <path class="cls-46" d="M334,244.4c-21.2,8-32.9,22.9-35.6,45-2.6,21.9,2.1,41.5,18.9,56.8,20.7,19,55.5,16.9,72.5-4.4,2.8-3.5,4.8-8,6.2-12.3,1.6-4.8-.9-7.1-5.7-6.3-9,1.4-18.1,2.9-27.1,4.4-6.2,1-10-1.1-10.9-7.2-1.7-11.7-3-23.4-4-35.2-.5-5.3,2.4-8.4,8.3-9.3,12.1-2,24.3-3.8,36.5-5.5,14-1.9,28-4.2,42.1-5.3,12.3-.9,21,4.9,25.1,16.5,9.7,28.1,8.2,55.9-5.7,82.2-19.1,36.1-50.7,54.9-90.3,61.2-30,4.8-58.4-.5-84.6-15.9-32.9-19.3-51.8-48.5-58.2-85.9-3.6-20.8-3.2-41.5,3.4-61.7,8.6-26.3,25.6-46.2,48.7-60.7,27.7-17.4,57.9-27.1,90.9-25.5,9,.4,18,2.8,26.9,4.8,4.8,1,7.2,4.9,6.7,9.7-1.5,15.6-3,31.1-4.7,46.7-.6,5.7-4.4,8.1-10.4,6.3-16.4-4.8-32.5-3.7-49,1.5Z"/>
  <path class="cls-36" d="M1650.1,555.3c.1,14,2.1,28.4-2.7,42.4-5.2,15-13.8,27.4-27.7,35.7-3.8,2.3-6.2,5.2-7.3,9.8-2.2,9.7-4.6,19.4-7.6,29-2.3,7.2-5.7,14-8.3,21.1-.9,2.7-1.1,5.8-1,8.7.5,12.9-1.3,25.3-7,37.1-8.2,16.6-21.2,28.4-37.2,37-22.5,12.1-46.7,19.4-71.7,24.1-17.5,3.3-35,6.9-52.5,9.8-11.4,1.9-23,2.9-34.5,4.1-15.8,1.7-31.5,3.4-47.3,5-11.9,1.2-23.9,2-35.8,3-15.3,1.3-30.7,2.6-46,4.1-1.3.1-2.7,1.1-3.6,2.1-12,12.9-26.9,17.9-44.3,17.9-14,0-28,1.2-42,1.9-11.7.6-23.4,1.4-35,2-14.3.7-28.7,1.3-43,2-11,.6-22,1.4-33,2-13.8.7-27.7,1.7-41.5,1.9-13.6.2-25.1-5.4-35.3-14.2-1.7-1.4-4.2-2.6-6.4-2.6-21.7,0-42.9-3.5-63.8-8.7-5.6-1.4-9.3.2-11.8,5.3-8.2,16.5-27.8,25.5-45.5,21.6-13.8-3-23.6-10.4-30.1-23-1.5-2.9-5.4-4.8-8.4-6.7-11.9-7.2-17.8-18-19.1-31.6-.1-1.6-.8-3.1-1.4-5.1-1.7,2.5-3.2,4.8-4.9,6.9-8.9,11.4-20.4,18.3-35.1,19.3-.5,0-1,.4-1.4.3-8.6-1.1-11.9,4.5-15.4,11.1-6.3,12.1-17.3,18.8-30,22.4-6.5,1.9-13.4,2.2-20.2,3.2-11.8,1.7-23.6,3.2-35.3,4.9-11.3,1.6-22.5,3.4-33.8,5.1-6.6,1-13.2,2.1-19.8,3-9.3,1.3-18.2-.6-26.7-4.4-17-7.5-26-20.8-28.1-39-1-8.5-2.5-16.9-5.1-25.1-1.3-4-1.6-8.2-2.3-11.9-12.7,2.5-25.2,6.1-38,7.4-23.8,2.3-45.9-11.6-53.2-35.5-1.7-5.7-1.1-12.1-1.4-18.1-.2-5.2,0-10.3,0-16,2.4,5.7,3.7,12.5,7.1,18,12.2,20.1,34,28.7,56.8,23.1,9.8-2.4,19.6-4.8,28.2-7,2.6,8.7,5.1,16.8,7.5,25,.3,1.1.4,2.3.3,3.4-1.9,32.8,26.9,58.8,63.1,52,28.4-5.3,57.1-9,85.7-12.9,14.2-1.9,27.6-5,37.6-16.1,3.7-4.2,7.2-8.9,9.4-14,2.2-5.1,5.6-5.8,10.1-5.9,14.3-.3,26.6-5.5,36.4-16,3.4-3.6,6.1-7.9,9.2-12.1.4,3.5.5,7.2,1.2,10.7,2.5,13.5,10.5,23,22.2,29.8,2.1,1.2,4.2,3.2,5.4,5.4,8.2,14.7,20.9,22.7,37.4,22.7,16.7,0,29.6-7.9,37.5-23.1,2.8-5.3,4.9-6.1,10.9-4.7,21.6,5,43.4,8.5,65.5,9.3,2.2,0,4.7,1.4,6.4,2.9,11.7,9.9,25.1,14.4,40.5,13.4,13.9-1,27.9-1.5,41.9-2.2,29.9-1.4,59.8-2.8,89.7-4.3,19.3-.9,38.5-2.1,57.8-2.9,16.8-.8,31.7-5.5,43.3-18.4,1.3-1.5,4-2.2,6.1-2.4,19.9-1.5,39.8-2.6,59.7-4.4,24.1-2.2,48.3-4.9,72.3-7.7,31.7-3.6,63.3-8.3,94.2-16.1,24.1-6,47.9-13.2,68.6-27.6,17.5-12.2,30-27.9,33.1-49.6,1-6.8,0-13.9,0-20.9,0-1.7,0-3.7.8-5.1,9.8-15.9,13.7-33.8,17.6-51.7.8-3.5,1.8-5.8,5-7.8,19.2-11.8,30.1-29.1,32.7-52Z"/>
  <path class="cls-46" d="M1031,712.6c-32.6,18-65.5,15.9-98.4,2.4-6.4-2.6-12.4-6.4-18.6-9.6-3.2-1.6-4.6-4.5-3.1-7.4,5.4-10.1,11-20.1,17.1-29.8,2.1-3.3,6-2.5,9.6-1.3,7.7,2.6,15.4,5.7,23.3,6.9,19.1,3,33.1-5.8,43.3-21.4,1.2-1.8,2.1-3.7,2.7-4.7-10.6-1.2-21.4-1.5-31.8-3.9-33.3-7.8-59-38.7-61.8-72.9-1.6-19.4,1.1-38,10.9-54.9,14.7-25.5,37.3-37,66.4-36.3,18.7.5,36.1,5.1,52.2,14.9,1.2.7,3.2.3,4.8.3,2.2,0,4.6-.7,6.7-.2,16.9,4.3,33.8,8.8,50.6,13.4,6.2,1.7,7.9,5.4,6.3,13-2.9,13.3-5.7,26.7-8.8,40-7.4,32.8-15.2,65.4-27.8,96.8-9,22.5-22.4,41.5-43.7,54.7M1028.4,581.4c1.5-6.8,3.1-13.6,4.6-20.4,1.7-8.1-.3-15.1-6.5-20.8-13.7-12.8-35.7-8.2-43.8,9.4-5.9,13-6.5,26.3,2.3,38.3,8.1,11.1,19.8,12.3,32.3,9.9,5.2-1,9.4-2.9,9.6-9.3,0-2.1.9-4.2,1.6-7.1Z"/>
  <path class="cls-5" d="M1557.3,204.9c-3-1.6-5.9-3.3-9.2-5.3-.3-2.3-.1-4.2,0-6.4-4.2-2.3-10-.4-13.5-5.7-1.3-2-6.8-1.3-10.9-1.9-1.2,6.9-2.3,13.3-3.4,19.9,1.9.5,3.3.9,4.8,1.2,3.4.6,6.9,1,10.3,1.5-4.2,3.7-8.3,7.5-12.7,11-.8.7-2.9.6-4,0-10.3-5.4-20.6-10.8-30.7-16.5-1.3-.7-2.2-3.1-2.3-4.8-.8-9.1-1.7-18.2-1.7-27.3,0-5.4-2.4-7.3-7.1-8.1-1-.2-1.9-.6-3.1-1.2,1.4-10.4,3-20.6,4.9-30.7,2.2-11.9,13-24.5,34.1-20.8,43.3,7.8,86.7,14.7,130.1,22.1,15.7,2.6,31.4,5.2,47.1,8,15.7,2.8,24.3,15.8,21.5,32.6-8.8,52.2-17.7,104.4-26.6,156.6-1.7,9.8-2.9,19.7-5,29.4-3.4,15.8-16.2,23.7-32,20.9-20.4-3.7-40.9-7-61.3-10.5-1.1-.2-2.3-.2-4.1-.4-.7-.3-.7-.5-.7-.7-.5-3.8-1-7.6-1.7-11.7-.9-6.1-1.7-11.8-2.1-17.6-.2-2.9.5-5.9.9-9.6-3.5-1.4-3.1-6.3-3.9-10.5-.9-4.7-1.5-9.5-2-14.3-.2-1.3-.2-2.8.3-3.9,1.6-3.1,1.4-5.6-1.3-8.1-.8-.7-.8-2.4-.7-4,2.7.9,5.5,1.7,6.2-1.6.3-1.3-1.9-3.5-3.4-4.8-1-.8-2.8-.7-4.2-.9,0-.8,0-1.7-.2-2.5-2.5-7.8-1.4-14.9,4.3-21.5,2.4-.1,4.3.4,5.9-.2,1.2-.4,2.1-2,3.1-3.1-1.2-1-2.4-2.2-3.7-3-.6-.4-1.6,0-2.4,0,.8-1.6,1.6-3.2,3-4.8,2-.6,3.5-1.2,5-1.8-.7-1.4-1.4-2.9-2-4.3,2.1-4.7,0-7.9-3.4-11.1-4.9-4.8-9.4-10-13.9-15.4,1.2-.4,2.2-.7,3.1-.5,6.2,1.8,6.2,1.8,7.1-4.6.2-1.1.3-2.3.5-3.4q1.3-6.9-5.5-8.5c-.2,0-.3-.2-.4-.2-8-2.5-12.3.4-12.8,8.7M1652.5,222.1c-1.3.7-2.6,1.3-3.9,2,.8,1.1,1.3,2.7,2.3,3.3,1.9.9,4,1.4,6.1,1.7,3.3.4,5.9-.7,6.9-4.3,1-3.6-.8-5.6-3.8-7.1-1.2-.6-2.3-1.3-3.5-1.9,2-.6,3.5,0,5,.2.9,0,2.3-.7,2.7-1.4.3-.7-.2-2.2-.9-2.8-2.7-2.5-9.6-2.5-11.5-.2-2.4,2.7-1.6,6.3,1.8,10.3-.1.1-.3.3-1.1.3M1581.5,210.1c-1.3.7-2.6,1.3-3.9,2,.8,1.1,1.3,2.8,2.3,3.2,2,.9,4.4,1.5,6.6,1.7,3.2.4,5.4-1,6.4-4.3,1-3.3-.6-5.4-3.4-6.9-1.3-.7-2.7-1.4-4-2.1,2-.7,3.5,0,5.1,0,.9,0,2.3-.7,2.7-1.4.3-.7-.2-2.2-.9-2.8-2.7-2.5-9.5-2.5-11.5-.2-2.4,2.7-1.6,6.3,1.7,10.3-.1.1-.2.3-1.1.3M1643.4,306.4c-1.4.8-2.8,1.5-4.3,2.4,4.9,5.3,11.9,6.8,14.6,3.3,5.5-7.2-1.6-9.3-6.5-12.2,3.5-1.6,7.8,4.2,9.2-2.2-4.7-3.9-10.5-4.8-13-1.6-2.8,3.6-1.6,6.8,1.1,10.1-.1.2-.3.3-1,.3M1564.4,167.4c-1.4.8-2.7,1.6-4.2,2.5,5,5.2,11.6,6.4,14.7,3.3,3.1-3.1,1.9-6-5.2-12.1,2.4-1.6,6.9,3.8,7.7-2.4-4.5-3.9-10.4-4.8-12.9-1.7-2.7,3.5-1.7,6.8.9,10.1-.1.2-.3.3-1,.3M1515.5,154.6c.3-2.1.6-4.2.9-6.3-4.7-2.3-10.4-.7-14-5.9-1.4-2-6.8-1.3-10.8-1.8-1.2,7-2.3,13.4-3.4,20.2,8.8,1.5,16.9,2.9,25.4,4.3.6-3.5,1.2-6.5,1.9-10.4M1618.5,305.7c1.4-2.2,3.9-4.4,3.9-6.5,0-3-1.3-7.2-3.5-8.5-3.3-2-7.8-2-11.8-2.6-.4,0-1.3,1.4-1.5,2.3-1.2,6.7-2.4,13.4-3.2,20.1-.1,1.2,1.6,2.6,2.4,3.8,1.1-.9,2.8-1.6,3.3-2.7.8-1.7.8-3.7,1-4.8,3.4-.3,6-.5,9.4-1.1M1623.3,215.9c3.4.2,8.1,2.4,8.3-3.5,0-2.5-2.2-5.8-4.4-7.4-3.7-2.6-9.4-1.1-12.1,2.3-2.7,3.3-2.9,8.7-.6,12.1,2.1,3,9.3,5.5,12.5,4,1-.5,2.3-2.1,2.1-2.7-.4-1.1-1.7-2.2-2.8-2.6-2.1-.7-4.4-.8-6.7-1.2,0-.5.2-.9.2-1.4.9,0,1.8.2,3.4.3M1600.5,242.4c-4.8-2-9.2-1.4-12.5,2.7-2.7,3.4-3,7.4-.8,11.2,2.6,4.5,7.1,5.1,11.7,4.7,1.2-.1,2.3-1.7,3.4-2.7-1.2-.9-2.2-2-3.5-2.5-2-.7-4.1-1-7.3-1.7,5.1-2.7,10.3,3.2,12.8-2.8,1.4-3.3.1-6.5-3.9-8.9M1629.9,252c-2.8,3.9-3.1,8.1-.4,12.1,2.7,3.9,6.9,4.4,11.2,3.9,1.2-.1,2.3-1.7,3.5-2.6-1.2-.9-2.2-2-3.5-2.5-2-.7-4.1-1-6.1-1.4.1-.5.2-1,.4-1.5,1.6.2,3.2.9,4.8.7,2.2-.3,6.2-1.2,6.2-1.9.1-2.7-.4-6.1-2-8-3.2-3.6-8.7-3-14,1.3M1546.5,153.2c-4.9,3.7-6.4,8-4.4,12.9,1.7,4.1,6.7,6.8,12,5.8,1.3-.2,2.3-2.1,3.4-3.2-1.2-.7-2.3-1.7-3.7-2.2-1.9-.7-3.8-.9-5.8-1.4.1-.5.3-.9.4-1.4,1.8.2,3.6.7,5.3.7,1.8,0,4.7-.2,5.2-1.3.9-1.8,1-4.5.2-6.4-1.6-4-6.4-5.3-12.8-3.5M1603.9,342.8c1.6,0,3.2,0,4.7.2,2.9.3,6.2,1.5,7.2-2.9.9-4-1-6.7-4.6-8.3-4.3-2-9.3-.8-12.1,2.8-2.5,3.2-2.6,8.9-.2,12.2,2.1,2.8,9.1,5.1,12.2,3.7,1-.4,2.4-2,2.2-2.7-.3-1.1-1.6-2.2-2.8-2.7-2.1-.8-4.3-1.1-6.6-2.3M1605.9,257.7c-.6,2.3-.5,4.8,2.3,4.8,1.3,0,2.9-2.2,3.9-3.7.7-1.2.1-3.2.9-4.3.9-1.2,2.6-1.8,3.9-2.7.7,1.3,1.9,2.5,2.1,3.8.2,1.7-.9,3.7-.6,5.4.2,1.4,1.7,2.6,2.6,3.9,1.1-.9,2.9-1.7,3.2-2.8.8-2.7,1.1-5.5,1.1-8.3,0-3.8-1.9-6.8-5.6-7.9-3.2-.9-7.6-2.7-9.5-1.3-2.3,1.6-2.6,6.2-3.7,9.5-.3.9-.3,2-.6,3.8M1656,257.9c1.4,0,2.9.1,4.3-.2,1.1-.2,2.4-.8,3.1-1.7.3-.4-.6-2.6-1.1-2.7-3.6-.4-7.8-1.7-10.7-.3-3.4,1.6-2.4,5.7-.4,8.8.3.4.3.9.3,1-1.4,1.3-2.7,2.4-3.9,3.5,1.4,1.2,2.6,2.9,4.2,3.6,1.7.8,4.1,1.4,5.7.8,2-.7,4.6-2.5,5.1-4.4.5-1.8-1.2-4.4-2.4-6.3-.6-.9-2.3-1.2-4.1-2.3M1635.6,290.2c.5-2.8.1-5.1-3.5-5-1.7,0-6.9,8.9-6.5,10.5.7,2.9,1.5,5.8,1.6,8.7.1,4.5,2.9,6.1,6.6,6.6.9.1,2.4-1,2.9-1.9.4-.7,0-2.7-.5-3-3.8-1.7-2.8-4.2-1.1-6.2,1.7-1.2,3.4-2.3,5-3.5-1.4-1.5-2.8-2.9-4.1-4.4-.2-.2-.3-.6-.4-1.7M1629.6,349c-3.7-1.7-3.9-4.4-1.7-6.9,1.7-1.1,3.3-2.3,5-3.4-1.3-1.7-2.6-3.5-4.4-5.9,0,.6.2,0,0-.4-.7-1.5-1.6-3-2.4-4.5-1.2,1.1-2.5,2.3-3.7,3.4-.8.7-1.6,1.4-2.2,2.3-.7,1.1-2.1,3.1-1.7,3.6,2.6,3.4,1.4,7.1,1.6,10.7.2,3.9,3.4,5.3,6.6,5.4,1,0,2.1-2.4,2.9-4.3M1635.1,212.2c.2,2,.8,3.9.7,5.9-.4,4.8,1.8,8,6.4,8.3,1,0,2.7-.6,3.1-1.5.4-.9,0-3.2-.5-3.5-4.1-1.7-2-4.5-1.9-5.7,2.5-1.8,5.3-2.7,5.5-4.1.2-1.4-1.9-3.3-3.1-4.9-.9-.3-.6-1.3-.9-1.9-.7-1.4-1.7-2.6-2.6-3.9-1.2,1-2.4,1.9-3.5,3-.8.8-1.5,1.7-1.9,2.6-.8,1.7-1.3,3.5-1.3,5.7M1647,354.1c4.3-7.2-2.1-8.9-6.3-12,1.9,0,3.4.6,4.9.8.8,0,2.1-.3,2.5-.9.4-.6.5-2,.1-2.6-1.4-2.5-9.2-3.7-11.5-1.5-2.9,2.7-2.9,5.8-.5,8.8.5.6.9,1.3,1,1.4-1.7,1.2-3.2,2.2-4.6,3.2,1.3,1.3,2.4,3.5,3.8,3.7,3.2.4,6.6-.1,10.5-.8M1597,218.2c2.2.6,4.4,1.5,6.6,1.8,3.4.5,5.9-1,6.7-4.5.8-3.5-.9-5.7-4-7-1.2-.5-2.3-1.2-3.4-1.8,1.2-.8,2-.6,2.8-.7,1.8-.2,3.6-.6,5.5-.9-1.4-1.3-2.7-2.8-4.2-3.9-.7-.5-1.9-.3-2.9-.4-3-.2-5.7.1-6.7,3.6-1,3.6.3,6.1,3.5,7.8,1.2.6,2.2,1.3,3.4,2-2,.4-3.4-.6-4.9-.8-1.2-.2-2.6.5-3.9.7.3,1.2.6,2.4,1.6,4M1595.8,161.8c-3,4.3-6.2,8.6-9,13.1-.6.9.2,2.8.4,4.2,1.4-.2,3.5.1,4.1-.7,5.2-6.9,10.1-13.9,14.9-21.1.6-.9-.2-2.8-.3-4.2-1.4.2-3.4-.2-4.1.6-2.1,2.3-3.7,5-6,8.2M1605.9,182.1c1.5-.4,3.7-.2,4.4-1.1,4.9-6.5,9.6-13.1,14.1-19.9.8-1.2,0-3.4,0-5.1-1.6.6-3.8.7-4.6,1.8-4.8,6.3-9.3,12.9-13.8,19.5-.7,1.1-.4,2.9,0,4.8M1580.4,285.7c-.7,4.3-1.6,8.5-2,12.8,0,1.1,1.5,2.4,2.3,3.5,1.2-1,2.7-1.8,3.7-3,.5-.6.4-1.9.5-2.9.5-3.5,1.2-6.6,6.2-5.3.8.2,2.2-2.1,3.4-3.3-1-.9-1.8-2.3-3-2.6-2.4-.7-5-1.1-7.5-1.3-1.1,0-2.2.8-3.5,2.1M1536.9,156.2c1.3-1.2,2.5-2.3,3.8-3.5-.8-.9-1.6-2.4-2.6-2.5-3.2-.6-7.6-2.2-9.6-.8-2.2,1.6-2.2,6.1-3.1,9.3,0,.3-.1.7-.1,1,0,2.8-3.2,6.8,2.1,7.6,4.7.6,3.4-4,4-6.5.7-2.7.8-5.5,5.6-4.7M1586.4,344.3c.1-.7.2-1.3.4-2,.9-3.9.2-9.3,7.3-7.5.5.1,2.7-2.6,2.4-3.5-1.9-5.3-7.8-.3-10.7-3.7,0-.1-2.1,1.4-3.2,2.1,0,0,0,.3,0,.5-.7,3.7-1.4,7.5-1.9,11.2-.6,4.5.8,5.3,5.9,2.8M1602.6,288.9c-1.3-.9-2.6-2-4-2.5-.4-.1-1.8,1.7-2.1,2.8-.9,3.9-1.7,7.8-1.9,11.7,0,1.3,1.5,2.7,2.4,4,1.2-1,3.1-1.8,3.5-3,1-4,1.5-8.1,2.2-13M1578.3,174.8l5,1.4c.3-1.5,1.2-3.2.8-4.5-.3-.9-2.8-2-3.5-1.6-1.2.7-1.7,2.5-2.3,4.6M1604.2,281.3c-1.1-1.3-2.1-2.7-3.4-3.8-.2-.2-2.3,1.2-2.6,2.1-.3,1,.5,3.3.8,3.3,1.7,0,3.3-.6,5.2-1.7M1580.4,163.9c1.8.2,3.5.6,5.2.3.4,0,.9-3,.4-3.9-.6-.9-3-1.7-3.7-1.3-1.1.8-1.5,2.7-1.9,4.9Z"/>
  <path class="cls-47" d="M832.7,205.1c.4-1.1.8-2.1,1.1-3.2,2.2-8.9,5.6-11.2,14.6-9.7,15.2,2.6,30.4,5.3,45.6,8,10,1.8,11.8,4.8,9.5,14.8-2.1,8.7-4.1,17.4-6.3,26.9-3.1,13.2-5.9,25.6-9,38.4-4.4,18.9-8.6,37.6-12.8,56.2-3.1,13.8-5.6,27.7-4.8,42,.5,9,3.2,16.9,11.2,22.3,1.6,1.1,2.6,2.9,3.9,4.7-3.1,5.7-6.2,11-9.3,16.4-4.2,6.4-8.4,12.8-12.6,19.2-5.2,7.8-8,8.6-16.7,5.1-11.4-4.6-21.8-10.7-29.6-20.5-2.1-2.7-4.3-1.7-6.6-1-19.2,6-38.5,6.5-58,.9-35.5-10.3-68.7-45.3-62.8-93.3,1.7-6.3,3.1-11.8,4.8-17.3,1-3.4,2.5-6.7,3.7-10,4.3-5.9,8.4-11.9,13-17.6,7.3-9.1,17-15.3,27.8-21,.8-.5,1-.8,1.3-1.2,0,0,0,0,.4,0,8.4-1.4,16.5-2.9,25-4.4,18.5-.8,35.2,4.1,51.7,12.7,3.9-17.8,7.7-35,11.6-52.7,1.2-5.4,2.3-10.5,3.4-15.6M798.7,320.2c-13.6-7.2-26.7-4.9-35.8,6.3-9.6,11.8-10.4,29.6-1.9,40.3,8,9.9,24.6,14.4,34.7,9.2-4.2-15.3-.2-29.4,6.3-43.2,3.3-7,3.4-7-3.3-12.5Z"/>
  <path class="cls-46" d="M501.7,500.1c-2.2-13.9-4.4-27.9-6.6-41.8-.6-3.8-1.2-7.6-1.9-11.3-1.2-6.6.6-9.4,7.1-10.6,14.1-2.5,28.2-4.9,42.3-7.3,26.6-4.5,53.1-9,79.7-13.6,9.6-1.7,12-.2,13.5,9.3,2.4,14.3,4.7,28.6,7,42.8,1.1,6.8-.6,9.5-7.5,10.8-18.8,3.3-37.7,6.5-56.5,9.7-2.3.4-4.5.8-7.4,1.4,1.4,8.2,2.8,16.1,4.3,24.3,15.3-1.8,30.1-3.5,45-5.2,2.1-.2,4.3-.5,6.5-.6,4.4,0,7,2.1,7.4,6.4,1.5,13.2,2.8,26.5,4.1,40.6,0,9.2-.9,10.1-9.2,11.2-.6,0-1.2.5-2.3.7-14.1,1.5-27.8,3-41.9,4.5,1.6,9.2,3.1,17.8,4.6,26.6,22-3.7,43.4-7.4,64.8-11.1.7-.1,1.3-1.1,2.3-1.6,5.2.8,9.6,2.1,10.6,7.9,2.2,14.3,4.2,28.6,6.6,42.9,1.7,10.1.2,12.5-9.7,14.3-41.3,7.2-82.5,14.4-123.8,21.5-6.1,1.1-9.1-.9-10.2-7.2-5.4-30.8-10.6-61.6-15.9-92.4-3.1-18.2-6.4-36.3-9.8-55.2-1.1-6.1-2.1-11.5-3.1-16.9Z"/>
  <path class="cls-23" d="M638.3,366c-7.7,4.5-15.4,9.1-23.8,13.7-1.3.5-1.9.9-2.5,1.2,0,0,0,0-.5,0-15.9,5-31.7,8-48,6.7-21.3-2.3-40.4-10-55.8-25.2-25.6-25.2-31.2-55.4-20.5-89.1,13.7-42.9,51.8-63,94.7-59,19.9,1.8,38.7,7.5,54.3,20.5,28.1,23.6,37,53.7,29.4,89.2-.4,1.8-.9,3.5-1.7,6-3.1,6.3-5.4,12.3-8.9,17.5-3.9,5.8-8.9,11-13.5,16.4,0,0,0,0-.3,0-.8.3-1.2.8-1.6,1.2,0,0,0,0-.3,0-.5.4-.7.7-1,1M579.8,334.1c6.8-.4,12.5-3.2,17.2-8,8.5-8.9,11.4-19.8,10.4-31.7-.9-10.8-5.8-19.4-16.4-23.6-10.9-4.3-21.7-4.9-31.7,2.5-11.5,8.5-16.3,25.2-11.8,39.5,3.5,11,15.2,22.2,32.3,21.4Z"/>
  <path class="cls-23" d="M938.7,285.4c16.6-9.7,34.6-14.5,53.9-14,26.9.6,51.2,8.1,70.1,28.4,32.1,34.6,35.7,98.7-18.9,130.2-28,16.2-57.7,20.6-88.7,9.2-15-5.5-27.4-14.8-38.1-27.5-3.1-4.6-5.8-8.8-8.6-13.2-16-35.1-9.3-74.8,17.6-102.8,4.4-3.5,8.5-6.9,12.7-10.3M1012.9,384.9c9.6-8.6,12.3-19.7,11.7-32.1-1.1-22.1-24.4-35.3-44-25.2-13.5,7-20.7,25.2-16,40.9,6.1,20.6,31,29.3,48.4,16.4Z"/>
  <path class="cls-23" d="M697.6,595.4c.2-1.6.7-3.2.6-4.8-.8-31.3-1.6-62.6-2.4-93.9-.2-8.2,1.4-10.6,9.6-10.2,19.1.8,37.6-3.7,56.4-5.8,34.1-3.8,65.4,3.1,90.4,28.6,15.4,15.7,21.7,35.3,23.5,56.9.7,8.7,2.5,17.4,4.8,25.8,2.2,8,8.1,14,14.5,19.3,6.3,5.3,6.2,8.2,0,13.6-7.8,6.8-15.7,13.4-23.5,20.2-4.9,4.3-10.1,5.3-16.6,3.4-27.2-8.3-45.7-30.5-48.5-58.6-.9-9.2-1.8-18.6-4.1-27.6-4.5-17.3-17.2-26-35.4-25.5,0,8.3-.1,16.5,0,24.8.5,25.3,1.2,50.6,1.7,75.9.2,8.2-1,9.3-9,9.5-1,0-2,0-3.8,0-12.6-11.2-24.3-22.4-36.3-33.3-7.1-6.4-14.7-12.2-22-18.3Z"/>
  <path class="cls-23" d="M1498.2,644.1c-7.4-3.7-14.9-7.5-22.6-11.8-1-.8-1.6-.9-2.2-1.1,0,0,.1,0,.1-.3-3.4-4-7-7.6-10.2-11.4-4.1-4.9-7.8-10.1-11.7-15.1-1.8-5.1-3.7-10.1-5.4-15.2-14.7-45,9.2-91.1,54.4-105.3,19.1-6,38.4-8.3,58.1-3.7,21.8,5,36.5,18.7,44.7,39.1,3,7.3,5,15.2,6.1,23,2.6,17.2-3.8,29.1-20.1,34.5-15.5,5.2-31.8,8.3-47.7,12.1-3.7.9-6.6-.8-8-4.4-3.6-8.9-7.1-17.9-10.6-26.9-1.5-3.8,0-6.1,3.5-7.4,4.2-1.6,8.5-2.8,12.7-4.5,5.8-2.3,6.3-5.5,2-10.2-9-9.5-25.7-6.8-33.5,5.4-8.1,12.6-5.8,32.4,5,44.6,12.8,14.4,29.4,17,47.4,15.3,2.6-.2,5.4-.4,7.8.3,4,1.1,6.1,4,4.9,8.4-2.9,10.2-5.6,20.5-8.9,30.6-2.4,7.4-8.7,9.5-15.8,10-3.8.2-7.7.2-12.4.2-5.2-.3-9.6-.2-13.8-.9-7.5-1.2-14.9-2.8-22.4-4.2,0,0,0,0-.2-.2-.5-.4-.8-.5-1.2-.7Z"/>
  <path class="cls-46" d="M1126.3,340.7c.6-2.8-.2-4-3.3-3.6-5.4.7-10.9,1.4-16.4,1.8-5.7.4-8.3-1.5-8.8-7.1-1.3-14.9-2.5-29.8-3.5-44.8-.4-5.3,1.8-7.5,7.3-8,4-.4,7.9-.8,12.8-1.1,1.6-1.2,3-2.4,3-3.5-.1-4.5-.7-8.9-1.2-13.4-.6-6.3-1.4-12.5-1.7-18.8-.4-6.7,1.7-9.2,8.4-9.9,13.3-1.6,26.7-2.9,40.1-4.3,4-.4,7.9-.9,11.9-1.1,7.4-.5,9.8,1.7,10.5,9.2.7,7.6,1.6,15.2,2.6,23.3.2,3.9.2,7.1.2,10.8,5.7-.5,10.2-.9,15-1.3,10.2-.9,10.8-.4,11.5,9.4,0,.9.7,1.8,1,3.2.4,5.9.9,11.3,1.3,16.7.6,7.5,1.1,14.9,1.7,22.4.4,4.8-2.1,7-6.6,7.5-5.7.6-11.4,1.3-18.8,2.1,3.9,12.4,7.1,24,11.3,35.2,2.7,7.2,8.4,11.9,16,13.7,4.6,1.1,5.7,3.9,4.6,8.2-3,11.9-5.7,23.9-8.8,35.8-2.3,8.9-4.5,10.4-13.7,10-33.1-1.2-52.7-16.5-65.2-50.6-.5-1.4-1-2.8-1.9-4.8-2.5-9.7-4.7-18.9-6.9-28-.7-3-1.7-5.9-2.5-8.9Z"/>
  <path class="cls-19" d="M1581.1,368.1c.4.2.4.4.7.6,1.5,11,3.2,21.9.3,32.8-4.2,15.7-14,27.4-26.5,37.1-21.8,16.8-47.2,25.7-73.5,32.2-31,7.7-62.5,11.3-94.5,10-22.9-.9-45.4-4.3-66.1-15-22.8-11.7-34.3-30.6-35-56.6,3.9-.3,7.8-.7,11.8-.9,11.1-.5,22.3-.8,33.4-1.4,3-.2,4.4.6,4.9,3.9,1,6.2,2.6,12.4,3.8,18.6.9,4.5,3.6,6.4,8.2,6.1,18.3-1.2,36.5-2.4,54.8-3.6,6-.4,7.9-2.5,8-8.5,0-5.8-.1-11.7.2-17.5,0-1.3,1.6-3.4,2.7-3.6,14.8-2.2,29.6-4.2,44.7-6.2,2,6.9,4,13.6,6,20.2,1.7,5.4,3.6,6.8,9.2,5.6,18.2-3.8,36.4-7.7,54.6-11.6,4.4-.9,6-3.6,5.7-7.9-.5-7.6-.9-15.2-1.4-23.1,16.1-3.9,31.7-7.6,47.8-11.4Z"/>
  <path class="cls-19" d="M435.3,507.8c-.3,17.5-3.4,20.4-21.1,21.2-36.9,1.7-73.8,3.8-110.7,5.7-25.8,1.3-51.5,2.7-77.3,3.9-8.3.4-14.3-5.1-14.8-13.5-.5-8.5-1.1-16.9-1.5-25.4-.4-8.2,4.6-14.3,12.8-14.9,15.6-1.1,31.2-1.9,46.9-2.7,44.5-2.3,89.1-4.6,133.6-6.9,4.8-.2,9.7-.3,14.5-.5,10.4-.3,15,3.5,16.2,13.8,0,.8.3,1.6.6,3.3.3,5.9.6,10.9.9,16M416.7,507.4c3.7,2,7.4,1.4,10-1.5,1.5-1.7,2.4-4.8,2.2-7.1-.4-4-3.4-7-7.4-6.6-2.8.3-6.1,2.4-7.8,4.7-2.7,3.6-.8,7.2,3,10.5Z"/>
  <path class="cls-19" d="M1232.6,760.2c1.8,10.7-2.8,17.3-13.6,18.1-14.9,1.2-29.9,1.8-44.9,2.5-49.7,2.5-99.4,5-149.2,7.5-10,.5-14.6-4.1-16.4-17.7-.5-5.9-.9-10.9-1.2-15.9.1-1,.4-2,.4-3,0-12.3,4.2-16.9,16.5-17.6,29.4-1.5,58.9-2.9,88.3-4.4,33.9-1.7,67.8-3.4,101.8-5.2,11.6-.6,16.8,3.7,17.4,15.1,0,1.2.3,2.3.6,4.3.2,5.9.3,11,.3,16.1M1033.6,762.4c-.3-5.6-3.3-9.1-7.7-9.2-3.7,0-8,3.6-8.4,7.2-.6,4.7,2.2,8.7,6.7,9.6,4.2.8,7.9-1.8,9.4-7.5M1213.9,760.6c1.3.2,2.6.5,3.9.5,4.5,0,7.7-3.5,7.7-8,0-4.5-3.2-7.8-7.6-8.1-3.9-.3-6.7,1.5-8,4.8-1.6,4-.7,7.9,4,10.9Z"/>
  <path class="cls-2" d="M1190.9,691.1c-2.5,1.1-4.8,2.8-6.9,2.6-18.2-1.7-36.4-3.6-54.6-5.6-5.3-.6-6.9-3-6.4-8.6,4.2-42.2,8.4-84.4,12.6-126.6.3-3.1.6-6.3,1-9.4.6-5.4,3-7.4,8.3-6.9,18.2,1.8,36.4,3.6,54.6,5.4,4.8.5,6.6,2.7,6.2,7.8-1.4,15.7-3,31.5-4.5,47.2-2.5,25.3-5.1,50.7-7.7,76-.6,5.9-1.5,11.9-2.6,18.1Z"/>
  <path class="cls-46" d="M1319.6,574.1c-4.6-.3-9.1-.6-14.4-1,.6,9,1.1,17.2,1.7,25.4,1.9,25.7,3.9,51.4,5.8,77.1.5,6.4-1.2,8-7.5,8.5-17.4,1.3-34.8,2.8-52.2,4-7.4.5-9-1.3-9.5-8.6-2.5-33-5.1-66-7.7-99-1.1-14.9-2.2-29.9-2.8-45.2,22.8,10,45.2,20.4,67.6,30.6,6.3,2.9,12.7,5.4,19,8.1Z"/>
  <path class="cls-18" d="M832.3,204.9c-.8,5.3-1.9,10.4-3.5,15.7-9.7-4.1-19-8.2-28.1-12.6-2.9-1.4-4-.8-5.6,2.2-5.8,11.1-11.9,21.9-18.2,32.7-3.6,6.1-7.7,11.9-11.6,17.8-8,1.5-16.1,3-24.5,4.5,3.2-4.8,6.8-9.6,10.5-14.3,11.3-14.1,21.1-29.1,28.5-45.6,2.6-5.8,2.6-5.9-3.1-8.5-18.2-8.4-36.4-16.7-52.3-28.9-16.1-12.3-29.9-26.9-40.1-44.7-5.8-10.1-9.8-21-9.5-32.7.5-15.9,9.2-26.9,22.8-34.6,32.5-18.6,64.2-4.8,83.2,22.1,19.4,27.5,26.9,58.7,24.6,92.2-.4,5.3-1.5,10.5-2.6,15.7-.7,3.4-.1,5.5,3.4,7,8.7,3.7,17.3,7.9,26.2,12M771.7,93.3c-2.6-3.6-5-7.5-8-10.8-14.2-16.5-35.1-25.7-57.8-12.9-12.5,7-17.5,16.6-13.9,30.6,4,15.5,13.8,27.5,24.2,39,18.8,20.6,43.6,31.9,68.1,43.6.7.3,1.6.2,2.8.2,6.2-31.8.7-61.3-15.4-89.7Z"/>
  <path class="cls-41" d="M834.4,164.4c1-6,2.1-11.5,2.7-17.1.5-4.3,2.5-5.1,6.4-4.3,8,1.7,16,3,24,4.5,1.6.3,3.2.5,5.3.8,3.4-14.5,6.7-28.6,10.2-43.4-6.9-1.8-13.5-3.4-20-5.1-6-1.5-6.3-2.2-4.8-8.4,1.2-4.7,2.3-9.4,3.5-14,1.5-6,2.4-6.5,8.3-5,19.6,5,39.3,10.1,58.9,15.1,4.7,1.2,9.3,2.5,14,3.5,3.3.8,4.3,2.7,3.5,5.8-1.6,6.1-3.2,12.2-4.7,18.4-.8,3.1-2.4,4-5.5,3.1-7.2-1.9-14.4-3.6-22.1-5.6-3.3,13.8-6.5,27.3-9.8,41.4,10.4,2,20.5,3.9,30.5,5.8,7.2,1.3,7.8,1.9,6.7,9-.8,5.1-1.8,10.2-2.6,15.2-.6,3.7-2.1,5-6.1,4.2-31.4-5.9-62.8-11.7-94.1-17.5-3.6-.7-5.4-2.3-4.3-6.6Z"/>
  <path class="cls-41" d="M396.4,57.1c10.2,3.3,20,6.4,29.8,9.7,11.7,4,15.1,11.7,10.4,23-8.7,20.9-17.3,41.8-26,62.7-2.7,6.5-4.6,7.5-11.5,6.2-21.2-4.2-42.4-8.4-63.6-12.6-6.8-1.3-7.1-1.7-6.1-8.4.9-5.9,2.2-11.8,2.8-17.7.5-4.1,2.2-4.8,6-3.9,12.7,2.8,25.4,5.1,38.1,7.8,4.7,1,7.4,0,9.2-4.7,3.2-8.4,7.1-16.5,10.6-24.8,2.2-5.1,1.6-6.3-3.6-8-14.4-4.7-28.8-9.4-43.1-14.1-5.8-1.9-6-2.4-4.1-8.2,1.7-5,3.7-10,5-15.1,1.3-4.8,3.7-5.3,8.1-3.9,12.4,4.3,25,8.1,37.9,12.3Z"/>
  <path class="cls-46" d="M1417.5,608c1.5,12.7,7.1,23,17.1,31,10.3,8.2,10.4,9.2,1.1,18.3-6.6,6.4-13.4,12.5-19.8,19-4.7,4.7-9.9,5.9-16.3,4.3-28.5-7-48.3-29-52.1-58.2-1.4-10.9-2.5-21.8-8-31.7-3.8-7-9.3-12.1-16.4-15.4,2.3.1,4.5.5,6.5,1.2,12.9,4.4,25.8,8.6,38.6,13.2,16.5,5.9,32.9,12.2,49.4,18.3Z"/>
  <path class="cls-49" d="M1233.1,760.2c-.5-5-.6-10.1-.6-15.7,38.5-3.4,77.2-5.4,115.6-9.5,37-3.9,73.9-9.3,110.7-15.2,21.5-3.4,42.6-9,62.2-19,4.7-2.4,9.1-5.6,13-9.1,5.8-5.1,6.6-11.1,1.7-17.3-4.6-5.8-10-11.1-15.8-15.8-6.2-5-13.2-8.9-20.1-13.5,7.2,1.2,14.7,2.8,22.2,4,4.2.7,8.6.6,13.4.9,3.8,3.7,7.3,7.2,10.5,11,14.2,17.4,11.3,35.4-7.4,48.1-15.5,10.5-33.1,16-51,20.7-35.3,9.2-71.4,14.4-107.6,18-40.7,4-81.5,7.2-122.3,10.7-8,.7-15.9,1-24.4,1.5Z"/>
  <path class="cls-41" d="M501.9,108.5c-2.1,13.2-4.2,26-6.4,40.3,3-2.9,5.2-4.9,7.1-7.1,2.6-2.9,5.4-3.7,8.9-1.9,11.1,5.7,22.2,11.3,33.2,17.1,3.2,1.7,3.4,4.1.9,6.9-5.8,6.6-11.6,13.3-17.1,20.2-2.6,3.2-5,3.1-8,.7-7.6-6-15.3-11.8-22.9-17.7-1.3-1-2.7-1.8-4.5-3.1-2.2,13.8-4.4,27-6.5,40.2-.7,4.6-1.5,9.2-2.1,13.8-.4,3.2-1.9,4.8-5.3,4.2-8.4-1.4-16.7-2.7-25.1-4.1-3.3-.5-3.7-2.7-3.3-5.6,3.8-23.1,7.5-46.3,11.3-69.4,2.5-15.1,5.1-30.2,7.3-45.3.7-4.5,2.7-5.5,6.7-4.8,7,1.2,14.1,2.2,21.2,3.4,6.2,1,6.4,1.4,5.5,7.9-.2,1.3-.4,2.6-.7,4.4Z"/>
  <path class="cls-46" d="M1252.4,526.1c18.1-3.2,36-7.5,54.3-9.5,30.4-3.3,58.6,3.1,81.9,24.3,13.8,12.6,22.1,28.4,24.9,47.3-12.2-3.9-24.1-8.1-36-12.4-31.8-11.6-63.7-22.9-95.3-35-10.3-3.9-19.9-9.8-29.8-14.7Z"/>
  <path class="cls-45" d="M1252,526.1c10.3,5,19.9,10.9,30.2,14.8,31.6,12.1,63.5,23.4,95.3,35,11.9,4.3,23.7,8.6,36,12.9,12.7,5.1,25,10.2,37.6,15.4,4.2,5.2,8,10.4,12,15.3,3.2,3.9,6.8,7.4,10.1,11.5-18.4-7.4-36.8-15.1-55.5-22.9-16.8-6.1-33.3-12.3-49.8-18.3-12.8-4.6-25.7-8.9-38.6-13.2-2-.7-4.2-1.1-6.6-1.5-.4,0-.4,0-.5-.3-.8-.4-1.5-.4-2.2-.5,0,0-.3,0-.4,0-6.5-2.8-12.9-5.3-19.1-8.1-22.4-10.3-44.8-20.7-67.5-31.1-7.7-4.8-15-9.4-22.3-14.2-2.6-1.7-5.1-3.6-7.8-5.9,3.2-4.3,6.5-8.1,9.8-12,12.1,7.4,24.2,14.7,36.4,22.1.8.5,1.7.7,3,1.1Z"/>
  <path class="cls-18" d="M1115.8,261c.8,4.5,1.4,8.9,1.6,13.4,0,1.2-1.4,2.3-2.5,3.5-10.2-1.7-19.9-3.8-29.8-4.8-25.1-2.6-50.2-5.6-75.4-6.6-22.2-.9-44.5.7-66.8,1.4-4.7.1-9.4,1-14.9,1.6,3.9,5.7,7.1,10.4,10.5,15.6-4,3.7-8.1,7.1-12.6,10.3-5-6.7-9.5-13.3-14.4-19.5-1-1.2-3.9-1.8-5.7-1.4-5.9,1.5-11.7,3.6-17.6,5.4,2.8-12.5,5.7-24.9,8.8-37.7,5.1,3.7,9.9,7.8,15,11.5,1.4,1,3.6,1.7,5.2,1.4,30.6-6.1,61.5-6.2,92.4-4.9,34.5,1.5,68.8,4.9,102.9,10.6,1,.2,2,0,3.4.1Z"/>
  <path class="cls-20" d="M581.7,688.1c24.9-4,49.3-7.9,73.8-11.8.2,0,.3,0,.5,0,8.7-1.2,14.7,2.1,15.5,8.5.7,5.9-3.8,10.3-12.3,11.5-52.4,7.1-104.3,17-155.6,30.2-7.2,1.8-12.9-1-14.6-6.8-1.5-5.4,2.1-10.5,9.1-12.7.6-.2,1.3-.4,1.9-.6,24.1-5.5,48.3-10.9,72.5-16.4,2.9-.7,5.9-1.2,9.2-1.9Z"/>
  <path class="cls-39" d="M601.3,768.8c-2.6.4-4.7.9-6.8,1.1-6.2.5-11-2.8-11.9-8.1-.9-5.3,2.5-10.3,8.5-11.7,7.1-1.6,14.4-2.8,21.6-4.1,44-7.6,88.2-12.8,132.7-15.8,2.8-.2,5.7-.3,8.5-.3,6,.2,10.5,4.4,10.6,9.8,0,5.2-4,9.6-9.8,10.2-8.9.8-17.9,1.3-26.9,2-42.3,3.4-84.4,8.9-126.5,16.8Z"/>
  <path class="cls-41" d="M1249.5,213c-4.9,1.7-9.5,3.2-14,4.8-2.9,1-5,.3-6.5-2.6-3.9-7.3-8-14.6-12.2-21.7-2.1-3.6-.9-5.2,2.6-6.8,26.7-12.7,53.3-25.4,79.9-38.3,3.2-1.5,4.8-.9,6.4,2,3.2,6,6.4,12.1,10,17.8,2.4,3.8,1.8,6-1.7,8.7-19.7,15-40.8,27.3-64.4,36.2Z"/>
  <path class="cls-41" d="M1006.6,229.1c-8.8,3.3-17.2,6.4-25.5,9.5-3.4,1.3-5.5.5-7.3-2.9-3.7-7.1-7.6-14-11.7-20.9-2.1-3.5-1.7-5.4,2.2-7.3,26.7-12.6,53.3-25.4,79.9-38.3,3.1-1.5,4.8-1,6.4,1.9,3.4,6.3,6.8,12.6,10.5,18.7,2,3.4,1,5.3-1.8,7.5-16.3,12.5-33.6,23.2-52.8,31.6Z"/>
  <path class="cls-41" d="M648.8,146.8c7.2.7,14,1.5,20.8,2,3.7.3,5.5,1.7,5,5.7-.8,7.6-1.5,15.2-2.2,22.8-.3,3.8-3,3.9-5.8,3.7-11.6-1.1-23.2-2.1-34.8-3.3-19-1.9-38.1-3.8-57.1-5.6-5.9-.6-6.7-1.3-6.3-6.9.6-7.1,1.4-14.2,2-21.4.3-3.4,2.3-4.7,5.4-4.4,20.2,2,40.4,4,60.6,6,4,.4,7.9.8,12.4,1.3Z"/>
  <path class="cls-41" d="M1085.7,170.3c28.7-12.2,56.8-24.6,83.4-40.1,3.2-1.8,5.1-1.3,6.8,1.9,3.1,5.9,6.4,11.7,9.8,17.4,1.7,2.8,1.4,4.8-1.2,6.8-24.4,19-51.2,33.4-80.8,42.6-3,.9-5,.4-6.6-2.5-3.8-7-7.9-13.9-11.6-20.9-.7-1.3-.2-3.2.1-5.1Z"/>
  <path class="cls-43" d="M591.5,719c26-4,51.6-8.2,77.3-11.9,13.8-2,27.7-3.3,41.7-4.5,3.3-.3,7.5.2,9.8,2.2,2.3,2,3.9,6.2,3.9,9.4,0,4.3-3.5,7.2-7.8,7.9-8.4,1.2-16.9,1.8-25.3,3-33.2,4.8-66.4,9.8-99.6,14.7-2.1.3-4.4.6-6.4.3-4.5-.7-7.5-3.5-8.4-8.1-.8-4.2,1.6-8.8,5.8-10.5,2.7-1.1,5.8-1.5,9.1-2.3Z"/>
  <path class="cls-17" d="M697.3,595.2c7.6,6.3,15.2,12.1,22.3,18.5,12,10.9,23.7,22.1,35.9,33.3,6.8,6.2,13.3,12.3,19.7,19-7.6.7-15.1.9-22.6,1.1-6.5-6.3-12.9-12.6-19.9-19.3-6.7-6.4-12.8-12.4-19.2-18.1-4.6-4.1-9.7-7.8-14.6-11.7-7-5.9-14-11.9-21.2-17.7-3.1-2.5-6.4-4.7-9.9-7.1-1.3-5.9-5.7-7.2-11.2-8.1-10.1-6.2-19.6-12.2-29.1-18.2.6-.2,1.2-.6,1.8-.7,8.3-1,9.2-2,9.2-10.7,19.5,12.9,38.9,26.2,58.7,39.8Z"/>
  <path class="cls-17" d="M1126,340.9c1.1,2.7,2.1,5.7,2.8,8.7,2.2,9.1,4.3,18.3,6.5,27.8-1.2,27.2,7.8,50.7,23.1,73,6,7.3,11.6,14,17.4,20.9,5,4.8,9.8,9.4,14.7,14.3-.1,7.1-3.3,11.2-9.3,12.6-6-5.6-12-11.2-18.4-17.2-2.8-3.2-5.1-6-7.5-8.7-3.1-3.5-6.4-6.9-9.5-10.3-.8-1.8-1.3-3.7-2.3-5.3-17.1-25.5-26.3-53.4-23.7-84.3.9-10.5,4-20.8,6.3-31.5Z"/>
  <path class="cls-12" d="M1202.7,268.9c-4.4.4-8.8.8-14.6,1.2,0-3.6,0-6.9.1-10.5,26.5-21,56.1-35.5,87.9-45.4,16.5-5.1,33.5-8.3,50.7-12.5,1.8,4.8,3.2,9.7,4.1,15-4,1.1-7.6,1.8-11.2,2.5-26.6,5.1-52.2,13-76.5,25-10.1,5-19.9,10.6-29.6,16.2-4,2.3-7.4,5.6-11.1,8.5Z"/>
  <path class="cls-20" d="M588.5,789.2c1-5.7,4.3-8.5,9.4-9.3,24.8-4,49.6-8,74.4-11.8,8.7-1.3,17.5-2.3,26.3-2.9,5.2-.4,9,2.9,10.2,7.8,1.1,4.7-.9,8.2-4.6,10.7-1.5,1-3.4,1.3-5.2,1.6-17,2.3-34,4.3-51,6.8-15.1,2.3-30.2,5-45.3,7.6-8.5,1.5-13.4-1.8-14.3-10.4Z"/>
  <path class="cls-41" d="M1181.2,498.6c6-1.8,9.1-5.9,9.4-13.4-.7-9.5-6.3-14.5-14.9-14.2-5.6-6.7-11.3-13.4-17-20.4,10.7-4.8,21.5-5.8,32.7-1.2,18.3,7.4,28.2,28.1,22.4,47-.6,1.8-.9,3.8-1.2,6.1-3.1,4.2-6.4,8-9.9,12.1-5.5,3.2-10.8,6.1-16.9,9.4-1.6-9.1-3.1-17-4.6-25.4Z"/>
  <path class="cls-22" d="M1115.2,441.3c3,1.5,5.8,2.6,8.3,4.2,1.5,1,2.7,2.5,4.1,3.8-1.4,1.2-2.6,2.9-4.2,3.6-5.3,2.3-11,3.9-16.2,6.4-2.4,1.2-4.8,3.4-6.2,5.8-3,5.1-5.3,10.7-8.1,16-.8,1.4-2.4,2.4-3.7,3.6-1.1-1.3-2.6-2.5-3.3-4.1-2.4-5.8-4.4-11.8-7-17.6-.8-1.9-2.6-3.8-4.5-4.9-5.5-3.1-11.3-5.6-16.9-8.6-1.4-.7-2.8-2.4-3-3.9-.1-.8,2-2.6,3.3-2.9,16-3.4,26.4-12.6,31-28.4.4-1.4,2.4-2.4,3.6-3.5,1.1,1.2,2.6,2.3,3.3,3.8,1.6,3.3,3.1,6.7,3.9,10.2,1.9,8.4,7,13.6,15.4,16.3Z"/>
  <path class="cls-48" d="M796,682.3c-.2-.9-.3-1.9-.7-2.8-2.3-6.1.6-11.9,6.9-13.5,1.9-.5,3.9-.8,5.9-.8,23.4.3,46.9.6,70.3.9,2,0,4,.4,5.9,1,4.2,1.3,7.4,5.7,7.1,9.8-.4,4.9-3.3,8.2-8,9-4,.7-8.2.3-12.4.2-18.6-.1-37.3-.3-55.9-.5-5,0-9.9-.5-15.6-.7-1.7-.9-2.7-1.7-3.6-2.6Z"/>
  <path class="cls-39" d="M752.1,667.1c7.9-.2,15.5-.4,23.2-.8,2.5,1.5,4.8,3.3,6.9,5.6,1.1,6.8-1.1,11.4-6.9,14.2-14.6,1-29.2,1.9-43.8,2.9-10.3.8-20.5,1.8-30.8,2.6-1.7.1-3.3.3-5,.1-5.5-.6-9.7-4.7-9.9-9.5-.2-4.5,3.5-9.4,8.7-10.1,10.2-1.4,20.5-2.2,30.8-3.1,8.8-.8,17.6-1.3,26.8-2Z"/>
  <path class="cls-39" d="M814.5,696c1.6.4,3.1,1,4.7,1.1,6.1.4,10.3,3.2,11.8,9.8-.9,7.4-5.8,9.7-11.6,11.1-13.9.1-27.9.1-41.8.5-9.3.2-18.6.9-27.9,1.4-1,0-2,0-3,0-5.8-.5-10.1-4.5-10.3-9.6-.2-5.2,3.6-9.7,9.5-10.3,9.8-.9,19.6-1.3,29.3-1.8,4.3-.2,8.6-.2,13.9-.3,9.1-.6,17.2-1.2,25.3-1.9Z"/>
  <path class="cls-18" d="M223.8,444.1c-7.5-9.6-14.9-18.8-21.4-28.6-9.6-14.4-15-30.6-19-47.3-5.5-22.8-5.1-46-4.9-69.7.7,6.5,1.1,13.4,1.9,20.3,5.7,51.1,29,91.8,71.9,120.8,1.2.8,2.4,1.7,4.6,3.4-11.7.4-22.2.8-33.1,1.2Z"/>
  <path class="cls-49" d="M1006.9,754.8c.8,5,1.2,10,1.6,15.5-37.5,4.3-73.6-2-109.5-14.2.1-5.3,4-6.6,7.7-8.1,1.9-.8,3.8-1.5,1.9-4,4.2.8,8.5,1.4,12.6,2.5,28,7.5,56.3,11.3,85.7,8.3Z"/>
  <path class="cls-37" d="M441.8,412.3c1.7-2.9,3.1-5.6,4.8-8,.7-1,2.2-2.3,2.9-2.1,1.1.3,2.4,1.7,2.8,2.8,1.7,5.2,2.9,10.6,4.8,15.7,1,2.5,2.9,5.1,5.1,6.7,4.6,3.3,9.7,5.8,14.5,8.8,1,.6,2.5,2.2,2.3,2.9-.3,1.2-1.7,2.4-2.9,2.9-5.5,1.9-11.2,3.2-16.6,5.2-2.1.8-4.3,2.4-5.6,4.3-3.3,4.8-5.9,10-9,14.9-.7,1.1-2.3,2.5-3.2,2.3-1.1-.2-2.3-1.8-2.7-3.1-1.7-5.2-2.8-10.6-4.8-15.7-1-2.5-3-5-5.3-6.6-4.4-3.2-9.4-5.6-14-8.6-1.1-.7-2.4-2.3-2.2-3.3.2-1.1,1.8-2.2,3-2.7,2.8-1.1,5.6-2.2,8.6-2.6,8.4-1.2,14.3-5.5,17.6-13.8Z"/>
  <path class="cls-34" d="M563.3,387.9c16.5,1,32.3-1.9,48.2-6.9-2.6,2-5.6,4.1-8.8,5.8-31.8,16.6-64.5,31-98.4,42.7-9.1,3.1-13.9-2.1-13.1-7.8.6-4.3,3.7-5.9,7.2-7.3,20.7-8.2,41.4-16.4,62.1-24.7.9-.4,1.7-1,2.7-1.8Z"/>
  <path class="cls-39" d="M1217.8,112.3c8.6-5.7,9.1-6,17.4,0,6.4,4.6,12.7,9.6,18.4,15.1,4.6,4.6,4,6.4-1.4,10.2-6.4,4.5-12.8,8.9-19.1,13.5-2.9,2.1-5.1,2.3-7.7-.5-6.8-7.3-13.8-14.4-20.6-21.7-4.3-4.7-4-5.3,1-8.7,3.9-2.6,7.8-5.1,11.9-7.9Z"/>
  <path class="cls-44" d="M955.5,156q-10.3-11,1.9-19c2.5-1.7,5.2-3.1,7.4-5,4.4-3.8,8.7-3.7,13-.4,6.9,5.4,14.2,10.4,20.6,16.4,5,4.7,4.3,6.9-1.4,10.9-6.4,4.5-12.8,8.9-19.1,13.5-2.8,2.1-4.9,1.9-7.3-.7-4.8-5.3-9.9-10.3-15.1-15.7Z"/>
  <path class="cls-39" d="M1062.8,121c2.6-1.9,5.3-3.5,7.9-5,1-.6,2.1-.9,3.2-1.3,15.8-6.5,12.7-8.2,26,5.6,3.7,3.8,6.7,8.3,9.6,12.7,2.1,3.1,1.2,5.6-2.4,7.1-7.2,3.1-14.2,6.5-21.5,9.3-1.7.7-5.2.2-5.9-.9-5.9-8.9-11.3-18-16.9-27.5Z"/>
  <path class="cls-44" d="M1117.8,79.7c8.3,5.1,16.4,9.9,24.2,15.2,3.5,2.4,3.6,5.5-.2,8.5-5.8,4.7-11.4,9.7-17.1,14.6-1.9,1.6-3.7,2.8-6,.6-6.9-6.2-13.9-12.3-20.9-18.5-3.5-3.1-3.3-5.5.6-8.3,4.6-3.3,8.7-7.2,13.3-10.5,1.5-1.1,3.8-1.2,6.1-1.6Z"/>
  <path class="cls-49" d="M435.8,507.9c-.8-5-1-10.1-1.3-15.6,22.4-.2,44.5,3,66.7,7.8,1.4,5.4,2.4,10.8,3.3,16.6-22.6-4.3-45.2-8.4-68.8-8.8Z"/>
  <path class="cls-39" d="M1145.4,462.2c3.5,3.2,6.7,6.6,9.8,10.1,2.4,2.7,4.7,5.5,7.2,8.6-1.2,6.1,0,11.1,4.5,15.3.9.8,1.7,2.7,1.4,3.7-2.4,6.9-5.1,13.6-7.7,20.4-18.8-6.6-32.3-34.9-15.2-58.1Z"/>
  <path class="cls-30" d="M819.7,718.2c5.5-1.7,10.5-3.9,11.5-11,20.1,9.7,40,19.6,60.1,30-3,3.3-6.4,6-10.2,9.2,2.1,1,4.2,1.6,5.8,2.8,1.7,1.2,3,3,4.5,4.6-6.7-2.7-13.5-5.3-20.7-8.4-1.6-2.4-2.8-4.5-4.3-7.3-1.4,1.8-2.2,2.9-3.1,4-14.5-7.9-29-15.8-43.7-23.9Z"/>
  <path class="cls-22" d="M863.3,742.5c.9-1.4,1.7-2.5,3.1-4.4,1.5,2.8,2.7,4.8,3.9,7.1,1.8,8.4,6.9,13.1,14.8,15.3,1.7.5,3.6,1.2,4.8,2.4.7.7.6,3.4-.1,3.9-2.2,1.5-4.7,2.7-7.2,3.3-6.3,1.7-9.6,5.8-11.5,11.8-.9,3.1-2.6,5.9-4,8.9-.5,0-1.1.1-1.6.2-1.5-2.9-3.5-5.7-4.4-8.9-2-6.6-6-10.7-12.7-12.6-2.9-.8-5.6-2.5-8.7-4.8,10.5-4.9,21.2-9,23.4-22.3Z"/>
  <path class="cls-4" d="M902.2,453.2c3.8,9.4,10.6,14,20.1,15.1,1.6.2,3.1,1.6,4.6,2.4-1.2,1.2-2.3,2.5-3.5,3.7-.2.2-.5.4-.8.5-8.7,3.5-13.1,10.1-14.2,19.2-.2,1.7-1.7,3.3-2.6,4.9-1.3-1.4-3.2-2.5-3.9-4.1-3.7-9.1-10.8-13.3-20.1-14.6-1.5-.2-2.9-1.7-4.3-2.6,1.1-1.1,2.1-2.7,3.4-3.3,9.3-3.9,14.2-10.8,15.4-20.7.2-1.4,1.5-2.7,2.3-4.1,1.2,1,2.3,2.1,3.7,3.4Z"/>
  <path class="cls-39" d="M674.7,421.9c8.2-3.5,15.3-2.4,20.6,3,5.1,5.2,6.3,12.9,3.2,19.4-3.1,6.3-9.7,10.2-16.7,9.7-6.9-.5-13.1-5.4-15.1-12-2.3-7.7.3-14.3,8-20Z"/>
  <path class="cls-29" d="M697.2,232.4c-3.5-1.1-3.7-2.6-1.2-4.6.1-.1.3-.2.4-.3,10.3-4.2,15.2-12.2,16.2-22.9,0-.8.9-1.6,2.1-3.3,2.2,3.2,4.3,5.7,5.7,8.6,2.7,5.3,6.6,8.4,12.6,9.2,3.3.5,6.4,1.8,9.6,2.8,0,.5,0,1,.1,1.5-2.4,1.7-4.6,3.7-7.2,4.9-6.1,2.9-9.3,7.4-10.2,14.2-.3,2.6-1.9,5.1-3,7.6-2-2-4.8-3.7-5.7-6.2-3.6-8.8-11.5-9.5-19.4-11.5Z"/>
  <path class="cls-34" d="M1217.3,298.1c-.8-5.4-1.3-10.8-1.3-16.6,12.9,2.3,25.3,4.9,37.8,7.6,6.2,6.8,12.4,13.6,18.5,20.7-16.9-3.5-33.8-7.4-50.7-11.2-1.3-.3-2.6-.4-4.3-.5Z"/>
  <path class="cls-27" d="M641.8,364c4.2-5.5,9.2-10.6,13.1-16.4,3.5-5.2,5.8-11.2,8.8-17.1,10.1-7.5,20-14.7,29.9-22,1.5-1.1,2.9-2.3,4.6-3.6-.9,3.2-2.4,6.5-3.4,9.9-1.6,5.5-3,11-4.7,16.8-14.7,10.2-29.1,20.1-43.6,30-1.4.9-2.9,1.6-4.7,2.4Z"/>
  <path class="cls-29" d="M1248.7,480.7c-5.2-2.1-10.1-3.9-15.1-5.8-.1-.5-.2-1-.4-1.5,2.4-1.5,4.7-3.4,7.3-4.3,5.9-2.1,9.1-6.2,10.4-12.2.4-1.8,1-3.5,1.8-5.2,1.1-2.3,2.5-2.6,4-.2.3.4.6.8.7,1.3,2.9,8.6,8.7,13.8,17.7,15.3,1.2.2,2.2,1.6,3.3,2.5-1,1-2,2-3.1,2.9-.4.3-.9.5-1.3.7-7.4,2.5-11.6,7.8-13.3,15.3-.4,1.8-1.5,3.6-2.9,6.8-3.4-6-6.2-10.7-9.2-15.7Z"/>
  <path class="cls-41" d="M698.8,618.4c5,3.4,10,7.1,14.7,11.2,6.4,5.7,12.5,11.8,18.9,17.9-8.3.5-16.7.8-25.1.9-5.5,0-7.6-1.9-7.8-7.3-.3-7.4-.4-14.9-.6-22.8Z"/>
  <path class="cls-34" d="M908.4,398.8c2.7,4.1,5.4,8.2,8.3,12.7-12.2,7.2-25.7,9.6-40,10.3,2.6-5.4,5.7-10.7,9.2-16.4,7.8-2.4,15.2-4.5,22.5-6.5Z"/>
  <path class="cls-49" d="M814.3,695.8c-7.9.9-16,1.5-24.6,2.2-5-3.8-9.5-7.5-14.2-11.6,5.7-3.1,7.8-7.7,6.9-14.2,4.5,3.1,8.7,6.4,13.3,9.9,1.3,1.1,2.3,2,3.5,2.9,5.1,3.5,10,7,15.2,10.8Z"/>
  <path class="cls-7" d="M541.6,115c4.7-3.5,8.3-2.5,11.2,2,0,.1.2.3.3.4,8,9.8,6.9,13.8-5.4,17.9-1.2.4-3.4-.3-4.2-1.3-2.9-3.6-5.3-7.6-7.9-11.5-1.5-2.3-.8-4,1.6-5.2,1.3-.6,2.6-1.4,4.3-2.3Z"/>
  <path class="cls-4" d="M513.6,111.5c5-.6,9.9-.9,14.8-.8,1,0,2.7,1.8,2.9,2.9.7,4.6,1,9.2,1.1,13.8,0,.9-1.8,2.5-2.8,2.5-3.9,0-8-.2-11.8-1-1.3-.3-2.9-2.3-3.2-3.7-.7-4.4-.8-8.9-1-13.7Z"/>
  <path class="cls-25" d="M891.7,754c-1.7-1.8-3-3.6-4.7-4.8-1.7-1.2-3.7-1.8-5.8-2.8,3.8-3.1,7.2-5.9,10.6-9,1.2-2.3,2.4-4.2,4-6.9,2.9,6.1,5.1,12.3,12.7,13.2,2.1,2.9.2,3.6-1.7,4.3-3.7,1.5-7.5,2.8-8,8-.9,1.6-1.9,2.8-3.3,4.7-1.3-2.5-2.4-4.4-3.7-6.6Z"/>
  <path class="cls-15" d="M463,59.6c-.7,1.7-1.3,3.4-2.5,4.4-1.6,1.3-3.9,1.9-5.6,3.1-4,2.7-6.6,1.8-8.6-2.6-1.4-3-3.5-5.7-4.7-8.8-.5-1.2.9-3.1,1.4-4.7,0-.1.3-.1.4-.2,10-5.3,10.2-5.2,16.6,4.2.9,1.4,1.9,2.8,3,4.4Z"/>
  <path class="cls-21" d="M1163.5,72.8c1.8,4.8,3.3,9.5,4.8,14.2.1.4,0,1.3-.3,1.4-3.7,1-7.3,2.2-11.1,2.5-1.8.1-4.7-1.2-5.4-2.7-6-12.7-2.8-16.9,11.9-15.3Z"/>
  <path class="cls-15" d="M1170.3,78c11.2-8.7,9.3-8.8,19.6.6,4.4,4.1,4.5,4.5,0,8.4-9.7,8.5-7.8,7.7-15.5-.8-2-2.2-6.1-3.6-4-8.2Z"/>
  <path class="cls-15" d="M421.3,44.6c5.2-.2,10.2-.4,15.2.4.9.1,1.7,4,1.8,6.2.2,12.2,0,12.3-12.2,9.9-3.3-.7-4.9-2.2-4.8-5.7.1-3.5,0-7,0-10.8Z"/>
  <path class="cls-45" d="M1473.5,631.4c.5,0,1.1,0,1.8.6-.5.1-1.1-.1-1.8-.6Z"/>
  <path class="cls-46" d="M1320.3,574.5c.5-.2,1.2-.1,2,.3-.5.2-1.2.1-2-.3Z"/>
  <path class="cls-27" d="M639.8,365.1c.1-.4.6-.9,1.3-1.2-.1.5-.6.9-1.3,1.2Z"/>
  <path class="cls-34" d="M612.4,381c.2-.4.8-.7,1.8-1.1-.2.4-.8.7-1.8,1.1Z"/>
  <path class="cls-18" d="M740.2,265.1c0,.3-.2.6-.7.9,0-.3.2-.6.7-.9Z"/>
  <path class="cls-49" d="M1498.3,644.3c.2,0,.5,0,1,.4-.2,0-.5,0-1-.4Z"/>
  <path class="cls-27" d="M638.6,366c0-.3.2-.6.7-.9,0,.2-.2.6-.7.9Z"/>
  <path class="cls-28" d="M1253.6,288.7c-12.3-2.4-24.7-5-37.5-7.7-.7-.9-1.3-1.8-1.4-2.8-.7-9.8-1.3-10.3-11.5-9.4,3.3-2.8,6.7-6.1,10.7-8.4,9.7-5.7,19.5-11.3,29.6-16.2,24.3-11.9,49.9-19.9,76.5-25,3.6-.7,7.2-1.4,11.2-2.1,2.3,4,1.3,6.7-2.2,9.8-7.4,6.4-14.4,13.4-21.1,20.5-2.6,2.7-4.8,3.3-8.1,1.9-7.9-3.4-15.9-6.5-23.7-9.9-2.9-1.2-4.8-.5-6.3,2-7,12.4-14,24.9-20.8,37.4-.6,1.1-.1,3.3.6,4.7,1,1.9,2.7,3.4,4.3,5.3Z"/>
  <path class="cls-33" d="M1378.3,322.4c6.9,22.1-5.4,42.1-27.2,44.9-16.9,2.2-32.6-9.3-36.3-26.4-3.5-16.2,6.5-33.2,22.4-38.1,17.1-5.2,33.2,2.3,41.1,19.5M1330.1,328.4c-3.2,9.3-1.1,17.5,6.2,24,6.6,5.9,14.4,7.2,22.7,3.8,9.4-3.8,14.6-12.8,13.5-23.2-1-9.2-8.7-17.2-18-18.8-10.2-1.7-19.3,3.3-24.4,14.2Z"/>
  <path class="cls-33" d="M1528.2,333.7c-16.4,19.6-46.7,14.9-56.3-7.7-5.1-12-3.6-23.6,4.6-33.8,8.5-10.6,20-14.3,33.1-11.5,12.7,2.7,21.1,11,24.7,23.6,3,10.6.7,20.4-6.1,29.5M1497.3,293.3c-9.4,1.4-16,6.4-18.8,15.5-2.6,8.1-.6,15.5,5.1,21.7,6.7,7.3,17.9,8.8,26.5,4,8.8-4.9,13.1-14.9,10.5-24.6-2.7-10.4-11-16.5-23.3-16.6Z"/>
  <path class="cls-8" d="M1414.9,330.6c-.5-3.1-.9-5.7-1.2-8.3-.7-6,2.8-10.9,8.6-12.1,5.8-1.2,11.3,1.8,12.4,7.9,1.9,10.3,3.3,20.6,4.3,31,.6,5.4-4.3,10-9.9,10.5-5.8.5-10.5-3.3-11.5-9.4-1-6.4-1.8-12.8-2.7-19.7Z"/>
  <path class="cls-9" d="M1535.7,208.1c-3.8-.4-7.2-.9-10.7-1.4-1.4-.2-2.8-.7-4.8-1.2,1.1-6.6,2.2-13,3.4-19.9,4.1.6,9.6-.1,10.9,1.9,3.5,5.4,9.3,3.5,13.5,5.7-.1,2.1-.3,4-.4,6.3-3.9,3.1-7.8,5.8-12,8.6Z"/>
  <path class="cls-1" d="M1557.4,205.2c.4-8.7,4.7-11.6,12.7-9,.2,0,.3.2.4.2q6.9,1.6,5.5,8.5c-.2,1.1-.4,2.3-.5,3.4-1,6.5-.9,6.4-7.1,4.6-.9-.3-1.9.1-3.3.2-2.8-2.5-5.2-5.1-7.7-8M1569.2,205.2c-.8-1.4-1.4-2.9-2.4-4-.2-.2-2.3.6-2.7,1.3-.5,1,0,2.4,0,3.6,1.5,0,3.1-.2,5.1-.9Z"/>
  <path class="cls-26" d="M1569.5,281.5c1.4-.1,3.2-.3,4.2.5,1.5,1.3,3.7,3.5,3.4,4.8-.8,3.3-3.5,2.5-6.2,1.2-.7-2.1-1-4.1-1.4-6.5Z"/>
  <path class="cls-24" d="M1576.3,251.2c1.1-.2,2.1-.6,2.7-.2,1.4.8,2.5,2,3.7,3-1,1.1-1.9,2.7-3.1,3.1-1.6.5-3.5,0-5.7,0,.5-1.9,1.3-3.7,2.3-5.8Z"/>
  <path class="cls-26" d="M1582.2,240.1c1,1.3,1.7,2.7,2.3,4.2-1.5.6-2.9,1.2-4.7,1.7.5-2,1.2-3.8,2.3-5.9Z"/>
  <path class="cls-38" d="M1028.4,581.8c-.6,2.5-1.5,4.6-1.5,6.7-.1,6.4-4.3,8.3-9.6,9.3-12.5,2.4-24.3,1.2-32.3-9.9-8.8-12-8.2-25.4-2.3-38.3,8.1-17.7,30.1-22.2,43.8-9.4,6.2,5.7,8.2,12.7,6.5,20.8-1.4,6.8-3,13.6-4.6,20.8Z"/>
  <path class="cls-13" d="M1515.5,155c-.6,3.5-1.2,6.5-1.8,10-8.5-1.4-16.6-2.8-25.4-4.3,1.1-6.8,2.2-13.2,3.4-20.2,4,.6,9.4-.2,10.8,1.8,3.6,5.2,9.3,3.6,14,5.9-.3,2.1-.6,4.2-1,6.7Z"/>
  <path class="cls-1" d="M1618.1,305.9c-3,.4-5.7.7-9,1-.2,1.1-.2,3.2-1,4.8-.6,1.2-2.2,1.8-3.3,2.7-.8-1.3-2.5-2.7-2.4-3.8.8-6.7,2-13.4,3.2-20.1.2-.9,1.1-2.3,1.5-2.3,4,.6,8.5.6,11.8,2.6,2.2,1.3,3.4,5.5,3.5,8.5,0,2.1-2.5,4.3-4.2,6.7M1612.5,300.7c2.8.6,4.4-.6,3.8-3.3-.2-1-2.6-2.4-3.4-2.1-2.6.9-2.8,2.9-.4,5.5Z"/>
  <path class="cls-32" d="M1622.9,215.9c-1.3-.1-2.2-.2-3-.3,0,.5-.2.9-.2,1.4,2.2.4,4.5.5,6.7,1.2,1.2.4,2.5,1.5,2.8,2.6.2.6-1.1,2.3-2.1,2.7-3.2,1.5-10.4-1-12.5-4-2.3-3.4-2.1-8.8.6-12.1,2.7-3.4,8.4-4.9,12.1-2.3,2.2,1.6,4.5,4.9,4.4,7.4-.1,5.9-4.9,3.7-8.7,3.4Z"/>
  <path class="cls-32" d="M1600.8,242.6c3.6,2.2,4.9,5.4,3.5,8.7-2.5,6-7.8.1-12.8,2.8,3.2.7,5.3,1,7.3,1.7,1.3.5,2.4,1.6,3.5,2.5-1.1.9-2.2,2.5-3.4,2.7-4.6.4-9.1-.2-11.7-4.7-2.2-3.8-1.9-7.8.8-11.2,3.3-4.2,7.7-4.7,12.9-2.5Z"/>
  <path class="cls-31" d="M1630.1,251.7c5-4,10.5-4.7,13.7-1,1.7,1.9,2.1,5.3,2,8,0,.8-4,1.6-6.2,1.9-1.5.2-3.2-.4-4.8-.7-.1.5-.2,1-.4,1.5,2.1.5,4.2.7,6.1,1.4,1.3.5,2.3,1.6,3.5,2.5-1.2.9-2.2,2.5-3.5,2.6-4.2.4-8.5,0-11.2-3.9-2.7-4-2.4-8.1.6-12.4Z"/>
  <path class="cls-24" d="M1546.9,153.1c6-1.6,10.8-.4,12.4,3.6.7,1.9.7,4.7-.2,6.4-.5,1-3.4,1.2-5.2,1.3-1.8,0-3.6-.4-5.3-.7-.1.5-.3.9-.4,1.4,1.9.4,3.9.7,5.8,1.4,1.3.5,2.4,1.4,3.7,2.2-1.1,1.1-2.1,2.9-3.4,3.2-5.3,1-10.3-1.7-12-5.8-2-4.9-.5-9.2,4.8-13Z"/>
  <path class="cls-24" d="M1603.9,343.2c2.2.9,4.5,1.2,6.6,2,1.1.4,2.4,1.6,2.8,2.7.2.6-1.2,2.2-2.2,2.7-3.1,1.4-10.1-.9-12.2-3.7-2.4-3.2-2.3-9,.2-12.2,2.8-3.6,7.8-4.8,12.1-2.8,3.6,1.6,5.4,4.3,4.6,8.3-.9,4.4-4.3,3.1-7.2,2.9-1.6-.2-3.2-.2-4.7.1Z"/>
  <path class="cls-42" d="M1606,257.3c.2-1.4.2-2.4.5-3.4,1.1-3.3,1.4-7.8,3.7-9.5,1.9-1.4,6.3.4,9.5,1.3,3.8,1.1,5.6,4.1,5.6,7.9,0,2.8-.3,5.7-1.1,8.3-.3,1.2-2.1,1.9-3.2,2.8-.9-1.3-2.4-2.5-2.6-3.9-.3-1.7.8-3.6.6-5.4-.2-1.3-1.4-2.6-2.1-3.8-1.4.9-3.1,1.5-3.9,2.7-.8,1.1-.2,3.1-.9,4.3-.9,1.5-2.5,3.7-3.9,3.7-2.9,0-3-2.5-2.2-5.2Z"/>
  <path class="cls-42" d="M1565.8,166.7c-3.1-2.9-4.1-6.2-1.4-9.7,2.5-3.1,8.3-2.2,12.9,1.7-.8,6.2-5.3.8-7.7,2.4,7.2,6.2,8.4,9,5.2,12.1-3.2,3.1-9.7,1.9-14.7-3.3,1.5-.9,2.9-1.7,4.8-2.2.9.1,1.3,0,1.7,0-.3-.3-.6-.6-.8-.9M1567.5,168.3c.7.5,1.5,1,2.2,1.5.2-.3.4-.6.5-.9-.7-.3-1.4-.7-2.7-.6Z"/>
  <path class="cls-32" d="M1644.8,305.6c-3.1-2.8-4.3-6.1-1.5-9.6,2.5-3.2,8.3-2.3,13,1.6-1.4,6.4-5.6.6-9.2,2.2,4.9,3,12,5,6.5,12.2-2.7,3.6-9.7,2-14.6-3.3,1.6-.9,3-1.6,4.9-2.1,1,.5,1.5.7,2.3,1.2,1.1.4,1.9.5,2.8.7,0-.3.2-.6.2-.9-.8-.3-1.6-.6-2.6-1.1-.7-.4-1.2-.6-1.8-.8Z"/>
  <path class="cls-31" d="M1656.3,258.2c1.5.8,3.2,1.1,3.8,2,1.2,1.9,2.9,4.5,2.4,6.3-.5,1.8-3,3.6-5.1,4.4-1.6.6-4,0-5.7-.8-1.6-.7-2.8-2.4-4.2-3.6,1.2-1.1,2.5-2.2,3.9-3.5,0,0,0-.6-.3-1-2-3.1-3-7.2.4-8.8,2.9-1.4,7.1,0,10.7.3.5,0,1.5,2.3,1.1,2.7-.6.9-1.9,1.4-3.1,1.7-1.4.3-2.8.1-4,.4Z"/>
  <path class="cls-42" d="M1583,209.4c-3.7-3.6-4.5-7.1-2.1-9.9,2-2.3,8.9-2.3,11.5.2.7.6,1.2,2.1.9,2.8-.3.8-1.8,1.5-2.7,1.4-1.5,0-3.1-.7-5.1,0,1.3.7,2.7,1.4,4,2.1,2.8,1.5,4.3,3.5,3.4,6.9-.9,3.2-3.2,4.6-6.4,4.3-2.3-.3-4.6-.8-6.6-1.7-1.1-.5-1.6-2.1-2.3-3.2,1.3-.7,2.6-1.3,4.4-1.7,1.1.5,1.6.7,2.4,1.2,1,.2,1.7.2,3.6.2-1.7-.8-2.4-1.1-3.3-1.6-.7-.4-1.2-.6-1.7-.8Z"/>
  <path class="cls-24" d="M1635.6,290.6c.1.7.2,1.1.4,1.3,1.4,1.5,2.8,3,4.1,4.4-1.7,1.2-3.4,2.3-5,3.5-1.7,2-2.7,4.6,1.1,6.2.6.2.9,2.2.5,3-.5.9-2,2-2.9,1.9-3.8-.4-6.5-2-6.6-6.6,0-2.9-.9-5.8-1.6-8.7-.4-1.6,4.8-10.4,6.5-10.5,3.6-.2,4,2.2,3.5,5.4Z"/>
  <path class="cls-42" d="M1654,221.4c-3.7-3.6-4.5-7.1-2.1-9.9,2-2.3,8.9-2.3,11.5.2.7.6,1.2,2.1.9,2.8-.3.8-1.8,1.5-2.7,1.4-1.5,0-3.1-.8-5-.2,1.2.7,2.3,1.4,3.5,1.9,3,1.4,4.8,3.5,3.8,7.1-1,3.5-3.5,4.7-6.9,4.3-2.1-.3-4.2-.8-6.1-1.7-1.1-.5-1.6-2.1-2.3-3.3,1.3-.7,2.6-1.3,4.4-1.7,1.1.5,1.6.7,2.4,1.2,1,.2,1.7.2,3.6.2-1.7-.8-2.4-1.1-3.3-1.5-.7-.4-1.2-.6-1.7-.8Z"/>
  <path class="cls-31" d="M1629.7,349.3c-.9,1.6-2,4-3.1,4-3.3,0-6.5-1.5-6.6-5.4-.2-3.6,1.1-7.4-1.6-10.7-.4-.5,1-2.4,1.7-3.6.6-.9,1.4-1.5,2.2-2.3,1.2-1.2,2.5-2.3,3.7-3.4.8,1.5,1.7,3,2.4,4.5.2.4,0,1,0,.4,1.8,2.5,3.1,4.2,4.4,5.9-1.7,1.1-3.3,2.3-5,3.4-2.2,2.5-2,5.2,1.8,7.2Z"/>
  <path class="cls-10" d="M1634.8,212c.3-2,.9-3.8,1.6-5.4.4-1,1.1-1.9,1.9-2.6,1.1-1.1,2.3-2,3.5-3,.9,1.3,1.9,2.5,2.6,3.9.3.6,0,1.6.9,1.9,1.1,1.7,3.3,3.5,3.1,4.9-.2,1.4-3,2.3-5.5,4.1,0,1.2-2.2,4,1.9,5.7.6.3,1,2.6.5,3.5-.4.8-2.1,1.5-3.1,1.5-4.6-.3-6.7-3.5-6.4-8.3.1-1.9-.4-3.9-.9-6.1Z"/>
  <path class="cls-42" d="M1646.7,354.4c-3.6.4-7,1-10.2.5-1.4-.2-2.6-2.4-3.8-3.7,1.5-1,3-2,4.6-3.2,0,0-.5-.7-1-1.4-2.4-3.1-2.5-6.2.5-8.8,2.3-2.1,10.1-1,11.5,1.5.4.7.3,2-.1,2.6-.5.6-1.7,1-2.5.9-1.5-.2-3-.8-4.9-.8,4.1,3.1,10.5,4.8,6,12.2M1639,348.9c-.1.1-.3.2-.4.3,0,0-.1.3,0,.3,1,.5,2,1.1,3.1,1.6.2-.3.3-.6.5-.9-.8-.4-1.6-.9-3.1-1.4Z"/>
  <path class="cls-10" d="M1596.7,218c-.6-1.4-.9-2.6-1.3-3.8,1.3-.3,2.6-.9,3.9-.7,1.5.2,2.9,1.2,4.9.8-1.1-.7-2.2-1.4-3.4-2-3.2-1.7-4.5-4.2-3.5-7.8,1-3.5,3.7-3.8,6.7-3.6,1,0,2.2-.1,2.9.4,1.5,1.1,2.8,2.6,4.2,3.9-1.8.3-3.6.7-5.5.9-.8,0-1.6-.1-2.8.7,1.1.6,2.2,1.3,3.4,1.8,3.2,1.3,4.8,3.5,4,7-.8,3.5-3.3,4.9-6.7,4.5-2.2-.3-4.4-1.2-6.9-2Z"/>
  <path class="cls-42" d="M1596,161.5c2-2.9,3.6-5.6,5.8-7.9.7-.8,2.7-.4,4.1-.6.1,1.4.9,3.3.3,4.2-4.8,7.2-9.7,14.2-14.9,21.1-.6.8-2.7.5-4.1.7-.2-1.4-1-3.2-.4-4.2,2.8-4.5,6-8.7,9.2-13.4Z"/>
  <path class="cls-10" d="M1605.6,181.9c-.1-1.7-.4-3.5.3-4.6,4.4-6.6,9-13.2,13.8-19.5.8-1.1,3-1.2,4.6-1.8,0,1.7.8,3.9,0,5.1-4.5,6.8-9.2,13.4-14.1,19.9-.7.9-2.9.8-4.7.9Z"/>
  <path class="cls-10" d="M1580.5,285.3c1.2-.8,2.3-1.8,3.4-1.7,2.5.1,5.1.5,7.5,1.3,1.2.4,2,1.7,3,2.6-1.1,1.2-2.6,3.5-3.4,3.3-5-1.3-5.7,1.8-6.2,5.3-.1,1,0,2.2-.5,2.9-1,1.2-2.4,2-3.7,3-.8-1.2-2.4-2.4-2.3-3.5.4-4.3,1.3-8.5,2-13.1Z"/>
  <path class="cls-31" d="M1536.5,156.1c-4.3-.7-4.5,2-5.1,4.7-.6,2.5.7,7.1-4,6.5-5.2-.7-2.1-4.8-2.1-7.6,0-.3,0-.7.1-1,.9-3.2.9-7.8,3.1-9.3,2-1.4,6.3.1,9.6.8,1,.2,1.7,1.7,2.6,2.5-1.3,1.2-2.5,2.3-4.2,3.4Z"/>
  <path class="cls-31" d="M1586.2,344.7c-4.9,2.1-6.2,1.3-5.7-3.2.5-3.8,1.3-7.5,1.9-11.2,0-.2,0-.4,0-.5,1.1-.8,3.1-2.2,3.2-2.1,2.9,3.4,8.8-1.6,10.7,3.7.3.8-1.9,3.6-2.4,3.5-7-1.8-6.4,3.6-7.3,7.5-.1.6-.2,1.3-.5,2.3Z"/>
  <path class="cls-42" d="M1602.6,289.3c-.7,4.5-1.1,8.6-2.2,12.6-.3,1.2-2.3,2-3.5,3-.8-1.3-2.5-2.7-2.4-4,.3-3.9,1.1-7.8,1.9-11.7.2-1.1,1.7-2.9,2.1-2.8,1.5.5,2.7,1.6,4,2.9Z"/>
  <path class="cls-26" d="M1578.2,174.4c.7-1.7,1.2-3.5,2.4-4.2.7-.4,3.2.7,3.5,1.6.4,1.3-.5,3-.8,4.5-1.7-.5-3.3-.9-5.1-1.8Z"/>
  <path class="cls-35" d="M1604.1,281.6c-1.8.7-3.4,1.3-5.1,1.3-.3,0-1.1-2.4-.8-3.3.3-.9,2.4-2.3,2.6-2.1,1.3,1,2.3,2.5,3.2,4.1Z"/>
  <path class="cls-10" d="M1580.3,163.5c.5-1.8.9-3.7,2-4.5.6-.5,3.1.4,3.7,1.3.6.9,0,3.8-.4,3.9-1.7.3-3.5-.1-5.4-.7Z"/>
  <path class="cls-38" d="M908.4,398.4c-7.3,2.4-14.7,4.5-22.4,6.5-1.7-1.5-2.7-3.3-4.3-4.4-8-5.3-10.7-13.2-11.2-22.3-.7-14.3,1.7-28.2,4.8-42,4.2-18.6,8.4-37.3,12.8-56.2,6.1-2.2,11.9-4.2,17.8-5.7,1.7-.4,4.7.1,5.7,1.4,4.9,6.2,9.4,12.8,14.1,19.6-26.6,28.2-33.3,67.8-17.3,103Z"/>
  <path class="cls-50" d="M765.9,260.7c3.4-5.9,7.5-11.7,11.1-17.8,6.3-10.8,12.4-21.6,18.2-32.7,1.6-3,2.6-3.6,5.6-2.2,9.2,4.4,18.4,8.6,28,13-3.4,17.4-7.2,34.7-11.1,52.5-16.5-8.7-33.2-13.5-51.7-12.7Z"/>
  <path class="cls-11" d="M799,320.4c6.3,5.4,6.3,5.4,3,12.3-6.5,13.8-10.5,28-6.3,43.2-10.1,5.2-26.8.7-34.7-9.2-8.6-10.7-7.7-28.4,1.9-40.3,9.1-11.2,22.2-13.5,36.1-6.1Z"/>
  <path class="cls-8" d="M627.1,566.9c9.9,6,19.4,12,29.2,18.1-.3.7-.9,1.7-1.6,1.9-21.4,3.7-42.9,7.4-64.8,11.1-1.5-8.7-3-17.3-4.6-26.6,14.2-1.5,27.8-3,41.9-4.5Z"/>
  <path class="cls-38" d="M579.3,334.1c-16.6.8-28.4-10.4-31.9-21.4-4.5-14.2.3-31,11.8-39.5,10-7.4,20.8-6.8,31.7-2.5,10.6,4.2,15.5,12.8,16.4,23.6,1,11.9-1.9,22.8-10.4,31.7-4.7,4.9-10.4,7.7-17.6,8.1Z"/>
  <path class="cls-38" d="M1012.6,385.2c-17.1,12.7-41.9,4-48.1-16.6-4.7-15.7,2.4-33.9,16-40.9,19.7-10.2,42.9,3.1,44,25.2.6,12.3-2,23.5-11.9,32.3Z"/>
  <path class="cls-40" d="M416.4,507.2c-3.5-3-5.4-6.6-2.7-10.2,1.7-2.3,5-4.4,7.8-4.7,3.9-.4,7,2.6,7.4,6.6.2,2.3-.6,5.4-2.2,7.1-2.6,2.8-6.3,3.5-10.3,1.2Z"/>
  <path class="cls-40" d="M1033.6,762.8c-1.5,5.3-5.1,7.9-9.4,7.1-4.5-.8-7.3-4.9-6.7-9.6.5-3.6,4.7-7.2,8.4-7.2,4.4,0,7.3,3.6,7.6,9.6Z"/>
  <path class="cls-45" d="M1213.6,760.3c-4.3-2.8-5.2-6.7-3.6-10.7,1.3-3.2,4.1-5,8-4.8,4.4.3,7.6,3.6,7.6,8.1,0,4.5-3.2,7.9-7.7,8-1.3,0-2.6-.3-4.3-.7Z"/>
  <path class="cls-3" d="M771.9,93.6c15.9,28.1,21.4,57.6,15.2,89.4-1.2,0-2.1,0-2.8-.2-24.6-11.6-49.3-22.9-68.1-43.6-10.5-11.5-20.3-23.5-24.2-39-3.6-14,1.4-23.6,13.9-30.6,22.7-12.8,43.6-3.6,57.8,12.9,2.9,3.4,5.3,7.2,8.2,11.1Z"/>
  <path class="cls-6" d="M1175.8,471.3c8.5-.6,14,4.4,14.8,13.5-4.9-4.1-9.8-8.7-14.8-13.5Z"/>
  <path class="cls-14" d="M1330.3,328c5-10.5,14.1-15.6,24.3-13.9,9.4,1.6,17.1,9.6,18,18.8,1.1,10.4-4.1,19.4-13.5,23.2-8.3,3.4-16.1,2.1-22.7-3.8-7.3-6.5-9.3-14.6-6.1-24.3Z"/>
  <path class="cls-14" d="M1497.8,293.2c11.9,0,20.2,6.2,22.9,16.6,2.5,9.7-1.8,19.8-10.5,24.6-8.7,4.8-19.8,3.2-26.5-4-5.7-6.2-7.7-13.5-5.1-21.7,2.9-9.1,9.5-14.1,19.3-15.6Z"/>
  <path class="cls-16" d="M1569,205.5c-1.8.4-3.3.5-4.8.6,0-1.2-.5-2.6,0-3.6.3-.7,2.5-1.5,2.7-1.3,1,1.2,1.6,2.7,2.2,4.4Z"/>
  <path class="cls-16" d="M1612.2,300.5c-2-2.3-1.9-4.4.7-5.3.8-.3,3.2,1.2,3.4,2.1.5,2.7-1.1,3.9-4.2,3.1Z"/>
  <path class="cls-5" d="M1567.8,168.1c1,.1,1.7.5,2.4.8-.2.3-.4.6-.5.9-.7-.5-1.5-1-1.9-1.7Z"/>
  <path class="cls-5" d="M1565.6,166.9c.5,0,.8.4,1,.7-.4.1-.7.2-1.4.1-.1-.3,0-.5.3-.8Z"/>
  <path class="cls-5" d="M1646.8,306.7c.8.3,1.6.6,2.4.9,0,.3-.2.6-.2.9-.8-.2-1.7-.3-2.6-.9.1-.6.2-.7.4-.9Z"/>
  <path class="cls-5" d="M1644.6,305.9c.7,0,1.2.2,2,.6,0,.4,0,.5-.4.9-.7,0-1.2-.2-1.9-.7,0-.3,0-.5.4-.9Z"/>
  <path class="cls-5" d="M1585,210.4c.7.3,1.4.6,3.1,1.4-1.9,0-2.6,0-3.4-.4,0-.6.2-.8.3-.9Z"/>
  <path class="cls-5" d="M1584.4,211.1c-.7,0-1.2-.2-1.9-.6,0-.4,0-.5.4-.9.7,0,1.2.2,1.9.6,0,.3,0,.5-.3.9Z"/>
  <path class="cls-5" d="M1656,222.4c.7.3,1.4.6,3.1,1.4-1.9,0-2.6,0-3.4-.4,0-.6.2-.8.3-.9Z"/>
  <path class="cls-5" d="M1653.8,221.6c.7,0,1.2.2,1.9.6,0,.3,0,.5-.3.9-.7,0-1.3-.2-2-.6,0-.4,0-.5.4-.9Z"/>
  <path class="cls-5" d="M1639.4,349c1.1.5,1.9.9,2.7,1.4-.2.3-.3.6-.5.9-1-.5-2-1.1-3.1-1.6,0,0,0-.3,0-.3,0-.1.3-.2.8-.3Z"/>
</svg>