<?xml version="1.0" encoding="UTF-8"?>
<svg id="Layer_1" data-name="Layer 1" xmlns="http://www.w3.org/2000/svg" version="1.1" viewBox="0 0 1920 787">
  <defs>
    <style>
      .cls-1 {
        fill: #f78cd1;
      }

      .cls-1, .cls-2, .cls-3, .cls-4, .cls-5, .cls-6, .cls-7, .cls-8, .cls-9, .cls-10, .cls-11, .cls-12, .cls-13, .cls-14, .cls-15, .cls-16, .cls-17, .cls-18, .cls-19, .cls-20, .cls-21, .cls-22, .cls-23, .cls-24, .cls-25, .cls-26, .cls-27, .cls-28, .cls-29, .cls-30, .cls-31, .cls-32, .cls-33, .cls-34, .cls-35, .cls-36, .cls-37, .cls-38, .cls-39, .cls-40, .cls-41 {
        stroke-width: 0px;
      }

      .cls-2 {
        fill: #fff4f9;
      }

      .cls-3 {
        fill: #f6ecf0;
      }

      .cls-4 {
        fill: #f6edf1;
      }

      .cls-5 {
        fill: #fff6fa;
      }

      .cls-6 {
        fill: #fff5f9;
      }

      .cls-7 {
        fill: #8ad6ff;
      }

      .cls-8 {
        fill: #3c2932;
      }

      .cls-9 {
        fill: #3a2730;
      }

      .cls-10 {
        fill: #f687d7;
      }

      .cls-11 {
        fill: #ffda84;
      }

      .cls-12 {
        fill: #f688d5;
      }

      .cls-13 {
        fill: #90d8ff;
      }

      .cls-14 {
        fill: #8cd7ff;
      }

      .cls-15 {
        fill: #3c2831;
      }

      .cls-16 {
        fill: #8dd7ff;
      }

      .cls-17 {
        fill: #f68ad3;
      }

      .cls-18 {
        fill: #b86aff;
      }

      .cls-19 {
        fill: #f688d7;
      }

      .cls-20 {
        fill: #3b2831;
      }

      .cls-21 {
        fill: #8bd6ff;
      }

      .cls-22 {
        fill: #fef6fa;
      }

      .cls-23 {
        fill: #f689d8;
      }

      .cls-24 {
        fill: #3b2730;
      }

      .cls-25 {
        fill: #3b272f;
      }

      .cls-26 {
        fill: #3d2932;
      }

      .cls-27 {
        fill: #f686d7;
      }

      .cls-28 {
        fill: #3b2830;
      }

      .cls-29 {
        fill: #fed983;
      }

      .cls-30 {
        fill: #ffd984;
      }

      .cls-31 {
        fill: #b869ff;
      }

      .cls-32 {
        fill: #ffda83;
      }

      .cls-33 {
        fill: #f688d8;
      }

      .cls-34 {
        fill: #8fd7ff;
      }

      .cls-35 {
        fill: #8dd6fc;
      }

      .cls-36 {
        fill: #f68bd9;
      }

      .cls-37 {
        fill: #3e2933;
      }

      .cls-38 {
        fill: #fff3f9;
      }

      .cls-39 {
        fill: #f68bd8;
      }

      .cls-40 {
        fill: #3d2a33;
      }

      .cls-41 {
        fill: #8ad5fd;
      }
    </style>
  </defs>
  <path class="cls-5" d="M450,1c2,0,4.1,0,6.3.4.8.8,1.4,1.5,2.1,1.6,10.2.7,18.4,5.2,25.7,12.4,2.7,2.7,6.7,4.3,10.4,5.5,2.3.7,5.1-.5,7.7-.8,9.7-1,18.7,1.6,27.5,5.1,2.1.8,4.7,2.3,6.4,1.6,8.6-3.3,17.2-2.2,26-2,15,.2,28.3,4.6,40.6,12.7,2.5,1.6,3.9,1.4,6.1.4,7.9-3.7,16-6.1,24.8-5.8,4.8.2,9.8.7,14.5-.1,12-2.1,23.8-3.3,36-1.9,12.3,1.4,23.3,5.2,32,14.5,2,2.2,4.3,2.6,7.1,1.1,13.4-6.9,27.6-6.9,41.9-3.9,8.2,1.7,16.4,3.7,24.7,2.3,15.1-2.5,28.8-.6,40.6,9.9.6.5,1.4,1,2,1,5.6.1,11.4-.5,16.9.3,22.4,3.1,38.1,14.9,45.6,36.6,1.2,3.6,2.5,6.2,6.9,6.9,3.5.6,6.6,3.2,9.9,4.6,1.5.6,3.6,1.2,5.1.6,4.6-1.7,9.1-4,13.6-6.1,14.4-6.6,29.9-9.1,45.5-10.8,12.9-1.4,24.7,2.8,36.1,8.1,23.5,10.7,42.4,27.2,58.1,47.6.8,1.1,2.3,2,3.6,2.3,9,1.8,18.1,3.6,27.2,5,5.7.8,10.9,1.1,15.6-4.5,3.4-4,9.2-6.7,14.4-8.2,15.5-4.7,31.4-4.3,47.4-2.3,17.5,2.2,29.3,11.9,36.3,27.1,2.8,6,6.4,7.3,11.7,8.1,9.8,1.5,19.5,3.5,29.3,4.7,7,.9,13.7,2.3,21.2-.4,13.2-4.8,26.5-2.7,38.6,4.7,3.4,2.1,6.3,5.7,10,6.6,8.5,2.1,17.2,2.8,25.9,4.3,9.4,1.5,18.8,3.3,28.2,4.8,8.9,1.5,17.9,2.7,27.1,4.2,4.1-18.1,15.4-30.1,32.2-36.9,19.9-8.1,40-15.5,60-23.5,14.6-5.8,29.1-7.1,42.8,1.5,10.2,6.4,19.8,14,29.4,21.4,10.6,8.2,20.6,17,31.3,25,14,10.4,20.9,24.1,20.4,41.7-2.1,13.8-4.1,27.3-6.1,41.8,2.9-.5,4.7-.9,7-1.2,12.3,1.1,24.5,1,36.1,3.6,23.4,5.2,44.9,15.1,64.9,28.5,14.2,9.5,27.2,20.4,39.2,32.4,8.6,8.6,16.4,18,24.3,27.2,13.6,15.7,24.8,33.1,34.3,51.5,10.3,19.8,20.2,39.8,25.9,61.6,3.2,12,7.2,23.7,5.3,36.7-1.5,4-2.2,8.2-4.2,11.5-2.7,4.4-2.7,8.7-1.9,13.4.3,1.8.4,3.6.5,5.5.7,19.2-.7,38.2-4.9,56.9-7.3,32.3-20.7,61.3-44.8,84.7-21.9,21.2-58.5,12.7-67.4-15.8-1.1-3.4-1.8-7-2.7-11,1.3-6.8,2.7-13.2,4.3-19.8,8.5-18.2,5-35.4-3.7-51.9-11.6-22-29.7-38.2-49.5-52.5-1.6-1.2-4.7-1.5-6.7-.8-11.5,4.1-22.5,3.2-33.4-1.9-3-1.4-6.1-2.6-9.2-3.7-23.9-8.3-48.2-8.7-72.8-4.3-15.2,2.7-29.2,8-41.5,18.2-17.1,14.3-37.1,23.4-59.2,27.2-6.6,1.1-13.4,1.1-19.4,1.5.7,7.6,1.9,15,2,22.4.6,25.6-19.1,51.5-47.4,56.2-5,.8-9.3,2.5-13.7,5.2-7.7,4.6-16.3,6.8-25.3,4.9-5.6-1.2-11.3-2.9-16.5-5.2-9.2-4-17.8-8.9-28.4-9.4-13.9-.7-26.1-6.4-33.3-18.9-3.9-6.7-10.3-9-16.1-12.6-2.6-1.6-4.5-1.2-6.4,2-6.2,10.6-12.5,21.5-22.9,28.6-5.2,3.5-6,6.9-3.2,12.1.9,1.7.6,4,1.4,5.8,2.9,7,5.9,13.9,8.9,21.2,3.7,8.3,5.9,16.5,5.1,25.8-4.7,31.3-35.3,46.7-61.3,30.2-20.2-12.8-42-19.7-65.4-22.6-11.3-1.4-20.9-6.2-28.6-14.8-6.5-7.3-12.8-14.9-20.1-21.5-14.5-13.2-30.2-23.7-49.8-29.1-30.7-8.5-40.1-45.8-18-67.1,1.1-1.1,2.2-2.3,3.8-4.1-7.8-4-15.4-1.1-22.6-2.3-7.5-1.2-14.9-2.8-22.8-4.3-1.8,4-3.5,8.7-5.7,13.1-17.3,34.7-34.5,69.5-52.1,104.1-10.7,21.1-31.3,32.2-52.9,29-15.6-2.3-31.1-5.2-46.6-8-17.3-3.1-30.7-11.9-37.7-28.5-1.9-4.5-3.6-4.8-7.6-2.7-17.6,9.3-36.5,12.1-55.7,8.1-36.4-7.7-60.2-29.6-70.3-65.7-.9-3.3-1.9-6.6-2.8-9.9,0,0,0,0,0-.4-.8-15.6.8-30.5,6.5-45.5-2.7,0-4.4,0-6,0-10.5.2-21,.6-31.4.7-45,.4-90,.7-134.9,1-17.2.1-34.3.3-51.5,0-14.6-.2-26.5-6.3-34.5-18.7-3.5-5.4-6.2-11.4-8.7-17.4-3.2-7.5-9.5-11.2-16.6-12.9-12.7-2.9-25.3-1.2-37,4.2-16.7,7.6-33,15.9-49.6,23.7-30.5,14.3-62.6,19.2-95.8,13-25.7-4.7-50.4-12.7-72.2-27.7-16.1-11.1-26.3-25.8-25.6-46.3,0-1.3-.4-2.6-.6-4.2,2.2-14.2,9.2-25.1,19.7-34.1,11.2-9.6,22.4-19.2,33.2-29.3,9.5-8.9,18.6-18.3,27.7-27.6,7.3-7.4,14.8-14.7,21.5-22.7,11.8-14,23.1-28.6,35-43.1,3.6-4,4.1-8.3,3.5-13.2-1.4-11-2.6-22-3.8-33-.6-5.2-1.2-10.5-1.8-16.1.3-4.7.7-8.9.9-13.2.6-16,6.7-29.3,18.9-39.7,8.6-7.3,19-10.9,30-10.4,8.1.4,16.2,2.8,23.9,5.2,6,1.9,11.6,5.1,17.4,7.8,18.5-34.9,58.2-53.6,99-15.3,8-11.7,16-23.3,24.3-35.2,5.9-8.5,11.5-16.8,17.4-25.5-12.8-7.9-17.8-19.7-21-32.9-3.9-15.6-8.5-31-12.8-46.9,0-3.7-.3-7,0-10.3,1.3-14.2,8.1-25.5,20.7-31.8,8.4-4.2,18.2-5.7,27.4-8.5.8-.2,1.3-1.3,2-1.9M1152.4,499.2c-.1.6-.3,1.2-.7,2.4-2.6,4-5.1,8.1-7.9,12-4.1,5.9-8.4,11.7-12.6,16.6,3-21.3-.9-41.2-12.3-59.6-9.1-14.7-21.8-25.8-36.1-36,1-3.2,1.1-7.2,3.2-9.2,2.2-2.1,6.3-3,9.6-3.2,4.6-.3,9.3.5,13.9.8,5.8.4,7.7-1.6,6.5-7.3-2.2-10.6-4.6-21.1-6.5-31.7-1.1-6.2-4.6-9.1-10.6-10.1-13.8-2.5-27.6-3.7-41.6-1.8-12.9,1.7-25.4,4.7-36.8,11.6-14.6,8.9-19.5,22.7-18.3,33.6,1.1,10.2,5,19.6,10.3,28.3,4.1,6.7,8.2,13.4,11.7,20.3,3.5,7,1.5,12.2-5.5,15.6-2.3,1.2-5,2.2-7.5,2.3-13.8.5-27.6.8-41.4,1.1-7.6.1-9.1,1.8-7.6,9.4,1.9,9.3,3.9,18.5,5.7,27.8,1.8,9.1,4.7,11.8,14.2,11.9,18.9.1,37.9.2,56.8,0,16.9-.2,32.9-4,48-11.2-.4,5.4-1.6,11-1,16.3,1.3,11.9,3.5,23.7,4.6,35.7-9.5-3.5-19.1-4.4-26.6-2.3,8,8.8,16.6,18.2,24.9,27.8,8.9,10.3,15.7,21.7,17.4,35.2-13.6-11.2-26.9-23-44.2-28.2-11.8-3.6-23.5-3.3-34.8.7,9.1,3.7,18.4,6.7,27.1,11.1,22.5,11.6,40.9,28.4,57.3,47.5,3.7,4.3,7.6,6.4,13.2,7.4,11.4,2,22.8,4.6,34,7.7,14.6,4,28.1,10.7,41.2,18.8-4.1-10.9-8.5-21.5-13-32.2-.2-.5-1-.9-1.2-2,2.3-3,0-4.8-1.7-6.8-5.3-6.8-10.4-13.8-11.2-23.5,3.3-9.2,10-15.2,18.6-19,16-7.1,24.8-20.4,30.3-35.9,4.1-11.5,6.1-23.8,9.3-35.6,1.3-5,3.3-9.9,5.5-16.3-8.2,4.8-15.1,8.8-22.4,12.3,0-.5-.2-1-.1-1.5,5.8-26.4,11.6-52.8,17.3-79.1,1.3-6.1-.1-8.6-5.8-9.8-17.7-3.8-35.3-7.6-53-11.4-5.2-1.1-7.5.2-8.7,5.3-1.8,7.7-3.5,15.5-5.1,23.3-2.1,10.2-4,20.4-5.9,30.7,0,0,0,0-.6.2M584.6,224.6c5.6,2,11.2,4.2,16.9,6,7.8,2.5,11.7.9,14.5-6.7,8.7-23.7,17.2-47.5,25.6-71.4,2.5-7.1.5-11.3-6.4-13.8-24.2-8.8-48.5-17.5-72.8-26-5.5-2-10.2,0-12.3,5.4-2.7,7-4.9,14.1-8.2,21.3-10.4-1.1-20.8-2.3-31.3-3.2-10.4-.8-9.8-2.5-10.8,8.9-.2,2.2-.4,4.3-.8,6.4-.9,4.4.7,6.5,5.4,6.5,3.9,0,7.9.8,12.2,1.2-1.5,14.1-3,27.8-4.4,41.5-.5,4.8-2.5,11-.3,13.9,2.1,2.8,8.7,2.4,13.4,2.9,11.1,1.1,10.5,1.8,11-8.6,0-.5.3-.9,1.3-1.3,6.9,2.4,13.8,4.8,21,7.8.8,9.4-1,9,10.1,9.8,5.1.4,10.2-.9,15.9-.9M1798,456s0,0,0-.7c-.3-.8-.4-1.6-.8-2.4-17-38-40.2-71.7-71.4-99.5-21.1-18.8-44.6-33.7-72.4-40.7-27.6-6.9-53.8-3.7-78.1,11.7-24.8,15.7-41.3,38.6-53,64.8-8.8,19.7-15.5,40.3-23.2,60.5-3.3,8.7-6.4,17.5-10.6,25.8-3.3,6.5-10.3,6.4-14.4.2-2-3-3.6-6.6-4.1-10-1.7-11.8-3.6-23.7-3.8-35.6-.4-17.1.6-34.3.9-51.4.1-7.4-2-9.7-9.3-9.7-11.7,0-23.4-.4-35,.5-8.3.7-17.1-1.6-24.9,3.6-.9.6-2.6,0-3.9-.2-10.2-1-20.5-3-30.7-2.7-30.6,1-54,15-67.7,42.7-13.9,28.3-14.8,56.9,2.9,84.1,21.1,32.4,63.5,47.1,101.2,35.5,9.7-3,19-7.7,28.8-11.8,5.6,7.4,14,7.5,22.7,5.8,11.8-2.3,22.5-7.3,32.4-13.8,8.9-5.8,16.8-13.5,26.2-18.1,36.5-17.9,75-20.4,114.4-12.6,11.3,2.3,22.2,6.6,33.4,10.1,1.2-7.5-3.4-13.3-6.9-19.8,0,0,.2-.3,1-.2,21.8,7.9,41.3,19.8,60.4,33.7,1.2,1.1,2.4,2.3,3.7,3.4,22.3,17.7,40.9,38.6,52.4,64.9,9.9,22.6,12,45.7,4.4,69.5-1,3.1-2,6.3-3.3,9.6,0,.2,0,.4.1.6.2-.2.3-.4,1.1-.8,2.7-2.9,5.7-5.6,8.2-8.7,11.6-14.6,19-31.2,23.6-49.1,5.7-22.4,7.5-45.2,3.7-68.1-1.5-8.8-3.7-17.4-5.5-26,4.1.8,8.4,1.7,13.6,2.7-1.7-6.7-2.6-12.1-4.4-17.2-3.4-9.9-7.2-19.6-11-29.8-.3-.2-.5-.4-.8-.6M400.8,310.7c-2.3-8.2-4.4-16.4-7-24.4-4.3-13.4-7.9-27.2-13.5-40.1-5.4-12.4-14-23.1-26.1-30.1-8.5-4.9-14.2-3.8-19.7,4.3-4.1,6-7.6,12.5-10.4,19.2-3.7,8.8-6.5,18-9.8,27.3-1.9-.9-3.5-1.6-5.1-2.5-15.4-8.2-30.6-16.8-46.3-24.5-14.1-6.9-20.3-2.9-19.7,12.7.8,17.9,3.1,35.7,4.3,53.6.5,7,.8,14.5-1.2,21.1-2.2,7.3-6.3,14.4-11,20.6-11.9,15.6-24,31-37,45.8-11,12.5-22.8,24.3-34.9,35.8-16.8,15.9-34.2,31.1-51.2,46.8-6.3,5.8-6,12.6,1,17.6,6,4.3,12.6,8.1,19.4,11.2,15.7,7,32.1,12.2,49.2,13.8,23.8,2.2,46.3-3,67.6-13.6,14.3-7.1,28.6-14.3,43.1-21,17.4-7.9,35.9-11,55-9.2,10.3,1,20.2,3.6,28.9,9.9,10,7.2,20.3,14,30.3,21.2,9.7,7,9.7,7.2,21.1,4.6,6.9-1.5,13.8-3.2,20.9-4.9-12.2-66.1-29.3-130.4-48-195.2M537.6,360c-1.3-.9-3.5-1.5-3.8-2.6-1.8-6.8-3.3-13.8-4.9-20.9,2.4-.6,4.4-1.1,6.3-1.5,19-4.1,38-8.1,56.9-12.2,7.1-1.6,8.6-4.3,7.1-11.5-3.1-14.9-6.2-29.9-9.3-44.8-1.1-5.5-4.4-7.8-10.1-6.6-29.1,6.2-58.1,12.5-87.1,18.7-11.8,2.5-23.7,5.1-35.5,7.6-7.9,1.7-9.8,4.4-8.2,12.2,7.5,34.7,15.1,69.4,22.6,104.1,7.8,36.2,15.6,72.3,23.3,108.5,1.8,8.5,4.5,10.4,12.8,8.6,25.8-5.6,51.6-11.2,77.4-16.8,15.2-3.3,30.5-6.6,45.7-9.9,6.4-1.4,9-4.3,7.9-9.9-3.1-16-6.4-31.9-9.9-47.8-1-4.5-4.6-6.6-8.9-5.7-11.2,2.4-22.4,4.8-33.6,7.3-11.3,2.4-22.6,4.9-34.3,7.4-1.5-7.2-2.7-13.9-4.5-20.4-1.3-4.6-.3-6.2,4.5-6.8,13.6-1.9,27.2-4.3,40.7-6.7,5-.9,7.3-4,6.6-8.9-2-14-4.1-27.9-6.4-41.8-1-5.9-3.5-7.6-9.4-6.7-15.1,2.3-30.1,4.8-46.1,7.2M833.4,673c4.3.7,8.5,1.4,12.8,2.2,9.8,1.8,12.8.5,17.3-8.2,7.5-14.3,15.4-28.4,22.3-43,15.1-31.5,30.3-63,44.3-95,11.8-27.1,22.5-54.8,28.3-84,1.3-6.3-.1-9-6.4-10.8-15.5-4.5-31-9-46.5-13.2-7.8-2.2-10.5-.6-13.4,6.9-6.5,16.4-12.8,32.8-19.3,49.2-3.9,9.9-7.9,19.6-12.2,30.2-6.5-9.2-12.5-17.8-18.6-26.3-9.9-14-19.7-28.1-29.6-42-5.2-7.3-10.1-9-17-5.5-13.8,7-27.5,14.2-41.1,21.7-7.8,4.3-8.3,8.2-3.2,15.4,7.1,10,14.2,20.1,21.3,30.2,18.6,26.4,37.3,52.7,55.8,79.1.8,1.1,1,3.1.5,4.3-3.4,8.5-7,16.9-10.6,25.3-6.3,15-12.7,30-18.9,45.1-3.6,8.7-1.9,11.8,7.3,13.7,8.6,1.8,17.3,3.1,26.8,4.7M737.1,381.6c1.9-25.7,3.9-51.4,5.7-77.1,1.6-22.9,3.2-45.8,4.7-68.7.3-4.8-2-7.3-7.1-7.7-6.1-.5-12.3-.8-18.4-1.2-11-.7-21.9-1.3-32.9-2.3-8.6-.8-10.7.9-11.1,9.5-.3,7.1-.8,14.3-1.3,21.4-1.9,26.5-3.9,53.1-5.8,79.6-1.1,15.8-2.1,31.5-3.2,47.3-1.9,25.9-3.8,51.7-5.7,77.6-1.3,17.4-2.5,34.8-3.8,52.2-.4,5.1,1.8,8.2,6.8,8.6,18.2,1.4,36.5,2.7,54.7,4,4.3.3,7.1-1.4,7.6-6,.6-7.3,1.2-14.6,1.7-21.9,1.1-15.9,2.1-31.9,3.3-47.8,1.6-22.2,3.2-44.4,4.8-67.6M1177.5,324c-2.8,2-5.7,4-8.5,6.1-10.5,7.6-21.1,15.2-31.5,22.9-4.9,3.7-5.6,8.8-3.8,14.4,1.7,5.5,6.1,7.9,11.3,8.5,14.2,1.6,28.4,3.2,42.6,4,12.2.7,21.8,3.9,28.7,15.3,7.5,12.5,16.9,23.9,25.4,35.8,3.8,5.3,8.6,8.4,15.4,6.8,5.4-1.3,9.1-5.8,9.8-12.5,1.5-14.5,3.1-29.1,4.1-43.6.8-11,3.6-19.9,13.9-26.3,13-8,25-17.6,37.5-26.5,5.5-3.9,7.8-9.2,6.3-14.6-1.7-6.2-6-9.4-12.2-10.1-17-1.8-34-3.5-51.1-5.1-6.5-.6-11.7-2.9-15.6-8.4-10.2-14.4-20.5-28.7-30.9-43-3.5-4.8-8.3-6.8-14-5.4-5.8,1.4-9.1,5.6-9.7,11.4-1.5,13.7-2.8,27.4-4.1,41.1-1,11.1-.7,22.7-13.5,29.1M1485.1,187.6c-11,4.4-21.9,8.9-32.9,13.2-3.7,1.4-5.6,3.9-6.2,7.7-3.3,22-6.6,44-9.9,66-.7,4.4.2,7.9,4.2,10.9,15,11.6,30.2,23,44.5,35.4,8.5,7.4,15.8,9.7,26.7,4.6,17-8,34.8-14.1,52.4-20.9,4.9-1.9,8.1-4.7,8.6-10.4.7-7.3,2.1-14.4,3.2-21.7,2.1-13.9,4.2-27.9,6.2-41.9.7-5.1-.4-9-5-12.5-16.8-12.8-33.3-26-49.6-39.4-4.7-3.8-8.9-4.3-14.2-2.2-9.1,3.7-18.3,7.2-28.1,11.1M666.8,584.4c-.4,2-.7,3.9-1.1,5.9-3.8,21.4,9.5,45,30.2,52.4,18.8,6.7,36.3,4.1,51.1-9.6,13.1-12.1,18.4-27.5,15-45.2-4.8-24.9-26.6-41.1-51.3-39.6-19.7,1.2-37.3,14-43.8,36.2M1023,150.5c-5.4-4.1-10.6-8.7-16.3-12.3-11.8-7.4-23.8-12.6-38.8-9.5-33.4,6.9-57.7,24.6-71.2,56.2-5.7,13.3-3.6,26.3,7.1,36.2,6.8,6.3,14.9,11.7,23.3,15.9,15.1,7.5,31.4,11.8,48.2,13.3,18.1,1.6,36.2,2.2,53.7-4,21.8-7.7,30.6-25.2,24.1-47.5-5.5-18.7-15.6-34.4-30.1-48.2M860.1,151.8c-8.3,4-16.5,1.5-24.8-.2-6.6-1.4-13.4-3.5-20-3.1-11.8.7-21.9,10.8-24.1,22.6-.3,1.7.4,4,1.5,5.4,13.1,16.8,29.3,27.6,51.6,25.5,14.1-1.3,27-5.7,35.5-18.3,5.9-8.8,8.4-18.8,9.1-29.1.4-5.4,0-10.9,0-16.9-10.1,5-19.1,9.4-28.9,14.2M732.5,190.1c-1.6-.1-3.1-.2-4.9-.3.8-9.7,1.6-18.8,2.4-28.1,6.3.5,12,1,18.1,1.5.5-4.9.6-9.2,1.4-13.4.7-3.8-.7-5.1-4.2-5.4-16.4-1.6-32.8-3.4-49.2-4.8-1.3-.1-3.6,1.7-3.9,2.9-.8,3.5-.8,7.3-1.3,10.9-.5,3.5,1,4.7,4.4,4.8,4.4.2,8.8.9,13.4,1.4-.8,10.1-1.6,19.6-2.4,29.5h-23.1v18.3c19.3.6,38.1,1.3,56.8,1.8,14,.4,14,.4,13.7-13.7,0-3.5-1.4-4.7-4.8-4.7-5.2,0-10.3-.4-16.4-.7M906.3,361.1c-1.7,0-3.4-.2-5,0-11.5,1.5-22.3,4.6-26.6,16.9-3.8,10.8-2.8,21.8.5,32.3,9.1-1.8,17.9-3.4,26.6-5.4,8.9-2,17.9-3.9,24.7-10.9,7.9-8.2,12-18.3,13.5-29.4,1-7.6.7-7.7-6.8-5.3-8.5,2.8-17.2,3.4-27,1.7M1078.8,234.1c-5.6,2.2-11.1,4.4-17.8,7.1,3.3,2,5.3,3.3,7.3,4.4,10.5,6.1,20.8,12.1,28.4,22.2,2.8,3.7,8.2,6.8,12.8,7.4,5,.7,10.8-1,15.6-3.2,2.1-.9,2.6-5.6,3.5-8.7.7-2.4,1-4.9,1.3-7.3.9-7.2-.2-13.7-6.7-18.1-2.9-1.9-5.9-3.8-9.1-5-11.6-4.3-23.1-2.6-35.3,1.2M1039.7,322.6c3.8,1.7,6.9.8,8.7-3,3.1-6.6,6.6-13,8.6-19.9,2.8-10.1-1.3-14.7-11.8-14.9-16-.3-31.9-.6-47.9-.8-14.4-.2-14.2-.1-14.6,14.1-.1,4.3,1.4,5.3,5.4,5.4,12.3.1,24.6.7,36.9.8,4.3,0,6.1,1.2,5,5.8-2.5,10-2.2,8.9,7.1,11.7.6.2,1.3.3,2.7.7M842.7,233.7c-3-1-6.1-1.8-8.9-3.1-3.9-1.7-5.7-.6-6.9,3.4-2.1,7.1-4.4,14.3-7.2,21.2-5.7,14-13.3,26.8-26.1,35.7-1.2.9-2.7,1.4-4.6,2.4,4.9,4.3,8.3,7.2,11.6,10.2,2.3,2.1,4.7,2.3,7.2.5,4.6-3.3,9.5-6.2,13.6-10,15-13.6,22.7-31.3,27.3-50.5,1.7-7.1,1.7-7.2-6-9.8M455.4,46.1c-1.2-1-2.5-2.9-3.5-2.7-4,.7-7.9,2.1-12.3,3.4,4.9,17.8,9.6,35.2,14.3,52.1,7.2-1,13.8-1.1,19.8-2.9,4.5-1.3,9.2-4.1,12.5-7.4,5.8-5.7,6.2-14.5,2.3-21.8-3.6-6.6-10.3-10.1-18.5-9-3.6.5-7.1,1.6-10.9,2.5-1.2-4.4-2.4-8.8-3.9-14.1M1347.7,554.8c-4.2-1.9-8.2-4.9-12.5-5.5-6.8-.9-13.8-.2-21.3-.2-2.2,17.2-4.3,34.4-6.5,51.9,4.4.6,8,1.1,11.6,1.8,2.8.5,3.9-.5,4.2-3.3.4-4.4,1.1-8.8,1.7-13.2,13.2,3,21.8.5,26.4-7.1,4.6-7.7,3.6-16.1-3.5-24.3M1360.9,574.4c-5.4,12-10.9,24.1-16.4,36.3,3.9,1.8,7.3,3.3,10.5,5,2.5,1.3,3.9.8,5-1.8,1.7-4.1,3.6-8,5.5-12.2,6.2,3.9,12.3,6.5,19.3,5.1,7.4-1.4,13.2-7.9,14.3-15.5,1.3-8.9-3-17.4-11.5-21.2-6.7-2.9-14-4.7-21.4-7.1-1.7,3.6-3.4,7.2-5.3,11.5M1277.4,233.1c-2.5,0-5-.2-7.5.2-5.5.8-8.3,4.1-8,9,.3,4.5,3.5,7.4,8.9,7.6,2.5.1,5,.1,7.5,0,2.8-.2,3.9.9,3.8,3.7-.1,3-.2,6,.3,9,.9,5.6,3.8,7.8,8.8,7.5,4.7-.3,7.4-3.3,7.7-8.7.3-3.6-.9-8.5,1.1-10.4,1.9-1.9,6.9-.8,10.5-1,5.5-.4,8.4-3.1,8.7-7.8.3-5-2-7.8-7.6-8.7-3.9-.6-9.5.9-11.4-1.3-2.2-2.5-.7-7.9-1.4-11.9-.7-4-2.8-7.1-7.5-7.4-4.7-.2-7.8,1.9-8.5,6.5-.5,3.3-.6,6.6-.6,9.9,0,2.8-1,4-4.7,3.7M917.7,301.2c-5.9,4.6-11.8,9.2-17.8,13.7-2.4,1.8-3,3.3-.7,5.6,3.5,3.5,6.8,7.4,10.5,10.7,1,.9,3.7,1.1,4.9.4,14.1-8.4,26.5-18.9,37.3-31.3,3.1-3.6,8.2-7.7,8-11.3-.2-3.7-5.9-7.1-8.9-10.8-2.5-3-4.2-2.4-6.9,0-8.5,7.7-17.3,15.1-26.5,23.1M765.2,120c6.7.7,5.6-6.1,8-8.7-1.2-3.9-2-7.7-1.8-11.3.3-3.8,1.5-7.5,2.5-11.2.8-2.9-.2-4.3-3.2-4.8-6.3-1.1-12.5-2.7-18.9-3.8-6.8-1.1-12.5,1.1-16.7,6.6-4.7,6.2-5.9,13.1-2,20.1,4.2,7.5,11.1,11.2,19.6,10,4.7-.7,8.3,0,12.4,3.1M1281.8,575.5c5.1,6.5,5.7,6.4,14-1.9-3.7-10.3,5.6-16.5,8.3-25.2-7.5-4.1-14.8-8.3-22.3-11.9-2.2-1.1-5.2-1.2-7.8-.9-9.3,1.2-16.4,9.7-16.1,18.7.3,9.5,8.4,17.8,18.1,18.9,1.8.2,3.5,1.2,5.7,2.4M832.1,339.6c4.3-5.3,7.2-11.2,7.5-18.3-5.8,2.4-11,5.6-16.5,6.5-7.8,1.3-15.8,1-23.8,1.2-12.9.4-24.1,11.1-23.5,21.8,6.5.5,13.3-.3,19.2,1.6,15.7,5.1,26.6-1.9,37.2-12.8M548,76.4c-1.1,7.7-2.2,15.4-3.3,23.4,5.3.8,10,1.4,15,2.2,1.3-8.3,2.5-16.1,3.7-23.9,5.2,1.6,6.4,2.9,6.8,7.2.2,2.8-.2,5.7.1,8.5.5,5.4,5.1,12.1,9.1,11.9,3.5-.2,6.9-2.8,8.8-3.6-.8-6.1-1.9-10.6-1.9-15.1-.2-10.2-4.6-17.4-14.6-20-6.9-1.8-14.3-1.8-21.7-2.6-.7,4.2-1.3,7.6-1.9,12M514.4,88.8c-.5-2.1-1.7-4.3-1.4-6.3.4-2.9,1.8-5.7,2.8-8.5,3.8-10.2,3.7-10.1-6.7-13.2-2.8-.8-4.1,0-5,2.4-2.2,5.6-4.7,11-6.5,16.7-2.9,9.2,1,16.5,10,19.9,5.7,2.2,11.4,4.5,17.1,6.5,1.1.4,3.4.1,3.7-.5,5.2-9.8,10.1-19.7,15.3-30-3.8-1.9-7.1-3.4-10.2-5.2-2.8-1.7-4.1-.7-5.3,1.9-2.3,4.8-4.9,9.5-7,14.3-1.3,3-3.1,3.6-6.6,1.9M992.3,344.7c-4.1,9-5.4,7.7,4.5,12.4.6.3,1.2.5,1.8.9,4.4,3,8,1.9,11.2-2.1,7.9-9.9,13.2-21,15-33.7.5-3.3-1.1-4.7-3.9-5.1-4.7-.8-9.5-1.4-14.3-2.2-3.4-.6-5,.5-5.9,4.1-2.3,8.5-5.2,16.8-8.3,25.8M723.4,95.3c-1.4-2-2.4-4.6-4.3-5.9-7-4.9-14.7-5.1-22.2-1.6-7,3.3-10.2,9.4-9.9,17,.3,8.3,4.7,14,12.3,17.1,9.2,3.8,12,2.4,14.5-7.6-2-.5-4.1-.8-6.2-1.4-5.4-1.7-8.6-7.4-6.5-12.1.8-1.7,2.9-3.2,4.7-3.7,1.3-.4,3,1.1,4.6,1.7-.1.4-.3.9-.4,1.3-1.6.6-3.2,1.2-4.8,1.7q1.1,8.7,9.2,8.2c1.2,0,2.3-.1,3.5-.3,4.7-.8,6.9-3.6,6.6-8.4-.1-1.8-.5-3.6-1.2-6.1M857.6,108c-2-3.4-3.1-7.8-6-9.8-7-5-15.1-4.7-22.6-.7-6.3,3.3-9.9,11.2-8.7,18.2,1.4,8.6,6.5,14,14.8,16.3,7.9,2.3,10.3.6,11.8-8.5-2-.5-4.1-.9-6.1-1.5-5.3-1.8-8.4-7.1-6.4-11.7.8-1.8,3-3.4,4.9-4.1,1.1-.4,2.9,1.2,5.6,2.5-3.3,1.3-4.9,1.9-6.9,2.7.9,2.8,1.6,7.3,2.6,7.4,4.5.4,9.3.2,13.7-1,4-1.1,3.9-5.3,3.5-9.7M636.1,98.5c-4.8-2.2-6.6-5.6-4.9-9.8.6-1.4,2-3.4,3.2-3.5,3.7-.2,7.5.4,12.1.7.8-1.4,2.3-3.6,3.1-6.1.4-1.2-.2-3.5-1.1-4.1-7.1-4.5-14.8-4.7-22.4-1.6-7.1,3-10.6,8.9-11.1,16.4-1,15.1,15,24.7,30,18.1,7.9-3.5,8.5-6.3,3.3-13-3.9,1-7.7,2-12.2,2.8M810.6,104.2c-.2-3.6-.4-7.2-.6-10.8-2.2-.3-3.9-.5-4.8-.6-2.9-3,2.1-9.1-4.9-9.2-11.1-.1-11.1,0-12.3,10.3-5.4,1.4-6.1,4.1-3.3,13.8h5.3c.7,3.4,1.3,6.5,2.1,9.5,1.8,7,6.3,11.3,12.6,11.8,1.5.1,4.2-1,4.5-2.1.8-3,1.6-6.6.8-9.5-1-3.5-3.6-6.5-5.6-9.9,2.9-1.2,4.5-1.8,6.3-3.3M1334.4,280c6.3,1.4,9.7,0,11.1-4.2,1.3-3.9-1-7.3-6.8-9.2-3.1-1-3.1-2.9-2.7-5.3,1-5.6-.5-8.7-4.6-10-3.9-1.1-7.1,1-8.8,6.5-1,3.3-2.8,3.6-5.6,3-5.5-1.1-8.7.6-9.9,4.7-1,3.8,1.1,7,6.2,8.6,3.2,1,4.1,2.5,3.2,5.8-1.3,5,.8,8.8,5,9.8,3.6.9,6.7-1.6,8.6-6.4.5-1.4,2.2-2.3,4.2-3.3M807.6,244.1c1.4-4.2,3-8.4,4.2-12.7.9-2.9,0-5-3.3-5.9-4.5-1.2-8.9-2.8-13.2-4.3-3.3-1.2-5.2-.6-6.1,3.2-1.3,5.7-3,11.2-4.6,16.8-4.5,16.8-6.1,12.5,9.9,19.1.2,0,.3.1.5.2,3,1.3,5,.7,6.4-2.5,1.9-4.4,3.9-8.8,6.3-13.8M667,106.2c6.9.5,6.8.4,7.1-6.7.2-5.6.6-11.2,1-16.8,1.5,0,2.4-.2,3.1,0,3.7,1.3,5.7,0,6.3-3.8.2-1.3.8-2.5,1.2-3.8,1-2.6.4-4.3-2.6-4.4-7-.3-13.9-.6-20.9-.6-.7,0-2,2.3-2.1,3.6-.5,5.3-.8,10.6-.9,16-.1,5.3,0,10.5,0,16.4,2.4,0,4.7,0,7.9,0M883,296.5c1.8,1.7,3.8,3.3,5.4,5.2,2.5,2.9,4.6,3,7.5.4,3.2-2.9,6.7-5.5,10.2-8,3-2.1,3.1-4.4.4-6.4-4.8-3.5-9.8-6.8-14.9-9.9-1-.6-3.1-.4-4.1.3-4.4,2.9-8.5,6.2-14.5,10.6,3.6,2.8,6.5,5.1,9.9,7.8M893.3,268.2c3.2,1.8,6.4,3.6,9.6,5.3q10.2,5.3,16.8-4c6.8-9.6,6.8-9.8-4.3-13.9-12-4.5-12.4-4.4-19.9,6-1.3,1.8-1.8,4.1-2.1,6.7M1093,323.9c-.3,1.4-.9,2.9-1,4.3-.5,8,1,10.2,7.8,11.5,6.4,1.2,11.1-1.4,12.7-8.1,2-8.4.3-16.4-4.4-24-6.8,3.8-11.2,9.3-15.1,16.3M1175.6,183.1c.7-1.5,2.4-3.8,1.9-4.4-1.3-1.6-3.4-3.1-5.4-3.6-3-.8-6.2-.8-9.3-.9-6.5-.2-13.1-1-19.3,2.2,7,13.7,21.4,16.8,32.1,6.7M1383.8,256.8c-1.7-.3-4.1-1.6-5-.9-4.3,3.2-6.7,1.8-8.8-2.5-.5-1.1-2.9-1.2-4.4-1.7-.3,1.5-1.3,3.6-.7,4.4,3.5,4.6,2.2,7.3-2.6,9.6-1,.5-1.1,2.7-1.6,4.1,1.5.3,3.2,1.2,4.5.9,2-.5,3.7-1.9,5.8-3,1.3,2,2.2,3.9,3.6,5.2,1,1,2.7,1.2,4.1,1.7.3-1.6,1-3.3.7-4.8-.4-1.8-1.6-3.5-2.1-4.5,2.6-2.9,4.7-5.3,6.6-8.4M1403,267.1c6.1-.3,6.1-.3,4.2-5.8-.3-.8,0-1.7-.3-2.4-.7-1.3-2.1-3.5-2.4-3.3-3.1,1.2-6.1,2.8-9.1,4.4,0,0,.5,1.1.7,1.7.4,1.2.8,2.5.9,3.7.4,4.1,2.3,4.3,6,1.8Z"/>
  <path class="cls-27" d="M1190.5,788c-1-.7-1.3-1.6-1.9-2-4.9-2.7-10.1-5-14.9-7.9-15-9-31.1-14.4-48.4-17.4-10.6-1.8-22.2-2-31-9.8-4.1-3.6-8.3-7.2-11.9-11.3-10.9-12.4-22.3-24.3-35.9-33.8-8.9-6.2-19-9.4-29.4-11.9-19.2-4.6-31.9-20.1-32-39.9,0-11.1,0-22.3,0-32.6-9-2.1-17.6-4.2-26.2-6.1-.8-.2-2.3.9-2.7,1.7-15.3,31.3-30.3,62.7-45.7,93.8-5.2,10.4-11,20.6-17.3,30.3-7.2,11-18,17-30.7,19.7-10.6,2.3-20.8.1-31-1.9-11.5-2.2-23-4.1-34.5-6.1-18.3-3.2-31.2-12.9-37.2-30.9-.2-.6-.6-1.1-.4-.7-9.3,2.9-18.3,6.2-27.6,8.6-16.5,4.3-32.8,2.2-48.6-3.5-12.8-4.7-24.1-12.2-33.4-22.3-12.7-13.8-22-29.5-23.6-48.5-1.1-13.2-.8-26.5-1.1-39.7,0-2,0-4,0-6.5.9,2.8,1.9,6.1,2.8,9.4,10.1,36.2,33.9,58.1,70.3,65.7,19.2,4,38.1,1.2,55.7-8.1,4-2.1,5.7-1.8,7.6,2.7,7,16.6,20.4,25.4,37.7,28.5,15.5,2.8,31,5.7,46.6,8,21.5,3.2,42.1-7.9,52.9-29,17.6-34.6,34.8-69.4,52.1-104.1,2.2-4.4,4-9.1,5.7-13.1,7.9,1.5,15.4,3.1,22.8,4.3,7.2,1.1,14.8-1.8,22.6,2.3-1.6,1.8-2.6,3-3.8,4.1-22.2,21.3-12.8,58.6,18,67.1,19.5,5.4,35.3,16,49.8,29.1,7.2,6.6,13.5,14.2,20.1,21.5,7.7,8.6,17.2,13.4,28.6,14.8,23.4,2.9,45.1,9.9,65.4,22.6,26.1,16.5,56.7,1.1,61.3-30.2.4.6.9,1.6.9,2.7,0,11.8.2,23.7,0,35.5-.2,16.1-5.8,29.7-19.8,38.7-3.3,2.1-7.2,3.5-10.5,5.5-6.7.3-13.7.3-21.2.3Z"/>
  <path class="cls-27" d="M66,479.5c.2-.3.4-.1.9-.2.5,1.1,1,2.3,1,3.6-.7,20.5,9.5,35.2,25.6,46.3,21.8,15,46.5,23,72.2,27.7,33.2,6.1,65.2,1.3,95.8-13,16.6-7.8,32.9-16.1,49.6-23.7,11.8-5.4,24.4-7.1,37-4.2,7.1,1.6,13.4,5.3,16.6,12.9,2.5,6,5.2,12,8.7,17.4,8,12.4,19.9,18.5,34.5,18.7,17.2.3,34.3,0,51.5,0,45-.3,90-.6,134.9-1,10.5,0,21-.5,31.4-.7,1.6,0,3.3,0,6,0-5.7,15-7.3,29.9-6.5,45.5-12.4.5-24.7.4-37.1.4-45.1.3-90.2.6-135.3,1-14.3.1-28.5.6-42.8,1-14.6.4-26.8-4.7-35.5-16.3-4.2-5.6-7.3-12.2-9.9-18.8-4.1-10.3-12.4-13.9-22.1-14.8-15.5-1.5-30,2.7-43.8,9.6-13.9,7-27.7,14.1-41.7,20.7-14.1,6.7-29,11.2-44.6,12.4-10.9.9-21.9,1.8-32.7.9-16.5-1.4-32.5-5.4-48-11.5-13.3-5.2-26.3-10.8-38-19.1-12.7-9-23.1-19.6-26-35.7,0-.4-.7-.7-1.4-.7-.3-19.1-.3-38.4-.3-58.2Z"/>
  <path class="cls-31" d="M1712,505c-18.8-13.3-38.4-25.2-60.6-33.3-.9-.3-1.3-.3-1.7-.3.3.3.7.7,1,1,3.7,6.2,8.3,12,7.1,19.5-11.2-3.4-22.1-7.8-33.4-10.1-39.4-7.9-77.9-5.3-114.4,12.6-9.4,4.6-17.4,12.2-26.2,18.1-9.9,6.5-20.6,11.5-32.4,13.8-8.7,1.7-17,1.6-22.7-5.8-9.8,4.1-19,8.8-28.8,11.8-37.7,11.6-80.1-3.1-101.2-35.5-17.7-27.2-16.9-55.9-2.9-84.1,13.7-27.7,37-41.6,67.7-42.7,10.2-.3,20.4,1.7,30.7,2.7,1.3.1,3,.8,3.9.2,7.7-5.1,16.6-2.9,24.9-3.6,11.6-.9,23.3-.5,35-.5,7.3,0,9.4,2.3,9.3,9.7-.3,17.1-1.3,34.3-.9,51.4.3,11.9,2.2,23.8,3.8,35.6.5,3.5,2.1,7.1,4.1,10,4.1,6.2,11.1,6.3,14.4-.2,4.2-8.3,7.2-17.1,10.6-25.8,7.7-20.2,14.4-40.8,23.2-60.5,11.7-26.2,28.2-49.1,53-64.8,24.3-15.4,50.5-18.6,78.1-11.7,27.8,7,51.3,21.9,72.4,40.7,31.2,27.8,54.4,61.4,71.4,99.5.3.8.5,1.6.4,2.8-2-.4-3.7-1.2-5.2-2.2-21.5-13.7-44.8-23.1-69.6-29-3.3-.8-6.7-1.2-10.8-2,7.4,20.6,14.4,40.2,21.7,60.6-5.5-.6-10-.8-14.3-1.7-3.6-.8-5,.5-5.3,3.7-.7,6.6-1.4,13.2-2,19.8M1398.5,444c-.2-3.2,0-6.4-.7-9.4-.7-3-1.6-6.8-3.8-8.6-5.3-4.4-11.8-5.7-18.8-4.5-21.7,3.7-30.6,34.4-15.9,51.6,11.2,13.1,28.6,11.6,41.5,4.8,1.1-.6,1.7-3.3,1.5-4.9-1.1-9.4-2.4-18.7-3.9-29Z"/>
  <path class="cls-32" d="M400.9,311.1c18.6,64.4,35.7,128.7,47.9,194.8-7.1,1.7-14,3.4-20.9,4.9-11.5,2.5-11.4,2.4-21.1-4.6-10-7.2-20.3-14-30.3-21.2-8.7-6.3-18.6-8.9-28.9-9.9-19.1-1.8-37.6,1.3-55,9.2-14.5,6.6-28.8,13.9-43.1,21-21.3,10.6-43.8,15.8-67.6,13.6-17.2-1.6-33.6-6.7-49.2-13.8-6.8-3-13.3-6.9-19.4-11.2-7.1-5-7.3-11.8-1-17.6,17-15.7,34.5-30.9,51.2-46.8,12.1-11.5,23.9-23.3,34.9-35.8,12.9-14.7,25.1-30.2,37-45.8,4.7-6.1,8.8-13.3,11-20.6,2-6.6,1.6-14.1,1.2-21.1-1.2-17.9-3.5-35.7-4.3-53.6-.7-15.6,5.6-19.5,19.7-12.7,15.7,7.6,30.9,16.3,46.3,24.5,1.6.8,3.3,1.6,5.1,2.5,3.3-9.3,6.1-18.5,9.8-27.3,2.8-6.7,6.3-13.2,10.4-19.2,5.6-8.1,11.2-9.2,19.7-4.3,12.1,7,20.7,17.7,26.1,30.1,5.6,12.9,9.2,26.6,13.5,40.1,2.6,8.1,4.7,16.3,7.1,24.8Z"/>
  <path class="cls-27" d="M538,360c15.5-2.4,30.6-4.8,45.7-7.2,5.8-.9,8.4.8,9.4,6.7,2.3,13.9,4.4,27.8,6.4,41.8.7,4.9-1.6,8-6.6,8.9-13.5,2.4-27.1,4.8-40.7,6.7-4.8.7-5.8,2.3-4.5,6.8,1.8,6.5,3,13.2,4.5,20.4,11.8-2.5,23-5,34.3-7.4,11.2-2.4,22.4-4.9,33.6-7.3,4.4-.9,8,1.2,8.9,5.7,3.4,15.9,6.8,31.8,9.9,47.8,1.1,5.6-1.5,8.5-7.9,9.9-15.2,3.3-30.5,6.6-45.7,9.9-25.8,5.6-51.6,11.2-77.4,16.8-8.3,1.8-11,0-12.8-8.6-7.7-36.2-15.5-72.4-23.3-108.5-7.5-34.7-15.1-69.4-22.6-104.1-1.7-7.7.3-10.5,8.2-12.2,11.8-2.5,23.7-5.1,35.5-7.6,29-6.2,58.1-12.5,87.1-18.7,5.6-1.2,8.9,1.1,10.1,6.6,3.1,15,6.2,29.9,9.3,44.8,1.5,7.2,0,9.9-7.1,11.5-19,4.2-38,8.2-56.9,12.2-1.9.4-3.8.9-6.3,1.5,1.6,7.1,3,14.1,4.9,20.9.3,1.1,2.5,1.7,4.2,2.6Z"/>
  <path class="cls-7" d="M833,673c-9.1-1.6-17.8-2.9-26.4-4.7-9.2-1.9-10.8-5-7.3-13.7,6.2-15.1,12.6-30.1,18.9-45.1,3.5-8.4,7.2-16.8,10.6-25.3.5-1.2.2-3.2-.5-4.3-18.5-26.4-37.2-52.8-55.8-79.1-7.1-10.1-14.2-20.2-21.3-30.2-5.1-7.2-4.6-11.1,3.2-15.4,13.5-7.5,27.3-14.7,41.1-21.7,6.9-3.5,11.8-1.8,17,5.5,10,14,19.8,28,29.6,42,6,8.5,12,17.1,18.6,26.3,4.3-10.6,8.3-20.4,12.2-30.2,6.5-16.4,12.9-32.8,19.3-49.2,3-7.5,5.6-9,13.4-6.9,15.5,4.3,31,8.7,46.5,13.2,6.3,1.8,7.6,4.5,6.4,10.8-5.9,29.2-16.5,56.9-28.3,84-14,32-29.2,63.5-44.3,95-7,14.6-14.8,28.7-22.3,43-4.6,8.7-7.5,10-17.3,8.2-4.2-.8-8.5-1.5-13.2-2.2Z"/>
  <path class="cls-27" d="M1732.4,635.7c-8.1-18.4-22.8-31.3-37.4-44.2-5.7-5-11.3-10-17-15-.7-.6-2.1-1.3-2.8-1-13.8,5.6-27.1,2.3-39.8-2.9-20.6-8.4-42.1-9.8-63.7-8.4-14.2,1-28.6,2.8-41.2,10.2-8.8,5.2-16.6,11.8-25,17.6-14.1,9.8-29.8,16.1-46.5,19.8-5.9,1.3-12.1,1.1-18.9,1.6,0,6.5.1,13.2,0,20-.4,16.8-6.4,31.4-18.3,43.3-9.4,9.4-21.2,13.9-34,16.4-3.6.7-6.9,3.2-10.3,5-12,6.8-24.4,6-36.6,1.1-6.4-2.6-12.2-6.5-18.6-9.3-3.2-1.4-6.9-1.6-10.4-2-9.9-.9-19.7-2.6-27.7-9.1-3.4-2.8-6.9-5.8-9.2-9.4-4.4-6.9-10.7-10.8-17.9-13.9-.9-.4-1.7-.9-1.8-.9-6.3,8.1-12.5,16.2-19.1,24.4-3.3-6.8-6.4-13.7-9.2-20.7-.7-1.8-.5-4.1-1.4-5.8-2.8-5.2-2-8.6,3.2-12.1,10.5-7.1,16.7-17.9,22.9-28.6,1.8-3.2,3.8-3.6,6.4-2,5.7,3.7,12.2,6,16.1,12.6,7.3,12.5,19.4,18.2,33.3,18.9,10.6.5,19.2,5.4,28.4,9.4,5.3,2.3,10.9,4,16.5,5.2,9,2,17.6-.3,25.3-4.9,4.4-2.6,8.8-4.3,13.7-5.2,28.3-4.7,48-30.6,47.4-56.2-.2-7.4-1.3-14.8-2-22.4,6-.4,12.8-.4,19.4-1.5,22.1-3.8,42-12.9,59.2-27.2,12.2-10.2,26.2-15.5,41.5-18.2,24.6-4.4,49-4,72.8,4.3,3.1,1.1,6.2,2.3,9.2,3.7,10.9,5.1,21.9,6,33.4,1.9,1.9-.7,5-.4,6.7.8,19.8,14.4,38,30.5,49.5,52.5,8.7,16.5,12.2,33.7,3.7,51.9Z"/>
  <path class="cls-18" d="M737.1,382.1c-1.6,22.7-3.2,44.9-4.8,67.1-1.1,15.9-2.1,31.9-3.3,47.8-.5,7.3-1.1,14.6-1.7,21.9-.4,4.5-3.2,6.3-7.6,6-18.2-1.3-36.5-2.6-54.7-4-4.9-.4-7.1-3.5-6.8-8.6,1.3-17.4,2.5-34.8,3.8-52.2,1.9-25.9,3.9-51.7,5.7-77.6,1.1-15.8,2.1-31.5,3.2-47.3,1.9-26.5,3.9-53.1,5.8-79.6.5-7.1.9-14.3,1.3-21.4.4-8.6,2.6-10.3,11.1-9.5,10.9,1,21.9,1.6,32.9,2.3,6.1.4,12.3.7,18.4,1.2,5.1.4,7.4,3,7.1,7.7-1.5,22.9-3.1,45.8-4.7,68.7-1.8,25.7-3.8,51.4-5.7,77.6Z"/>
  <path class="cls-21" d="M1177.7,323.7c12.5-6.2,12.2-17.8,13.3-28.9,1.3-13.7,2.6-27.4,4.1-41.1.6-5.8,4-10,9.7-11.4,5.7-1.4,10.6.6,14,5.4,10.3,14.3,20.7,28.6,30.9,43,3.9,5.5,9.1,7.8,15.6,8.4,17,1.5,34,3.3,51.1,5.1,6.2.7,10.5,3.9,12.2,10.1,1.4,5.3-.8,10.6-6.3,14.6-12.4,8.9-24.5,18.5-37.5,26.5-10.3,6.4-13.1,15.3-13.9,26.3-1,14.6-2.6,29.1-4.1,43.6-.7,6.7-4.4,11.2-9.8,12.5-6.8,1.6-11.6-1.5-15.4-6.8-8.6-11.9-17.9-23.3-25.4-35.8-6.9-11.4-16.5-14.6-28.7-15.3-14.2-.8-28.4-2.5-42.6-4-5.2-.6-9.6-3-11.3-8.5-1.8-5.6-1-10.7,3.8-14.4,10.4-7.8,20.9-15.3,31.5-22.9,2.8-2.1,5.7-4.1,8.8-6.3Z"/>
  <path class="cls-32" d="M1086.9,522.1c-15,8-31,11.8-47.9,12-18.9.2-37.9,0-56.8,0-9.5,0-12.4-2.7-14.2-11.9-1.8-9.3-3.8-18.5-5.7-27.8-1.6-7.5,0-9.2,7.6-9.4,13.8-.2,27.6-.5,41.4-1.1,2.5,0,5.2-1.2,7.5-2.3,7-3.5,9-8.7,5.5-15.6-3.5-7-7.6-13.7-11.7-20.3-5.4-8.8-9.2-18.1-10.3-28.3-1.2-10.9,3.7-24.7,18.3-33.6,11.3-6.9,23.8-9.8,36.8-11.6,14-1.9,27.8-.7,41.6,1.8,6,1.1,9.4,4,10.6,10.1,2,10.6,4.4,21.1,6.5,31.7,1.1,5.6-.7,7.7-6.5,7.3-4.6-.3-9.3-1.1-13.9-.8-3.3.2-7.4,1.1-9.6,3.2-2.1,2-2.2,6.1-3.6,9.6-4.5-1.4-8.5-3.2-12.4-5.1-.1-.3-.4-.4-.7-.5.2.2.4.4.6,1,1.3,2.3,2.4,4.3,3.7,6.2,18,26.4,21.4,55,13.2,85.5Z"/>
  <path class="cls-11" d="M1712.1,505.3c.5-6.9,1.2-13.5,1.9-20.1.3-3.2,1.7-4.5,5.3-3.7,4.3,1,8.8,1.1,14.3,1.7-7.3-20.5-14.3-40.1-21.7-60.6,4.1.8,7.5,1.2,10.8,2,24.8,5.9,48.1,15.3,69.6,29,1.5,1,3.2,1.7,5.2,2.5.4,0,.4-.1.3.2.3.5.6.6.9.8,3.7,9.8,7.5,19.5,10.9,29.3,1.8,5.1,2.7,10.6,4.4,17.2-5.2-1-9.5-1.9-13.6-2.7,1.8,8.6,4,17.2,5.5,26,3.8,22.9,2,45.7-3.7,68.1-4.6,17.9-12,34.5-23.6,49.1-2.5,3.1-5.4,5.8-8.5,8.8-.4,0-.5,0-.5,0,1-3.1,2-6.3,3-9.4,7.6-23.7,5.5-46.9-4.4-69.5-11.6-26.4-30.1-47.2-52.4-64.9-1.3-1-2.4-2.2-3.8-3.7Z"/>
  <path class="cls-10" d="M1485.4,187.4c9.5-3.7,18.7-7.2,27.7-11,5.3-2.2,9.5-1.7,14.2,2.2,16.3,13.4,32.8,26.6,49.6,39.4,4.6,3.5,5.7,7.5,5,12.5-2,14-4.1,27.9-6.2,41.9-1.1,7.2-2.4,14.4-3.2,21.7-.6,5.6-3.8,8.5-8.6,10.4-17.5,6.8-35.4,12.9-52.4,20.9-10.9,5.1-18.2,2.8-26.7-4.6-14.3-12.4-29.5-23.9-44.5-35.4-3.9-3-4.8-6.5-4.2-10.9,3.3-22,6.6-44,9.9-66,.6-3.8,2.5-6.3,6.2-7.7,11-4.3,21.9-8.8,33.2-13.3M1457.6,247.7c11.8-14.9,23.7-29.8,35.5-44.7-.3-.3-.6-.7-.9-1-9.7,3.8-19.4,7.6-29,11.5-.9.4-1.9,1.6-2,2.5-1.5,10.6-2.8,21.3-4.4,32,0,0,.1,0,.8-.4M1473.9,290.7c0,0-.2,0-.2,0,.1,0,.2.1.6.8,7.9,6.3,15.8,12.7,23.8,18.9,1.1.8,3.2,1.2,4.4.7,9.9-3.7,19.8-7.6,30.8-11.9-9.1-1.4-17-2.8-24.8-3.9-11.5-1.6-23-2.9-34.6-4.7M1483.8,275.8c22.2,3.2,44.4,6.4,67.7,9.8-11.7-29.5-22.8-57.7-34.5-87-19.9,25-38.8,48.9-58.3,73.4,8.8,1.3,16.5,2.4,25,3.8M1543.5,221.9c5.5,13.8,11,27.6,16.4,41.4,1.4-3.8,1.9-7.4,2.4-11,.6-3.8.6-7.7,1.8-11.3,2.9-8.5.2-14.1-7.2-18.8-6.1-3.8-11.5-8.7-17.2-13.2-.3.2-.6.4-.9.6,1.4,3.8,2.9,7.6,4.6,12.1Z"/>
  <path class="cls-29" d="M1107,635.9c-2.3-13.7-9.1-25.1-18-35.4-8.3-9.6-17-18.9-24.9-27.8,7.5-2.1,17.1-1.2,26.9,2.3.3,0,.1,0,.2.2.3.4.6.6,1.2,1,4,2.7,8.1,4.8,11.3,7.8,6,5.5,11.5,11.5,17.3,17.6.3.3.6.3.8.4,0-.4-.2-.9-.3-1.7-8.4-23.2-6.9-44.9,7.9-65,.9-1.2,1.3-2.6,2-3.9,4.2-5.9,8.5-11.7,12.6-17.6,2.7-3.9,5.2-8,8.2-12.5.6-1.1.7-1.6.9-2.2,0,0,0,0,.3,0,7.4-10.7,14.5-21.2,22.3-32.7,2.5,6.2,4.8,11.4,6.7,16.7,5.3,15.3,6.9,30.7.5,46.1-4.6,11.1-10.3,21.5-20.5,29.1-26.4,2.1-32.2,22.3-23.9,43.1,6.2-14,15.3-25.6,25.9-36.4,5.7-4.8,11.1-9.4,16.5-14.1.5.3,1.1.5,1.6.8.2,7.5.4,15,.5,23-2.9,14-5.6,27.6-8.5,41.1-1.5,7.1-4,14-1.7,21.4.9,9,5.9,15.9,11.2,22.8,1.6,2.1,4,3.8,1.2,7.3-7,5.2-14.1,4.9-21.3,2.7-6.8-2-13.5-4.7-20.5-6.1-16.8-3.3-27.9-13.9-36.5-27.7M1122.6,603.4h-.2c0-.1,0,.2.2,0Z"/>
  <path class="cls-41" d="M558.2,215c-6.9-2.4-13.8-4.8-21.1-7.6,1.1-15.4,2.6-30.2,4.2-45.5,4.4.4,8.4.7,12.3,1.2,3.7.5,5.6-.4,5.8-4.6.1-4.1.8-8.3,1.4-12.4.5-3.4-.9-4.9-4.2-5.2-4.6-.4-9.2-1.1-13.8-1.7,2.4-7.1,4.6-14.2,7.4-21.2,2.1-5.3,6.7-7.3,12.3-5.4,24.3,8.6,48.6,17.2,72.8,26,7,2.5,8.9,6.7,6.4,13.8-8.4,23.8-16.9,47.6-25.6,71.4-2.8,7.7-6.7,9.3-14.5,6.7-5.7-1.8-11.3-4-16.9-6.4,17.7-6.8,22.5-17.7,15.3-35.2-1.4-3.4-3-6.7-4-10.2-1.9-6.5,1-10.3,7.8-10.7,1.3,0,2.7,0,4,0,2.6.2,3.7-.8,3.5-3.4-.3-3.6-.7-7.3-.7-11,0-3.6-1.8-5.1-5-5.6-8.2-1.2-16.3-.9-24,2.3-11.2,4.7-15.9,14.2-12.5,25.9,1.5,5.2,3.9,10.2,5.8,15.4,2.6,7.2-.4,12.1-8,13.2-2.7.4-6.8-.2-7.9,1.3-1.4,2-.5,5.7-.6,8.6Z"/>
  <path class="cls-10" d="M1853.6,510.3c.3,14.5.5,29.4.2,44.2,0,3.7-2.1,7.4-3,11.1-1,3.9-2.5,7.8-2.7,11.7-.4,8.8.1,17.7-.2,26.5-.9,25.5-5.7,50.2-15.1,74-7.6,19.2-18.7,35.7-33.7,49.7-8.9,8.4-19.6,12.9-31.5,13.4-16.4.7-30.7-11.5-36.4-27.3-2-5.7-2.8-12-3-18.1-.4-12.8-.1-25.6,0-38.9.9,3,1.6,6.6,2.7,10.1,8.9,28.5,45.5,37,67.4,15.8,24.1-23.4,37.5-52.4,44.8-84.7,4.2-18.8,5.6-37.8,4.9-56.9,0-1.8-.1-3.7-.5-5.5-.9-4.7-.8-9,1.9-13.4,2-3.3,2.7-7.4,4.2-11.5Z"/>
  <path class="cls-10" d="M1183.1,574c-.2-7.5-.4-15-.6-22.5-.5-.3-1.1-.5-1.6-.8-5.4,4.6-10.8,9.3-16.6,13.7-.8-2.2-1.2-4.2-1.6-6.2,9.8-7.6,15.5-18,20.1-29.1,6.3-15.4,4.8-30.8-.5-46.1-1.9-5.4-4.2-10.6-6.7-16.7-7.8,11.5-14.9,22.1-22.3,32.8,1.7-10.1,3.6-20.3,5.7-30.6,1.6-7.8,3.3-15.6,5.1-23.3,1.2-5.1,3.5-6.4,8.7-5.3,17.7,3.8,35.3,7.6,53,11.4,5.7,1.2,7.2,3.8,5.8,9.8-5.8,26.4-11.6,52.8-17.3,79.1-.1.5,0,1,.2,2-12.7,8.6-22.9,19.2-31.2,31.8Z"/>
  <path class="cls-25" d="M1131.3,530.7c-.7,1.8-1.1,3.3-2,4.4-14.7,20.1-16.2,41.7-8,65.1,0,.5-.4.8-.4.8-5.7-5.8-11.2-11.8-17.2-17.3-3.3-3-7.3-5.1-11.4-8.1-.6-.6-.9-.8-1.2-.9,0,0,.2,0,.3,0-1.8-11.9-4-23.7-5.3-35.7-.6-5.3.6-10.9.9-16.7,8.2-30.9,4.8-59.5-13.2-85.9-1.3-1.9-2.5-3.9-3.7-6.2,0-.3,0-.3,0-.3,4.1,1.8,8.1,3.5,12.5,5.4,14.7,9.4,27.4,20.5,36.5,35.2,11.4,18.4,15.4,38.3,12.3,60.1Z"/>
  <path class="cls-33" d="M666.9,584.1c6.4-21.7,24-34.6,43.7-35.8,24.7-1.5,46.5,14.7,51.3,39.6,3.4,17.7-1.9,33.2-15,45.2-14.8,13.6-32.3,16.3-51.1,9.6-20.7-7.4-34-31-30.2-52.4.3-2,.7-3.9,1.2-6.3M700.7,567.4c-2.8,9.1-1.9,18.1-1.2,27.6,9.5-1.9,17.9-3.6,26.6-5.4-2.3-9.4-5.5-17.7-11.1-24.9-6.3-8.2-10.3-7.5-14.3,2.7M718.8,601.2c-4.5.9-9.1,1.7-13.6,2.9-1.2.3-3,2.2-2.8,2.9,2.8,9.6,5.9,19.1,13.9,25.9,4.2,3.6,7.7,3.1,9.1-2.1,1.9-6.9,3.1-14.2,3.4-21.4.5-9.9,0-9.9-10.1-8.3M677.8,582.5c-1.2,5.5-2.4,11.1-3.8,17.6,6.4-1.4,11.1-2.4,15.4-3.3v-29.1c-.5-.3-.9-.6-1.4-.8-3.3,5-6.6,10-10.2,15.7M695.2,631.4c2.4.9,4.7,1.9,7.2,2.9-3.5-8.9-6.7-17.2-10.1-25.4-.4-.9-2-1.8-3-1.7-4,.6-8,1.5-12.3,2.4,3.2,9.7,9.2,16.5,18.1,21.8M738.6,621.7c-.1,1.6-.3,3.2-.4,4.9,10.4-8.2,14.9-18.5,14.7-31.9-5.2,1-9.8,1.8-14.1,2.6,0,8.2,0,15.9-.2,24.4M730.5,571.1c1.5,4.4,2.9,8.8,4.7,13.1.5,1.2,2.6,2.7,3.8,2.6,3.7-.3,7.4-1.4,11-2.1-1.3-10.5-14.9-23.5-25-24,1.8,3.3,3.5,6.5,5.5,10.4Z"/>
  <path class="cls-19" d="M1023.2,150.7c14.3,13.6,24.4,29.3,29.9,48,6.5,22.2-2.3,39.7-24.1,47.5-17.6,6.2-35.6,5.7-53.7,4-16.9-1.5-33.1-5.8-48.2-13.3-8.3-4.2-16.4-9.6-23.3-15.9-10.8-9.9-12.8-22.9-7.1-36.2,13.5-31.5,37.8-49.3,71.2-56.2,15-3.1,27,2.1,38.8,9.5,5.7,3.6,10.9,8.1,16.6,12.5M994.4,143.1c-7.8-5-16.1-6-25.3-4.1-28,5.6-49.1,20.4-61.7,46.4-4.7,9.6-5.1,19,2.8,27.7,6.1,6.7,13.3,11.4,21.5,15,15,6.6,30.6,11,47,12.4,15.5,1.3,31,1.6,45.9-3.5,9.1-3.1,17.9-7.8,19.6-18.5.9-5.5.5-11.7-1.1-17.1-7.8-25.9-24.1-45.1-48.6-58.2Z"/>
  <path class="cls-10" d="M860.5,151.7c9.4-4.6,18.5-9.1,28.5-14.1,0,6,.3,11.5,0,16.9-.8,10.4-3.3,20.3-9.1,29.1-8.4,12.6-21.4,16.9-35.5,18.3-22.3,2.1-38.5-8.7-51.6-25.5-1.1-1.4-1.8-3.7-1.5-5.4,2.2-11.8,12.3-22,24.1-22.6,6.6-.4,13.4,1.8,20,3.1,8.3,1.7,16.5,4.2,25.2,0Z"/>
  <path class="cls-15" d="M733,190.1c5.6.3,10.8.7,15.9.7,3.4,0,4.7,1.2,4.8,4.7.2,14.1.3,14.1-13.7,13.7-18.8-.6-37.6-1.2-56.8-1.8v-18.3h23.1c.8-9.8,1.6-19.4,2.4-29.5-4.6-.5-9-1.2-13.4-1.4-3.4-.1-4.9-1.3-4.4-4.8.5-3.6.4-7.4,1.3-10.9.3-1.3,2.6-3,3.9-2.9,16.4,1.4,32.8,3.2,49.2,4.8,3.6.3,4.9,1.6,4.2,5.4-.8,4.2-.9,8.5-1.4,13.4-6.1-.5-11.8-1-18.1-1.5-.8,9.3-1.5,18.4-2.4,28.1,1.8.1,3.3.2,5.4.3Z"/>
  <path class="cls-26" d="M1106.7,635.8c9,13.9,20.1,24.4,36.9,27.8,7,1.4,13.7,4,20.5,6.1,7.3,2.2,14.4,2.5,21.2-2.4.8.3,1.5.6,1.7,1.2,4.5,10.6,9,21.3,13,32.2-13.1-8.1-26.6-14.7-41.2-18.8-11.2-3.1-22.5-5.7-34-7.7-5.6-1-9.5-3.1-13.2-7.4-16.4-19-34.8-35.9-57.3-47.5-8.6-4.4-18-7.4-27.1-11.1,11.3-4,23-4.3,34.8-.7,17.4,5.2,30.6,17,44.5,28.3Z"/>
  <path class="cls-24" d="M542.3,139.3c5,.5,9.6,1.2,14.2,1.6,3.4.3,4.8,1.7,4.2,5.2-.6,4.1-1.3,8.2-1.4,12.4-.1,4.2-2.1,5.1-5.8,4.6-3.9-.5-7.9-.8-12.3-1.2-1.6,15.3-3.1,30.1-4.6,45.4-.1.9-.4,1.4-.4,1.8-.5,10.4.2,9.7-11,8.6-4.7-.5-11.3-.1-13.4-2.9-2.2-2.9-.2-9.2.3-13.9,1.4-13.7,2.9-27.4,4.4-41.5-4.3-.5-8.2-1.2-12.2-1.2-4.7,0-6.2-2.1-5.4-6.5.4-2.1.7-4.3.8-6.4.9-11.5.4-9.7,10.8-8.9,10.4.8,20.8,2.1,31.7,3.1Z"/>
  <path class="cls-24" d="M1183.1,574.4c8.3-13,18.6-23.6,31.5-31.9,7-4.3,13.9-8.3,22.1-13.1-2.2,6.4-4.2,11.3-5.5,16.3-3.2,11.9-5.2,24.1-9.3,35.6-5.5,15.5-14.3,28.8-30.3,35.9-8.6,3.8-15.3,9.8-18.7,19.4-2.3-7,.1-14,1.6-21,2.9-13.5,5.7-27.1,8.5-41.1Z"/>
  <path class="cls-9" d="M558.4,215.3c0-3.3-1-7,.4-9,1.1-1.5,5.2-.9,7.9-1.3,7.6-1.1,10.6-6,8-13.2-1.8-5.2-4.3-10.1-5.8-15.4-3.4-11.7,1.3-21.2,12.5-25.9,7.7-3.3,15.8-3.5,24-2.3,3.2.5,5,2,5,5.6,0,3.7.4,7.3.7,11,.2,2.6-.9,3.7-3.5,3.4-1.3-.1-2.7-.1-4,0-6.8.5-9.7,4.2-7.8,10.7,1,3.5,2.6,6.8,4,10.2,7.2,17.5,2.4,28.4-15.6,35-5.4.7-10.6,1.9-15.6,1.5-11.2-.8-9.3-.4-10.3-10.2Z"/>
  <path class="cls-10" d="M906.7,361.1c9.3,1.7,18,1.1,26.5-1.7,7.4-2.5,7.8-2.4,6.8,5.3-1.5,11.1-5.6,21.1-13.5,29.4-6.8,7-15.8,8.9-24.7,10.9-8.7,2-17.5,3.6-26.6,5.4-3.3-10.5-4.3-21.5-.5-32.3,4.3-12.3,15.1-15.4,26.6-16.9,1.6-.2,3.3,0,5.5,0Z"/>
  <path class="cls-10" d="M1079.2,234c11.8-3.6,23.3-5.4,34.9-1.1,3.2,1.2,6.3,3,9.1,5,6.5,4.4,7.6,10.9,6.7,18.1-.3,2.5-.6,5-1.3,7.3-.9,3.1-1.4,7.7-3.5,8.7-4.8,2.2-10.6,3.9-15.6,3.2-4.6-.6-10-3.7-12.8-7.4-7.6-10.1-18-16.1-28.4-22.2-2-1.2-3.9-2.4-7.3-4.4,6.7-2.6,12.2-4.8,18.2-7.2Z"/>
  <path class="cls-20" d="M1039.4,322.4c-1-.3-1.7-.4-2.3-.6-9.3-2.9-9.6-1.7-7.1-11.7,1.1-4.6-.6-5.8-5-5.8-12.3-.1-24.6-.7-36.9-.8-4,0-5.5-1.1-5.4-5.4.4-14.3.2-14.3,14.6-14.1,16,.2,31.9.5,47.9.8,10.5.2,14.6,4.8,11.8,14.9-1.9,6.9-5.5,13.4-8.6,19.9-1.8,3.8-4.9,4.7-9.1,2.9Z"/>
  <path class="cls-28" d="M843.1,233.8c7.3,2.6,7.3,2.6,5.6,9.7-4.7,19.2-12.3,36.9-27.3,50.5-4.2,3.8-9.1,6.7-13.6,10-2.5,1.8-4.9,1.6-7.2-.5-3.3-3-6.7-5.9-11.6-10.2,1.9-1,3.4-1.5,4.6-2.4,12.8-8.9,20.4-21.7,26.1-35.7,2.8-6.9,5-14.1,7.2-21.2,1.2-4,3.1-5.1,6.9-3.4,2.9,1.3,5.9,2.1,9.3,3.2Z"/>
  <path class="cls-15" d="M455.5,46.5c1.4,4.8,2.6,9.3,3.8,13.7,3.8-.9,7.3-2,10.9-2.5,8.2-1,14.9,2.4,18.5,9,3.9,7.2,3.5,16-2.3,21.8-3.4,3.3-8,6.1-12.5,7.4-6.1,1.8-12.7,1.9-19.8,2.9-4.6-16.9-9.4-34.2-14.3-52.1,4.4-1.3,8.3-2.6,12.3-3.4,1-.2,2.3,1.8,3.6,3.1M475.4,78.9c-.1-1.5,0-3.1-.4-4.4-1.5-3.8-4.3-5-8.4-4-4.3,1.1-3.7,3.7-2.6,6.8.9,2.5,1.5,5,2.2,7.5,4.4,0,7.5-1.3,9.2-6Z"/>
  <path class="cls-15" d="M1347.9,555.1c6.8,8,7.9,16.5,3.3,24.1-4.6,7.6-13.2,10.1-26.4,7.1-.6,4.4-1.3,8.8-1.7,13.2-.3,2.8-1.3,3.8-4.2,3.3-3.6-.7-7.2-1.1-11.6-1.8,2.2-17.5,4.4-34.7,6.5-51.9,7.5,0,14.5-.7,21.3.2,4.3.6,8.4,3.6,12.8,5.7M1333.8,575.4c1.1-.8,2.9-1.4,3.1-2.3.5-2.8,1.3-6.3,0-8.3-1.3-2-4.9-2.5-7.5-3.7-.8,2.2-1.6,4.3-2.4,6.5-.2.5,0,1-.1,1.5-.7,6.1-.5,6.4,6.9,6.3Z"/>
  <path class="cls-15" d="M1361,574c1.8-3.9,3.5-7.5,5.2-11.1,7.4,2.4,14.6,4.2,21.4,7.1,8.6,3.7,12.8,12.3,11.5,21.2-1.1,7.6-6.9,14.1-14.3,15.5-6.9,1.3-13.1-1.2-19.3-5.1-1.9,4.2-3.9,8.2-5.5,12.2-1.1,2.6-2.5,3.1-5,1.8-3.2-1.7-6.6-3.1-10.5-5,5.5-12.3,11-24.3,16.5-36.7M1372.3,592.2c3,2.2,6.5,3.1,9,.2,1.6-1.8,2.6-5.1,2.3-7.6-.5-3.8-3.8-5.5-8.6-5.8-1.1,4.2-2.2,8.4-2.7,13.1Z"/>
  <path class="cls-16" d="M1277.9,233.1c3.3.3,4.3-.9,4.3-3.7,0-3.3,0-6.6.6-9.9.7-4.7,3.8-6.8,8.5-6.5,4.7.2,6.8,3.4,7.5,7.4.7,4-.8,9.4,1.4,11.9,1.8,2.1,7.5.6,11.4,1.3,5.6.9,7.8,3.8,7.6,8.7-.3,4.7-3.2,7.4-8.7,7.8-3.6.3-8.5-.9-10.5,1-1.9,1.9-.8,6.8-1.1,10.4-.4,5.4-3.1,8.4-7.7,8.7-5,.3-7.8-2-8.8-7.5-.5-2.9-.4-6-.3-9,.1-2.9-1.1-3.9-3.8-3.7-2.5.1-5,.1-7.5,0-5.3-.3-8.6-3.1-8.9-7.6-.3-4.9,2.4-8.2,8-9,2.4-.4,5-.1,7.9-.2Z"/>
  <path class="cls-28" d="M918,301c8.9-7.7,17.7-15.2,26.2-22.9,2.6-2.4,4.4-3,6.9,0,3,3.7,8.7,7.1,8.9,10.8.2,3.6-4.9,7.8-8,11.3-10.8,12.4-23.3,22.8-37.3,31.3-1.2.7-3.9.5-4.9-.4-3.7-3.3-6.9-7.2-10.5-10.7-2.3-2.3-1.7-3.8.7-5.6,6-4.5,11.9-9.1,18.1-13.9Z"/>
  <path class="cls-15" d="M764.9,119.8c-3.8-3-7.4-3.6-12-2.9-8.5,1.2-15.4-2.5-19.6-10-4-7-2.7-13.8,2-20.1,4.2-5.5,10-7.7,16.7-6.6,6.3,1,12.6,2.6,18.9,3.8,3,.5,3.9,1.9,3.2,4.8-1,3.7-2.2,7.4-2.5,11.2-.3,3.7.6,7.4,1.8,11.3-2.4,2.5-1.4,9.3-8.4,8.5M746,97c-.4,7.4,3.1,10.2,10.5,7.4-3.2-3.5,3.9-9.1-2.7-12-3.5-1.5-5.9.8-7.8,4.6Z"/>
  <path class="cls-26" d="M1281.5,575.2c-2-.9-3.7-1.9-5.5-2.1-9.7-1.1-17.8-9.4-18.1-18.9-.3-9,6.8-17.5,16.1-18.7,2.5-.3,5.6-.2,7.8.9,7.5,3.7,14.8,7.9,22.3,11.9-2.7,8.7-12,14.9-8.3,25.2-8.3,8.4-8.9,8.5-14.3,1.6M1284.4,552.5c-1-3.5-3.4-4.9-6.7-4-3.8,1.1-5.9,4-5.3,7.9.7,4.2,3.8,5.9,8.1,5.5,1.3-3,2.5-5.8,4-9.4Z"/>
  <path class="cls-33" d="M831.8,339.8c-10.4,10.6-21.3,17.6-36.9,12.5-5.9-1.9-12.7-1.2-19.2-1.6-.6-10.7,10.7-21.4,23.5-21.8,7.9-.2,16,0,23.8-1.2,5.5-.9,10.7-4.1,16.5-6.5-.3,7.1-3.2,13-7.8,18.6Z"/>
  <path class="cls-26" d="M548,76c.6-3.9,1.2-7.3,1.9-11.5,7.4.8,14.8.8,21.7,2.6,10,2.5,14.5,9.7,14.6,20,0,4.5,1.1,8.9,1.9,15.1-1.9.8-5.2,3.4-8.8,3.6-4,.2-8.6-6.5-9.1-11.9-.3-2.8.1-5.7-.1-8.5-.3-4.3-1.6-5.6-6.8-7.2-1.2,7.8-2.4,15.6-3.7,23.9-5-.7-9.7-1.4-15-2.2,1.1-8,2.2-15.7,3.3-23.8Z"/>
  <path class="cls-10" d="M416.4,158.8c-5.7-18.8-11.4-37.8-16.2-56.9-1.5-6.3-.1-13.2-.3-19.9-.2-7.9-.6-15.8-.9-23.7,0-1.3.1-2.6.6-4.2,4.7,15.3,9.3,30.7,13.2,46.3,3.3,13.1,8.2,24.9,21,32.9-5.8,8.7-11.5,17-17.4,25.5Z"/>
  <path class="cls-15" d="M514.8,89c3.2,1.5,4.9.9,6.2-2.1,2.2-4.9,4.8-9.5,7-14.3,1.2-2.6,2.5-3.6,5.3-1.9,3.1,1.9,6.4,3.3,10.2,5.2-5.2,10.3-10.1,20.2-15.3,30-.4.7-2.6.9-3.7.5-5.8-2-11.4-4.4-17.1-6.5-9-3.4-12.9-10.7-10-19.9,1.8-5.7,4.3-11.2,6.5-16.7.9-2.3,2.2-3.2,5-2.4,10.4,3.1,10.4,3,6.7,13.2-1,2.8-2.4,5.6-2.8,8.5-.3,2,.9,4.2,1.8,6.4Z"/>
  <path class="cls-20" d="M992.5,344.4c2.9-8.7,5.8-17,8.1-25.4,1-3.5,2.5-4.6,5.9-4.1,4.7.8,9.5,1.4,14.3,2.2,2.8.5,4.4,1.9,3.9,5.1-1.8,12.7-7.1,23.7-15,33.7-3.2,4-6.7,5.1-11.2,2.1-.5-.4-1.2-.6-1.8-.9-9.9-4.7-8.6-3.4-4.3-12.7Z"/>
  <path class="cls-37" d="M723.6,95.7c.4,2.2.9,3.9,1,5.8.3,4.7-1.9,7.6-6.6,8.4-1.1.2-2.3.3-3.5.3q-8.1.5-9.2-8.2c1.5-.6,3.2-1.1,4.8-1.7.1-.4.3-.9.4-1.3-1.5-.6-3.3-2.1-4.6-1.7-1.8.5-3.9,2.1-4.7,3.7-2.2,4.7,1,10.4,6.5,12.1,2,.6,4.1,1,6.2,1.4-2.5,10.1-5.2,11.5-14.5,7.6-7.6-3.2-12-8.8-12.3-17.1-.3-7.7,2.9-13.8,9.9-17,7.5-3.5,15.3-3.4,22.2,1.6,1.9,1.3,2.9,3.9,4.5,6.3Z"/>
  <path class="cls-26" d="M857.7,108.5c.3,4,.4,8.2-3.5,9.3-4.3,1.2-9.2,1.4-13.7,1-1,0-1.7-4.6-2.6-7.4,2-.8,3.6-1.4,6.9-2.7-2.7-1.3-4.5-2.9-5.6-2.5-1.9.7-4.2,2.3-4.9,4.1-2,4.6,1.2,9.9,6.4,11.7,2,.7,4.1,1,6.1,1.5-1.5,9.1-3.9,10.8-11.8,8.5-8.2-2.4-13.4-7.8-14.8-16.3-1.2-7,2.5-14.9,8.7-18.2,7.6-4,15.6-4.3,22.6.7,2.9,2,4.1,6.5,6.1,10.2Z"/>
  <path class="cls-37" d="M636.5,98.6c4.2-.9,7.9-1.9,11.9-2.9,5.2,6.7,4.6,9.6-3.3,13-15,6.6-31.1-3-30-18.1.5-7.5,4-13.4,11.1-16.4,7.6-3.2,15.3-2.9,22.4,1.6.9.6,1.5,2.9,1.1,4.1-.8,2.5-2.4,4.7-3.1,6.1-4.6-.3-8.3-.9-12.1-.7-1.1,0-2.6,2.1-3.2,3.5-1.7,4.2,0,7.5,5.2,9.9Z"/>
  <path class="cls-26" d="M810.4,104.6c-1.7,1.1-3.3,1.7-6.2,2.9,2,3.4,4.6,6.4,5.6,9.9.8,2.9,0,6.5-.8,9.5-.3,1.1-3,2.2-4.5,2.1-6.2-.4-10.7-4.8-12.6-11.8-.8-3-1.4-6.1-2.1-9.5h-5.3c-2.8-9.8-2.1-12.5,3.3-13.8,1.1-10.2,1.1-10.4,12.3-10.3,6.9,0,2,6.1,4.9,9.2.9.1,2.6.3,4.8.6.2,3.6.4,7.2.5,11.2Z"/>
  <path class="cls-14" d="M1334,280c-1.6,1.1-3.3,2-3.8,3.4-1.9,4.8-5,7.3-8.6,6.4-4.2-1-6.3-4.8-5-9.8.9-3.3,0-4.8-3.2-5.8-5.1-1.6-7.2-4.8-6.2-8.6,1.1-4.2,4.4-5.8,9.9-4.7,2.8.5,4.6.3,5.6-3,1.7-5.6,4.9-7.7,8.8-6.5,4.1,1.2,5.6,4.4,4.6,10-.4,2.4-.5,4.3,2.7,5.3,5.8,1.9,8.1,5.3,6.8,9.2-1.4,4.3-4.8,5.6-11.5,4.2Z"/>
  <path class="cls-15" d="M807.5,244.5c-2.2,4.7-4.2,9.1-6.1,13.5-1.3,3.1-3.4,3.8-6.4,2.5-.2,0-.3-.1-.5-.2-16-6.6-14.4-2.3-9.9-19.1,1.5-5.6,3.3-11.2,4.6-16.8.9-3.8,2.8-4.4,6.1-3.2,4.4,1.5,8.8,3.1,13.2,4.3,3.4.9,4.2,3,3.3,5.9-1.3,4.3-2.8,8.5-4.4,13.1Z"/>
  <path class="cls-26" d="M666.6,106.2c-2.7,0-5,0-7.5,0,0-5.9-.1-11.1,0-16.4.1-5.3.4-10.7.9-16,.1-1.3,1.4-3.6,2.1-3.6,7,0,13.9.3,20.9.6,3,.1,3.6,1.8,2.6,4.4-.5,1.2-1,2.5-1.2,3.8-.6,3.8-2.5,5.1-6.3,3.8-.7-.3-1.6,0-3.1,0-.3,5.6-.7,11.2-1,16.8-.3,7.1-.2,7.1-7.5,6.7Z"/>
  <path class="cls-40" d="M882.8,296.2c-3.1-2.5-6-4.7-9.7-7.5,6-4.4,10.1-7.7,14.5-10.6,1-.7,3.1-.9,4.1-.3,5.1,3.1,10.1,6.4,14.9,9.9,2.7,2,2.6,4.3-.4,6.4-3.5,2.5-7,5.1-10.2,8-2.9,2.6-5.1,2.4-7.5-.4-1.6-1.9-3.6-3.5-5.7-5.4Z"/>
  <path class="cls-8" d="M893,268c.6-2.3,1.1-4.7,2.4-6.5,7.5-10.4,8-10.4,19.9-6,11.1,4.1,11.1,4.3,4.3,13.9q-6.5,9.2-16.8,4c-3.2-1.7-6.4-3.5-9.9-5.5Z"/>
  <path class="cls-33" d="M1093.1,323.5c3.7-6.6,8.1-12.1,14.9-15.9,4.7,7.6,6.4,15.6,4.4,24-1.6,6.7-6.3,9.3-12.7,8.1-6.8-1.2-8.4-3.5-7.8-11.5,0-1.5.7-2.9,1.2-4.7Z"/>
  <path class="cls-23" d="M1175.3,183.3c-10.4,9.9-24.9,6.7-31.9-6.9,6.2-3.2,12.8-2.4,19.3-2.2,3.1,0,6.3.1,9.3.9,2,.5,4.1,1.9,5.4,3.6.5.6-1.2,2.9-2.2,4.7Z"/>
  <path class="cls-34" d="M1383.9,257.2c-2,2.7-4.1,5.1-6.7,8,.5,1,1.7,2.7,2.1,4.5.3,1.5-.4,3.2-.7,4.8-1.4-.6-3.1-.8-4.1-1.7-1.4-1.3-2.2-3.2-3.6-5.2-2,1.1-3.8,2.5-5.8,3-1.3.3-3-.6-4.5-.9.5-1.4.6-3.6,1.6-4.1,4.8-2.3,6.1-5,2.6-9.6-.6-.8.4-2.9.7-4.4,1.5.6,3.9.7,4.4,1.7,2.2,4.3,4.5,5.7,8.8,2.5,1-.7,3.3.5,5.1,1.2Z"/>
  <path class="cls-39" d="M204.3,321.9c-.6-.8-1.2-1.8-1.2-2.8-.4-19.4-.7-38.8-1-58.6.7,4.8,1.3,10,1.9,15.2,1.2,11,2.4,22,3.8,33,.6,4.9.2,9.2-3.5,13.2Z"/>
  <path class="cls-36" d="M1622.6,228.3c.3,13,.3,26.3.4,40.1-1.8.8-3.6,1.1-6.5,1.7,2.1-14.5,4-28,6.1-41.8Z"/>
  <path class="cls-13" d="M1402.7,267.3c-3.3,2.4-5.2,2.2-5.6-1.9-.1-1.3-.6-2.5-.9-3.7-.2-.6-.8-1.7-.7-1.7,3-1.6,6-3.2,9.1-4.4.3-.1,1.7,2.1,2.4,3.3.4.7,0,1.7.3,2.4,1.9,5.5,1.9,5.5-4.6,6Z"/>
  <path class="cls-10" d="M1152.7,499.1c.1.4,0,1-.4,1.8-.1-.4,0-1,.4-1.8Z"/>
  <path class="cls-31" d="M1798.8,456.8c-.2,0-.6-.1-.9-.6.3,0,.5.1.9.6Z"/>
  <path class="cls-11" d="M1770,653c-.1.3-.3.4-.4.6,0-.2,0-.4,0-.7.2,0,.3,0,.4.1Z"/>
  <path class="cls-22" d="M1398.6,444.4c1.4,9.8,2.7,19.2,3.8,28.6.2,1.6-.4,4.3-1.5,4.9-12.9,6.8-30.3,8.3-41.5-4.8-14.7-17.2-5.8-47.9,15.9-51.6,7-1.2,13.5,0,18.8,4.5,2.2,1.8,3,5.6,3.8,8.6.7,3,.5,6.3.8,9.9Z"/>
  <path class="cls-5" d="M1650.8,472.3c-.5-.2-.8-.5-1.1-.9.4,0,.8,0,1.3.3.2.2,0,.5-.2.6Z"/>
  <path class="cls-25" d="M1070,430c-.2-.2-.4-.4-.5-.7.3,0,.5.2.7.5-.2.2-.1.2-.1.2Z"/>
  <path class="cls-5" d="M1483.4,275.6c-8.1-1.3-15.8-2.4-24.6-3.7,19.5-24.5,38.4-48.4,58.3-73.4,11.6,29.4,22.8,57.5,34.5,87-23.3-3.4-45.5-6.6-68.1-9.9Z"/>
  <path class="cls-2" d="M1474,291c11.5,1.5,23,2.8,34.5,4.4,7.9,1.1,15.7,2.4,24.8,3.9-11,4.3-20.9,8.2-30.8,11.9-1.2.5-3.3,0-4.4-.7-8-6.2-15.9-12.6-24-19.2-.1-.3-.2-.3-.2-.3Z"/>
  <path class="cls-2" d="M1457,248c1.3-10.7,2.6-21.3,4.1-32,.1-.9,1.1-2.1,2-2.5,9.6-3.9,19.3-7.7,29-11.5.3.3.6.7.9,1-11.8,14.9-23.7,29.8-35.8,44.8-.3.2-.3.2-.3.2Z"/>
  <path class="cls-2" d="M1543.4,221.6c-1.6-4.2-3-8-4.5-11.8.3-.2.6-.4.9-.6,5.7,4.4,11.1,9.4,17.2,13.2,7.4,4.7,10.1,10.3,7.2,18.8-1.2,3.5-1.2,7.5-1.8,11.3-.5,3.6-1,7.1-2.4,11-5.5-13.8-11-27.6-16.6-41.7Z"/>
  <path class="cls-2" d="M1457,248c0,0-.1,0,0,0,.1,0,0,0,0,0Z"/>
  <path class="cls-2" d="M1474,291c0,0-.2-.1-.3-.2,0,0,.2,0,.3,0,0,.1,0,.1,0,.1Z"/>
  <path class="cls-35" d="M1162.4,558.1c.8,2,1.2,4,1.7,6.4-10.3,11-19.4,22.6-25.6,36.6-8.3-20.8-2.4-41,23.9-43.1Z"/>
  <path class="cls-5" d="M1091.1,575.1c.2-.1.5,0,.9.5-.2.1-.5,0-.9-.5Z"/>
  <path class="cls-25" d="M1121.4,600.7c.3.3.3.7.4,1.1-.2,0-.5,0-.8-.4,0-.3.2-.6.4-.8Z"/>
  <path class="cls-25" d="M1122.5,603.5c0,0,0-.2,0-.2,0,0,.2.1,0,.2Z"/>
  <path class="cls-6" d="M700.8,567c3.9-9.9,7.9-10.5,14.2-2.3,5.5,7.2,8.8,15.5,11.1,24.9-8.6,1.8-17,3.5-26.6,5.4-.7-9.5-1.6-18.5,1.3-28Z"/>
  <path class="cls-6" d="M719.2,601.1c9.7-1.6,10.2-1.5,9.6,8.3-.4,7.2-1.5,14.5-3.4,21.4-1.5,5.2-5,5.6-9.1,2.1-8-6.8-11.1-16.4-13.9-25.9-.2-.7,1.7-2.6,2.8-2.9,4.5-1.2,9.1-2,14-3Z"/>
  <path class="cls-38" d="M678,582.1c3.5-5.3,6.8-10.3,10.1-15.3.5.3.9.6,1.4.8v29.1c-4.3.9-9,1.9-15.4,3.3,1.4-6.5,2.6-12.1,4-18Z"/>
  <path class="cls-2" d="M694.9,631.2c-8.6-5.1-14.6-11.9-17.8-21.6,4.3-.9,8.2-1.8,12.3-2.4.9-.1,2.6.8,3,1.7,3.4,8.2,6.6,16.5,10.1,25.4-2.5-1-4.8-1.9-7.5-3.1Z"/>
  <path class="cls-38" d="M738.7,621.3c.1-8.1.1-15.8.1-24,4.3-.8,8.9-1.6,14.1-2.6.2,13.4-4.4,23.8-14.7,31.9.1-1.6.3-3.2.5-5.3Z"/>
  <path class="cls-2" d="M730.3,570.8c-1.9-3.5-3.6-6.7-5.3-10.1,10.1.6,23.7,13.5,25,24-3.6.7-7.3,1.8-11,2.1-1.2.1-3.2-1.4-3.8-2.6-1.8-4.2-3.2-8.7-4.9-13.4Z"/>
  <path class="cls-30" d="M994.7,143.3c24.2,12.9,40.5,32.1,48.3,58,1.6,5.4,2,11.6,1.1,17.1-1.7,10.7-10.5,15.4-19.6,18.5-14.9,5.1-30.4,4.8-45.9,3.5-16.4-1.4-32-5.8-47-12.4-8.1-3.5-15.4-8.2-21.5-15-7.9-8.7-7.5-18.1-2.8-27.7,12.6-25.9,33.6-40.7,61.7-46.4,9.1-1.8,17.4-.9,25.6,4.3M957.4,212.1c-5.9,1.8-8.9-.2-10.6-5.8-.6-2-3.1-4.6-5-4.9-3.3-.5-4.7,2.3-4.9,5.6-.4,7.8,6.4,15.2,14.7,16.1,9.8,1,16.9-3.9,17.4-12.1.2-3.1-.5-5.9-3.9-6.6-3.4-.7-5.2,1.5-6.1,4.5-.3.9-.7,1.8-1.6,3.3M927.8,197.8c3.4,1.7,6.9,1.1,9-1.7,1.4-2,2.4-5.7,1.5-7.6-1.2-2.3-4.4-4.7-7-5-2-.2-5.1,2.2-6.4,4.2-2.2,3.5-.9,7,3,10M980.5,205.2c3.7-1.9,5.3-4.9,4.1-9-1.1-3.8-5.3-6-9-5.2-3.6.8-6.1,4.9-5.5,8.8.6,4.2,4.3,6.4,10.5,5.4M976.4,146.1c.3-1,.6-2,.9-3-1.5-.3-3.4-1.5-4.5-.9-5.3,2.8-10.6,5.8-15.6,9.1-.9.6-.9,2.6-1.4,4,1.6-.2,3.4,0,4.8-.6,5.1-2.5,10.1-5.4,15.7-8.6M985.6,144c.6,1.2.9,2.7,1.9,3.5,3.5,2.9,7.2,5.6,10.9,8.1.9.6,2.3.6,3.5.8.1-1.3.9-3.2.3-3.8-2.8-2.9-5.8-5.8-9.2-8-1.8-1.2-4.6-.8-7.4-.6M986.2,158c-.7-3.7-1.3-7.5-2.2-11.1-.2-1-1.7-1.7-2.5-2.5-.8,1.1-2.4,2.3-2.3,3.2.7,5,1.8,10,2.9,15,.2.8,1.4,1.9,1.9,1.8,1-.2,2.2-1,2.5-1.9.4-1.1,0-2.5-.3-4.6Z"/>
  <path class="cls-4" d="M475.3,79.3c-1.6,4.4-4.7,5.7-9.1,5.6-.7-2.5-1.3-5.1-2.2-7.5-1.1-3.1-1.8-5.7,2.6-6.8,4.1-1,6.9.2,8.4,4,.5,1.3.3,2.9.3,4.7Z"/>
  <path class="cls-4" d="M1333.4,575.6c-7,0-7.3-.3-6.5-6.4,0-.5,0-1,.1-1.5.8-2.2,1.6-4.3,2.4-6.5,2.6,1.2,6.2,1.7,7.5,3.7,1.3,2,.4,5.5,0,8.3-.1.9-2,1.5-3.4,2.4Z"/>
  <path class="cls-4" d="M1372,591.9c.8-4.5,1.9-8.7,3-12.9,4.9.2,8.1,2,8.6,5.8.3,2.4-.7,5.7-2.3,7.6-2.6,2.8-6,1.9-9.3-.5Z"/>
  <path class="cls-4" d="M746.2,96.6c1.8-3.4,4.2-5.8,7.7-4.2,6.7,2.9-.5,8.4,2.7,12-7.4,2.9-11,0-10.4-7.7Z"/>
  <path class="cls-3" d="M1284.3,552.9c-1.3,3.2-2.6,6.1-3.8,9.1-4.3.4-7.4-1.3-8.1-5.5-.6-3.9,1.6-6.8,5.3-7.9,3.3-1,5.8.5,6.6,4.3Z"/>
  <path class="cls-12" d="M957.7,211.8c.6-1.2,1-2.1,1.3-3,1-3,2.7-5.2,6.1-4.5,3.4.7,4.1,3.5,3.9,6.6-.5,8.2-7.6,13.1-17.4,12.1-8.4-.9-15.1-8.3-14.7-16.1.2-3.3,1.6-6.1,4.9-5.6,1.9.3,4.4,2.9,5,4.9,1.7,5.7,4.7,7.7,10.9,5.6Z"/>
  <path class="cls-17" d="M927.5,197.6c-3.6-2.8-4.8-6.4-2.7-9.8,1.3-2.1,4.4-4.5,6.4-4.2,2.6.3,5.8,2.6,7,5,.9,1.9,0,5.6-1.5,7.6-2.1,2.8-5.5,3.4-9.3,1.5Z"/>
  <path class="cls-12" d="M980.1,205.4c-5.8.8-9.5-1.4-10.1-5.6-.6-3.9,2-7.9,5.5-8.8,3.8-.9,7.9,1.4,9,5.2,1.2,4.1-.4,7.1-4.4,9.2Z"/>
  <path class="cls-17" d="M976.1,146.3c-5.3,3-10.3,5.8-15.4,8.3-1.4.7-3.2.5-4.8.6.4-1.4.4-3.4,1.4-4,5.1-3.3,10.3-6.3,15.6-9.1,1.1-.5,3,.6,4.5.9-.3,1-.6,2-1.2,3.2Z"/>
  <path class="cls-1" d="M985.8,143.7c2.6,0,5.4-.3,7.2.9,3.4,2.2,6.3,5.1,9.2,8,.6.6-.2,2.5-.3,3.8-1.2-.2-2.6-.2-3.5-.8-3.7-2.6-7.4-5.3-10.9-8.1-.9-.8-1.3-2.3-1.7-3.8Z"/>
  <path class="cls-1" d="M986.3,158.4c.2,1.7.6,3.1.2,4.2-.3.9-1.6,1.7-2.5,1.9-.5,0-1.7-1.1-1.9-1.8-1.1-5-2.2-10-2.9-15-.1-.9,1.5-2.1,2.3-3.2.9.8,2.3,1.5,2.5,2.5.9,3.7,1.5,7.4,2.3,11.5Z"/>
</svg>