<?xml version="1.0" encoding="UTF-8"?>
<svg id="Layer_1" data-name="Layer 1" xmlns="http://www.w3.org/2000/svg" version="1.1" viewBox="0 0 1920 743">
  <defs>
    <style>
      .cls-1 {
        fill: #f78cd1;
      }

      .cls-1, .cls-2, .cls-3, .cls-4, .cls-5, .cls-6, .cls-7, .cls-8, .cls-9, .cls-10, .cls-11, .cls-12, .cls-13, .cls-14, .cls-15, .cls-16, .cls-17, .cls-18, .cls-19, .cls-20, .cls-21, .cls-22, .cls-23, .cls-24, .cls-25, .cls-26, .cls-27, .cls-28, .cls-29, .cls-30, .cls-31, .cls-32, .cls-33, .cls-34, .cls-35, .cls-36, .cls-37, .cls-38, .cls-39, .cls-40, .cls-41, .cls-42, .cls-43, .cls-44 {
        stroke-width: 0px;
      }

      .cls-2 {
        fill: #f7eff2;
      }

      .cls-3 {
        fill: #fff4f9;
      }

      .cls-4 {
        fill: #fff6fa;
      }

      .cls-5 {
        fill: #fff5f9;
      }

      .cls-6 {
        fill: #8ad6ff;
      }

      .cls-7 {
        fill: #3c2932;
      }

      .cls-8 {
        fill: #3a2730;
      }

      .cls-9 {
        fill: #f687d7;
      }

      .cls-10 {
        fill: #ffda84;
      }

      .cls-11 {
        fill: #f688d5;
      }

      .cls-12 {
        fill: #90d8ff;
      }

      .cls-13 {
        fill: #8cd7ff;
      }

      .cls-14 {
        fill: #3c2831;
      }

      .cls-15 {
        fill: #8dd7ff;
      }

      .cls-16 {
        fill: #f7eef2;
      }

      .cls-17 {
        fill: #f68ad3;
      }

      .cls-18 {
        fill: #b86aff;
      }

      .cls-19 {
        fill: #f688d7;
      }

      .cls-20 {
        fill: #3b2831;
      }

      .cls-21 {
        fill: #f5edf0;
      }

      .cls-22 {
        fill: #fff7fa;
      }

      .cls-23 {
        fill: #3e2a33;
      }

      .cls-24 {
        fill: #8bd6ff;
      }

      .cls-25 {
        fill: #fef6fa;
      }

      .cls-26 {
        fill: #f689d8;
      }

      .cls-27 {
        fill: #3b2730;
      }

      .cls-28 {
        fill: #3b272f;
      }

      .cls-29 {
        fill: #3d2932;
      }

      .cls-30 {
        fill: #f686d7;
      }

      .cls-31 {
        fill: #3b2830;
      }

      .cls-32 {
        fill: #fed983;
      }

      .cls-33 {
        fill: #ffd984;
      }

      .cls-34 {
        fill: #b869ff;
      }

      .cls-35 {
        fill: #f8f0f3;
      }

      .cls-36 {
        fill: #ffda83;
      }

      .cls-37 {
        fill: #f688d8;
      }

      .cls-38 {
        fill: #8fd7ff;
      }

      .cls-39 {
        fill: #8dd6fc;
      }

      .cls-40 {
        fill: #f6eef1;
      }

      .cls-41 {
        fill: #fff3f9;
      }

      .cls-42 {
        fill: #3d2a32;
      }

      .cls-43 {
        fill: #3d2a33;
      }

      .cls-44 {
        fill: #8ad5fd;
      }
    </style>
  </defs>
  <path class="cls-22" d="M450,1c2,0,4.1,0,6.3.4.8.8,1.4,1.5,2.1,1.6,10.2.7,18.4,5.2,25.7,12.4,2.7,2.7,6.7,4.4,10.4,5.5,2.3.7,5.1-.5,7.7-.8,9.7-1,18.7,1.6,27.5,5.1,2.1.8,4.7,2.3,6.4,1.6,8.6-3.3,17.2-2.2,26-2,15,.2,28.3,4.6,40.6,12.7,2.5,1.6,3.9,1.4,6.1.4,7.9-3.7,16-6.1,24.8-5.8,4.8.2,9.8.7,14.5-.1,12-2.1,23.8-3.4,36-1.9,12.3,1.5,23.3,5.2,32,14.5,2,2.2,4.2,2.6,7.1,1.1,13.6-6.9,27.8-7,42.4-3.8,8,1.8,16.1,3.6,24.3,2.1,15.1-2.6,28.8-.6,40.6,9.9.6.6,1.9.6,2.8.5,11.3-1.3,22.2.5,32.4,5,14.9,6.6,25.3,17.8,30,33.7.8,2.9,2,4.5,5.5,5.2,3.8.7,7.1,3.5,10.9,4.9,1.8.7,4.2,1,5.9.3,5.8-2.2,11.4-5.2,17.2-7.5,11.3-4.4,23.1-6.9,35.2-8.2,8.6-.9,16.9-1.5,25.2,1,31,9.4,55.2,28.4,74.7,53.8.8,1.1,2.3,2,3.6,2.3,9,1.8,18.1,3.6,27.2,4.9,5.6.8,10.9,1.3,15.6-4.4,3.3-4,9.2-6.7,14.4-8.3,15.5-4.7,31.4-4.3,47.4-2.3,17.5,2.1,29.3,11.9,36.3,27.1,2.9,6.2,6.7,7.3,12.2,8.1,9.6,1.4,19.1,3.5,28.8,4.7,7,.9,13.7,2.3,21.2-.4,13.2-4.7,26.5-2.7,38.6,4.7,3.4,2.1,6.3,5.7,10,6.6,8.5,2.1,17.2,2.8,25.9,4.3,9.4,1.5,18.8,3.3,28.3,4.8,8.9,1.5,17.9,2.8,26.8,4.1,5.9-20.3,16.6-30.7,34.7-37.6,19.6-7.5,39-15.6,58.5-23.2,14.8-5.8,29.6-6.2,43.3,2.5,9.8,6.2,18.9,13.7,28.1,20.9,10.5,8.2,20.5,17.2,31.3,25,16.7,12,24,32.3,19.1,53-2.2,9.5-2.8,19.4-4.1,29,8.8.5,17.3,1,25.9,1.5,18.8,1.2,36.2,7.5,53.1,15.1,24.9,11.3,46.6,27.7,66,46.8,9.1,9,17.3,18.9,25.7,28.6,13.8,15.8,24.9,33.5,34.7,51.9,12.9,24.3,23.9,49.4,29.8,76.5,2.8,12.9,3.1,25.5-4.8,37-.6.8-.7,2.2-.6,3.3.3,9.2,1.2,18.5.8,27.7-.4,10.6-1.6,21.2-2.9,31.7-2.2,17.7-7.9,34.4-15.6,50.5-6.9,14.6-15.8,27.8-27.2,39.5-10.9,11.2-22.8,17.6-39,15.5-26.8-3.5-41.7-31.8-31.9-55.7,4.8-11.6,7.2-23.2,4-35.9-4.3-17.2-13.6-31.3-25.4-43.9-7.5-8-16.2-15.1-24.3-22.5-5.3-4.8-10.9-6.8-18.2-4.1-8.8,3.2-18,1.9-26.2-2.2-17.1-8.4-35.4-11.5-54.1-11.7-10.6-.1-21.3,1-31.7,3-11.5,2.2-23.2,5.1-32.5,12.7-12.6,10.3-26,19-41.1,25.1-14.6,5.9-29.5,9.8-45.2,8.6,2.8,9.7,4.4,19.6,2.6,30.1-4.2,24.1-21.2,42.9-44.8,48.3-3.6.8-8,.2-10.7,2.2-15.1,11.1-30.8,11.6-47.1,3.6-10.1-5-19.9-9.6-31.8-10.2-11.9-.6-22.7-5.9-29.2-16.7-5-8.2-12.8-12.2-20.8-16.1-.6.6-1.1.9-1.3,1.3-6.9,13.2-15.7,24.7-27.7,33.8-.9.7-1.7,2.7-1.4,3.7,3.5,10.4,6.7,21.1,11.2,31.1,4.5,10,7.3,20.3,5.3,30.8-5,27-31.8,39.6-56.3,29.1-9-3.8-17.1-9.5-26-13.6-13.1-6.1-27-9.4-41.3-11.1-8.7-1-17.4-2.8-24.2-8.7-5.5-4.8-9.9-10.8-15.1-15.8-8.3-8-16.6-16.1-25.5-23.4-9.4-7.7-19.8-14-31.8-16.7-10-2.3-18.6-6.7-25.2-14.5-8.9-10.5-11.8-22.6-8.6-36.1,2.1-9,7.3-16.1,14.1-22.9-14.9-.9-29.9-.5-43.9-6.7-2.1,5-3.9,9.8-6.2,14.4-9.5,19.5-19,39-28.8,58.4-8.5,16.8-16.4,34-26.2,50-12,19.7-30.6,27.5-53.5,24-15.4-2.4-30.7-4.9-45.9-8.1-13.1-2.8-24.2-9.3-31.7-20.8-2.5-3.8-4.1-8.2-6.1-12.1-35.9,18.3-70.6,16.4-101.1-8.7-32.5-26.7-40.3-62.2-27.3-101.3h-105.7c-40.3,0-80.7,0-121,0-1.6,0-3.2-.4-4.8-.7-16.3-3.6-26.1-14.1-31.8-29.3-3.8-10.2-10.3-17.2-21.9-19.1-12.3-2-23.6.4-34.5,5.2-16.6,7.4-32.9,15.4-49.3,23.3-19,9.1-39.1,14.6-60,15.4-13.4.5-27.1-.3-40.2-3.1-22-4.6-43.4-11.7-62.8-23.6-15.5-9.5-27.3-21.7-30.3-40.6,0-.6-1.3-1-1.9-1.5,0-4,0-8.1.3-12.2.8-1,1.5-1.8,1.6-2.6,1.7-9.4,5-18.1,12.2-24.7,9.4-8.7,19.3-16.9,28.6-25.7,13.5-12.8,26.9-25.8,40-39,10.2-10.3,20.3-20.9,29.8-31.9,8.8-10.2,16.8-21.1,24.9-31.8,2-2.6,4.2-5.9,4.3-9,.2-5.4-1-11-1.7-16.4-2.2-17-4.8-33.9-3.2-51.3,1.5-15.9,7-29.3,19.1-39.6,8.6-7.3,19-10.8,30-10.5,12.3.4,24,4.3,34.9,10.2,2.1,1.1,4.3,2,6.4,3,10.2-18.7,23.9-32.9,45-36,21.3-3.2,38.9,6.1,53.8,21.1,13.9-20.6,27.4-40.8,40.9-60.7-7.8-6.3-14.4-12.4-17-21.7-3.9-13.7-8.3-27.3-11.8-41.2-2.3-9.1-5.6-18-4.2-27.8,1.9-13.9,8.2-25.3,20.7-31.5,8.5-4.2,18.3-5.7,27.4-8.5.8-.2,1.3-1.3,2-1.9M1152.4,499.2c-.1.6-.3,1.2-.7,2.4-2.6,4-5.1,8.1-7.9,12-4.1,5.9-8.4,11.7-12.6,16.6,3-21.3-.9-41.2-12.3-59.6-9.1-14.7-21.8-25.8-36.1-36,1-3.2,1.1-7.2,3.2-9.2,2.2-2.1,6.3-3,9.6-3.2,4.6-.3,9.3.5,13.9.8,5.8.4,7.7-1.6,6.5-7.3-2.2-10.6-4.6-21.1-6.5-31.7-1.1-6.2-4.6-9.1-10.6-10.1-13.8-2.5-27.6-3.7-41.6-1.8-12.9,1.7-25.4,4.7-36.8,11.6-14.6,8.9-19.5,22.7-18.3,33.6,1.1,10.2,5,19.6,10.3,28.3,4.1,6.7,8.2,13.4,11.7,20.3,3.5,7,1.5,12.2-5.5,15.6-2.3,1.2-5,2.2-7.5,2.3-13.8.5-27.6.8-41.4,1.1-7.6.1-9.1,1.8-7.6,9.4,1.9,9.3,3.9,18.5,5.7,27.8,1.8,9.1,4.6,11.8,14.2,11.9,18.9.1,37.9.2,56.8,0,16.9-.2,32.9-4,48-11.2-.4,5.4-1.6,11-1,16.3,1.3,11.9,3.5,23.7,4.6,35.7-9.5-3.5-19.1-4.3-26.5-2.3,8,8.8,16.6,18.2,24.9,27.8,8.9,10.3,15.7,21.7,17.4,35.3-13.6-11.2-26.9-23-44.2-28.2-11.8-3.6-23.5-3.2-34.8.7,9.1,3.7,18.4,6.7,27.1,11.1,22.5,11.6,40.9,28.4,57.3,47.4,3.7,4.3,7.6,6.5,13.2,7.4,11.3,1.9,22.5,4.4,33.5,7.5,14.7,4.1,28.5,10.7,41.7,18.9-4.2-11-8.7-21.8-13.3-32.6-.2-.4-.8-.6-.9-1.6,2.3-3,0-4.8-1.7-6.8-5.3-6.8-10.4-13.7-11.2-23.5,3.3-9.2,10-15.2,18.6-19,16-7.1,24.8-20.4,30.3-35.9,4.1-11.5,6.1-23.8,9.3-35.6,1.3-5,3.3-9.9,5.5-16.3-8.2,4.8-15.1,8.8-22.4,12.3,0-.5-.2-1-.1-1.5,5.8-26.4,11.6-52.8,17.3-79.2,1.3-6.1-.1-8.6-5.8-9.8-17.7-3.8-35.3-7.6-53-11.4-5.2-1.1-7.5.2-8.7,5.3-1.8,7.7-3.5,15.5-5.1,23.3-2.1,10.2-4,20.4-5.9,30.7,0,0,0,0-.6.2M537.6,207.8c6.9,2.4,13.8,4.8,21,7.8.8,9.4-1,9,10.1,9.8,5.1.4,10.2-.9,15.9-.9,5.6,2,11.2,4.2,16.9,6,7.8,2.5,11.7.9,14.5-6.7,8.7-23.7,17.2-47.5,25.6-71.4,2.5-7.1.5-11.3-6.4-13.8-24.2-8.8-48.5-17.5-72.8-26-5.5-2-10.2,0-12.3,5.4-2.7,7-4.9,14.1-8.2,21.3-10.4-1.1-20.8-2.3-31.3-3.2-10.4-.8-9.8-2.5-10.8,8.9-.2,2.2-.4,4.3-.8,6.4-.9,4.4.7,6.5,5.4,6.5,3.9,0,7.9.8,12.2,1.2-1.5,14.1-3,27.8-4.4,41.5-.5,4.8-2.5,11-.3,13.9,2.1,2.8,8.7,2.4,13.4,2.9,11.1,1.1,10.5,1.8,11-8.6,0-.5.3-.9,1.3-1.3M1798,456s0,0,0-.7c-.3-.9-.6-1.9-1-2.8-17-37.9-40.1-71.3-71.2-99-21.1-18.8-44.6-33.7-72.4-40.7-27.6-6.9-53.8-3.7-78.1,11.7-24.8,15.7-41.3,38.6-53,64.8-8.8,19.7-15.5,40.3-23.2,60.5-3.3,8.7-6.4,17.5-10.6,25.8-3.3,6.5-10.3,6.4-14.4.2-2-3-3.6-6.6-4.1-10-1.7-13.2-3.5-26.4-3.9-39.6-.4-15.8.6-31.6.9-47.4.1-7.4-2-9.7-9.3-9.7-11.7,0-23.4-.4-35,.5-8.3.7-17.1-1.6-24.9,3.6-.9.6-2.6,0-3.9-.2-10.2-.9-20.5-3-30.7-2.7-30.6,1-54.1,14.9-67.6,42.7-14.9,30.5-14.8,60.9,6.4,89,24.5,32.3,71.6,43.7,108.5,26.9,5.9-2.7,11.5-5.7,17.5-8.7,6.3,8,14.8,8.2,23.6,6.2,15.2-3.3,28.5-10.7,40.9-20,7.5-5.7,15.5-11.2,24-15,23.6-10.5,48.8-13.9,74.5-13.3,21.7.5,42.6,4.4,62.5,13.3,1.2.6,2.6.9,4.1,1.3,1-8.3-3.4-14.1-6.9-20.5,0,0,.2-.3,1-.2,21.8,7.9,41.3,19.8,60.4,33.7,7.9,7.3,16,14.4,23.8,21.9,14,13.4,24.8,29.1,32.5,46.9,8.8,20.6,11.6,41.8,5.6,63.7-1.4,4.9-2.9,9.8-4.7,14.9,0,.2,0,.4.1.6.2-.2.3-.4,1.1-.8,2.7-2.9,5.7-5.6,8.2-8.7,11.4-14.4,18.8-30.9,23.4-48.6,5.9-22.6,7.6-45.5,3.8-68.6-1.5-8.8-3.7-17.4-5.5-26,4.1.8,8.4,1.7,13.7,2.7-1.7-6.7-2.7-12.1-4.5-17.3-3.4-9.9-7.3-19.6-11-29.8-.3-.2-.5-.4-.8-.6M415.5,363c-7.5-26.5-14.9-53.1-22.6-79.6-3.6-12.4-7.3-24.9-12.3-36.8-4.8-11.4-12.9-20.9-23-28.5-10.1-7.5-16.9-6.8-24,3.5-3.8,5.6-7,11.7-9.6,18-3.7,8.8-6.5,18-9.9,27.4-4.1-2.1-7.9-4.1-11.7-6.1-13.4-7.1-26.5-14.7-40.2-21.2-13.7-6.5-19.8-2.6-19.2,12.4.8,18.1,3.1,36,4.3,54.1.4,7,.8,14.5-1.2,21.1-2.2,7.3-6.3,14.4-11,20.6-11.6,15.4-23.6,30.6-36.3,45-11.2,12.7-23.2,24.8-35.5,36.5-16.8,15.9-34.2,31.1-51.2,46.8-6.3,5.8-6,12.6,1.1,17.6,6,4.3,12.6,8.2,19.4,11.2,15.8,7.1,32.4,12.2,49.7,13.8,24,2.1,46.6-3.4,68-14,14-7,28-14.1,42.2-20.6,17.4-7.9,35.9-11.1,55-9.2,8.9.9,17.8,2.4,25.5,7.8,11,7.7,22.5,14.8,33.2,23,6.9,5.3,13.4,8,22.2,4.9,6.5-2.4,13.4-3.3,20.8-5-5.4-24.7-10.3-48.9-16-73-5.4-23.1-11.6-46.1-17.8-69.9M597.9,303.7c-2.6-12.2-5.3-24.3-7.8-36.5-1.3-6.4-4.2-8.6-10.4-7.3-26,5.5-51.9,11.1-77.9,16.7-14.8,3.2-29.5,6.4-44.3,9.5-8,1.7-10,4.4-8.4,12,7.5,34.7,15,69.4,22.5,104.1,7.8,36.2,15.6,72.3,23.4,108.5,1.9,8.8,4.4,10.6,13.2,8.7,22.5-4.9,45.1-9.8,67.6-14.7,18.5-4,37-8,55.5-12.1,6.3-1.4,8.7-4.5,7.6-10.2-3.1-15.8-6.4-31.5-9.8-47.3-1-4.8-4.5-6.7-9.3-5.7-9.3,2-18.5,4-27.8,5.9-13.1,2.8-26.2,5.7-39.7,8.6-1.6-7.2-2.9-14.1-4.7-20.7-1.2-4.5,0-5.8,4.5-6.5,13.6-2,27.2-4.3,40.7-6.7,5.3-1,7.4-4,6.7-9.2-2-14.1-4.2-28.2-6.4-42.3-.7-4.4-3.8-6.6-8.2-6.1-4.3.5-8.5,1.2-12.8,1.9-10.8,1.8-21.6,3.7-32.4,5.3-2.4.4-5.4,1.3-6.2-2.8-1.3-6.8-3-13.5-4.5-20.5,2.2-.6,3.9-1.1,5.7-1.5,19-4.1,38-8.1,57-12.2,7.7-1.7,9.2-4.2,7.6-12-.4-2.1-.8-4.2-1.3-7.2M887.5,621c14.3-30.6,29.2-60.9,42.6-91.9,11.8-27.1,22.5-54.8,28.3-84,1.3-6.4,0-9-6.3-10.8-15.5-4.5-31-9-46.5-13.3-7.9-2.2-10.5-.7-13.5,6.8-5.1,13-10.1,26-15.3,39-5.3,13.3-10.6,26.5-16.3,40.6-6.5-9.2-12.5-17.7-18.5-26.2-10-14.1-19.9-28.3-29.9-42.4-5-7-9.9-8.7-16.6-5.3-13.8,7-27.5,14.2-41.1,21.7-8,4.4-8.4,8.3-3.1,15.7,11.4,16,22.6,32.1,34,48.1,14.4,20.4,28.8,40.7,43.1,61.2.7,1,.8,3.1.3,4.4-5.1,12.6-10.5,25.2-15.7,37.8-4.7,11.4-9.6,22.7-14.1,34.1-2.8,7.2-.9,10.4,6.5,11.7,14.4,2.7,28.7,5.2,43.1,7.7,7.1,1.2,11-.8,14.5-7.7,8.1-15.5,16.1-31,24.5-47.2M735.8,403.2c2-28.2,4.1-56.4,6-84.6,1.8-26.4,3.6-52.8,5.3-79.2.6-10-.5-10.9-10.6-11.5-15.6-.9-31.2-1.9-46.8-3.2-9.6-.8-11.3.7-11.8,10.3-.6,11.5-1.4,22.9-2.2,34.4-1.6,22.4-3.2,44.8-4.8,67.2-1.1,15.3-2.1,30.5-3.2,45.8-1.9,25.9-3.8,51.7-5.7,77.6-1.3,17.4-2.5,34.8-3.8,52.2-.4,5.3,1.9,8.3,7.2,8.7,6,.5,12,.7,17.9,1.1,11.3.8,22.6,1.6,33.8,2.7,7.5.7,10.1-1,10.6-8.7,1.8-25.7,3.5-51.4,5.3-77.2.8-11.6,1.8-23.2,2.8-35.7M1247.3,436.6c9.8,4.2,18.3-.6,19.5-11.3,1.6-14.5,3.1-29.1,4.1-43.6.8-11,3.6-19.9,13.9-26.3,13-8,25-17.6,37.5-26.5,5.5-4,7.8-9.2,6.4-14.6-1.5-5.9-5.9-9.5-12.7-10.2-14.4-1.4-28.7-3.2-43.1-4-12.2-.6-21.2-4.9-27.9-15.8-7.8-12.7-17.2-24.5-26-36.6-3.3-4.6-8-6.7-13.5-5.5-5.6,1.1-9,4.9-10.1,10.5-.6,2.9-.9,5.9-1.2,8.9-1.4,15.2-2.7,30.4-4.3,45.6-.6,5.5-3,10.1-7.7,13.4-4.5,3.1-8.9,6.4-13.4,9.6-10.4,7.5-20.8,15-31.1,22.6-4.9,3.6-5.8,8.7-4.1,14.3,1.6,5.5,5.9,8.1,11.1,8.7,16.8,1.9,33.7,3.8,50.5,5,7.7.6,13.3,3.6,17.6,9.7,5.1,7.2,10.1,14.5,15.4,21.5,6.1,8.1,12.4,16,19.2,24.5M1441.1,240.8c-1.6,10.8-3.1,21.7-4.7,32.5-.6,4.1-1.1,8.1,2.6,11,18,14.3,35.9,28.6,54.1,42.6,2.2,1.7,6.6,2.6,9.2,1.6,21.3-8,42.5-16.5,63.6-25,3.6-1.4,5.7-4,6.3-8.2,1.7-12.7,3.8-25.3,5.7-37.9,1.4-9.7,2.8-19.4,4.1-29.1.6-4.2-1.1-7.1-4.5-9.8-17-13.3-34-26.8-50.7-40.4-4-3.3-7.8-3.9-12.4-2.1-20.7,8.3-41.4,16.5-62.1,24.7-4.1,1.6-5.7,4.5-6.3,8.7-1.4,10.2-3.1,20.3-4.8,31.4M672.1,571.7c-9.2,16.9-10,33.6,0,50.6,11.5,19.8,36.6,28.7,58.9,20.8,21.5-7.7,35.1-31.2,31.2-53.6-3.6-20.5-19.1-36.7-38.4-40.4-20.3-3.8-40,4.6-51.6,22.6M908,225.5c6.4,3.9,12.4,8.4,19.1,11.5,23.5,10.8,48.3,15.6,74.2,13.9,9.5-.7,19.1-2.4,28.2-5.1,10.7-3.2,19.3-9.8,23.5-20.8,4.3-11.3,1.9-22.3-2.1-33-7.1-19.4-19.1-35.5-35.6-47.8-14.3-10.6-29.2-19.7-48.9-15.3-29.1,6.5-51.6,21.6-66,47.8-3.2,5.8-5.4,12.6-6.2,19.2-1.6,12.1,4.5,21.4,13.8,29.6M814.9,148.3c-12.9,1.8-19.6,10.3-23.3,21.8-.6,1.8-.2,4.9,1.1,6.3,5.4,5.8,10.8,11.8,17,16.6,16.5,12.6,44.5,12.1,61.4-.2,10.3-7.5,14.6-18.3,16.8-30.1,1.5-8,2.7-16.2.7-24.9-1.5.7-2.5,1.1-3.5,1.6-7.6,3.8-15,7.8-22.7,11.5-5.9,2.9-12.1,4.1-18.8,2.5-9.2-2.1-18.5-3.5-28.6-5M699.1,139.8c-6.7-.9-6.6-.9-7.2,5.7-.2,2.5-.5,5-.9,7.4-.6,3.5.5,5.2,4.4,5.3,4.4.1,8.8.9,13.3,1.4-.8,10.1-1.6,19.7-2.4,29.5h-23.3v17.7c.9.2,1.6.5,2.2.5,21.5.8,42.9,1.6,64.4,2.4,2.8.1,3.9-1,3.8-3.8,0-3.3,0-6.7.3-10,.3-3.6-1.1-5.1-4.8-5.1-6.9,0-13.9-.6-21.2-.9.8-9.6,1.6-18.8,2.4-28.1,6.3.5,12.1.9,18.1,1.4.5-4.8.6-9,1.3-13.1.7-3.9-.3-5.4-4.3-5.8-15.1-1.4-30.1-2.9-46.1-4.5M934.5,359c-8.6,3-17.4,3.6-26.5,2.3-12-1.7-29,3.8-33.1,15.9-3.8,11.2-3,22.4.3,33.2,7.5-1.5,14.7-3,21.8-4.4,11.6-2.4,23.4-4.2,31.6-14.1,6.9-8.4,10.6-18.3,11.7-29.1.5-4.9.1-5.4-5.8-3.8M1085.4,256c3,3.3,6.2,6.5,9.1,9.9,4.1,4.8,8.5,9.6,15.1,9.6,5.1,0,10.7-1,15.2-3.2,2.2-1.1,2.8-5.8,3.8-9,.7-2.2.9-4.5,1.2-6.8.9-7.1.1-13.8-6.4-18.2-3-2.1-6.2-4-9.6-5.2-11.2-4.2-22.5-2.7-33.6.9-6.2,2-12.2,4.6-19.6,7.4,9,5.4,16.6,9.9,24.7,14.8M1017.5,284.1c-9.8,0-19.7,0-29.5-.4-4-.1-5.4,1.3-5.1,5.2.2,3.1.2,6.3-.2,9.5-.4,3.7.9,5,4.7,5,12.8.1,25.6.7,38.4.9,3.8,0,4.8,1.4,4.2,5.2-1.7,9.8-1.6,9.9,7.9,12.5.8.2,1.6.5,2.4.7,3.2,1.2,6.1.7,7.6-2.5,3.3-7,7.1-13.9,9.2-21.3,2.6-9.2-1.6-13.9-11.2-14.2-9.2-.3-18.3-.4-28.5-.6M818,259.4c-6.1,13.9-15,25.6-28,34.6,3.8,3.4,7,6.1,9.9,8.9,2.9,2.8,5.5,2.7,8.9.6,24.3-14.6,35.2-37.6,40.7-64,.3-1.3-1.7-3.8-3.1-4.5-3.9-1.8-8.2-2.7-12.2-4.4-4.1-1.7-5.9-.7-7.2,3.6-2.6,8.2-5.7,16.3-8.9,25.1M487.7,65c-7.9-10-17.8-8.4-28.2-4.6-1.7-5.9-3.3-11.6-5.1-17.8-4.1,1.1-7.9,2.3-11.7,3.1-2.7.6-2.9,1.9-2.2,4.3,4.3,15.3,8.5,30.7,12.6,46.1.7,2.7,1.9,3.3,4.6,2.7,4.3-1,8.7-1.7,13.1-2.1,16.5-1.7,24.8-16.6,16.9-31.7M1313.7,551.1c-2.1,16.5-4.3,32.9-6.5,49.9,4.3.7,8,1.2,11.7,1.8,2.7.5,3.9-.4,4.2-3.3.4-4.4,1.2-8.8,1.8-13.2,2.7.5,4.8,1.1,6.9,1.4,10.2,1.3,18.8-4,21.4-13.1,3.5-12.3-4.9-24.3-18.2-25.5-6.4-.6-12.9-.3-19.3-.3-.6,0-1.2.9-1.9,2.3M1358.1,580.5c-4.5,9.9-8.9,19.9-13.6,30.3,4.8,2.2,9.1,4.1,13.9,6.3,2.5-5.3,4.9-10.3,7.3-15.3,8.8,4.8,14.3,6.1,19.8,4.8,7.7-1.9,13.2-8.5,13.9-16.9.8-8.6-4.3-17.1-12.9-20.5-6.4-2.5-13.2-4.1-20.2-6.3-2.6,5.5-5.2,11.2-8.1,17.5M1299,255.6c-.7-4.2.8-6.2,5.4-5.7,2.9.3,6,0,8.9-.5,4-.7,5.8-3.6,5.9-7.5.1-4-1.5-7-5.5-7.8-3.5-.7-7.2-.8-10.9-.9-2.7,0-4-.9-3.8-3.8.2-2.8.3-5.7,0-8.5-.6-4.2-2.5-7.6-7.5-8-4.8-.4-7.5,1.7-8.8,6.9-.2,1-.4,2-.5,2.9q-.6,9.9-10.1,10.4c-1,0-2,.2-2.9.4-5.1,1.2-7.4,4-7.1,8.7.3,4.4,3.3,7.2,8.3,7.7,1.8.2,3.7,0,5.5,0,6.4,0,6.3,0,6.4,6.6,0,2.5.2,5,.7,7.4.9,4.5,3.8,6.4,8.3,6.2,4.3-.2,6.8-2.6,7.5-6.7.4-2.3.2-4.6.3-7.9M934.6,287.1c-11.3,9.1-22.4,18.3-33.9,27.1-3.6,2.7-3.5,4.5-.5,7.3,3.2,2.9,6.1,6.1,9,9.4,1.7,1.9,3.1,2.4,5.5.9,13.9-8.7,26.4-19.1,37.2-31.4,3.1-3.6,8.2-7.7,8-11.3-.2-3.7-5.8-7.1-8.9-10.8-2.4-3-4.4-2.7-6.9,0-2.8,3-6,5.7-9.6,9M766.6,120.4l8.1-8.5c-.7-.2-1.5-.4-2.2-.6-.4-3.7-1.2-7.5-1-11.1.2-3.8,1.5-7.5,2.4-11.1.8-3.1,0-4.5-3.3-5.1-6.1-1-12.2-2.6-18.4-3.7-2.4-.4-5-.3-7.4.2-8.7,2-14.8,10.9-13.8,19.9,1,9,9.4,16.9,18.8,16.6,5.8-.2,11.3-.7,16.7,3.4M1297.4,561.1c2.3-4,4.5-8,7.1-12.6-8.1-4.3-15.6-8.5-23.5-12.3-2.1-1-4.9-.9-7.3-.6-9.1,1.4-15.9,9.5-15.7,18.4.2,9.5,8.2,17.9,17.9,19.1,1.9.2,4.4.8,5.5,2.2,5.4,6.2,5.3,6.4,11.7,1,1-.8,2-1.7,2.9-2.6-.5-.2-1-.3-1.5-.5.9-3.8,1.7-7.6,2.9-12.1M793.5,351.9c10.8,4.1,20.7,2.3,30-4.4,9-6.5,14.9-14.7,16.4-26.5-1.5.6-2.4.7-3.2,1.2-9,5.7-18.9,7.5-29.5,7-4.8-.3-9.6.1-14.3.9-9.7,1.6-18.5,14.8-16.9,21.6,5.6,0,11.1,0,17.6.2M569.2,81.8c.3,3.6.7,7.2.9,10.8.4,6,3.1,11.2,8.7,12.7,3.1.8,7.2-2.2,9.5-3-.9-6.4-1.9-11.2-2.1-16-.3-9.1-4.6-16.2-13.3-19-4.5-1.4-9.4-1.5-14.2-1.8-9.1-.6-9.1-.5-10.5,8.5-1.3,8.5-2.4,17-3.6,25.9,5.3.8,10,1.5,15.1,2.2,1.3-8.3,2.5-16.1,3.8-24.7,2.2,1.5,3.7,2.6,5.6,4.5M529.9,103.5c3-5.9,6-11.9,9-17.8,5.1-10.1,5-9.9-5.2-15-3.1-1.5-4.4-.8-5.7,2-2.1,4.7-4.6,9.2-6.9,13.8-1,2-1.7,3.9-4.7,3-2.9-.9-4.3-2.7-3.7-5.5.8-3.4,2-6.7,3.2-9.9,3.6-9.9,3.6-9.7-6.1-13.1-3-1-4.7-.5-5.8,2.4-1.9,5-4.2,9.8-5.9,14.8-3.8,11.1.4,18.8,11.5,22.4,4.9,1.5,9.7,3.4,14.3,5.6,3.1,1.5,4.6.9,6-2.8M1013.9,350.3c5.4-8.5,9.4-17.5,10.8-27.6.4-3-.4-5-3.4-5.5-5.2-.9-10.5-1.9-15.8-2.3-1.5,0-3.9,1.6-4.5,3.1-3.9,10.5-7.6,21.2-11.1,31.9-.4,1.2,0,3.4.9,4.1,10.1,8.2,15,7.5,23-3.7M700.8,101.9c1.8-1.6,3.4-3.6,5.5-4.7.8-.4,2.6,1.3,5,2.5-3,1.1-4.6,1.7-6.2,2.3q1,8.8,9.2,8.2c1.6-.1,3.6,0,4.8-.8,2-1.4,4.6-3.3,5-5.4,1.2-5.9-.4-11.5-5.7-15-7.3-4.8-15.3-4.8-22.8-.7-6.8,3.7-9.6,10-8.9,17.7.8,8.3,5.5,13.7,13.3,16.5,8.8,3.2,11.1,1.8,13.5-8-6.3-1.6-13.6-2.6-13-12.5M834.6,116.5c.3-2.8.1-5.8,1.1-8.4.4-1.1,3.1-1.8,4.7-1.8,1,0,2.1,1.6,3.5,2.9-2.5.9-4,1.4-5.4,1.9q1.1,9.1,9.6,8.2c1.5-.2,3.3.1,4.4-.7,2-1.5,4.4-3.3,5.1-5.4,1.7-5.2-1.5-12.2-6-15.4-6.1-4.1-16.8-4.2-23.3,0-6.5,4.3-9.1,10.6-8,18.1,1.3,8.6,6.7,13.9,15,16.2,7.8,2.1,10.8-.1,11.3-7.2-4.2-2.8-7.9-5.3-12-8.4M631.1,89c3.5-5.6,4.7-5.7,14.3-2.2,7.2-8.5,6.1-11.8-4.4-14-.7-.1-1.3-.4-1.9-.5-11.3-1.7-21.2,4.6-23.7,15-2.4,10.1,3.2,19.5,13.2,22.6,5.7,1.7,11.2,1.1,16.5-1.2,7.8-3.4,8.4-6.3,2.9-13.3-13.7,4.9-17.2,3.8-17-6.3M799.9,127.8c8.9,3,10,2,10.2-9-1.8-3.9-3.6-7.8-5.5-11.9,6.8-1.5,7.4-3.8,4.8-13.8-1.5,0-3.1-.2-4.1-.3-3.1-2.8,2.2-9.4-4.9-9.4-11.3,0-11.3,0-12.3,10.3-5.5,1.4-6.1,3.5-3.5,13.8,1.7.1,3.4.2,5.3.3,2.2,7.1,1.9,15.2,10.1,20M1341.5,280.2c1.5-2.4,4.3-4.9,4-7.1-.3-2.3-3.2-5.1-5.6-6-3.7-1.4-4.5-3-3.7-6.6,1.2-4.7-.9-8.4-5-9.3-4.3-.9-7.2,1.3-8.2,5.4-1,4.4-3.2,5.1-7.2,3.9-4.3-1.3-7.1,1-8.5,4.8-1.3,3.5.7,7.3,4.9,8.4,4.4,1.1,5.5,2.9,4.1,7.4-1.2,4,1,7.3,5.1,8.4,4,1.2,7.4-1.1,8.2-4.7,1.1-5.6,4-5.6,8.2-4.2.9.3,1.9,0,3.6-.5M799.1,222.5c-1-.3-1.9-.5-2.8-.9-4-1.9-6.4-1.1-7.3,3.7-1,5.4-2.8,10.6-4.3,15.9-4.6,16.9-6.2,12.4,10.3,19.3,3,1.2,5.1.8,6.4-2.4,3.2-7.8,6.8-15.5,9.6-23.4,2.6-7.4,2.2-7.5-5.4-10-1.9-.6-3.8-1.2-6.4-2.1M660,72.7c-.4,7.5-.8,15-1.1,22.4-.4,11-.4,10.9,10.9,11.4,3,.1,4.1-.7,4.2-3.8.1-6.6.6-13.2,1-19.8,1.1,0,1.8-.3,2.4-.1,4.8,1.8,6.6-.6,7.4-4.8.2-1.1,1.2-2.3.9-3.3-.4-1.4-1.4-3.6-2.3-3.6-7.4-.5-14.9-.6-22.3-.7-.4,0-.7,1-1.2,2.4M880.6,283.1c-1.9,1.5-3.8,3-6.2,4.9,5.7,5.4,10.7,10.4,16.1,15.1.8.7,3.2.5,4.2-.3,4.1-2.8,7.9-6.1,11.9-9.1,2.5-1.8,2.6-3.8.4-5.7-2.6-2.3-5.3-4.5-8.3-6.3-10.3-6.1-7.3-6.7-18.1,1.3M897.4,258.8c-1.9,2.5-3.7,5.1-6.3,8.6,7.2,3.7,13.9,7.2,20.7,10.4.7.3,2.6-1.1,3.4-2.2,2.8-3.7,5.3-7.6,8.2-11.3,2.2-2.8,1.1-4.7-1.5-5.9-3.8-1.7-7.8-2.9-11.6-4.4-5.3-2.1-9.7-1.5-12.8,4.8M1107.6,308c-6.8,3.7-11.4,9.5-14.7,16.2-2,4.1-1,12.5,1.4,14.2,7.2,5.1,17.7.2,18.7-8.9.9-7.6-.3-14.8-5.4-21.5M1162.2,174.1c-6.3,0-12.8-.9-18.8,2.4,7.5,13.8,22.1,16.9,31.8,6.9,1.2-1.3,2.7-4,2.2-4.8-1.2-1.7-3.4-3-5.4-3.5-2.8-.7-5.9-.6-9.8-1M1379.9,273.1c0-.8.3-1.9,0-2.4-3.1-4.5-3.1-8,2.7-10.3.8-.3.6-2.8.9-4.3-1.5-.2-3.6-1.1-4.4-.4-4.4,3.4-7,2.1-9.2-2.5-.5-1-2.7-1.2-4.1-1.7-.3,1.6-1.5,3.9-.8,4.7,3.3,4.4,2,6.9-2.4,9.2-1.1.5-1.2,2.9-1.7,4.4,1.7.2,3.5.8,5,.4,1.8-.4,3.4-1.7,5.2-2.7,1.4,2.1,2.2,4.2,3.7,5.3,1.2.9,3.2.6,5.2.2M1406.6,256.4c-2.6.2-5.2.2-7.7.8-1.3.3-3.5,2.1-3.3,2.7.9,3.1,2.4,6,3.8,8.9,0,.1,1.2-.3,1.8-.4,5-1.1,9.8-2.4,5.9-9.3-.3-.5-.1-1.3-.5-2.7Z"/>
  <path class="cls-34" d="M1712,505c-18.8-13.3-38.4-25.2-60.6-33.3-.9-.3-1.3-.3-1.7-.3.3.3.7.7,1,1,3.7,6,8.1,11.9,7.1,20.2-1.5-.5-2.8-.8-4.1-1.3-19.9-9-40.8-12.8-62.5-13.3-25.8-.6-50.9,2.8-74.5,13.3-8.5,3.8-16.5,9.3-24,15-12.4,9.3-25.7,16.7-40.9,20-8.8,1.9-17.3,1.7-23.6-6.2-5.9,3-11.6,6-17.5,8.7-36.9,16.8-84,5.4-108.5-26.9-21.2-28-21.3-58.4-6.4-89,13.5-27.7,37-41.7,67.6-42.7,10.2-.3,20.4,1.7,30.7,2.7,1.3.1,3,.8,3.9.2,7.7-5.1,16.6-2.9,24.9-3.6,11.6-.9,23.3-.5,35-.5,7.3,0,9.5,2.3,9.3,9.7-.3,15.8-1.3,31.6-.9,47.4.4,13.2,2.2,26.5,3.9,39.6.4,3.5,2.1,7.1,4.1,10,4.1,6.2,11.1,6.3,14.4-.2,4.2-8.3,7.2-17.1,10.6-25.8,7.7-20.2,14.4-40.8,23.2-60.5,11.7-26.2,28.2-49.1,53-64.8,24.3-15.4,50.5-18.6,78.1-11.7,27.8,7,51.3,21.9,72.4,40.7,31.1,27.7,54.2,61.2,71.2,99,.4.9.7,1.9.6,3.2-2-.4-3.7-1.2-5.2-2.2-21.5-13.7-44.8-23.1-69.6-29-3.3-.8-6.7-1.2-10.8-2,7.4,20.6,14.4,40.2,21.7,60.6-5.5-.6-10-.8-14.3-1.7-3.6-.8-5,.4-5.3,3.7-.7,6.6-1.4,13.2-2,19.8M1381.2,421.1c-12.2-.2-20.8,5.6-25.7,16.3-5.6,12.4-5.1,24.7,3.9,35.6,11,13.4,28.7,11.6,41.5,4.8,1.1-.6,1.7-3.3,1.5-4.9-1.4-12.4-3.5-24.7-4.2-37.1-.4-6.7-3-10.6-8.9-12.8-2.3-.9-4.8-1.3-8.1-2Z"/>
  <path class="cls-36" d="M415.7,363.4c6,23.4,12.2,46.4,17.6,69.5,5.7,24,10.6,48.3,16,73-7.4,1.7-14.3,2.7-20.8,5-8.8,3.2-15.2.5-22.2-4.9-10.7-8.2-22.2-15.3-33.2-23-7.7-5.4-16.6-6.9-25.5-7.8-19.1-1.9-37.6,1.2-55,9.2-14.2,6.5-28.2,13.6-42.2,20.6-21.5,10.7-44,16.2-68,14-17.4-1.5-33.9-6.7-49.7-13.8-6.8-3-13.3-6.9-19.4-11.2-7.1-5.1-7.4-11.8-1.1-17.6,17-15.7,34.5-30.9,51.2-46.8,12.3-11.7,24.3-23.8,35.5-36.5,12.7-14.5,24.7-29.7,36.3-45,4.7-6.2,8.8-13.3,11-20.6,2-6.6,1.6-14.1,1.2-21.1-1.2-18-3.5-36-4.3-54.1-.6-15,5.5-18.9,19.2-12.4,13.7,6.5,26.8,14.1,40.2,21.2,3.8,2,7.6,4,11.7,6.1,3.3-9.4,6.2-18.6,9.9-27.4,2.6-6.3,5.8-12.4,9.6-18,7.1-10.3,13.9-11.1,24-3.5,10.1,7.5,18.1,17,23,28.5,5,11.9,8.7,24.4,12.3,36.8,7.8,26.5,15.1,53.1,22.8,80Z"/>
  <path class="cls-30" d="M598,304.1c.4,2.5.8,4.7,1.2,6.8,1.6,7.8.1,10.4-7.6,12-19,4.1-38,8.1-57,12.2-1.8.4-3.5.9-5.7,1.5,1.5,6.9,3.2,13.7,4.5,20.5.8,4.1,3.8,3.2,6.2,2.8,10.8-1.7,21.6-3.6,32.4-5.3,4.3-.7,8.5-1.4,12.8-1.9,4.4-.5,7.5,1.7,8.2,6.1,2.2,14.1,4.4,28.2,6.4,42.3.8,5.2-1.3,8.3-6.7,9.2-13.5,2.4-27.1,4.7-40.7,6.7-4.4.6-5.7,2-4.5,6.5,1.9,6.7,3.1,13.5,4.7,20.7,13.5-2.9,26.6-5.8,39.7-8.6,9.2-2,18.5-4,27.8-5.9,4.8-1,8.3.9,9.3,5.7,3.4,15.7,6.7,31.5,9.8,47.3,1.1,5.7-1.3,8.8-7.6,10.2-18.5,4.1-37,8.1-55.5,12.1-22.5,4.9-45.1,9.7-67.6,14.7-8.7,1.9-11.3.1-13.2-8.7-7.7-36.2-15.6-72.4-23.4-108.5-7.5-34.7-15.1-69.4-22.5-104.1-1.6-7.6.4-10.3,8.4-12,14.8-3.2,29.5-6.4,44.3-9.5,26-5.6,51.9-11.2,77.9-16.7,6.2-1.3,9.1.9,10.4,7.3,2.6,12.2,5.2,24.3,7.9,36.9Z"/>
  <path class="cls-6" d="M887.3,621.3c-8.2,15.8-16.3,31.4-24.4,46.9-3.6,6.9-7.4,8.9-14.5,7.7-14.4-2.5-28.7-5.1-43.1-7.7-7.4-1.4-9.3-4.5-6.5-11.7,4.5-11.5,9.4-22.8,14.1-34.1,5.3-12.6,10.6-25.1,15.7-37.8.5-1.2.5-3.3-.3-4.4-14.3-20.4-28.7-40.8-43.1-61.2-11.3-16-22.6-32.1-34-48.1-5.3-7.4-4.8-11.3,3.1-15.7,13.5-7.5,27.3-14.7,41.1-21.7,6.7-3.4,11.6-1.7,16.6,5.3,10.1,14.1,20,28.3,29.9,42.4,6,8.5,12,17,18.5,26.2,5.7-14.1,11-27.3,16.3-40.6,5.2-13,10.2-26,15.3-39,2.9-7.4,5.6-8.9,13.5-6.8,15.5,4.3,31,8.7,46.5,13.3,6.2,1.8,7.6,4.5,6.3,10.8-5.9,29.2-16.5,56.8-28.3,84-13.4,31-28.4,61.3-42.8,92.2Z"/>
  <path class="cls-18" d="M735.8,403.6c-.9,12.1-1.9,23.7-2.7,35.3-1.8,25.7-3.4,51.4-5.3,77.2-.6,7.7-3.1,9.4-10.6,8.7-11.3-1.1-22.5-1.9-33.8-2.7-6-.4-12-.7-17.9-1.1-5.3-.4-7.6-3.4-7.2-8.7,1.3-17.4,2.5-34.8,3.8-52.2,1.9-25.9,3.9-51.7,5.7-77.6,1.1-15.3,2.1-30.5,3.2-45.8,1.6-22.4,3.3-44.8,4.8-67.2.8-11.4,1.6-22.9,2.2-34.4.5-9.6,2.2-11.1,11.8-10.3,15.6,1.2,31.2,2.3,46.8,3.2,10,.6,11.2,1.5,10.6,11.5-1.7,26.4-3.5,52.8-5.3,79.2-1.9,28.2-4,56.4-6.1,85.1Z"/>
  <path class="cls-24" d="M1247,436.3c-6.5-8.2-12.8-16.2-18.9-24.3-5.3-7.1-10.3-14.3-15.4-21.5-4.3-6.1-9.9-9.2-17.6-9.7-16.9-1.2-33.7-3.1-50.5-5-5.2-.6-9.5-3.2-11.1-8.7-1.6-5.6-.7-10.7,4.1-14.3,10.3-7.6,20.7-15.1,31.1-22.6,4.4-3.2,8.8-6.5,13.4-9.6,4.8-3.2,7.2-7.9,7.7-13.4,1.5-15.2,2.8-30.4,4.3-45.6.3-3,.6-6,1.2-8.9,1.1-5.6,4.5-9.4,10.1-10.5,5.5-1.1,10.2.9,13.5,5.5,8.8,12.1,18.2,23.9,26,36.6,6.7,10.9,15.7,15.1,27.9,15.8,14.4.8,28.8,2.6,43.1,4,6.8.7,11.1,4.3,12.7,10.2,1.4,5.4-.8,10.6-6.4,14.6-12.4,8.9-24.5,18.5-37.5,26.5-10.3,6.4-13.1,15.3-13.9,26.3-1,14.6-2.5,29.1-4.1,43.6-1.2,10.7-9.7,15.4-19.8,11Z"/>
  <path class="cls-36" d="M1086.9,522.1c-15,8-31,11.8-47.9,12-18.9.2-37.9,0-56.8,0-9.5,0-12.4-2.7-14.2-11.9-1.8-9.3-3.8-18.5-5.7-27.8-1.6-7.5,0-9.2,7.6-9.4,13.8-.2,27.6-.5,41.4-1.1,2.5,0,5.2-1.2,7.5-2.3,7-3.5,9-8.7,5.5-15.6-3.5-7-7.6-13.7-11.7-20.3-5.4-8.8-9.2-18.1-10.3-28.3-1.2-10.9,3.7-24.7,18.3-33.6,11.3-6.9,23.8-9.9,36.8-11.6,14-1.9,27.8-.7,41.6,1.8,6,1.1,9.4,4,10.6,10.1,2,10.6,4.4,21.1,6.5,31.7,1.1,5.6-.7,7.7-6.5,7.3-4.6-.3-9.3-1.1-13.9-.8-3.3.2-7.4,1.1-9.6,3.2-2.1,2-2.2,6.1-3.6,9.6-4.5-1.4-8.5-3.2-12.4-5.1-.1-.3-.4-.4-.7-.5.2.2.4.4.6,1,1.3,2.3,2.4,4.3,3.7,6.2,18,26.4,21.4,55,13.2,85.5Z"/>
  <path class="cls-10" d="M1712.1,505.3c.5-6.9,1.2-13.5,1.9-20.1.3-3.3,1.7-4.5,5.3-3.7,4.3,1,8.8,1.1,14.3,1.7-7.3-20.5-14.3-40.1-21.7-60.6,4.1.8,7.5,1.2,10.8,2,24.8,5.9,48.1,15.3,69.6,29,1.5,1,3.2,1.7,5.2,2.5.4,0,.4-.1.3.2.3.5.6.6.9.8,3.7,9.8,7.5,19.5,10.9,29.3,1.8,5.1,2.8,10.6,4.5,17.3-5.3-1.1-9.6-1.9-13.7-2.7,1.8,8.6,4.1,17.2,5.5,26,3.8,23.1,2,46-3.8,68.6-4.6,17.7-12,34.2-23.4,48.6-2.5,3.1-5.4,5.8-8.5,8.8-.4,0-.5,0-.5,0,1.5-4.9,3-9.8,4.4-14.7,6-21.9,3.2-43.2-5.6-63.7-7.6-17.8-18.5-33.5-32.5-46.9-7.8-7.5-15.9-14.6-24-22.2Z"/>
  <path class="cls-9" d="M1441.2,240.3c1.6-10.6,3.4-20.7,4.7-30.9.6-4.2,2.2-7.1,6.3-8.7,20.7-8.2,41.4-16.4,62.1-24.7,4.6-1.8,8.4-1.1,12.4,2.1,16.8,13.6,33.7,27.1,50.7,40.4,3.4,2.7,5.1,5.6,4.5,9.8-1.3,9.7-2.7,19.4-4.1,29.1-1.9,12.6-4,25.2-5.7,37.9-.6,4.2-2.7,6.8-6.3,8.2-21.2,8.5-42.3,17-63.6,25-2.6,1-7,0-9.2-1.6-18.2-14-36.1-28.3-54.1-42.6-3.7-2.9-3.2-6.9-2.6-11,1.6-10.8,3.2-21.7,4.8-32.9M1473.9,290.7c0,0-.2-.1-.2-.2.1.1.2.3.6,1,8,6.4,16,12.9,24.1,19.2.8.6,2.3,1.2,3.1.9,10-3.8,20-7.8,30-11.7-7.6-2.2-15.1-3.4-22.6-4.4-11.6-1.6-23.3-3-35-4.8M1457.6,247.7c11.8-14.9,23.7-29.8,35.5-44.7-.3-.3-.6-.7-.9-1-9.7,3.8-19.4,7.6-29,11.5-.9.4-1.9,1.6-2,2.5-1.5,10.6-2.8,21.3-4.4,32,0,0,.1,0,.8-.4M1504.2,214.7c-14.9,18.9-29.8,37.7-45.4,57.3,31.1,4.6,61.3,9,92.7,13.6-11.7-29.7-22.9-57.7-34.4-86.9-4.8,5.9-8.7,10.6-13,15.9M1565,235.6c1.9-4.8-.7-7.6-4.3-10.1-1.4-.9-2.6-2-3.9-3.1-5.7-4.4-11.4-8.8-17-13.2l-.9.7c7,17.8,14.1,35.6,21.1,53.3.3-.1.6-.2.9-.3,1.4-8.8,2.8-17.6,4.2-27.3Z"/>
  <path class="cls-32" d="M1107,635.9c-2.3-13.7-9.1-25.1-18-35.4-8.3-9.6-17-19-24.9-27.8,7.5-2.1,17.1-1.2,26.9,2.3.3,0,.1,0,.2.2.3.4.6.6,1.2,1,4,2.7,8.1,4.8,11.3,7.8,6,5.5,11.5,11.5,17.3,17.6.3.3.6.3.8.4,0-.4-.2-.9-.3-1.7-8.4-23.2-6.9-44.9,7.9-65,.9-1.2,1.3-2.6,2-3.9,4.2-5.8,8.5-11.7,12.6-17.6,2.7-3.9,5.2-8,8.2-12.5.6-1.1.7-1.6.9-2.2,0,0,0,0,.3,0,7.4-10.7,14.5-21.2,22.3-32.7,2.5,6.2,4.8,11.4,6.7,16.7,5.3,15.3,6.9,30.7.5,46.1-4.6,11.1-10.3,21.5-20.5,29.1-26.4,2.1-32.2,22.3-23.9,43.1,6.2-14,15.3-25.6,25.9-36.4,5.7-4.8,11.1-9.4,16.5-14.1.5.3,1.1.5,1.6.8.2,7.5.4,15,.5,23-2.9,14-5.6,27.6-8.5,41.1-1.5,7.1-4,14-1.7,21.4.9,9,5.9,15.9,11.2,22.7,1.6,2.1,4,3.8,1.3,7.3-7,5.2-14.1,4.9-21.3,2.8-6.8-2-13.6-4.7-20.5-6.1-16.8-3.3-27.9-13.9-36.6-27.7M1122.5,603.5v-.3c.1,0,0,0,0,.3Z"/>
  <path class="cls-44" d="M558.2,215c-6.9-2.4-13.8-4.8-21.1-7.6,1.1-15.4,2.6-30.2,4.2-45.5,4.4.4,8.4.7,12.3,1.2,3.7.5,5.6-.4,5.8-4.6.1-4.1.8-8.3,1.4-12.4.5-3.4-.9-4.9-4.2-5.2-4.6-.4-9.2-1.1-13.8-1.7,2.4-7.1,4.6-14.2,7.4-21.2,2.1-5.3,6.7-7.3,12.3-5.4,24.3,8.6,48.6,17.2,72.8,26,7,2.5,8.9,6.7,6.4,13.8-8.4,23.8-16.9,47.6-25.6,71.4-2.8,7.7-6.7,9.3-14.5,6.7-5.7-1.8-11.3-4-16.9-6.4,17.7-6.8,22.5-17.7,15.3-35.2-1.4-3.4-3-6.7-4-10.2-1.9-6.5,1-10.3,7.8-10.7,1.3,0,2.7,0,4,0,2.6.2,3.7-.8,3.5-3.4-.3-3.6-.7-7.3-.7-11,0-3.6-1.8-5.1-5-5.6-8.2-1.2-16.3-.9-24,2.3-11.2,4.7-15.9,14.2-12.5,25.9,1.5,5.2,3.9,10.2,5.8,15.4,2.6,7.2-.4,12.1-8,13.2-2.7.4-6.8-.2-7.9,1.3-1.4,2-.5,5.7-.6,8.6Z"/>
  <path class="cls-9" d="M1183.1,574c-.2-7.5-.4-15-.6-22.5-.5-.3-1.1-.5-1.6-.8-5.4,4.6-10.8,9.3-16.6,13.7-.8-2.2-1.2-4.2-1.6-6.2,9.8-7.6,15.5-18,20.1-29.1,6.3-15.4,4.8-30.8-.5-46.1-1.9-5.4-4.2-10.6-6.7-16.7-7.8,11.5-14.9,22.1-22.3,32.8,1.7-10.1,3.6-20.3,5.7-30.6,1.6-7.8,3.3-15.6,5.1-23.3,1.2-5.1,3.5-6.4,8.7-5.3,17.7,3.8,35.3,7.6,53,11.4,5.7,1.2,7.2,3.8,5.8,9.8-5.8,26.4-11.6,52.8-17.3,79.2-.1.5,0,1,.2,2-12.7,8.6-22.9,19.2-31.2,31.8Z"/>
  <path class="cls-28" d="M1131.3,530.7c-.7,1.8-1.1,3.3-2,4.4-14.7,20.1-16.2,41.7-8,65.1,0,.5-.4.8-.4.8-5.7-5.8-11.2-11.8-17.2-17.3-3.3-3-7.3-5.1-11.4-8.1-.6-.6-.9-.8-1.2-.9,0,0,.2,0,.3,0-1.8-11.9-4-23.7-5.3-35.7-.6-5.3.6-10.9.9-16.7,8.2-30.9,4.8-59.5-13.2-85.9-1.3-1.9-2.5-3.9-3.7-6.2,0-.3,0-.3,0-.3,4.1,1.8,8.1,3.5,12.5,5.4,14.7,9.4,27.4,20.5,36.5,35.2,11.4,18.4,15.4,38.3,12.3,60.1Z"/>
  <path class="cls-37" d="M672.3,571.4c11.4-17.7,31-26.1,51.4-22.3,19.3,3.6,34.8,19.9,38.4,40.4,4,22.4-9.7,46-31.2,53.6-22.4,8-47.4-1-58.9-20.8-9.9-17-9.1-33.8.3-51M716.2,566.4c-.9-1.2-1.8-2.4-2.8-3.5-5.7-5.9-9.2-5.2-12.1,2.6-3.3,9.1-2.6,18.6-1.8,28,0,.4.6.8,1,1.2,8.4-1.7,16.8-3.4,26.7-5.4-3.7-7.9-7.1-15.2-11-23M706.8,619.6c3.2,4.5,6.1,9.4,9.8,13.5,3.3,3.6,6.4,2.7,8.6-1.6,4.7-9.1,4.1-18.9,3.2-28.7,0-1-2.8-2.7-4.1-2.6-6.5,1-13,2.5-19.5,3.7-2.7.5-3.3,1.8-2.3,4.2,1.4,3.6,2.6,7.2,4.2,11.4M695.8,618.7c-1-3-1.8-6.1-3.1-8.9-.5-1.2-2.3-2.7-3.4-2.6-4,.4-8,1.5-11.9,2.3,3.1,12.1,16.4,24.4,25.2,23.7-2.2-4.6-4.4-9.2-6.8-14.6M684.4,571.9c-6.6,8-10.2,16.9-9.2,27.9,5.2-1.1,9.9-2.1,14.2-3v-29.2c-.6-.5-1.1-1-1.7-1.5-1,1.7-2,3.4-3.4,5.7M738.3,597.9v29c9.3-6,15.9-21.1,13.9-32.1-4.4.8-8.9,1.7-13.9,3.1M734.9,583.7c.2,2.7,1.8,3.8,4.4,3.3,3.5-.7,7.1-1.5,10.5-2.2-.9-10.1-14-22.8-24.2-24.1,3,7.3,6.1,14.8,9.3,23Z"/>
  <path class="cls-19" d="M907.8,225.3c-9.1-8-15.1-17.3-13.5-29.4.9-6.6,3-13.4,6.2-19.2,14.4-26.2,36.9-41.3,66-47.8,19.7-4.4,34.6,4.7,48.9,15.3,16.5,12.2,28.4,28.4,35.6,47.8,3.9,10.7,6.4,21.8,2.1,33-4.2,10.9-12.8,17.6-23.5,20.8-9.1,2.7-18.7,4.5-28.2,5.1-25.8,1.8-50.7-3-74.2-13.9-6.7-3.1-12.8-7.7-19.4-11.8M921.4,164.9c-4.8,7-10.2,13.6-14.1,21-4.8,9.3-4.8,18.7,2.9,27.2,6.1,6.7,13.4,11.4,21.5,14.9,15,6.6,30.6,11,47,12.4,15.5,1.3,31,1.6,45.9-3.5,9.1-3.2,17.9-7.8,19.6-18.6.9-5.5.4-11.7-1.2-17.1-6.9-23.7-21.6-41.7-42.3-54.7-9.7-6.1-19.6-10.5-31.9-7.6-18.1,4.2-34.2,11.5-47.4,26Z"/>
  <path class="cls-9" d="M815.3,148.2c9.7,1.6,19,3,28.2,5.1,6.8,1.6,12.9.4,18.8-2.5,7.6-3.7,15.1-7.7,22.7-11.5,1-.5,2-.9,3.5-1.6,2,8.7.8,16.9-.7,24.9-2.2,11.8-6.5,22.6-16.8,30.1-16.9,12.3-44.8,12.8-61.4.2-6.3-4.8-11.7-10.8-17-16.6-1.2-1.3-1.7-4.4-1.1-6.3,3.7-11.4,10.4-20,23.7-21.8Z"/>
  <path class="cls-14" d="M699.5,139.8c15.5,1.5,30.6,3.1,45.6,4.5,4,.4,5.1,1.9,4.3,5.8-.8,4.1-.9,8.2-1.3,13.1-6.1-.5-11.8-.9-18.1-1.4-.8,9.3-1.6,18.5-2.4,28.1,7.3.3,14.3.8,21.2.9,3.8,0,5.1,1.5,4.8,5.1-.2,3.3-.3,6.7-.3,10,0,2.7-1,3.9-3.8,3.8-21.5-.8-42.9-1.6-64.4-2.4-.6,0-1.3-.3-2.2-.5v-17.7h23.3c.8-9.8,1.6-19.4,2.4-29.5-4.6-.5-8.9-1.3-13.3-1.4-3.9,0-5-1.7-4.4-5.3.4-2.5.7-4.9.9-7.4.6-6.6.5-6.6,7.6-5.6Z"/>
  <path class="cls-29" d="M1106.7,635.8c9,13.9,20.1,24.5,36.9,27.8,7,1.4,13.7,4,20.5,6.1,7.3,2.2,14.4,2.4,21.2-2.4.7.2,1.3.4,1.5.8,4.6,10.8,9.1,21.5,13.3,32.6-13.2-8.2-26.9-14.8-41.7-18.9-11-3.1-22.2-5.6-33.5-7.5-5.6-.9-9.5-3.1-13.2-7.4-16.4-19-34.8-35.9-57.3-47.4-8.6-4.4-18-7.4-27.1-11.1,11.3-4,23-4.3,34.8-.7,17.4,5.3,30.6,17,44.5,28.3Z"/>
  <path class="cls-27" d="M542.3,139.3c5,.5,9.6,1.2,14.2,1.6,3.4.3,4.8,1.7,4.2,5.2-.6,4.1-1.3,8.2-1.4,12.4-.1,4.2-2.1,5.1-5.8,4.6-3.9-.5-7.9-.8-12.3-1.2-1.6,15.3-3.1,30.1-4.6,45.4-.1.9-.4,1.4-.4,1.8-.5,10.4.2,9.7-11,8.6-4.7-.5-11.3-.1-13.4-2.9-2.2-2.9-.2-9.2.3-13.9,1.4-13.7,2.9-27.4,4.4-41.5-4.3-.5-8.2-1.2-12.2-1.2-4.7,0-6.2-2.1-5.4-6.5.4-2.1.7-4.3.8-6.4.9-11.5.4-9.7,10.8-8.9,10.4.8,20.8,2.1,31.7,3.1Z"/>
  <path class="cls-27" d="M1183.1,574.4c8.4-13,18.6-23.6,31.5-31.9,7-4.3,13.9-8.3,22.1-13.1-2.2,6.4-4.2,11.3-5.5,16.3-3.2,11.9-5.2,24.1-9.3,35.6-5.5,15.5-14.3,28.8-30.3,35.9-8.6,3.8-15.3,9.9-18.7,19.4-2.3-7,.1-14,1.6-21,2.9-13.5,5.7-27.1,8.5-41.1Z"/>
  <path class="cls-8" d="M558.4,215.3c0-3.3-1-7,.4-9,1.1-1.5,5.2-.9,7.9-1.3,7.6-1.1,10.6-6,8-13.2-1.8-5.2-4.3-10.1-5.8-15.4-3.4-11.7,1.3-21.2,12.5-25.9,7.7-3.3,15.8-3.5,24-2.3,3.2.5,5,2,5,5.6,0,3.7.4,7.3.7,11,.2,2.6-.9,3.7-3.5,3.4-1.3-.1-2.7-.1-4,0-6.8.5-9.7,4.2-7.8,10.7,1,3.5,2.6,6.8,4,10.2,7.2,17.5,2.4,28.4-15.6,35-5.4.7-10.6,1.9-15.6,1.5-11.2-.8-9.3-.4-10.3-10.2Z"/>
  <path class="cls-9" d="M934.9,358.9c5.5-1.5,5.9-1,5.4,3.9-1.2,10.8-4.8,20.7-11.7,29.1-8.1,9.9-20,11.7-31.6,14.1-7.1,1.5-14.2,2.9-21.8,4.4-3.3-10.8-4.1-21.9-.3-33.2,4.1-12.1,21.1-17.6,33.1-15.9,9.1,1.3,17.8.7,26.9-2.4Z"/>
  <path class="cls-9" d="M1085.1,255.8c-7.8-4.7-15.4-9.2-24.4-14.6,7.4-2.8,13.4-5.4,19.6-7.4,11.1-3.6,22.3-5,33.6-.9,3.4,1.3,6.6,3.2,9.6,5.2,6.5,4.4,7.3,11.1,6.4,18.2-.3,2.3-.5,4.7-1.2,6.8-1,3.2-1.6,7.9-3.8,9-4.6,2.2-10.1,3.3-15.2,3.2-6.6,0-11-4.8-15.1-9.6-2.9-3.4-6.1-6.6-9.4-10.1Z"/>
  <path class="cls-20" d="M1018,284.1c9.7.2,18.8.3,28,.6,9.5.3,13.8,5.1,11.2,14.2-2.1,7.4-5.9,14.3-9.2,21.3-1.5,3.3-4.4,3.7-7.6,2.5-.8-.3-1.6-.5-2.4-.7-9.5-2.7-9.6-2.7-7.9-12.5.7-3.8-.4-5.1-4.2-5.2-12.8-.2-25.6-.8-38.4-.9-3.8,0-5-1.4-4.7-5,.3-3.1.4-6.3.2-9.5-.3-3.9,1.1-5.3,5.1-5.2,9.8.3,19.6.3,30,.4Z"/>
  <path class="cls-31" d="M818.1,259c3-8.5,6.2-16.5,8.7-24.8,1.3-4.2,3.2-5.3,7.2-3.6,4,1.7,8.3,2.6,12.2,4.4,1.5.7,3.4,3.2,3.1,4.5-5.4,26.4-16.4,49.4-40.7,64-3.4,2-6,2.2-8.9-.6-3-2.9-6.1-5.5-9.9-8.9,13-9,21.9-20.7,28.2-35Z"/>
  <path class="cls-29" d="M487.9,65.3c7.8,14.8-.5,29.6-17.1,31.4-4.4.5-8.8,1.2-13.1,2.1-2.7.6-3.9,0-4.6-2.7-4.1-15.4-8.3-30.7-12.6-46.1-.7-2.4-.5-3.7,2.2-4.3,3.8-.8,7.6-2,11.7-3.1,1.8,6.3,3.4,12,5.1,17.8,10.4-3.9,20.3-5.5,28.4,4.9M471.2,84c4.4-3.4,5.5-7.2,2.9-10.9-2.3-3.3-5.3-3.3-8.7-2.1-3.7,1.3-2.1,3.8-1.5,6,.4,1.4.8,2.8,1.1,4.3.6,3.3,2.2,4.6,6.2,2.6Z"/>
  <path class="cls-7" d="M1313.8,550.6c.7-.9,1.2-1.8,1.8-1.8,6.4,0,12.9-.2,19.3.3,13.3,1.2,21.7,13.1,18.2,25.5-2.5,9.1-11.2,14.4-21.4,13.1-2.1-.3-4.2-.8-6.9-1.4-.6,4.4-1.4,8.8-1.8,13.2-.2,2.9-1.5,3.8-4.2,3.3-3.7-.7-7.4-1.2-11.7-1.8,2.2-17,4.4-33.5,6.6-50.4M1326.6,571.5c-1.1,3.3,1.5,3.5,3.5,4,3.9.9,7.4-1.5,8-5.3.8-4.7-2.2-8.7-6.9-9.1-5.4-.4-3.5,4-4.2,6.6-.3.9-.2,2-.5,3.8Z"/>
  <path class="cls-14" d="M1358.2,580.2c2.8-6,5.4-11.7,8-17.2,7.1,2.2,13.8,3.8,20.2,6.3,8.6,3.4,13.7,11.9,12.9,20.5-.7,8.3-6.2,15-13.9,16.9-5.5,1.3-11,0-19.8-4.8-2.4,5-4.7,9.9-7.3,15.3-4.8-2.2-9.1-4.1-13.9-6.3,4.7-10.4,9.1-20.3,13.7-30.6M1382.2,591.7c3.6-7,1.2-11.6-6.5-12.3-1.2,2.5-2.1,5.1-3.6,7.5-2.5,4.1-.1,6,3.2,6.7,2,.4,4.3-.8,6.9-1.9Z"/>
  <path class="cls-15" d="M1299,256c0,2.8,0,5.2-.3,7.4-.7,4-3.2,6.5-7.5,6.7-4.5.2-7.4-1.7-8.3-6.2-.5-2.4-.7-4.9-.7-7.4,0-6.6,0-6.6-6.4-6.6-1.8,0-3.7.1-5.5,0-5-.5-8-3.3-8.3-7.7-.3-4.7,2-7.5,7.1-8.7,1-.2,2-.4,2.9-.4q9.5-.5,10.1-10.4c0-1,.2-2,.5-2.9,1.3-5.2,4-7.2,8.8-6.9,4.9.4,6.8,3.7,7.5,8,.4,2.8.2,5.7,0,8.5-.2,2.9,1.1,3.7,3.8,3.8,3.6,0,7.3.2,10.9.9,4,.8,5.6,3.8,5.5,7.8-.1,4-1.9,6.8-5.9,7.5-2.9.5-6,.8-8.9.5-4.6-.5-6,1.5-5.4,6.2Z"/>
  <path class="cls-31" d="M934.9,286.9c3.3-3.1,6.5-5.7,9.4-8.8,2.5-2.6,4.4-2.9,6.9,0,3,3.7,8.7,7.1,8.9,10.8.2,3.7-4.9,7.8-8,11.3-10.8,12.3-23.3,22.7-37.2,31.4-2.4,1.5-3.8,1-5.5-.9-2.9-3.2-5.8-6.4-9-9.4-3-2.8-3.1-4.6.5-7.3,11.5-8.8,22.6-18,34.2-27.3Z"/>
  <path class="cls-14" d="M766.3,120.3c-5.1-4.1-10.6-3.5-16.4-3.3-9.4.3-17.8-7.6-18.8-16.6-1-9,5.1-17.9,13.8-19.9,2.4-.5,5-.6,7.4-.2,6.2,1,12.2,2.6,18.4,3.7,3.3.6,4.2,2,3.3,5.1-1,3.7-2.2,7.4-2.4,11.1-.2,3.7.6,7.4,1,11.1.7.2,1.5.4,2.2.6-2.7,2.8-5.4,5.7-8.5,8.4M750.1,92.4c-4.2,3.1-5.6,6.7-3.5,10,2.2,3.5,5.4,4,9.1,2.4.1-2.2,0-4.4.5-6.5,1.2-4.8-.9-6.5-6.1-5.9Z"/>
  <path class="cls-29" d="M1297.2,561.4c-1,4.2-1.9,8-2.7,11.8.5.2,1,.3,1.5.5-1,.9-1.9,1.8-2.9,2.6-6.4,5.3-6.3,5.2-11.7-1-1.2-1.3-3.6-1.9-5.5-2.2-9.7-1.2-17.7-9.6-17.9-19.1-.2-8.9,6.6-17,15.7-18.4,2.4-.4,5.2-.4,7.3.6,7.8,3.8,15.4,8,23.5,12.3-2.6,4.6-4.9,8.6-7.3,12.9M1273.3,552c-2.1,6.4,0,9.6,7.1,9.9,1.1-2.5,2.1-5,3.3-7.5,1.5-3.1-.1-5.3-2.7-5.5-2.3-.1-4.8,1.6-7.7,3.1Z"/>
  <path class="cls-37" d="M793,351.8c-6,0-11.6,0-17.1,0-1.6-6.9,7.2-20,16.9-21.6,4.7-.8,9.6-1.2,14.3-.9,10.6.6,20.5-1.2,29.5-7,.8-.5,1.8-.7,3.2-1.2-1.5,11.8-7.4,20-16.4,26.5-9.3,6.8-19.2,8.6-30.4,4.3Z"/>
  <path class="cls-29" d="M569,81.4c-1.7-1.5-3.3-2.6-5.4-4.1-1.3,8.7-2.5,16.4-3.8,24.7-5.1-.7-9.8-1.4-15.1-2.2,1.2-8.9,2.3-17.4,3.6-25.9,1.4-9,1.4-9.1,10.5-8.5,4.8.3,9.7.4,14.2,1.8,8.7,2.8,13,9.9,13.3,19,.1,4.8,1.2,9.5,2.1,16-2.3.8-6.4,3.8-9.5,3-5.6-1.5-8.3-6.7-8.7-12.7-.2-3.6-.6-7.2-1.1-11.2Z"/>
  <path class="cls-14" d="M529.7,103.8c-1.2,3.3-2.8,3.9-5.8,2.4-4.6-2.2-9.4-4.1-14.3-5.6-11.2-3.6-15.4-11.3-11.5-22.4,1.7-5,4-9.8,5.9-14.8,1.1-2.9,2.8-3.5,5.8-2.4,9.7,3.3,9.7,3.2,6.1,13.1-1.2,3.3-2.4,6.6-3.2,9.9-.7,2.8.8,4.6,3.7,5.5,3,.9,3.7-1,4.7-3,2.3-4.6,4.7-9.1,6.9-13.8,1.3-2.8,2.6-3.5,5.7-2,10.2,5,10.3,4.9,5.2,15-3,5.9-6,11.9-9.2,18.1Z"/>
  <path class="cls-20" d="M1013.7,350.7c-7.8,10.9-12.8,11.6-22.8,3.4-.9-.7-1.3-3-.9-4.1,3.5-10.7,7.1-21.3,11.1-31.9.5-1.4,3-3.2,4.5-3.1,5.3.3,10.5,1.3,15.8,2.3,3,.5,3.8,2.5,3.4,5.5-1.4,10.1-5.3,19.1-11,27.9Z"/>
  <path class="cls-23" d="M700.8,102.3c-.5,9.6,6.8,10.5,13.1,12.1-2.4,9.8-4.8,11.2-13.5,8-7.7-2.8-12.5-8.2-13.3-16.5-.7-7.6,2.1-14,8.9-17.7,7.5-4.1,15.5-4.1,22.8.7,5.2,3.4,6.8,9.1,5.7,15-.4,2.1-3,4-5,5.4-1.2.8-3.2.7-4.8.8q-8.2.6-9.2-8.2c1.5-.6,3.1-1.2,6.2-2.3-2.4-1.3-4.3-2.9-5-2.5-2.1,1.1-3.7,3.1-5.6,5.2Z"/>
  <path class="cls-42" d="M834.7,116.8c3.9,2.8,7.6,5.3,11.8,8.1-.5,7.1-3.5,9.3-11.3,7.2-8.3-2.3-13.7-7.6-15-16.2-1.1-7.5,1.5-13.8,8-18.1,6.4-4.2,17.2-4.2,23.3,0,4.6,3.1,7.7,10.2,6,15.4-.7,2.2-3.1,3.9-5.1,5.4-1.1.8-2.9.5-4.4.7q-8.5.9-9.6-8.2c1.4-.5,2.9-1,5.4-1.9-1.4-1.2-2.5-2.9-3.5-2.9-1.6,0-4.3.7-4.7,1.8-.9,2.6-.8,5.6-.9,8.8Z"/>
  <path class="cls-43" d="M631,89.4c-.2,9.7,3.4,10.8,17.1,5.9,5.5,7,4.9,9.9-2.9,13.3-5.3,2.3-10.9,2.9-16.5,1.2-10-3-15.6-12.5-13.2-22.6,2.5-10.5,12.4-16.8,23.7-15,.7.1,1.3.3,1.9.5,10.5,2.1,11.5,5.5,4.4,14-9.7-3.5-10.8-3.3-14.4,2.7Z"/>
  <path class="cls-43" d="M799.6,127.6c-7.9-4.5-7.6-12.7-9.8-19.8-1.9-.1-3.7-.2-5.3-.3-2.6-10.3-2.1-12.4,3.5-13.8,1-10.2,1-10.4,12.3-10.3,7.2,0,1.8,6.6,4.9,9.4,1,0,2.6.2,4.1.3,2.7,10,2.1,12.4-4.8,13.8,1.9,4.2,3.7,8,5.5,11.9-.2,11-1.3,12-10.5,8.8Z"/>
  <path class="cls-13" d="M1341.1,280.4c-1.3.2-2.4.6-3.3.3-4.2-1.4-7.1-1.4-8.2,4.2-.7,3.6-4.1,5.8-8.2,4.7-4-1.2-6.3-4.4-5.1-8.4,1.4-4.4.3-6.2-4.1-7.4-4.2-1.1-6.2-4.9-4.9-8.4,1.4-3.9,4.3-6.1,8.5-4.8,4,1.2,6.1.5,7.2-3.9.9-4,3.9-6.3,8.2-5.4,4.1.8,6.2,4.5,5,9.3-.9,3.6,0,5.2,3.7,6.6,2.4.9,5.3,3.7,5.6,6,.3,2.2-2.5,4.7-4.4,7.2Z"/>
  <path class="cls-14" d="M799.5,222.6c2.3.7,4.2,1.3,6.1,1.9,7.6,2.5,8,2.7,5.4,10-2.8,7.9-6.4,15.6-9.6,23.4-1.3,3.2-3.4,3.7-6.4,2.4-16.5-6.9-14.8-2.4-10.3-19.3,1.4-5.3,3.2-10.5,4.3-15.9.9-4.9,3.3-5.6,7.3-3.7.9.4,1.9.6,3.2,1.1Z"/>
  <path class="cls-43" d="M660,72.3c.4-1,.8-1.9,1.1-1.9,7.4.1,14.9.2,22.3.7.9,0,2,2.3,2.3,3.6.2,1-.7,2.2-.9,3.3-.8,4.2-2.7,6.7-7.4,4.8-.6-.2-1.3,0-2.4.1-.4,6.6-.9,13.2-1,19.8,0,3.1-1.1,4-4.2,3.8-11.3-.5-11.4-.4-10.9-11.4.3-7.5.7-15,1.1-22.9Z"/>
  <path class="cls-43" d="M880.9,282.9c10.4-7.7,7.5-7.1,17.8-1.1,3,1.8,5.7,4,8.3,6.3,2.2,1.9,2.1,3.9-.4,5.7-4,3-7.8,6.2-11.9,9.1-1,.7-3.5,1-4.2.3-5.3-4.7-10.4-9.7-16.1-15.1,2.5-1.9,4.4-3.4,6.5-5.1Z"/>
  <path class="cls-7" d="M897.6,258.5c2.9-6,7.3-6.6,12.6-4.5,3.9,1.5,7.8,2.7,11.6,4.4,2.7,1.2,3.7,3.1,1.5,5.9-2.8,3.7-5.3,7.6-8.2,11.3-.8,1-2.7,2.5-3.4,2.2-6.8-3.2-13.5-6.7-20.7-10.4,2.6-3.5,4.4-6,6.5-8.8Z"/>
  <path class="cls-37" d="M1108,308.1c4.7,6.6,5.9,13.9,5,21.4-1,9.1-11.5,14-18.7,8.9-2.4-1.7-3.4-10-1.4-14.2,3.3-6.8,7.9-12.6,15.1-16.2Z"/>
  <path class="cls-26" d="M1162.7,174.1c3.4.3,6.5.2,9.3.9,2,.5,4.3,1.9,5.4,3.5.5.7-1,3.5-2.2,4.8-9.6,10-24.3,7-31.8-6.9,6-3.3,12.4-2.4,19.2-2.4Z"/>
  <path class="cls-38" d="M1379.7,273.5c-1.8,0-3.9.4-5.1-.5-1.5-1.1-2.3-3.2-3.7-5.3-1.8,1-3.4,2.2-5.2,2.7-1.6.4-3.3-.3-5-.4.5-1.5.7-3.9,1.7-4.4,4.5-2.3,5.8-4.8,2.4-9.2-.7-.9.5-3.1.8-4.7,1.4.6,3.6.7,4.1,1.7,2.2,4.6,4.7,5.9,9.2,2.5.9-.7,2.9.3,4.4.4-.3,1.5-.2,4-.9,4.3-5.8,2.3-5.8,5.7-2.7,10.3.4.6,0,1.6-.1,2.8Z"/>
  <path class="cls-12" d="M1406.7,256.8c.2,1,0,1.8.3,2.3,3.9,6.8-.8,8.1-5.9,9.3-.6.1-1.7.5-1.8.4-1.4-2.9-2.9-5.8-3.8-8.9-.2-.6,2-2.4,3.3-2.7,2.5-.6,5.1-.6,7.8-.4Z"/>
  <path class="cls-9" d="M1152.7,499.1c.1.4,0,1-.4,1.8-.1-.4,0-1,.4-1.8Z"/>
  <path class="cls-10" d="M1770,653c0,.3-.3.4-.4.6,0-.2,0-.4,0-.7.2-.1.3,0,.4.1Z"/>
  <path class="cls-34" d="M1798.8,456.8c-.2,0-.6-.1-.9-.6.3,0,.5.1.9.6Z"/>
  <path class="cls-25" d="M1381.7,421.1c2.8.7,5.3,1.1,7.6,2,5.9,2.2,8.5,6.1,8.9,12.8.8,12.4,2.9,24.7,4.2,37.1.2,1.6-.4,4.3-1.5,4.9-12.8,6.8-30.5,8.6-41.5-4.8-9-10.9-9.5-23.2-3.9-35.6,4.9-10.8,13.5-16.6,26.1-16.3Z"/>
  <path class="cls-22" d="M1650.8,472.3c-.5-.2-.8-.5-1.1-.9.4,0,.8,0,1.3.3.2.2,0,.5-.2.6Z"/>
  <path class="cls-28" d="M1070,430c-.2-.2-.4-.4-.5-.7.3,0,.5.2.7.5-.2.2-.1.2-.1.2Z"/>
  <path class="cls-4" d="M1504.4,214.4c4.1-5,8-9.8,12.7-15.6,11.5,29.1,22.7,57.2,34.4,86.9-31.4-4.6-61.6-9.1-92.7-13.6,15.5-19.6,30.4-38.4,45.6-57.6Z"/>
  <path class="cls-3" d="M1457,248c1.3-10.7,2.6-21.3,4.1-32,.1-.9,1.1-2.1,2-2.5,9.6-3.9,19.3-7.7,29-11.5.3.3.6.7.9,1-11.8,14.9-23.7,29.8-35.8,44.8-.3.2-.3.2-.3.2Z"/>
  <path class="cls-3" d="M1565,236c-1.4,9.2-2.8,18.1-4.2,26.9-.3.1-.6.2-.9.3-7-17.8-14.1-35.6-21.1-53.3l.9-.7c5.7,4.4,11.4,8.8,17,13.2,1.3,1,2.6,2.1,3.9,3.1,3.6,2.5,6.2,5.3,4.3,10.6Z"/>
  <path class="cls-3" d="M1474,291c11.6,1.5,23.3,2.9,34.9,4.5,7.5,1,14.9,2.3,22.6,4.4-10,3.9-19.9,7.9-30,11.7-.8.3-2.3-.2-3.1-.9-8.1-6.3-16.1-12.8-24.3-19.5-.1-.3-.2-.3-.2-.3Z"/>
  <path class="cls-3" d="M1474,291c-.1-.1-.2-.3-.3-.4,0,0,.2.1.3.3,0,.1,0,.1,0,.1Z"/>
  <path class="cls-3" d="M1457,248c0,0-.1,0,0,0,.1,0,0,0,0,0Z"/>
  <path class="cls-39" d="M1162.4,558.1c.8,2,1.2,4,1.7,6.4-10.3,11-19.4,22.6-25.6,36.6-8.3-20.8-2.4-41,23.9-43.1Z"/>
  <path class="cls-28" d="M1122.4,603.4c0-.1.2-.2.2-.2,0,0-.1.3-.2.2Z"/>
  <path class="cls-28" d="M1121.4,600.7c.3.3.3.7.4,1.1-.2,0-.5,0-.8-.4,0-.3.2-.6.4-.8Z"/>
  <path class="cls-22" d="M1091.1,575.1c.2-.1.5,0,.9.5-.2.1-.5,0-.9-.5Z"/>
  <path class="cls-5" d="M716.4,566.7c3.6,7.5,7,14.8,10.8,22.7-9.8,2-18.2,3.7-26.7,5.4-.4-.5-1-.8-1-1.2-.8-9.4-1.6-18.9,1.8-28,2.9-7.9,6.4-8.6,12.1-2.6,1,1.1,1.9,2.3,3,3.8Z"/>
  <path class="cls-5" d="M706.6,619.3c-1.5-3.9-2.7-7.5-4.1-11.1-.9-2.4-.3-3.7,2.3-4.2,6.5-1.2,12.9-2.8,19.5-3.7,1.3-.2,4,1.5,4.1,2.6.9,9.7,1.5,19.6-3.2,28.7-2.2,4.3-5.3,5.1-8.6,1.6-3.8-4-6.6-9-10-13.8Z"/>
  <path class="cls-3" d="M695.9,619.1c2.3,5,4.5,9.6,6.7,14.2-8.8.7-22.1-11.6-25.2-23.7,4-.8,7.9-1.8,11.9-2.3,1-.1,2.8,1.4,3.4,2.6,1.3,2.8,2.1,5.9,3.2,9.3Z"/>
  <path class="cls-41" d="M684.6,571.6c1.2-2,2.2-3.7,3.2-5.5.6.5,1.1,1,1.7,1.5v29.2c-4.3.9-9.1,1.9-14.2,3-1-11,2.6-20,9.4-28.2Z"/>
  <path class="cls-41" d="M738.6,597.6c4.7-1.1,9.2-2,13.6-2.8,1.9,11-4.6,26.1-13.9,32.1,0-9.9,0-19.4.3-29.3Z"/>
  <path class="cls-3" d="M734.9,583.3c-3.1-7.8-6.2-15.3-9.2-22.6,10.2,1.3,23.3,14,24.2,24.1-3.5.7-7,1.5-10.5,2.2-2.6.5-4.2-.6-4.5-3.7Z"/>
  <path class="cls-33" d="M921.6,164.6c12.9-14.2,29-21.5,47.1-25.7,12.3-2.9,22.3,1.5,31.9,7.6,20.8,13,35.4,31,42.3,54.7,1.6,5.4,2,11.6,1.2,17.1-1.7,10.7-10.5,15.4-19.6,18.6-14.9,5.1-30.4,4.9-45.9,3.5-16.4-1.4-32-5.8-47-12.4-8.1-3.5-15.4-8.2-21.5-14.9-7.7-8.5-7.7-17.9-2.9-27.2,3.9-7.4,9.3-14,14.3-21.3M945.8,221c10.6,4.9,21.1,1.1,23-8.3.7-3.4.8-7.1-3.4-8.2-3.9-1.1-5.7,1.6-6.5,5.1-.8,3.4-3.3,4-6.2,3.2-3.2-.9-5.6-2.5-5.8-6.5-.1-3.2-2.4-5.8-5.5-4.9-1.9.5-4,3.4-4.3,5.5-.9,6.3,2.7,10.7,8.6,14.1M930.7,183.2c-1.1.4-2.3.7-3.2,1.3-3.7,2.4-4.7,7.3-2.2,10.9,2.4,3.6,7.5,4.6,10.8,1.4,1.7-1.7,2.8-4.9,2.7-7.3-.2-4-3.5-5.7-8-6.2M983.9,194.8c-3.7-4.1-7.3-5-10.7-2.6-3.4,2.5-4.5,5.9-2.6,9.6,1.8,3.5,5.1,5.2,9.2,3.8,4.1-1.4,5.6-4.9,4.1-10.7M966.2,144.5c-3.2,2.4-6.4,4.7-9.5,7.2-.7.6-.7,2.2-1,3.4,1.4.1,3,.8,4,.2,5.4-2.8,10.7-5.8,15.9-8.9.9-.5,1.2-2.1,1.8-3.1-1-.5-2.1-1.5-2.9-1.3-2.6.5-5.1,1.4-8.3,2.5M985.6,144c.6,1.2.9,2.7,1.9,3.5,3.5,2.9,7.2,5.6,10.9,8.1.9.6,2.3.6,3.5.8.1-1.3.9-3.2.3-3.8-2.8-2.9-5.8-5.8-9.2-8-1.8-1.2-4.6-.8-7.4-.6M986.9,161.9c-.9-5-1.7-10.1-2.8-15-.2-1-1.9-1.6-2.9-2.4-.7,1.2-2,2.4-1.9,3.5.6,4.6,1.5,9.1,2.6,13.6.8,3.5,2.5,4.3,5.1.3Z"/>
  <path class="cls-2" d="M470.9,84.1c-3.6,1.9-5.2.6-5.8-2.7-.3-1.5-.7-2.9-1.1-4.3-.6-2.3-2.2-4.7,1.5-6,3.5-1.3,6.5-1.3,8.7,2.1,2.5,3.7,1.5,7.5-3.3,11Z"/>
  <path class="cls-16" d="M1326.6,571.1c.2-1.4.1-2.4.4-3.4.7-2.6-1.2-7,4.2-6.6,4.7.4,7.7,4.4,6.9,9.1-.6,3.8-4.1,6.2-8,5.3-2-.5-4.6-.7-3.4-4.4Z"/>
  <path class="cls-35" d="M1381.9,591.9c-2.4.8-4.7,2-6.7,1.6-3.3-.7-5.7-2.6-3.2-6.7,1.5-2.4,2.4-5,3.6-7.5,7.8.7,10.1,5.2,6.3,12.6Z"/>
  <path class="cls-40" d="M750.5,92.3c4.9-.4,6.9,1.3,5.8,6.1-.5,2.1-.3,4.3-.5,6.5-3.8,1.7-6.9,1.1-9.1-2.4-2.1-3.4-.7-7,3.8-10.2Z"/>
  <path class="cls-21" d="M1273.5,551.7c2.6-1.2,5.1-3,7.5-2.8,2.6.2,4.2,2.4,2.7,5.5-1.2,2.5-2.2,5.1-3.3,7.5-7-.4-9.2-3.5-6.8-10.2Z"/>
  <path class="cls-11" d="M945.4,220.8c-5.6-3.2-9.1-7.6-8.3-13.9.3-2.1,2.4-5,4.3-5.5,3.1-.9,5.3,1.6,5.5,4.9.2,4,2.6,5.6,5.8,6.5,2.9.8,5.4.1,6.2-3.2.8-3.5,2.5-6.2,6.5-5.1,4.3,1.1,4.1,4.9,3.4,8.2-2,9.5-12.4,13.2-23.4,8.2Z"/>
  <path class="cls-17" d="M931.1,183.2c4.1.6,7.4,2.3,7.6,6.2.1,2.4-1,5.6-2.7,7.3-3.3,3.2-8.4,2.2-10.8-1.4-2.4-3.6-1.5-8.5,2.2-10.9.9-.6,2.1-.9,3.6-1.3Z"/>
  <path class="cls-11" d="M984.1,195.1c1.4,5.4-.1,9-4.2,10.4-4.1,1.4-7.4-.3-9.2-3.8-1.9-3.6-.8-7.1,2.6-9.6,3.3-2.4,7-1.5,10.8,2.9Z"/>
  <path class="cls-17" d="M966.6,144.3c2.9-.9,5.4-1.8,8-2.3.9-.2,2,.8,2.9,1.3-.6,1.1-.9,2.6-1.8,3.1-5.2,3.1-10.5,6.1-15.9,8.9-1,.5-2.7-.1-4-.2.3-1.2.2-2.7,1-3.4,3-2.6,6.3-4.8,9.8-7.4Z"/>
  <path class="cls-1" d="M985.8,143.7c2.6,0,5.4-.3,7.2.9,3.4,2.2,6.3,5.1,9.2,8,.6.6-.2,2.5-.3,3.8-1.2-.2-2.6-.2-3.5-.8-3.7-2.6-7.4-5.3-10.9-8.1-.9-.8-1.3-2.3-1.7-3.8Z"/>
  <path class="cls-1" d="M986.7,162.3c-2.5,3.6-4.2,2.8-5-.7-1-4.5-2-9-2.6-13.6-.1-1.1,1.2-2.3,1.9-3.5,1,.8,2.7,1.4,2.9,2.4,1.2,5,1.9,10,2.7,15.4Z"/>
</svg>