<?xml version="1.0" encoding="UTF-8"?>
<svg id="Layer_1" data-name="Layer 1" xmlns="http://www.w3.org/2000/svg" version="1.1" viewBox="0 0 1920 892">
  <defs>
    <style>
      .cls-1 {
        fill: #4e80ff;
      }

      .cls-1, .cls-2, .cls-3, .cls-4, .cls-5, .cls-6, .cls-7, .cls-8, .cls-9, .cls-10, .cls-11, .cls-12, .cls-13, .cls-14, .cls-15, .cls-16, .cls-17, .cls-18, .cls-19, .cls-20, .cls-21, .cls-22, .cls-23, .cls-24, .cls-25, .cls-26, .cls-27, .cls-28, .cls-29, .cls-30, .cls-31, .cls-32, .cls-33, .cls-34, .cls-35, .cls-36, .cls-37, .cls-38, .cls-39, .cls-40, .cls-41, .cls-42, .cls-43, .cls-44, .cls-45, .cls-46, .cls-47, .cls-48, .cls-49, .cls-50, .cls-51 {
        stroke-width: 0px;
      }

      .cls-2 {
        fill: #0cd8fb;
      }

      .cls-3 {
        fill: #266aee;
      }

      .cls-4 {
        fill: #2367ed;
      }

      .cls-5 {
        fill: #4f80ff;
      }

      .cls-6 {
        fill: #000;
      }

      .cls-7 {
        fill: #3bf9ff;
      }

      .cls-8 {
        fill: #477eff;
      }

      .cls-9 {
        fill: #15ddff;
      }

      .cls-10 {
        fill: #f8faff;
      }

      .cls-11 {
        fill: #477cff;
      }

      .cls-12 {
        fill: #4e7fff;
      }

      .cls-13 {
        fill: #1c66ed;
      }

      .cls-14 {
        fill: #1c64ed;
      }

      .cls-15 {
        fill: #1d64ed;
      }

      .cls-16 {
        fill: #0af7ff;
      }

      .cls-17 {
        fill: #14f7ff;
      }

      .cls-18 {
        fill: #2267ed;
      }

      .cls-19 {
        fill: #1f64ed;
      }

      .cls-20 {
        fill: #477dff;
      }

      .cls-21 {
        fill: #4a7dff;
      }

      .cls-22 {
        fill: #487bff;
      }

      .cls-23 {
        fill: #2468ed;
      }

      .cls-24 {
        fill: #08f7ff;
      }

      .cls-25 {
        fill: #07f6ff;
      }

      .cls-26 {
        fill: #4d7fff;
      }

      .cls-27 {
        fill: #08f6ff;
      }

      .cls-28 {
        fill: #1e64ed;
      }

      .cls-29 {
        fill: #1c63ed;
      }

      .cls-30 {
        fill: #fdffff;
      }

      .cls-31 {
        fill: #f3f8fe;
      }

      .cls-32 {
        fill: #0bd8fb;
      }

      .cls-33 {
        fill: #497cff;
      }

      .cls-34 {
        fill: #f3f6ff;
      }

      .cls-35 {
        fill: #4680ff;
      }

      .cls-36 {
        fill: #2065ed;
      }

      .cls-37 {
        fill: #487cff;
      }

      .cls-38 {
        fill: #09f6ff;
      }

      .cls-39 {
        fill: #07f7ff;
      }

      .cls-40 {
        fill: #286cee;
      }

      .cls-41 {
        fill: #f2f6ff;
      }

      .cls-42 {
        fill: #16ddff;
      }

      .cls-43 {
        fill: #1d63ed;
      }

      .cls-44 {
        fill: #3cf8ff;
      }

      .cls-45 {
        fill: #2d70ee;
      }

      .cls-46 {
        fill: #1c65ed;
      }

      .cls-47 {
        fill: #f4faff;
      }

      .cls-48 {
        fill: #ebf1ff;
      }

      .cls-49 {
        fill: #5887ff;
      }

      .cls-50 {
        fill: #fdfeff;
      }

      .cls-51 {
        fill: #1f65ed;
      }
    </style>
  </defs>
  <path class="cls-30" d="M260,244c0-4.7,0-9.4.3-14.2.8-.6,1.5-1.1,1.6-1.6,2.4-13.3,9.9-23.7,21.1-30.2,8.1-4.7,18-6.6,27.3-8.9,14.2-3.4,28.5-6.1,42.1-11.8,20.2-8.4,41.5-12.3,63.3-13.2,11.5-.4,23,.9,34.5,1.9,15.1,1.3,29.5,5.7,43.9,11.8,1.1-1.3,2.3-2.7,3.6-4,52.1-52.1,104.1-104.2,156.2-156.2,7.9-7.9,16.7-14.4,28.6-14.8.5,0,1-1.2,1.5-1.9,1.4,0,2.8,0,4.3.4.9.8,1.8,1.5,2.6,1.6,9.3.6,17.1,4.5,23.6,11.1,63.6,63.6,127.2,127.2,190.8,190.8,1.1,1.2,1.9,2.7,3.8,5.6,1.7-2.7,2.3-4.6,3.4-5.2,6.9-3.6,13.7-8.3,21.1-9.9,10-2.2,20.5-1.9,31.1-2.7,3.6-11.4,12.8-19.3,19.9-28.6,6.7-8.6,13.6-17.1,20.6-25.4,8.4-10,16.6-20.3,25.7-29.7,7.2-7.4,17.1-10.1,27.1-9.7,10,.4,19.6,3.5,26.9,11,8.5-7.9,16.4-15.7,24.6-23.1,14.3-12.8,38.6-11.9,52.4,1.1,1.9,1.8,4.1,3.3,6.2,4.9,0,0,0,0-.3.2.2.8.7,1.2,1.3,2,1.4,1.4,2.8,2.5,4.1,3.8.1.1.2,0,.3,0-.1,0-.3,0-.3-.5-1.6-11.3-3.2-22.2-5-33.5.3-1.5.7-2.6.9-3.7,2.4-16.2,11.9-27.2,26.8-32.1,11.5-3.8,24-5,36-7.3,12.4-2.3,24.8-4.8,37.3-6.5,10.2-1.4,20.2-5.3,30.8-2.6,10.4,2.5,18.7,7.7,25.1,16.3,8.2,10.9,8.3,24.1,10.9,36.6,1.4,6.7,2.4,13.5,3.5,19.7,9-6.2,17.7-12.8,26.9-18.4,17.9-10.7,43.8-5.5,56.7,14.8,3.2,5,5.6,10.7,9.7,14.9,6,6.3,11.8,12.4,20.3,16.7,15.6,7.9,25.1,21.7,27,39.8.1,1.1,1.1,2.7,2.1,3.1,10,4.2,17.5,11.1,23,20.2,4.7,7.9,10.2,14.9,16.4,21.7,7.1,7.8,10.8,18,11.3,28.6.2,4.4,1.6,6.6,5.6,7.7,17.7,4.9,26.7,18,32.7,34.1.8,2.2,2.5,4.5,4.3,5.9,10.8,8,18.4,18.1,19.6,31.7.8,8.8,4.9,14.9,10.7,21.1,4.6,5,7.9,11.8,10.1,18.3,2.2,6.5,2.3,13.7,3.5,21.1-.7-.3-.4,0,0,0,18.8-.8,37.2,12.3,40.9,32.3,0,.4,1.3.5,1.9.8,0,3.4,0,6.7-.4,10.3-.7,1.3-1.2,2.4-1.4,3.5-2.9,11.8-4.9,23.8-8.7,35.3-7.7,23-20.6,42.8-39.8,58-16.4,13-35,20.9-55.1,25.9-1.6.4-3.7,1.4-4.3,2.7-6.1,12.6-11.9,25.3-18,38.4,3.3.6,6.5,1.1,10.1,1.8,1.5.4,2.5.8,3.6,1.1,23.2,6.7,46.7,12.7,69.6,20.2,19.4,6.4,27.3,21.5,28,39.2-.2,29.4-.3,58.3-.3,87.3,0,25.5.1,51-.1,76.5-.2,22.9-14.7,39.6-37.1,42.4-15,1.9-30.1,3-45.2,4.2-21.7,1.8-43.4,3.6-65.2,5.3-34.3,2.6-68.7,5.5-103.1,7.6-35.2,2.2-70.5,4.1-105.8,5.4-62.9,2.2-125.9,4.7-188.8,5.5-63.3.8-126.6-.1-190-.7-31.3-.3-62.6-1.2-93.9-2.4-42.9-1.6-85.9-3.7-128.8-5.8-17.5-.8-34.9-1.9-52.3-3.1-26.7-1.8-53.5-3.8-80.2-5.8-17.4-1.3-34.8-2.6-52.2-4.2-23.5-2.1-47-4.6-70.5-6.7-9.8-.9-18.3-4.5-25.4-11.4-7.2-7-10.7-15.8-12.6-26,0-58.6.1-116.8-.2-175,0-18.3,11.4-33.6,27.9-39.6,20.5-7.4,41.4-13.8,62.1-20.6,26.2-8.7,53-14.6,80.5-19.6,13.8-1.4,27.1-2.9,40.4-4.4,0-.4,0-.8.1-1.2-21.4-5.1-40.8-14.1-57.6-28.4-16.9-14.4-29.2-32.1-37-53.2-1.1.6-1.8,1-2.5,1.4-45.1,28.9-95,39.1-147.7,37-27-1.1-46.6-17.6-53.3-43.9-3.1-12.1-5.4-24.4-8-36.6-12.4-58.2-24.7-116.5-37.2-174.7-.2-.7-1.1-1.2-1.7-1.8M1548.7,318.6c.8,0,1.7.2,2.5,0,3.1-.9,5.3-3.1,4-6.1-.8-1.9-3.7-4-5.7-4-3.1,0-4.7,2.7-4.4,6,.1,1,.4,1.9,0,2.2-1.4-.4-3.3-1.5-4-1-4.4,3.2-8.4,6.8-12.9,10.4,2.1,2.4,3.8,4.4,5.7,6.6,3.8-3.2,7.4-5.9,10.7-8.9,1.4-1.3,2.4-3.3,4.2-5.3M1566.2,364.8c5.3,4.9,8.1,4.8,10.9-.3,2.2-4.2.2-9.8-4.6-12.8-5-3.2-11.2-2-14.5,2.9-2.7,4-2.2,11.5,1.2,13.8,1.1.7,3.1.5,4.6.1.5-.1.6-2,1.4-3.6.2-.2.3-.3,1,0M1431.2,183.7c5.1,4.6,7.9,4.5,10.6-.5,2.3-4.2,0-10.2-4.9-13.1-5-2.9-10.9-1.7-14.1,3-2.9,4.2-2.2,11.7,1.3,14.2,2.2,1.6,5.1,0,6-3.5.2-.2.3-.4,1-.1M831.1,620.4c3.9-16.7,7.8-33.3,11.7-50,.8-3.3.2-5.4-3.7-6-4.4-.7-8.8-1.7-13.1-3-3.8-1.2-5.1.4-5.9,3.7-3.8,16.7-7.6,33.4-12.2,50-4.6-1.1-9.2-2.2-13.8-3.6,0,0-.2-.3.2-1,2-7.7,3.8-15.4,6-23.1.9-3.1.3-4.7-2.9-5.4-4.8-1.1-9.6-2.4-14.4-3.8-2.7-.8-4.4-.1-5.1,2.9-1.9,8.2-4.1,16.4-6.5,24.7,0,0-.4.2-1.1-.2-4-1-8-2.1-12-3.4,0,0-.2-.2-.1-1,1-7.4,1.8-14.8,3.1-22.1.6-3.4-.3-5-3.8-5.3-3.9-.4-7.9-.9-11.8-1.6-4.1-.8-5.8,1-6.5,4.7-1.1,6.7-2.3,13.4-4.2,20.1-3.4-.7-6.8-1.4-10.2-2.9.4-20.4-16.5-35-36.6-31.8-7.6,1.2-15.3,2-23,2.6-2.9.2-4.2,1.1-4.2,4.1,0,5.6,0,11.3-1,17-6.7-.3-13.3-.8-20-1-34.5-1-68.4,3.7-101.9,11.5-34.4,8.1-67.7,19.5-101,31.2-3.4,1.2-3.1,3.3-3.1,5.8,0,54.7,0,109.3,0,164,0,1.4.2,2.9.3,4.4,2.2.4,4,.8,5.8,1,23.7,2.1,47.4,4.4,71.1,6.3,41.5,3.4,82.9,6.7,124.4,9.6,28.2,2,56.5,3.6,84.8,5,29.6,1.5,59.2,2.9,88.8,3.9,37.8,1.3,75.6,2.4,113.4,3,37.3.6,74.6.7,112,.6,35,0,70-.5,105-1.1,24.6-.4,49.3-1.1,73.9-1.9,31.3-1,62.6-2.2,93.9-3.4,13-.5,25.9-1.3,38.9-2.1,30.4-1.9,60.8-3.8,91.2-5.8,19.1-1.3,38.2-2.7,57.3-4.3,25.5-2.1,51.1-4.4,76.6-6.7,11.1-1,22.1-2.1,33.4-3.2,0-1.5.2-2.6.2-3.7,0-53.2,0-106.3.2-159.5,0-3.4-1.3-4.6-4.3-5.4-26.8-7.3-53.4-15.2-80.3-22-16.2-4.1-32.9-6.8-49.1-10.7,20-31,37.4-63.3,50.3-97.9,1.7-4.5,4.3-5.6,8.5-6.5,12.6-2.9,25.5-5.3,37.4-10.1,31.4-12.6,49-43.4,52.3-79.7-15.7-.4-31.2-.8-46.7,2.4-15.8,3.2-29.5,10.3-41.5,22.3,3.6-40.5-18.2-67.3-44.8-93.1-5,11.5-10,21.8-13.9,32.5-8.7,23.8-10.6,48.1-1.8,72.3,3.2,8.8,8,17,12.2,25.7-11.3,7.3-23.9,12.3-37.7,13.6-18.1,1.7-36.2,3.3-54.2,4.7-18.1,1.5-36.2,2.8-54,3.6,12.9-13.1,25.8-26.1,39.5-39.3,3.4,0,6.3-.8,7.4-4.6.5-1.7,1.1-3.5,2.3-5.5,11.9-12,23.8-24,35.1-35.3-8.5-9-16.7-17.5-24.9-26.4,0,0-.2-.3,0-1.1,1.8-10.8,3.5-21.6,5.3-32.4,9.7-.7,17.9,1.9,25.9,6,6.4,3.3,9.8,1.9,12.8-4.6,5.5-11.9,11-23.9,16.3-35.9,2.9-6.6,1.8-9.3-4.7-12.2-17.2-7.8-35.2-12.5-54.1-11.9-15,.4-29.5-1.9-44-4.7-9.7-1.9-11.6-.4-13.3,9.4-1.5,8.8-3.3,17.5-5.6,26-34.5-34.4-68.9-68.9-103.4-103.3-1.3-1.3-2.7-2.5-4.1-4.5,2.3-13.8,4.6-27.6,6.9-41.6-20.3-3.6-40-7-60-11-.3-.1-.6-.2-1-.3,0,0,0,0,0-.7-13-12.8-26-25.7-38.9-38.5-15.7,15.5-31.2,30.8-47.2,46-10.3-8.3-20.7-16.6-31.2-25-18,22-35.8,43.8-53.7,65.7,8.2,6.9,16.2,13.7,23.8,20.9-6.8,6.8-13.6,13.6-20.5,20.3,0,0-.1,0-.1-.9,0-1.3-.1-2.7-.2-4-.3-8.7-1.8-10.3-10.3-9.9-16.1.7-32.2,1.4-48.3,2.3-10.5.6-11.4,1.8-10.6,12.5.1,1.8.1,3.7.2,5.5,1.1,19.9,2.2,39.8,3.1,60.3,0,.4-.1.8-.8,1.5-29.6,29.6-59.2,59.2-88.8,88.8-1.1,1.1-1.7,2.6-3.4,4.1-12.2-.4-21.6-5.6-28-16.6,0-.4,0-.8.6-1.6,14.5-14.6,29-29.1,44-43.8.2,0,.3,0,1.1.2,2.9,1.6,5.9,3,8.6,4.9,6.5,4.4,10.3,3.6,13.8-3.5,5.1-10.5,10.1-21,14.8-31.6.9-2-.2-4.9-.1-8,8-8.2,15.9-16.3,23.4-24-80-80-159.6-159.6-239.9-239.9-.8,1-1.9,2.6-3.2,3.9-54,54.1-108.1,108.1-162.2,162.2-6.5,6.5-12.9,13-19.7,19.3-.4-.2-.9-.3-1.7-1-9.4-7.4-19.8-12.9-31.2-16.3-37.1-11.4-73.3-7.6-108.7,7.2-3.4,1.4-6.7,3-10.2,3.8-13.3,3.1-26.6,5.9-39.9,8.8-6.4,1.4-8.2,4.2-6.8,10.8,14.3,67.3,28.7,134.6,43,202,2.9,13.4,7.7,17.4,21.2,17.7,22.4.4,44.6-1.3,66.2-7.4,46-12.9,83.8-36.3,104.4-81.7,4.7,4.6,9.5,9.3,14.3,14.4,0,0,.1.5-.3,1.1-.8,2.2-1.7,4.3-2.3,6.6-7.5,25.3-6.1,49.6,8.5,72.2,22.7,35.1,67.5,49.1,109.7,35.6,0,0,.5,0,.8.7,6.3,6.3,12.7,12.7,19.7,19.7,28.2-28.4,56-56.5,84.4-84.4.2,0,.4,0,.9.7,31.3,26.9,79.7,30.8,116.3,9.4.4,0,.7,0,1.4.6,24.4,24.5,48.9,49,72.6,73.9-12,1-24.1,2-37.1,3.1,2.8,14.6,5.2,28.6,8.3,42.5,6.3,28,16.2,54.7,27.3,80.8-21.1-3.5-42.2-6.8-63.3-10.7-9.6-1.8-18.9-4.7-28.2-8,.4-3,.8-5.9,1.2-8.9,1.7-13.4,3.5-26.7,5.1-40.1.8-6.6.7-6.6-5.7-7.4-4-.5-7.9-1-11.9-1.7-3.5-.6-4.8.7-5.2,4.1-2,16.5-4.2,33-7,49.4-5-1.2-10-2.5-15-4.1,0,0-.1-.3,0-1.1M886.4,521.5c1.4-5.1,2.9-10.1,4.5-15.8-2-1.8-4.6-3.7-6.5-6.2-3-3.9-6.2-4-10.7-2.8-32.1,8.6-63.5,6.6-94.1-6.6-2.6-1.1-4.1-.7-6,1.2-12.7,12.9-25.6,25.7-38.4,38.5-.8.8-1.4,1.7-2.5,2.9,7.5,0,14.4,0,22.1.3,4.8.7,9.6,1.2,14.4,2,5.4.9,10.7,2.1,16.1,2.9,1.3.2,3.4-.1,4-1,5.9-8.9,15.1-12.5,25.5-15.9,8.7.7,17.4,1.4,26.5,2.8,6.7,2,14,3.1,20.1,6.3,7.9,4.2,16.3,2.6,24.6,5.1,0-4.8,0-8.9.4-13.8M1358.5,253c9.6-3,19.2-6,28.9-9-8.5-27.5-16.8-54.2-25.2-81.3-27.5,8.5-54.3,16.9-81.4,25.2,8.5,27.5,16.9,54.4,25.3,81.4,17.7-5.5,34.7-10.8,52.4-16.3M1215.1,104.4c2.8,15.5,5.5,31,8.3,46.8,28.1-4.9,55.7-9.8,83.8-14.7-4.9-27.9-9.7-55.5-14.7-83.9-28,4.9-55.7,9.8-83.9,14.7,2.2,12.4,4.3,24.4,6.5,37.1M1486.6,243.2c4.6-3.9,7.5-8.5,5.5-14.9-1.5-4.7-4.4-8.4-9.5-9.2-6.6-1.1-11.6,2.1-15.5,7.2-1.5,1.9-2.6,4.3-3.3,6.6-2.5,8.1,4.7,16.2,13,14.4,3.2-.7,6.1-2.4,9.7-4.1M1420.2,170.9c2-2.1,3.9-4.4,6.2-6.2,4.2-3.1,8.7-5.8,13.4-8.9-2-2.7-3.6-4.7-5.2-6.9-1.8,1.1-3.2,2-4.6,2.8-1.4.8-2.7,1.6-4.1,2.5-4-6.5-6.6-8.1-11.6-7.4-4.5.6-7.2,3-8.5,7.3-1.6,5.3.6,9.3,4.7,12.6.8.7,1.5,1.7,1.8,2.7,1.8,4.9,2.5,5.2,7.9,1.5M1518.1,313.5c5,5,9.2,6,14.1,3.3,4.3-2.4,6.8-7.5,4.7-12.3-1.9-4.4-5.4-8.2-8.4-12.1-.3-.4-2-.3-2.6.1-7.6,4.9-15.1,10-23,15.3,1.9,2.6,3.4,4.6,5,6.9,2.8-1.7,5.2-3.2,7.8-4.7.7,1.1,1.4,2,2.4,3.6M1444,210.9c3.7,5.9,7.4,11.7,11.2,17.9,2.7-2.1,4.5-3.4,6.6-5-1.6-2.4-2.9-4.4-4.4-6.5,9.5.7,13.8-1.4,15.9-7.8,1.9-5.7-1-11.8-7.8-15.8-1.5,1.4-3,2.8-4.6,4.3.9,1.2,1.9,2.1,2.2,3.1.6,1.9,1.7,4.6.8,5.9-1,1.6-3.7,2.4-5.8,2.9-1.5.3-3.6,0-4.8-.9-3.7-2.9-6.4-1.3-9.6,1.9M1495.4,261.7c-6.8,5.1-7.2,12.3-.9,18.1,1,.9,2,2.1,2.4,3.4,1.1,3.3,4.5,4.7,7,2.5,3.7-3.3,7.1-6.9,11-10.7-1.4-2.2-3.2-4.8-4.8-7.5-3.9-6.9-6.6-8.1-14.8-5.7M1549.3,354.1c2.1.9,4,1.7,5-1.5.5-1.4,2-2.6,3.2-3.7,4.9-4.6,5.8-9.3,2.3-15.2-1.8-3.1-4.2-5.7-6.5-8.8-5.7,3.8-11.1,7.4-16.7,11.2,1.8,2.6,3.3,4.7,4.9,7.1,3.9-2.6,7.4-4.9,11.2-7.4,2.1,3.8-.5,5.5-2.4,7.4-3.2,3.1-5.2,6.5-1,11M1372.6,111.2c-4.1,4.4,1.6,5.4,2.5,8.6,4.1-2.6,7.7-4.9,11.3-7.2,2,4.3-1.6,5.6-3.1,7.9-1.5,2.3-2.7,5.4-2.5,8,.1,1.4,3.4,2.6,5.8,4.3,3.2-6,7.1-10.6,8.2-15.9,1.4-6.4-4.4-10.4-8-15-.8.4-1.2.6-1.6.9-4,2.7-8,5.3-12.6,8.4M1397.4,126.7c-.6.2-1.3.4-1.9.7-4.9,2.9-6.9,7.1-5.7,12.1,1.2,5.1,6,9,11.6,9.3,4.5.3,8.4-2.5,10.1-7.3,1.6-4.5-.3-10.2-5-12.9-2.4-1.4-5.6-1.5-9.1-1.9M1513.1,283.6c-3.4,2.6-6.8,5.1-10.4,7.9,1.8,2.4,3.4,4.5,5.1,6.9,8.4-6.3,16.5-12.3,24.8-18.5-2-2.5-3.6-4.5-5.4-6.7-4.8,3.5-9.2,6.8-14.1,10.4M1438.9,190.2c2.3,3.6,4.6,7.3,6.9,10.9.2.4,1.2.5,1.7.3.5-.2,1.2-1.3,1.1-1.4-3-3.5-6.1-6.9-9.7-9.8M1491.9,257.5c-1.9-2.5-3.7-5.1-5.7-7.5-.5-.6-1.9-.6-2.8-.9,0,.9-.4,2,0,2.6,2,2.9,3.8,5.9,6.3,8.3,2.1,2.1,3.1.7,2.2-2.5Z"/>
  <path class="cls-16" d="M910.5,893c-1.1-.7-1.8-1.9-2.5-1.9-3.2-.2-6.3,0-9.5-.1-21.1-.3-42.2-.6-63.3-1-10.4-.2-20.8-.6-31.3-1-15.7-.6-31.4-1.3-47-2-13.7-.6-27.4-1.3-41-2-12.2-.6-24.4-1.3-36.5-2-11.2-.6-22.4-1.3-33.5-2-14.6-1-29.2-2-43.8-3-13.4-1-26.9-1.9-40.3-3-16.5-1.3-33.1-2.6-49.6-4-14.5-1.2-29.1-2.5-43.6-4-14.5-1.5-28.9-3.1-43.3-5-14.1-1.8-27.5-14.7-30.1-28.7-1.6-8.8-.9-18.1-1.2-27.6,1.9,9.2,5.4,18.1,12.6,25.1,7.1,6.9,15.6,10.5,25.4,11.4,23.5,2.1,47,4.6,70.5,6.7,17.4,1.6,34.8,2.9,52.2,4.2,26.7,2,53.4,4,80.2,5.8,17.4,1.2,34.9,2.3,52.3,3.1,42.9,2,85.8,4.1,128.8,5.8,31.3,1.2,62.6,2.1,93.9,2.4,63.3.6,126.6,1.5,190,.7,63-.8,125.9-3.3,188.8-5.5,35.3-1.3,70.6-3.2,105.8-5.4,34.4-2.1,68.7-5,103.1-7.6,21.7-1.7,43.4-3.5,65.2-5.3,15.1-1.3,30.2-2.4,45.2-4.2,22.3-2.8,36.9-19.5,37.1-42.4.2-25.5,0-51,.1-76.5,0-29,.1-58,.4-86.9,0,64-.3,127.9-.8,191.7-.1,13.2-11.2,26.3-22.5,31.4-11.5,5.3-23.9,4.2-35.9,5.9-8.9,1.2-18,1.3-27,2.2-12.9,1.2-25.7,2.8-38.6,3.9-10.7.9-21.4,1.2-32,2.1-14.5,1.2-29,2.7-43.6,3.9-9.8.8-19.7,1.4-29.5,2-15.9,1-31.9,2-47.8,3-12.2.7-24.3,1.4-36.5,2-13.5.7-27,1.4-40.5,2-15.7.7-31.3,1.4-47,2-10.4.4-20.8.8-31.3,1-22.9.4-45.8.7-68.7,1-1.3,0-2.7-.1-4,.1-.4,0-.7,1.2-1,1.9h-228.5Z"/>
  <path class="cls-16" d="M564.4,549.9c-8.1-6.1-15.9-11.9-23.2-18.3-13.2-11.5-22.3-26-29.2-42-.8-1.8-1.5-3.6-2.3-5.4-25,16.1-52,27.1-81.2,32.8-16.6,3.3-33.4,4.6-50.3,5.3-11.8.5-23,.1-34.3-3.3-14.1-4.2-24.5-12.9-31.8-25.5-6.1-10.6-7.4-22.6-10.1-34.2-3.5-15.1-6.5-30.4-9.7-45.6-4.5-21.4-8.8-42.8-13.4-64.1-3.8-17.7-7.8-35.4-11.7-53-1.9-8.5-3.5-17.1-5.3-25.7-.2-.9-.8-1.7-1.6-2.2-.3-7.7-.3-15.7-.3-24.2.6.1,1.6.7,1.7,1.4,12.4,58.2,24.8,116.5,37.2,174.7,2.6,12.2,4.9,24.5,8,36.6,6.7,26.4,26.3,42.9,53.3,43.9,52.8,2.1,102.6-8.1,147.7-37,.7-.4,1.4-.8,2.5-1.4,7.7,21.1,20,38.8,37,53.2,16.8,14.3,36.2,23.3,57.6,28.4,0,.4,0,.8-.1,1.2-13.3,1.5-26.7,3-40.4,4.4Z"/>
  <path class="cls-16" d="M1662,435.5c-.7,1.5-1.8,2.4-1.9,3.5-4.3,25.7-12.9,49.7-29.1,70.5-12.4,15.9-28.4,27.3-46.7,35.4-8.5,3.7-17.5,6.6-26.5,8.9-3.9,1-5.4,3.1-6.7,6-2.4,5.1-4.5,10.3-6.9,15.8-3.4-.2-6.6-.8-9.9-1.4,6.1-13.2,11.9-25.9,18-38.4.6-1.3,2.7-2.3,4.3-2.7,20.1-5,38.7-13,55.1-25.9,19.3-15.3,32.1-35,39.8-58,3.8-11.5,5.8-23.5,8.7-35.3.3-1.1.7-2.2,1.4-3,.4,8.3.4,16.3.4,24.8Z"/>
  <path class="cls-7" d="M724.9,594.9c3.4.7,6.8,1.4,10.6,2.2.5.2.6.6.4,1-.5,3.5-.9,6.6-1,9.7,0,11.5,9.8,22.1,21.4,22,9.5,0,18.4,1.8,27.3,4.6,3.4,1.1,4.8.2,5.5-3.3,1.4-6.5,3.3-12.8,5-19.2,4.6,1.1,9.2,2.2,14.2,3.6.5.2.6.6.3.9-1.8,7-3.1,13.8-4.9,20.5-1,3.7.9,4.5,3.5,5.1,4.1,1.1,8.3,1.9,12.5,2.9,3.6.9,6,0,6.9-4.1,1.3-6.3,3-12.5,4.5-18.8,5,1.2,10,2.5,15.4,3.8.5.1.6.3.5.7-1.1,8.1-2.2,15.7-2.9,23.4-.1,1.3,1.4,3.7,2.5,3.9,5.3,1.1,10.8,1.7,16.2,2.1,1.3,0,3.6-1.6,3.8-2.8,1-7.2,1.5-14.4,2.3-21.7.1,0,.4-.2.4-.2,9.5,2.4,18.8,5.3,28.4,7.1,21,3.9,42.2,7.2,63.9,10.8.9.3,1.2.5,1.4,1.1,3.8,7.6,7.4,14.9,11.5,21.9,15.2,25.8,34.1,48.7,57.6,67.4,34.8,27.6,75,41.5,118.9,44.4,23.7,1.6,47.5.3,70.9-4,34.3-6.3,67.1-17.1,98-33.6,30-16,56.9-36.1,81.5-59.2,21.3-20.1,40.1-42.5,57.1-66.3,4.2-5.9,7.7-12.3,11.9-18.5.5-.1.7-.2.9-.2,16.5,3.3,33.1,6,49.3,10.1,26.9,6.8,53.6,14.7,80.3,22,2.9.8,4.3,2,4.3,5.4-.2,53.2-.2,106.3-.2,159.5,0,1.1-.1,2.3-.2,3.7-11.3,1.1-22.3,2.2-33.4,3.2-25.5,2.3-51,4.6-76.6,6.7-19.1,1.6-38.2,3-57.3,4.3-30.4,2-60.8,3.9-91.2,5.8-13,.8-25.9,1.6-38.9,2.1-31.3,1.2-62.6,2.4-93.9,3.4-24.6.8-49.3,1.5-73.9,1.9-35,.6-70,1-105,1.1-37.3,0-74.6,0-112-.6-37.8-.6-75.6-1.7-113.4-3-29.6-1-59.2-2.4-88.8-3.9-28.3-1.4-56.5-3-84.8-5-41.5-3-83-6.3-124.4-9.6-23.7-1.9-47.4-4.2-71.1-6.3-1.8-.2-3.6-.6-5.8-1,0-1.5-.3-2.9-.3-4.4,0-54.7,0-109.3,0-164,0-2.5-.2-4.6,3.1-5.8,33.3-11.7,66.6-23.2,101-31.2,33.5-7.9,67.4-12.5,101.9-11.5,6.7.2,13.3.6,20.5,1,.5,0,.6.2.6.6-.1,18.1,0,35.8-.2,53.4,0,3.6,1.1,5.2,4.9,5.1,4.2-.2,8.3-.3,12.5,0,4.3.3,6-1.2,5.8-5.7-.3-6.6,0-13.2,0-20.6,9.5,2.1,18.2,1.6,26.3-2.5,8.7-4.4,13.4-11.6,14.4-21.3,0,0,.2-.1.2-.1Z"/>
  <path class="cls-43" d="M963.1,649.8c-.3-.2-.5-.4-1-.7-12.2-26.1-22.1-52.9-28.4-80.8-3.1-13.9-5.5-27.9-8.3-42.5,13.1-1.1,25.1-2.1,37.9-3.3,17.9-1.6,34.9-2.9,52-4.3,28.8-2.3,57.6-4.7,86.4-7,24.5-2,49-4,73.5-6,28.8-2.3,57.6-4.7,86.4-7,25.2-2.1,50.3-4.2,75.5-6.2,18.1-1.4,36.2-2.7,54.3-4.1,18.1-1.5,36.2-3,54.2-4.7,13.8-1.3,26.4-6.4,37.7-13.6-4.2-8.7-9-16.9-12.2-25.7-8.8-24.2-6.9-48.5,1.8-72.3,3.9-10.7,9-21.1,13.9-32.5,26.6,25.8,48.5,52.6,44.8,93.1,12.1-12,25.8-19.1,41.5-22.3,15.5-3.2,31.1-2.8,46.7-2.4-3.3,36.3-21,67-52.3,79.7-11.9,4.8-24.8,7.2-37.4,10.1-4.2,1-6.8,2-8.5,6.5-13,34.6-30.3,66.9-50.5,98.2-.3.3-.5.4-1.4.4-10.6-1.4-20.4-3.3-30.3-4.1-26.4-2.2-52.9-4.9-79.4-5.6-20.2-.6-40.5,1.4-60.7,2.6-24.7,1.5-49.2,5.4-73,11.9-35.1,9.5-69.9,20.1-104.8,30.3-35.8,10.5-72.3,16-109.5,15.5-16.4-.2-32.8-1.9-49.2-3Z"/>
  <path class="cls-39" d="M550.8,386c-4.7-4.6-9.5-9.3-14.5-14.2-.3-.3-.4-.7-.1-1,5.2-12.6,7.5-25.4,7.7-38.6.2-16.4-2.7-32.3-8.1-47.8-7.5-21.2-17.1-41.1-35-55.8,6.4-6.5,12.9-13,19.3-19.5,54.1-54.1,108.1-108.1,162.2-162.2,1.3-1.3,2.3-2.8,3.2-3.9,80.2,80.2,159.9,159.9,239.9,239.9-7.5,7.7-15.5,15.8-23.6,24.4-.1.3-.2.4-.3,0-4.8-3.7-9.1-7.8-14.3-10.2-22.8-10.4-46.6-12-71.1-7.2-55.8,10.8-79.6,60.7-69.3,107.4,3.5,16.1,12.4,29.2,24.1,40.5-27.8,28.1-55.7,56.2-83.8,84.6-7-7-13.4-13.4-19.5-20.1,2.5-1.3,4.9-2.2,7.2-3.1,15.1-6,28.3-14.7,38.5-27.6,14.7-18.5,19.3-39.7,15.9-62.9-3.9-26-16.4-46.6-38.9-60.5-21.1-13-44.3-17.2-68.9-14.5-21.7,2.4-40.6,10.8-54.8,27.5-6.3,7.4-10.5,16.4-15.6,24.7M580.9,240.8c6.5,1.2,13.1,2.4,19.5,3.8,3,.7,5.3.5,6.1-3,1.4-5.5,3-10.9,4.1-16.4.2-1.2-1.6-3.9-2.7-4-7.9-.6-15.9-1.1-23.9-.9-1.8,0-3.8,2.4-5.3,4.1-1.1,1.3-1.5,3.2-2.5,5.5-2.9-9.8-5.7-18.9-8.3-28-.8-2.7-1.6-4.8-5-3.9-5,1.4-9.9,2.9-14.8,4.3-2.7.8-3.1,2.4-2.2,5,1.5,4.4,2.7,8.9,4,13.4,5.8,19.6,11.6,39.2,17.3,58.9,1.1,4,2.9,5.1,6.8,3.5,3.1-1.3,6.3-2,9.5-2.9,7-2,6.9-2,4.9-9.1-2.9-10.1-5.7-20.1-8.5-30.2,0,0,0,0,.9-.2M707.1,234c-3.2,0-6.3-.1-9.5.2-1.2.1-3.4,1.3-3.4,2-.2,5-.7,10.2.5,14.8.4,1.4,6.2,1.3,9.5,1.9.5,0,.9.3,1.7.7-.1,1.4-.2,2.9-.4,4.3-1.8,10.6-3.7,21.3-5.4,31.9-.9,5.2,0,6,5.4,6.2,3,0,6,0,9,.2,3.4.3,5.1-.8,5.8-4.4,2.6-12,5.8-23.9,8.4-35.9.6-2.9,1.9-3.9,4.7-3.7,1.7.1,3.3,0,5,0,2.9,0,3.8,1.1,3.1,4.1-2.3,8.8-4.1,17.8-6.6,26.6-3,10.7-3.2,9.8,6.5,11.6,1.1.2,2.3.4,3.4.8,3.3,1.4,5.4,0,7-2.8,8.4-14.8,13.5-30.7,14.3-47.8.3-5.7-2.1-9.4-7.7-10.5-4.6-.9-9.6-.5-14.3-.5-3.9,0-7.8,0-11.7,0,.3-4.2.4-7.8.8-11.5.3-3.4-.4-5.4-4.4-5.3-4.1,0-8.3-.4-12.4-.8-3.4-.3-5.1.7-5.5,4.5-.5,4.5-1.8,8.9-3.7,13.5M792.4,258c8.4-.7,16.9-1.3,25.3-2.1,8.9-.8,17.8-1.8,26.7-2.6,2.8-.2,3.8-1.5,3.6-4.2-.4-4.6-.5-9.3-1.3-13.9-.2-1.3-2.6-3-3.9-3-4.5,0-8.9.5-13.4.9-13.7,1.1-27.5,1.9-41.2,3.4-10.6,1.1-10.6,1.4-10.2,12,0,1,0,2,.1,3,1,7.6,1.4,8.6,8.4,6.9,1.6-.4,3.3-.2,5.9-.3M682.2,258.2c-1-.6-2-1.2-3-1.7-3-1.8-6.1-5.1-9-4.8-2.4.2-4.5,4.5-6.7,7,0,0-.3,0-.8,0-.4-1.1-.8-2.3-1.3-3.5-3-8.1-4.3-8.7-12.9-7.9-4.5.4-6.4,1.7-4.8,6.4.8,2.5,1,5.2,1.2,7.8.4,3.9,1.9,6.1,6.3,5.4,2-.3,4,0,7.6,0-8.6,10.2-16.1,19.2-23.9,28.6,2.4,1.5,4.8,2.8,7.1,4.4,3.8,2.7,7,2.4,10.8-.5,12.1-9.3,21.3-21,28.6-34.1,1.1-1.9.9-4.5.7-7.2M624.1,262.2c.8,4.1.5,8.3,7.3,8,13.3-.7,14.3-1.6,8.9-14.2-.8-2-2.4-4.7-4.1-5-4-.7-8.2-.5-12.2.3-.6.1-.1,5.6-.1,8.7,0,.5,0,1,.2,2.4M607.1,197.6c-2.2-1.1-4.4-2.6-6.7-3.2-1.5-.4-3.8,0-4.8,1.1-1.6,1.7-3.6,5.8-3.3,6,3.2,2.5,6.6,4.9,10.4,6.2,2,.7,5.3-5.8,4.4-10.1M592.1,208.8c-1.6-3.4-2.6-7.4-5.1-9.9-1.1-1.1-5.3.7-7.9,1.6-.9.3-2.1,1.9-2.1,2.8,0,5.4,5.9,9.3,10.9,7.5,1.2-.5,2.4-1.1,4.2-2.1Z"/>
  <path class="cls-25" d="M1337.3,491.6c-25.3,2.4-50.5,4.5-75.6,6.5-28.8,2.4-57.6,4.7-86.4,7-24.5,2-49,4-73.5,6-28.8,2.3-57.6,4.7-86.4,7-17.1,1.4-34.1,2.7-51.6,4.1-24.9-24.5-49.3-49-73.7-74.1,6.5-5.3,13-9.8,19.3-14.8,4.5-3.6,5-8.7,2.9-13.6-3.7-8.7-7.6-17.4-11.8-25.9-2.5-5.1-6.2-6-11.2-3.2-1.6.9-3,2.1-4.5,3.1-10.7,7.8-22.4,13-36.1,13.4-.4-.1-.6-.2-.8-.2.8-1.3,1.5-2.9,2.5-4,29.6-29.6,59.2-59.2,89.2-88.5.7,9,1.1,17.6,1.5,26.2.7,14.1,1.4,28.2,2.1,42.3,1.6,29.7,3.3,59.4,4.8,89.1.4,8.2,2,10.3,10,9.9,18.1-.8,36.2-1.9,54.2-3,3.9-.2,5.7-2.7,5.7-6.2,0-4.6-.3-9.3-.5-13.9-.5-11-1.1-21.9-1.4-32.9,0-1.2.8-3.1,1.8-3.6,9.6-5.3,19.3-10.4,29.1-15.4.1.1.4.4.3.7-5.3,6.6-10.3,13-15.6,19.2-5.9,7-5.5,10.4,2,15.2,20.8,13.1,41.7,26.2,62.5,39.3,6.4,4,9.6,3.5,13.9-2.7,7.7-10.9,15.1-21.9,22.7-32.8,3-4.3,2.8-8.1-.5-12.3-9.9-12.5-22.7-21.5-35.9-29.8-7.1-4.4-14.6-8.2-22.2-12.4,2.1-1.2,3.9-2.4,5.8-3.4,11-5.9,22-11.7,33-17.6,6.1-3.3,7.6-7.2,4.3-12.6-8.1-13.4-16.4-26.6-24.6-39.9-2.4-3.9-5.9-4.7-9.9-3.7-2.1.5-4.1,1.5-6,2.4-20.9,10.3-39.2,24.4-57.9,37.9-2,1.5-4.1,2.9-6.7,4.8-.8-15.2-1.4-29.4-2.2-43.5-.5-9.3-1.1-18.6-1.6-27.9-.7-13.7-1.3-27.5-2-41.2,6.8-6.8,13.6-13.6,20.9-20.5,14.1,10.9,27.8,21.9,41.6,33.2,18.1-22.1,35.7-43.7,53.7-65.7-2.1-1.8-3.7-3.3-5.5-4.8-9.5-8-19.1-16-28.6-24,15.5-15.3,31-30.7,46.7-46.2,12.9,12.8,25.9,25.6,38.5,38.9-7.6-.6-14.7-1.6-22.5-2.8-4.8,28-9.6,55.7-14.4,83.7,28.4,4.9,55.9,9.6,83.8,14.5.6-3,1.1-5.6,1.5-8.2,2-11.1,4.1-22.2,6.1-33.3,1.3,1.2,2.7,2.4,4,3.7,34.5,34.4,68.9,68.9,103.7,103.8.4.6.4.8.4,1.4-.5,3-.9,5.7-1.3,8.3-6.2,35.1-12.4,70.1-18.6,105.2-.7,4.2.9,7.2,5.2,8.2,3.1.7,6.2,1.2,9.3,1.7,15.2,2.7,30.3,5.4,45.5,8.1-12.9,13.1-25.8,26.1-38.9,39.5M1294.3,386.8c6.4-5.2,10.3-11.9,10.7-20.1.4-7.2.6-14.6,0-21.8-2.2-24.2-13.7-42.6-35.9-53.1-17.9-8.5-37-11-56.8-8.9-32.6,3.3-56.5,18.8-70.3,49-14,30.7-6.8,70.5,17,94.4,17.9,18,40.3,26.3,64.9,29.6,6.1.8,12-.5,15.4-6.1,5.5-9.1,10.7-18.4,15.5-27.9,2.9-5.6-.5-11-6.9-11.9-3.1-.4-6.3-.6-9.4-1.1-24.9-4.1-44.1-21.6-41.5-48.3,1.1-11.5,6.2-20.7,17.1-25.6,9.9-4.5,22.3-.3,26.2,8.5,1.9,4.4,1.1,6.6-3.6,7.6-4.4.9-8.8,1.3-13.3,1.9-5,.6-7,2.9-6.3,7.5,1.3,8.5,2.6,17,4.1,25.5,1.2,6.7,3.5,8.8,10.4,8.8,11.2.1,22.3.6,33.5,0,9.9-.6,20-1.5,29.1-8Z"/>
  <path class="cls-43" d="M535.9,371.1s0,.4,0,.5c-20,46-57.8,69.4-103.8,82.2-21.6,6.1-43.9,7.8-66.2,7.4-13.5-.2-18.3-4.3-21.2-17.7-14.4-67.3-28.7-134.6-43-202-1.4-6.6.4-9.3,6.8-10.8,13.3-3,26.7-5.7,39.9-8.8,3.5-.8,6.9-2.4,10.2-3.8,35.4-14.8,71.6-18.6,108.7-7.2,11.4,3.5,21.8,9,31.4,17-.9,2-1.9,3.5-3.2,4.8-10.4,10.5-20.8,20.9-31.3,31.3-5.7,5.7-11.6,11.3-17.7,16.8-5-3.4-9.5-7.5-14.6-9.9-15.1-6.9-30.2-4.2-45.2,1-3.7,1.3-4.3,3-3.5,6.6,5.4,24.7,10.6,49.4,15.8,74.1,2.7,12.5,5.4,24.9,8.1,37.3,30.7,1,58.1-25.9,58.7-57.1.3-13.5-3.8-25.9-8.8-37.9,1.9,1.2,3.6,2.3,5,3.7,22.9,22.9,45.8,45.8,68.8,68.7,1.5,1.5,3.4,2.6,5,3.8Z"/>
  <path class="cls-29" d="M1006.3,246.9c.7,13.8,1.3,27.6,2,41.3.5,9.3,1.1,18.6,1.6,27.9.7,14.1,1.4,28.2,2.2,43.5,2.6-1.9,4.7-3.4,6.7-4.8,18.7-13.6,37.1-27.7,57.9-37.9,1.9-1,3.9-1.9,6-2.4,4-1,7.5-.2,9.9,3.7,8.2,13.3,16.5,26.5,24.6,39.9,3.3,5.4,1.8,9.3-4.3,12.6-11,5.9-22,11.7-33,17.6-1.9,1-3.7,2.1-5.8,3.4,7.6,4.2,15.1,7.9,22.2,12.4,13.3,8.3,26,17.3,35.9,29.8,3.3,4.1,3.5,8,.5,12.3-7.6,10.9-15,22-22.7,32.8-4.3,6.1-7.5,6.7-13.9,2.7-20.9-13.1-41.7-26.2-62.5-39.3-7.6-4.8-7.9-8.2-2-15.2,5.2-6.2,10.3-12.6,15.8-19.4.4-.8.4-1.2.7-1.5,0,0,0,0-.3.1-.5.3-.7.5-1,.7-9.7,5.1-19.4,10.2-29,15.5-1,.5-1.8,2.4-1.8,3.6.4,11,.9,21.9,1.4,32.9.2,4.6.5,9.3.5,13.9,0,3.6-1.9,6-5.7,6.2-18.1,1-36.1,2.1-54.2,3-8,.4-9.6-1.7-10-9.9-1.5-29.7-3.2-59.4-4.8-89.1-.8-14.1-1.4-28.2-2.1-42.3-.4-8.6-.8-17.3-1.2-26.4,0-.9,0-1.3.5-2.1,10.6-10.6,20.8-20.9,31.1-31,11.5-11.5,23.1-22.9,34.7-34.3,0,0,.1,0,.2,0Z"/>
  <path class="cls-29" d="M550.9,386.3c5.1-8.5,9.3-17.6,15.6-25,14.2-16.7,33.1-25.1,54.8-27.5,24.6-2.8,47.8,1.5,68.9,14.5,22.4,13.8,35,34.5,38.9,60.5,3.5,23.2-1.2,44.3-15.9,62.9-10.2,12.8-23.4,21.6-38.5,27.6-2.3.9-4.7,1.8-7.3,2.8-.4.1-.8,0-1.2-.3-38.1-38.1-75.8-75.8-113.5-113.5-.5-.5-1.1-.8-1.6-1.2,0,0-.1-.5-.1-.7M638.5,387c-3.9.7-8.1.7-11.6,2.2-19.1,8.1-25.5,35.8-12.3,52,12.2,15.1,33.2,16.1,45.6,2.1,5.2-5.8,7.6-12.9,8.5-20.4,2.3-19.6-7.1-35-30.2-35.9Z"/>
  <path class="cls-22" d="M771.1,437.9c-12-11.4-20.9-24.5-24.4-40.6-10.3-46.6,13.6-96.5,69.3-107.4,24.4-4.7,48.3-3.2,71.1,7.2,5.1,2.4,9.5,6.5,14,10.4-12.5,12.8-24.7,25.1-37,37.3-.2,0-.3,0-1.2,0-7.6-2.3-14.6-3.3-22.1-2.2-20.2,3.1-32.4,28.6-21.8,46.4,0,.4,0,.8-.3,1.5-1.1.8-1.9,1.1-2.4,1.7-14.1,14.1-28.3,28.2-42.4,42.4-.9.9-1.3,2.2-1.9,3.4-.2,0-.4,0-.9-.2Z"/>
  <path class="cls-28" d="M1358.1,253.1c-17.3,5.4-34.3,10.7-52,16.2-8.4-27-16.7-53.9-25.3-81.4,27-8.4,53.9-16.7,81.4-25.2,8.4,27.1,16.7,53.8,25.2,81.3-9.7,3-19.3,6-29.3,9.1Z"/>
  <path class="cls-33" d="M1215,104c-2.1-12.3-4.2-24.3-6.4-36.7,28.2-4.9,55.9-9.8,83.9-14.7,5,28.4,9.8,55.9,14.7,83.9-28.1,4.9-55.7,9.8-83.8,14.7-2.8-15.8-5.6-31.3-8.4-47.2Z"/>
  <path class="cls-15" d="M1228.1,211.3c-2,11.5-4,22.6-6.1,33.7-.5,2.6-1,5.2-1.5,8.2-27.9-4.8-55.4-9.6-83.8-14.5,4.8-28,9.6-55.7,14.4-83.7,7.8,1.1,14.9,2.2,22.6,3.1.4,0,.4,0,.5.2.4.3.8.4,1.1.5,19.7,3.5,39.5,7,59.7,10.5-2.3,14-4.6,27.8-6.9,42Z"/>
  <path class="cls-37" d="M1088.1,164.9c9.8,8.1,19.4,16.1,28.9,24.1,1.7,1.5,3.4,3,5.5,4.8-17.9,22-35.6,43.6-53.7,65.7-13.8-11.2-27.5-22.3-41.4-33.4-8.3-6.9-16.3-13.6-24.5-20.5,17.9-21.9,35.7-43.7,53.7-65.7,10.5,8.4,20.8,16.7,31.4,25.1Z"/>
  <path class="cls-22" d="M446.9,281.1c5.8-5.6,11.7-11.2,17.4-16.9,10.5-10.4,20.9-20.8,31.3-31.3,1.3-1.3,2.2-2.8,3.4-4.5.5-.2.9,0,1.5.2,18.1,14.8,27.8,34.7,35.2,55.9,5.4,15.4,8.4,31.4,8.1,47.8-.2,13.2-2.5,26-7.7,38.6-2-1-3.8-2.1-5.3-3.6-22.9-22.9-45.8-45.8-68.8-68.7-1.4-1.4-3.1-2.4-5.2-3.9-3.7-4.7-6.9-9.2-10-13.7Z"/>
  <path class="cls-43" d="M1376.6,452.1c-15.5-2.7-30.7-5.4-45.9-8.1-3.1-.6-6.2-1-9.3-1.7-4.4-1-6-4-5.2-8.2,6.2-35.1,12.4-70.2,18.6-105.2.5-2.6.8-5.2,1.7-8.2,1.2.2,2.1.6,2.8,1.3,18.2,18.2,36.5,36.4,54.7,54.7,1,1,1.9,2.3,2.8,3.5,0,0,.2.3,0,.8-2,10.3-3.9,20-5.5,29.7-1.8,10.6-3.4,21.2-5.1,31.8-.6,1.7-1.2,3.4-1.7,5.2-1.1,3.7-4,4.5-7.8,4.6Z"/>
  <path class="cls-33" d="M1396.8,379.5c-1-.7-1.8-2-2.8-3-18.2-18.2-36.4-36.5-54.7-54.7-.7-.7-1.6-1.1-2.7-1.7-.4-.2-.4-.4-.5-.8,1.7-9,3.5-17.8,5-26.6,1.7-9.8,3.6-11.3,13.3-9.4,14.5,2.8,29,5.2,44,4.7,18.9-.5,36.9,4.2,54.1,11.9,6.4,2.9,7.6,5.7,4.7,12.2-5.3,12-10.8,23.9-16.3,35.9-3,6.5-6.4,7.9-12.8,4.6-8-4.1-16.2-6.7-25.9-6-1.8,10.8-3.6,21.6-5.4,32.8Z"/>
  <path class="cls-22" d="M550.8,387.3c.7,0,1.3.4,1.8.9,37.7,37.7,75.4,75.4,113.2,113.5-41.6,13.9-86.4,0-109.1-35.2-14.6-22.6-16-47-8.5-72.2.7-2.2,1.5-4.4,2.5-6.9Z"/>
  <path class="cls-43" d="M772.1,438.4c.5-1.4.9-2.8,1.7-3.6,14.1-14.2,28.2-28.3,42.4-42.4.6-.6,1.4-.9,2.4-1.4,6.8,10.4,16.2,15.6,28.9,15.9.6,0,.8,0,1.3.5,1.6,1.9,2.8,3.5,4.2,4.9,11.7,11.9,23.4,23.8,35.2,35.7-36,21.5-84.5,17.6-115.9-9.6Z"/>
  <path class="cls-33" d="M1006.1,246.3c-11.6,11.9-23.1,23.3-34.7,34.8-10.3,10.2-20.5,20.4-31,30.7-1.4-19.8-2.4-39.7-3.5-59.6,0-1.8,0-3.7-.2-5.5-.9-10.7,0-11.9,10.6-12.5,16.1-.9,32.2-1.6,48.3-2.3,8.6-.3,10,1.2,10.3,9.9,0,1.3.1,2.7.2,4.4Z"/>
  <path class="cls-24" d="M841,523.2c-8.7-.7-17.4-1.4-27-2.1-13.3-3.2-25.8-6.5-38.7-9.8-6.5,6.5-13.6,13.6-20.8,20.8-.2.2-.4.5-.6.8h-21.2c1-1.2,1.7-2.1,2.5-2.9,12.8-12.8,25.7-25.6,38.4-38.5,1.9-1.9,3.3-2.4,6-1.2,30.6,13.2,62,15.2,94.1,6.6,4.6-1.2,7.7-1.1,10.7,2.8,1.9,2.5,4.5,4.4,6.5,6.2-1.6,5.7-3.1,10.8-5,16-3.2-1.6-4.1-5.7-9-4.8-11.9,2.4-23.9,4.2-35.9,6.2Z"/>
  <path class="cls-11" d="M888.3,448c-12-11.9-23.7-23.8-35.4-35.7-1.4-1.4-2.6-3-3.9-4.8,13.4-.8,25-6,35.8-13.8,1.5-1.1,2.9-2.3,4.5-3.1,5-2.8,8.7-1.9,11.2,3.2,4.2,8.5,8.1,17.1,11.8,25.9,2.1,5,1.6,10.1-2.9,13.6-6.2,5-12.8,9.5-19.4,14.5-.6.3-.9.3-1.5.3Z"/>
  <path class="cls-21" d="M661,585.9c0-5.7,0-11.3,0-17,0-3,1.2-3.9,4.2-4.1,7.7-.6,15.4-1.4,23-2.6,20.1-3.1,37,11.4,36.7,32.3,0,.4-.1.5-.6.5-8-1.4-15.7-2.8-23.3-4.6-1-2.4-1.6-4.8-3.1-6.4-3.3-3.4-7.8-4-11.9-2.4-1.3.5-1.3,4.2-2.4,6.4-7.8-.6-15.1-1.3-22.4-1.9,0,0-.1-.1-.2-.2Z"/>
  <path class="cls-32" d="M794.2,611.7c-1.7,6.6-3.6,12.9-5,19.4-.8,3.5-2.1,4.4-5.5,3.3-8.9-2.8-17.8-4.7-27.3-4.6-11.5.1-21.4-10.5-21.4-22,0-3.1.5-6.2,1.4-9.7,7.6,1.1,14.7,2.5,21.7,3.9,0,0,.2.2.1.7.2,2.2.2,3.9.9,5.3,1.8,3.7,5.3,4.3,8.9,3.8,3.7-.5,2.6-3.6,2.8-5.9,0,0,.4-.2,1,0,7.7,1.8,14.8,3.6,22,5.4,0,0,.2.3.2.4Z"/>
  <path class="cls-21" d="M809,616.1s0-.4-.2-.6c3.7-16.9,7.6-33.5,11.3-50.2.7-3.3,2.1-4.9,5.9-3.7,4.3,1.4,8.7,2.3,13.1,3,3.9.6,4.5,2.6,3.7,6-3.9,16.6-7.8,33.3-12.2,50.3-7.5-1.4-14.5-3-21.6-4.7Z"/>
  <path class="cls-19" d="M869.5,630.7c-.1.5-.4.5-.9.5-7.5-1.7-14.4-3.5-21.4-5.2,0,0-.2-.2-.3-.2,2-16.6,4.2-33.1,6.2-49.6.4-3.4,1.8-4.7,5.2-4.1,3.9.7,7.9,1.2,11.9,1.7,6.5.8,6.6.8,5.7,7.4-1.7,13.4-3.4,26.7-5.1,40.1-.4,3-.8,5.9-1.3,9.4Z"/>
  <path class="cls-38" d="M819.3,389c-10.9-17.6,1.3-43.1,21.5-46.2,7.5-1.1,14.5-.1,21.9,2.2-14.1,14.7-28.6,29.2-43.3,44Z"/>
  <path class="cls-27" d="M1386.4,442.1c1.4-10.4,3-21,4.8-31.6,1.7-9.8,3.5-19.5,5.6-29.6,8.4,8.2,16.6,16.8,25.1,25.7-11.3,11.3-23.2,23.3-35.4,35.5Z"/>
  <path class="cls-51" d="M794.2,610.9c-7.3-1.4-14.4-3.2-21.9-5,1.7-8.3,3.8-16.5,5.7-24.7.7-3,2.3-3.6,5.1-2.9,4.8,1.3,9.6,2.6,14.4,3.8,3.2.8,3.8,2.3,2.9,5.4-2.2,7.6-4,15.4-6.2,23.5Z"/>
  <path class="cls-36" d="M864.3,345.1c12-12.5,24.2-24.7,36.8-37.2.3-.2.4-.2.4-.2.2,2.5,1.2,5.3.4,7.4-4.6,10.7-9.7,21.2-14.8,31.6-3.5,7.2-7.4,8-13.8,3.5-2.7-1.9-5.8-3.3-8.9-5.1Z"/>
  <path class="cls-51" d="M758.2,601.6c-7.1-1-14.2-2.4-21.6-3.9-.4,0-.5-.5-.6-.7,1-6.9,2.2-13.5,3.3-20.2.6-3.7,2.4-5.5,6.5-4.7,3.9.8,7.8,1.3,11.8,1.6,3.5.3,4.4,1.9,3.8,5.3-1.2,7.3-2.1,14.7-3.1,22.5Z"/>
  <path class="cls-42" d="M808.7,616.3c7.3,1.5,14.3,3.1,21.7,4.9.4,0,.6.4.6.5-1.5,6.4-3.1,12.7-4.4,18.9-.9,4.1-3.3,5-6.9,4.1-4.2-1-8.4-1.8-12.5-2.9-2.5-.7-4.5-1.5-3.5-5.1,1.9-6.6,3.1-13.5,4.9-20.5Z"/>
  <path class="cls-26" d="M1486.3,243.4c-3.3,1.5-6.3,3.2-9.4,3.9-8.3,1.8-15.5-6.3-13-14.4.7-2.3,1.8-4.7,3.3-6.6,3.8-5,8.8-8.3,15.5-7.2,5.1.8,8,4.5,9.5,9.2,2,6.4-.9,10.9-5.8,15.1M1473.5,232.2c-1.3,2.3-3.5,5.9.4,6.2,3,.3,6.5-2.9,9.4-5,.7-.6.6-4.1-.3-4.7-3.3-2.3-5.8,0-8.2,2.2-.2.2-.5.5-1.2,1.3Z"/>
  <path class="cls-12" d="M1420.2,171.2c-5.3,3.3-6,3.1-7.8-1.8-.4-1-1-2.1-1.8-2.7-4.1-3.3-6.3-7.2-4.7-12.6,1.2-4.2,4-6.7,8.5-7.3,5.1-.6,7.6.9,11.6,7.4,1.3-.8,2.7-1.6,4.1-2.5,1.4-.9,2.8-1.7,4.6-2.8,1.6,2.2,3.2,4.2,5.2,6.9-4.7,3.1-9.2,5.8-13.4,8.9-2.3,1.7-4.1,4.1-6.3,6.5M1414.1,155.4c-2.3,2.6-1.7,4.7,1.9,7.1,1.3-1.9,2.6-3.8,3.8-5.7-1.7-.6-3.3-1.2-5.7-1.4Z"/>
  <path class="cls-26" d="M1517.9,313.2c-.8-1.2-1.5-2.2-2.2-3.3-2.6,1.6-4.9,3-7.8,4.7-1.6-2.2-3.1-4.3-5-6.9,7.9-5.3,15.4-10.3,23-15.3.7-.4,2.3-.5,2.6-.1,3,3.9,6.4,7.7,8.4,12.1,2.1,4.8-.4,9.9-4.7,12.3-4.8,2.7-9.1,1.7-14.3-3.6M1522.1,307.3c1.4,2.8,3.6,3.7,6,1.5,2.6-2.3,2-4.6-1.1-7.1-1.7,1.6-3.4,3.2-4.9,5.6Z"/>
  <path class="cls-18" d="M1444.2,210.6c3-2.9,5.7-4.5,9.3-1.6,1.1.9,3.3,1.3,4.8.9,2.1-.5,4.7-1.3,5.8-2.9.8-1.3-.3-3.9-.8-5.9-.3-1-1.3-1.9-2.2-3.1,1.6-1.5,3.1-2.9,4.6-4.3,6.8,4,9.7,10.1,7.8,15.8-2.1,6.4-6.4,8.5-15.9,7.8,1.4,2.2,2.8,4.2,4.4,6.5-2,1.5-3.8,2.9-6.6,5-3.9-6.2-7.6-12.1-11-18.2Z"/>
  <path class="cls-1" d="M1495.8,261.6c7.9-2.2,10.6-1,14.4,5.9,1.5,2.7,3.3,5.3,4.8,7.5-3.9,3.8-7.3,7.4-11,10.7-2.5,2.3-5.9.9-7-2.5-.4-1.3-1.4-2.5-2.4-3.4-6.2-5.7-5.9-13,1.3-18.3M1497.8,273.6c2.6,4.5,4.2,0,6.1-.9.4-.2-.1-2.4-.2-3.6-2,.5-3.9.9-5.8,1.6-.3.1-.2,1.5,0,2.9Z"/>
  <path class="cls-5" d="M1548.9,354c-3.8-4.4-1.8-7.7,1.4-10.8,2-1.9,4.5-3.5,2.4-7.4-3.8,2.5-7.3,4.8-11.2,7.4-1.6-2.4-3.1-4.5-4.9-7.1,5.6-3.7,10.9-7.3,16.7-11.2,2.3,3,4.8,5.7,6.5,8.8,3.4,5.9,2.5,10.5-2.3,15.2-1.2,1.1-2.7,2.3-3.2,3.7-1.1,3.3-3,2.4-5.4,1.4Z"/>
  <path class="cls-12" d="M1372.9,111c4.3-2.8,8.3-5.5,12.3-8.2.4-.3.9-.5,1.6-.9,3.6,4.6,9.5,8.5,8,15-1.2,5.3-5,9.9-8.2,15.9-2.4-1.7-5.7-2.9-5.8-4.3-.2-2.6,1-5.7,2.5-8,1.5-2.4,5-3.6,3.1-7.9-3.7,2.3-7.2,4.6-11.3,7.2-.9-3.2-6.6-4.2-2.1-8.8Z"/>
  <path class="cls-23" d="M1397.7,126.5c3.2.5,6.4.6,8.8,2,4.7,2.7,6.5,8.4,5,12.9-1.7,4.8-5.5,7.6-10.1,7.3-5.6-.4-10.4-4.2-11.6-9.3-1.2-4.9.8-9.2,5.7-12.1.6-.3,1.2-.5,2.2-.8M1404.9,138.2c-1.4-1.4-2.6-3.2-4.3-4-.6-.3-2.8,1.9-3.4,3.3-.3.9,1.3,3.6,1.6,3.5,2-.4,3.9-1.3,6.1-2.8Z"/>
  <path class="cls-3" d="M1429.7,184.3c-.4,3.1-3.3,4.6-5.5,3-3.5-2.6-4.2-10.1-1.3-14.2,3.2-4.6,9.1-5.9,14.1-3,4.9,2.9,7.2,8.9,4.9,13.1-2.7,5-5.5,5.1-11.1,0-.9-.6-1.4-.8-1.8-.9.3.7.5,1.3.8,2M1430.8,179.6c1.4-.6,2.8-1.1,4.2-1.7.1-.4.2-.8.3-1.2-1.5-.2-3.6-1.1-4.5-.5-1.4,1-2,3.1-3,4.7.4.2.8.4,1.2.6.4-.5.8-.9,1.7-2Z"/>
  <path class="cls-3" d="M1564.7,365.3c-.3,1.1-.3,3-.9,3.1-1.4.4-3.5.6-4.6-.1-3.4-2.3-3.9-9.8-1.2-13.8,3.3-4.9,9.5-6.1,14.5-2.9,4.8,3,6.8,8.6,4.6,12.8-2.8,5.2-5.6,5.2-11.3-.2.9-2.2,2.2-3.8,4.1-6.3-1.2,0-3.2-.8-4.3,0-2.8,1.9-2.8,4.6-.8,7.4Z"/>
  <path class="cls-4" d="M1513.3,283.4c4.7-3.4,9-6.7,13.8-10.2,1.8,2.3,3.4,4.3,5.4,6.7-8.3,6.2-16.4,12.2-24.8,18.5-1.8-2.4-3.3-4.4-5.1-6.9,3.6-2.7,7-5.3,10.7-8.1Z"/>
  <path class="cls-23" d="M1548,319c-1.2,1.7-2.1,3.6-3.5,4.9-3.3,3-6.8,5.7-10.7,8.9-1.9-2.2-3.6-4.1-5.7-6.6,4.5-3.7,8.6-7.3,12.9-10.4.7-.5,2.6.6,4.4,1.4.7,1,1,1.4,1.6,2,.5,0,.8,0,1-.2,0,0,0,0,0,0Z"/>
  <path class="cls-40" d="M1546.7,319.1c-.3-.5-.6-1-1-1.6-.3-1.1-.5-2-.6-3-.4-3.3,1.3-6,4.4-6,2,0,4.9,2.1,5.7,4,1.3,3-.9,5.3-4,6.1-.8.2-1.6,0-2.8.2-.4.2-.3.2-.3-.1-.4,0-.9.1-1.3.4Z"/>
  <path class="cls-44" d="M770.7,605.8c.1,2.5,1.2,5.6-2.5,6.1-3.6.5-7.1,0-8.9-3.8-.7-1.4-.7-3.2-.9-5.2,4.1.6,8.1,1.7,12.4,2.9Z"/>
  <path class="cls-17" d="M1167.9,93.1c0-8.9,0-17.8.1-27.2,1.8,10.5,3.4,21.4,5,32.7-.1.4,0,.4,0,.4-1.3-1.1-2.6-2.2-4-4-.4-1.1-.8-1.5-1.2-2,0,0,.1,0,0,0Z"/>
  <path class="cls-49" d="M1439.1,190c3.3,3.2,6.4,6.6,9.5,10.1,0,.1-.6,1.2-1.1,1.4-.5.2-1.4,0-1.7-.3-2.4-3.6-4.6-7.2-6.7-11.1Z"/>
  <path class="cls-45" d="M1492.1,257.8c.7,2.9-.2,4.2-2.4,2.2-2.5-2.4-4.3-5.4-6.3-8.3-.4-.6,0-1.7,0-2.6,1,.3,2.3.3,2.8.9,2,2.4,3.8,5,5.9,7.8Z"/>
  <path class="cls-6" d="M1167.6,93.3c.6.2,1,.6,1.3,1.4-.6-.1-1-.6-1.3-1.4Z"/>
  <path class="cls-17" d="M1173,99c.1,0,.3,0,.4,0,0,0-.2.1-.3,0,0-.2,0-.1,0,0Z"/>
  <path class="cls-25" d="M1175.1,158.5c-.2.1-.6,0-1-.3.2-.2.6,0,1,.3Z"/>
  <path class="cls-2" d="M963.1,650.1c16.4.7,32.8,2.4,49.2,2.6,37.2.5,73.7-5.1,109.5-15.5,34.9-10.2,69.7-20.8,104.8-30.3,23.9-6.5,48.3-10.4,73-11.9,20.2-1.2,40.5-3.1,60.7-2.6,26.5.7,53,3.4,79.4,5.6,9.9.8,19.7,2.7,30,4.2-3.4,6.2-6.9,12.6-11.2,18.5-17.1,23.8-35.8,46.2-57.1,66.3-24.6,23.2-51.5,43.3-81.5,59.2-30.9,16.4-63.7,27.3-98,33.6-23.4,4.3-47.2,5.6-70.9,4-43.9-2.9-84.1-16.8-118.9-44.4-23.5-18.7-42.4-41.5-57.6-67.4-4.1-7-7.7-14.3-11.5-21.9Z"/>
  <path class="cls-9" d="M661.1,586.5c7.4.2,14.7.8,22.5,1.5.5,0,.5,0,.4.5,0,3.4-.4,6.4,0,9.3.2,1.4,1.6,3.4,2.8,3.8,8.4,2.7,14.3-2,13.9-10.9,0,0,.1-.1.1-.1,7.6,1.4,15.2,2.8,23.2,4.3-.6,9.7-5.3,16.9-14,21.3-8.1,4.1-16.8,4.6-26.3,2.5,0,7.3-.2,14,0,20.6.2,4.4-1.4,6-5.8,5.7-4.1-.3-8.3-.2-12.5,0-3.8.2-4.9-1.5-4.9-5.1.1-17.7,0-35.3.2-53.4Z"/>
  <path class="cls-2" d="M847,626.4c7.1,1.3,14.1,3,21.4,4.9-.3,7.3-.8,14.6-1.9,21.8-.2,1.1-2.5,2.8-3.8,2.8-5.4-.3-10.8-1-16.2-2.1-1.1-.2-2.7-2.6-2.5-3.9.7-7.7,1.8-15.4,2.9-23.4Z"/>
  <path class="cls-20" d="M707.5,233.9c1.4-4.5,2.8-8.9,3.2-13.4.4-3.8,2.1-4.8,5.5-4.5,4.1.4,8.3.8,12.4.8,4,0,4.8,2,4.4,5.3-.4,3.6-.5,7.3-.8,11.5,3.9,0,7.8,0,11.7,0,4.8,0,9.7-.3,14.3.5,5.6,1.1,8,4.8,7.7,10.5-.8,17.1-5.9,32.9-14.3,47.8-1.6,2.8-3.7,4.2-7,2.8-1.1-.4-2.2-.6-3.4-.8-9.6-1.8-9.5-.9-6.5-11.6,2.5-8.8,4.3-17.7,6.6-26.6.8-2.9-.2-4.1-3.1-4.1-1.7,0-3.3.1-5,0-2.8-.2-4,.8-4.7,3.7-2.6,12-5.8,23.9-8.4,35.9-.8,3.6-2.5,4.7-5.8,4.4-3-.2-6-.1-9-.2-5.4-.2-6.2-1-5.4-6.2,1.8-10.6,3.6-21.3,5.4-31.9.2-1.4.3-2.9.4-4.3-.8-.3-1.3-.6-1.7-.7-3.3-.6-9.1-.5-9.5-1.9-1.3-4.7-.8-9.8-.5-14.8,0-.7,2.2-1.9,3.4-2,3.1-.3,6.3-.2,9.9-.3Z"/>
  <path class="cls-20" d="M580,241c2.8,10.1,5.6,20.1,8.5,30.2,2,7.1,2.1,7.1-4.9,9.1-3.2.9-6.5,1.7-9.5,2.9-3.9,1.6-5.7.4-6.8-3.5-5.7-19.7-11.5-39.2-17.3-58.9-1.3-4.5-2.5-9-4-13.4-.9-2.5-.5-4.2,2.2-5,5-1.4,9.9-2.9,14.8-4.3,3.4-1,4.3,1.1,5,3.9,2.6,9.1,5.3,18.2,8.3,28,1-2.4,1.4-4.3,2.5-5.5,1.5-1.7,3.5-4.1,5.3-4.1,8-.2,15.9.2,23.9.9,1,0,2.9,2.8,2.7,4-1,5.5-2.7,11-4.1,16.4-.9,3.5-3.1,3.6-6.1,3-6.5-1.4-13-2.5-20-3.8-.5,0-.6,0-.7,0,.1,0,.2.1.3.2Z"/>
  <path class="cls-14" d="M791.9,258c-2.1,0-3.9-.1-5.4.3-7,1.8-7.4.7-8.4-6.9-.1-1,0-2-.1-3-.4-10.6-.4-10.9,10.2-12,13.7-1.4,27.5-2.3,41.2-3.4,4.5-.4,8.9-1,13.4-.9,1.4,0,3.7,1.8,3.9,3,.8,4.6.9,9.2,1.3,13.9.2,2.7-.8,4-3.6,4.2-8.9.8-17.8,1.8-26.7,2.6-8.4.8-16.9,1.4-25.8,2.1Z"/>
  <path class="cls-46" d="M682.5,258.4c-.1,2.5,0,5.1-1,6.9-7.4,13.2-16.5,24.9-28.6,34.1-3.8,2.9-7,3.2-10.8.5-2.2-1.6-4.7-2.9-7.1-4.4,7.9-9.4,15.4-18.4,23.9-28.6-3.6,0-5.7-.3-7.6,0-4.4.7-6-1.5-6.3-5.4-.2-2.6-.4-5.4-1.2-7.8-1.6-4.7.3-6,4.8-6.4,8.6-.8,9.9-.2,12.9,7.9.4,1.2.9,2.4,1.3,3.5.5,0,.7,0,.8,0,2.2-2.5,4.3-6.8,6.7-7,2.8-.2,6,3.1,9,4.8,1,.6,2,1.2,3.3,2Z"/>
  <path class="cls-13" d="M624.1,261.8c0-.9-.1-1.4-.1-1.9,0-3-.5-8.5.1-8.7,3.9-.9,8.2-1,12.2-.3,1.6.3,3.2,3.1,4.1,5,5.4,12.6,4.4,13.6-8.9,14.2-6.8.3-6.5-3.8-7.3-8.4Z"/>
  <path class="cls-35" d="M607.4,197.8c.5,4-2.7,10.6-4.7,9.8-3.7-1.3-7.2-3.7-10.4-6.2-.3-.3,1.7-4.3,3.3-6,1-1,3.3-1.5,4.8-1.1,2.4.6,4.5,2.1,7,3.5Z"/>
  <path class="cls-8" d="M591.8,209.1c-1.5.8-2.7,1.4-3.9,1.9-5,1.9-10.9-2.1-10.9-7.5,0-1,1.1-2.5,2.1-2.8,2.6-.9,6.9-2.7,7.9-1.6,2.5,2.5,3.5,6.5,4.8,10.1Z"/>
  <path class="cls-22" d="M1293.9,387c-8.8,6.3-18.9,7.2-28.8,7.8-11.1.7-22.3.2-33.5,0-6.9,0-9.3-2.1-10.4-8.8-1.5-8.5-2.8-17-4.1-25.5-.7-4.6,1.4-6.9,6.3-7.5,4.4-.5,8.9-.9,13.3-1.9,4.7-1,5.5-3.2,3.6-7.6-3.9-8.8-16.2-12.9-26.2-8.5-11,4.9-16,14.1-17.1,25.6-2.6,26.7,16.6,44.2,41.5,48.3,3.1.5,6.3.7,9.4,1.1,6.3.9,9.7,6.2,6.9,11.9-4.8,9.5-10,18.8-15.5,27.9-3.4,5.6-9.3,6.9-15.4,6.1-24.6-3.3-47-11.6-64.9-29.6-23.8-23.9-31-63.7-17-94.4,13.7-30.2,37.7-45.7,70.3-49,19.8-2,38.9.4,56.8,8.9,22.1,10.5,33.6,29,35.9,53.1.7,7.2.5,14.5,0,21.8-.5,8.2-4.3,14.9-11,20.3Z"/>
  <path class="cls-50" d="M446.6,280.9c3.4,4.6,6.5,9.1,9.9,13.8,5.6,12.3,9.7,24.7,9.4,38.2-.6,31.2-28,58.1-58.7,57.1-2.7-12.4-5.4-24.8-8.1-37.3-5.3-24.7-10.5-49.4-15.8-74.1-.8-3.6-.2-5.3,3.5-6.6,15-5.2,30.1-7.9,45.2-1,5.2,2.4,9.6,6.4,14.6,9.9Z"/>
  <path class="cls-25" d="M1046.9,406.9c.1-.4.3-.6.8-.9.2,0,.2,0,.2,0,0,.3-.1.7-.4,1.2-.2.2-.5,0-.6-.2Z"/>
  <path class="cls-25" d="M1048,406c0,0,.2,0,.1,0-.2,0-.1,0-.1,0Z"/>
  <path class="cls-25" d="M639,387c22.7,1,32.1,16.4,29.8,35.9-.9,7.5-3.3,14.6-8.5,20.4-12.4,13.9-33.4,12.9-45.6-2.1-13.2-16.3-6.8-43.9,12.3-52,3.5-1.5,7.7-1.5,12.1-2.2Z"/>
  <path class="cls-47" d="M684.1,588c.6-2.2.6-5.9,1.9-6.4,4.1-1.6,8.6-1,11.9,2.4,1.5,1.6,2.1,4,3.1,6.4,0,.4,0,.4-.5.4-5.7-.9-11-1.8-16.3-2.7,0,0,0,0,0,0Z"/>
  <path class="cls-10" d="M1473.7,231.9c.5-.5.7-.8,1-1,2.4-2.2,4.9-4.5,8.2-2.2.8.6,1,4.1.3,4.7-2.9,2.2-6.4,5.3-9.4,5-3.9-.4-1.6-3.9-.1-6.5Z"/>
  <path class="cls-41" d="M1414.4,155.2c2,.4,3.7,1,5.3,1.6-1.3,1.9-2.5,3.7-3.8,5.7-3.6-2.4-4.2-4.5-1.5-7.3Z"/>
  <path class="cls-34" d="M1522,306.9c1.6-2,3.3-3.6,5-5.2,3.1,2.5,3.7,4.8,1.1,7.1-2.5,2.1-4.6,1.2-6.1-1.9Z"/>
  <path class="cls-48" d="M1497.6,273.3c0-1.1-.2-2.5.2-2.6,1.9-.7,3.9-1.1,5.8-1.6.1,1.3.7,3.4.2,3.6-1.8,1-3.4,5.4-6.2.6Z"/>
  <path class="cls-31" d="M1404.8,138.5c-2.1,1.1-3.9,2.1-5.9,2.5-.4,0-2-2.6-1.6-3.5.6-1.4,2.8-3.6,3.4-3.3,1.7.8,2.9,2.6,4.2,4.4Z"/>
  <path class="cls-30" d="M1430.6,179.9c-.7.8-1.1,1.2-1.5,1.7-.4-.2-.8-.4-1.2-.6,1-1.6,1.6-3.7,3-4.7.9-.7,3,.3,4.5.5-.1.4-.2.8-.3,1.2-1.4.6-2.8,1.1-4.5,2Z"/>
  <path class="cls-30" d="M1429.9,184.1c-.5-.4-.8-1.1-1-1.7.4.1.9.3,1.5.7,0,.4-.1.6-.5,1Z"/>
  <path class="cls-30" d="M1564.9,365.1c-2.3-2.5-2.2-5.3.6-7.1,1.1-.7,3.2,0,4.3,0-2,2.4-3.3,4.1-4.4,6.1,0,.5-.1.6-.5,1Z"/>
  <path class="cls-30" d="M1547.1,319.2c.1-.4.6-.6,1-.5-.2.4-.5.5-1,.5Z"/>
  <path class="cls-44" d="M684.1,588.5c5.4.4,10.7,1.3,16.4,2.3.7,8.9-5.2,13.6-13.5,10.9-1.3-.4-2.6-2.4-2.8-3.8-.4-2.9-.1-5.9,0-9.3Z"/>
  <path class="cls-39" d="M580,241c-.1,0-.2-.1-.3-.2,0,0,.2,0,.3,0,0,.1,0,.1,0,.1Z"/>
</svg>