<?xml version="1.0" encoding="UTF-8"?>
<svg id="Layer_1" data-name="Layer 1" xmlns="http://www.w3.org/2000/svg" version="1.1" viewBox="0 0 1920 1148">
  <defs>
    <style>
      .cls-1 {
        fill: #f7984d;
      }

      .cls-1, .cls-2, .cls-3, .cls-4, .cls-5, .cls-6, .cls-7, .cls-8, .cls-9, .cls-10, .cls-11, .cls-12, .cls-13, .cls-14, .cls-15, .cls-16, .cls-17, .cls-18, .cls-19, .cls-20, .cls-21, .cls-22, .cls-23, .cls-24, .cls-25, .cls-26, .cls-27, .cls-28, .cls-29, .cls-30, .cls-31, .cls-32, .cls-33, .cls-34, .cls-35, .cls-36, .cls-37, .cls-38, .cls-39, .cls-40, .cls-41, .cls-42, .cls-43, .cls-44, .cls-45, .cls-46, .cls-47, .cls-48, .cls-49, .cls-50, .cls-51, .cls-52, .cls-53, .cls-54, .cls-55, .cls-56, .cls-57, .cls-58, .cls-59 {
        stroke-width: 0px;
      }

      .cls-2 {
        fill: #fd315e;
      }

      .cls-3 {
        fill: #f67c19;
      }

      .cls-4 {
        fill: #82d8ff;
      }

      .cls-5 {
        fill: #f1227e;
      }

      .cls-6 {
        fill: #38c8ff;
      }

      .cls-7 {
        fill: #fdfbfd;
      }

      .cls-8 {
        fill: #fffeff;
      }

      .cls-9 {
        fill: #3ea9fd;
      }

      .cls-10 {
        fill: #40a9fa;
      }

      .cls-11 {
        fill: #fefdfe;
      }

      .cls-12 {
        fill: #f67c18;
      }

      .cls-13 {
        fill: #7b4788;
      }

      .cls-14 {
        fill: #f49dfc;
      }

      .cls-15 {
        fill: #40aafd;
      }

      .cls-16 {
        fill: #9755a1;
      }

      .cls-17 {
        fill: #efe5f1;
      }

      .cls-18 {
        fill: #3fa9fd;
      }

      .cls-19 {
        fill: #9653a0;
      }

      .cls-20 {
        fill: #9553a0;
      }

      .cls-21 {
        fill: #ff9499;
      }

      .cls-22 {
        fill: #f59dfd;
      }

      .cls-23 {
        fill: #f56676;
      }

      .cls-24 {
        fill: #784286;
      }

      .cls-25 {
        fill: #9959a4;
      }

      .cls-26 {
        fill: #ff959a;
      }

      .cls-27 {
        fill: #794487;
      }

      .cls-28 {
        fill: #ff497b;
      }

      .cls-29 {
        fill: #f7994e;
      }

      .cls-30 {
        fill: #784386;
      }

      .cls-31 {
        fill: #36c8ff;
      }

      .cls-32 {
        fill: #f7994d;
      }

      .cls-33 {
        fill: #6fc0ff;
      }

      .cls-34 {
        fill: #9755a2;
      }

      .cls-35 {
        fill: #f79c52;
      }

      .cls-36 {
        fill: #4cddff;
      }

      .cls-37 {
        fill: #fd335f;
      }

      .cls-38 {
        fill: #70c0ff;
      }

      .cls-39 {
        fill: #f11e7c;
      }

      .cls-40 {
        fill: #72e6ff;
      }

      .cls-41 {
        fill: #83d7ff;
      }

      .cls-42 {
        fill: #56caff;
      }

      .cls-43 {
        fill: #61d7ff;
      }

      .cls-44 {
        fill: #3faafd;
      }

      .cls-45 {
        fill: #9654a1;
      }

      .cls-46 {
        fill: #57caff;
      }

      .cls-47 {
        fill: #fff;
      }

      .cls-48 {
        fill: #4dddff;
      }

      .cls-49 {
        fill: #ff477a;
      }

      .cls-50 {
        fill: #9655a1;
      }

      .cls-51 {
        fill: #fd325e;
      }

      .cls-52 {
        fill: #f67d1a;
      }

      .cls-53 {
        fill: #fd325f;
      }

      .cls-54 {
        fill: #f56777;
      }

      .cls-55 {
        fill: #784285;
      }

      .cls-56 {
        fill: #f57b17;
      }

      .cls-57 {
        fill: #f7c14e;
      }

      .cls-58 {
        fill: #ff487a;
      }

      .cls-59 {
        fill: #4bddff;
      }
    </style>
  </defs>
  <path class="cls-8" d="M537.9,744.1c-9.4,11-21.6,14.4-35,14.9-10,.3-20,.4-29.6-3-15.6-5.4-24.4-16.7-27.7-32.7-.8-3.8-7.5-7-10.8-5-17.2,10.7-34.4,10.7-51.5-.2-5.4-3.5-11-6.9-15.9-11-13.9-11.8-16.3-32.6-9-48.2,2.1-4.4,1.7-7.4-.8-10.8-.6-.8-1.5-1.5-1.6-2.4-1.1-7.4-6.3-6.7-11.8-6.9-9.7-.4-18.4-4-25.9-10.6-8.3-7.3-14.3-16.1-16.5-26.9-1.8-8.9-2.8-18-4.2-26.9-2.3-14.1-4.7-28.1-6.9-42.2-1.5-9.3-2.7-18.6-4.1-28-.3-2.1-.8-4.1-1.3-6.6-12.9,6.1-25.5,5.5-37.9-.7-1.6-.8-2.9-2.3-4.5-2.9-5.6-2.1-6.6-9.8-14-10.3-5.8-.4-11.7-2.3-16.9-4.8-24.3-11.7-30.7-45.1-10.7-64.8,5-4.9,6.2-10.2,7.3-16.3,3.7-20.9,23.6-34,43.3-32.7,4.9.3,9.7,2.1,16,3.6-1.6-4.3-2.2-8.6-4.5-11.8-5.1-6.9-9.4-14-10-22.7-.4-5.1-4.6-6.3-7.6-8.5-8.4-6.1-14.1-13.8-16.6-23.8-2.1-8.4-4.9-16.9-5.4-25.4-1.1-18.8,11.6-34.4,29.2-40.7,20.3-7.3,40.4-15.3,60.8-22.5,13.7-4.8,27.3-4,39.6,4.1,3.5,2.3,6,2.8,10.2,1.7,14.5-3.9,28-.3,40,8.4,5.8,4.2,11.2,9.1,16.2,14.3,3.1,3.2,6.5,5.5,10.7,5.9,8,.8,14.6,4.6,21.1,9.2,8.4-5.5,17.6-8.4,27.7-7,6.2.8,12.3,2.4,18.4,4,9.3,2.5,18.6,4.9,27.7,8.1,5.4,1.9,10.3,5.1,15.5,7.7,1.8.9,3.7,2,5.6,2.1,9.8.2,19.5,0,29.2-2.5,6.7-1.7,14.2-.3,21.8-.3-.9-9.3.5-17.8,5.1-25.6,5.7-9.8,13.7-17,25-19.3,5.9-1.2,8.3-6.6,13.1-8.9,8.5-4.1,16.8-8.6,25.4-12.3,6.5-2.8,13.4-2,20.1-.6,1,.2,2.1.2,3.1.2,9.1-.1,18.3-.9,27.3-.2,7.3.6,14.9,1.9,21.5,4.9,13.2,6,21.6,17.1,27.3,30.3.6,1.5,1.4,3,2.1,4.7,10.1-6.6,21-7.1,31.7-8.3,9.9-1.1,19.7-2.6,29.6-3.6,12-1.3,24.1-3.1,36.2-3,8.8,0,16.5,4.8,23.2,10.8,1.7,1.6,4.4,2.6,6.8,2.8,8.2.7,16.5,1,24.7,1.4,6.6-18.4,18.9-31.1,36-39.3,9.8-4.7,20.1-8.5,29.9-13.2,2.7-1.3,4.6-4.6,6.6-7.2,10.5-13.8,23.8-22.7,41.3-24.7,26.8-3.1,48,7.4,63.3,28.4,11.9,16.3,21.5,34.3,32.1,51.6.7,1.1,1.2,2.3,1.5,3.5,1,4.1,3.4,5.6,7.8,5.6,17.1,0,34.2.5,51.3.9,13.4.3,26.8.6,40.3,1,9.1.3,18.1.9,27.3,1.4-2.5-21,.2-46.6,35.5-67-1.8-3.8-3.8-7.6-5.5-11.4-4.2-9.5-5.6-19.6-5.5-29.9,0-4.2,1.3-8.3,1.6-12.5.1-1.8-.2-4.1-1.2-5.5-13.1-16.5-12.9-41.2-.5-58,8.6-11.7,20.3-18.1,35-19.3,19.5-1.5,34.2,7.5,46.9,20.7,3.4,3.5,6.4,4.5,11,3.4,26.1-6.4,54.3,10.9,57.9,37.8.9,6.9.6,14.3-.7,21.2-1,5.2-.3,9.1,2,13.6,3.7,7.2,6.6,14.9,9.9,22.3.6,1.4,1.4,3.2,2.7,3.9,17.6,9.8,29.1,24.6,34.2,44,2.4,9.2,3.6,18.8,5.4,28.4,3.8,3.4,8.2,7.4,12.8,11.3,1.3,1.1,3,2.3,4.5,2.4,12.9.5,25.8.5,38.7,1.2,4.3.2,7.1-1.8,10-4,7.1-5.6,14.9-9.2,24.1-10.3,3.1-.4,6.1-2.7,8.8-4.6,8.6-6.1,18.4-9.5,28.6-9,20,.9,36.3,10.1,44.9,28.5,6.8,14.6,11.3,30.3,16.3,45.7,4.8,15,9.2,30.1,13.2,45.3,1.5,5.8,1.3,12,1.9,18,.1,1.3.2,2.7.8,3.7,7.6,11.4,10,24.6,13.1,37.5,3.1,12.9,5.7,25.8,8.3,38.8,2.7,13.5,5.3,26.9,7.7,40.5,2.8,15.3,5.6,30.6,7.9,45.9,1.8,11.6,2.7,23.3,4.1,35,1.3,10.7,2.8,21.3,3.9,32,2.1,19-.3,37-14.2,51.5-4.1,4.3-9.3,7.5-14.4,11.6,2.7,40.8,1.5,82.6,1.5,124.4,0,13.7-1.1,27.4-1.9,41-.8,13.1-1.8,26.2-3,39.3-1.5,15.4-3,30.9-5.1,46.2-1.1,8-2.4,16-5.1,23.6-6.1,17.4-18.7,28.8-36.5,33.1-17.2,4.2-33.2.4-46-12.2-9.3-9.2-15.6-20.5-15.3-34,.3-11.3,1.9-22.5,2.8-33.8.2-2.1,0-4.3,0-7.3-6.4,2.5-12.2,4.8-18.1,7.1-11.2,4.4-22.3,8.9-33.4,13.4-1,.4-2.3,1.1-2.8,1.9-7.6,14.7-15,29.5-22.8,44.7,5.6,3.1,11.3,6.2,17,9.4,8.1,4.5,16.5,8.8,24.3,13.8,9.7,6.3,15,15.5,16.9,27.2,3.6,22.9-12.8,40.7-28.9,45.2-30.1,8.5-59.9,17.9-89.9,26.8-10.8,3.2-21.5,7.2-32.5,8.7-10.4,1.3-20.2-2.8-28.6-9.8-9.7-8.1-13.2-19.2-16.4-30.7-4-14.7-8.5-29.2-12.9-43.8-1.4-4.7-3.2-9.3-4.6-13.3-6.1,3.7-11.7,8.2-18.1,10.8-13,5.2-29.3,2.4-40.5-7.4-8-7.1-12.6-15.8-14.8-26.1-.2-1.1-.8-2.6-1.7-3.1-7.8-4.7-13.4-11.3-17.1-19.9-12.5,5.1-25.4,3.8-38.3,3.8-71.5,0-143,0-214.5,0-17.7,0-31.9-6.8-40.1-23.3-2.2-4.5-6.7-3.2-9.8-3.4-19.4-1.1-38.2-4.8-56.8-10-2.6-.7-5-.9-7.2,1.7-9.8,11.8-22.9,16.1-37.8,17.2-12.1.9-24.2,3.5-36.3,4.6-12.3,1.2-24.7,4.3-37.1.9-14.3-4-24-13.6-31.3-27.3-4.2,3.6-8.6,6.9-12.4,10.8-10.4,10.5-23.4,15.2-37.5,15.7-19.4.7-34.7-8.1-46.4-23.7-9.9,5.9-20.7,10.2-32.3,9.7-23.8-1-46.9-14.1-54.6-38.7-4.3-13.7-3.8-27.7.1-41.5,1.6-5.7,3.1-10-2.1-16.2-13.3-15.8-16.3-35.4-14.6-55.6.4-4.8,1.5-9.5,2.5-15.1-9.4-1.2-19.1-2.5-29.1-3.6M1221,397.4c-5.6,7.6-9,16-8.6,26.6.3,3,.3,6,1,8.9,4.5,19.8,23.8,35.4,47.4,32.3,19.5-2.6,35.7-19.8,36.3-39.7-.4-4.1-.9-8.3-1.4-13.2-2.5-9.9-8.2-17.6-16.2-23.8-17.3-13.2-45.3-9.1-58.4,8.9M869.4,613.9c4.1,0,8.3,0,12.4,0,6.5.2,11.4-2.7,13.8-8.6,4.2-10.4,7.8-21,11.8-32.2-1.5-6.1-4.8-7.8-11.8-7.6-18.3.6-35-3.2-46.9-18.8-9.8-12.8-10.4-32.8-1.1-45.1,8.4-11.1,25.9-11.8,33.7-1.3,3.1,4.2,2.3,7-2.6,8.6-4.1,1.3-8.3,2.1-12.5,3.3-5.6,1.6-6.6,3.5-4.9,9.2,2.3,7.8,4.7,15.5,7.1,23.3,2.4,7.7,4.9,9.1,12.8,8.1,5.3-.7,10.6-.8,15.8-1.9,11.1-2.4,22.5-4.5,33.2-8.1,11-3.8,17.7-12.1,18.4-24.3,1-16.5-2.7-32-11.4-46.1-3.1-5-7.6-9.1-11.8-14.2-6.9-4.1-13.5-9.3-20.9-12.2-17.3-6.7-35.5-6.5-53.5-3-22.4,4.2-41.8,13.8-55.9,33.5-24.1,30.4-19.9,82.3,9.4,110.1,1.6,1.4,3.3,2.9,5.2,5,2.6,2,5.1,4.2,7.9,6,15.5,10,32.5,15.2,51.8,16.3M333.3,539.9c2.7,17.6,5.4,35.2,8.2,52.7.7,4.5,4.2,6.8,8.7,6.1,19.4-2.9,38.8-5.9,58.1-9,8.8-1.4,10.2-3.4,9.1-12.4-.3-2.1-.8-4.2-1-7.2-2.4-15.1-4.8-30.1-7.1-46-3.3-20.7-6.6-41.4-9.9-62.1-2-12.4-4.1-24.7-6-37.9-3.3-21.3-6.6-42.6-10-63.9-.9-5.7-4.4-8-10.4-7.1-3.9.6-7.9,1.3-11.8,1.9-15.9,2.6-31.8,5.2-47.7,7.8-4.7.8-7.5,3.5-6.9,8.1.9,7.4,2.5,14.7,3.7,22.9.8,5.8,1.5,11.5,2.4,17.3,4.5,29,9.1,58,13.7,87,1.9,12,4,23.9,5.9,36.6.3,1.4.6,2.8.8,5.1M1161.7,539.9c-.1-10-.3-19.9-.3-30.8-.7-26.4-1.3-52.7-1.9-80-.7-19.4-1.4-38.7-1.9-59,0-5.8,0-11.6,0-17.4-.1-5.3-2.4-7.7-7.7-7.6-17.4.3-34.8.8-53.1,1.1-7.1.3-9.3,2.4-9.2,9.3.2,11.9.7,23.9,1,35.8.4,15.9.8,31.9,1,48.7.4,14,.8,28.1,1,43,.7,22.3,1.4,44.7,2,67.9.3,11.6.6,23.3.9,34.9.2,6.5,1.9,8.2,8.5,8.1,17.5-.3,35-.7,52.4-1.1.3,0,.7,0,1,0,5.9-.6,8.2-3.2,8-9.2-.3-12.5-.6-25-1-37.4,0-1.8-.5-3.6-.7-6.2M1428.6,274.3c17.2-13.8,20.7-44.1,7.1-61.5-7.2-9.2-18.9-12.3-29-7.7-4.4,2-6.3,5.9-5,10.2,1.2,3.9,5.1,6,9.5,5.1,8.7-1.7,12.6.4,15.3,8.9,3.7,11.5,1.7,22-6.2,31.2-2.6,3-3.9,6.2-2,10,1.8,3.6,4.9,4.7,8.8,4.2.5,0,1,0,1.8.9-2.7,3.6-4.5,8-1,11.3,2.8,2.5,7.4,3,11.6,4.6-44.3,13-88.9,24.2-135.5,25,5-4.1,10.3-7.1,15.4-10.5,4-2.7,5-6.7,2.8-10.4-2.2-3.8-5.8-5.5-9.8-3.5-10,5-19.8,10.5-27,19.3-6.2,7.6-3.8,16.5,5.6,19.4,5.9,1.8,12.4,2.3,18.6,2.2,28.3-.5,55.9-5.9,83.2-12.7,22-5.5,43.6-12.7,65.3-19.7,3.9-1.2,7.5-4.4,10.4-7.5,4.6-5,3.4-11.2-2.6-14.7-2.1-1.2-4.6-2.3-7-2.4-10.2-.6-20.4-.7-30.4-1.7M726.1,555.6c6.9-12.1,13.7-24.2,20.6-36.3,2-3.5,1.3-6.2-2.3-8.3-7.1-4.1-10.9-10.3-12.2-18.3-.4-2.9-1-5.8-1.4-9.6.4-8.7.9-17.4,1.3-26.4,6.5,1.1,11.7,2,16.9,2.9,5.3,1,8.4-1,9.4-6.2,2.7-14,5.5-28,8.1-42,1.5-7.9-.3-10.1-8.2-11.4-5.2-.8-10.3-1.8-15.6-2.7,2.2-12,4.2-23.4,6.3-34.8,1.1-6.3-.8-9.4-7.3-10.5-17.5-3-35.1-6-52.6-8.8-5.9-1-9,1.3-10.3,7.4-.9,4.2-1.5,8.5-2.2,12.8-1.3,7.3-2.7,14.6-4.1,22.1-5.9-1-11.2-1.8-16.4-2.9-4.6-.9-7.6.7-8.6,5.2-3,14.8-6.1,29.6-8.8,44.4-1.2,6.5.9,8.6,7.5,9.7,6.1,1,12.2,2.2,18.3,3.3-.6,7.5-1.5,14.3-1.6,21.1-.1,8.9.4,17.9.6,27.7.4,3.6.6,7.3,1.2,10.8,2.5,13.2,6.8,25.6,17.1,35.8,9.7,9.6,21.7,15,34.4,19,3.8,1.2,7.2,0,9.9-4M1278.5,526.1c1.5-13.5,2.9-27,4.7-40.5,1-7.6,0-9.9-7.4-10.8-16.8-2.1-33.7-3.4-50.3-6.1-9.5-1.6-11.5,2.8-12,10.3-.5,7.4-1.7,14.8-2.5,22.2-1.2,11.2-2.3,22.4-3.8,34.4-1.9,16-3.8,32-5.6,48-1.1,9.6-2.1,19.2-3.1,28.7-.5,4.5,1.3,7.2,6.2,7.8,18.5,2.1,36.9,4.5,55.4,6.6,4,.5,6.9-1.8,7.4-5.8,2.5-21.6,4.9-43.2,7.7-65.5,1-9.5,2.1-18.9,3.3-29.3M438.6,522c-.7,15.4-1.5,30.8-2,46.3-.2,5.4,2.1,7.5,7.4,7.8,17.7.9,35.5,1.9,53.2,2.9,6.2.4,9.2-2.4,9.4-8.8,0-3.7,0-7.3.2-11,.8-15.7,1.7-31.5,2.7-48.1.6-13,1.3-26.1,2-39.9,1.5-.6,3.1-2,4.5-1.8,10.2,1.3,18.4,6.2,24.6,15.4,2,7.4,4.1,14.8,6,23.2.3,6.6.7,13.3.9,19.9.8,29.1,21.7,52.4,47.7,60.4,2.7.8,6.7.6,8.9-.9,10.6-7.1,20.9-14.7,31-22.5,4.5-3.5,4.5-6.5.4-10.4-11.6-11.1-17.5-24.4-17.1-41.4-.1-4.1-.2-8.1-.2-13-.3-3.5-.3-7-.9-10.4-4.7-29.9-20.8-51.7-47.6-65.4-21.4-10.9-44.3-14.2-68.2-11.5-8.1.9-16.1,1.9-24.2,2.1-8.6.2-17.3-.6-25.9-1-4.2-.2-6.8,1.6-7.1,5.9-.7,8.4-1.1,16.8-1.8,26.2,0,3.7,0,7.3-.2,11-1.2,21.4-2.4,42.7-3.8,65M1517.6,845.7c2.2,4.5,4.3,9,6.6,13.4,2.6,4.9,6.8,6.7,12.1,5.4,2.1-.5,4.1-1.3,6.1-2.1,16-6.5,32-13,48.1-19.6,5.7-2.3,7.7-6.7,4.9-12-7.4-13.8-15.1-27.4-22.8-41.8-9-16.4-17.9-32.9-27-50-10-18.1-19.9-36.2-30.1-54.9-1-1.9-2-3.8-3-5.7-8.2-14.8-16.5-29.5-24.8-44.9-2.9-6.8-9-7.5-15-7.4-12.8.3-25.6,1.2-38.3,1.7-5.2.2-10,1.5-13.4,5.6-4.8,5.7-9.4,11.7-13.5,17.9-12.9,19.7-22.3,41.1-30.8,63-6.1,15.7-11.3,31.8-17.1,48.4-1.2,3.4-2.5,6.8-3.5,10.3-6.7,24.6-13.5,49.2-20.1,73.9-1.7,6.3-.1,9.3,5.9,12.7,15,3.6,30,7.3,45,10.9,8.5,2,11,.6,13.8-7.7,2.3-6.8,4.7-13.5,6.7-20.4,1-3.5,2.8-4.6,6.5-4.5,11.2.2,22.3.1,34.4.2,4.5,0,9,.2,13.5,0,5.1-.2,7.5-2.6,7.7-7.8.2-4.8.1-9.6.6-15.2.2-10.6.1-21.3.7-31.9.4-7.8-2.1-11.2-9.9-11.3-8.2-.1-16.3,0-24.5-.1-1.7,0-3.4-.7-4.7-1.6,5.9-16,11.7-32,17.6-47.9.6-1.7,1.9-3.1,3.3-5.5,3.9,7.5,7.3,13.8,10.8,20.9,9.3,18.4,18.7,36.8,28.1,55.9,8.6,17.1,17.3,34.2,26,52M916.5,638.8c-.7,13.6-1.3,27.1-2.1,40.7-.5,8.1-1.4,16.2-1.8,24.2-.4,7.4-.6,14.9-1,23.2-.4,9.4-.9,18.9-1.3,28.3-.9,17.9-1.8,35.8-3.1,54.4-.5,13.5-1.4,27-1.5,40.6,0,5.4,3.4,9.9,8.5,11.9,5.9,2.4,12.2,3.8,19,6,6.8,1.4,13.6,3,20.5,4.3,16.8,3,33.7,3.5,51.5,2.3,8.9-1.3,17.9-1.9,26.5-3.9,32.6-7.6,60.3-23,79.9-51.1,11.5-16.6,17.3-35.3,19.8-55.1.7-5.5,0-11.2.2-17.7-.4-6.1-.5-12.2-1.1-18.3-1.6-15.7-5-30.9-13.3-45.3-.8-1.3-1.6-2.5-2.4-3.8-10.5-15.6-23.8-27.9-41.5-36.3-3.6-1.7-7.1-3.6-10.8-5-16.7-6.6-33.9-10.7-52.9-11.3-8.6.3-17.2.4-25.8,1-5.6.3-11.1,1.9-16.7,1.8-13.6-.3-27.1-1.2-41.5-2-6.9.2-9.2,2.8-9.2,11.1M779.4,702.9c.1,2,.2,4,.4,6,2.3,18.7,4.6,37.5,6.8,57,2,15.9,3.9,31.9,5.9,47.8,1.2,9.2,2.6,18.3,3.8,28.3,1.6,13.9,3.1,27.8,4.9,41.6.7,5.3,3.7,7.6,8.5,7.1,6.9-.8,13.9-1.9,21.6-2.7,13.3-1.6,26.6-3.2,39.9-4.9,5-.7,7.4-3.8,6.8-8.6-1.2-10.2-2.6-20.4-3.8-31.4-2.7-22.4-5.3-44.8-7.9-68-2-15.9-3.9-31.8-5.9-47.8-1.2-9.5-2.5-19-3.8-29.3-1.7-15-3.5-30-5.3-45-.6-4.7-3.3-7.1-8-7-3,0-5.9.7-9.7,1-5.7.7-11.5,1.3-17.2,2-11.5,1.4-23,2.7-34.5,4.1-5.7.7-7.9,3.3-7.5,9.1.5,7.1,1.3,14.2,2.2,21.2.8,6.2,1.8,12.4,2.7,19.4M1466.5,966.3c13-24.2,26.1-48.5,39.7-73.8-20,6.1-38.9,11.9-58.5,17.6-18.7,5.5-37.3,11.1-56.2,16.7,5.9,19.4,11.6,38.1,17.3,57.5,2.6,8.7,5.1,17.4,7.8,26,3.2,10.2,6.5,20.3,10.5,30.5,37.4-11.2,74.8-22.3,113.2-33.8-25.5-13.8-49.7-26.9-73.8-40.8M1235.4,889c24.7-1.6,49.4-3.3,74.1-5,5-.4,7.7-3.3,7.7-8.6,0-5.1-.4-10.3-.7-15.4-.6-11.1-1.2-22.2-1.9-33.3-.3-4.4-2.8-6.6-7.1-6.7-2,0-4,.2-6.9.1-20.9,1.3-41.9,2.7-63.1,4-.7-7.5-1.3-14.4-1.9-22,0-1.3,0-2.6.8-4.1,15.3-.3,30.7-.6,46-.9,4.9-.1,8-2.8,8-7.6,0-12.8,0-25.7,0-39.3.2-10-1.8-12-11.8-11.7-9.8.2-19.6.4-29.4.6-5.6,0-11.2,0-17,0-.3-3-.6-5.4-.7-8.8-.3-5.1-.7-10.2-1-15.5,6.6-.6,12.8-1.2,20-1.6,15.4-.9,30.9-1.8,46.3-2.9,5.1-.4,7.5-3.3,7.2-8.3-.7-13.6-1.7-27.2-2.4-41.7,0-13-1.7-14.7-14.6-14.1-.5,0-1,0-1.5,0-19.6,1.3-39.3,2.7-59.8,3.9-20.5,1.3-41.1,2.6-61.6,4-4.9.3-7.6,3.7-7.3,8.8.2,3.8.5,7.6.8,11.4,1,14.2,2,28.5,3,43.6,1.1,19.3,2.1,38.5,3.3,57.8.4,6.4,1.2,12.9,1.7,20.2,1.4,24,2.9,48.1,4.2,73,.3,5.1.6,10.3,1,15.4.5,6.1,4.3,9.1,10.4,8.5,3.5-.4,6.9-.5,10.4-.7,14.4-1,28.8-2.1,44-3M967.5,435c.3,7.8.6,15.5.7,24.2.5,24,.9,47.9,1.5,71.9.3,11.3.7,22.6.9,34.8.3,7.6.6,15.3.8,22.9.2,4.5,3,6.2,6.9,6.1,18.3-.3,36.6-.7,54.9-1.3,6-.2,8.1-3,7.9-9.1-.3-7.5-.4-15-.7-22.4-.2-5.5-.6-10.9-.8-17.3-.8-28-1.5-55.9-2.2-84.8,0-5-.2-10-.1-16-.3-14.1-.6-28.3-1-42.4-.4-15.5-.7-31-1.1-46.4-.2-7.3-2.5-9.4-9.9-9.2-11.5.3-23,.6-34.4,1-6,.2-12,.1-18,.6-6.6.6-7.7,2-7.6,8.5.6,26,1.4,51.9,2,78.8M716.1,823.8c-1,.2-1.9.5-2.9.7-17.2,4.7-33.5,2.4-48.1-8-15.9-11.3-14.5-30,2.7-39,3-1.6,6.5-3,9.8-3.4,6.9-.9,13.8-1.2,20.6-1.7-2.3-12.8-4.6-25.8-6.9-39.1-1.2,1.4-2.7,2.9-4,4.5-12.4,16.3-24.9,32.6-37.1,49-6.1,8.2-5.9,8.4-15.7,5-.3-.1-.6-.2-.9-.3-11-4.4-16.3-15.8-12.2-25.8,5.7,1.2,11.3,2.8,16.9,3.3,5,.5,8.8-3.9,7.9-8.6-.4-2.3-2.2-4.3-3.5-6.7.6-1.8,1.6-3.9,2.1-6.1,1.8-7-.6-13.9-5.8-17.3-5.2-3.4-12.1-3.2-17.7,1.3-3.3,2.6-7,5.8-8.5,9.5-3.4,8.4-6.1,17.2-7.9,26.1-3,14.7,3.7,28.6,16.7,36,4.4,2.5,9.2,4.2,14,6.4-.6,1.1-1.1,2.2-1.6,3.2-6.7,12.7-13.5,25.3-15.3,39.8-.9,6.9-.3,13.5,6.1,17.9,6.6,4.6,13.6,4.9,20.7.8,4-2.3,8-4.8,12.2-6.9,12.2-6.1,24.3-4,33.7,5.9,4,4.2,7.5,9,11.4,13.3,4.4,4.8,9.9,5.7,16,3.5,5.8-2.1,8.2-6.4,8.7-12.2.1-1.6.3-3.3.5-5.2,6.1,1,13.5,4.2,15.9-4.1,2.7-9.1-4.7-13.1-11.3-16.9,7.8-16.9,6.8-26.3-3.6-34-1.9,1.6-3.7,3.3-5.7,4.8-2.1,1.6-4.4,2.9-6.5,4.4,0,0,0,0-.8-.1M1449.5,518.9c1.6-31.1-.7-61.9-4-93.7-1.1-11.2-2.1-22.4-3.2-33.6-1.2-11.8-2.8-23.6-3.6-35.5-.7-10.9-4.3-14.5-15-13.2-18.5,2.3-37,4.6-55.5,7-5,.6-8,3.9-7.4,8.9,1.2,10.3,2.9,20.6,4.2,30.9,1.6,12.9,3.1,25.9,4.6,38.9.9,7.7,1.8,15.4,2.8,24,.5,8,1,15.9,1.4,23.9.6,12.6,1.3,25.2,1.4,37.8,0,8-2.4,15.3-8.4,21.1-7.5,7.4-16.7,11.1-27,12.5-6,.8-12.8,1-14.1,8.5-2,11.1-3,22.3-4.1,33.5-.4,4.2,2,7.7,6.1,8.6,6.1,1.2,12.4,1.6,19.2,3,9.4-.5,18.8-.2,28-1.7,23.3-3.8,43.5-13.7,58.1-33,10.5-13.9,15.7-29.7,16.4-47.9M1668.1,706.8c-1-21.3-1.2-42.7-3.2-63.9-3.3-35.5-7.5-70.8-11.6-106.2-.9-8.3-2.3-16.5-4.1-24.6-1.4-6.1-6.2-9.2-11.2-8.4-5,.8-8.6,5.4-8.7,11.2,0,2,0,4,.3,6,2.7,19.4,6.2,38.8,8,58.3,3.5,37.6,7.2,75.3,8.5,113,1.3,38.4.6,77-.9,115.4-1.2,30.9-4.9,61.7-7.5,92.6-.6,7.1-1.7,14.2-2.1,21.3-.2,4.7,2.3,8.5,6.9,10,4.8,1.5,8.7-.8,11-4.8,1.9-3.2,3.2-7,3.6-10.7,2.2-18.7,4.4-37.4,6-56.1,4.4-50.7,6.1-101.4,4.9-153.2M986.3,233.3c-7.1,4-14.7,7.2-21.1,12-8.2,6.1-9.8,14.2-5.6,23.5,4.1,9.1,8.3,18.2,13.3,26.8,4.4,7.6,9.5,14.9,15.3,21.5,6,6.8,12.9,5.7,18.6-1.5,2.6-3.2,5.3-6.4,8.5-9.1,11.7-10,25.3-16.3,40.1-20.7,3.7-1.1,6.1-1.1,9,2.2,5.7,6.5,14.7,7.9,22.4,4.5,8.6-3.9,13.9-11.3,12.7-20-.7-5.1-3.2-10.1-5.9-14.6-10-16.7-19.5-33.7-30.8-49.5-10.9-15.2-31.7-14.1-39.4,1-1.8,3.6-2.2,7.9-3.3,12-10.6,3.7-21.7,7.6-33.6,11.8M1552.6,543.4c-6.4-41.6-14.9-82.8-25.6-123.6-2.4-9-4.7-18-7.4-26.9-2-6.4-7-9.4-12.4-8.1-5.5,1.4-8.5,6.1-7.7,12.8.3,2.1.9,4.2,1.4,6.3,24.5,87.7,39.1,177,43.8,268,.4,7.1.8,14.3,1.7,21.4.6,4.5,3.9,7.3,8.5,7.8,4.7.5,8.2-1.8,10-6,1.1-2.6,1.7-5.8,1.5-8.7-1.6-25.6-3-51.2-5.4-76.7-2.1-21.9-5.5-43.6-8.5-66.2M1633.4,744.5c-.4-21.2,0-42.3-1.4-63.4-1.9-32.2-4.9-64.4-7.6-96.5-.8-9.3-2.1-18.5-3.6-27.7-1.3-7.5-5.9-11.5-11.4-10.8-5.5.7-9.3,6.3-9.1,13.5,0,2.2.2,4.3.5,6.5,5.7,40.4,9.2,81.1,10.4,121.8,1,34.1.2,68.3.2,102.4,0,5-.8,10-.4,14.9.5,5.9,4.2,9.6,8.8,9.9,4.9.3,9.3-2.9,11.1-8.3.5-1.6.8-3.3.8-4.9.6-18.8,1.2-37.6,1.7-57.4M1695.3,616.8c0-2.8.3-5.7,0-8.5-2.3-20.3-4.3-40.7-7.1-60.9-5.9-43.2-13.9-86-23.8-128.4-1.7-7.3-3.5-14.6-5.8-21.6-1.8-5.4-6.7-8.1-11.1-7.2-4.4.9-8,5.5-8.2,10.7,0,2.3.2,4.7.7,6.9,3.3,14.8,7.4,29.4,10,44.2,6.5,36.3,12.8,72.7,18.5,109.1,2.8,17.7,3.9,35.7,6.2,53.5.4,3.4,2,7.3,4.3,9.7,5.4,5.5,12.5,2.4,16.3-7.5M1610.2,490.8c-8.6-36.6-17.1-73.1-25.7-109.6-1-4-2.3-8-4-11.8-1.8-4-5.3-5.8-9.8-5.5-4.3.3-7.4,3-8.2,6.9-.7,3.6-.7,7.7.3,11.2,11.2,39.7,20.6,79.8,27.9,120.4,1.3,7,2.5,14.1,4.3,21,1.2,4.6,4.9,7.2,9.7,7.1,4.7,0,8-2.9,9-7.3.8-3.3.8-6.9.3-10.3-.9-7.1-2.4-14.1-3.8-22M1570.9,592c.3,1.8.4,3.6.8,5.4,1.2,6.1,5.6,9.9,10.9,9.6,5.1-.3,9.4-5,9.8-10.8.1-1.6,0-3.3-.1-5-3.2-22.9-6-45.8-9.8-68.6-4-23.6-9-47-14-70.4-.7-3.4-3.3-7.2-6.2-8.9-2.4-1.4-7-1-9.6.5-4.4,2.4-5.7,7.2-4.7,12.2,1.6,8,3.8,15.9,5.1,23.9,6,37,11.9,74.1,17.9,112M1578.5,748.1c2.7,5.7,6.5,8.4,10.9,7.6,4.9-.9,8.7-5.4,9.2-11.1.1-1.2.2-2.3.2-3.5-1.1-33.8-2.3-67.6-3.5-101.3-.2-4.6-.9-9.3-1.8-13.8-.8-4.1-3.8-6.6-7.9-7.4-4.1-.9-7.5,1-9.4,4.2-1.6,2.7-2.6,6.2-2.6,9.3.2,9,1.5,17.9,1.8,26.9.9,27.6,1.6,55.3,2.3,82.9,0,1.8.4,3.6.8,6.2M834.6,321.6c2-6,3.8-12,5.9-18,1-2.8.4-4.4-2.6-5.1-2.6-.7-5.2-1.7-8.5-2.9,11.6-1.6,22.2-3.1,32.9-4.5,3.1-.4,4-1.9,3.4-4.7-1.1-4.9-2.2-9.7-3.1-14.6-.7-4-2.6-4.9-6.7-4.4-20.4,2.7-40.9,5.2-61.3,7.6-3.6.4-5.6,1.3-5,5.4.5,3.3.8,6.6.8,9.9,0,3.5,1.4,4.6,4.8,4.7,7.7.2,15.4.7,23.5,1.1-.6,2-1,3.5-1.5,5.1-3.3,10.3-6.6,20.6-10,30.8-1,3-.4,4.7,2.7,5.6,4.8,1.4,9.5,2.9,14.2,4.6,2.7,1,3.9.3,4.8-2.4,1.8-5.9,3.8-11.7,5.9-18.3M266.9,287.2c2,6.6,2.1,6.7,9.1,5.4,6.8-1.3,13.5-2.8,20.6-4.2-.1,2.2-.2,3.8-.3,5.4-.9,10.3-1.6,20.6-2.7,30.8-.5,4.6.5,6.9,5.6,6.6,3.6-.2,7.3.3,10.9.9,4.7.8,6.5-.8,6.6-5.7.3-9.3,1.2-18.6,2.2-27.9,1.2-11.9,1.3-11.8-10.7-12.7-.1,0-.3-.4-.4-.6,9.2-3.4,18.3-6.8,27.5-10.3,6.9-2.6,6.8-2.7,3.5-9.6-1.6-3.3-3.5-6.5-4.7-9.9-1.6-4.3-3.9-4.8-8.1-3.2-17,6.6-34.1,13.1-51.3,19.3-11,4-11.1,3.7-7.7,15.7M508,666c5.7-2.8,11.4-5.6,17-8.3,2.9-1.4,3.4-3.3,1.7-6-2.2-3.5-4.2-7.2-6.4-10.7-3.6-6.2-3.7-6.1-10.1-3.1-17.9,8.4-35.8,17-53.8,25.1-4.3,1.9-5.3,3.5-3.4,8,5.4,12.9,5.2,13,18.6,8.8,4.4-1.3,8.7-2.7,13.7-4.2,0,12.6,0,24.3,0,35.9q0,6.7,6.9,6.7c3.7,0,7.3-.2,11,0,3.9.3,5.3-1.1,5.2-5.1-.2-10,0-20-.1-30q0-10.6-10.8-11c-.4,0-.8-.2-2.3-.5,4.6-2,8.3-3.7,12.7-5.6M1606.5,352.3c-6.2,0-9.8,2.1-10.9,7.8-.7,3.4-.2,7.2.6,10.7,7.1,29.2,14.4,58.4,21.6,87.6,1.5,6.1,2.7,12.3,4.5,18.4,1.3,4.5,5,6.8,9.5,6.8,4.6,0,7.8-3,9-7.4.7-2.8,1.2-6.1.5-8.8-8.5-35.2-17.1-70.4-25.8-105.5-1.1-4.4-3.5-7.9-9-9.5M1496.3,531.8c.8,4.8,1.5,9.5,2.3,14.3,1.4,8.5,2.5,17.1,4.2,25.6,1.1,5.4,6.2,8.8,11,8.2,4.8-.6,8.8-5.1,9-10.4,0-2.8,0-5.7-.5-8.5-3.2-19.2-6.3-38.4-9.8-57.5-2.1-11.6-4.6-23.1-7.2-34.7-1.8-7.9-7.7-11.8-14.1-9.6-5.4,1.8-7.9,7.7-6.4,15,3.8,18.9,7.5,37.8,11.5,57.6M1342.5,124.4c4.5-17.5-4.8-28.9-18.8-36.6-3.8-2-7.3-.8-9.6,2.6-2.5,3.6-2.1,7.3,1.2,10.3,1.7,1.6,3.7,2.8,5.6,4.2,5.9,4.3,8.1,9.7,5.8,17-1.5,4.7-2.6,9.6-3.7,14.5-3.2,15,1.1,25.6,14,33.8,5.2,3.3,10.7,6,16.1,8.9,4,2.2,5.4,5.3,3.6,9.6-1.8,4.1-3.8,8.1-5.7,12.2-2,4.4-.8,8.8,2.9,10.9,3.8,2.2,8.2,1.2,10.8-3,2.5-4.1,4.8-8.4,6.5-12.9,5.4-14.3,1.1-24.9-12.5-32-4.9-2.5-9.7-5.1-14.5-7.7-4.2-2.3-6.5-6.1-5.8-10.8.9-6.7,2.6-13.3,4.1-20.8M458.4,333.6c5.5,1.2,11,2.3,16.9,3.6-3.9,9.6-8.9,17.1-19.4,18.8-3.4.6-4.6,2.1-3,5.5,1.3,2.7,2.4,5.5,3.4,8.3,1.2,3.4,3.2,4.6,6.8,4.1,13.1-1.8,22.9-8.6,30.3-19.1,5-7,4.6-7.9-2.4-12.9-.2-.1-.2-.6-.3-.9.5,0,1-.2,1.5,0,6.2,1.3,12.4,2.6,18.6,3.9,12.6,2.7,12.5,2.7,14.8-10.1.8-4.2-.7-5.7-4.6-6.5-21-4.3-42-8.8-63-13.2-7.3-1.5-7.5-1.5-8.9,5.7-2.4,11.7-4.2,10.1,9.3,12.9M615.7,661.9c.9-1.3,2.4-2.6,2.7-4,.6-2.7.5-5.6.9-8.4.6-3.8-.7-5.4-4.7-5.7-21.7-1.8-43.4-3.9-65.1-5.9-7.2-.6-7.5-.6-7.8,6.6-.5,11.1-3.5,10.5,10.2,11.6,5.9.4,11.7,1.1,17.8,1.7-2.1,8.3-5.4,14.8-12.3,19-2.7,1.6-7.7,3-7.8,4.8-.2,3,2.6,6.2,4.2,9.3.3.6.7,1.1,1,1.7,1.4,3,3.6,3.9,6.9,3.1,12.4-3,21.3-10.6,27.6-21.4,5.1-8.7,4.6-9.9-4.4-14-.5-.2-1-.5-2.7-1.5,11.8,1.1,22.2,2.1,33.5,3.1M1334,212.6c-1.6-.1-3.5-.9-4.8-.3-8.3,3.8-16.9,7.2-24.5,12-6.5,4.1-9.7,10.9-7.4,19.1,2.2,7.8,8.6,10,15.6,11.2,1.3.2,2.7.2,4,.2,17.4.3,33.8-4.8,50.3-9.4,9.3-2.6,18.3-5.9,27.4-9.2,5.8-2.1,8-6.1,6.3-10.6-1.8-4.8-6-6.4-12-4.4-1.1.4-2.2.9-3.3,1.2-16.1,4.7-32.1,9.8-48.4,13.9-7.5,1.9-15.5,2.1-23.2,3.1-.2-.7-.4-1.3-.6-2,1.5-1.1,3-2.4,4.7-3.2,4.8-2.3,9.7-4.3,14.6-6.4,7.7-3.4,8.5-9.7,1.3-15.3M1643.9,342.1c-2.8-9.1-5.5-18.1-8.4-27.2-4-12.2-7.9-24.3-12.2-36.4-2.2-6.3-7-9.3-12-8.5-4.5.7-8,5-8.3,10.5-.1,2.3.4,4.6,1.1,6.8,8,25.4,16,50.7,24,76,2.4,7.5,7.3,11.1,12.8,9.7,5.6-1.4,8.5-6.9,7.5-14.5-.1-1.1-.5-2.3-.8-3.4-1.2-4.2-2.3-8.3-3.8-13.2M462.8,637.8c1-2.5,2.1-4.9,2.9-7.4,3.4-10.8,0-16.2-11.4-17.2-16.4-1.4-32.9-2.8-49.3-4-11.4-.9-11.4-.8-12.9,10.3-.2,1.2-.3,2.3-.5,3.5-.6,3.5.5,5.1,4.4,5.4,11.3.9,22.6,1.9,33.8,3.2,9.2,1,9.3,1.2,6.9,10.4-.9,3.4,0,5.2,3.3,6.5,12.7,5.1,14.8,4.5,21.3-7.8.4-.7.8-1.5,1.5-2.9M747.7,623.6c-.5-10.5-4.5-13.6-15.1-12.1-15.9,2.3-31.9,4.5-47.9,6.5-12.5,1.6-12.5,1.5-11.3,14,0,.3,0,.7,0,1,.7,6.2,1.2,6.4,7.1,5.6,12.4-1.6,24.7-3,37.1-4.7,3.6-.5,4.7.8,4.6,4.4-.2,9.7,0,9.7,9.5,11.3,1.1.2,2.5.7,3.4.4,2.1-.8,5.3-1.6,5.8-3.1,2.6-7.3,4.4-14.8,6.5-23.2M591.7,374.6c10.9-19,13.2-39.4,10.9-60.8-.3-2.9-1.7-4-4.5-4.1-4.3,0-8.7-.1-13-.6-4.8-.5-5.9,1.7-5.9,6.1,0,9.1-.2,18.3-1.2,27.4-1.4,13.4-5.4,26-13.7,36.9-1.8,2.3-1.7,4.2,1.4,5.4,3.3,1.3,6.4,2.7,9.6,4.2,2.7,1.3,4.8.8,6.5-1.6,3.1-4.1,6.3-8.1,9.8-12.9M765.7,282.2c-9.3-1.7-18.6-3.5-28-5-1.9-.3-5.4,0-5.7.9-1.2,3.7-2.1,7.8-1.8,11.6.1,1.2,4.7,1.9,7.3,2.8,1.5.5,3.2.7,5.2,1.2-1.2,7-2.3,13.8-3.5,20.7-2.9-.2-5.3-.3-7.6-.6-12.5-1.6-9.2-2-11,9.3-.6,3.3.6,4.7,4.1,5.1,13.1,1.3,26.1,2.9,39.2,4.5,10.3,1.3,10.2,1.3,11.3-8.8.4-3.8-.8-5.6-4.7-5.8-4.6-.3-9.2-1-14.3-1.5,1.2-6.8,2.3-13.3,3.4-19.9,2.9.5,5.3.8,7.5,1.4,4.2,1.1,6.4,0,7-4.7,1.2-10.2,3.2-8.8-8.4-11.1M1319,256.8c-6.1.4-9.4,4.8-12.1,9.3-3,5.2-.9,11.4,4.8,13.6,3.3,1.3,7.2,2.4,10.6,2,13.6-1.7,27.5-3.1,40.7-6.4,13.3-3.4,26.1-8.7,38.8-13.8,5-2,6.1-7.1,3.6-11.3-2.3-3.9-6.4-4.5-11.3-2.6-9,3.7-18,7.9-27.4,10.4-12.9,3.5-26.1,5.6-39.5,8.4-.9-5.4-2.3-9.2-8.3-9.7M1403.6,174.5c-2.8-5.3-5.3-10.7-8.4-15.8-3.4-5.5-7.5-10.6-11-16.1-3-4.6-2.6-9.2,1.1-13.3,2-2.3,4.2-4.3,6.1-6.6,2.7-3.3,2.5-6.9-.3-10-2.7-3.1-6.5-4-9.9-1.5-11.9,9.1-20.1,22.5-11.3,38.6,3,5.5,6.8,10.7,10.7,15.6,7.8,10,11,20.3,4.5,32.3-2.3,4.3-.3,8.7,3.6,10.6,3.9,1.9,8.3.4,10.6-3.8,5-9.2,7.6-18.8,4.3-30.1M667.7,656.2c-13.9,4.9-27.8,9.9-41.8,14.6-8.9,3-8.7,2.7-6.6,12,1.1,4.7,3.3,5.8,7.8,4.8,4.6-1.1,9.3-1.8,14.6-2.8-.7,6.5-1.6,12.2-1.9,18-1,16.8-4.6,12.5,12,15.1,3.3.5,4.9-.5,5.3-4,.7-7.6,1.6-15.2,2.4-22.8.7-6.8.6-6.8-5.4-9.5,6.2-2.3,12.5-4.5,18.6-7.1,1.4-.6,3.3-3.2,3-4-2-4.8-4.7-9.4-7.8-14.3M427.6,309.5q6.1-3.9,3-10.4c-1.4-2.8-2.8-5.7-4-8.6-1.1-2.5-2.5-3.1-5.1-2.1-18,7.3-36,14.5-54,21.7-2.5,1-3.5,2.1-2.1,4.8,2.4,4.6,4.6,9.2,6.6,13.9,1.3,3,2.9,3.2,5.9,2.4,17.5-4.5,34-11.4,49.7-21.8M708.5,302.4q8.6-4.3,5.1-13.4c-.8-2-1.5-4-2.3-6.1-.9-2.5-2.3-3.2-5-2.1-5.6,2.2-11.2,4.3-16.9,6.1-12.9,3.9-25.8,7.5-38.8,11.2-3.1.9-4.7,2-3.1,5.5,1.9,4.2,3.5,8.6,5.1,13,1,2.6,2.3,3.4,5.3,2.9,17.5-2.9,34.2-8.4,50.6-17M696,783.9c-8.1-1.1-16-.5-23.3,3.2-9.5,4.8-10.4,12.8-2.4,19.9,10.5,9.3,31.8,12,44.3,5.5,9.6-5,11-13.8,2.2-20-5.8-4-13.2-5.8-20.7-8.7M1408.5,281.5c-1.6-7.5-7.3-10.1-13-6-11.7,8.3-25.6,10.5-39,13.7-3.5-7.2-8.2-9.4-13.1-5.9-2.9,2.1-5.5,4.9-7.5,7.9-3,4.6-1.6,9.7,3.2,12.4,2.5,1.4,5.7,2.4,8.5,2.2,18.8-1,36.8-5.5,53.3-14.8,3.1-1.8,5-5.7,7.5-9.5M255.1,446.7l11.5,14.7c.5-.1,1.1-.3,1.6-.4,0-2.9.4-5.8,0-8.7-1.7-10.3,2.2-17.6,11.2-22.6,2.4-1.3,4.4-3.5,6.5-5.3-.2-.4-.4-.9-.6-1.3-3.9,0-7.9-.4-11.8,0-7.6,1-13.1-1.6-17-8.3-2-3.4-4.9-6.3-7.4-9.4-.5.2-1,.4-1.5.6,0,4.4-.4,8.9,0,13.2.7,6.5-1.5,11.1-7.1,14.6-3.8,2.4-7.1,5.5-10.6,8.3.2.5.4,1.1.6,1.6,5.7,0,11.5-.2,17.2.1,2.3.1,4.5,1.5,7.3,2.8M1322.9,930c6.8,2.4,7.9,8.2,8.5,14.3.4,4.1,1.1,8.2,1.6,12.3.5,0,.9,0,1.4,0,2.8-4.7,5.7-9.3,8.4-14,2-3.6,4.7-5.6,9.1-5.9,5.5-.4,11-1.5,16.5-2.3-4.4-4-9-7-13.7-9.6-4.1-2.2-6-5.3-6.3-9.9-.4-5.3-1.4-10.5-2.2-15.8-4.2,4.7-7.2,9.5-9.9,14.4-2,3.6-4.7,5.2-8.8,5.5-5.5.5-10.9,1.5-16.4,2.3,0,.4-.1.9-.2,1.3,3.8,2.3,7.5,4.6,12,7.3M810.2,394.6c-7.4,1-14.9,1.9-23.7,3.1,5.5,3.8,9.8,7,14.4,9.8,3.9,2.4,5.7,5.6,5.7,10.2,0,5.3.8,10.6,1.3,16,4.4-4.4,7.7-9,10.7-13.7,2.2-3.4,4.9-5,9-5.1,5.6-.2,11.1-.8,16.6-1.3.1-.4.3-.8.4-1.3-4.4-3-8.7-6.3-13.3-9-4.2-2.5-5.8-5.9-5.9-10.7,0-5.2-.7-10.3-1.1-15.5-.4,0-.7-.1-1.1-.2-4.1,5.7-8.3,11.4-13,17.7M1371.6,648.5c-7.6,0-12.2-3.9-14.9-10.8-1.5-3.7-3.8-7.1-5.8-10.6-2,4.3-3,8.3-3.3,12.4-.5,7.1-3.4,12.1-10.3,14.8-3.9,1.5-7.3,4-11,6.1l.3,1.3c4.2.8,8.3,2,12.5,2.2,6.9.4,11.4,3.5,14,9.9,1.6,4,4.1,7.6,6.3,11.4,1.6-2.3,2-4.3,2.3-6.2q2.5-15.8,16.4-23.6c2-1.1,3.9-2.4,5.9-3.6-.1-.4-.2-.8-.3-1.2-3.7-.6-7.4-1.2-11.9-2.1M418.9,677.8c6.3-8.3,11.1-17.3,13.3-27.7.6-2.9.2-5.1-2.9-5.8-5.3-1.3-10.7-2.7-16.1-3.4-1.4-.2-3.8,1.3-4.4,2.7-4.7,10.5-9,21-13.3,31.6-.4,1,0,3.1.7,3.8,8.6,8.4,14.5,8.1,22.8-1.2M714.4,647.1c-4.5,0-9,.2-13.5-.1-4.6-.3-6,1.7-6.5,6-.8,7.8-1.7,15.6-3.4,23.2-2.7,12.1-3,12,9.2,15.4,3.4,1,5.8.2,7.7-2.6,7.4-11.3,11.3-23.7,10.8-37.2,0-1.5-2.3-3-4.4-4.6M1578.3,283.8c-5.2,3.5-6.8,8.5-5,14.3,2.8,9,5.8,18,9,26.9,2.4,6.7,7.7,9.7,12.9,8.2,5.5-1.7,8.9-8,6.9-14.6-2.8-9.5-6-19-9.6-28.2-2.5-6.5-6.5-8.2-14.2-6.5M578.7,613.3c-1-.1-2-.2-3-.4-13.7-2-13.6-2-15.2,11.7-.4,3.4.2,5.1,4.1,5.6,11.2,1.6,22.3,3.7,33.4,5.6q6.6,1.1,7.9-5.7c.4-1.9.8-3.8,1-5.3,2.4-2,7.9,1.7,6.9-4.3-.5-3.2,1.8-8.5-4.7-8.6-3.5,0-8.2-1.8-7.2,5.2-7.8-1.3-15.2-2.5-23.4-3.9M1554,394c-1-3.5-1.8-7.1-3-10.6-2.3-6.9-7.5-10.4-13-8.8-5.7,1.7-8.9,7.7-7.3,14.5,2.1,8.6,4.5,17.1,7,25.5,2,6.5,7.3,9.9,12.7,8.5,5.5-1.4,8.9-7.5,7.5-13.9-1.1-4.9-2.5-9.7-4-15.3M1488.2,440.6c5.8-3.1,8.3-7.2,7-12.8-2.1-8.7-4.4-17.4-7.1-25.9-1.8-5.8-7.4-8.8-12.4-7.4-5.7,1.6-9,7.2-7.5,13.3,2,8.2,4.2,16.4,6.6,24.5,1.9,6.5,5.7,8.8,13.5,8.3M473.3,292.4c-1.2,4-2.7,7.9-3.4,11.9-.2,1.3,1.1,4,2.2,4.4,12.3,3.9,24.7,7.5,37.2,10.8,1.2.3,3.7-1.1,4.2-2.4,1.5-3.3,2-7,3.3-10.4,1.3-3.4.2-4.8-3.1-5.7-11.8-3.3-23.5-6.8-35.4-10.1-1.4-.4-3.2.4-5.1,1.4M540.5,320.6c.3,8,.7,15.9.9,23.9,0,2.8,1.2,4.3,4.1,4.5,3.8.2,7.6.9,11.4.7,1.7-.1,4.6-1.8,4.7-3,1.1-10,1.9-20.1,2.4-30.1.2-3.1-1.8-4.7-5.2-4.5-3.6.2-7.3,0-11,0q-7.6,0-7.4,8.6M389.9,279.9c5.4-3.4,5.6-4.7,1.3-9.5-1.8-2-3.7-3.9-5.7-5.6q-9.5-7.9-20.2-1.8c-1.4.8-2.9,1.7-4.3,2.5-2.8,1.4-3.1,3.2-1.2,5.5,4.3,5.1,8.3,10.4,12.9,15.2,1,1.1,4,1.3,5.5.7,3.9-1.8,7.4-4.4,11.7-7M660.2,264.8c-2.2-1.9-4.4-5.5-6.4-5.4-5.5.4-10.8,2.4-17.1,4,3.3,7.3,6.1,13.8,9.2,20.2.5,1,2.7,1.8,3.9,1.6,5-1.1,9.9-2.7,14.9-4,3.2-.8,3.7-2.8,2.4-5.2-1.9-3.7-4.3-7.1-6.8-11.2M679.6,243.2c-2.1,0-4.6-.7-6.4,0-3.3,1.4-6.3,3.7-9.5,5.4-2.6,1.4-2.7,3.1-.9,5.2,3.6,4.3,7.4,8.6,10.9,13,2,2.5,3.9,2.4,6.4.7,3.4-2.3,6.9-4.6,10.6-6.6,3.9-2.2,3.8-4.8.9-7.5-3.6-3.4-7.5-6.6-11.9-10.2M852.5,401.4c1.9,3.3,3.9,6.5,6.2,10.5.7-7.9,5.2-12,12.8-13.8-7.6-1.5-12.1-5.7-13.6-13.5-1.4,7.8-5.9,12-13.1,14.1,2.3.8,4.6,1.6,7.6,2.7M712,248.3c1.3,2.1,2.7,4.1,4,6.3,1.8,3,3.9,3.2,6.5,1.1,1.6-1.3,3.3-2.5,4.9-3.8-5.8-10.2-8.4-10.9-15.5-3.6M702.1,241.4c-2.6,0-4.2,1-3.6,3.9.6,3-1,7.4,3.6,8.2,2.7.5,7,2.8,8.3-2,1.6-6.4-.9-9.4-8.3-10M615.6,617.6c1.7,2.8,3,6,5.2,8.3,3.3,3.6,5.6-.7,8-2.1.9-.5,1.2-3.6.5-4.7-4.6-7.2-5.5-7.2-13.7-1.5Z"/>
  <path class="cls-43" d="M804.2,586.1c-28.9-27.2-33.2-79.2-8.4-109.8,10.4-1.6,20.2-3,30-4.2,14.2-1.8,28.5-3.4,42.7-5.2,12.6-1.6,25.2-3.1,37.8-4.8,6.5-.9,13-2.1,19.5-3.1,3.9,4.5,8.4,8.6,11.5,13.6,8.6,14.1,12.4,29.5,11.4,46.1-.7,12.2-7.4,20.5-18.4,24.3-10.7,3.7-22.1,5.7-33.2,8.1-5.2,1.1-10.5,1.2-15.8,1.9-7.9,1.1-10.4-.4-12.8-8.1-2.4-7.7-4.8-15.5-7.1-23.3-1.7-5.7-.6-7.6,4.9-9.2,4.1-1.2,8.4-2,12.5-3.3,5-1.6,5.7-4.4,2.6-8.6-7.8-10.5-25.3-9.8-33.7,1.3-9.3,12.3-8.7,32.3,1.1,45.1,11.9,15.7,28.6,19.5,46.9,18.8,7-.2,10.3,1.6,11.3,8-9.2,1.4-17.9,2.3-26.6,3.4-11.8,1.4-23.6,2.9-35.4,4.3-13.6,1.6-27.2,3.2-40.8,4.8Z"/>
  <path class="cls-9" d="M663.4,493.2c-.3-8.9-.8-17.9-.7-26.8,0-6.8,1-13.6,1.6-21.1-6.1-1.1-12.2-2.3-18.3-3.3-6.6-1.1-8.7-3.3-7.5-9.7,2.7-14.9,5.7-29.6,8.8-44.4.9-4.5,4-6.2,8.6-5.2,5.2,1.1,10.5,1.9,16.4,2.9,1.4-7.5,2.8-14.8,4.1-22.1.8-4.3,1.3-8.5,2.2-12.8,1.3-6.1,4.4-8.4,10.3-7.4,17.6,2.9,35.1,5.8,52.6,8.8,6.5,1.1,8.5,4.2,7.3,10.5-2.1,11.4-4.1,22.8-6.3,34.8,5.3.9,10.4,1.9,15.6,2.7,7.9,1.3,9.7,3.5,8.2,11.4-2.6,14-5.3,28-8.1,42-1,5.2-4.2,7.2-9.4,6.2-5.2-1-10.4-1.8-16.9-2.9-.5,9-.9,17.7-1.8,26.9-18.3,2.8-36.1,5.1-53.9,7.4-4.3.6-8.6,1.4-12.9,2.2Z"/>
  <path class="cls-23" d="M1463.3,737.1c-3.4-6.4-6.8-12.8-10.7-20.2-1.5,2.4-2.7,3.8-3.3,5.5-5.9,15.9-11.8,31.9-18.1,48.3-2,1.7-3.6,2.8-5,4.2-26.8,26.8-53.6,53.5-80.3,80.3-1.4,1.4-3,2.6-4.4,3.9-5.5-2.8-7-5.9-5.4-12.1,6.6-24.7,13.3-49.3,20.1-73.9,1-3.5,2.3-6.9,3.9-10.7,1.5-1.2,2.6-2,3.5-2.9,40.4-40.4,80.9-80.9,121.3-121.3,1.1-1.1,2-2.6,2.9-3.9,8.2,14.7,16.5,29.5,24.7,44.2,1,1.9,2,3.8,3,6.4-11.4,12.1-22.8,23.6-34.2,34.9-5.9,5.9-11.9,11.6-17.9,17.3Z"/>
  <path class="cls-23" d="M1004.4,874.6c-17,1.4-33.9.9-50.7-2.1-6.9-1.2-13.6-2.8-20.7-4.7,17.5-18.3,35.3-36,53-53.9,1.4-1.4,2.4-3.1,4-4.7,4.9-.4,9.4-.6,13.8-1.2,27.6-3.7,48.4-26.3,50-54.1.2-.2.3-.3.3-.4,0-.2-.2-.4-.3-1,.2-2.8.4-5.2,1-7.7,19.5-19.2,38.7-38.4,58-57.4,1.4-1.3,3.1-2.3,4.7-3.4,8.1,13.8,11.5,29,13.1,44.7.6,6.1.8,12.2.7,18.8-1.8,1.6-3.3,2.7-4.6,3.9-39.6,39.6-79.3,79.2-118.9,118.9-1.3,1.3-2.2,2.8-3.3,4.2Z"/>
  <path class="cls-20" d="M1445.4,426.2c3.4,30.8,5.7,61.7,3.7,93.4-1.2,1.2-2,1.7-2.8,2.3-25.2,19.8-50.4,39.5-75.6,59.3-8.2,6.5-16.2,13.1-24.4,19.7-6.2-.7-12.5-1.1-18.6-2.3-4.1-.8-6.5-4.4-6.1-8.6,1.1-11.2,2.1-22.4,4.1-33.5,1.3-7.4,8.2-7.7,14.1-8.5,10.3-1.4,19.4-5.1,27-12.5,6-5.9,8.5-13.1,8.4-21.1-.1-12.6-.8-25.2-1.4-37.8-.4-8-.9-15.9-1.2-24.5,24.4-9.1,48.6-17.4,72.8-25.8Z"/>
  <path class="cls-23" d="M907.5,809c.9-17.9,1.8-35.8,2.7-53.6.5-9.4.9-18.9,1.7-28.9,1.3-1.2,2.3-1.8,3.1-2.6,31-31,62-62,93-93,1-1,1.7-2.4,2.5-3.6,18,.4,35.3,4.5,51.9,11.1,3.7,1.5,7.2,3.3,10.6,5.4-6.8,7-13.4,13.5-20,20.1-9.6,9.5-19.2,18.9-29.2,28.3-12.4-4.2-24.7-5.5-37.4-2.9-.8,15.3-1.6,30-2.8,44.8-1.7,1.2-3.1,2.4-4.4,3.6-21.8,21.7-43.5,43.5-65.3,65.3-2.1,2.1-4.4,4.1-6.5,6.1Z"/>
  <path class="cls-45" d="M716.9,823.9c2.2-1.4,4.5-2.8,6.6-4.4,2-1.5,3.8-3.2,5.7-4.8,10.4,7.7,11.4,17.1,3.6,34,6.6,3.7,14,7.8,11.3,16.9-2.5,8.3-9.8,5.1-15.9,4.1-.2,2-.4,3.6-.5,5.2-.5,5.8-2.9,10.1-8.7,12.2-6.1,2.2-11.6,1.3-16-3.5-3.9-4.3-7.4-9-11.4-13.3-9.3-9.9-21.5-12-33.7-5.9-4.2,2.1-8.1,4.6-12.2,6.9-7.1,4-14.1,3.7-20.7-.8-6.4-4.4-7-11-6.1-17.9,1.8-14.5,8.6-27.2,15.3-39.8.5-1,1-2.1,1.6-3.2-4.8-2.1-9.6-3.9-14-6.4-13-7.4-19.7-21.4-16.7-36,1.8-8.9,4.5-17.6,7.9-26.1,1.5-3.7,5.2-6.9,8.5-9.5,5.6-4.5,12.5-4.7,17.7-1.3,5.2,3.4,7.6,10.4,5.8,17.3-.6,2.2-1.5,4.4-2.1,6.1,1.3,2.4,3,4.4,3.5,6.7.9,4.7-2.9,9.1-7.9,8.6-5.7-.5-11.2-2.1-16.9-3.3-4,10,1.2,21.4,12.2,25.8.3.1.6.2.9.3,9.8,3.4,9.6,3.2,15.7-5,12.2-16.4,24.7-32.7,37.1-49,1.3-1.7,2.7-3.1,4-4.5,2.4,13.3,4.7,26.3,6.9,39.1-6.8.5-13.7.8-20.6,1.7-3.4.5-6.8,1.8-9.8,3.4-17.2,9.1-18.6,27.8-2.7,39,14.6,10.4,30.8,12.6,48.1,8,1-.3,1.9-.5,3.2-.3,1.4,4.3,2.5,8.1,3.6,12,.6,0,1.1-.1,1.7-.2,0-1.8.8-3.9.1-5.3-1.2-2.5-3.3-4.5-5-6.7Z"/>
  <path class="cls-33" d="M540.4,484.1c-6-8.4-14.2-13.3-24.4-14.7-1.4-.2-3,1.1-4.9,2.1-23.1-8.6-45.7-17.6-68.4-26.5.5-8.4,1-16.9,1.6-25.3.3-4.2,3-6,7.1-5.9,8.6.4,17.3,1.2,25.9,1,8.1-.2,16.2-1.2,24.2-2.1,23.8-2.7,46.8.5,68.2,11.5,26.8,13.7,42.8,35.5,47.6,65.4.5,3.4.6,6.9.6,10.6-3.2-.2-6.2-.9-9.1-.7-6.8.6-13.6,1.7-20.7,2.5-1.1,0-1.9,0-2.8-.3-2.2-1.1-4.1-2.1-6.1-2.8-12.9-5-25.9-9.9-38.8-14.8Z"/>
  <path class="cls-42" d="M332.5,534c-2-11.9-4.1-23.9-6-35.8-4.6-29-9.2-58-13.7-87-.9-5.7-1.6-11.5-2-17.7,17.8,6.5,35.1,13.5,52.5,20.3,10,3.9,20.1,7.5,30.1,11.2,2,12.4,4.1,24.7,6.1,37.1,3.3,20.7,6.6,41.4,9.4,62.5-3.6.7-6.7,1-9.8,1.4-11.9,1.5-23.8,3.1-35.7,4.5-10.3,1.2-20.6,2.3-30.9,3.5Z"/>
  <path class="cls-39" d="M1668.2,707.2c1.1,51.3-.6,102.1-4.9,152.7-1.6,18.7-3.8,37.4-6,56.1-.4,3.7-1.7,7.5-3.6,10.7-2.3,3.9-6.2,6.3-11,4.8-4.6-1.5-7.1-5.3-6.9-10,.3-7.1,1.4-14.2,2.1-21.3,2.6-30.8,6.3-61.7,7.5-92.6,1.5-38.4,2.2-77,.9-115.4-1.3-37.7-5.1-75.4-8.5-113-1.8-19.5-5.3-38.9-8-58.3-.3-2-.3-4-.3-6,.2-5.8,3.8-10.4,8.7-11.2,5.1-.8,9.9,2.3,11.2,8.4,1.8,8.1,3.2,16.3,4.1,24.6,4,35.4,8.3,70.7,11.6,106.2,1.9,21.2,2.2,42.6,3.2,64.3Z"/>
  <path class="cls-49" d="M1165.5,795c-.6-6.4-1.4-12.9-1.8-19.3-1.2-19.3-2.2-38.5-2.9-58.4,21.5-21.7,42.6-42.8,63.7-63.9.9-.9,1.3-2.2,2-3.3,19.6-1.3,39.3-2.7,58.9-4,.5,0,1,0,1.5,0,12.9-.6,14.6,1.1,14.2,14.7-7.8,8-15.2,15.3-22.6,22.7-9.7,9.8-19.3,19.6-29,29.5-6.2.6-12.4,1.1-19,1.7.3,5.3.7,10.4.7,16.1-20.5,20.7-40.7,40.8-60.9,60.9-1.4,1.3-3.2,2.2-4.7,3.3Z"/>
  <path class="cls-31" d="M1037.4,461c.8,28,1.5,55.9,2.2,84.8-.1,4.2-.1,7.5-.1,10.9-3.6.5-6.5,1-9.4,1.3-9.3,1.2-18.6,2.5-27.9,3.6-10.5,1.2-20.9,2.3-31.4,3.4-.4-11.3-.8-22.6-1.1-33.9-.5-24-1-47.9-1.4-72.8,1.1-2.1,1.9-4,3.1-4.3,4.3-1,8.7-1.4,13.1-2,7-1,13.9-2,21.3-3,1.1,0,1.9,0,2.8.3,9.7,4.1,19.2,7.9,28.7,11.7Z"/>
  <path class="cls-2" d="M1165.5,795.5c1.7-1.6,3.5-2.5,4.8-3.8,20.2-20.1,40.4-40.2,60.8-60.5.6,2.3.8,4.8,1.2,7.7,5.8,0,11.4,0,17,0,9.8-.1,19.6-.3,29.4-.6,10-.2,12,1.8,11.4,12.2-1.8,1.6-3.3,2.7-4.5,4-10.7,10.7-21.4,21.4-32.1,32-5,5-9.2,11.4-17.6,11.1,0,0-.2.3-.3.4,0,1.3,0,2.6,0,4.7-.7,1.7-1.2,2.8-2,3.6-20,20.1-40.1,40.2-60.2,60.2-.8.8-2.4,1-3.6,1.5-1.4-24-2.9-48.1-4.2-72.6Z"/>
  <path class="cls-22" d="M1445.4,425.7c-24.2,8.8-48.4,17.2-72.9,25.8-1.2-7.5-2.1-15.2-3-22.9-1.5-13-3-25.9-4.6-38.9-1.3-10.3-3-20.6-4.2-30.9-.6-5,2.4-8.2,7.4-8.9,18.5-2.3,37-4.7,55.5-7,10.7-1.3,14.3,2.3,15,13.2.8,11.9,2.5,23.7,3.6,35.5,1.1,11.2,2.1,22.4,3.2,34Z"/>
  <path class="cls-45" d="M986.6,233.1c11.5-4,22.6-7.9,33.2-11.7,1.1-4.2,1.4-8.5,3.3-12,7.7-15.1,28.5-16.2,39.4-1,11.3,15.8,20.9,32.8,30.8,49.5,2.7,4.5,5.2,9.5,5.9,14.6,1.3,8.7-4.1,16.2-12.7,20-7.7,3.5-16.7,2-22.4-4.5-2.9-3.3-5.2-3.3-9-2.2-14.7,4.3-28.3,10.7-40.1,20.7-3.1,2.7-5.9,5.9-8.5,9.1-5.7,7.2-12.5,8.3-18.6,1.5-5.8-6.5-10.8-13.9-15.3-21.5-5-8.6-9.2-17.7-13.3-26.8-4.2-9.3-2.6-17.4,5.6-23.5,6.4-4.8,14-8.1,21.5-12.2M1007.3,292.2c13-10.3,27.7-17.2,44.1-21.9-7.6-11.1-14.6-21.4-21.9-31.5-.8-1.1-3.6-1.7-5.1-1.3-12.6,4.1-25.2,8.4-37.7,13-3.7,1.4-7,3.8-10.3,6-2.8,1.8-3.4,4.1-1.7,7.2,4.5,8.5,8.6,17.3,13.1,25.8,2.3,4.4,5.3,8.4,8.1,12.8,3.9-3.5,7.3-6.6,11.3-10.1M1041.9,213.9c-5.6,1.8-6.5,4.6-2.5,10.6,7.9,11.9,16.1,23.5,24.2,35.3.5.7,1.2,1.4,1.7,1.9,3.1-2,5.9-3.7,9.2-5.8-4.7-7.7-9.4-15.5-14.3-23.2-3.1-4.9-6.3-9.8-10.1-14.2-1.8-2.1-4.9-3-8.3-4.6M1082.4,273.3c-1.7,0-3.5-.6-5.1-.1-.7.2-1.6,2.3-1.3,3.2.3.8,2.5,1.8,3,1.5,1.5-1,2.5-2.6,3.3-4.6Z"/>
  <path class="cls-46" d="M1008.5,449c-.7,0-1.5,0-2.8-.3-3.5-1.4-6.4-2.7-9.3-3.8-9.6-3.7-19.1-7.3-28.7-10.9-.7-26-1.5-51.9-2.1-77.9-.2-6.5,1-7.9,7.6-8.5,6-.5,12-.5,18-.6,11.5-.3,23-.7,34.4-1,7.4-.2,9.7,1.9,9.9,9.2.4,15.5.8,31,1.1,46.4.3,14.1.6,28.3.5,43-9.8,1.8-19.2,3.1-28.5,4.4Z"/>
  <path class="cls-12" d="M1552.6,543.8c2.9,22.2,6.3,43.9,8.4,65.8,2.4,25.5,3.8,51.2,5.4,76.7.2,2.9-.4,6-1.5,8.7-1.8,4.1-5.2,6.5-10,6-4.6-.5-7.9-3.3-8.5-7.8-1-7.1-1.4-14.2-1.7-21.4-4.7-91-19.3-180.3-43.8-268-.6-2.1-1.2-4.2-1.4-6.3-.8-6.7,2.1-11.4,7.7-12.8,5.4-1.3,10.5,1.7,12.4,8.1,2.7,8.9,5.1,17.9,7.4,26.9,10.6,40.8,19.2,81.9,25.6,124Z"/>
  <path class="cls-21" d="M1341.6,859.4c1.2-1.6,2.8-2.8,4.2-4.2,26.8-26.8,53.5-53.5,80.3-80.3,1.4-1.4,3-2.6,4.8-3.9,2,.3,3.7.9,5.5,1,8.2.1,16.3,0,24.5.1,7.9.1,10.4,3.5,9.9,11.3-.6,10.6-.5,21.3-1.3,32.4-7.8,7.8-15,15.1-22.2,22.4-11.2,0-22.3.1-33.5-.1-3.6,0-5.4,1-6.5,4.5-2,6.8-4.5,13.6-6.7,20.4-2.8,8.3-5.3,9.7-13.8,7.7-15-3.6-30-7.2-45.3-11.1Z"/>
  <path class="cls-21" d="M907.4,809.4c2.4-2.4,4.6-4.4,6.7-6.5,21.8-21.7,43.5-43.5,65.3-65.3,1.3-1.3,2.7-2.4,4.5-3.2-1,24.7-2.4,49-3.8,72.9,4,.8,6.7,1.4,9.5,2-1.2,1.6-2.2,3.3-3.5,4.7-17.7,17.8-35.5,35.6-53.3,53.7-6.3-1.6-12.5-3-18.5-5.4-5.1-2-8.5-6.5-8.5-11.9,0-13.5.9-27.1,1.6-41Z"/>
  <path class="cls-49" d="M856.7,698.9c1.3,9.5,2.6,19,3.8,28.4,2,15.9,3.9,31.8,5.6,48-1.6.8-3.3.9-4.2,1.8-20.2,20-40.2,40.2-60.4,60.2-1.5,1.5-3.4,2.4-5.1,3.6-1.3-9.1-2.7-18.3-3.9-27.4-2-15.9-4-31.8-5.6-48,1.9-1,3.9-1.5,5.1-2.7,20.1-20,40.2-40.1,60.3-60.1,1.4-1.4,3-2.6,4.5-3.9Z"/>
  <path class="cls-9" d="M1274.7,556.1c-2.4,21.6-4.7,43.3-7.3,64.9-.5,4-3.3,6.3-7.4,5.8-18.5-2.1-36.9-4.5-55.4-6.6-4.9-.6-6.7-3.3-6.2-7.8,1-9.6,2-19.2,3.1-28.7,1.8-16,3.7-32,6.2-48.3,5.7-.6,10.7-.9,16-1,10.3,4.3,20.4,8.3,30.5,12.5,6.9,2.9,13.7,6.2,20.5,9.2Z"/>
  <path class="cls-58" d="M1169.6,868.5c1.3-.9,2.8-1,3.7-1.9,20.1-20,40.2-40.1,60.2-60.2.8-.8,1.3-1.9,2-3.2.7,6.5,1.4,13.4,2.1,20.9,21.2-1.4,42.1-2.7,63.5-3.6-.8,1.8-1.8,3.3-3.1,4.6-12,12-24.1,24-36,36.1-9.2,9.2-18.2,18.5-27.4,27.7-14.4,1-28.8,2.1-43.2,3.1-3.5.3-7,.4-10.4.7-6.2.6-10-2.4-10.4-8.5-.4-5.1-.7-10.3-.9-15.8Z"/>
  <path class="cls-15" d="M1633.4,745c-.6,19.3-1.1,38.1-1.7,56.9,0,1.6-.3,3.3-.8,4.9-1.8,5.4-6.2,8.6-11.1,8.3-4.6-.3-8.3-4.1-8.8-9.9-.4-4.9.4-10,.4-14.9,0-34.1.8-68.3-.2-102.4-1.2-40.8-4.7-81.4-10.4-121.8-.3-2.1-.4-4.3-.5-6.5-.2-7.2,3.6-12.8,9.1-13.5,5.5-.7,10.2,3.3,11.4,10.8,1.5,9.2,2.8,18.4,3.6,27.7,2.7,32.2,5.7,64.3,7.6,96.5,1.3,21.1,1,42.3,1.4,63.9Z"/>
  <path class="cls-21" d="M1487.7,633.9c-.9,1.6-1.7,3.1-2.9,4.2-40.4,40.5-80.8,80.9-121.3,121.3-.9.9-2,1.7-3.4,2.5,5.3-15.8,10.5-31.9,16.6-47.6,8.5-21.8,17.9-43.3,30.8-63,4.1-6.2,8.7-12.2,13.5-17.9,3.3-4,8.2-5.3,13.4-5.6,12.8-.6,25.5-1.5,38.3-1.7,6-.1,12.1.6,15,7.7Z"/>
  <path class="cls-40" d="M585.5,502c.7,0,1.5,0,2.8.3,10.4,4.1,20.2,7.9,30,11.7-.3,16,5.6,29.4,17.2,40.4,4.1,3.9,4.1,6.9-.4,10.4-10.1,7.8-20.4,15.4-31,22.5-2.2,1.5-6.2,1.7-8.9.9-26-8-46.9-31.3-47.7-60.4-.2-6.6-.6-13.3-.4-20.4,7.7-1.3,14.9-1.9,22-2.9,5.5-.7,11-1.7,16.5-2.6Z"/>
  <path class="cls-56" d="M1426.3,1040.8c-3.2-10.1-6.6-20.3-9.7-30.5-2.7-8.7-5.2-17.4-7.6-26.6,13.3-24.9,26.4-49.3,39.5-73.7,18.9-5.8,37.7-11.5,57.7-17.6-13.6,25.4-26.7,49.6-40,74.4-13.5,25-26.7,49.5-39.9,74Z"/>
  <path class="cls-4" d="M1089.6,439c-.4-15.9-.7-31.9-1.1-47.8-.3-11.9-.7-23.9-1-35.8-.1-6.8,2.1-8.9,9.7-8.9.8.8,1,1.3,1.4,1.5,19.6,7.7,39.2,15.4,58.8,23,.7,19.4,1.4,38.7,1.6,58.6-14.8,2.2-29.2,3.8-43.5,5.7-8.6,1.1-17.2,2.5-25.8,3.8Z"/>
  <path class="cls-51" d="M796.3,841.5c1.8-1.6,3.7-2.6,5.2-4.1,20.1-20,40.2-40.2,60.4-60.2.9-.9,2.6-1.1,4.2-1.4,2.9,22.6,5.5,45,7.8,67.8-1,.9-1.8,1.3-2.4,1.9-13,13-26.1,26-39,39.1-.9.9-1.4,2.2-2,3.3-6.9.9-13.8,2-20.8,2.8-4.8.6-7.8-1.8-8.5-7.1-1.8-13.9-3.3-27.8-4.9-42.1Z"/>
  <path class="cls-44" d="M1695.3,617.2c-3.8,9.5-10.9,12.6-16.3,7.1-2.3-2.4-3.9-6.3-4.3-9.7-2.3-17.8-3.4-35.8-6.2-53.5-5.7-36.4-12-72.8-18.5-109.1-2.7-14.9-6.7-29.5-10-44.2-.5-2.2-.7-4.6-.7-6.9.1-5.2,3.8-9.8,8.2-10.7,4.4-.9,9.4,1.8,11.1,7.2,2.3,7.1,4.1,14.4,5.8,21.6,10,42.4,18,85.2,23.8,128.4,2.8,20.3,4.8,40.6,7.1,60.9.3,2.8,0,5.7,0,8.9Z"/>
  <path class="cls-51" d="M856.7,698.5c-1.5,1.7-3.1,2.9-4.5,4.3-20.1,20-40.1,40.1-60.3,60.1-1.2,1.2-3.1,1.6-5,2.3-2.6-18.9-4.9-37.6-7.2-56.3-.2-2-.3-4,0-6.4,1.3-1.1,2.4-1.6,3.2-2.4,16.5-16.5,33.1-33,49.5-49.6.9-.9,1.4-2.2,2.1-3.3,3-.4,5.9-1,8.9-1.1,4.7-.2,7.5,2.3,8,7,1.8,15,3.5,30,5.3,45.4Z"/>
  <path class="cls-21" d="M1004.8,874.7c.7-1.5,1.6-3.1,2.9-4.3,39.6-39.7,79.2-79.3,118.9-118.9,1.3-1.3,2.8-2.3,4.5-3.5.4,5.5.9,11.2.3,16.7-2.4,19.8-8.2,38.5-19.8,55.1-19.5,28.1-47.3,43.5-79.9,51.1-8.7,2-17.7,2.7-27,3.9Z"/>
  <path class="cls-21" d="M1010.1,627.2c-.4,1.3-1,2.7-2,3.7-31,31-62,62-93,93-.8.8-1.8,1.4-3,2.2,0-7.4,0-14.8.5-22.2.5-8.1,1.4-16.2,1.8-24.2.8-13.6,1.4-27.1,2.4-41.3,3.5-3.8,6.6-7.1,9.7-10.3,13.6.7,27.1,1.6,40.7,1.9,5.5.1,11.1-1.4,16.7-1.8,8.6-.5,17.2-.7,26.2-.9Z"/>
  <path class="cls-21" d="M1463.4,737.5c5.9-6.1,11.9-11.8,17.8-17.7,11.4-11.4,22.7-22.9,34.3-34.6,10.1,17.8,20.1,35.9,29.8,54.5-8.8,8.9-17.2,17.4-25.7,25.8-9.3,9.2-18.7,18.4-28,27.6-9.3-18.4-18.7-36.8-28.1-55.5Z"/>
  <path class="cls-21" d="M1024.3,692.2c9.6-9.4,19.2-18.9,28.8-28.3,6.6-6.5,13.3-13.1,20.2-19.8,17.6,7.7,30.9,20,41.4,35.6.8,1.2,1.6,2.5,2.5,4.1-1.5,1.4-3.3,2.4-4.6,3.7-19.2,19.1-38.4,38.2-58.2,57.1-.8-3.7-.7-7.2-1.2-10.6-2.9-18.6-11.5-33.2-28.9-41.8Z"/>
  <path class="cls-40" d="M1089.6,439.5c8.7-1.7,17.2-3.2,25.9-4.3,14.3-1.8,28.7-3.5,43.5-5.2,1.1,26.4,1.8,52.7,2,79.5-12.7-4.5-24.9-9.4-37.2-14.3-11-4.4-22.1-8.8-33.1-13.1-.4-14-.8-28.1-1.1-42.6Z"/>
  <path class="cls-54" d="M1491.5,793.4c9.3-9.6,18.7-18.7,28-28,8.5-8.4,17-16.8,25.8-25.4,9.3,16.3,18.2,32.7,27.1,49.8-9.5,10.1-18.8,19.6-28.3,29-8.8,8.8-17.8,17.5-26.7,26.2-8.6-17.1-17.3-34.2-26-51.6Z"/>
  <path class="cls-40" d="M509.3,512c-.9,15.7-1.8,31.5-2.6,47.2-.2,3.7-.1,7.3-.2,11-.2,6.3-3.2,9.1-9.4,8.8-17.7-1-35.4-2-53.2-2.9-5.3-.3-7.6-2.4-7.4-7.8.6-15.4,1.3-30.8,2.5-46.7,23.7-3.5,47-6.5,70.3-9.5Z"/>
  <path class="cls-36" d="M1223.5,534c-5,.3-10.1.6-15.6.9.7-11.2,1.8-22.5,3.1-33.7.8-7.4,2-14.8,2.5-22.2.6-7.5,2.5-11.9,12-10.3,16.7,2.7,33.5,4,50.3,6.1,7.3.9,8.4,3.3,7.4,10.8-1.8,13.5-3.2,27-5.2,40.9-1.7.4-2.9.3-4,.5-10.7,1.3-21.3,2.6-31.9,4.1-6.2.8-12.4,1.9-18.5,2.9Z"/>
  <path class="cls-31" d="M663.4,493.6c4.3-1.2,8.6-2,13-2.6,17.8-2.4,35.6-4.7,53.9-7,.9,2.9,1.5,5.8,1.9,8.7,1.2,8,5.1,14.3,12.2,18.3,3.6,2.1,4.3,4.8,2.3,8.3-6.9,12.1-13.7,24.2-21.2,36.4-6.1-1.8-11.5-3.8-17-5.8-9-3.3-18-6.6-27-9.9-10-9.6-14.4-22-16.8-35.2-.7-3.6-.8-7.2-1.2-11.3Z"/>
  <path class="cls-15" d="M1428.5,275c10.2.3,20.4.5,30.5,1.1,2.4.1,4.9,1.2,7,2.4,5.9,3.5,7.2,9.7,2.6,14.7-2.8,3.1-6.5,6.2-10.4,7.5-21.6,7-43.2,14.2-65.3,19.7-27.3,6.8-54.9,12.2-83.2,12.7-6.2,0-12.7-.4-18.6-2.2-9.4-2.9-11.8-11.7-5.6-19.4,7.2-8.8,17-14.3,27-19.3,3.9-2,7.6-.3,9.8,3.5,2.2,3.7,1.2,7.8-2.8,10.4-5.1,3.4-10.4,6.5-15.4,10.5,46.6-.8,91.2-12,135.5-25-4.2-1.6-8.8-2.1-11.6-4.6-3.6-3.2-1.7-7.7.8-11.6-.2-.4-.2-.3-.2-.3Z"/>
  <path class="cls-4" d="M509.4,511.6c-23.3,3.5-46.6,6.5-70.3,9.5.8-21.4,2-42.7,3.2-64.1.2-3.7.1-7.3.3-11.4,22.7,8.5,45.4,17.5,68.4,26.5-.3,13.1-.9,26.1-1.6,39.6Z"/>
  <path class="cls-9" d="M393.4,424.6c-10.1-3.3-20.2-6.9-30.2-10.8-17.4-6.8-34.7-13.8-52.5-20.7-1.7-7.4-3.2-14.7-4.1-22.1-.6-4.7,2.2-7.4,6.9-8.1,15.9-2.6,31.8-5.2,47.7-7.8,3.9-.6,7.9-1.3,11.8-1.9,6-.9,9.5,1.4,10.4,7.1,3.4,21.3,6.7,42.6,10,64.3Z"/>
  <path class="cls-19" d="M1426.7,1040.8c12.8-24.5,26-49,39.4-73.7,24.5,12.9,48.7,26,74.2,39.8-38.5,11.5-75.9,22.7-113.6,33.8Z"/>
  <path class="cls-12" d="M1610.3,491.3c1.3,7.5,2.8,14.5,3.8,21.5.5,3.4.5,7-.3,10.3-1,4.4-4.3,7.2-9,7.3-4.8,0-8.5-2.5-9.7-7.1-1.8-6.9-3-14-4.3-21-7.3-40.6-16.7-80.7-27.9-120.4-1-3.5-1-7.6-.3-11.2.8-3.9,3.8-6.6,8.2-6.9,4.4-.3,8,1.5,9.8,5.5,1.7,3.8,3,7.8,4,11.8,8.6,36.5,17.2,73.1,25.8,110.1Z"/>
  <path class="cls-43" d="M1090.6,482.5c11.1,3.9,22.1,8.3,33.2,12.7,12.3,4.9,24.5,9.8,37.1,14.8.5,10,.6,20,.5,30.8-11.2,2.2-22.1,3.8-33,5.1-11.9,1.5-23.8,2.8-35.7,4.2-.7-22.3-1.4-44.7-2.1-67.5Z"/>
  <path class="cls-15" d="M1570.8,591.6c-6-37.5-11.8-74.6-17.8-111.6-1.3-8-3.5-15.9-5.1-23.9-1-5,.3-9.8,4.7-12.2,2.6-1.4,7.2-1.9,9.6-.5,2.9,1.7,5.4,5.6,6.2,8.9,5,23.4,9.9,46.8,14,70.4,3.9,22.8,6.6,45.7,9.8,68.6.2,1.6.3,3.3.1,5-.4,5.9-4.7,10.5-9.8,10.8-5.3.3-9.7-3.5-10.9-9.6-.4-1.8-.5-3.6-.8-5.9Z"/>
  <path class="cls-38" d="M1092.6,550.5c12-1.8,23.9-3.2,35.8-4.6,10.9-1.4,21.8-2.9,32.9-4.7.5,1.5,1,3.2,1,5,.4,12.5.6,25,1,37.4.2,6-2.1,8.6-8,9.2-.3,0-.7,0-1,0-17.5.4-34.9.8-52.4,1.1-6.6.1-8.3-1.7-8.5-8.1-.3-11.6-.6-23.3-.8-35.4Z"/>
  <path class="cls-36" d="M1296.6,426.1c-.2,19.2-16.4,36.5-35.9,39-23.6,3.1-42.9-12.5-47.4-32.3-.7-2.9-.7-5.9-.5-9.3,18.9-2.8,37.3-5.2,56-7.5,1.8.3,3.2.6,4.9,1.1,7.8,3.1,15.3,6,22.8,9Z"/>
  <path class="cls-53" d="M1235,888.9c8.7-9.3,17.8-18.6,26.9-27.8,12-12.1,24-24,36-36.1,1.3-1.3,2.3-2.8,3.5-4.5,2-.4,4-.7,6-.6,4.3,0,6.8,2.3,7.1,6.7.7,11.1,1.3,22.2,1.9,33.3.3,5.1.7,10.3.7,15.4,0,5.3-2.6,8.3-7.7,8.6-24.7,1.7-49.4,3.3-74.5,4.9Z"/>
  <path class="cls-26" d="M1517.5,845.4c8.9-9.1,17.8-17.8,26.6-26.6,9.4-9.4,18.8-18.9,28.3-28.6,7.8,13.4,15.5,27,22.9,40.8,2.8,5.3.8,9.7-4.9,12-16,6.5-32,13.1-48.1,19.6-2,.8-4.1,1.5-6.1,2.1-5.3,1.4-9.5-.5-12.1-5.4-2.3-4.4-4.4-8.9-6.7-13.8Z"/>
  <path class="cls-31" d="M416.3,571c.4,2.1.9,4.2,1.2,6.4,1.1,9-.3,11-9.1,12.4-19.4,3.1-38.8,6-58.1,9-4.6.7-8-1.6-8.7-6.1-2.8-17.6-5.5-35.1-7.9-53,16.2,5.9,32,12.3,47.9,18.4,11.5,4.5,23.2,8.7,34.8,13.1Z"/>
  <path class="cls-45" d="M1578.4,747.7c-.3-2.2-.7-4-.7-5.8-.8-27.6-1.4-55.3-2.3-82.9-.3-9-1.5-17.9-1.8-26.9,0-3.1,1-6.6,2.6-9.3,1.9-3.3,5.3-5.1,9.4-4.2,4.1.9,7,3.3,7.9,7.4.9,4.5,1.6,9.2,1.8,13.8,1.3,33.8,2.4,67.6,3.5,101.3,0,1.2,0,2.3-.2,3.5-.6,5.6-4.4,10.2-9.2,11.1-4.4.8-8.2-1.9-10.9-8Z"/>
  <path class="cls-50" d="M834.5,322c-2,6.2-4,12-5.8,17.9-.8,2.7-2.1,3.3-4.8,2.4-4.7-1.7-9.4-3.2-14.2-4.6-3.1-.9-3.7-2.5-2.7-5.6,3.5-10.2,6.7-20.5,10-30.8.5-1.6.9-3.1,1.5-5.1-8-.4-15.8-.9-23.5-1.1-3.3,0-4.8-1.3-4.8-4.7,0-3.3-.3-6.7-.8-9.9-.6-4.1,1.4-5,5-5.4,20.5-2.4,40.9-4.9,61.3-7.6,4-.5,5.9.4,6.7,4.4.9,4.9,2.1,9.7,3.1,14.6.6,2.8-.3,4.4-3.4,4.7-10.6,1.4-21.3,2.9-32.9,4.5,3.3,1.2,5.9,2.2,8.5,2.9,3,.8,3.6,2.4,2.6,5.1-2.1,6-3.9,12-6,18.4Z"/>
  <path class="cls-12" d="M266.7,286.8c-3.3-11.6-3.2-11.3,7.8-15.3,17.2-6.2,34.3-12.7,51.3-19.3,4.1-1.6,6.5-1.1,8.1,3.2,1.3,3.4,3.1,6.6,4.7,9.9,3.3,6.9,3.4,7-3.5,9.6-9.1,3.5-18.3,6.9-27.5,10.3.2.2.3.6.4.6,11.9.9,11.8.9,10.7,12.7-.9,9.3-1.8,18.6-2.2,27.9-.2,4.9-1.9,6.5-6.6,5.7-3.6-.6-7.3-1.1-10.9-.9-5.2.2-6.1-2.1-5.6-6.6,1.1-10.3,1.9-20.6,2.7-30.8.1-1.6.2-3.3.3-5.4-7.1,1.5-13.8,3-20.6,4.2-7,1.3-7,1.2-9.2-5.8Z"/>
  <path class="cls-45" d="M507.6,666.1c-4.1,1.8-7.8,3.4-12.4,5.4,1.4.3,1.9.5,2.3.5q10.8.4,10.8,11c0,10-.1,20,.1,30,0,4-1.3,5.4-5.2,5.1-3.6-.3-7.3,0-11,0q-6.9,0-6.9-6.7c0-11.6,0-23.3,0-35.9-5,1.5-9.3,2.9-13.7,4.2-13.4,4.1-13.2,4-18.6-8.8-1.9-4.5-1-6.1,3.4-8,18.1-8.1,35.9-16.6,53.8-25.1,6.3-3,6.4-3,10.1,3.1,2.1,3.6,4.2,7.2,6.4,10.7,1.7,2.7,1.2,4.6-1.7,6-5.7,2.8-11.4,5.5-17.4,8.4Z"/>
  <path class="cls-44" d="M1606.9,352.4c5.1,1.4,7.5,5,8.6,9.3,8.7,35.1,17.3,70.3,25.8,105.5.7,2.8.2,6-.5,8.8-1.1,4.4-4.4,7.3-9,7.4-4.5,0-8.2-2.3-9.5-6.8-1.8-6-3-12.2-4.5-18.4-7.2-29.2-14.5-58.3-21.6-87.6-.8-3.4-1.3-7.3-.6-10.7,1.1-5.7,4.8-7.9,11.3-7.7Z"/>
  <path class="cls-14" d="M1346.6,601.2c7.8-6.9,15.9-13.5,24.1-20,25.2-19.8,50.4-39.6,75.6-59.3.8-.6,1.6-1.1,2.7-1.9-.3,17.2-5.5,33-16,46.9-14.6,19.3-34.8,29.2-58.1,33-9.2,1.5-18.7,1.2-28.3,1.3Z"/>
  <path class="cls-44" d="M1496.2,531.4c-3.9-19.3-7.6-38.2-11.4-57.1-1.5-7.4.9-13.2,6.4-15,6.4-2.1,12.3,1.8,14.1,9.6,2.6,11.5,5.1,23.1,7.2,34.7,3.5,19.1,6.6,38.3,9.8,57.5.5,2.8.6,5.6.5,8.5-.2,5.3-4.2,9.8-9,10.4-4.8.6-9.9-2.8-11-8.2-1.7-8.5-2.8-17.1-4.2-25.6-.8-4.8-1.5-9.5-2.4-14.7Z"/>
  <path class="cls-38" d="M925.6,458.6c-6.3,1.3-12.8,2.5-19.3,3.4-12.6,1.7-25.2,3.3-37.8,4.8-14.2,1.8-28.5,3.4-42.7,5.2-9.8,1.2-19.6,2.6-29.8,4,13.2-19.1,32.7-28.7,55.1-32.9,18-3.4,36.1-3.7,53.5,3,7.4,2.9,14,8,21.1,12.4Z"/>
  <path class="cls-3" d="M1342.5,124.8c-1.4,7.1-3.1,13.7-4,20.4-.6,4.6,1.6,8.4,5.8,10.8,4.8,2.7,9.7,5.2,14.5,7.7,13.6,7.1,17.8,17.7,12.5,32-1.7,4.5-4,8.8-6.5,12.9-2.6,4.2-7,5.2-10.8,3-3.7-2.1-4.9-6.5-2.9-10.9,1.9-4.1,3.9-8.1,5.7-12.2,1.8-4.2.5-7.4-3.6-9.6-5.4-2.9-11-5.6-16.1-8.9-12.8-8.2-17.1-18.8-14-33.8,1-4.9,2.1-9.8,3.7-14.5,2.4-7.2.2-12.7-5.8-17-1.9-1.4-3.9-2.6-5.6-4.2-3.3-3-3.8-6.7-1.2-10.3,2.4-3.4,5.9-4.6,9.6-2.6,14,7.7,23.3,19,18.7,37Z"/>
  <path class="cls-12" d="M458,333.5c-13.1-2.8-11.3-1.2-8.9-12.8,1.5-7.2,1.6-7.2,8.9-5.7,21,4.4,42,8.9,63,13.2,3.8.8,5.3,2.3,4.6,6.5-2.3,12.7-2.2,12.7-14.8,10.1-6.2-1.3-12.4-2.6-18.6-3.9-.5,0-1,0-1.5,0,.1.4.1.8.3.9,7.1,4.9,7.4,5.9,2.4,12.9-7.5,10.5-17.3,17.3-30.3,19.1-3.6.5-5.7-.7-6.8-4.1-1-2.8-2.1-5.6-3.4-8.3-1.6-3.4-.4-4.9,3-5.5,10.5-1.8,15.5-9.2,19.4-18.8-6-1.3-11.4-2.4-17.3-3.7Z"/>
  <path class="cls-30" d="M615.2,661.9c-10.9-1-21.3-2-33.1-3.1,1.7.9,2.2,1.2,2.7,1.5,9.1,4.1,9.5,5.2,4.4,14-6.3,10.8-15.1,18.4-27.6,21.4-3.3.8-5.5,0-6.9-3.1-.3-.6-.7-1.2-1-1.7-1.6-3.1-4.4-6.3-4.2-9.3.1-1.8,5.1-3.2,7.8-4.8,6.9-4.1,10.2-10.7,12.3-19-6.1-.6-11.9-1.3-17.8-1.7-13.7-1-10.7-.4-10.2-11.6.3-7.2.6-7.3,7.8-6.6,21.7,1.9,43.4,4,65.1,5.9,4,.3,5.3,1.9,4.7,5.7-.4,2.8-.3,5.7-.9,8.4-.3,1.5-1.8,2.7-3.1,4Z"/>
  <path class="cls-33" d="M804.4,586.4c13.4-1.9,27-3.5,40.6-5.1,11.8-1.4,23.6-2.9,35.4-4.3,8.7-1,17.4-2,26.5-3-3.4,10.5-7.1,21.1-11.3,31.4-2.4,5.9-7.3,8.8-13.8,8.6-4.1-.1-8.3,0-13.1-.4-13.4-5.4-26-10.7-38.8-15.6-6.7-2.6-13.6-4.7-20.5-7-1.6-1.4-3.3-2.9-5.1-4.6Z"/>
  <path class="cls-18" d="M970.7,565.4c10.5-1.6,21-2.6,31.5-3.9,9.3-1.1,18.6-2.4,27.9-3.6,2.9-.4,5.8-.8,9.4-1.3,0-3.4,0-6.7,0-10.4.3,5,.7,10.4.9,15.9.3,7.5.4,15,.7,22.4.2,6.1-1.8,8.9-7.9,9.1-18.3.6-36.6,1-54.9,1.3-4,0-6.8-1.7-6.9-6.1-.3-7.6-.6-15.3-.8-23.4Z"/>
  <path class="cls-15" d="M1334.4,212.8c6.9,5.4,6,11.7-1.6,15.1-4.9,2.1-9.8,4.2-14.6,6.4-1.7.8-3.1,2.1-4.7,3.2.2.7.4,1.3.6,2,7.8-1,15.7-1.1,23.2-3.1,16.2-4.2,32.3-9.2,48.4-13.9,1.1-.3,2.2-.8,3.3-1.2,5.9-2,10.2-.5,12,4.4,1.7,4.5-.5,8.5-6.3,10.6-9.1,3.2-18.2,6.6-27.4,9.2-16.5,4.6-32.9,9.7-50.3,9.4-1.3,0-2.7,0-4-.2-7-1.2-13.4-3.4-15.6-11.2-2.3-8.2.9-15,7.4-19.1,7.6-4.8,16.2-8.3,24.5-12,1.3-.6,3.2.1,5.2.4Z"/>
  <path class="cls-53" d="M1226,650.1c-.2,1.2-.6,2.5-1.5,3.3-21.1,21.1-42.2,42.2-63.7,63.4-1.3-14.1-2.3-28.3-3.4-42.5-.3-3.8-.6-7.6-.8-11.4-.2-5.2,2.4-8.5,7.3-8.8,20.5-1.4,41.1-2.7,62-4Z"/>
  <path class="cls-12" d="M1644.1,342.5c1.3,4.5,2.5,8.7,3.7,12.9.3,1.1.6,2.2.8,3.4,1,7.5-1.9,13.1-7.5,14.5-5.6,1.4-10.5-2.2-12.8-9.7-8.1-25.3-16.1-50.7-24-76-.7-2.2-1.2-4.6-1.1-6.8.2-5.6,3.8-9.8,8.3-10.5,5-.8,9.8,2.3,12,8.5,4.3,12.1,8.3,24.2,12.2,36.4,2.9,9,5.6,18.1,8.5,27.5Z"/>
  <path class="cls-59" d="M416.4,570.6c-11.7-3.9-23.3-8.2-34.8-12.6-15.9-6.2-31.7-12.5-47.9-18.9-.6-1.5-.9-3-1.2-4.7,10.3-1.5,20.6-2.6,30.9-3.9,11.9-1.4,23.8-3,35.7-4.5,3.1-.4,6.2-.7,9.7-1,2.8,15.1,5.2,30.1,7.5,45.6Z"/>
  <path class="cls-30" d="M462.7,638.1c-.5,1.1-.9,1.8-1.3,2.5-6.5,12.2-8.6,12.9-21.3,7.8-3.3-1.3-4.2-3.1-3.3-6.5,2.4-9.2,2.3-9.4-6.9-10.4-11.3-1.3-22.5-2.3-33.8-3.2-3.8-.3-5-1.9-4.4-5.4.2-1.1.3-2.3.5-3.5,1.4-11.1,1.4-11.2,12.9-10.3,16.4,1.2,32.9,2.6,49.3,4,11.3,1,14.8,6.3,11.4,17.2-.8,2.5-1.9,5-3,7.8Z"/>
  <path class="cls-55" d="M747.7,624.1c-2.1,7.9-3.9,15.4-6.5,22.7-.6,1.6-3.7,2.4-5.8,3.1-1,.4-2.3-.2-3.4-.4-9.6-1.5-9.7-1.5-9.5-11.3,0-3.5-1-4.8-4.6-4.4-12.4,1.6-24.7,3.1-37.1,4.7-6,.8-6.4.5-7.1-5.6,0-.3,0-.7,0-1-1.2-12.5-1.2-12.4,11.3-14,16-2,32-4.2,47.9-6.5,10.5-1.5,14.6,1.6,15,12.5Z"/>
  <path class="cls-1" d="M591.5,374.9c-3.3,4.4-6.5,8.4-9.6,12.5-1.8,2.3-3.9,2.8-6.5,1.6-3.2-1.5-6.4-2.9-9.6-4.2-3.1-1.2-3.2-3.1-1.4-5.4,8.3-10.9,12.3-23.6,13.7-36.9,1-9.1,1.1-18.3,1.2-27.4,0-4.4,1.1-6.6,5.9-6.1,4.3.5,8.6.5,13,.6,2.8,0,4.2,1.2,4.5,4.1,2.3,21.3,0,41.8-11.1,61.1Z"/>
  <path class="cls-30" d="M766.2,282.3c11.2,2.2,9.3.8,8,11-.6,4.7-2.8,5.8-7,4.7-2.2-.6-4.6-.8-7.5-1.4-1.1,6.7-2.2,13.1-3.4,19.9,5.1.6,9.7,1.2,14.3,1.5,3.9.3,5.1,2,4.7,5.8-1.2,10.1-1.1,10.1-11.3,8.8-13-1.6-26.1-3.2-39.2-4.5-3.6-.4-4.7-1.8-4.1-5.1,1.9-11.3-1.5-10.9,11-9.3,2.3.3,4.6.4,7.6.6,1.2-6.9,2.3-13.7,3.5-20.7-2-.4-3.6-.7-5.2-1.2-2.6-.8-7.2-1.6-7.3-2.8-.4-3.8.5-7.9,1.8-11.6.3-.9,3.8-1.2,5.7-.9,9.4,1.5,18.7,3.3,28.4,5Z"/>
  <path class="cls-10" d="M1448,910c-12.7,24.4-25.8,48.8-39.1,73.3-5.9-18.5-11.6-37.2-17.5-56.6,18.9-5.6,37.6-11.2,56.6-16.7Z"/>
  <path class="cls-15" d="M1319.4,256.8c5.6.5,7,4.3,7.9,9.7,13.4-2.8,26.6-4.9,39.5-8.4,9.4-2.5,18.3-6.7,27.4-10.4,4.9-2,9-1.3,11.3,2.6,2.4,4.2,1.4,9.3-3.6,11.3-12.8,5.1-25.6,10.4-38.8,13.8-13.3,3.4-27.1,4.7-40.7,6.4-3.4.4-7.3-.7-10.6-2-5.7-2.2-7.8-8.5-4.8-13.6,2.7-4.6,6-8.9,12.5-9.3Z"/>
  <path class="cls-3" d="M1403.8,174.9c3.1,10.9.5,20.5-4.4,29.7-2.3,4.2-6.7,5.7-10.6,3.8-3.9-1.9-5.9-6.3-3.6-10.6,6.5-12,3.3-22.3-4.5-32.3-3.9-5-7.7-10.1-10.7-15.6-8.8-16.2-.6-29.5,11.3-38.6,3.4-2.6,7.1-1.6,9.9,1.5,2.8,3.1,3,6.7.3,10-1.9,2.3-4.1,4.4-6.1,6.6-3.6,4.2-4,8.8-1.1,13.3,3.5,5.4,7.6,10.5,11,16.1,3.1,5.1,5.6,10.5,8.5,16.2Z"/>
  <path class="cls-16" d="M668.1,656.3c2.8,4.8,5.4,9.4,7.5,14.2.3.8-1.6,3.4-3,4-6.1,2.6-12.4,4.7-18.6,7.1,6.1,2.7,6.1,2.8,5.4,9.5-.8,7.6-1.7,15.2-2.4,22.8-.3,3.5-1.9,4.5-5.3,4-16.6-2.5-13,1.8-12-15.1.3-5.8,1.2-11.5,1.9-18-5.3,1-10,1.6-14.6,2.8-4.4,1.1-6.7,0-7.8-4.8-2.1-9.2-2.3-9,6.6-12,14-4.7,27.9-9.7,42.1-14.5Z"/>
  <path class="cls-9" d="M1273.4,416.9c-1.4-.3-2.8-.6-4.8-1.2-16.1-6.4-31.6-12.6-47.1-18.7,12.6-17.7,40.6-21.8,57.9-8.6,8.1,6.2,13.7,13.9,15.8,24.2-5.3,1-10.1,1.5-14.9,2.3-2.3.4-4.6,1.3-6.8,2Z"/>
  <path class="cls-58" d="M834.1,647.1c-.3,1.2-.7,2.4-1.6,3.3-16.5,16.6-33,33.1-49.5,49.6-.8.8-1.9,1.3-3.1,2-1.3-6.1-2.3-12.3-3.1-18.5-.9-7.1-1.7-14.1-2.2-21.2-.4-5.8,1.8-8.3,7.5-9.1,11.5-1.5,23-2.8,34.5-4.1,5.7-.7,11.5-1.3,17.7-1.9Z"/>
  <path class="cls-1" d="M427.3,309.7c-15.4,10.2-31.9,17.1-49.4,21.6-2.9.8-4.6.5-5.9-2.4-2-4.7-4.3-9.4-6.6-13.9-1.4-2.7-.4-3.8,2.1-4.8,18-7.2,36.1-14.4,54-21.7,2.6-1.1,4-.4,5.1,2.1,1.2,2.9,2.7,5.7,4,8.6q3.1,6.6-3.3,10.6Z"/>
  <path class="cls-50" d="M708.1,302.6c-16.1,8.4-32.7,13.9-50.2,16.8-3,.5-4.3-.3-5.3-2.9-1.6-4.4-3.1-8.8-5.1-13-1.6-3.6,0-4.7,3.1-5.5,13-3.6,25.9-7.3,38.8-11.2,5.7-1.7,11.3-3.9,16.9-6.1,2.7-1.1,4.1-.4,5,2.1.7,2,1.5,4,2.3,6.1q3.4,9.1-5.4,13.6Z"/>
  <path class="cls-24" d="M696.4,783.9c7.1,2.8,14.5,4.6,20.3,8.6,8.9,6.2,7.5,15-2.2,20-12.5,6.5-33.7,3.8-44.3-5.5-8-7.1-7.1-15,2.4-19.9,7.4-3.7,15.3-4.3,23.8-3.2Z"/>
  <path class="cls-15" d="M1428.5,275c-.5,0-1-.2-1.5-.2-3.8.5-7-.7-8.8-4.2-1.9-3.8-.6-7,2-10,8-9.2,9.9-19.7,6.2-31.2-2.7-8.5-6.6-10.7-15.3-8.9-4.4.9-8.3-1.2-9.5-5.1-1.3-4.2.6-8.2,5-10.2,10.1-4.6,21.8-1.5,29,7.7,13.6,17.4,10.1,47.7-7.2,61.8,0,.3,0,.3,0,.3Z"/>
  <path class="cls-37" d="M1250,713c9.2-9.9,18.8-19.7,28.6-29.5,7.4-7.4,14.8-14.8,22.6-22.3,1.1,13.5,2.1,27.1,2.8,40.7.3,5-2.1,7.9-7.2,8.3-15.4,1.1-30.8,2-46.7,2.8Z"/>
  <path class="cls-15" d="M1408.5,281.9c-2.5,3.3-4.4,7.3-7.5,9.1-16.5,9.3-34.5,13.8-53.3,14.8-2.8.2-6-.9-8.5-2.2-4.8-2.7-6.2-7.8-3.2-12.4,1.9-3,4.6-5.8,7.5-7.9,4.9-3.5,9.5-1.3,13.1,5.9,13.4-3.2,27.2-5.4,39-13.7,5.8-4.1,11.5-1.5,13,6.4Z"/>
  <path class="cls-58" d="M1236,798c-.4,0-.3-.3-.2-.3,8.4.3,12.6-6.1,17.6-11.1,10.7-10.6,21.4-21.4,32.1-32,1.3-1.3,2.8-2.3,4.5-3.5.4,12.8.6,25.6.5,38.4,0,4.8-3.1,7.5-8,7.6-15.3.3-30.7.6-46.4,1Z"/>
  <path class="cls-5" d="M254.8,446.5c-2.5-1.1-4.8-2.4-7.1-2.5-5.7-.3-11.5-.1-17.2-.1-.2-.5-.4-1.1-.6-1.6,3.5-2.8,6.9-5.9,10.6-8.3,5.6-3.5,7.8-8.1,7.1-14.6-.5-4.4,0-8.8,0-13.2.5-.2,1-.4,1.5-.6,2.5,3.1,5.4,6,7.4,9.4,3.9,6.7,9.4,9.3,17,8.3,3.9-.5,7.8,0,11.8,0,.2.4.4.9.6,1.3-2.2,1.8-4.1,4-6.5,5.3-9,5-12.9,12.3-11.2,22.6.5,2.8,0,5.8,0,8.7-.5.1-1.1.3-1.6.4-3.8-4.9-7.7-9.8-11.8-15Z"/>
  <path class="cls-27" d="M1322.6,929.8c-4.1-2.5-7.9-4.8-11.6-7.2,0-.4.1-.9.2-1.3,5.5-.8,10.9-1.8,16.4-2.3,4-.4,6.8-2,8.8-5.5,2.7-4.9,5.7-9.7,9.9-14.4.8,5.3,1.8,10.5,2.2,15.8.3,4.6,2.2,7.7,6.3,9.9,4.8,2.6,9.3,5.5,13.7,9.6-5.5.8-11,1.9-16.5,2.3-4.3.3-7,2.3-9.1,5.9-2.7,4.8-5.6,9.4-8.4,14-.5,0-.9,0-1.4,0-.5-4.1-1.2-8.2-1.6-12.3-.6-6.2-1.7-11.9-8.8-14.5Z"/>
  <path class="cls-52" d="M810.5,394.4c4.4-6,8.6-11.7,12.7-17.4.4,0,.7.1,1.1.2.4,5.2,1.1,10.3,1.1,15.5,0,4.8,1.7,8.2,5.9,10.7,4.6,2.7,8.9,6,13.3,9-.1.4-.3.8-.4,1.3-5.5.5-11.1,1.2-16.6,1.3-4.1.1-6.9,1.7-9,5.1-3,4.7-6.3,9.3-10.7,13.7-.5-5.3-1.2-10.6-1.3-16,0-4.7-1.8-7.8-5.7-10.2-4.6-2.8-8.9-6.1-14.4-9.8,8.8-1.1,16.3-2.1,24-3.3Z"/>
  <path class="cls-57" d="M1372,648.6c4.1.7,7.8,1.3,11.5,2,.1.4.2.8.3,1.2-2,1.2-3.9,2.5-5.9,3.6q-13.9,7.8-16.4,23.6c-.3,1.9-.7,3.8-2.3,6.2-2.1-3.8-4.6-7.4-6.3-11.4-2.6-6.5-7.1-9.5-14-9.9-4.2-.3-8.3-1.5-12.5-2.2l-.3-1.3c3.6-2.1,7.1-4.6,11-6.1,6.9-2.7,9.8-7.7,10.3-14.8.3-4,1.3-8,3.3-12.4,2,3.5,4.3,6.9,5.8,10.6,2.7,6.9,7.4,10.8,15.4,10.9Z"/>
  <path class="cls-30" d="M418.6,678.1c-8.1,9-14,9.3-22.5.9-.8-.8-1.1-2.8-.7-3.8,4.3-10.6,8.7-21.2,13.3-31.6.6-1.3,3.1-2.9,4.4-2.7,5.4.8,10.8,2.1,16.1,3.4,3,.8,3.5,2.9,2.9,5.8-2.2,10.3-7,19.3-13.5,27.9Z"/>
  <path class="cls-30" d="M714.9,647.2c1.7,1.5,3.9,3,4,4.5.5,13.5-3.3,25.9-10.8,37.2-1.9,2.9-4.3,3.6-7.7,2.6-12.2-3.4-11.9-3.3-9.2-15.4,1.7-7.6,2.6-15.4,3.4-23.2.4-4.3,1.9-6.3,6.5-6,4.5.3,9,.1,13.9.2Z"/>
  <path class="cls-34" d="M1578.6,283.6c7.4-1.5,11.4.2,13.9,6.7,3.6,9.3,6.7,18.7,9.6,28.2,2,6.6-1.4,13-6.9,14.6-5.2,1.6-10.5-1.5-12.9-8.2-3.2-8.9-6.2-17.9-9-26.9-1.8-5.8-.2-10.8,5.3-14.5Z"/>
  <path class="cls-28" d="M830.9,887.9c.2-1.2.7-2.4,1.6-3.3,13-13.1,26-26.1,39-39.1.6-.6,1.3-1,2.3-1.5,1.6,10.1,3,20.3,4.2,30.5.6,4.8-1.8,7.9-6.8,8.6-13.3,1.7-26.6,3.3-40.4,4.8Z"/>
  <path class="cls-30" d="M579.1,613.4c7.8,1.3,15.1,2.5,23,3.8-1-7,3.7-5.2,7.2-5.2,6.4,0,4.2,5.4,4.7,8.6.9,6-4.5,2.2-6.9,4.3-.3,1.4-.7,3.3-1,5.3q-1.3,6.8-7.9,5.7c-11.1-1.9-22.3-4-33.4-5.6-3.9-.6-4.5-2.2-4.1-5.6,1.6-13.7,1.6-13.8,15.2-11.7,1,.1,2,.3,3.4.5Z"/>
  <path class="cls-50" d="M1554.1,394.4c1.4,5.2,2.8,10,3.9,14.9,1.4,6.5-2,12.5-7.5,13.9-5.4,1.4-10.8-1.9-12.7-8.5-2.5-8.4-4.9-16.9-7-25.5-1.7-6.8,1.5-12.9,7.3-14.5,5.5-1.6,10.7,1.8,13,8.8,1.1,3.5,2,7,3.1,10.9Z"/>
  <path class="cls-34" d="M1487.8,440.7c-7.4.4-11.1-1.9-13.1-8.5-2.4-8.1-4.6-16.3-6.6-24.5-1.5-6.1,1.9-11.7,7.5-13.3,5-1.4,10.6,1.6,12.4,7.4,2.7,8.5,5,17.2,7.1,25.9,1.3,5.6-1.1,9.7-7.4,12.9Z"/>
  <path class="cls-3" d="M473.4,292c1.7-.6,3.5-1.5,4.9-1.1,11.8,3.2,23.6,6.8,35.4,10.1,3.2.9,4.4,2.3,3.1,5.7-1.3,3.4-1.8,7.1-3.3,10.4-.5,1.2-3.1,2.7-4.2,2.4-12.5-3.4-24.9-7-37.2-10.8-1.1-.4-2.5-3-2.2-4.4.7-4,2.2-8,3.6-12.3Z"/>
  <path class="cls-32" d="M540.5,320.1q-.1-8.1,7.4-8.1c3.7,0,7.3.2,11,0,3.4-.2,5.3,1.4,5.2,4.5-.5,10.1-1.3,20.1-2.4,30.1-.1,1.2-3,2.9-4.7,3-3.8.2-7.6-.4-11.4-.7-2.9-.2-4-1.6-4.1-4.5-.2-8-.6-15.9-.9-24.4Z"/>
  <path class="cls-38" d="M1157.5,370.5c-19.7-7.2-39.3-14.9-58.9-22.6-.4-.2-.6-.7-1-1.4,17.4-.7,34.8-1.2,52.2-1.5,5.2,0,7.6,2.3,7.7,7.6.1,5.8,0,11.6,0,17.9Z"/>
  <path class="cls-46" d="M1223.7,534.3c6-1.3,12.1-2.3,18.3-3.2,10.6-1.4,21.3-2.8,31.9-4.1,1.1-.1,2.3,0,3.9,0-.6,9.5-1.7,18.9-2.9,28.7-7.1-2.8-13.8-6-20.8-8.9-10-4.2-20.2-8.2-30.5-12.5Z"/>
  <path class="cls-42" d="M1221.3,397.2c15.8,6,31.3,12.1,47.1,18.5-18.2,2.6-36.6,5-55.4,7.3-1-9.7,2.4-18,8.3-25.8Z"/>
  <path class="cls-29" d="M389.6,280.1c-4,2.4-7.5,5-11.4,6.8-1.5.7-4.5.4-5.5-.7-4.6-4.8-8.6-10.1-12.9-15.2-2-2.4-1.6-4.1,1.2-5.5,1.5-.7,2.9-1.6,4.3-2.5q10.6-6.1,20.2,1.8c2,1.7,3.9,3.6,5.7,5.6,4.3,4.8,4.1,6.1-1.6,9.6Z"/>
  <path class="cls-34" d="M660.4,265.1c2.4,3.8,4.7,7.2,6.6,10.9,1.3,2.4.7,4.4-2.4,5.2-5,1.2-9.9,2.9-14.9,4-1.2.3-3.4-.6-3.9-1.6-3.1-6.3-5.9-12.9-9.2-20.2,6.3-1.6,11.6-3.6,17.1-4,2-.1,4.3,3.5,6.7,5.7Z"/>
  <path class="cls-34" d="M679.9,243.4c4.1,3.5,7.9,6.6,11.6,10,2.9,2.7,3.1,5.3-.9,7.5-3.6,2-7.1,4.3-10.6,6.6-2.5,1.7-4.4,1.8-6.4-.7-3.5-4.4-7.3-8.7-10.9-13-1.7-2.1-1.7-3.8.9-5.2,3.2-1.7,6.2-4.1,9.5-5.4,1.8-.7,4.2,0,6.7.2Z"/>
  <path class="cls-4" d="M585.3,501.7c-5.3,1.2-10.7,2.2-16.3,2.9-7.2.9-14.4,1.6-22,2.4-2.5-7.4-4.5-14.8-6.6-22.6,12.9,4.6,25.8,9.5,38.7,14.5,2,.8,3.9,1.7,6.1,2.8Z"/>
  <path class="cls-44" d="M967.6,434.5c9.6,3.2,19.2,6.8,28.7,10.4,2.9,1.1,5.8,2.3,9,3.8-6.7,1.3-13.7,2.3-20.7,3.3-4.4.6-8.8,1-13.1,2-1.2.3-2,2.2-3,3.8-.3-7.3-.6-15.1-.9-23.3Z"/>
  <path class="cls-41" d="M809.6,591.3c6.7,2,13.6,4.1,20.3,6.7,12.8,4.9,25.4,10.2,38.3,15.5-18.1-.7-35.2-5.9-50.6-16-2.8-1.8-5.3-4-8-6.3Z"/>
  <path class="cls-43" d="M618.4,513.5c-9.8-3.3-19.6-7.1-29.7-11.2,6.6-1.2,13.3-2.2,20.1-2.8,2.9-.2,5.8.5,9,1.1.3,4.3.5,8.4.5,12.9Z"/>
  <path class="cls-54" d="M1447.9,838.2c6.7-7.4,13.9-14.7,21.5-22.1.3,4.7.3,9.5.2,14.4-.2,5.2-2.6,7.6-7.7,7.8-4.5.1-9,0-13.9,0Z"/>
  <path class="cls-48" d="M681.6,540.3c8.9,3,17.9,6.3,26.9,9.6,5.4,2,10.9,4,16.7,6-1.8,3.6-5.2,4.9-9,3.7-12.8-4-24.7-9.4-34.6-19.3Z"/>
  <path class="cls-59" d="M1008.7,449.3c9.1-1.6,18.5-2.9,28.2-4.2.5,5,.5,10,.6,15.4-9.6-3.3-19.1-7.1-28.8-11.2Z"/>
  <path class="cls-35" d="M852.1,401.2c-2.6-.9-4.9-1.7-7.2-2.5,7.2-2.1,11.6-6.3,13.1-14.1,1.4,7.8,5.9,11.9,13.6,13.5-7.6,1.7-12.1,5.8-12.8,13.8-2.4-4-4.3-7.2-6.6-10.6Z"/>
  <path class="cls-6" d="M1273.8,417.1c1.9-.9,4.2-1.8,6.5-2.2,4.8-.8,9.7-1.3,15-1.9.9,4.1,1.3,8.3,1.6,12.8-7.7-2.6-15.2-5.5-23-8.7Z"/>
  <path class="cls-25" d="M711.9,247.9c7.1-6.9,9.7-6.2,15.5,4-1.6,1.2-3.3,2.5-4.9,3.8-2.6,2.1-4.8,1.8-6.5-1.1-1.3-2.1-2.7-4.2-4.1-6.6Z"/>
  <path class="cls-25" d="M702.5,241.4c7,.7,9.5,3.7,7.8,10-1.2,4.8-5.5,2.5-8.3,2-4.5-.8-3-5.2-3.6-8.2-.6-2.9,1-3.9,4-3.9Z"/>
  <path class="cls-13" d="M615.8,617.3c8-5.3,8.9-5.3,13.5,1.9.7,1.1.3,4.2-.5,4.7-2.3,1.4-4.6,5.7-8,2.1-2.2-2.3-3.5-5.5-5-8.6Z"/>
  <path class="cls-54" d="M926.1,627.9c-2.7,3.3-5.8,6.6-9.2,10-.4-7.2,1.9-9.8,9.2-10Z"/>
  <path class="cls-17" d="M716.9,823.9c1.7,2.2,3.8,4.3,5,6.7.7,1.4,0,3.5-.1,5.3-.6,0-1.1.1-1.7.2-1.1-3.8-2.2-7.7-3.2-11.9.1-.4.1-.3,0-.3Z"/>
  <path class="cls-47" d="M1023.9,692.1c17.7,8.6,26.4,23.3,29.3,41.8.5,3.4.5,6.9.9,10.7,0,2.7-.2,5.1-.5,8.2,0,.8,0,1,0,1.2-1.4,27.7-22.3,50.3-49.8,54-4.4.6-8.9.7-13.8,1.2-3.2-.5-5.9-1.1-9.9-1.9,1.4-23.9,2.8-48.2,4.1-72.9.7-15.1,1.5-29.9,2.3-45.2,12.7-2.6,24.9-1.3,37.4,2.9Z"/>
  <path class="cls-21" d="M1053.8,753.9c-.2,0-.2-.3-.1-.7.2,0,.3.1.4.3,0,0-.1.2-.3.4Z"/>
  <path class="cls-11" d="M1007,292.5c-3.7,3.3-7.2,6.4-11.1,9.9-2.8-4.4-5.8-8.4-8.1-12.8-4.5-8.5-8.6-17.2-13.1-25.8-1.6-3.1-1-5.5,1.7-7.2,3.3-2.1,6.6-4.6,10.3-6,12.5-4.6,25.1-8.9,37.7-13,1.4-.5,4.3.2,5.1,1.3,7.3,10.1,14.3,20.4,21.9,31.5-16.4,4.6-31.1,11.6-44.4,22.1Z"/>
  <path class="cls-7" d="M1042.3,213.9c2.9,1.5,6.1,2.4,7.9,4.5,3.7,4.4,6.9,9.3,10.1,14.2,4.9,7.7,9.5,15.5,14.3,23.2-3.3,2.1-6.1,3.8-9.2,5.8-.5-.5-1.2-1.1-1.7-1.9-8.1-11.7-16.3-23.4-24.2-35.3-4-6-3.1-8.8,2.9-10.5Z"/>
  <path class="cls-7" d="M1082.6,273.6c-1,1.7-2,3.3-3.5,4.3-.5.3-2.8-.7-3-1.5-.3-.9.5-3,1.3-3.2,1.6-.4,3.4,0,5.3.5Z"/>
</svg>