<?xml version="1.0" encoding="UTF-8"?>
<svg id="Layer_1" data-name="Layer 1" xmlns="http://www.w3.org/2000/svg" version="1.1" viewBox="0 0 1920 1148">
  <defs>
    <style>
      .cls-1 {
        fill: #f96496;
      }

      .cls-1, .cls-2, .cls-3, .cls-4, .cls-5, .cls-6, .cls-7, .cls-8, .cls-9, .cls-10, .cls-11, .cls-12, .cls-13, .cls-14, .cls-15, .cls-16, .cls-17, .cls-18, .cls-19, .cls-20, .cls-21, .cls-22, .cls-23, .cls-24, .cls-25, .cls-26, .cls-27, .cls-28, .cls-29, .cls-30, .cls-31, .cls-32, .cls-33, .cls-34, .cls-35, .cls-36, .cls-37, .cls-38, .cls-39, .cls-40, .cls-41, .cls-42, .cls-43, .cls-44, .cls-45, .cls-46, .cls-47, .cls-48, .cls-49, .cls-50, .cls-51, .cls-52, .cls-53, .cls-54, .cls-55, .cls-56, .cls-57, .cls-58, .cls-59, .cls-60, .cls-61, .cls-62, .cls-63, .cls-64, .cls-65, .cls-66 {
        stroke-width: 0px;
      }

      .cls-2 {
        fill: #9958a3;
      }

      .cls-3 {
        fill: #fd315e;
      }

      .cls-4 {
        fill: #f67c19;
      }

      .cls-5 {
        fill: #82d8ff;
      }

      .cls-6 {
        fill: #f1227e;
      }

      .cls-7 {
        fill: #f7984c;
      }

      .cls-8 {
        fill: #fdfbfd;
      }

      .cls-9 {
        fill: #f96295;
      }

      .cls-10 {
        fill: #3ea9fd;
      }

      .cls-11 {
        fill: #40a9fa;
      }

      .cls-12 {
        fill: #fefdfe;
      }

      .cls-13 {
        fill: #f67c18;
      }

      .cls-14 {
        fill: #74468b;
      }

      .cls-15 {
        fill: #76498d;
      }

      .cls-16 {
        fill: #7b4788;
      }

      .cls-17 {
        fill: #f49dfc;
      }

      .cls-18 {
        fill: #40aafd;
      }

      .cls-19 {
        fill: #9755a1;
      }

      .cls-20 {
        fill: #efe5f1;
      }

      .cls-21 {
        fill: #3fa9fd;
      }

      .cls-22 {
        fill: #9653a0;
      }

      .cls-23 {
        fill: #9553a0;
      }

      .cls-24 {
        fill: #ff9499;
      }

      .cls-25 {
        fill: #36c9ff;
      }

      .cls-26 {
        fill: #f59dfd;
      }

      .cls-27 {
        fill: #f56676;
      }

      .cls-28 {
        fill: #784286;
      }

      .cls-29 {
        fill: #794487;
      }

      .cls-30 {
        fill: #ff497b;
      }

      .cls-31 {
        fill: #784386;
      }

      .cls-32 {
        fill: #36c8ff;
      }

      .cls-33 {
        fill: #f7994d;
      }

      .cls-34 {
        fill: #6fc0ff;
      }

      .cls-35 {
        fill: #9755a2;
      }

      .cls-36 {
        fill: #f96395;
      }

      .cls-37 {
        fill: #f79c52;
      }

      .cls-38 {
        fill: #4cddff;
      }

      .cls-39 {
        fill: #fd335f;
      }

      .cls-40 {
        fill: #70c0ff;
      }

      .cls-41 {
        fill: #f86295;
      }

      .cls-42 {
        fill: #f11e7c;
      }

      .cls-43 {
        fill: #f67b18;
      }

      .cls-44 {
        fill: #72e6ff;
      }

      .cls-45 {
        fill: #56caff;
      }

      .cls-46 {
        fill: #61d7ff;
      }

      .cls-47 {
        fill: #3faafd;
      }

      .cls-48 {
        fill: #9654a1;
      }

      .cls-49 {
        fill: #57caff;
      }

      .cls-50 {
        fill: #fff;
      }

      .cls-51 {
        fill: #f86396;
      }

      .cls-52 {
        fill: #ff477a;
      }

      .cls-53 {
        fill: #9655a1;
      }

      .cls-54 {
        fill: #fd325e;
      }

      .cls-55 {
        fill: #f67d1a;
      }

      .cls-56 {
        fill: #fd325f;
      }

      .cls-57 {
        fill: #f56777;
      }

      .cls-58 {
        fill: #784285;
      }

      .cls-59 {
        fill: #75478b;
      }

      .cls-60 {
        fill: #f57b17;
      }

      .cls-61 {
        fill: #f7c14e;
      }

      .cls-62 {
        fill: #ff487a;
      }

      .cls-63 {
        fill: #fefefe;
      }

      .cls-64 {
        fill: #75478c;
      }

      .cls-65 {
        fill: #4bddff;
      }

      .cls-66 {
        fill: #75488c;
      }
    </style>
  </defs>
  <path class="cls-63" d="M1272.4,100.9c0-9.1.1-18.2,4.4-26.6,8.5-16.5,21.6-25.9,40.5-27.3,19.2-1.4,33.6,7.7,46.1,20.6,3.6,3.7,6.6,4.6,11.5,3.5,26.7-6.1,51.9,9.7,57.3,36.1,1.9,9.3.9,19.1,1,28.7,0,4,.6,7.5,2.6,11.2,3.1,5.9,5,12.5,7.7,18.7.7,1.6,1.9,3.4,3.3,4.2,19.5,11.5,31.1,28.6,35.5,50.5,1.3,6.3,1.3,12.8,2.2,19.1.2,1.5,1.3,3.3,2.4,4.3,4,3.6,8.2,7,12.5,10.4,1.1.8,2.4,1.7,3.7,1.8,13.5.5,26.9.8,40.4,1,2.1,0,4.4-1.1,6.1-2.4,7.9-6,16.3-10.8,26.5-11.7,2.1-.2,4.3-1.5,6-2.9,8.8-7,19.2-10.9,30-10.7,18.3.4,33.5,8,43.6,24,7.8,12.3,10.8,26.5,15.3,40.1,6.1,18.3,11.2,36.9,16.7,55.4.6,2.2,1.5,4.5,1.3,6.7-.7,9,2.8,16.5,5.9,24.7,5,13.3,8.1,27.3,11.3,41.2,3.9,16.8,7.2,33.7,10.4,50.6,2.5,12.8,4.5,25.7,6.6,38.6,2,12.4,4.2,24.8,5.8,37.3,1.7,12.4,2.8,24.8,4.2,37.3,1,8.6,1.9,17.2,2.7,26.6-.2,1.1-.3,1.4-.4,1.8-.8,20.6-9.7,36.6-27.5,47.5-1,.6-1.8,2.7-1.7,4.1.6,17,1.3,33.9,2,50.9,0,18.2-.2,36.3-.5,55.2-.8,16.9-.6,33.1-1.9,49.2-2.8,34.6-5.8,69.3-9.9,103.8-2.6,22.1-14.9,37.8-36.3,45.3-14,4.9-27.5,2.5-40.6-4.7-18.6-13.4-26.1-31.2-23.1-53.5,1.3-9.4,2.2-18.7,3.4-28.8-2.2.8-3.7,1.4-5.2,2-12.9,5.3-25.6,11.2-38.8,15.5-8,2.6-12.6,6.8-16.1,14.5-5.6,12.3-12.6,24-19.2,36.4,7.9,3.9,15.5,7.6,23,11.3,6.2,3.5,12.4,6.9,18.5,10.6,9.5,5.8,15.1,14.5,17.5,26.1,1.8,25.7-8,40.4-31.8,47.6-35.4,10.8-71,21.1-106.5,31.9-25.4,7.7-46.9-3.6-54.6-28.9-3.2-10.3-6.4-20.6-9.6-31.3-3.5-12.3-7-24.1-10.6-36.1-.9.4-1.3.4-1.5.6-11.9,12.3-26.1,17.3-42.7,12-16.4-5.2-25.9-16.8-28.8-33.8-.2-1-.7-2.4-1.5-2.9-8.2-4.8-13.9-11.7-18.1-20.5-2.3.8-4.3,1.6-6.7,2.3-4.9.3-9.4,1-13.8,1-64.1,0-128.2,0-192.4,0-2,0-4,.1-6.5.1-12.5-.1-24.5,0-36.4-.2-16.7-.1-29-7.7-36.5-22.5-1.4-2.7-3.1-3.3-5.8-3.5-6.5-.4-13-.7-19.3-1.7-12-1.9-23.8-4.3-36-6.7-1.6-.6-2.9-.7-4.1-1.2-4.5-2-7.6-1.2-11,2.9-7.6,9-18.1,13.3-29.7,14.7-18.3,2.2-36.6,4.3-54.9,6.8-14.3,1.9-28.2,1.3-39.8-8.2-6.3-5.1-11.2-12-17.1-18.4-1.2.7-3.6,1.9-5.8,3.2-.7.4-1.2,1.1-1.7,1.7-15.8,18.1-35.5,23.5-58.9,18-9.9-3.3-18.3-8.5-24.5-16.4-3.6-4.5-6.2-4.3-11-1.9-23.8,12-52,6.4-69.7-13.4-7.8-8.8-11.4-19.3-13.2-31.1-1.1-12.4,1.1-24,4.8-35.3.8-2.5.7-4.1-1.1-6.1-11.8-13.6-17.8-29.6-17.8-47.5,0-8.9,1.5-17.8,2.3-27-8.4-1.4-17.1-3-25.8-4.2-1.6-.2-3.7,1-5,2.2-5.8,5.5-12.3,10.4-20.2,11.1-11.7,1.1-23.7,2-35.2.6-17.7-2.1-28.6-13.7-34.3-30.6-1.8-9.1-6.9-11.2-14.7-6.9-7.7,4.3-16,6.7-24.9,6.2-11.4-.6-20.9-6.1-30.4-11.8-20.2-12.2-27.3-34.8-17.3-56.2,1.7-3.6.7-5.8-.6-9.2-3.2-8.2-8.6-11.3-17.3-10.4-20.9-3.6-36.4-19.3-39.7-40-4.2-26.6-8.2-53.2-12.4-79.8-1.1-7-2.3-14-3.5-21.3-2.5.8-4.3,1.5-6.2,2.1-14.5,4.4-28.2,2.3-39.1-8-6-5.7-12-8.6-20.2-9-15.3-5-25.1-14.8-29.2-30.2-.6-2.4-1-4.8-1.5-7.2-.7-13.7,4.3-24.8,14.4-34,1.6-1.5,3.2-3.9,3.4-6,.8-15.6,8.2-26.9,21.4-34.7,1.2-.7,2.6-1.4,4.6-2.1,11.5-3.3,22.2-3.2,32.5,1,2-5.7,1.1-9.7-2.9-13.8-5.7-5.8-8.6-13.4-9.4-21.6-.3-2.8-1.3-4.3-3.7-5.7-9.7-5.6-16.7-13.6-19.8-24.6-2.2-7.8-4.3-15.6-6.4-23.5-2-21.7,12.4-38.5,30.6-44.5,20.1-6.6,39.6-15,59.6-22,15.8-5.5,30.8-3.5,44.1,7.3,18.5-6.6,34.7-1.7,49.6,10,.8.6,1.7,1.1,2.3,1.9,8.4,9.9,18.8,16.2,31.7,18.6,3.5.7,6.5,3.6,10.2,5.8,14.5-10.3,30.3-7.9,46.3-2.7,8.7,2.8,17.6,5.1,26.3,7.8,3.9,1.2,8.5,2.1,11.3,4.6,9,8,19.9,6.4,29.4,4.6,10.1-1.9,19.9-2.1,29.9-2.4.6,0,1.3,0,1.9-.1.5-5,.6-10,1.6-14.7,3.2-14.9,12.5-24.8,26.7-29.4,7.4-2.3,12.1-8,18.4-11.7,10-5.8,20-12.9,31.9-11.8,10.9,1,21.5-1.4,32.1-.2,10.3,1.1,20.9.6,30.5,5.8,12.8,6.8,21.6,17.1,26.8,30.4,1.6,4.2,3.2,4.8,6.7,2.7,8.4-5,17.9-4.7,27.2-5.9,14.7-1.9,29.4-3.6,44-5.7,14.3-2.1,28.3-3,40.8,6.1,1.2.9,2.4,1.8,3.4,2.9,2.8,2.9,6,4,10.2,3.9,7.4,0,14.9.7,22.4,1.1,8.2-23.8,26.6-36.5,48.4-45.4,6.1-2.5,12.5-4.3,18.3-7.2,2.6-1.3,4.1-4.8,6-7.3,10.3-13.7,23.6-22.3,41-24.5,24.2-3,44.1,5.6,59.4,23.3,9.9,11.4,17.5,24.7,25.5,37.6,5,8,8.7,16.8,13.3,25.1.9,1.6,3.5,3,5.3,3.1,17.1.6,34.2.8,51.4,1.2,14.1.3,28.3.6,42.4,1,8.6.3,17.2.8,26.6,1.3-3.8-24.8,4.4-44.3,24.2-59.5,4.4-2.6,8.2-5,11.9-7.4-10.4-16.8-13.2-34.5-9.7-55.3.1-.9,0-2-.3-2.8-3.6-7.9-7.3-15.7-11-23.6,0,0,0,0,0-.3,0-.4,0-.6,0-.8M1221,397.4c-5.6,7.6-9,16-8.6,26.6.3,3,.3,6,1,8.9,4.5,19.8,23.8,35.4,47.4,32.3,19.5-2.6,35.7-19.8,36.3-39.7-.4-4.1-.9-8.3-1.4-13.2-2.5-9.9-8.2-17.6-16.2-23.8-17.3-13.2-45.2-9.1-58.4,8.9M869.4,613.9c4.1,0,8.3,0,12.4,0,6.5.2,11.4-2.7,13.8-8.6,4.2-10.4,7.8-21,11.8-32.2-1.5-6.1-4.8-7.8-11.8-7.6-18.3.6-35-3.2-46.9-18.8-9.8-12.8-10.4-32.8-1.1-45.1,8.4-11.1,25.9-11.8,33.7-1.3,3.1,4.2,2.3,7-2.6,8.6-4.1,1.3-8.3,2.1-12.5,3.3-5.6,1.6-6.6,3.5-4.9,9.2,2.3,7.8,4.7,15.5,7.1,23.3,2.4,7.7,4.9,9.1,12.8,8.1,5.3-.7,10.6-.8,15.8-1.9,11.1-2.4,22.5-4.5,33.2-8.1,11-3.8,17.7-12.1,18.4-24.3,1-16.5-2.7-32-11.4-46.1-3.1-5-7.6-9.1-11.8-14.2-6.9-4.1-13.5-9.3-20.9-12.2-17.3-6.7-35.5-6.5-53.5-3-22.4,4.2-41.8,13.8-55.9,33.5-24.1,30.4-19.9,82.3,9.4,110.1,1.6,1.4,3.3,2.9,5.2,5,2.6,2,5.1,4.2,7.9,6,15.4,10.1,32.5,15.2,51.8,16.3M416.4,570.2c-2.4-15.1-4.8-30.1-7.1-46-3.3-20.7-6.5-41.4-9.9-62.1-2-12.4-4.1-24.7-6-37.9-3.3-20.8-6.5-41.6-9.9-62.4-1.3-7.9-4.2-9.7-12-8.3-5.4,1-10.8,1.7-16.2,2.6-13.9,2.3-27.9,4.5-41.8,6.8-4.6.8-7.5,3.3-6.9,8.1.9,7.4,2.4,14.7,3.7,22.9.1,1.3.2,2.7.4,4,5,31.8,9.9,63.6,15,95.4,2.2,13.6,4.5,27.1,6.7,41.5.3,1.8.6,3.6,1,6.2,2.6,16.9,5.2,33.8,7.9,50.7.9,5.7,4.2,7.8,9.5,7,19-2.9,38.1-5.9,57.1-8.9,9.1-1.4,10.7-3.4,9.6-12.5-.3-2.1-.8-4.2-1-7.2M1161.7,539.9c-.1-10-.3-19.9-.3-30.8-.7-26.4-1.3-52.7-1.9-80-.7-19.4-1.4-38.7-1.9-59,0-5.8,0-11.6,0-17.4-.1-5.3-2.4-7.7-7.7-7.6-17.4.3-34.8.8-53.1,1.1-7.1.3-9.3,2.4-9.2,9.3.2,11.9.7,23.9,1,35.8.4,15.9.8,31.9,1,48.7.4,14,.8,28.1,1,43,.7,22.3,1.4,44.7,2,67.9.3,11.6.6,23.3.9,34.9.2,6.5,1.9,8.2,8.5,8.1,17.5-.3,34.9-.7,52.4-1.1.3,0,.7,0,1,0,5.9-.6,8.2-3.2,8-9.2-.3-12.5-.6-25-1-37.4,0-1.8-.5-3.6-.7-6.2M1428.6,274.3c17.2-13.8,20.7-44.1,7.1-61.5-7.2-9.2-19-12.3-29-7.7-4.4,2-6.3,5.9-5,10.2,1.2,3.9,5.1,6,9.6,5.1,8.7-1.7,12.6.4,15.3,8.9,3.7,11.5,1.7,22-6.2,31.2-2.6,3-3.9,6.2-2,10,1.8,3.6,4.9,4.7,8.8,4.2.5,0,1,0,1.8.9-2.7,3.6-4.5,8-1,11.3,2.8,2.5,7.4,3,10.5,4.2-17.1,8.7-120.2,30.9-135,24.8,5.5-3.4,10.9-6.4,16-9.8,4-2.7,5-6.7,2.8-10.4-2.2-3.8-5.8-5.5-9.8-3.5-10,5-19.8,10.5-27,19.3-6.2,7.6-3.8,16.5,5.6,19.4,5.9,1.8,12.4,2.3,18.6,2.2,28.3-.5,55.9-5.9,83.2-12.7,22-5.5,43.6-12.7,65.3-19.7,3.9-1.2,7.5-4.4,10.4-7.5,4.6-5,3.3-11.3-2.6-14.7-2.1-1.2-4.6-2.3-7-2.4-10.2-.6-20.4-.7-30.4-1.7M726.1,555.6c6.9-12.1,13.7-24.2,20.6-36.3,2-3.5,1.3-6.2-2.3-8.3-7.1-4.1-10.9-10.3-12.2-18.3-.4-2.9-1-5.8-1.4-9.6.4-8.7.9-17.4,1.3-26.4,6.5,1.1,11.7,2,16.9,2.9,5.3,1,8.4-1,9.4-6.2,2.7-13.8,5.4-27.6,8-41.5,1.6-8.4-.2-10.7-8.6-12-5-.8-10-1.8-15.1-2.7,2.1-11.8,4.1-23,6.1-34.3,1.3-7.1-.4-9.8-7.6-11-16.9-2.9-33.8-5.6-50.6-8.5-7.8-1.3-10.6.6-12.1,8.5-2,11.1-4,22.2-6.1,33.5-5.8-1-11.2-1.9-16.6-3-4.6-.9-7.6.7-8.5,5.3-3,14.8-6.1,29.6-8.7,44.4-1.2,6.5.9,8.6,7.5,9.7,6.1,1,12.2,2.2,18.3,3.3-.6,7.5-1.5,14.3-1.6,21.1-.1,8.9.4,17.9.6,27.7.4,3.6.6,7.3,1.2,10.8,2.5,13.2,6.8,25.6,17.1,35.8,9.7,9.6,21.7,15,34.4,19,3.8,1.2,7.2,0,9.9-4M1278.5,526.1c1.5-13.5,2.9-27,4.7-40.5,1-7.6,0-9.9-7.4-10.8-16.9-2.1-33.9-4-50.8-5.9-8.8-1-10.7.8-11.4,9.6-.6,7.6-1.7,15.1-2.5,22.7-1.2,11.2-2.3,22.4-3.8,34.4-1.4,12-3,24.1-4.3,36.1-1.5,13.5-3,27.1-4.4,40.6-.5,4.5,1.3,7.2,6.2,7.8,18.5,2.1,36.9,4.5,55.4,6.6,4,.5,6.7-1.8,7.4-5.8.6-3.9.9-7.9,1.3-11.9,2-17.7,3.9-35.3,6.4-53.6,1-9.5,2.1-18.9,3.3-29.3M438.6,522c-.7,15.4-1.5,30.8-2,46.3-.2,5.4,2.1,7.5,7.4,7.8,17.7.9,35.5,1.9,53.2,2.9,6.2.4,9.2-2.4,9.4-8.8.1-4,0-8,.3-12,.8-15.4,1.7-30.8,2.7-47.1.6-13,1.3-26.1,2-39.9,1.5-.6,3.1-2,4.5-1.8,10.2,1.3,18.4,6.2,24.6,15.4,2,7.4,4.1,14.8,6,23.2.3,6.6.7,13.3.9,19.9.8,29.1,21.7,52.4,47.7,60.4,2.7.8,6.7.6,8.9-.9,10.6-7.1,20.9-14.7,31-22.5,4.5-3.5,4.5-6.5.4-10.4-11.6-11.1-17.5-24.4-17.1-41.4-.1-4.1-.2-8.1-.2-13-.3-3.5-.3-7-.9-10.4-4.7-29.9-20.8-51.7-47.6-65.4-21.4-10.9-44.3-14.2-68.2-11.5-8.1.9-16.1,1.9-24.2,2.1-8.6.2-17.3-.6-25.9-1-4.2-.2-6.8,1.6-7.1,5.9-.7,8.4-1.1,16.8-1.8,26.2,0,3.7,0,7.3-.2,11-1.2,21.4-2.4,42.7-3.8,65M1517.7,845.7c1.8,3.6,3.8,7,5.3,10.7,3.6,9,9.3,10,17.6,6.6,16.4-6.7,32.9-13.4,49.3-20.1,6.6-2.7,8.3-6.6,4.9-12.9-7.2-13.4-14.8-26.7-22.3-40.8-8.9-16.4-17.9-32.9-27-50-10-18.1-19.9-36.2-30.1-54.9-1-1.9-2-3.8-3-5.7-8.2-14.8-16.5-29.5-24.8-44.9-2.7-6.6-8.7-7.5-14.5-7.4-13,.2-25.9,1.1-38.8,1.7-5.2.2-10,1.5-13.4,5.6-4.8,5.7-9.4,11.7-13.5,17.9-12.9,19.7-22.3,41.1-30.8,63-6.1,15.7-11.3,31.8-17.1,48.4-1.2,3.4-2.5,6.8-3.5,10.3-6.7,24.6-13.5,49.2-20.1,73.9-1.7,6.3-.1,9.3,5.9,12.7,15,3.5,30,7,44.9,10.6,8.6,2,11.1.7,13.8-7.4,2.4-7.1,4.6-14.2,7.2-21.2.5-1.5,2.4-3.5,3.7-3.5,12.1,0,24.2.4,36.3.5,5.3,0,10.5-.4,16.5-.7,3.7-1.1,5.1-3.8,5.2-7.5,0-3.1,0-6.2.5-10.1,0-1.2.2-2.3.3-3.5.1-11.1,0-22.2.5-33.3.4-8.5-2-11.6-10.5-11.7-8,0-16,0-23.9-.1-1.7,0-3.4-.7-4.7-1.6,5.9-16,11.7-32,17.6-47.9.6-1.7,1.9-3.1,3.3-5.5,3.9,7.5,7.3,13.8,10.8,20.9,4.3,8.7,8.6,17.5,13,26.2,4.8,9.4,9.9,18.7,14.9,28.8,8.7,17.4,17.4,34.8,26.3,52.9M925.7,627.8c-6.9.2-9.2,2.8-9.2,11.1-.7,13.6-1.3,27.1-2.1,40.7-.5,8.1-1.4,16.2-1.8,24.3-.4,7.4-.6,14.9-1,23.2-.4,9.4-.9,18.9-1.3,28.3-.9,17.9-1.8,35.8-3.1,54.4-.5,13.5-1.4,27-1.4,40.5,0,5.6,3.6,10.1,8.9,12.2,5.8,2.3,11.9,3.7,18.6,5.9,6.8,1.5,13.6,3.1,20.4,4.3,16.8,3,33.7,3.6,51.5,2.2,8.9-1.3,17.9-1.9,26.6-3.9,32.6-7.6,60.3-23,79.9-51.1,11.5-16.6,17.3-35.3,19.8-55.1.7-5.5,0-11.2.2-17.7-.4-6.1-.5-12.2-1.1-18.3-1.6-15.7-5-30.9-13.3-45.3-.8-1.3-1.6-2.5-2.4-3.8-10.5-15.6-23.8-27.9-41.5-36.3-3.6-1.7-7.1-3.6-10.8-5-16.7-6.6-33.9-10.7-52.9-11.3-8.6.3-17.2.4-25.8,1-5.6.3-11.1,1.9-16.7,1.8-13.6-.3-27.1-1.2-41.5-2M833.7,647c-5.7.7-11.5,1.3-17.2,2-11.5,1.4-23,2.7-34.5,4.1-5.7.7-7.9,3.3-7.5,9.1.5,7.1,1.3,14.2,2.2,21.2.8,6.2,1.8,12.4,2.7,19.4.1,2,.2,4,.4,6,2.3,18.7,4.6,37.5,6.8,57,2,15.9,3.9,31.8,5.9,47.8,1.2,9.2,2.6,18.3,3.7,28.3.4,4.3.8,8.6,1.3,12.9,1.1,9.4,2.1,18.8,3.3,28.1.7,5.5,3.6,8.3,8.4,7.8,7.1-.7,14.1-1.9,22-2.8,13.3-1.6,26.6-3.1,39.9-4.9,5-.7,7.4-3.8,6.8-8.6-1.2-10.2-2.6-20.4-3.8-31.3-.1-.8-.2-1.5-.2-2.8-.2-.5-.4-1-.5-2.4-2.4-20.7-4.9-41.4-7.2-62.9-2-15.8-3.9-31.5-5.9-47.3-1.2-9.7-2.5-19.3-3.8-29.8-1.7-15-3.5-30-5.3-45-.6-4.7-3.3-7.1-8-7-3,0-5.9.7-9.7,1M1447.7,910.1c-18.7,5.5-37.3,11.1-56.2,16.7,5.9,19.4,11.6,38.1,17.3,57.5,2.6,8.7,5.1,17.4,7.8,26,3.2,10.2,6.5,20.3,10.5,30.5,37.4-11.2,74.7-22.3,113.2-33.8-25.5-13.8-49.7-26.9-73.8-40.8,13-24.2,26.1-48.5,39.7-73.8-20,6.1-38.9,11.9-58.5,17.6M1300.6,820c-20.9,1.3-41.9,2.7-63.1,4-.7-7.5-1.3-14.4-1.9-22,0-1.3,0-2.6.8-4.1,15.3-.3,30.7-.6,46-.9,4.9-.1,8-2.8,8-7.6,0-12.8,0-25.7,0-39.3.2-9.9-1.9-12-11.8-11.7-9.5.3-19,.4-28.4.5-5.9,0-11.8,0-18,0-.3-3-.6-5.4-.7-8.8-.3-5.1-.7-10.2-1-15.5,6.6-.6,12.8-1.2,20-1.6,15.4-.9,30.9-1.8,46.3-2.9,5.1-.4,7.5-3.3,7.2-8.3-.7-13.6-1.7-27.2-2.4-41.7,0-13-1.7-14.7-14.6-14.1-.5,0-1,0-1.5,0-19.6,1.3-39.3,2.7-59.8,3.9-20.5,1.3-41.1,2.6-61.6,4-4.9.3-7.6,3.7-7.3,8.8.2,3.8.5,7.6.8,11.4,1,14.2,2,28.5,3,43.6,1.1,19.3,2.1,38.5,3.3,57.8.4,6.4,1.2,12.9,1.7,20.2,1.4,24,2.9,48.1,4.2,73,.3,5.1.6,10.3,1,15.4.5,6.1,4.3,9.1,10.4,8.4,3.1-.4,6.3-.5,9.4-.7,14.7-1,29.4-2.1,45-3,4.1-.3,8.3-.7,12.4-.9,20.4-1.3,40.8-2.6,61.2-4,5.7-.4,8.3-3.3,8.2-9.1,0-5.2-.5-10.3-.8-15.4-.6-11-1.2-21.9-1.9-32.9-.3-4.4-2.8-6.6-7.1-6.7-2,0-4,.2-6.9.1M1037.5,444.1c-.3-14.1-.6-28.3-1-42.4-.4-15.5-.7-31-1.1-46.4-.2-7.3-2.5-9.4-9.9-9.2-11.5.3-23,.6-34.4,1-6,.2-12,.1-18,.6-6.6.6-7.7,2-7.6,8.5.6,26,1.4,51.9,2,78.8.3,7.8.6,15.5.7,24.2.5,24,.9,47.9,1.5,71.9.3,11.3.7,22.6.9,34.8.3,7.6.6,15.3.8,22.9.2,4.5,3,6.2,6.9,6.1,18.3-.3,36.6-.7,54.9-1.3,6-.2,8.1-3,7.9-9.1-.3-7.5-.4-15-.7-22.4-.2-5.5-.6-10.9-.8-17.3-.8-28-1.5-55.9-2.2-84.8,0-5-.2-10-.1-16M717,823.9s0,0-.8-.1c-1,.2-1.9.5-2.9.7-17.2,4.7-33.4,2.4-48.1-7.9-12.4-8.7-14.6-23.6-5.4-33.2,4.9-5.1,11-8.3,17.9-9.3,6.9-1,13.8-1.2,20.6-1.7-2.3-12.8-4.6-25.8-6.9-39.1-1.2,1.4-2.7,2.9-4,4.5-12.4,16.3-24.9,32.6-37,49-6.1,8.3-5.9,8.4-15.7,5-.3-.1-.6-.2-.9-.3-11-4.4-16.3-15.8-12.2-25.8,5.7,1.2,11.3,2.8,16.9,3.3,5,.5,8.8-3.9,7.9-8.6-.4-2.3-2.2-4.3-3.5-6.7.6-1.8,1.6-3.9,2.1-6.1,1.8-7-.6-13.9-5.8-17.3-5.2-3.4-12-3.2-17.7,1.3-3.2,2.5-6.8,5.5-8.2,9.1-3.3,8.2-6.3,16.8-7.9,25.5-3.6,18.8,5.9,34.2,24,40.7,2.1.8,4.3,1.4,6.7,2.2-.8,1.6-1.3,2.6-1.8,3.6-6.7,12.7-13.5,25.3-15.3,39.8-.9,6.8-.3,13.5,6.1,17.9,6.6,4.6,13.6,4.9,20.7.8,4-2.3,8-4.8,12.2-6.9,12.2-6.1,24.3-4,33.7,5.9,3.9,4.1,7.3,8.7,11,12.9,4.3,4.8,9.6,6.1,15.9,4.1,6.1-2,8.6-6.4,9.2-12.3.1-1.6.3-3.3.5-5.2,6.1.9,13.5,4.2,15.9-4.1,2.7-9.1-4.7-13.1-11.3-16.9,7.8-16.9,6.8-26.3-3.3-33.8-4.2,3-8.3,6-12.4,9M1372.4,452.7c.5,8,1,15.9,1.4,23.9.6,12.6,1.3,25.2,1.4,37.8,0,8-2.4,15.3-8.4,21.1-7.5,7.4-16.7,11.1-27,12.5-6,.8-12.8,1-14.1,8.5-2,11.1-3,22.3-4.1,33.5-.4,4.2,2,7.7,6.1,8.6,6.1,1.2,12.4,1.6,19.2,3,9.4-.5,18.8-.2,28-1.7,23.3-3.8,43.5-13.7,58.1-33,10.5-13.9,15.7-29.7,16.4-47.9,1.6-31.1-.7-61.9-4-93.7-1.1-11.2-2.1-22.4-3.2-33.6-1.2-11.8-2.8-23.6-3.6-35.5-.7-10.9-4.3-14.5-15-13.2-18.5,2.3-37,4.6-55.5,7-5,.6-8,3.9-7.4,8.9,1.2,10.3,2.9,20.6,4.2,30.9,1.6,12.9,3.1,25.9,4.6,38.9.9,7.7,1.8,15.4,2.8,24M1657.8,569.1c-.8-6.3-1.5-12.6-2.4-18.8-1.9-12.7-3.7-25.4-6.1-37.9-1.2-6.2-6-9.4-11-8.7-5.1.7-9.1,5.4-8.9,11.5,0,4.3.7,8.6,1.4,12.9,10.9,67.5,16.3,135.5,16.5,203.9.1,27.3-.7,54.6-2,81.9-1.1,22.8-3.4,45.5-5.5,68.2-1.1,11.8-2.7,23.5-4,35.2-.9,7.8,2.5,13.7,8.1,14.6,5.4.8,11-4,12.6-11.2.7-3.1,1-6.2,1.3-9.4,3.3-39.1,7.6-78.2,9.4-117.4,1.6-34.1,1.7-68.3.1-102.4-1.8-40.5-6-81-9.4-122.3M1092.4,255.6c-9.9-15.8-19-32.1-29.9-47.2-11-15.1-31.7-14.1-39.4,1-1.8,3.6-2.2,7.9-3.4,12.4-5.9,1.9-12.6,3.7-19.2,6.1-12.3,4.5-25.1,8.1-35.3,17-8,6.9-9.9,14.6-5.6,24.1,4.3,9.4,8.7,18.7,13.9,27.6,4.2,7.3,9.2,14.3,14.8,20.6,5.9,6.5,12.8,5.4,18.2-1.5,2.7-3.4,5.5-6.7,8.8-9.5,11.7-10,25.4-16.3,40.1-20.6,3.6-1.1,5.8-1,8.5,2.1,5.7,6.5,14.7,8.1,22.4,4.8,8.7-3.8,14.4-11.6,12.9-20.4-.9-5.5-4.3-10.6-6.9-16.6M1546.7,694.8c3.6,5.5,7.3,7.3,11.9,6,4.5-1.3,7.7-6,7.9-11.6,0-2.3,0-4.7,0-7-2.6-31.3-4.6-62.7-7.9-94-6.2-58-17.6-115-32.3-171.4-2.1-7.9-4.2-15.7-6.6-23.5-2.1-6.8-7.1-9.9-12.6-8.5-5.6,1.4-8.5,6.4-7.6,13.3.2,1.6.7,3.2,1.2,4.8,24.7,88.3,39.5,178.2,44.1,269.8.4,7.1,1.1,14.2,2,22.1M1623,573c-.8-5.8-1.4-11.6-2.5-17.3-1.2-6.4-5.7-10.1-10.8-9.7-5.4.4-9.4,5.6-9.5,12.1,0,2.7.2,5.3.5,8,2.5,23.5,6.1,46.9,7.4,70.5,2.1,38.9,3.1,77.9,4,116.8.3,14.6-.9,29.3-1.3,43.9,0,2.8-.2,5.7.2,8.5.7,4.6,3,8.2,7.9,9.2,4.5.9,8.9-1.7,11.2-6.5.9-1.9,1.4-4.1,1.5-6.2.6-13.5,1.4-27,1.6-40.4,1-62.9-2.5-125.5-10.2-188.8M1671.9,588.1c.2,1.8.4,3.6.7,5.4,1,8.4,1.8,16.9,3,25.2.7,4.5,4,7.4,8.5,8,4.7.6,8.3-2.2,9.7-6.3,1.3-3.8,1.9-8.1,1.5-12.1-1.7-17.9-3.6-35.7-6-53.5-6.1-46-14.4-91.6-25.1-136.8-1.7-7.3-3.6-14.5-5.9-21.6-1.5-4.5-5.3-6.8-10.2-6.4-4.2.3-8,4.4-8.5,9.2-.3,2.8-.2,5.7.4,8.4,5.6,26.5,12.3,52.8,16.9,79.4,5.8,33.2,10,66.7,15,101M1583.6,378.3c-1-3-1.8-6.1-3.1-8.9-1.9-4-5.4-5.8-9.8-5.5-4.3.3-7.4,3-8.2,6.9-.7,3.7-.6,8,.5,11.6,11,39.4,20.4,79.2,27.6,119.4,1.3,7.2,2.5,14.4,4.4,21.5,1.2,4.6,4.9,7.2,9.7,7.1,4.7,0,7.9-3,9-7.4.8-3.1.9-6.6.4-9.8-7.8-45.2-17.7-90-30.5-134.9M1571,463c-1.2-4.8-2.1-9.8-3.7-14.4-1.6-4.5-5.3-6.8-10.1-6.5-4.7.3-7.8,3.3-8.6,7.7-.6,3.3-.3,6.9.3,10.2,6.6,38,13.3,75.9,19.9,113.8,1.4,8.3,2.1,16.8,3.6,25.1.8,4.7,4.1,7.6,9,8,5,.5,8.3-2.3,10-6.7.9-2.4,1.4-5.2,1.1-7.8-1.2-11.2-2.3-22.5-4.2-33.6-5.4-31.8-11.2-63.5-17.1-96M1598.6,716.5c-.8-20.6-1.4-41.2-2.3-61.9-.4-8.3-1.1-16.6-1.9-24.9-.7-7-5.5-11.8-10.9-11.4-5.5.4-10,5.8-10,12.4,0,4.1.7,8.3.8,12.4,1.1,32.4,2.2,64.9,3.4,97.3,0,2.6.2,5.4.9,7.9,2.1,7.5,10.7,10.1,16,4.4,2.3-2.5,3.8-6.7,4-10.2.5-8.3.1-16.6,0-26M815.4,306.4c-2.8,8.5-5.4,17.1-8.4,25.6-1.2,3.3-.3,4.9,2.9,5.9,4.6,1.3,9.2,2.8,13.8,4.4,2.5.9,4,.7,4.9-2.1,3.9-12.3,8-24.6,11.8-37,.3-1.1-1-3.5-2.2-4.2-2.5-1.4-5.4-2.1-8.9-3.3,11.5-1.6,21.9-3.1,32.4-4.4,3.6-.4,4.5-2.1,3.8-5.4-1.1-5-2.2-10.1-3.3-15.1-.7-3.3-2.8-3.9-6-3.5-20.8,2.7-41.5,5.3-62.3,7.8-3.2.4-5,1.3-4.5,4.9.4,3.5.8,7,.8,10.4,0,3.5,1.4,4.6,4.8,4.7,7.7.2,15.4.7,23.5,1.1-1.1,3.4-2.1,6.4-3.2,10.2M479.3,677.2c1.8-.4,3.7-.9,6-1.5,0,2.4,0,4.1,0,5.7,0,10.5.1,21,0,31.5,0,3.8.8,5.5,5,5.2,4.3-.3,8.7-.3,13,0,4,.3,5.3-1.2,5.2-5.1-.2-10,0-20-.1-30q0-10.7-10.8-10.9c-.6,0-1.2,0-2.7-.2,1.5-.8,2.1-1.2,2.8-1.5,8.9-4.1,17.8-8.3,26.7-12.3,3.6-1.6,4.1-3.8,2-7.1-2.2-3.3-4.1-6.9-6.2-10.3-3.5-5.9-3.7-5.9-9.7-3-15.5,7.4-30.8,14.9-46.4,22-14,6.4-14.2,6.2-7.3,20.1.6,1.2,3.1,2.5,4.4,2.3,5.8-1.2,11.6-3.1,18.1-4.9M292.3,265.3c-5.8,2.1-11.5,4.2-17.4,6.1-11.5,3.9-11.6,3.8-8,15.7,2,6.6,2,6.7,9,5.3,6.8-1.3,13.5-2.7,20.6-4.2-.2,2.7-.3,4.8-.5,6.9-.9,10.3-1.6,20.6-2.6,30.8-.4,3.7.9,5.1,4.6,5.1,4.3,0,8.7.4,12.9,1,4.4.7,5.4-1.3,5.6-5.2.5-9.5,1.3-18.9,2.2-28.3,1.1-12,1.1-12-10.6-12.8-.2,0-.4-.3-1.1-.7,2.3-.8,4.2-1.4,6-2.1,8.1-3,16.2-6.1,24.3-9,3.5-1.2,4.3-3.1,2.5-6.4-2.2-4.1-4.3-8.2-6.1-12.6-1.6-4.1-3.9-4.5-7.8-2.9-10.9,4.5-22,8.6-33.7,13.1M1625.2,396.9c-1.9-7.1-3.7-14.1-5.7-21.2-1.7-5.9-3.4-11.8-5.6-17.5-1.6-4.1-5.2-6.2-9.5-6-4.7.2-8,3.2-8.7,7.6-.6,3.6-.3,7.6.6,11.2,6.7,27.3,13.6,54.5,20.3,81.7,2,7.9,3.5,15.9,5.6,23.7,1.3,4.7,5,7,9.8,7.1,4.2,0,8.4-3.6,9.2-8.5.5-3,.4-6.3-.3-9.4-5.1-22.7-10.3-45.3-15.7-68.8M1502.2,569.6c1.8,7.2,6.4,11.2,11.9,10.3,5.6-.9,9.1-6.1,8.7-13.2,0-1.8-.2-3.7-.5-5.5-3.2-19.2-6.3-38.4-9.8-57.5-2.1-11.6-4.6-23.1-7.2-34.7-1.8-8.3-8.4-12.3-14.9-9.5-5.1,2.3-6.9,7.6-5.5,15,5.8,31.4,11.4,62.8,17.3,95M1361.7,165.3c-4.6-2.4-9.2-4.7-13.7-7.1-8.9-4.6-11.2-9.2-9.1-19.1,1.1-5.2,2.6-10.3,3.9-15.5,4.3-17.4-6-28.9-19.3-35.9-3.6-1.9-7-.5-9.2,2.6-2.5,3.4-2.2,7,.7,10,1.9,1.9,4.2,3.3,6.3,4.8,5.8,4.2,7.7,9.6,5.5,16.6-1.6,4.9-2.7,9.9-3.8,15-3,14.7,1.4,25.3,14,33.3,5.2,3.3,10.7,6,16.1,8.9,4,2.2,5.5,5.3,3.6,9.5-1.6,3.8-3.5,7.5-5.3,11.3-2.4,5-1.6,9.5,2.4,11.8,4,2.3,8.7,1,11.4-3.8,2.4-4.3,4.8-8.8,6.4-13.5,4.3-12.4,1.4-20.9-10-29M554.7,656.2c4.9.5,9.8,1,15.1,1.6-2.8,10.2-7.3,18.1-17.6,21.1-2.9.8-3.8,2.3-2.1,5.1,1.7,2.9,3.3,5.8,4.8,8.7,1.4,2.8,3.4,3.7,6.6,2.9,13-3.1,22.1-11.1,28.4-22.5,4.4-8,4-8.8-4.3-12.5-.7-.3-1.4-.8-2.9-1.8,4.7.4,8.3.8,12,1.1,3.8.3,7.6.8,11.4,1,12,.7,11.9.7,13.3-11.4.5-4.1-.9-5.6-5-5.9-22.7-1.9-45.4-4.1-68.1-6.3-2.5-.2-3.8.3-4,2.9-1.6,17.7-3.3,14.5,12.5,15.9M524,329.1c-21.8-4.7-43.6-9.4-65.4-14-8.7-1.8-7.5-3.3-9.7,6.5-.4,1.6-.6,3.3-1.1,4.9-1,3.6.2,5,3.9,5.7,7.8,1.4,15.5,3.3,23.6,5-3.8,9.7-8.9,17.1-19.4,18.8-3.5.6-4.5,2.2-2.9,5.5,1.2,2.5,2.3,5.2,3.2,7.9,1.2,3.9,3.6,5,7.6,4.4,12.6-1.9,22.2-8.6,29.6-18.6,5.1-7,4.8-8.2-2.3-13.3-.2-.1-.1-.6-.3-1.2,1.7.3,3.4.5,5,.8,7.7,1.6,15.3,3.2,23,4.7,1.3.2,3.9,0,3.9-.5.9-5.4,1.5-10.8,1.4-16.6M1307.9,221.8c-1.9,1.6-4,3-5.7,4.8-4.8,4.8-6.9,10.6-4.7,17.3,2.1,6.5,7.1,9.6,13.4,10.3,5.1.6,10.5,1.3,15.4.2,19.6-4.4,39-9.4,58.5-14.5,4.3-1.1,8.5-2.9,12.5-4.9,3.9-2,5.3-5.5,3.5-9.7-1.7-4-4.9-5.8-9.3-4.6-2.1.6-4.1,1.5-6.1,2-17.7,5-35.4,10.2-53.3,14.8-5.8,1.5-12,1.2-18,1.7-.2-.6-.3-1.1-.5-1.7,1.7-1.2,3.2-2.6,5-3.4,5.1-2.4,10.4-4.5,15.5-6.9,4.5-2.2,6.1-6.2,4.4-10.3-1.6-4-6-6-10.4-4.2-6.6,2.6-13.1,5.8-20.2,9.1M1639.3,326.7c-4.9-15-9.9-30-14.9-45-.7-2.2-1.7-4.3-2.8-6.4-2.3-4-5.9-6-10.4-5.3-4.6.8-7.4,4.1-7.7,8.6-.2,3.5.3,7.3,1.3,10.6,6.8,21.9,13.9,43.7,20.8,65.6,1.3,4.1,2.4,8.3,4.1,12.3,2,4.6,6.7,6.9,10.9,6.1,4.3-.9,7.6-4.7,7.9-9.7.2-2.6-.1-5.4-.8-7.9-2.6-9.4-5.5-18.8-8.5-29M465.6,630.5c3.3-11.2,0-16.4-11.1-17.3-19.1-1.6-38.2-3-57.2-4.6-3.4-.3-4.5,1.2-4.7,4.1-.2,3.5-.5,7-1,10.4-.5,3.3.6,4.8,4.2,5.1,12.9,1.1,25.8,2.5,38.8,3.6,3.7.3,4.5,1.7,3.8,5.1-2.2,10-2.2,10,7.6,13.5.9.3,1.9,1,2.8.9,2.1-.3,5.1-.4,6-1.7,3.9-5.9,7.2-12.2,10.9-19.2M736.7,650.1c1.6-1.2,4.2-2,4.7-3.5,2.4-7.7,5.2-15.4,6.1-23.3,1-9.1-4.5-13.2-13.7-11.9-16.6,2.3-33.3,4.6-49.9,6.8q-11.5,1.6-10.4,13.2c0,.7.2,1.3.2,2,0,4.7,2.2,6.1,7,5.4,12.3-1.9,24.7-3.2,37.1-4.8,2.9-.4,4.7,0,4.7,3.7.1,10.5.3,10.5,10.9,12.1.8.1,1.7.2,3.3.3M600.8,350.8c2.8-12.1,3.1-24.3,1.8-36.7-.3-3.1-1.7-4.3-4.8-4.4-4.3,0-8.7-.2-12.9-.6-4.5-.4-5.7,1.5-5.7,5.8,0,9.1-.1,18.3-1.1,27.4-1.5,13.3-5.2,26-13.6,36.9-2.2,2.8-1.6,4.7,1.9,5.9,3,1,5.8,2.4,8.7,3.8,2.8,1.3,4.8.8,7-1.5,9.5-10.3,15.6-22.2,18.8-36.6M739.9,310.9c-.8,6.4-5.4,3-8,2.7-12.9-1.4-9.2-1.7-11.2,9.3-.6,3.7.8,4.9,4.5,5.3,13.1,1.3,26.1,3,39.2,4.5,9.9,1.2,9.7,1.2,11-8.7.5-4.2-1-5.8-5-6-4.5-.3-8.9-.9-13.9-1.5,1.1-6.8,2.2-13.2,3.3-19.7,1.4,0,2.2,0,3,.2,10.8,1.5,10.7,1.5,12.5-9,.5-2.8-.4-4.1-3-4.6-12.1-2.2-24.2-4.4-36.3-6.4-1.2-.2-3.7.4-3.8,1.1-1,3.8-2,7.8-1.7,11.7.1,1.2,4.7,1.9,7.3,2.8,1.5.5,3.2.7,5.1,1.1-.9,5.6-1.7,11-2.8,17.3M1309.4,262.5c-6.9,9.2-4.1,16.5,7.1,18.7,2.1.4,4.3.9,6.4.6,15.2-2.5,30.6-4.3,45.5-8,11.5-2.8,22.5-7.7,33.5-12.3,4.8-2,5.9-6.7,3.8-10.9-2.1-4-6.4-5-11.1-3.1-8.6,3.5-17,7.7-25.9,10-13.5,3.6-27.4,6-41,8.9-2.9-10.2-8.7-12.5-15.2-6.9-.9.8-1.7,1.6-3.1,2.9M1392.1,114c-2.8-4-6.7-5.7-10.7-2.8-11.9,8.7-20.3,22.3-11.5,38.4,3.4,6.2,7.8,12,12.1,17.7,7,9.3,9.2,18.9,3.5,29.7-2.6,4.9-.9,9.5,3.4,11.4,4.3,1.9,8.3,0,11-4.9,8.2-14.9,6.6-29-2.9-42.6-4-5.7-8.3-11.3-12-17.1-4-6.3-3.5-10.1,1.4-15.7,1.2-1.4,2.6-2.6,3.9-3.9,2.6-2.7,3.9-5.8,1.9-10.2M656.1,660.2c-9.9,3.5-19.7,7.2-29.6,10.5-9.6,3.2-9.4,3-7,12.6,1,4.2,3.1,5.4,7.1,4.4,4.8-1.1,9.6-1.9,15.1-2.9-.7,6.5-1.6,12.3-1.9,18.1-1,16.8-4.6,12.5,12.1,15,.2,0,.3,0,.5,0,3,.6,4.3-.7,4.6-3.7.7-7.5,1.7-14.9,2.4-22.3.3-2.8,0-5.6,0-8.4-1.9-.6-3.6-1.1-6-1.8,6.4-2.3,12-4.3,17.6-6.5,5.8-2.3,6.1-2.8,3.4-8.3-6.8-14-3.2-12-18.2-6.8M388.3,328.3c15.1-4.7,28.9-11.8,42.1-20.5,2.4-1.6,2.9-3.3,1.7-5.9-1.9-3.9-3.8-7.8-5.6-11.7-1.2-2.7-2.8-2.6-5.2-1.7-17.9,7.2-35.8,14.4-53.7,21.5-2.4,1-3.6,2-2.1,4.8,2.4,4.6,4.6,9.2,6.7,14,1.3,3,3,3.4,5.9,2.4,3.1-1.1,6.4-1.8,10.3-3M712.1,285c-1.1-4.2-3-5.9-7.5-3.6-4,2-8.3,3.4-12.6,4.6-13.7,4.1-27.4,8-41.1,12.1-2,.6-5.1.5-3.6,4.3,2,4.9,3.6,10,5.9,14.8.5,1.2,2.8,2.4,4.1,2.2,16.9-2.6,33-7.6,48.2-15.4q11.7-6,6.7-19M674.4,786.2c-12.3,6.5-13,15.3-1.3,22.8,11.8,7.7,24.8,9.1,38.2,4.8,5.2-1.7,10.2-4.4,11-10.4.8-6.1-3.3-9.9-7.9-12.8-12.3-7.7-25.4-9.2-39.9-4.4M1373.9,285c-5.8,1.4-11.6,2.9-17.2,4.3-4.1-7.4-8.6-9.4-13.5-5.9-2.6,1.9-5.1,4.4-6.9,7.1-3.6,5.3-1.9,11,3.9,13.7,2.5,1.1,5.5,1.8,8.2,1.6,18.5-1.2,36.1-5.7,52.4-14.6,2.4-1.3,4.7-3.3,6.3-5.5,2.4-3.1,1.9-6.6-.8-9.6-2.8-3-6.2-3.1-9.6-1.5-7.4,3.3-14.7,6.8-22.8,10.4M256.9,449.1l9.7,12.4c.5-.1,1.1-.3,1.6-.4,0-3.9.4-7.8,0-11.6-1.1-8,1.8-13.7,8.8-17.8,3.2-1.9,6-4.7,8.9-7.1-.2-.5-.4-1-.6-1.4-3.9,0-7.9-.4-11.8,0-7.6,1-13.1-1.6-17-8.3-2-3.4-4.9-6.3-7.4-9.4-.5.2-1,.4-1.5.6,0,4.4-.4,8.9,0,13.2.7,6.5-1.5,11.1-7.1,14.6-3.8,2.4-7.1,5.5-10.7,8.3.2.5.4,1.1.7,1.6,5.4,0,10.8.2,16.2,0,4.3-.2,7.5,1.1,10.2,5.3M1342,904c-1.6,2.7-3.4,5.3-4.8,8.2-2.3,4.7-5.6,6.9-10.9,7.2-5,.2-10,1.4-15,2.1,2.5,2.9,5,5.1,8,6.3,8.8,3.5,12.7,9.9,12.5,19.2,0,3.2,1,6.5,1.6,9.7,4.1-4.8,7.1-9.5,9.9-14.4,1.9-3.3,4.4-5.1,8.3-5.4,5.7-.5,11.3-1.5,16.9-2.3-4.7-4.2-9.6-7.3-14.6-10.2-3.4-1.9-4.9-4.6-5.3-8.4-.6-5.5-1.4-11-2.2-16.6-.4-.1-.7-.2-1.1-.3-.9,1.4-1.9,2.9-3.2,4.9M811.4,393.6c-2.6.8-5.2,1.9-7.9,2.3-5.2.7-10.4.9-15.6,1.3,4.1,4.3,8.4,7.5,13,10.3,3.9,2.4,5.7,5.5,5.8,10.2,0,5.3.8,10.7,1.3,16,3.8-3.6,6.7-7.2,8.9-11.2,3-5.3,6.9-8,13.2-7.8,4.7.2,9.5-.8,14.3-1.2-4.2-4.3-8.4-7.4-13-10.1-4.2-2.5-5.9-5.9-5.9-10.6,0-5.2-.7-10.3-1.1-15.5-.4,0-.8-.2-1.2-.3-3.7,5.4-7.5,10.8-11.7,16.7M1379.1,649.9c-1.5-.3-2.9-.8-4.4-.8-9.1-.3-15.8-3.8-18.9-13-1.1-3.2-3.3-6.1-5-9.1-2.1,5.5-3.4,10.6-3.9,15.6-.4,5.4-3.2,8.4-7.8,10.5-3,1.4-5.9,3.1-8.8,4.7-1.4.8-2.7,1.9-5.2,3.6,6.9,1.2,12.2,2.4,17.6,3.1,4.3.5,6.8,2.7,8.7,6.5,2.4,4.8,5.1,9.4,7.7,14.1.4,0,.9-.2,1.3-.3.9-5,2.3-9.9,2.7-14.9.4-5.6,3.3-8.6,8-10.9,4.4-2.1,8.6-4.6,12.8-7l-.4-1.3c-1.2-.3-2.4-.6-4.5-.9M399.8,681.2c.9.5,1.7,1,2.6,1.5,7.6,4.3,8.4,4.2,14.3-2.4,7.6-8.6,12.8-18.5,15.4-29.8.9-4.2-.5-5.9-4.3-6.7-4.1-.8-8.1-1.8-12.1-2.8-4.1-1.1-6.1,0-7.6,4.4-3.3,9.2-7.1,18.3-11.4,27-2.1,4.3-1.9,6.7,3.2,8.7M716.4,671.2c.9-6.4,1.8-12.8,2.5-19.2.4-3.4-1.6-4.8-4.8-4.9-4.3,0-8.7.2-13-.2-5-.4-6.2,2-6.6,6.4-.8,7.6-1.7,15.2-3.3,22.7-2.7,12.2-2.9,12,9.1,15.5,3.7,1.1,6.4.2,8-2.9,2.8-5.4,5.2-11.1,8.1-17.4M1591.6,288.5c-3.6-5-7.8-6.8-12.2-5.2-4,1.4-8,7.1-6.6,11.7,3.3,11.3,6.9,22.5,11.4,33.3,1.1,2.6,6,4.7,9.3,5.1,4.1.5,7.1-2.9,8.1-6.8.7-2.6,1.1-5.8.3-8.3-3-9.8-6.6-19.5-10.3-29.8M581.1,633c6.2,1,12.5,2,18.7,3.1,3.6.7,5.8,0,5.9-4.3.1-2.6.9-5.1,1.4-7.5q7.4-.3,6.5-8c-.6-4.7-2.7-5.4-11.2-3.7-.2,1.3-.3,2.7-.5,4.1-.4,0-.8.3-1.1.2-8.4-1.3-16.7-2.7-25.1-4-14.4-2.2-14.4-2.1-15.4,12.6-.2,2.9.6,4.2,3.6,4.6,5.4.7,10.8,1.8,17.1,2.9M1543.9,422.3c6.8,4.1,15.7-2.5,14.3-10.6-2-10.7-5.3-21.2-8.7-31.5-1.4-4.4-5.7-6.4-10.5-5.8-4.3.6-8,4.6-8.4,9.3-.2,2.1,0,4.3.5,6.4,2,7.9,3.9,15.8,6.5,23.5,1,3.1,3.7,5.7,6.2,8.8M1478.6,438.5c3.8,2.8,7.9,3.6,12,.8,4.2-3,5.7-7.3,4.5-12.3-2.1-8.2-4.2-16.4-6.7-24.5-1.9-6.2-7.2-9.5-12.4-8.2-5.9,1.5-9.2,7.1-7.7,13.6,2,8.2,4.2,16.4,6.6,24.5.6,2,2.1,3.7,3.8,6M470.7,300.8c0,2.8-3.9,6.5,1.6,8.1,12.3,3.6,24.5,7.2,36.9,10.6,1.2.3,3.7-1.1,4.2-2.3,1.4-3.1,1.9-6.7,3.2-9.9,1.5-3.8.2-5.3-3.5-6.3-9.6-2.6-19.1-5.5-28.7-8.2-11.5-3.2-9.7-5.2-13.7,8.1M549,349.1c2.5.2,5,.9,7.4.5,1.8-.2,4.9-1.5,5-2.6,1.1-10.3,1.8-20.7,2.4-31.1.2-2.7-1.7-4-4.6-3.9-4.6.1-9.3.2-13.9,0-4-.2-5.2,1.5-4.9,5.3.5,8.3,1,16.6.8,24.9,0,5.2,1.7,7.5,7.8,6.9M363.9,276.1c2.8,3.3,5.6,6.6,8.3,10,1.8,2.3,3.6,2.5,6,1,4.4-2.7,8.7-5.5,13.2-8,3.1-1.8,3.5-3.9,1.3-6.4-2.5-2.9-5.1-5.7-8-8.1-9.1-7.4-9.1-7.3-19.3-1.5q-8.6,5-1.6,13.1M642.1,262c-1.5.5-3,1-5,1.7,1.6,4,3,7.5,4.5,11q5,11.5,17.3,8.2c10.3-2.8,10.7-3.8,4.9-13q-7.5-11.8-21.7-7.8M683.4,265.4c2.7-1.7,5.5-3.1,7.9-5.2,1.1-.9,2.2-3.8,1.8-4.3-4.9-4.7-9.6-9.9-15.3-13.2-2.1-1.2-6.9,2.3-10.4,3.8-1.2.5-2.3,1.4-3.5,2-2.9,1.4-2.9,3.3-1,5.5,2.8,3.3,5.5,6.6,8.4,9.9q5,5.9,12.2,1.4M869.1,399.3c.7-.3,1.3-.6,2-.9-7.3-1.8-11.6-6.1-13.2-13.7-1.2,8-6.1,11.8-13.4,13.7,8,1.2,12.1,5.7,13.4,13.3,2.5-5.4,3.4-11.5,11.3-12.5M629,624c.2-1.5,1.1-3.5.5-4.5-4.5-7.5-6.6-7.7-13.8-1.9,3.8,9.9,6.1,11.1,13.4,6.4M713.2,246.1c-.4.6-1.4,1.6-1.2,1.9,1.8,3,3.3,6.5,6,8.4,1.2.9,4.9-1.3,7.2-2.6.9-.5,1.6-2.6,1.3-3.6-2.3-6.4-6.6-7.9-13.2-4.1M698.6,247.3c.4,2.7,0,5.7,3.9,6.4,7.1,1.4,9-.8,7.6-8.2-1.1-5.6-5.6-3.6-8.7-3.9-3.7-.4-2.9,2.6-2.8,5.7Z"/>
  <path class="cls-59" d="M697.5,926.2c23,5.4,42.8,0,58.5-18.2.5-.6,1.1-1.3,1.7-1.7,2.3-1.3,4.6-2.5,5.8-3.2,5.9,6.4,10.8,13.2,17.1,18.4,11.6,9.5,25.5,10.2,39.8,8.2,18.3-2.5,36.6-4.5,54.9-6.8,11.6-1.4,22-5.7,29.7-14.7,3.4-4.1,6.5-4.9,11-2.9,1.2.5,2.6.7,3.9,1.5-7.7,13.8-15.5,27.2-23.1,40.6-5.6,9.8-11,19.6-16.4,29.5-15.5,2-30.9,4.2-46.4,6-9.5,1.1-19.1,2.1-28.6,2-17.2-.3-29.9-9-38.8-23.4-.6-1-1.1-2-1.6-3,0-.1-.3-.2-1.3-.8-2.7,1.9-6.2,3.7-8.5,6.4-8.8,10.1-19.8,15.7-32.8,18.2-15,2.8-28.4-.7-40.7-9.1-2.6-1.7-4.7-4.2-6.9-6.9,7.6-13.7,15.2-26.8,22.8-39.9Z"/>
  <path class="cls-14" d="M1054.9,941.2c2,0,4-.2,6-.2,64.1,0,128.2,0,192.4,0,4.5,0,8.9-.7,13.7-.7-10.2,18.7-20.8,37.1-31.3,55.5-4.3,0-8.7.2-13,.2-65.8,0-131.6,0-197.8-.5,3.3-6.9,7-13.5,10.7-20,6.5-11.4,12.9-22.9,19.4-34.3Z"/>
  <path class="cls-59" d="M1376.8,1018.7c3.2,10.3,6.5,20.6,9.6,30.9,7.8,25.4,29.2,36.6,54.6,28.9,35.5-10.7,71-21.1,106.5-31.9,23.7-7.2,33.5-21.9,31.9-47.2.4,1.2,1.1,2.9,1.1,4.5,0,9.7,0,19.4-.4,29.8-8.7,15-17.1,29.2-25.3,43.6-4.9,8.6-9.6,17.3-14.4,26-21.5,6.6-43.1,13.2-64.6,19.6-12.8,3.8-25.8,7.4-38.6,11.2-23.3,6.8-45.2-6.8-51.7-31.3-4.1-15.3-8.9-30.4-13.4-45.7-1.9-6.4-3.7-12.9-5.5-20,3.5-6.6,6.8-12.5,10.2-18.5Z"/>
  <path class="cls-59" d="M446.5,727c5.8,16.5,16.6,28.1,34.3,30.2,11.6,1.4,23.6.5,35.2-.6,7.9-.7,14.4-5.6,20.2-11.1,1.3-1.2,3.4-2.4,5-2.2,8.7,1.2,17.3,2.8,25.8,4.2-.8,9.2-2.3,18.1-2.3,27,0,17.9,5.9,33.9,17.8,47.5,1.8,2.1,1.9,3.6,1.1,6.1-3.6,11.3-5.9,22.8-5,35.6-.9,2.3-1.6,3.9-2.4,5.4-8-11.9-12-25-11.8-39.4.1-8.2,0-16.3,0-24.5,0-2.9-.9-4-3.9-4.3-5.7-.6-11.3-2.1-16.9-2.6-2.3-.2-5.3.7-7,2.2-8.8,8-19.2,12.1-30.8,12.4-11.3.3-22.9,1.4-33.8-2.9-14.7-5.9-23.8-16.6-26.5-32.3-.6-3.7-7.7-6.7-11.2-5-5.9,2.7-12,5-18.3,7.1,1-2.5,2.3-4.7,3.5-6.8,9-15.3,17.9-30.6,26.9-45.8Z"/>
  <path class="cls-9" d="M1054.4,941.2c-6,11.5-12.4,22.9-18.9,34.4-3.7,6.5-7.4,13-11.1,19.9-13.1,1.3-25.3-1.3-35-10.3-4.3-4-7.2-9.5-11.3-15-21.4-1.3-43.6-4.5-65.2-10.9-1.3-.4-3.5-.3-4.1.5-7,9.4-16.6,14.3-27.9,17.3,5.1-9.9,10.5-19.7,16-29.5,7.6-13.4,15.4-26.7,23.4-40.3,12.2,1.9,24,4.3,36,6.2,6.4,1,12.9,1.3,19.3,1.7,2.7.2,4.4.7,5.8,3.5,7.6,14.8,19.8,22.4,36.5,22.5,12,0,24,0,36.4.2Z"/>
  <path class="cls-64" d="M220.6,482.5c7.8.2,13.9,3.1,19.9,8.8,10.9,10.3,24.6,12.4,39.1,8,1.9-.6,3.7-1.3,6.2-2.1,1.2,7.3,2.4,14.3,3.5,21.3,4.1,26.6,8.2,53.2,12.4,79.8,3.2,20.7,18.7,36.4,39.6,40.3-.4,1.9-1,3.5-1.8,4.9-7.3,12.9-14.7,25.7-22.1,38.5-10.7-8.6-14.9-20.4-16.9-33.4-2.2-14.3-4.7-28.5-6.9-42.7-2.5-15.9-4.7-31.8-7.1-47.7-.3-1.9-.9-3.8-1.3-5.8-14.2,5.8-27.9,5-40.9-3.2-3-1.9-5.7-4.5-8.1-7.2-2.6-3-5.5-3.9-9.5-4.1-11.5-.8-20.9-6.1-28.1-15.9,7.4-13.6,14.7-26.6,22.1-39.5Z"/>
  <path class="cls-9" d="M1376.8,1018.3c-3.3,6.3-6.7,12.2-10.2,18.5-6.8,6.4-14.1,11.5-23,13.7-15.2,3.6-31.9-.5-41.9-14.7-4.1-5.8-6.1-13-9.1-19.5-.8-1.7-1.9-3.4-3.2-4.8-4.9-5.5-9.8-10.8-14.8-16.1-.9-.9-2.5-2.3-3.3-2-11.3,4.2-23.1,2.4-35.2,2.7,10.1-18.5,20.6-36.9,31.3-55.6,2.1-1.1,4.1-1.8,6.4-2.6,4.1,8.8,9.9,15.7,18.1,20.5.8.5,1.3,1.9,1.5,2.9,2.8,17,12.4,28.6,28.8,33.8,16.6,5.2,30.8.3,42.7-12,.2-.2.6-.3,1.5-.6,3.5,11.9,7,23.8,10.6,36.1Z"/>
  <path class="cls-36" d="M576.5,869.4c.5-1.9,1.2-3.4,2.1-5.3,2,11,5.6,21.6,13.5,30.3,17.7,19.8,45.9,25.4,69.7,13.4,4.7-2.4,7.4-2.7,11,1.9,6.2,7.9,14.6,13.1,24.5,16.4-7.2,13.2-14.8,26.3-22.6,39.7-2.4-1.7-4.6-3.7-7-5.9-10.4,6-21.6,9.7-33.7,9-13.4-.7-25.6-5.2-36.1-14-13.6-11.5-19.6-26.2-19.4-43.8.1-11.6.1-23.3,0-34.9,0-2.1-1.1-4.3-1.9-6.8Z"/>
  <path class="cls-9" d="M317.5,682.4c7.2-13.2,14.6-26,21.9-38.9.8-1.4,1.4-3,2.2-4.8,8.4-1.3,13.8,1.7,17,9.9,1.3,3.4,2.3,5.6.6,9.2-10.1,21.4-2.9,44,17.3,56.2,9.5,5.7,19,11.2,30.4,11.8,8.9.5,17.2-1.9,24.9-6.2,7.8-4.3,12.8-2.2,14.7,6.9-9,15.7-17.9,30.9-26.9,46.2-1.3,2.1-2.5,4.3-3.9,6.7-13.1,3.5-24-2.1-34.8-7.9-9.9-5.3-19-11.8-23-23-1.7-4.7-3-9.7-3.3-14.6-.5-11,0-22-.2-32.9,0-2.7-.7-5.4-1.1-8.5-13.7,1.8-25.2-2.1-35.8-10.3Z"/>
  <path class="cls-51" d="M1619.5,965.1c12.9,6.9,26.4,9.3,40.4,4.4,21.4-7.5,33.8-23.2,36.3-45.3,4-34.5,7-69.1,9.9-103.8,1.3-16.1,1.2-32.3,1.9-48.7.3,23,.6,46.3.4,69.6-.2,13.7-1,27.4-2,41-1,14.1-2.6,28.1-3.9,42.1-1,11.1-1.7,22.2-3.1,33.3-1.8,14.1-1.6,28.8-9.1,41.6-9,15.4-21.8,24.8-40.1,26.7-15.5,1.6-28.6-3-39.8-13-4.2-3.8-6.7-9.5-9.8-15,6.4-11.5,12.6-22.3,18.9-33.1Z"/>
  <path class="cls-64" d="M1619.3,964.8c-6,11.1-12.3,21.9-18.7,33-1.8-5.6-4.6-11.5-4.9-17.4-.7-13.6-.2-27.2-.2-41.4-10.6,4.3-20.7,8.4-30.8,12.4-5.5,2.2-10.9,4.5-16.5,6.1-2.5.7-3.9,1.8-4.8,4.4-7.7-3.3-15.3-7.1-23.2-11,6.7-12.4,13.7-24.1,19.2-36.4,3.5-7.7,8.1-11.9,16.1-14.5,13.2-4.4,25.9-10.3,38.8-15.5,1.5-.6,3.1-1.1,5.2-2-1.2,10-2.1,19.4-3.4,28.8-3,22.4,4.4,40.1,23.1,53.5Z"/>
  <path class="cls-1" d="M223.6,280.4c2.2,7.4,4.3,15.2,6.5,23,3.1,11,10.1,19,19.8,24.6,2.4,1.4,3.5,2.9,3.7,5.7.7,8.1,3.7,15.7,9.4,21.6,4.1,4.2,5,8.1,2.9,13.8-10.3-4.2-21-4.3-32.2-1.1-2.9-7.5-5.7-14.8-7.9-22.4-1.3-4.8-2.2-9.9-2.3-14.9-.3-16.6-.1-33.2,0-50.3Z"/>
  <path class="cls-66" d="M1708.9,715.9c-1-16.8-1.7-33.8-2.3-50.7,0-1.4.7-3.4,1.7-4.1,17.8-10.9,26.6-26.9,27.5-47.5,0-.3.1-.7.4-1.3.2,19.4,1,39.2.1,59-.8,19.4-9.5,34.9-27.4,44.7Z"/>
  <path class="cls-51" d="M220.3,482.3c-7.1,13.1-14.4,26-21.9,39.3-6.1-5.5-8.7-13-8.9-21-.4-18.2-.1-36.5,0-55.2.6,1.9,1,4.4,1.6,6.7,4.1,15.3,13.8,25.2,29.2,30.2Z"/>
  <path class="cls-41" d="M1540.9,1103.2c4.4-8.5,9.1-17.3,14-25.9,8.2-14.4,16.6-28.7,25.2-43.2.3,10.8,1.2,21.9.2,32.7-1.3,13.9-10.1,26.3-25.1,32-4.5,1.7-9.3,2.8-14.3,4.3Z"/>
  <path class="cls-15" d="M1272.4,102.4c3.7,7.5,7.4,15.3,11.1,23.2.4.8.4,1.9.3,2.8-3.5,20.8-.7,38.4,9.7,55.3-3.8,2.4-7.5,4.8-11.6,7.2,0-7.1-.4-13.6-4.5-20.2-3.2-5.1-4.3-12.1-4.5-18.3-.6-16.5-.3-33-.3-49.9Z"/>
  <path class="cls-15" d="M1272.1,101c.3.1.3.3.3.8-.2,0-.4-.4-.3-.8Z"/>
  <path class="cls-46" d="M925.8,458.9c3.9,4.5,8.4,8.6,11.5,13.6,8.6,14.1,12.4,29.5,11.4,46.1-.7,12.2-7.4,20.5-18.4,24.3-10.7,3.7-22.1,5.7-33.2,8.1-5.2,1.1-10.5,1.2-15.8,1.9-7.9,1.1-10.4-.4-12.8-8.1-2.4-7.7-4.8-15.5-7.1-23.3-1.7-5.7-.6-7.6,4.9-9.2,4.1-1.2,8.4-1.9,12.5-3.3,5-1.6,5.7-4.4,2.6-8.6-7.8-10.5-25.3-9.8-33.7,1.3-9.3,12.3-8.7,32.3,1.1,45.1,11.9,15.7,28.6,19.5,46.9,18.8,7-.2,10.3,1.5,11.3,8-9.2,1.4-17.9,2.3-26.6,3.4-11.8,1.4-23.6,2.9-35.4,4.3-13.6,1.6-27.2,3.2-40.8,4.8-28.9-27.2-33.2-79.2-8.4-109.8,8-1.3,15.3-2.3,22.7-3.3,11.8-1.5,23.6-2.8,35.4-4.3,17.5-2.2,35-4.4,52.5-6.8,6.5-.9,13-2.1,19.5-3.1Z"/>
  <path class="cls-10" d="M663.4,493.2c-.3-8.9-.8-17.9-.7-26.8,0-6.8,1-13.6,1.6-21.1-6.1-1.1-12.1-2.3-18.3-3.3-6.6-1.1-8.7-3.2-7.5-9.7,2.7-14.8,5.7-29.6,8.7-44.4.9-4.6,4-6.2,8.5-5.3,5.4,1,10.7,1.9,16.6,3,2.1-11.4,4.1-22.5,6.1-33.5,1.5-7.9,4.3-9.9,12.1-8.5,16.9,2.9,33.8,5.6,50.6,8.5,7.2,1.2,8.9,3.9,7.6,11-2,11.2-4,22.5-6.1,34.3,5.1.9,10.1,1.9,15.1,2.7,8.5,1.3,10.2,3.6,8.6,12-2.6,13.8-5.3,27.7-8,41.5-1,5.2-4.2,7.1-9.4,6.2-5.2-1-10.4-1.8-16.9-2.9-.5,9-.9,17.7-1.8,26.9-18.3,2.8-36.1,5.1-53.9,7.4-4.3.6-8.6,1.4-12.9,2.2Z"/>
  <path class="cls-27" d="M1341.4,859.1c-5.5-2.8-7-5.8-5.4-12.1,6.6-24.7,13.3-49.3,20.1-73.9,1-3.5,2.3-6.9,3.9-10.7,1.5-1.2,2.6-2,3.5-2.9,40.4-40.4,80.9-80.9,121.3-121.3,1.1-1.1,2-2.6,2.9-3.9,8.2,14.7,16.5,29.5,24.7,44.2,1,1.9,2,3.8,3,6.4-11.4,12.1-22.8,23.6-34.2,34.9-5.9,5.9-11.9,11.6-17.9,17.3-3.4-6.4-6.8-12.8-10.7-20.2-1.5,2.4-2.7,3.8-3.3,5.5-5.9,16-11.8,31.9-18.1,48.3-2,1.7-3.6,2.8-5,4.2-26.8,26.8-53.5,53.5-80.3,80.3-1.4,1.4-3,2.6-4.4,3.9Z"/>
  <path class="cls-27" d="M1004.4,874.6c-17,1.5-33.9.9-50.7-2-6.9-1.2-13.6-2.9-20.6-4.8,17.5-18.3,35.3-36,53-53.9,1.4-1.4,2.4-3.1,4-4.7,4.9-.4,9.4-.6,13.8-1.2,27.6-3.7,48.4-26.3,50-54.1.2-.2.3-.3.3-.4,0-.2-.2-.4-.3-1,.2-2.8.4-5.2,1-7.7,19.5-19.2,38.7-38.4,58-57.4,1.4-1.3,3.1-2.3,4.7-3.4,8.1,13.8,11.5,29,13.1,44.7.6,6.1.8,12.2.7,18.8-1.7,1.5-3.1,2.4-4.2,3.6-39.9,39.8-79.7,79.7-119.6,119.6-1.1,1.1-2,2.6-3,3.9Z"/>
  <path class="cls-23" d="M1346.3,600.9c-6.2-.7-12.5-1.1-18.6-2.3-4.1-.8-6.5-4.4-6.1-8.6,1.1-11.2,2.1-22.4,4.1-33.5,1.3-7.4,8.2-7.7,14.1-8.5,10.3-1.4,19.4-5.1,27-12.5,6-5.9,8.5-13.2,8.4-21.1-.1-12.6-.8-25.2-1.4-37.8-.4-8-.9-15.9-1.2-24.5,24.4-9.1,48.6-17.4,72.8-25.8,3.4,30.8,5.7,61.7,3.7,93.4-1.2,1.2-2,1.7-2.8,2.3-25.2,19.8-50.4,39.5-75.6,59.3-8.2,6.5-16.2,13.1-24.4,19.7Z"/>
  <path class="cls-27" d="M907.6,809c.9-17.9,1.8-35.8,2.7-53.6.5-9.4.9-18.9,1.7-28.9,1.3-1.2,2.3-1.8,3.1-2.6,31-31,62-62,93-93,1-1,1.7-2.4,2.5-3.6,18,.4,35.3,4.5,51.9,11.1,3.7,1.5,7.2,3.3,10.6,5.4-6.8,7-13.4,13.5-20,20.1-9.6,9.5-19.2,18.9-29.2,28.3-12.4-4.2-24.7-5.5-37.4-2.9-.8,15.3-1.6,30-2.8,44.8-1.7,1.2-3.1,2.4-4.4,3.6-21.8,21.7-43.5,43.5-65.3,65.3-2.1,2.1-4.4,4.1-6.5,6.1Z"/>
  <path class="cls-48" d="M716.9,823.9c4.1-3,8.3-5.9,12.5-8.9,10.1,7.5,11.1,16.9,3.3,33.8,6.6,3.7,14,7.8,11.3,16.9-2.5,8.3-9.8,5.1-15.9,4.1-.2,1.9-.4,3.6-.5,5.2-.6,6-3.1,10.4-9.2,12.3-6.2,2-11.5.8-15.9-4.1-3.8-4.2-7.1-8.8-11-12.9-9.3-9.9-21.5-12-33.7-5.9-4.2,2.1-8.1,4.6-12.2,6.9-7.1,4-14,3.7-20.7-.8-6.4-4.4-6.9-11-6.1-17.9,1.8-14.5,8.6-27.2,15.3-39.8.5-1,1-2.1,1.8-3.6-2.4-.8-4.5-1.5-6.7-2.2-18.1-6.5-27.6-21.9-24-40.7,1.6-8.7,4.6-17.3,7.9-25.5,1.4-3.6,5-6.6,8.2-9.1,5.7-4.5,12.6-4.7,17.7-1.3,5.2,3.4,7.6,10.4,5.8,17.3-.6,2.2-1.5,4.4-2.1,6.1,1.3,2.4,3,4.4,3.5,6.7.9,4.7-2.9,9.1-7.9,8.6-5.7-.5-11.2-2.1-16.9-3.3-4,9.9,1.2,21.4,12.2,25.8.3.1.6.2.9.3,9.8,3.4,9.6,3.2,15.7-5,12.2-16.4,24.7-32.7,37-49,1.3-1.7,2.7-3.1,4-4.5,2.4,13.3,4.7,26.3,6.9,39.1-6.8.5-13.8.7-20.6,1.7-6.9,1-13,4.2-17.9,9.3-9.2,9.6-7,24.5,5.4,33.2,14.6,10.3,30.8,12.6,48.1,7.9,1-.3,1.9-.5,3.2-.3,1.4,4.3,2.5,8.1,3.6,12,.6,0,1.1-.1,1.7-.2,0-1.8.8-3.9.1-5.3-1.2-2.5-3.3-4.5-5-6.7Z"/>
  <path class="cls-34" d="M442.7,445c.5-8.4,1-16.8,1.6-25.3.3-4.2,3-6,7.1-5.9,8.6.4,17.3,1.2,25.9,1,8.1-.2,16.2-1.2,24.2-2.1,23.8-2.7,46.7.5,68.2,11.5,26.8,13.7,42.8,35.5,47.6,65.4.5,3.4.6,6.9.6,10.6-3.2-.2-6.2-.9-9.1-.7-6.8.6-13.6,1.7-20.7,2.5-1.1,0-1.9,0-2.8-.3-2.2-1.1-4.1-2.1-6.1-2.8-12.9-5-25.9-9.9-38.8-14.8-6-8.4-14.2-13.3-24.4-14.7-1.4-.2-3,1.1-4.9,2.1-23.1-8.6-45.7-17.6-68.4-26.5Z"/>
  <path class="cls-45" d="M332.5,534c-2.3-13.6-4.6-27.1-6.8-40.7-5-31.8-10-63.6-15-95.4-.2-1.3-.3-2.6,0-4.4,17.8,6.5,35.1,13.5,52.5,20.3,10,3.9,20.1,7.5,30.1,11.2,2,12.4,4.1,24.7,6.1,37.1,3.3,20.7,6.6,41.4,9.4,62.5-3.6.7-6.7,1-9.8,1.4-11.9,1.5-23.8,3.1-35.8,4.5-10.3,1.2-20.6,2.3-30.9,3.4Z"/>
  <path class="cls-42" d="M1657.9,569.6c3.3,40.9,7.5,81.4,9.3,121.9,1.5,34.1,1.5,68.3-.1,102.4-1.8,39.2-6.1,78.3-9.4,117.4-.3,3.1-.6,6.3-1.3,9.4-1.6,7.1-7.2,12-12.6,11.2-5.6-.8-9-6.7-8.1-14.6,1.3-11.7,3-23.4,4-35.2,2.1-22.7,4.4-45.4,5.5-68.2,1.3-27.3,2.1-54.6,2-81.9-.3-68.4-5.6-136.4-16.5-203.9-.7-4.3-1.3-8.6-1.4-12.9-.1-6.1,3.8-10.8,8.9-11.5,5-.7,9.8,2.5,11,8.7,2.4,12.6,4.2,25.3,6.1,37.9.9,6.3,1.6,12.5,2.5,19.3Z"/>
  <path class="cls-52" d="M1165.5,795c-.6-6.4-1.4-12.9-1.8-19.3-1.2-19.3-2.2-38.5-2.9-58.4,21.5-21.7,42.6-42.8,63.7-63.9.9-.9,1.3-2.2,2-3.3,19.6-1.3,39.3-2.7,58.9-4,.5,0,1,0,1.5,0,12.9-.6,14.6,1.1,14.2,14.7-7.8,8-15.2,15.3-22.6,22.7-9.7,9.8-19.3,19.6-29,29.5-6.2.6-12.4,1.1-19,1.7.3,5.3.7,10.4.7,16.1-20.5,20.7-40.7,40.8-60.9,60.9-1.4,1.3-3.2,2.2-4.7,3.3Z"/>
  <path class="cls-32" d="M970.8,565c-.4-11.3-.8-22.6-1.1-33.9-.5-24-1-47.9-1.4-72.8,1.1-2.1,1.9-4,3.1-4.3,4.3-1,8.7-1.4,13.1-2,7-1,13.9-2,21.3-3,1.1,0,1.9,0,2.8.3,9.7,4.1,19.2,7.9,28.7,11.7.8,28,1.5,55.9,2.2,84.8-.1,4.2-.1,7.5-.1,10.9-3.6.5-6.5,1-9.4,1.3-9.3,1.2-18.6,2.5-27.9,3.6-10.5,1.2-20.9,2.3-31.4,3.4Z"/>
  <path class="cls-3" d="M1165.5,795.5c1.7-1.6,3.5-2.5,4.8-3.8,20.2-20.1,40.4-40.2,60.8-60.5.5,2.3.8,4.8,1.1,7.7,6.2,0,12.1,0,18,0,9.5-.1,19-.3,28.4-.5,9.9-.3,12,1.8,11.4,12.2-1.8,1.6-3.3,2.7-4.5,4-10.7,10.7-21.4,21.4-32.1,32-5,5-9.2,11.4-17.6,11.1,0,0-.2.3-.3.4,0,1.3,0,2.6,0,4.7-.7,1.7-1.2,2.8-2,3.6-20,20.1-40.1,40.2-60.2,60.2-.9.8-2.4,1-3.6,1.5-1.4-24-2.9-48.1-4.2-72.6Z"/>
  <path class="cls-26" d="M1445.4,425.7c-24.2,8.8-48.4,17.2-72.9,25.8-1.2-7.5-2.1-15.2-3-22.9-1.5-13-3-25.9-4.6-38.9-1.3-10.3-3-20.6-4.2-30.9-.6-5,2.4-8.2,7.4-8.9,18.5-2.3,37-4.7,55.5-7,10.7-1.3,14.3,2.3,15,13.2.8,11.9,2.5,23.7,3.6,35.5,1.1,11.2,2.1,22.4,3.2,34Z"/>
  <path class="cls-48" d="M1092.5,256c2.4,5.6,5.8,10.8,6.7,16.3,1.5,8.8-4.1,16.6-12.9,20.4-7.7,3.3-16.7,1.7-22.4-4.8-2.7-3.1-4.9-3.2-8.5-2.1-14.7,4.3-28.4,10.6-40.1,20.6-3.3,2.8-6.1,6.1-8.8,9.5-5.5,6.9-12.3,8-18.2,1.5-5.6-6.2-10.5-13.3-14.8-20.6-5.2-8.9-9.6-18.3-13.9-27.6-4.3-9.5-2.4-17.2,5.6-24.1,10.2-8.8,23-12.4,35.3-17,6.5-2.4,13.2-4.2,19.2-6.1,1.2-4.5,1.5-8.8,3.4-12.4,7.7-15.1,28.5-16.1,39.4-1,10.9,15,20,31.4,30,47.5M1022.9,237.9c-6.5,2-13.2,3.6-19.5,6.1-8.9,3.6-17.6,7.8-26.2,12-3.4,1.7-4.2,4.6-2.2,8.3,3.8,7.2,7.1,14.7,11,21.8,3,5.5,6.5,10.7,10,16.5,15.6-16.4,34.1-26.2,55.4-32.3-7.3-10.5-14.1-20.3-20.7-30.3-1.9-2.9-3.9-3.8-7.8-2.2M1040.3,214.1c-4.3,2.1-3.9,5.6-1.8,8.8,8.7,13.1,17.6,26,26.4,39.1,3.4-2.1,6.3-4,10-6.3-8.1-12.4-16-24.8-24.6-36.8-1.8-2.5-6.1-3.3-10.1-4.7M1076.3,277c1,.3,2.3,1.2,3.1.9,1.4-.6,2.7-1.7,3.7-2.9.3-.3-.9-2.6-1.5-2.6-1.4-.1-3.1.2-4.4.9-.7.4-.8,2-.8,3.6Z"/>
  <path class="cls-49" d="M1008.5,449c-.7,0-1.5,0-2.8-.3-3.5-1.4-6.4-2.7-9.3-3.8-9.6-3.7-19.1-7.3-28.7-10.9-.7-26-1.5-51.9-2.1-77.9-.2-6.5,1-7.9,7.6-8.5,6-.5,12-.5,18-.6,11.5-.3,23-.7,34.4-1,7.4-.2,9.7,1.9,9.9,9.2.4,15.5.8,31,1.1,46.4.3,14.1.6,28.3.5,43-9.8,1.8-19.2,3.1-28.5,4.4Z"/>
  <path class="cls-13" d="M1546.6,694.4c-.7-7.5-1.5-14.6-1.8-21.7-4.7-91.6-19.4-181.5-44.1-269.8-.4-1.6-.9-3.2-1.2-4.8-.9-6.9,1.9-11.9,7.6-13.3,5.6-1.4,10.5,1.7,12.6,8.5,2.4,7.8,4.5,15.6,6.6,23.5,14.7,56.4,26.1,113.4,32.3,171.4,3.3,31.3,5.3,62.7,7.9,94,.2,2.3.2,4.7,0,7-.2,5.6-3.5,10.3-7.9,11.6-4.6,1.3-8.3-.5-12-6.4Z"/>
  <path class="cls-24" d="M1341.6,859.4c1.2-1.6,2.8-2.8,4.2-4.2,26.8-26.8,53.5-53.5,80.3-80.3,1.4-1.4,3-2.6,4.8-3.9,2,.3,3.7.9,5.4,1,8,.1,16,0,23.9.1,8.5.1,10.8,3.2,10.5,11.7-.5,11.1-.3,22.2-.5,33.3,0,1.2-.2,2.3-.5,3.4-.4-1.3-.5-2.5-.5-3-6.8,6.8-13.7,13.6-20.8,20.7h15.2c-5.3.2-10.5.7-15.8.6-12.1-.1-24.2-.6-36.3-.5-1.3,0-3.2,2-3.7,3.5-2.6,7-4.8,14.1-7.2,21.2-2.7,8.1-5.2,9.4-13.8,7.4-15-3.5-30-7.1-45.2-10.9Z"/>
  <path class="cls-24" d="M907.4,809.4c2.4-2.4,4.6-4.4,6.7-6.5,21.8-21.7,43.5-43.5,65.3-65.3,1.3-1.3,2.7-2.4,4.5-3.2-1,24.7-2.4,49-3.8,72.9,4,.8,6.7,1.4,9.5,2-1.2,1.6-2.2,3.3-3.5,4.7-17.7,17.8-35.5,35.6-53.3,53.7-6.1-1.5-12.2-3-18.1-5.2-5.3-2.1-8.9-6.6-8.9-12.2,0-13.5.9-27,1.6-40.8Z"/>
  <path class="cls-52" d="M796.4,841c-1.3-9.1-2.7-18.3-3.8-27.4-2-15.9-4-31.8-5.6-48,1.9-1,3.9-1.5,5.1-2.7,20.1-20,40.2-40.1,60.2-60.1,1.4-1.4,3-2.6,4.5-3.9,1.3,9.6,2.5,19.3,3.8,28.9,2,15.8,3.9,31.5,5.6,47.5-1.6.8-3.3.9-4.2,1.8-20.2,20-40.2,40.2-60.4,60.2-1.5,1.5-3.4,2.4-5.1,3.6Z"/>
  <path class="cls-10" d="M1274.7,556.1c-2,17.7-3.9,35.3-5.9,53-.4,4-.7,8-1.3,11.9-.7,4-3.3,6.3-7.4,5.8-18.5-2.1-36.9-4.5-55.4-6.6-4.9-.6-6.7-3.3-6.2-7.8,1.4-13.5,2.8-27.1,4.4-40.6,1.4-12,2.9-24.1,4.9-36.4,5.7-.6,10.7-.9,16-1,10.3,4.3,20.4,8.3,30.5,12.5,6.9,2.9,13.7,6.2,20.5,9.2Z"/>
  <path class="cls-62" d="M1169.6,868.5c1.3-.9,2.8-1,3.7-1.9,20.1-20,40.2-40.1,60.2-60.2.8-.8,1.3-1.9,2-3.2.7,6.5,1.4,13.4,2.1,20.9,21.2-1.4,42.1-2.7,63.5-3.6-.8,1.8-1.8,3.3-3.1,4.6-12.1,12.2-24.3,24.3-36.4,36.4-9,9.1-18,18.3-27,27.4-14.7,1-29.4,2.1-44.2,3.1-3.1.2-6.3.3-9.4.7-6.1.7-10-2.3-10.4-8.4-.4-5.1-.7-10.3-.9-15.8Z"/>
  <path class="cls-18" d="M1623.1,573.5c7.6,62.9,11.1,125.5,10.1,188.4-.2,13.5-.9,27-1.6,40.4,0,2.1-.6,4.3-1.5,6.2-2.3,4.9-6.7,7.4-11.2,6.5-4.9-1-7.2-4.6-7.9-9.2-.4-2.8-.3-5.6-.2-8.5.5-14.6,1.7-29.3,1.3-43.9-.9-39-1.9-77.9-4-116.8-1.3-23.6-4.9-47-7.4-70.5-.3-2.6-.5-5.3-.5-8,0-6.6,4.1-11.7,9.5-12.1,5.1-.4,9.6,3.3,10.8,9.7,1.1,5.7,1.7,11.5,2.6,17.7Z"/>
  <path class="cls-24" d="M1487.7,634c-.9,1.6-1.7,3.1-2.9,4.2-40.4,40.5-80.8,80.9-121.3,121.3-.9.9-2,1.7-3.4,2.5,5.3-15.8,10.5-31.9,16.6-47.6,8.5-21.8,17.9-43.3,30.8-63,4.1-6.2,8.7-12.2,13.5-17.9,3.3-4,8.2-5.3,13.4-5.6,12.9-.6,25.9-1.5,38.8-1.7,5.8-.1,11.8.8,14.5,7.7Z"/>
  <path class="cls-44" d="M585.5,502c.7,0,1.5,0,2.8.3,10.4,4.1,20.2,7.9,30,11.7-.3,16,5.6,29.4,17.2,40.4,4.1,3.9,4.1,6.9-.4,10.4-10.1,7.8-20.4,15.4-31,22.5-2.2,1.5-6.2,1.7-8.9.9-26-8-46.9-31.3-47.7-60.4-.2-6.6-.6-13.3-.4-20.4,7.7-1.3,14.9-1.9,22-2.9,5.5-.7,11-1.7,16.5-2.6Z"/>
  <path class="cls-60" d="M1426.3,1040.8c-3.2-10.1-6.6-20.3-9.7-30.5-2.7-8.7-5.2-17.4-7.6-26.6,13.3-24.9,26.4-49.3,39.5-73.7,18.9-5.8,37.7-11.5,57.7-17.6-13.6,25.4-26.7,49.6-40,74.4-13.5,25-26.7,49.5-39.9,74Z"/>
  <path class="cls-5" d="M1157.4,371c.7,19.4,1.4,38.7,1.6,58.6-14.8,2.2-29.2,3.8-43.5,5.7-8.6,1.1-17.2,2.5-25.8,3.8-.4-15.9-.7-31.9-1.1-47.8-.3-11.9-.7-23.9-1-35.8-.1-6.8,2.1-8.9,9.7-8.9.8.8,1,1.3,1.4,1.5,19.6,7.7,39.2,15.4,58.8,23Z"/>
  <path class="cls-54" d="M796.3,841.5c1.8-1.6,3.7-2.6,5.2-4.1,20.2-20.1,40.2-40.2,60.4-60.2.9-.9,2.6-1.1,4.2-1.4,2.7,20.9,5.1,41.5,7.5,62.9,0,1.2.2,1.7.4,2.2.1.8.2,1.5,0,2.7-1,.9-1.8,1.3-2.4,1.9-13,13-26.1,26-39,39.1-.9.9-1.4,2.2-2,3.3-7,1-14.1,2.2-21.2,2.9-4.8.5-7.7-2.3-8.4-7.8-1.2-9.4-2.3-18.7-3.3-28.1-.5-4.3-.9-8.6-1.3-13.3Z"/>
  <path class="cls-47" d="M1671.8,587.6c-4.9-33.8-9.1-67.3-14.9-100.5-4.6-26.7-11.3-53-16.9-79.4-.6-2.7-.7-5.6-.4-8.4.5-4.8,4.4-8.9,8.5-9.2,4.9-.4,8.7,1.9,10.2,6.4,2.4,7.1,4.2,14.3,5.9,21.6,10.6,45.2,19,90.8,25.1,136.8,2.4,17.8,4.2,35.7,6,53.5.4,4-.2,8.3-1.5,12.1-1.4,4.1-5,6.9-9.7,6.3-4.5-.6-7.8-3.5-8.5-8-1.3-8.4-2.1-16.8-3-25.2-.2-1.8-.4-3.6-.7-5.9Z"/>
  <path class="cls-54" d="M856.7,698.5c-1.5,1.7-3.1,2.9-4.5,4.3-20.1,20-40.1,40.1-60.2,60.1-1.2,1.2-3.1,1.6-5,2.3-2.6-18.9-4.9-37.6-7.2-56.3-.2-2-.3-4,0-6.4,1.3-1.1,2.4-1.6,3.2-2.4,16.5-16.5,33.1-33,49.5-49.6.9-.9,1.4-2.2,2.1-3.3,3-.4,5.9-1,8.9-1.1,4.7-.2,7.5,2.3,8,7,1.8,15,3.5,30,5.3,45.4Z"/>
  <path class="cls-24" d="M1004.8,874.7c.6-1.4,1.4-2.8,2.6-4,39.8-39.9,79.7-79.7,119.6-119.6,1.2-1.2,2.5-2.1,4.2-3.1.4,5.5.9,11.2.3,16.7-2.4,19.8-8.2,38.5-19.8,55.1-19.6,28.1-47.3,43.5-79.9,51.1-8.7,2-17.7,2.6-27,3.8Z"/>
  <path class="cls-24" d="M1010.1,627.2c-.4,1.3-1,2.7-2,3.7-31,31-62,62-93,93-.8.8-1.8,1.4-3,2.2,0-7.4,0-14.8.5-22.2.5-8.1,1.4-16.2,1.8-24.3.8-13.6,1.4-27.1,2.4-41.3,3.5-3.8,6.6-7.1,9.7-10.3,13.6.7,27.1,1.6,40.7,1.9,5.5.1,11.1-1.4,16.7-1.8,8.6-.5,17.2-.7,26.2-.9Z"/>
  <path class="cls-24" d="M1463.4,737.5c5.9-6.1,11.9-11.8,17.8-17.7,11.4-11.4,22.7-22.9,34.3-34.6,10.1,17.8,20.1,35.9,29.8,54.5-16.4,16.6-32.6,32.8-48.9,48.8-1.5,1.4-3.4,2.4-5.1,3.6-4.9-9.3-10-18.6-14.8-28-4.5-8.7-8.7-17.5-13.1-26.5Z"/>
  <path class="cls-24" d="M1024.3,692.2c9.6-9.4,19.2-18.9,28.8-28.3,6.6-6.5,13.3-13.1,20.2-19.8,17.6,7.7,30.9,20,41.4,35.6.8,1.2,1.6,2.5,2.5,4.1-1.5,1.4-3.3,2.4-4.6,3.7-19.2,19.1-38.4,38.2-58.2,57.1-.8-3.7-.7-7.2-1.2-10.6-2.9-18.6-11.5-33.2-28.9-41.8Z"/>
  <path class="cls-44" d="M1089.6,439.5c8.7-1.7,17.2-3.2,25.9-4.3,14.3-1.8,28.7-3.5,43.5-5.2,1.1,26.4,1.8,52.7,2,79.5-12.7-4.5-24.9-9.4-37.2-14.3-11-4.4-22.1-8.8-33.1-13.1-.4-14-.8-28.1-1.1-42.6Z"/>
  <path class="cls-57" d="M1491.3,792.4c1.7-1.5,3.6-2.5,5.1-3.9,16.2-16.1,32.4-32.2,48.9-48.5,9.3,16.3,18.2,32.7,27,49.8-9.7,10.3-19.3,20-28.9,29.7-8.6,8.6-17.3,17-25.9,25.5-8.7-17.4-17.4-34.8-26.2-52.6Z"/>
  <path class="cls-44" d="M509.3,512c-.9,15.4-1.8,30.8-2.6,46.2-.2,4-.2,8-.3,12-.2,6.3-3.2,9.1-9.4,8.8-17.7-1-35.4-2-53.2-2.9-5.3-.3-7.6-2.4-7.4-7.8.6-15.4,1.3-30.8,2.5-46.7,23.7-3.5,47-6.5,70.3-9.5Z"/>
  <path class="cls-38" d="M1223.5,534c-5,.3-10.1.6-15.6.9.7-11.2,1.8-22.5,3-33.7.8-7.6,1.9-15.1,2.5-22.7.7-8.8,2.7-10.6,11.4-9.6,17,1.9,33.9,3.8,50.8,5.9,7.3.9,8.4,3.2,7.4,10.8-1.8,13.5-3.2,27-5.2,40.9-1.7.4-2.9.3-4,.5-10.7,1.3-21.3,2.6-31.9,4.1-6.2.8-12.4,1.9-18.5,2.9Z"/>
  <path class="cls-32" d="M663.4,493.6c4.3-1.2,8.6-2,13-2.6,17.8-2.4,35.6-4.7,53.9-7,.9,2.9,1.5,5.8,1.9,8.7,1.2,8,5.1,14.3,12.2,18.3,3.6,2.1,4.3,4.8,2.3,8.3-6.9,12.1-13.7,24.2-21.2,36.4-6.1-1.8-11.5-3.8-17-5.8-9-3.3-18-6.6-27-9.9-10-9.6-14.4-22-16.8-35.2-.7-3.6-.8-7.2-1.2-11.3Z"/>
  <path class="cls-18" d="M1428.5,275c10.2.3,20.4.5,30.5,1.1,2.4.1,4.9,1.2,7,2.4,5.9,3.5,7.2,9.7,2.6,14.7-2.8,3.1-6.5,6.2-10.4,7.5-21.6,7-43.2,14.2-65.3,19.7-27.3,6.8-54.9,12.2-83.2,12.7-6.2.1-12.7-.4-18.6-2.2-9.4-2.9-11.8-11.7-5.6-19.4,7.2-8.8,17-14.3,27-19.3,3.9-2,7.6-.3,9.8,3.5,2.2,3.7,1.2,7.8-2.8,10.4-5.1,3.4-10.4,6.4-16,9.8,14.8,6.1,117.9-16.1,135-24.8-3.1-1.2-7.7-1.7-10.5-4.2-3.6-3.2-1.7-7.7.8-11.6-.2-.4-.2-.3-.2-.3Z"/>
  <path class="cls-5" d="M509.4,511.6c-23.3,3.5-46.6,6.5-70.3,9.5.8-21.4,2-42.7,3.2-64.1.2-3.7.1-7.3.3-11.4,22.7,8.5,45.4,17.5,68.4,26.5-.3,13.1-.9,26.1-1.6,39.6Z"/>
  <path class="cls-10" d="M393.4,424.6c-10.1-3.3-20.2-6.9-30.2-10.8-17.4-6.8-34.7-13.8-52.5-20.7-1.6-7.4-3.1-14.7-4.1-22.1-.6-4.8,2.3-7.4,6.9-8.1,13.9-2.3,27.9-4.5,41.8-6.8,5.4-.9,10.8-1.6,16.2-2.6,7.8-1.5,10.7.4,12,8.3,3.3,20.8,6.6,41.6,9.8,62.8Z"/>
  <path class="cls-22" d="M1426.7,1040.8c12.8-24.5,26-49,39.4-73.7,24.5,12.9,48.7,26,74.2,39.8-38.5,11.5-75.8,22.7-113.6,33.8Z"/>
  <path class="cls-13" d="M1583.8,378.7c12.7,44.5,22.6,89.3,30.4,134.5.5,3.2.4,6.7-.4,9.8-1.1,4.4-4.3,7.3-9,7.4-4.8.1-8.5-2.5-9.7-7.1-1.8-7.1-3.1-14.3-4.4-21.5-7.3-40.3-16.6-80-27.6-119.4-1-3.7-1.2-7.9-.5-11.6.7-3.9,3.8-6.6,8.2-6.9,4.4-.3,7.9,1.5,9.8,5.5,1.4,2.8,2.1,5.9,3.3,9.3Z"/>
  <path class="cls-46" d="M1090.6,482.5c11.1,3.9,22.1,8.3,33.2,12.7,12.3,4.9,24.5,9.8,37.1,14.8.5,10,.6,20,.5,30.8-11.2,2.2-22.1,3.8-33,5.1-11.9,1.5-23.8,2.8-35.7,4.2-.7-22.3-1.4-44.7-2.1-67.5Z"/>
  <path class="cls-18" d="M1571.1,463.4c5.8,32.1,11.5,63.8,16.9,95.6,1.9,11.1,3,22.4,4.2,33.6.3,2.5-.2,5.4-1.1,7.8-1.7,4.4-5,7.1-10,6.7-4.8-.4-8.1-3.3-9-8-1.5-8.3-2.2-16.8-3.6-25.1-6.6-38-13.3-75.9-19.9-113.8-.6-3.3-.9-6.9-.3-10.2.8-4.4,3.9-7.4,8.6-7.7,4.8-.3,8.6,2,10.1,6.5,1.6,4.7,2.5,9.6,3.9,14.8Z"/>
  <path class="cls-40" d="M1092.6,550.5c12-1.8,23.9-3.2,35.8-4.6,10.9-1.4,21.8-2.9,32.9-4.7.5,1.5,1,3.2,1,5,.4,12.5.6,25,1,37.4.2,6-2.1,8.6-8,9.2-.3,0-.7,0-1,0-17.5.4-34.9.8-52.4,1.1-6.6.1-8.3-1.7-8.5-8.1-.3-11.6-.6-23.3-.8-35.4Z"/>
  <path class="cls-38" d="M1296.6,426.1c-.2,19.2-16.4,36.5-35.9,39-23.6,3.1-42.9-12.5-47.4-32.3-.7-2.9-.7-5.9-.5-9.3,18.9-2.8,37.3-5.2,56-7.5,1.8.3,3.2.6,4.9,1.1,7.8,3.1,15.3,6,22.8,9Z"/>
  <path class="cls-56" d="M1235,888.9c8.6-9.2,17.5-18.4,26.6-27.4,12.1-12.2,24.3-24.3,36.4-36.4,1.3-1.3,2.3-2.8,3.5-4.5,2-.4,4-.7,6-.6,4.3,0,6.8,2.3,7.1,6.7.7,11,1.3,21.9,1.9,32.9.3,5.1.7,10.3.8,15.4.1,5.8-2.5,8.7-8.2,9.1-20.4,1.4-40.8,2.6-61.2,4-4.1.3-8.3.6-12.9.9Z"/>
  <path class="cls-25" d="M416.3,571c.4,2.1.9,4.2,1.2,6.4,1.1,9-.4,11-9.6,12.5-19,3-38.1,5.9-57.1,8.9-5.3.8-8.6-1.3-9.5-7-2.8-16.9-5.3-33.8-7.7-51.4,1.2-.5,2.2-.5,3.1-.2,14.9,5.9,29.8,11.9,44.8,17.7,11.6,4.5,23.2,8.7,34.8,13.1Z"/>
  <path class="cls-24" d="M1517.6,845.3c8.6-8.8,17.3-17.3,25.9-25.8,9.7-9.6,19.2-19.3,29-29.3,7.6,13.1,15.1,26.3,22.3,39.8,3.4,6.3,1.8,10.2-4.9,12.9-16.4,6.7-32.9,13.4-49.3,20.1-8.3,3.4-14,2.4-17.6-6.6-1.5-3.7-3.5-7.1-5.4-11Z"/>
  <path class="cls-48" d="M1598.6,717c0,8.8.5,17.2,0,25.5-.2,3.5-1.7,7.7-4,10.2-5.2,5.7-13.9,3.1-16-4.4-.7-2.5-.8-5.2-.9-7.9-1.1-32.4-2.2-64.9-3.4-97.3-.1-4.2-.8-8.3-.8-12.4,0-6.6,4.5-12,10-12.4,5.4-.4,10.2,4.4,10.9,11.4.8,8.3,1.5,16.6,1.9,24.9.9,20.6,1.6,41.2,2.3,62.4Z"/>
  <path class="cls-53" d="M815.5,306c1-3.4,2-6.4,3.1-9.8-8.1-.4-15.8-.9-23.5-1.1-3.3,0-4.8-1.2-4.8-4.7,0-3.5-.3-7-.8-10.4-.5-3.6,1.3-4.5,4.5-4.9,20.8-2.5,41.5-5.1,62.3-7.8,3.2-.4,5.2.2,6,3.5,1.1,5,2.2,10.1,3.3,15.1.7,3.2-.2,4.9-3.8,5.4-10.5,1.3-21,2.8-32.4,4.4,3.5,1.2,6.4,1.9,8.9,3.3,1.2.7,2.5,3.1,2.2,4.2-3.8,12.4-7.9,24.7-11.8,37-.9,2.8-2.4,3-4.9,2.1-4.5-1.6-9.1-3.1-13.8-4.4-3.3-.9-4.1-2.5-2.9-5.9,3-8.5,5.6-17,8.5-26Z"/>
  <path class="cls-48" d="M478.9,677.3c-6.1,1.7-11.9,3.5-17.7,4.8-1.3.3-3.8-1-4.4-2.3-6.9-13.9-6.7-13.7,7.3-20.1,15.6-7.1,31-14.7,46.4-22,6-2.9,6.2-2.9,9.7,3,2,3.4,4,6.9,6.2,10.3,2.1,3.3,1.6,5.4-2,7.1-8.9,4-17.8,8.2-26.7,12.3-.7.3-1.4.7-2.8,1.5,1.5.1,2.1.2,2.7.2q10.8.3,10.8,10.9c0,10-.1,20,.1,30,0,3.9-1.2,5.4-5.2,5.1-4.3-.3-8.7-.3-13,0-4.2.3-5.1-1.4-5-5.2.2-10.5,0-21,0-31.5,0-1.6,0-3.3,0-5.7-2.4.6-4.2,1-6.4,1.6Z"/>
  <path class="cls-43" d="M292.6,265.2c11.4-4.4,22.4-8.5,33.3-13,3.9-1.6,6.1-1.2,7.8,2.9,1.7,4.3,3.9,8.5,6.1,12.6,1.8,3.4.9,5.2-2.5,6.4-8.1,2.9-16.2,6-24.3,9-1.8.7-3.7,1.3-6,2.1.7.5.9.7,1.1.7,11.8.8,11.7.8,10.6,12.8-.8,9.4-1.7,18.9-2.2,28.3-.2,3.9-1.3,5.9-5.6,5.2-4.3-.6-8.6-1-12.9-1-3.7,0-5-1.4-4.6-5.1,1-10.3,1.8-20.5,2.6-30.8.2-2.1.3-4.3.5-6.9-7.1,1.5-13.9,3-20.6,4.2-7,1.3-7,1.2-9-5.3-3.6-11.9-3.6-11.8,8-15.7,5.8-2,11.6-4.1,17.7-6.3Z"/>
  <path class="cls-47" d="M1625.3,397.3c5.3,23.1,10.5,45.7,15.6,68.4.7,3,.8,6.3.3,9.4-.8,4.8-5,8.5-9.2,8.5-4.7,0-8.5-2.4-9.8-7.1-2.1-7.8-3.6-15.8-5.6-23.7-6.8-27.2-13.7-54.4-20.3-81.7-.9-3.6-1.2-7.6-.6-11.2.8-4.4,4-7.4,8.7-7.6,4.3-.2,8,1.9,9.5,6,2.2,5.7,3.9,11.6,5.6,17.5,2,7,3.8,14.1,5.8,21.6Z"/>
  <path class="cls-17" d="M1346.6,601.2c7.8-6.9,15.9-13.5,24.1-20,25.2-19.8,50.4-39.6,75.6-59.3.8-.6,1.6-1.1,2.7-1.9-.3,17.2-5.5,33-16,46.9-14.6,19.3-34.8,29.2-58.1,33-9.2,1.5-18.7,1.2-28.3,1.3Z"/>
  <path class="cls-47" d="M1502.1,569.2c-5.8-31.8-11.4-63.2-17.2-94.6-1.4-7.4.4-12.7,5.5-15,6.5-2.9,13,1.1,14.9,9.5,2.6,11.5,5.1,23.1,7.2,34.7,3.5,19.1,6.6,38.3,9.8,57.5.3,1.8.4,3.6.5,5.5.3,7.1-3.1,12.3-8.7,13.2-5.5.9-10.1-3.1-12-10.7Z"/>
  <path class="cls-40" d="M925.6,458.6c-6.3,1.3-12.8,2.5-19.3,3.4-17.5,2.3-35,4.6-52.5,6.8-11.8,1.5-23.6,2.8-35.4,4.3-7.4.9-14.7,2-22.5,3,13.2-19.1,32.7-28.7,55.1-32.9,18-3.4,36.1-3.7,53.5,3,7.4,2.9,14,8,21.1,12.4Z"/>
  <path class="cls-4" d="M1361.9,165.5c11,8,14,16.4,9.7,28.8-1.6,4.7-3.9,9.2-6.4,13.5-2.7,4.8-7.3,6.1-11.4,3.8-3.9-2.3-4.8-6.8-2.4-11.8,1.8-3.7,3.6-7.5,5.3-11.3,1.8-4.3.4-7.4-3.6-9.5-5.4-2.9-11-5.6-16.1-8.9-12.6-8-17-18.7-14-33.3,1-5,2.2-10.1,3.8-15,2.2-7,.3-12.4-5.5-16.6-2.1-1.6-4.5-3-6.3-4.8-3-3-3.2-6.6-.7-10,2.3-3.1,5.7-4.5,9.2-2.6,13.4,7,23.6,18.5,19.3,35.9-1.3,5.2-2.8,10.3-3.9,15.5-2.1,9.9.2,14.5,9.1,19.1,4.6,2.4,9.1,4.8,14,7.3Z"/>
  <path class="cls-31" d="M554.2,656.2c-15.4-1.3-13.6,1.8-12-15.8.2-2.7,1.5-3.2,4-2.9,22.7,2.2,45.4,4.3,68.1,6.3,4.1.4,5.5,1.8,5,5.9-1.3,12.1-1.2,12.1-13.3,11.4-3.8-.2-7.6-.7-11.4-1-3.6-.3-7.3-.7-12-1.1,1.5,1,2.1,1.5,2.9,1.8,8.2,3.7,8.6,4.5,4.3,12.5-6.2,11.5-15.4,19.4-28.4,22.5-3.1.7-5.1-.2-6.6-2.9-1.5-3-3.1-5.9-4.8-8.7-1.7-2.8-.8-4.3,2.1-5.1,10.4-3,14.8-10.9,17.6-21.1-5.3-.6-10.2-1.1-15.6-1.6Z"/>
  <path class="cls-13" d="M524.3,329.3c-.3,5.6-.8,11-1.7,16.4,0,.4-2.6.7-3.9.5-7.7-1.5-15.3-3.1-23-4.7-1.6-.3-3.2-.5-5-.8.1.6,0,1.1.3,1.2,7.1,5.1,7.4,6.3,2.3,13.3-7.4,10.1-16.9,16.7-29.6,18.6-4,.6-6.3-.5-7.6-4.4-.9-2.7-2-5.3-3.2-7.9-1.6-3.3-.6-4.9,2.9-5.5,10.5-1.8,15.6-9.1,19.4-18.8-8.1-1.8-15.8-3.6-23.6-5-3.7-.7-5-2.1-3.9-5.7.5-1.6.7-3.3,1.1-4.9,2.2-9.8,1.1-8.3,9.7-6.5,21.8,4.5,43.6,9.3,65.7,14.2Z"/>
  <path class="cls-34" d="M804.4,586.4c13.4-1.9,27-3.5,40.6-5.1,11.8-1.4,23.6-2.9,35.4-4.3,8.7-1,17.4-2,26.5-3-3.4,10.5-7.1,21.1-11.3,31.4-2.4,5.9-7.3,8.8-13.8,8.6-4.1-.1-8.3,0-13.1-.4-13.4-5.4-26-10.7-38.8-15.6-6.7-2.6-13.6-4.7-20.5-7-1.6-1.4-3.3-2.9-5.1-4.6Z"/>
  <path class="cls-21" d="M970.7,565.4c10.5-1.6,21-2.6,31.5-3.9,9.3-1.1,18.6-2.4,27.9-3.6,2.9-.4,5.8-.8,9.4-1.3,0-3.4,0-6.7,0-10.4.3,5,.7,10.4.9,15.9.3,7.5.4,15,.7,22.4.2,6.1-1.8,8.9-7.9,9.1-18.3.6-36.6,1-54.9,1.3-4,0-6.8-1.7-6.9-6.1-.3-7.6-.6-15.3-.8-23.4Z"/>
  <path class="cls-18" d="M1308.1,221.6c6.8-3.1,13.3-6.2,19.9-8.9,4.4-1.8,8.7.3,10.4,4.2,1.7,4.1.1,8.1-4.4,10.3-5.1,2.4-10.4,4.5-15.5,6.9-1.8.9-3.4,2.3-5,3.4.2.6.3,1.1.5,1.7,6-.5,12.2-.2,18-1.7,17.9-4.6,35.5-9.8,53.3-14.8,2.1-.6,4.1-1.5,6.1-2,4.4-1.2,7.5.7,9.3,4.6,1.8,4.2.4,7.7-3.5,9.7-4,2-8.2,3.8-12.5,4.9-19.4,5-38.9,10-58.5,14.5-4.9,1.1-10.3.3-15.4-.2-6.3-.7-11.4-3.7-13.4-10.3-2.1-6.7-.1-12.5,4.7-17.3,1.8-1.7,3.8-3.2,6-5Z"/>
  <path class="cls-56" d="M1226,650.1c-.2,1.2-.6,2.5-1.5,3.3-21.1,21.1-42.2,42.2-63.7,63.4-1.3-14.1-2.3-28.3-3.4-42.5-.3-3.8-.6-7.6-.8-11.4-.2-5.2,2.4-8.5,7.3-8.8,20.5-1.4,41.1-2.7,62-4Z"/>
  <path class="cls-13" d="M1639.4,327.1c2.9,9.8,5.8,19.2,8.4,28.6.7,2.5,1,5.3.8,7.9-.3,5-3.6,8.8-7.9,9.7-4.2.9-8.9-1.4-10.9-6.1-1.7-3.9-2.8-8.2-4.1-12.3-7-21.8-14-43.7-20.8-65.6-1.1-3.4-1.5-7.1-1.3-10.6.3-4.5,3.1-7.8,7.7-8.6,4.6-.8,8.1,1.2,10.4,5.3,1.1,2,2.1,4.2,2.8,6.4,5,15,9.9,30,15,45.4Z"/>
  <path class="cls-65" d="M416.4,570.6c-11.7-3.9-23.3-8.2-34.9-12.7-15-5.8-29.9-11.8-44.8-17.7-.9-.3-1.9-.3-3.1-.3-.5-1.6-.9-3.4-1.2-5.6,10.3-1.5,20.6-2.6,30.9-3.9,11.9-1.4,23.8-3,35.8-4.5,3.1-.4,6.2-.7,9.8-1,2.8,15.1,5.2,30.1,7.5,45.6Z"/>
  <path class="cls-31" d="M465.6,630.9c-3.6,6.6-6.9,12.9-10.8,18.8-.9,1.3-3.9,1.4-6,1.7-.9.1-1.9-.6-2.8-.9-9.8-3.5-9.9-3.5-7.6-13.5.8-3.4,0-4.8-3.8-5.1-12.9-1-25.8-2.5-38.8-3.6-3.6-.3-4.6-1.8-4.2-5.1.5-3.5.8-6.9,1-10.4.2-3,1.2-4.4,4.7-4.1,19.1,1.6,38.2,3,57.2,4.6,11.2.9,14.4,6.1,11,17.7Z"/>
  <path class="cls-58" d="M736.2,650c-1.3-.1-2.1-.1-2.9-.3-10.6-1.6-10.7-1.6-10.9-12.1,0-3.7-1.8-4.1-4.7-3.7-12.4,1.6-24.8,2.9-37.1,4.8-4.8.7-6.9-.6-7-5.4,0-.7-.1-1.3-.2-2q-1.1-11.7,10.4-13.2c16.6-2.2,33.3-4.5,49.9-6.8,9.2-1.3,14.7,2.8,13.7,11.9-.9,7.9-3.7,15.7-6.1,23.3-.5,1.5-3.1,2.4-5.1,3.5Z"/>
  <path class="cls-7" d="M600.7,351.2c-3.1,14-9.2,26-18.7,36.2-2.2,2.3-4.2,2.9-7,1.5-2.8-1.4-5.7-2.8-8.7-3.8-3.5-1.2-4-3.1-1.9-5.9,8.4-10.9,12.1-23.6,13.6-36.9,1-9.1,1.1-18.2,1.1-27.4,0-4.2,1.2-6.2,5.7-5.8,4.3.4,8.6.5,12.9.6,3,0,4.4,1.2,4.8,4.4,1.4,12.3,1,24.5-1.9,37.1Z"/>
  <path class="cls-31" d="M740,310.5c1-5.8,1.8-11.2,2.7-16.8-2-.4-3.6-.7-5.1-1.1-2.6-.8-7.2-1.6-7.3-2.8-.4-3.8.7-7.8,1.7-11.7.2-.7,2.6-1.3,3.8-1.1,12.1,2,24.2,4.2,36.3,6.4,2.6.5,3.4,1.8,3,4.6-1.7,10.6-1.6,10.6-12.5,9-.8-.1-1.6-.1-3-.2-1.1,6.5-2.2,12.9-3.3,19.7,5.1.6,9.5,1.2,13.9,1.5,4,.2,5.6,1.9,5,6-1.2,9.9-1.1,9.9-11,8.7-13-1.6-26.1-3.2-39.2-4.5-3.7-.4-5.1-1.6-4.5-5.3,1.9-11-1.7-10.7,11.2-9.3,2.6.3,7.3,3.6,8.2-3.1Z"/>
  <path class="cls-11" d="M1448,910.1c-12.7,24.4-25.8,48.8-39.1,73.3-5.9-18.5-11.6-37.2-17.5-56.6,18.9-5.6,37.6-11.2,56.6-16.7Z"/>
  <path class="cls-18" d="M1309.7,262.2c1.1-1.1,1.9-1.9,2.8-2.6,6.5-5.6,12.3-3.4,15.2,6.9,13.6-2.9,27.5-5.3,41-8.9,8.9-2.4,17.3-6.5,25.9-10,4.7-2,9.1-.9,11.1,3.1,2.2,4.1,1.1,8.9-3.8,10.9-11,4.6-22,9.5-33.5,12.3-14.9,3.7-30.3,5.5-45.5,8-2,.3-4.3-.2-6.4-.6-11.2-2.2-14-9.5-6.8-19Z"/>
  <path class="cls-4" d="M1392.3,114.4c1.9,4.1.6,7.1-2,9.8-1.3,1.3-2.7,2.5-3.9,3.9-4.9,5.6-5.5,9.5-1.4,15.7,3.8,5.9,8,11.4,12,17.1,9.4,13.6,11.1,27.8,2.9,42.6-2.7,4.9-6.7,6.8-11,4.9-4.3-1.9-6-6.5-3.4-11.4,5.7-10.8,3.5-20.4-3.5-29.7-4.3-5.7-8.7-11.4-12.1-17.7-8.8-16.2-.3-29.7,11.5-38.4,4-2.9,7.9-1.2,10.9,3.1Z"/>
  <path class="cls-19" d="M656.5,660c14.6-5.1,11-7.1,17.8,6.9,2.7,5.5,2.4,6-3.4,8.3-5.6,2.2-11.2,4.1-17.6,6.5,2.3.7,4.1,1.2,6,1.8,0,2.8.2,5.6,0,8.4-.7,7.5-1.6,14.9-2.4,22.3-.3,2.9-1.6,4.2-4.6,3.7-.2,0-.3,0-.5,0-16.7-2.5-13.1,1.8-12.1-15,.3-5.8,1.2-11.5,1.9-18.1-5.5,1-10.3,1.8-15.1,2.9-4,.9-6.1-.2-7.1-4.4-2.4-9.6-2.5-9.4,7-12.6,9.9-3.3,19.8-7,30-10.6Z"/>
  <path class="cls-10" d="M1273.4,416.9c-1.4-.3-2.8-.6-4.8-1.2-16.1-6.4-31.6-12.6-47.1-18.7,12.6-17.7,40.6-21.8,57.9-8.6,8.1,6.2,13.7,13.9,15.8,24.2-5.3,1-10.1,1.5-14.9,2.3-2.3.4-4.6,1.3-6.8,2Z"/>
  <path class="cls-62" d="M834.1,647.1c-.3,1.2-.8,2.4-1.6,3.3-16.5,16.6-33,33.1-49.5,49.6-.8.8-1.9,1.3-3.1,2-1.3-6.1-2.3-12.3-3.1-18.5-.9-7.1-1.7-14.1-2.2-21.2-.4-5.8,1.8-8.3,7.5-9.1,11.5-1.5,23-2.8,34.5-4.1,5.7-.7,11.5-1.3,17.7-1.9Z"/>
  <path class="cls-7" d="M387.9,328.5c-3.6,1-6.9,1.7-10,2.9-2.9,1.1-4.6.6-5.9-2.4-2-4.7-4.3-9.4-6.7-14-1.5-2.8-.3-3.8,2.1-4.8,17.9-7.1,35.8-14.3,53.7-21.5,2.4-1,4-1,5.2,1.7,1.8,4,3.6,7.9,5.6,11.7,1.3,2.5.8,4.3-1.7,5.9-13.1,8.7-27,15.8-42.4,20.6Z"/>
  <path class="cls-53" d="M712.2,285.3q4.8,12.7-6.8,18.7c-15.2,7.8-31.3,12.8-48.2,15.4-1.3.2-3.5-1-4.1-2.2-2.2-4.8-3.9-9.9-5.9-14.8-1.5-3.8,1.6-3.7,3.6-4.3,13.7-4.1,27.4-8,41.1-12.1,4.3-1.3,8.6-2.6,12.6-4.6,4.5-2.3,6.4-.6,7.6,4Z"/>
  <path class="cls-28" d="M674.8,786.1c14.2-4.7,27.3-3.2,39.5,4.5,4.6,2.9,8.8,6.8,7.9,12.8-.8,6-5.8,8.8-11,10.4-13.4,4.3-26.4,2.9-38.2-4.8-11.7-7.6-11-16.3,1.7-22.9Z"/>
  <path class="cls-18" d="M1428.5,275c-.5,0-1-.2-1.5-.2-3.8.5-7-.7-8.8-4.2-1.9-3.8-.6-7,2-10,8-9.2,9.9-19.7,6.2-31.2-2.7-8.5-6.6-10.6-15.3-8.9-4.4.9-8.3-1.2-9.6-5.1-1.3-4.2.6-8.2,5-10.2,10.1-4.6,21.8-1.5,29,7.7,13.6,17.4,10.1,47.7-7.2,61.8,0,.3,0,.3,0,.3Z"/>
  <path class="cls-39" d="M1250,713c9.2-9.9,18.8-19.7,28.6-29.5,7.4-7.4,14.8-14.8,22.6-22.3,1.1,13.5,2.1,27,2.8,40.7.3,5-2.1,7.9-7.2,8.3-15.4,1.1-30.8,2-46.7,2.8Z"/>
  <path class="cls-18" d="M1374.3,284.9c7.7-3.5,15-7,22.4-10.3,3.5-1.6,6.9-1.4,9.6,1.5,2.7,2.9,3.1,6.4.8,9.6-1.6,2.2-3.9,4.2-6.3,5.5-16.3,8.9-34,13.4-52.4,14.6-2.7.2-5.7-.4-8.2-1.6-5.8-2.7-7.4-8.4-3.9-13.7,1.8-2.7,4.2-5.2,6.9-7.1,4.9-3.5,9.4-1.5,13.5,5.9,5.7-1.4,11.5-2.8,17.6-4.4Z"/>
  <path class="cls-62" d="M1236,798c-.4,0-.3-.3-.2-.3,8.4.3,12.6-6.1,17.6-11.1,10.7-10.6,21.4-21.4,32.1-32,1.3-1.3,2.8-2.3,4.5-3.5.4,12.8.6,25.6.5,38.4,0,4.8-3.1,7.5-8,7.6-15.3.3-30.7.6-46.4,1Z"/>
  <path class="cls-6" d="M256.7,448.8c-2.5-3.9-5.7-5.2-9.9-5-5.4.3-10.8,0-16.2,0-.2-.5-.4-1.1-.7-1.6,3.5-2.8,6.9-5.9,10.7-8.3,5.6-3.5,7.8-8.1,7.1-14.6-.5-4.4,0-8.8,0-13.2.5-.2,1-.4,1.5-.6,2.5,3.1,5.4,6,7.4,9.4,3.9,6.7,9.4,9.3,17,8.3,3.9-.5,7.8,0,11.8,0,.2.5.4,1,.6,1.4-3,2.4-5.7,5.2-8.9,7.1-7,4.1-9.9,9.7-8.8,17.8.5,3.8,0,7.7,0,11.6-.5.1-1.1.3-1.6.4-3.2-4.1-6.4-8.3-9.9-12.7Z"/>
  <path class="cls-29" d="M1342.2,903.7c1.1-1.7,2.1-3.2,3-4.6.4.1.7.2,1.1.3.7,5.5,1.6,11,2.2,16.6.4,3.8,1.9,6.5,5.3,8.4,5,2.8,9.9,6,14.6,10.2-5.6.8-11.3,1.8-16.9,2.3-3.9.4-6.4,2.1-8.3,5.4-2.8,4.9-5.8,9.6-9.9,14.4-.6-3.2-1.6-6.5-1.6-9.7.2-9.4-3.7-15.7-12.5-19.2-3-1.2-5.5-3.4-8-6.3,5-.7,10-1.9,15-2.1,5.3-.2,8.7-2.5,10.9-7.2,1.4-2.8,3.2-5.4,5-8.5Z"/>
  <path class="cls-55" d="M811.6,393.3c4-5.7,7.7-11.1,11.5-16.4.4,0,.8.2,1.2.3.4,5.2,1.1,10.3,1.1,15.5,0,4.8,1.8,8.2,5.9,10.6,4.5,2.7,8.8,5.9,13,10.1-4.8.5-9.5,1.4-14.3,1.2-6.3-.2-10.2,2.5-13.2,7.8-2.2,4-5.1,7.6-8.9,11.2-.5-5.3-1.2-10.7-1.3-16,0-4.7-1.8-7.8-5.8-10.2-4.6-2.8-8.9-6-13-10.3,5.2-.4,10.4-.6,15.6-1.3,2.7-.3,5.3-1.5,8.2-2.6Z"/>
  <path class="cls-61" d="M1379.5,649.9c1.6.3,2.9.6,4.1.9l.4,1.3c-4.3,2.3-8.4,4.9-12.8,7-4.7,2.2-7.6,5.3-8,10.9-.4,5-1.7,9.9-2.7,14.9-.4,0-.9.2-1.3.3-2.6-4.7-5.3-9.4-7.7-14.1-1.9-3.7-4.5-5.9-8.7-6.5-5.4-.7-10.7-1.8-17.6-3.1,2.4-1.7,3.7-2.8,5.2-3.6,2.9-1.7,5.7-3.4,8.8-4.7,4.6-2.1,7.4-5.1,7.8-10.5.4-5.1,1.7-10.1,3.9-15.6,1.7,3,3.9,5.9,5,9.1,3.1,9.2,9.8,12.7,18.9,13,1.5,0,2.9.5,4.8.9Z"/>
  <path class="cls-31" d="M399.4,681.1c-4.8-1.9-5-4.3-2.9-8.6,4.3-8.8,8.1-17.8,11.4-27,1.5-4.3,3.5-5.5,7.6-4.4,4,1.1,8.1,2,12.1,2.8,3.8.8,5.3,2.5,4.3,6.7-2.6,11.3-7.8,21.2-15.4,29.8-5.8,6.6-6.7,6.7-14.3,2.4-.9-.5-1.7-1-2.9-1.7Z"/>
  <path class="cls-31" d="M716.2,671.6c-2.7,5.9-5.2,11.6-8,17-1.6,3.1-4.3,4-8,2.9-12-3.5-11.7-3.3-9.1-15.5,1.6-7.4,2.6-15.1,3.3-22.7.4-4.4,1.7-6.8,6.6-6.4,4.3.4,8.7.1,13,.2,3.2,0,5.2,1.5,4.8,4.9-.7,6.4-1.7,12.8-2.7,19.6Z"/>
  <path class="cls-30" d="M830.9,887.9c.2-1.2.7-2.5,1.6-3.3,13-13.1,26-26.1,39-39.1.6-.6,1.3-1,2.3-1.5,1.6,10.1,3,20.3,4.2,30.5.6,4.8-1.8,7.9-6.8,8.6-13.3,1.7-26.6,3.3-40.4,4.8Z"/>
  <path class="cls-35" d="M1591.8,288.8c3.5,10,7.1,19.7,10.1,29.5.8,2.5.4,5.6-.3,8.3-1.1,3.9-4,7.3-8.1,6.8-3.4-.4-8.3-2.5-9.3-5.1-4.5-10.8-8.1-22.1-11.4-33.3-1.3-4.6,2.6-10.3,6.6-11.7,4.4-1.6,8.7.2,12.4,5.6Z"/>
  <path class="cls-31" d="M580.6,632.9c-5.8-1-11.2-2.1-16.7-2.8-3-.4-3.8-1.7-3.6-4.6,1-14.7,1-14.8,15.4-12.6,8.4,1.3,16.7,2.7,25.1,4,.3,0,.6-.1,1.1-.2.2-1.4.3-2.8.5-4.1,8.5-1.7,10.6-1,11.2,3.7q.9,7.6-6.5,8c-.5,2.4-1.3,5-1.4,7.5-.2,4.2-2.3,4.9-5.9,4.3-6.2-1.1-12.5-2.1-19.1-3.1Z"/>
  <path class="cls-53" d="M1543.5,422.2c-2.2-3-4.9-5.5-5.9-8.6-2.6-7.7-4.5-15.6-6.5-23.5-.5-2-.7-4.3-.5-6.4.5-4.7,4.1-8.7,8.4-9.3,4.8-.6,9,1.4,10.5,5.8,3.4,10.4,6.7,20.8,8.7,31.5,1.5,8-7.5,14.7-14.6,10.4Z"/>
  <path class="cls-35" d="M1478.3,438.3c-1.4-2.1-2.9-3.8-3.5-5.8-2.4-8.1-4.6-16.3-6.6-24.5-1.6-6.5,1.8-12.1,7.7-13.6,5.2-1.3,10.5,2,12.4,8.2,2.4,8.1,4.6,16.3,6.7,24.5,1.3,5-.2,9.3-4.5,12.3-4.1,2.8-8.1,2-12.2-1.1Z"/>
  <path class="cls-4" d="M470.9,300.4c3.8-13,2-10.9,13.5-7.7,9.6,2.7,19.1,5.7,28.7,8.2,3.7,1,5,2.5,3.5,6.3-1.3,3.2-1.7,6.8-3.2,9.9-.6,1.2-3.1,2.6-4.2,2.3-12.3-3.3-24.6-7-36.9-10.6-5.6-1.6-1.7-5.3-1.5-8.5Z"/>
  <path class="cls-33" d="M548.6,349c-5.7.6-7.4-1.7-7.3-6.9.1-8.3-.4-16.6-.8-24.9-.2-3.8.9-5.5,4.9-5.3,4.6.3,9.3.2,13.9,0,2.9,0,4.8,1.2,4.6,3.9-.6,10.4-1.3,20.8-2.4,31.1-.1,1.1-3.2,2.3-5,2.6-2.4.3-4.9-.3-7.9-.6Z"/>
  <path class="cls-40" d="M1157.5,370.5c-19.7-7.2-39.3-14.9-58.9-22.6-.4-.2-.6-.7-1-1.4,17.4-.7,34.8-1.2,52.2-1.5,5.2,0,7.6,2.3,7.7,7.6.1,5.8,0,11.6,0,17.9Z"/>
  <path class="cls-49" d="M1223.7,534.3c6-1.3,12.1-2.3,18.3-3.2,10.6-1.4,21.3-2.8,31.9-4.1,1.1-.1,2.3,0,3.9,0-.6,9.5-1.7,18.9-2.9,28.7-7.1-2.8-13.8-6-20.8-8.9-10-4.2-20.2-8.2-30.5-12.5Z"/>
  <path class="cls-45" d="M1221.3,397.2c15.8,6,31.3,12.1,47.1,18.5-18.2,2.6-36.6,5-55.4,7.3-1-9.7,2.4-18,8.3-25.8Z"/>
  <path class="cls-33" d="M363.7,275.8q-6.8-7.8,1.8-12.8c10.1-5.8,10.2-5.9,19.3,1.5,2.9,2.4,5.5,5.3,8,8.1,2.2,2.5,1.8,4.6-1.3,6.4-4.5,2.5-8.8,5.3-13.2,8-2.4,1.5-4.2,1.3-6-1-2.7-3.4-5.5-6.6-8.5-10.2Z"/>
  <path class="cls-35" d="M642.5,261.9q13.9-3.9,21.3,7.9c5.8,9.2,5.4,10.3-4.9,13q-12.2,3.3-17.3-8.2c-1.5-3.5-2.9-7-4.5-11,2-.7,3.5-1.2,5.4-1.8Z"/>
  <path class="cls-35" d="M683.1,265.6q-6.8,4.3-11.8-1.6c-2.8-3.3-5.6-6.6-8.4-9.9-1.9-2.2-2-4.1,1-5.5,1.2-.6,2.2-1.5,3.5-2,3.5-1.5,8.3-5,10.4-3.8,5.8,3.3,10.5,8.5,15.3,13.2.4.4-.7,3.3-1.8,4.3-2.4,2-5.3,3.5-8.2,5.4Z"/>
  <path class="cls-5" d="M585.3,501.7c-5.3,1.2-10.7,2.2-16.3,2.9-7.2.9-14.4,1.6-22,2.4-2.5-7.4-4.5-14.8-6.6-22.6,12.9,4.6,25.8,9.5,38.7,14.5,2,.8,3.9,1.7,6.1,2.8Z"/>
  <path class="cls-47" d="M967.6,434.5c9.6,3.2,19.2,6.8,28.7,10.4,2.9,1.1,5.8,2.3,9,3.8-6.7,1.3-13.7,2.3-20.7,3.3-4.4.6-8.8,1-13.1,2-1.2.3-2,2.2-3,3.8-.3-7.3-.6-15.1-.9-23.3Z"/>
  <path class="cls-5" d="M809.6,591.3c6.7,2,13.6,4.1,20.3,6.7,12.8,4.9,25.4,10.2,38.3,15.5-18.1-.8-35.2-5.9-50.6-16-2.8-1.8-5.3-4-8-6.3Z"/>
  <path class="cls-46" d="M618.4,513.5c-9.8-3.3-19.6-7.1-29.7-11.2,6.6-1.2,13.3-2.2,20.1-2.8,2.9-.2,5.8.5,9,1.1.3,4.3.5,8.4.5,12.9Z"/>
  <path class="cls-57" d="M1464,838.1c-5.5,0-10.5,0-15.5,0,7.1-7.1,14-13.9,20.8-20.7,0,.5.1,1.8.3,3.4,0,3.5,0,6.6,0,9.7,0,3.6-1.5,6.4-5.5,7.5Z"/>
  <path class="cls-65" d="M1008.7,449.3c9.1-1.6,18.5-2.9,28.2-4.2.5,5,.5,10,.6,15.4-9.6-3.3-19.1-7.1-28.8-11.2Z"/>
  <path class="cls-38" d="M681.6,540.3c8.9,3,17.9,6.3,26.9,9.6,5.4,2,10.9,4,16.7,6-1.8,3.6-5.2,4.9-9,3.7-12.7-4-24.7-9.4-34.6-19.3Z"/>
  <path class="cls-37" d="M868.8,399.5c-7.5.8-8.5,6.9-10.9,12.3-1.3-7.6-5.4-12.1-13.4-13.3,7.4-1.9,12.2-5.7,13.4-13.7,1.7,7.6,5.9,11.9,13.2,13.7-.7.3-1.3.6-2.3,1Z"/>
  <path class="cls-25" d="M1273.8,417.1c1.9-.9,4.2-1.8,6.5-2.2,4.8-.8,9.7-1.3,15-1.9.9,4.1,1.3,8.3,1.6,12.7-7.7-2.6-15.2-5.5-23-8.6Z"/>
  <path class="cls-16" d="M628.7,624.2c-7,4.5-9.2,3.3-13-6.6,7.2-5.8,9.3-5.6,13.8,1.9.6,1-.3,3-.8,4.7Z"/>
  <path class="cls-2" d="M713.5,245.9c6.2-3.6,10.6-2.2,12.9,4.3.3,1-.4,3.1-1.3,3.6-2.3,1.3-6,3.4-7.2,2.6-2.6-1.9-4.1-5.4-6-8.4-.2-.3.8-1.2,1.5-2.1Z"/>
  <path class="cls-2" d="M698.6,246.9c0-2.7-.9-5.7,2.8-5.3,3.2.3,7.6-1.7,8.7,3.9,1.5,7.5-.5,9.6-7.6,8.2-3.9-.8-3.6-3.7-4-6.9Z"/>
  <path class="cls-57" d="M926.1,627.9c-2.7,3.3-5.8,6.6-9.2,9.9-.4-7.2,1.9-9.8,9.2-9.9Z"/>
  <path class="cls-20" d="M716.9,823.9c1.7,2.2,3.8,4.3,5,6.7.7,1.4,0,3.5-.1,5.3-.6,0-1.1.1-1.7.2-1.1-3.8-2.2-7.7-3.2-11.9.1-.4.1-.3,0-.3Z"/>
  <path class="cls-30" d="M874,840.6c-.3-.2-.4-.7-.5-1.5.2.2.4.7.5,1.5Z"/>
  <path class="cls-50" d="M1023.9,692.1c17.7,8.6,26.4,23.3,29.3,41.8.5,3.4.5,6.9.9,10.7,0,2.7-.2,5.1-.5,8.2,0,.8,0,1,0,1.2-1.4,27.7-22.3,50.3-49.8,54-4.4.6-8.9.7-13.8,1.2-3.2-.5-5.9-1.1-9.9-1.9,1.4-23.9,2.8-48.2,4.1-72.9.7-15.1,1.5-29.9,2.3-45.2,12.7-2.6,24.9-1.3,37.4,2.9Z"/>
  <path class="cls-24" d="M1053.8,753.9c-.2,0-.2-.3-.1-.7.2,0,.3.1.4.3,0,0-.1.2-.3.4Z"/>
  <path class="cls-12" d="M1023.3,237.8c3.5-1.5,5.5-.6,7.4,2.3,6.6,10,13.5,19.7,20.7,30.3-21.3,6.1-39.8,16-55.4,32.3-3.5-5.8-7.1-11-10-16.5-3.9-7.2-7.1-14.6-11-21.8-2-3.8-1.2-6.6,2.2-8.3,8.6-4.2,17.3-8.4,26.2-12,6.3-2.5,13-4.1,19.9-6.2Z"/>
  <path class="cls-8" d="M1040.7,214c3.6,1.5,7.9,2.2,9.7,4.8,8.5,12,16.4,24.4,24.6,36.8-3.7,2.4-6.6,4.2-10,6.3-8.8-13-17.7-26-26.4-39.1-2.1-3.2-2.5-6.6,2.2-8.8Z"/>
  <path class="cls-8" d="M1076.1,276.7c.2-1.4.3-2.9,1-3.3,1.3-.7,3-1.1,4.4-.9.6,0,1.8,2.3,1.5,2.6-.9,1.2-2.3,2.3-3.7,2.9-.8.3-2-.6-3.3-1.2Z"/>
</svg>