<?xml version="1.0" encoding="UTF-8"?>
<svg id="Layer_1" data-name="Layer 1" xmlns="http://www.w3.org/2000/svg" version="1.1" viewBox="0 0 1920 1027">
  <defs>
    <style>
      .cls-1 {
        fill: #020202;
      }

      .cls-1, .cls-2, .cls-3, .cls-4, .cls-5, .cls-6, .cls-7, .cls-8, .cls-9, .cls-10, .cls-11, .cls-12, .cls-13, .cls-14, .cls-15, .cls-16, .cls-17, .cls-18, .cls-19, .cls-20, .cls-21, .cls-22, .cls-23, .cls-24, .cls-25, .cls-26, .cls-27, .cls-28, .cls-29, .cls-30, .cls-31, .cls-32 {
        stroke-width: 0px;
      }

      .cls-2 {
        fill: #feffff;
      }

      .cls-3 {
        fill: #51eaff;
      }

      .cls-4 {
        fill: #51ccff;
      }

      .cls-5 {
        fill: #3c99d4;
      }

      .cls-6 {
        fill: #54cdff;
      }

      .cls-7 {
        fill: #ffb951;
      }

      .cls-8 {
        fill: #248acb;
      }

      .cls-9 {
        fill: #4fe5ff;
      }

      .cls-10 {
        fill: #69e5ff;
      }

      .cls-11 {
        fill: #cb51ff;
      }

      .cls-12 {
        fill: #52cdff;
      }

      .cls-13 {
        fill: #0979ba;
      }

      .cls-14 {
        fill: #fffbf6;
      }

      .cls-15 {
        fill: #3d99d4;
      }

      .cls-16 {
        fill: #50e5ff;
      }

      .cls-17 {
        fill: #51b2ff;
      }

      .cls-18 {
        fill: #0978ba;
      }

      .cls-19 {
        fill: #51b4ff;
      }

      .cls-20 {
        fill: #ffb551;
      }

      .cls-21 {
        fill: #53e6ff;
      }

      .cls-22 {
        fill: #fdfefe;
      }

      .cls-23 {
        fill: #ff6004;
      }

      .cls-24 {
        fill: #50ccff;
      }

      .cls-25 {
        fill: #fffbf8;
      }

      .cls-26 {
        fill: #54ceff;
      }

      .cls-27 {
        fill: #51e5ff;
      }

      .cls-28 {
        fill: #53cdff;
      }

      .cls-29 {
        fill: #2489cb;
      }

      .cls-30 {
        fill: #fffdfa;
      }

      .cls-31 {
        fill: #51cdff;
      }

      .cls-32 {
        fill: #fdfeff;
      }
    </style>
  </defs>
  <path class="cls-2" d="M1334,1c4.7,0,9.4,0,14.2.4.5.7.8,1.3,1.2,1.4,9,1.8,18.1,3.3,27.1,5.3,14.9,3.3,25.9,11.7,31.4,26.1,3,7.7,4.2,16.1,10.7,22.3,1.8,1.7,2.5,4.8,3.3,7.4,3.9,12,1.7,23.5-1.8,35.3-4.6,15.6-9.4,30.8-25,39.3-.6.3-1,1.3-1.1,2-1.7,8.7-3.3,17.4-5,26.5,1.6,0,3.1.2,4.5,0,10.2-2.1,19.7.5,28.3,5.5,20.4,11.9,40.4,24.6,60.9,36.4,18.4,10.5,29.2,25.6,31.6,46.9,23.3,6.8,46.8,13.6,70.7,20.5,0-2.6-.2-4.4,0-6.2,1.1-10.6,4.1-20.5,11.7-28.5,9.1-9.5,20.4-13.4,33.2-13.6,7.8-.1,15.7,0,23.5,0,9.1,0,17.2,2.7,25.5,6.7,4.8,2.3,11.1,2,16.7,2.4,6.4.4,13.1-.6,19.3.6,14.6,2.8,24.5,13.2,33.9,23.8,11.5,13,13.7,33.7,3.5,49-1,1.5-1.6,3.9-1.2,5.6,3,12.3-1,23-7,33.3-4.1,7.1-8.6,14-12.9,21-7.4,12-17.7,20-32,22.2-1.1,12-4.7,22.8-14.2,31,.9.6,1.5,1.2,2.2,1.4,19.3,5.1,38.5,10.2,57.8,15.2,15,3.9,29.6,7.8,40.3,20.6,6.9,8.3,11.4,17.5,12.5,27.7,1.9,18.1-3.1,34.3-17.3,46.7-13.4,11.7-28.9,16.3-46.4,12.5-11.9-2.6-23.6-6.3-35.4-9.4-30.9-8.2-61.8-16.3-92.7-24.5-9.5-2.5-19.1-5.2-28.6-7.8,18.9,21.3,30,46,33.1,73.8,3.2,28.1-1.8,54.9-17.2,78.7,7.9,6.8,14,14.4,16.2,24.2,2.8,12.1,2.6,24.1-4.4,35.3-1.3,2.1-1.6,5.5-1.1,8.1,3.1,15.9-1.4,29-13.9,39.4-3.2,2.7-6.8,4.9-9.9,7.1,4.4,4.6,9.4,8.8,13.1,13.9,13,17.8,21.9,37.7,24.3,59.7,2.8,26-6.1,47.8-27.7,63.7-2,1.5-4.7,3.8-4.9,5.9-1.3,16.2-5,31.9-10.4,47.2-5.2,14.8-15.8,25.2-30.6,30.3-17.5,6-35.7,7.8-54.1,5-10.7-1.6-21.5-3.1-31.8-6.1-16.3-4.7-31.1-12.6-43.5-24.4-5.9-5.7-11.6-11.5-15.5-15.4-7.3,6.3-14.2,12.8-21.7,18.6-13.6,10.5-29.2,13.6-45.4,7.9-13.1-4.6-24.8-12.4-34.8-22.5-2.1-2.1-4.2-3-7.3-3.2-8.2-.3-16.4-.7-24.5-2-27.6-4.5-51.4-16.8-71.2-36.6-1.3-1.3-3.6-1.9-5.6-2.2-5.3-.9-10.7-1.9-16-1.9-4.5,0-9.3-1.8-13.6,1-4.7,3-9.4,6.2-14.2,9.1-21.7,13.4-45.6,19.9-70.8,20.4-13.1.3-26.3-2.7-40-4.2-4.2,10.7-11.7,20.3-21.1,28.9-11,10-22.5,19.1-35.1,27-27.9,17.6-58.3,27.3-91,29.5-15.9,1.1-31.8-.5-47.5-3.9-32.1-7-60.3-21.4-84.6-44.1-1.8,1.9-3.4,4.1-5.5,5.8-11.7,9.6-23.7,18.8-35.3,28.5-11.7,9.8-24.9,15.7-40.2,15.6-11.4,0-22-3.5-32-9.7-29-17.9-58.3-35.3-87.6-52.8-1.1-.7-3.8-.5-4.7.4-3.2,3-6,6.5-8.9,9.9-8.5,9.7-16.1,20.3-27.8,26.7-19.6,10.8-39.6,11.3-57.8-1.1-14.4-9.8-27.3-22.2-39.8-34.5-15.5-15.2-18.6-42.1-8.6-61.2,4-7.6,9.4-14.5,13.5-20.7-6.2-5.3-13.6-10.2-19.2-16.6-5.7-6.5-9.8-14.5-14.8-22.2-12.7,5.9-26.1,12.3-39.7,18.5-25,11.4-50,22.7-74.9,34-10.4,4.7-20.6,9.6-31.1,14-18.7,7.8-36.8,5.6-52.9-6-13.6-9.7-20.5-24-21.7-40.8-.2-2.4-.2-4.1-2.5-6.2-9.6-8.5-16.2-18.9-17.4-32.1-.7-7.3-2.5-13.7-8.9-18-.8-.5-1.5-1.3-2-2.2-7.6-12.7-12.1-25.9-9.2-41.1,2.2-11.7,7.2-22.3,16.2-29.5,8.4-6.7,18.4-11.8,28.2-16.4,24.8-11.7,49.9-22.9,74.9-34.1,11.4-5.1,23-9.8,34.5-14.6,1.9-.8,4.1-1.1,6.9-1.9-10.6-7.7-20.5-14.8-30.2-21.9-18.5-13.6-37-27.3-55.5-40.9-9.8-7.2-18.1-15.5-21.9-27.3-2.7-8.5-4.7-17-3.2-26.1,1.3-8.1,1.3-16.3,2.2-24.5,1.2-11.2,2.7-22.3,3.9-33.5.8-7.2,1.3-14.3,2.1-21.5,1.2-11.2,2.7-22.3,3.9-33.5.8-7.2,1.2-14.3,2.1-21.5,1.2-10.3,2.6-20.7,3.9-31,1-8.4,1.5-16.9,3.1-25.2,2.4-12.7,8.3-24,19.4-30.7,13.7-8.3,28.4-15.2,42.6-22.6-6.5-13.5-13.9-27.8-20.4-42.6-2.9-6.7-4.9-14.1-5.5-21.3-1-13,3.8-24.6,12.6-34.4-7.7-5.2-12.7-12.4-16.7-20.2-6.2-12.1-7.4-25.6-10-38.6-2.7-13.5-5.4-26.9-7.5-40.5-1.8-11.6-6.2-22.8-3.7-35.1,2.7-13.3,9-23.9,21.1-29.7,16.4-7.8,34.2-10.3,52.3-11.2,1.9-.1,4.2-.2,5.5-1.3,6.5-5.8,14.2-9.4,22.5-11.6,6-1.6,12.5-2.1,18.2-4.4,9.8-3.8,19.5-5.3,29.3-1.6,7.1,2.7,14,6.3,20.6,10.1,10.3,5.9,17,15,20.1,26.5,1.4-.6,2.8-1.1,4.1-1.8,13.4-7,27.1-8.1,41.3-2.9,2.6,1,5.7.9,8.6,1,8.9.3,17.9.1,26.8.8,5.9.5,11.7,2.1,17.5,3.2,10.6,1.9,19.9,6.3,26.6,14.9,4.5,5.9,9,11.8,13.1,17.3,5.3-.4,10.6-.7,15.9-1.4,1.6-.2,3.9-1.3,4.4-2.6,5.6-14.4,16.5-22.5,30.9-26.3,24.4-6.4,48.9-12.6,73.4-18.6,12.7-3.1,25.1-6.7,38.8-4.7,21.6,3.2,39.4,19,43.9,39.5,1.9,8.7,3,17.8,2.9,26.6,0,7.8-2.2,15.7-3.6,23.5-.6,3.6.4,4.6,4,4,1.9-.4,4-.6,5.9-.3,6.7,1.2,13.3,2.6,20,3.9,11.4,2.2,22.7,4.6,32.2,12,2.1,1.6,4.5,3.3,7,3.9,12.6,2.9,25.2,5.3,37.8,8.3,3.1.7,3.8.8,5.2-2.4,6.8-16.1,21.3-26.8,39.5-26.6,13.6.1,27.2,1.7,40.8,2.9,9.3.8,18.6,1.3,27.7,3.1,13.2,2.6,24.4,9.2,32.6,20.2,3.1,4.3,5.8,8.9,8.8,13.4,4.5-3.4,9.1-7,13.7-10.5,8.9-6.8,18.7-11.6,30.2-11.2,10.5.3,19.9,3.8,28.1,11.6.7-1.8,1.2-3,1.7-4.3,4.7-11.4,12.4-19.9,24.1-24.5,6.1-2.4,12-5.1,14.8-11.9,1.1-2.6,3.8-4.6,6-6.5,5.1-4.3,10.4-8.4,15.5-12.6,9.5-7.8,20.3-12.5,32.6-11.5,6,.5,11.1.4,16.7-2.1,13.4-6,27.9-4.1,42-5.1,4.2-.3,8.4,0,12,0,3.6-11.6,7.1-23.6,11-35.5,4.2-12.8,13-21.6,25.5-26.2,11-4,22-2.9,33,.7,1.6.5,3.7.4,5.2-.3,5.5-2.4,11-5.1,16.4-7.8.8-.4,1.3-1.3,2-2M288.8,111.2c2.3,3.9,4.6,7.7,6.9,11.6,1.7,2.8,4,4.2,7.1,2.7,12.9-6.1,25.8-12.2,38.7-18.4,4.1-2,3.8-4.7,1.3-8.1-3.7-4.9-7.4-9.9-10.7-15.1-2.6-4-5.1-4.9-9.4-2.4-10.3,6.1-20.9,11.7-31.4,17.5-1.6.9-3.4,1.6-5.5,2.5-1.6-8.7-3.3-16.7-4.6-24.7-.6-4.1-2.5-5.5-6.4-4.8-7.8,1.6-15.6,3.3-23.5,4.7-3.6.7-4.7,2.6-4,6,4.9,25.5,9.6,51,14.6,76.4,3.3,16.8,12.4,22.9,29.4,20.2,10.2-1.6,20.4-3,30.6-4.6,8.9-1.3,17.8-2.6,26.6-4.1,5.8-.9,8.2-3.5,7.4-8-1-5.7-2.3-11.4-3.5-17.1-.7-3.6-2.5-4.8-6.4-4.1-15.4,2.7-30.9,5-46.2,7.7-3.7.6-5.6-.5-6.2-3.8-2-11.4-3.9-22.9-5.5-34.6,0,0,.2-.2.8.2M1532.4,663.4c29.1-18.7,42.4-45.4,38.4-79.7-2.9-24.7-14.4-45.1-34.9-59.9-15.3-11-32.8-15.9-51.3-17.3-42.7-3.2-82.4,17-95.5,63-13.4,46.9,11.8,93,58.7,106.7,18.8,5.5,37.5,4.6,56.4.8.3,15.2.5,30.3.9,45.5.2,6.9,4.1,9.3,10.2,6.2,5-2.5,9.9-5.3,15-8,4.7,8.7,9.1,16.9,13.6,25.2,7.6-4.1,14.5-7.9,21.7-11.7-4.6-8.7-8.9-16.8-13.4-25.2,5.1-2.8,9.9-5.3,14.7-8,6-3.4,6.4-7.9.9-11.9-1.2-.9-2.5-1.7-3.7-2.6-10.7-7.5-21.4-15.1-31.5-23.1M380.2,296.8c-.4-.7-.9-1.4-1.2-2.2-10.7-24.5-21.5-49.1-32.2-73.6-5.2-12-9.4-13.7-21.7-8.4-14.5,6.2-29.1,12.4-43.6,18.5-9.4,4-10.6,7.3-6.1,16.6,8.6,17.8,17.3,35.6,25.9,53.5,4.1,8.5,7.9,17.2,11.1,25.9-22.3,9.8-44.5,19.5-66.7,29.3-5.5,2.4-9.3,6.3-10,12.7-1.6,15.2-3.3,30.4-5,45.6-2.5,22.8-5.1,45.6-7.7,68.4-2.3,20.8-4.5,41.7-6.9,62.5-1.1,9.5-1.7,18.1,7.7,24.9,49,35.5,97.6,71.3,146.4,107.1,6,4.4,12.1,4.9,18.8,2,55.6-24.5,111.2-48.9,166.8-73.5,2.3-1,4.3-2.9,7.1-4.2,7.9,9.8,16.5,19.2,23.5,29.6,8.6,12.7,5.4,25.6-7,34.9-6.9,5.2-14.7,8.2-23.2,9.8-7.9,1.4-9.4,3.9-6.6,11.3,4.3,11.7,8.7,23.4,13,35,3.5,9.3,5.9,11.1,15.7,9.1,11-2.2,21.9-5.2,33.2-7.4-6.2,7.3-12.3,14.7-18.6,22-19.9,22.8-40,45.5-59.9,68.4-2.2,2.5-3.8,2.6-6.7.8-18-11.1-36.1-22-54.2-32.9-10.3-6.2-19.8-4-26.2,6.1-5.5,8.7-10.8,17.6-16.1,26.5-6.9,11.5-4.5,20.9,7,27.8,11.8,7.1,23.7,14.2,35.5,21.4,3.5,2.1,6.9,4.4,10.4,6.7-1,1.4-1.5,2.2-2.1,3-11.2,12.8-22.3,25.6-33.5,38.3-8.1,9.3-8,18.9,1,27.2,7.3,6.8,15,13.2,22.5,19.7,11.4,9.9,21,8.9,30.8-2.6,12.9-15.1,26.1-29.8,39-44.8,2.7-3.2,4.7-3.4,8.3-1.2,38.2,23.3,76.5,46.5,114.8,69.7,8.6,5.2,15.2,4.8,23-1.5,14-11.2,27.8-22.8,41.9-33.9,7.4-5.8,9.7-13.1,8.3-22-4.4-28.7-8.8-57.4-13.2-86.2-4.6-29.9-9.4-59.7-13.7-89.6-1.5-10.8-6-18.4-17-21.4-3.3-.9-6.5-2.5-9.7-3.8-13.1-5.3-26.2-10.6-38.7-16.2,3.5-3,7.2-5.9,10.5-9.2,20.3-19.8,29.7-46.1,15.2-74.8-5.2-10.4-13.2-19.5-20.1-29-6.6-9.1-14.2-17.6-20.2-27.2-6.9-11-3.8-22.8,7.6-29.1,6.5-3.6,14.1-5.5,21.4-7.5,6.4-1.7,8.6-4.6,6.2-10.7-4.9-12.9-10-25.7-14.9-38.6-1.6-4.3-4.7-6.5-9.1-6.4-4.6,0-9.3.5-13.9,1.1-17.6,2.7-33.9,9.1-49.4,16.9.6-6.8,1.3-13.6,2.1-21.2.2-.5.4-.9.6-1.4,10.7-45.5,21.5-90.9,32.2-136.4,1.1-4.7-.6-7.1-5.5-8.3-17.5-4.1-34.9-8.2-52.4-12.3-6.2-1.4-8.4,0-9.9,6.3-3.3,13.7-6.6,27.5-10.6,41.1-1.6-1.1-3.3-2.2-4.9-3.3-10.2-7.3-20.4-14.6-30.6-22.7,2.2-6.3,4.5-12.5,6.5-18.8,8-25.2,16-50.3,23.8-75.6,1.8-6-.1-9.7-6.1-11.7-16.4-5.6-32.8-10.9-49.3-16-6.1-1.9-8.8-.2-11.2,5.8-3.3,8.2-6.3,16.5-9.5,24.7-5.9,15.1-11.9,30.3-18.3,44.9-5.6-4.4-11.5-8.1-19-4.8-11.6,5.1-23.2,10.3-35.4,15.1M878.7,718.2c-18.1,1.1-35.6,4.5-52.4,11.5-24.7,10.4-44.6,26.5-57.3,50.5-16.3,30.8-19.4,63.4-11,96.9,14.7,58.6,70.9,96.3,131.9,90.5,35.6-3.4,65.1-20.1,90.3-44.9,5.6-5.6,6-8.7,2.2-15.5-6.5-11.6-13-23.3-19.5-34.9-4.7-8.3-9.3-9-16-2.4-9.4,9.3-20.2,16.3-32.6,20.8-16,5.7-32.3,6.7-48.3.3-23.7-9.3-35-29.3-32.8-56.3,2.2-26.6,17.7-44.7,43.6-49.3,18-3.2,35.4-.4,51.9,7.8,8,4,11.4,2.7,14.3-5.6,4.2-11.8,8.3-23.5,12.5-35.3,4.5-12.9,3.6-15.3-8.7-21.4-.4-.2-.9-.5-1.3-.7-20.8-9.9-42.8-12.9-66.6-12.1M1414.4,750.9c4.7-11.9,9.3-23.9,14-35.8,2.8-7.1,1.5-10.6-5.8-13.1-15.9-5.4-31.9-10.6-47.9-15.6-7.2-2.2-11,0-13.6,6.9-4.1,10.7-8.1,21.5-12.2,32.2-4.7,12.3-9.3,24.5-14.2,37.2-1.8-1.2-3.2-2-4.6-2.9-14.4-9.6-30.1-15.8-47.4-16.8-48.4-3-84.1,40.3-85.4,79.6-1,29.7,11.6,53.6,35,71.5,22.6,17.4,48.3,21.9,76.1,17.6,1.6-.2,4.3.7,5.1,2,6.7,10.5,16.1,18.1,26.7,24.3,7.8,4.5,11,4.2,16.9-2.5,8.3-9.5,16.4-19.3,24.7-28.9,2.6-3,2.7-5.5-.3-8.2-5.4-4.9-8.5-10.8-8.8-18.3-.5-12.6,2.6-24.5,6.8-36,11.2-30.9,23.1-61.7,35-93.2M1100.1,521.6c-1.6,1.2-3.3,2.2-4.9,3.5-22.3,17.9-35.4,40.8-35,69.7.6,36.5,27.2,69.7,62.9,80.3,17.3,5.1,34.7,5.6,52.3,1.5,2.4-.6,4.6-1.4,6.5,1.5,6.9,10.2,16.7,17,27.5,22.5,8.5,4.3,11.7,3.8,17.5-3.7,7.4-9.7,14.5-19.6,21.9-29.1,3-3.9,2.7-6.7-1.1-9.6-5.6-4.3-8.3-10.1-9.1-17.1-1.4-12.9,1.3-25.3,5-37.3,13.2-43.4,26.9-86.7,40.4-130,2.5-8.1,1.2-11.3-6.7-13.5-16.2-4.4-32.5-8.5-48.8-12.5-7-1.7-10.4.6-12.7,7.7-4.7,14.9-9.3,29.8-13.9,44.8-2.7,8.7-5.4,17.3-8.2,26.2-30.5-17.7-61.1-23.8-93.6-4.7M1000,376.6c-7.7,20.1-9.8,40.5-2.6,61,12,34.3,46.5,57.2,84.4,56.3,19.8-.5,37.9-6.6,54.1-18,1.7-1.2,4.9-2.5,6.3-1.7,9.7,5.1,20,8,30.9,9.2,9.1,1,12.2-.5,14.9-9.1,3.6-11.8,7-23.6,10.6-35.4,1.4-4.6.1-7.4-4.5-8.7-7.3-2.1-12.1-7.1-14.7-13.9-2.3-6-4.7-12.3-5.3-18.6-2.1-22.3-3.6-44.8-5.1-67.2-.6-8.2-3.5-11.2-11.7-10.4-13.6,1.2-27.2,2.6-40.7,4.1-4.9.6-10.1,1.2-14.4,3.2-2.8,1.3-5,1.7-7.8,1.4-4.3-.5-8.6-1-12.9-1.2-37.8-1.5-66.5,15.6-81.4,48.9M988.4,301.5c-2-1.2-3.8-3.3-6-3.6-17.6-2.9-35.2-5.4-52.8-8-6.7-1-8.7.8-9.7,7.4-4.2,28.6-8.4,57.3-12.7,85.9-1.5,10.1-1.6,10.1-11.6,12.4-12.4,2.9-22.2-1.2-25.9-11.8-1.8-5.4-2.8-11.4-2.7-17.1.4-24,1.4-48,2-71.9.2-7.8-1.7-9.8-9.5-10-15-.4-30-.7-45-.9-7.1-.1-9.8,1.7-10.7,8.9-1.5,12.4-2.7,24.8-3.4,37.3-1.1,18.1-2.7,36.3-2.2,54.4.5,20.9,7.8,39.6,24.9,52.9,18.3,14.2,39.7,16.8,62,15.1,8.6-.6,17.3-2.4,25.7-1.6,16,1.5,31.9,4.6,47.9,6.9,5.1.8,7.5-.9,8.5-6,.7-3.4,1.2-6.9,1.7-10.3,5.6-38,11.2-76.1,16.7-114.1,1.2-8.4,2.1-16.8,2.7-25.9M882.3,515.9c-12.7,3.3-25.4,6.7-38.2,9.7-5.2,1.2-7.1,4.5-7.2,9.3,0,2.5.2,5,.7,7.4,2,11,3.9,21.9,6.3,32.8,4.1,18.2,7.2,36.7,13,54.2,10.9,32.6,35.4,48.3,69.5,46.7,15.9-.7,30.6-5.8,44.9-12.5,2.4-1.1,4.9-2.2,7.5-2.5,16.3-2.1,32.7-3.9,49.1-5.9,8.5-1,9.7-3,8.6-11.5-3.6-28.6-7.1-57.1-10.6-85.7-2.4-19.2-4.7-38.3-7.1-57.5-.6-5-3.3-7-8.3-6.4-17.7,2.1-35.3,4.3-53,6.5-6.9.9-8.3,3.1-7.5,10.1,3.9,30.7,7.7,61.4,11.4,92.1.2,1.3-.5,3.5-1.5,4.1-4.3,2.6-8.6,5.2-13.2,6.8-10.1,3.5-18.5.2-23.7-9.1-2.6-4.6-4.7-9.6-6-14.7-5.3-21.1-10.1-42.4-15.2-63.5-3.4-14.1-4.4-14.6-19.6-10.7M1030.3,737.7c-27.4,14.5-41.4,37.8-44.8,68.2-4.8,43.6,22.6,82.5,65.2,92.2,31.7,7.2,60.3-.6,85.7-19.5,57.1-42.4,36.5-117.5-10.7-141.6-31.3-16-63.2-14.2-95.4.6M1532.1,954.8c2-2.5,5.1-4.8,5.9-7.7,2.8-10.2,5.1-20.6,7-31.1,1.1-6.3-2.1-9.3-8.6-9.1-1.8,0-3.6.4-5.4.7-17.8,3-34.2,1-47.8-12.2-11.6-11.3-15.1-31.2-7.8-44.2,7.3-13,24.5-16.4,33.8-6.7,3.8,4,3.5,6.8-1.5,9.3-4,2-8.2,3.6-12.4,5.4-3.8,1.7-5.4,4.1-3.3,8.3,4.1,8.2,8,16.5,11.8,24.8,1.9,4.1,5.1,5.9,9.3,4.6,15.5-4.9,31.3-9.1,46.3-15.3,15.9-6.6,21.4-19,17.7-35.8-1.7-7.6-4.2-15.1-7.5-22.1-9.3-19.3-24.2-32-45.6-35.9-21.3-3.9-41.7.2-61.5,8.2-42.3,17.4-62.4,64.2-45.6,106.7,12.7,32.2,36.9,50.1,70.6,55.3,14.7,2.2,29.5,2,44.6-3.1M691.2,539.7c-.4,12.2-.9,24.3-1.3,36.5-.2,5.7,2,7.9,7.7,8,6.5.1,12.9,0,19.6,0,.3,2.4.5,3.9.7,5.3,1,10.1,1.2,20.4,3.3,30.3,2.6,12.1,5.7,24.4,10.7,35.6,9.2,20.7,27.6,29.7,48.9,33.6,10.1,1.9,12.5.5,16.1-9.1,4.2-11,8.1-22.2,12.4-33.2,1.7-4.4,1.1-7.2-3.6-9-6.3-2.3-10.6-6.8-13.2-12.9-5.3-12.3-5.8-25.4-6.4-38.8,6.2,0,12,0,17.8,0,4.9,0,7-2.1,7.2-6.9.6-14.6,1.2-29.3,1.8-43.9.2-6.3-1.7-8.5-8.1-8.7-5.8-.2-11.6,0-16.8,0,0-11.6,0-22.2,0-32.8.1-10.5-1.5-12.3-11.9-12.5-12.7-.1-25.3-.2-38-.3-20.6-.2-21.4-2.9-21.3,20.6,0,7.8,0,15.5,0,23.4-4.5,0-7.6,0-10.8,0q-14.1-.4-14.9,15M1250.2,423.3c11.8,3,23.5,6,35.3,9,5.7,1.4,8,0,9.4-5.6,19.1-74.7,38.2-149.4,57.3-224.2,1.5-5.7,0-8.1-5.6-9.5-17.2-4.4-34.5-8.8-51.7-13.2-6.2-1.6-8.4-.2-10,6.1-4.2,16.4-8.4,32.8-12.6,49.3-14.7,57.6-29.5,115.3-44.2,173-1.9,7.6-.9,9.2,6.8,11.2,4.8,1.3,9.7,2.5,15.3,3.9M749.3,289.1c-4.2-.9-8.6-3-12.7-2.6-9.9,1.1-19.8,2.8-29.4,5.4-15.9,4.3-30.7,11.1-42.2,23.5-9.5,10.2-14,22.2-8.9,35.7,2.8,7.3,7.2,14.2,12.2,20.4,6.2,7.8,13.8,14.4,20.5,21.8,5.2,5.7,4.8,11.5-1,16.6-2.7,2.3-6.1,4.2-9.4,5.3-4,1.4-8.4,1.8-12.6,2.8-5.5,1.3-6.7,3.5-4.3,8.5,4.6,9.8,9.3,19.5,14,29.3,3,6.2,5.6,7.8,12.3,6.7,10.3-1.6,20.8-3,30.8-5.7,16.8-4.6,32.6-11.8,45.2-24.4,13.6-13.6,16.2-29.9,7-45.9-2.7-4.7-6.2-9.1-9.8-13.2-5.8-6.4-12.3-12.2-18.2-18.6-9.1-9.8-7.1-17.3,5.7-21.2,4.4-1.3,9.1-1.7,13.7-2.5,4.9-.9,6.4-3.3,4.2-7.8-5.4-11.2-11.1-22.4-17.1-34.1M1297.6,561c-6.9,41-13.8,82-20.6,123-1.6,9.6-.7,10.5,9.2,12.2,16.4,2.7,32.8,5.6,49.2,8.4,6.1,1,8.6-.7,9.7-6.9,7.4-44.6,14.9-89.2,22.4-133.8,1.1-6.6-.3-8.6-7.1-9.8-14.8-2.5-29.6-4.6-44.3-7.4-16-3.1-16-2.5-18.4,14.3M1315.9,157.5c-.7,3.5.7,5.1,4.3,5.8,7.5,1.3,15,3,22.5,4.6,3.5.7,5.6-.4,6.4-4.3,2.2-11.9,4.6-23.8,7-35.7,1.8-9.2,3.7-18.4,5.7-27.9,3.9,1.1,7.2,2.2,10.6,3,2.7.7,4.9.2,5.8-3,1.8-6.4,3.9-12.7,5.8-19.1,1.1-3.6-.1-5.6-3.9-6.6-4.1-1-8.1-2.5-12.3-3.9,1.2-6.1,2.2-11.7,3.3-17.2.7-3.7,0-6-4.4-6.6-5.7-.8-11.4-2.3-17.1-3.5q-10.3-2.1-12.5,8.4c-.3,1.3-.8,2.6-.8,3.9-.1,4.5-2.1,5.1-6.1,3.7-11.4-3.8-22.9-7.1-34.3-10.7-3.9-1.2-6.3-.6-7.4,3.8-1.4,5.5-3.3,10.8-5,16.2-1.9,6.1-1.6,6.8,4.8,8.8,12.4,3.9,24.8,7.6,37.1,11.6,1.4.5,3.6,2.2,3.5,3.1-.5,4.6-1.7,9.2-2.8,14.4-5.1-4.4-9.5-8.3-13.9-12-5.1-4.4-5.5-4.4-10.2.4-10.8,11-22.5,20.8-37.2,26.2-3.8,1.4-4.4,3.7-2,6.9,3.3,4.4,6.7,8.7,9.8,13.2,2.4,3.5,5.7,4.7,9.5,3.7,7.5-2.1,15.2-3.8,22.2-7,6.3-2.9,11.8-7.6,18-11.7-2.1,10.4-4.1,20.6-6.2,31.7M1020.6,231.2c5.9-2.2,12.1-3.8,17.6-6.8,8.1-4.5,16.1-6.9,25.2-4.6,3.2.8,6.4,1.6,9.6,2.5-1.6,3-3.2,6-4.9,8.9-2.2,3.8-5,4.7-9.1,2.3-3.1-1.8-6.7-2.9-10-4.4-4.8-2.1-8.9-1.9-12.3,2.7-1.9,2.5-4.1,4.9-6.4,7-3.4,3-2.6,5.3.7,7.6,4.4,3.2,8.9,6.4,14,10.1-1.6,1.3-2.8,2.2-3.9,3.1-7.8,6.2-15.5,12.6-23.4,18.6-5.5,4.2-5.7,4.8-.7,9.8,2.8,2.8,5.7,5.6,8.4,8.5,3.4,3.6,7.2,4.5,11.6,1.7,7.7-4.9,15.5-9.7,23.2-14.7,3.7-2.4,7.2-7.1,10.9-7.3,3.7-.2,7.6,4,11.5,6.2.1,0,.3.2.4.3,2.9,2.2,5.4,1.9,7.8-.9,4.4-5,8.9-9.9,13.6-14.7,3.3-3.3,2.9-6.1-.5-8.7-3-2.3-6.1-4.5-9.3-6.9,1.3-1.8,2.5-3.2,3.4-4.8,5.2-10,11.3-19.6,15.3-30.1,4.8-12.3-1.7-21.7-14.1-22.7-9.6-.7-19.2-1.6-28.9-2.1-8.3-.4-16.1-1.2-20.1-10.3-1.5-3.5-4.1-2.6-7-.7-12.3,8.2-24.7,16.2-37.2,24.1-2.9,1.8-3.6,3.6-1.7,6.5,3.9,5.8,7.6,11.7,11.7,17.4.8,1.2,2.7,1.6,4.9,2.4M517.3,684.8c5.3-2.5,10.7-4.7,15.8-7.4,7.5-3.9,9.4-12.7,4.5-19.6-4.4-6.3-10.3-7.3-19.5-3.1-76.1,34.7-152.3,69.5-228.4,104.4-2.5,1.1-4.9,3-6.5,5.1-3.7,4.9-3,11.5,1.3,16.6,3.8,4.5,9.9,5.7,16.4,2.8,19.3-8.7,38.5-17.5,57.7-26.3,52.7-24,105.4-48.1,158.7-72.4M1397.5,207c-3.4,5.3-6.8,10.6-10.2,16-3.9,6.3-3.8,6.7,2.4,10.4,12.9,7.7,25.6,15.5,38.6,23.1,3.8,2.2,4.3,4.5,1.6,8-5.2,6.9-10.2,14-15.4,20.9-4.9,6.6-4.9,6.6-12.6,3.1-11.2-5.1-22.5-10-33.6-15.3-3.8-1.8-5.7-1-7.1,2.9-2.1,5.9-4.6,11.8-7.2,17.5-1.7,3.7-.9,5.8,2.8,7.4,20.4,9,40.7,18.2,61.1,27.2,7,3.1,8.3,2.6,12.8-3.7,13.1-18.3,25.8-36.9,39.2-54.9,7.4-9.9,3.5-19.9-5.1-24.9-20.8-12.2-41.5-24.6-62.3-36.9-1.3-.8-3-.8-5.1-.8M1446,379.5c1.4.4,2.9.8,4.3,1.2,39.5,10.6,79,21.1,118.4,31.7,4.8,1.3,9.6,1.7,13.8-1.5,4.5-3.5,6.4-8.2,5.2-13.7-1.4-6.5-6.2-9.4-12.2-11-29.5-7.8-59.1-15.7-88.6-23.6-37.1-9.9-74.1-19.8-111.2-29.7-4.7-1.2-9.2-1.7-13.4,1.3-4.2,3.1-6.4,7.3-5.8,12.5.8,6,4.2,10,10.2,11.6,26.2,7,52.3,14,79.2,21.3M1625,272c0,39,0,78,0,116.9,0,4.5,1.3,6.3,6,6.2,7.5-.3,15-.3,22.5,0,4.5.2,5.7-1.7,5.7-5.9-.2-16,0-32,0-48v-5.7c2,.9,3.1,1.3,4,1.8,8.6,4.7,17.3,9.3,25.9,14,3,1.6,5.7,2.7,8-1.3,4.4-7.6,9.1-15.1,13.7-22.6,2.1-3.4,1.8-6.1-2.2-7.4-12-3.9-23.9-7.9-36-11.3-1.9-.5-5,1-6.6,2.6-2.4,2.2-4.1,5.3-6.7,8.9,0-16.4,0-31.4,0-46.4,0-3.9-1.2-5.9-5.4-5.8-7.8.2-15.7-.1-23.5.2-1.7,0-3.3,1.9-5.1,3.8M296.9,809.4c-12.3,5.6-24.5,11.1-36.8,16.7-15.1,6.9-30.3,13.8-45.3,20.8-7.9,3.7-10.8,11.6-7.3,18.6,3.6,7.2,11.4,9.2,20.2,5.1,36.3-16.6,72.6-33.1,109-49.7,20.1-9.2,40.2-18.4,60.4-27.6,5.1-2.3,8.5-5.9,9.1-11.5,1-11.4-9.6-18-20.9-12.9-29.2,13.3-58.4,26.7-88.3,40.4M1735.6,506.9c1.9.5,3.9,1,5.8,1.4,9.5,2.1,17.4-4.8,16.6-14.4-.5-6.2-4.7-10.3-13-12.5-48.2-12.9-96.4-25.7-144.6-38.6-11.7-3.1-23.4-6.4-35.2-9.4-8.6-2.2-15.5,1.7-17.5,9.6-1.9,7.2,2.2,13.8,10.2,16.3,3.3,1,6.7,1.9,10.1,2.8,55.6,14.9,111.1,29.8,167.5,44.9M582.5,228.9c-18.8,3.7-33.4,21.2-33.5,40.1-.1,19.6,12.6,36.9,30.8,41.9,18.9,5.2,38.7-2.6,48.3-20.1,8.8-15.9,7.4-31.7-3.2-46.5-8.9-12.4-26.6-19-42.4-15.5M1304.4,520c10.3,19.8,31.3,28.3,52.3,21.3,19.2-6.5,31.4-27.4,27.1-47.8-3.6-17.4-14.4-29-31.6-33-17-4-31.9,1-42.8,14.8-10.6,13.4-12.3,28.3-5.1,44.8M966.3,186.8c3.6-12.5-6.1-20.9-17.5-21.7-7.6-.5-15.2-1.2-22.9-1.8-9.8-.8-19.6-1.5-29.3-2.3-3-.2-5.3.3-5.7,3.9-.6,6.9-1.3,13.9-2,20.8-.3,3.4,1.2,4.9,4.5,5.1,8.3.6,16.6,1.4,24.8,2,7.1.5,8.3,1.9,5.2,8.2-9.7,19.9-23.9,35.9-42.6,47.8-11.5,7.4-11.8,5.2-3,16.1,9.9,12.2,10,12.3,24.2,5.2,24.4-12.2,42.2-31.1,54.5-55.1,4.4-8.6,6.4-18.4,9.7-28.5M1206.4,324.2c4.4,3.2,9.1,4.2,14,1.5,4.8-2.7,5.7-7.2,5.8-12.4.2-21,.8-41.9,1.1-62.9.2-11.9-8.2-17-18.6-11.3-18.4,10-36.7,20.2-55,30.4-11.2,6.2-11.3,15.9-.4,22.5,17.5,10.6,35,21.2,53.2,32.1M793.8,253.5c4.2-1.1,5.5-3.7,4.2-7.9-1.7-5.7-3.3-11.5-4.7-17.3-.8-3.2-2.6-4.3-5.7-4.3-5,0-10,0-15-.1-5.8,0-6-.4-4.6-6.1,3.6-14.2,7.3-28.3,11-42.5,1.5-5.5.9-6.7-4.7-7.9-7.5-1.6-15-2.8-22.4-4.7-3.6-.9-5.1.4-5.8,3.4-6.8,28.8-13.6,57.6-20.4,86.4-1,4.2,1,6.1,4.7,6.5,21.2,2.3,42.2,1.1,63.4-5.4M705.6,86c-.2-1.3-.5-2.6-.7-3.9-1.9-11.2-8.9-16.4-19.9-13.7-29.6,7.2-59,14.9-88.5,22.3-3.5.9-4.6,2.7-3.7,6.2,1.6,6.3,3.1,12.6,4.5,18.9.9,3.7,2.9,4.7,6.6,3.7,6.9-1.9,13.9-3.4,20.8-5.1,12.6-3.1,25.2-6.2,37.8-9.2,5.2-1.2,6.5-.3,7.1,5.1.3,3.1.3,6.3.3,9.5,0,4.1,2.1,6.1,6.2,6.1,5.3,0,10.7,0,16,.2,3.8.2,5.7-1.5,7.2-4.8,4.9-11,6.7-22.6,6.3-35.4M540.8,202.3c15.6-6.7,31.1-13.5,46.8-20,4.6-1.9,5.3-4.2,3-8.4-2-3.6-3.6-7.5-5.2-11.3-1.5-3.6-3.8-4.1-7.2-2.6-3.5,1.6-7.2,3-11.4,4.8-.3-2.6-.5-4.2-.8-5.8-1.3-9.2-2.4-18.4-3.9-27.6-1.4-8.4-7.5-12.3-15.7-10-14.1,3.9-28.1,8.3-42.1,12.3-3.2.9-4,2.7-3.3,5.5,1.1,4.7,2.3,9.3,3.6,14,.8,2.9,2.8,3.3,5.5,2.5,7-2.1,14.1-4,21-6.2,3.3-1.1,5-.4,5.5,3.2,1,6.7,2.2,13.4,3.3,20.2.4,2.5-.3,3.9-2.8,4.9-8.2,3.3-16.2,7-24.3,10.3-3.5,1.4-4.1,3.3-2.5,6.5,2.1,4.3,4.2,8.7,6.1,13.1,1.5,3.4,3.6,3.8,6.8,2.3,5.6-2.6,11.3-4.9,17.6-7.7M191.3,780.8c34.3-15.7,68.7-31.3,103-47.1,3-1.4,6.1-2.8,8.7-4.9,4-3.2,6-7.6,4.6-12.8-1.4-5.4-4.5-9.9-10.4-9.9-4.7,0-9.8,1.1-14.2,3.1-30.5,13.7-60.9,27.6-91.3,41.6-6.9,3.2-14,6.2-20.6,10-6,3.5-7.6,10.6-4.8,16.6,2.9,6,9.2,8.9,15.9,6.9,2.9-.8,5.6-2.2,9-3.6M1492.5,325c13.3,3.8,26.5,7.7,39.8,11.5,11.8,3.4,23.6,6.9,35.5,10.2,5.4,1.5,6.7.7,8.3-4.6,1.8-6.2,3.4-12.5,5.4-18.7,1.4-4.3.2-6.5-4.1-7.7-29.9-8.6-59.7-17.2-89.6-25.9-3.8-1.1-5.6,0-6.6,3.6-1.9,6.9-3.8,13.8-6,20.6-1.3,4.2.2,6.2,4.2,7.3,4.2,1.1,8.3,2.4,13.2,3.8M1226.9,170.5c-2.3-2.8-4.4-.7-6.6.3-26.6,12.7-53.1,25.5-79.7,38-3.7,1.7-4.9,3.4-2.8,7.2,3.9,6.8,7.7,13.6,11.5,20.5,1.6,2.9,3.6,3.4,6.6,2.4,29.4-9.2,56.1-23.5,80.4-42.4,2.9-2.2,3.1-4.2,1.3-7.2-3.6-6-6.9-12.2-10.8-18.9M415.6,191.1c20.1-3.6,39.3-9.8,58-17.8,3.7-1.6,4-3.9,3.1-7.2-1.6-5.8-3.4-11.5-4.7-17.3-1.1-4.9-3.6-5.7-8-4.4-5.6,1.7-11.2,3.4-16.9,4.5-23.2,4.5-46.3,8.8-69.5,13-3.2.6-5.6,1.4-4.4,5.4,2.2,8,4.3,16.1,6.9,24,.5,1.6,3.4,3.5,5,3.4,9.9-.8,19.8-2.2,30.5-3.5M485,725.7c-3.1,7.3-3.8,14.7-1.9,22.4,3.5,14.2,17.2,25.5,31.8,25.9,16,.5,29.5-9.1,34.4-24.4,4.6-14-1.4-30.4-13.7-38.6-17.4-11.6-41-5.4-50.7,14.7M1449.7,409.2c-7.2,9.5-4.1,19.3,7.3,22.9,1.6.5,3.2.9,4.8,1.3,18.8,5,37.6,10.2,56.4,15.1,11.4,3,20.1-3.7,18.8-14.2-.8-7-5.8-10.1-11.9-11.8-20.1-5.5-40.1-10.9-60.2-16.2-5.2-1.4-10.2-1.2-15.2,2.9M222.7,819.2c13.5-6.1,26.9-12.2,40.4-18.3,7.3-3.4,11-9.8,9.3-16.2-2.4-9.1-11.1-12.7-20.6-8.4-17.1,7.8-34.1,15.6-51.2,23.5-3.6,1.7-7.3,3.3-10.5,5.6-6.6,4.9-6.9,13.9-1,19.6,5,4.7,10.7,4.7,16.6,2.1,5.5-2.4,10.9-5,17-7.8M1418,421.8c4.1-.8,8.7-.7,12.2-2.7,4.5-2.5,6.1-7.3,5-12.6-1.3-6.5-5.9-9.8-11.9-11.4-10.1-2.8-20.2-5.4-30.4-8.1-10.8-2.9-21.5-5.8-32.3-8.5-5.7-1.4-10.5.6-14.1,5.2-3.1,4-3.6,8.7-1.4,13.2,2.3,4.8,6.7,7.1,11.8,8.4,20.1,5.3,40.1,10.7,61,16.4M629,176.4c-.6,2.8-1,5.5-1.7,8.3-.9,3.8.3,6.1,4.4,6.8,5.7,1,11.4,2.4,17.1,3.1,1.9.2,4.5-1.1,6-2.5,1.8-1.6,2.9-4,3.9-6.3,7.6-17.5,11.1-35.7,8.3-54.9-.6-3.9-2.5-5.5-6.4-5.1-7.1.8-14.2,1.5-21.3,2.1-8,.6-8.1,1-8.4,8.9-.4,12.9-1.2,25.8-1.9,39.6M678.6,208.1c-2.6,3.4-5.2,6.9-7.9,10.3-2,2.5-2,4.3.9,6,6,3.5,11.9,7.4,18.1,10.6,1.9.9,5.5.6,7.2-.7,12.6-9.5,22.2-21.9,30.5-35.2,2.5-4.1,1.3-6.7-2.7-8.9-5.7-3.1-11.3-6.3-17-9.5-6.6-3.7-7.1-3.5-11.6,2.8-5.7,8-11.4,16-17.6,24.5M966.3,232.1c-4.1-.4-8.6-3.4-12,1.2-3.9,5.2-7.5,10.6-10.9,16.1-.6,1.1,0,4.1.9,4.7,10.2,6.7,20.5,13.1,30.9,19.4,2.3,1.4,4.7,1.4,6.4-1.5,4.5-7.6,9.2-15.1,13.9-22.6,1.9-3,1.5-5.4-1.9-6.8-8.8-3.5-17.6-7-27.2-10.6M372.1,106.5c-8.7,1.4-8.8,1.6-6,10.1,2.5,7.6,5.2,15.1,7.7,22.6,1,2.9,2.5,3.9,5.6,3.3,7-1.3,14.1-2.4,21.1-3.5,6.9-1.1,8.4-3.2,5.5-9.8-3.1-7.1-7.2-13.8-10.8-20.7-2.1-4.1-5.4-4.9-9.6-4.1-4.2.8-8.5,1.3-13.6,2.2M1153.1,161.4c-2.7-2.7-5.6-5.3-8-8.2-3.3-3.9-6.9-3.9-11.2-2-5,2.2-10,4.5-15.1,6.4-4.1,1.5-4.6,3.7-2.4,7.1,5,7.8,9.8,15.8,15.1,23.4.9,1.3,4.3,1.9,5.9,1.3,7.6-2.9,14.9-6.4,22.4-9.8,2.8-1.3,3.8-3.5,2.1-6-2.6-4-5.5-7.8-8.8-12.3M1187.9,129.6c-5.3-3-10.7-6.1-16-9.1-3.1-1.8-5.9-1.3-8.6,1.1-4.3,3.7-8.6,7.4-13.1,10.7-3.8,2.8-3.3,5.2-.2,8,6.8,5.9,13.6,11.7,20.3,17.8,2.5,2.3,4.5,2.1,6.9,0,4-3.6,8.1-6.9,12.1-10.5q10.2-9-1.2-18M449.2,107.4c-.1-.8,0-1.8-.4-2.4-5.3-9.5-13-16.8-21.8-22.9-1.1-.8-3.6-.2-5.1.4-5.3,2.3-10.5,5.2-15.9,7.3-4.7,1.8-4.7,4.4-2.2,8,5.1,7.4,10.2,14.8,15.2,22.2,1.8,2.7,3.9,2.6,6.4,1.4,6.2-3.1,12.5-6.2,18.7-9.4,1.8-1,3.3-2.5,5-4.5M1695.7,282.2c-2.8,1.7-3,3.7-.8,6.1,1,1.1,2.1,2.2,3.1,3.3,10.1,10.7,7.2,9.6,18.4.5,3-2.4,3.4-4.7,0-7.2-.9-.7-1.7-1.6-2.6-2.3-10.1-8.8-8.3-7.8-18.1-.3M1678.9,297.1c2,0,4-.1,6-.2,7.5-.3,8.1-1.1,6.4-8.3-2.8-12-2.8-11.9-15.3-10.7-4.3.4-6,2.1-4.7,6.4.9,3,1.5,6.2,2.7,9,.7,1.5,2.6,2.5,4.8,3.7M346.8,51.6c-5.8-1.7-6.9,3.9-10,6.4-2.7,2.2-2.3,4.5.5,6.4,2.9,2,5.5,4.3,8.6,5.9,1.5.8,4.8,1.1,5.5.3,2.8-3.5,4.9-7.5,7.1-11.4.1-.2-1.5-1.5-2.5-2.1-2.8-1.8-5.7-3.4-9.2-5.5M1235.3,112.8c-3.8-1.3-11.6,1.7-13.1,5.9-.6,1.7,1.7,4.7,3.2,6.7,1.5,2.1,3.3,4.3,5.5,5.7,1.4.9,4.6,1.4,5.4.6,2.9-3.2,8.8-4.2,8.5-10,0-.8-1.1-1.6-1.9-2.2-2.3-2.1-4.7-4.2-7.6-6.8M481.7,103.8c.8,1.4,1.3,3.2,2.5,4.3,1.4,1.2,4,2.9,5,2.4,3.9-2.1,7.3-4.9,10.9-7.6.1-.1-.1-1-.4-1.4-2.2-3.3-4.2-6.8-6.7-9.8-.9-1.1-3.3-1.8-4.8-1.6-9.6,1.3-11.4,4.8-6.5,13.7M1201.6,121.9c1,2.8,1.6,7.6,3.1,7.9,4.6.9,9.6,0,14.4-.2.3,0,1-1.1.9-1.6-1-4.6-1.3-9.6-3.5-13.7-.8-1.6-5.8-1.4-8.8-1.2-7.7.4-8,.9-6.1,8.9M458.4,99.6c2.1,3,10.5,5.8,14.2,4.4,4.5-1.6,1.8-5.7,2.5-8.6.3-1.1.4-2.4,0-3.4-.7-2-1.4-5.4-2.6-5.6-4.4-.8-9-.7-13.5-.6-.3,0-.9,2.3-.9,3.6,0,3.1,0,6.3.3,10.3M323.6,75.1c3-.8,6.2-1.3,9-2.5,1.2-.5,2.5-2.8,2.3-4.1-1.8-11.7-7.5-14.7-18.2-9.8-.6.3-1.3.5-1.8.9-.5.4-.9,1-1.1,1.6-1,3.2,5.3,13.1,9.7,14Z"/>
  <path class="cls-9" d="M562.2,601.5c-2.1,1.5-4.1,3.4-6.4,4.4-55.6,24.6-111.2,49-166.8,73.5-6.6,2.9-12.8,2.5-18.8-2-48.7-35.8-97.4-71.7-146.4-107.1-9.4-6.8-8.8-15.3-7.7-24.9,2.4-20.8,4.6-41.6,6.9-62.5,2.5-22.8,5.1-45.6,7.7-68.4,1.7-15.2,3.3-30.4,5-45.6.7-6.3,4.5-10.3,10-12.7,22.2-9.8,44.5-19.6,67.4-29.2,1.2,1,1.8,1.8,2.2,2.7,11.9,24.5,23.9,49.1,35.8,73.6,6.1,12.6,12.1,25.2,18,37.8,2.8,6,7.6,8.7,13.9,8.7,14,0,28,.4,42-.2,3.9-.2,8.7-2.2,11.3-5,6.7-7.1,13.1-14.7,18.5-22.8,15.2-23,26.6-47.9,37.1-73.3,2.1-5,4.5-9.9,6.8-14.8,10.2,7.3,20.4,14.7,30.6,22,1.6,1.2,3.3,2.2,5.3,3.8-6.9,30.9-14.1,61.4-21.3,91.8-1.1,4.7.7,7.3,5.8,8.6,17.2,4.1,34.5,8.3,51.8,12,2.7.6,5.9-.7,8.8-1.1-.6,6.8-1.3,13.6-2.1,21.1-4.1,3.5-8.2,6.1-11.9,9.2-11.5,9.8-20.5,21.3-23.8,36.4-3.9,17.5.4,33.5,9.6,48.3,3.3,5.3,7,10.4,10.5,15.6Z"/>
  <path class="cls-10" d="M644,706.1c13.1,5.3,26.2,10.6,39.3,15.8,3.2,1.3,6.4,2.9,9.7,3.8,11,3,15.5,10.6,17,21.4,4.3,29.9,9.1,59.7,13.7,89.6,4.4,28.7,8.8,57.5,13.2,86.2,1.4,8.9-.9,16.2-8.3,22-14.1,11.1-27.9,22.7-41.9,33.9-7.9,6.3-14.4,6.7-23,1.5-38.3-23.2-76.6-46.3-114.8-69.7-3.6-2.2-5.6-2-8.3,1.2-12.9,15-26.1,29.8-39,44.8-9.8,11.5-19.5,12.5-30.8,2.6-7.5-6.6-15.2-13-22.5-19.7-9-8.3-9.2-18-1-27.2,11.2-12.7,22.4-25.6,33.5-38.3.6-.7,1.2-1.6,2.1-3-3.6-2.3-6.9-4.6-10.4-6.7-11.8-7.2-23.7-14.3-35.5-21.4-11.5-6.9-13.9-16.3-7-27.8,5.3-8.9,10.5-17.8,16.1-26.5,6.4-10.1,15.9-12.3,26.2-6.1,18.1,10.9,36.2,21.8,54.2,32.9,2.8,1.7,4.5,1.7,6.7-.8,19.9-22.8,39.9-45.6,59.9-68.4,6.3-7.2,12.4-14.6,18.6-22.5,2.7-2.9,5.8-5,8-7.9,6.3-8.3,14-12.5,24.6-9.7M636.4,882.1c8.3,5,16.6,10,25.8,15.5-5.5-35.8-10.9-70.3-16.3-105.7-18.6,21.3-36.5,41.6-54.8,62.6,15.3,9.4,30,18.4,45.4,27.7Z"/>
  <path class="cls-15" d="M879.2,718.2c23.2-.9,45.3,2.2,66.1,12.1.5.2.9.5,1.3.7,12.3,6.2,13.3,8.6,8.7,21.4-4.2,11.8-8.3,23.5-12.5,35.3-3,8.4-6.3,9.6-14.3,5.6-16.4-8.2-33.9-11-51.9-7.8-25.9,4.6-41.4,22.7-43.6,49.3-2.2,27,9.2,46.9,32.8,56.3,16,6.3,32.3,5.4,48.3-.3,12.4-4.4,23.2-11.5,32.6-20.8,6.7-6.6,11.4-5.9,16,2.4,6.6,11.6,13,23.2,19.5,34.9,3.8,6.8,3.4,10-2.2,15.5-25.2,24.8-54.7,41.5-90.3,44.9-61,5.8-117.2-31.9-131.9-90.5-8.4-33.5-5.3-66.1,11-96.9,12.7-23.9,32.6-40,57.3-50.5,16.7-7.1,34.3-10.4,52.9-11.5Z"/>
  <path class="cls-5" d="M498.7,333.5c-2.2,5.3-4.7,10.2-6.8,15.2-10.5,25.4-21.9,50.3-37.1,73.3-5.4,8.1-11.7,15.7-18.5,22.8-2.7,2.8-7.4,4.8-11.3,5-14,.6-28,.3-42,.2-6.4,0-11.1-2.7-13.9-8.7-5.9-12.6-11.9-25.3-18-37.8-11.9-24.6-23.8-49.1-35.8-73.6-.4-.9-1-1.7-1.8-2.7-4.2-8.8-8.1-17.4-12.1-26-8.6-17.9-17.3-35.6-25.9-53.5-4.5-9.3-3.3-12.6,6.1-16.6,14.5-6.2,29.1-12.4,43.6-18.5,12.3-5.2,16.4-3.6,21.7,8.4,10.7,24.5,21.5,49.1,32.2,73.6.3.8.8,1.5,1.5,2.7,3.4,7.8,6.3,15,9.4,22.1,4.4,10.2,8.9,20.4,13.5,30.5.7,1.5,2.2,2.6,3.3,3.9,1.1-1.4,2.5-2.6,3.3-4.1,1.3-2.5,2.4-5.1,3.4-7.7,7.2-18.4,14.4-36.8,21.6-55.1,6-15.1,12-30.2,17.9-45.4,3.2-8.2,6.2-16.5,9.5-24.7,2.4-6,5.1-7.7,11.2-5.8,16.5,5.1,33,10.4,49.3,16,6,2,7.9,5.7,6.1,11.7-7.7,25.3-15.8,50.4-23.8,75.6-2,6.3-4.3,12.5-6.5,19.2Z"/>
  <path class="cls-15" d="M1414.3,751.3c-11.7,31.2-23.6,61.9-34.8,92.9-4.2,11.5-7.3,23.5-6.8,36,.3,7.5,3.4,13.4,8.8,18.3,3,2.7,2.9,5.2.3,8.2-8.3,9.6-16.3,19.4-24.7,28.9-5.9,6.8-9,7-16.9,2.5-10.7-6.1-20-13.7-26.7-24.3-.8-1.3-3.5-2.3-5.1-2-27.7,4.3-53.5-.3-76.1-17.6-23.4-18-36-41.8-35-71.5,1.3-39.3,37-82.6,85.4-79.6,17.3,1.1,33,7.2,47.4,16.8,1.4.9,2.7,1.8,4.6,2.9,4.8-12.7,9.5-25,14.2-37.2,4.1-10.7,8.1-21.5,12.2-32.2,2.7-7,6.4-9.2,13.6-6.9,16,5,32,10.2,47.9,15.6,7.3,2.5,8.6,6,5.8,13.1-4.6,11.9-9.3,23.9-14.1,36.2M1266,817.6c-4,8.1-5.4,16.4-2.4,25.1,5,14.6,24.7,24.2,39.9,19.4,1.1-.4,2.2-2.2,2.5-3.5,2.8-11.6,5.3-23.3,8.1-35,2.3-9.3.9-13.5-7.2-18.8-8.3-5.4-17-6.3-26.1-1.9-6.4,3.1-11,7.9-14.8,14.7Z"/>
  <path class="cls-18" d="M1100.4,521.4c32.2-18.9,62.8-12.8,93.3,4.9,2.8-8.9,5.5-17.5,8.2-26.2,4.6-14.9,9.3-29.9,13.9-44.8,2.2-7.1,5.6-9.4,12.7-7.7,16.3,4,32.6,8.1,48.8,12.5,7.9,2.1,9.3,5.4,6.7,13.5-13.5,43.3-27.2,86.6-40.4,130-3.7,12.1-6.3,24.5-5,37.3.7,7,3.4,12.8,9.1,17.1,3.8,2.9,4.2,5.7,1.1,9.6-7.5,9.6-14.6,19.5-21.9,29.1-5.7,7.5-8.9,8-17.5,3.7-10.8-5.5-20.6-12.3-27.5-22.5-1.9-2.9-4.1-2-6.5-1.5-17.6,4.1-35,3.6-52.3-1.5-35.7-10.6-62.3-43.8-62.9-80.3-.4-28.9,12.7-51.8,35-69.7,1.6-1.2,3.3-2.3,5.2-3.7M1149.8,627.9c5.8,0,11.6,0,17.4,0,2.6,0,3.5-1.2,3.9-3.9,2-13.1,4.6-26.1,6.4-39.3.4-2.8-.4-6.5-2.1-8.7-5.8-7.5-14-10.7-23.3-9.5-16.2,2.1-28.7,19.3-26.5,36,1.8,13.9,10.2,21.8,24.2,25.4Z"/>
  <path class="cls-15" d="M1000.2,376.3c14.8-33,43.5-50.1,81.3-48.5,4.3.2,8.6.7,12.9,1.2,2.8.3,5-.1,7.8-1.4,4.4-2.1,9.5-2.7,14.4-3.2,13.6-1.6,27.1-2.9,40.7-4.1,8.2-.8,11.1,2.2,11.7,10.4,1.5,22.4,3,44.8,5.1,67.2.6,6.3,3,12.6,5.3,18.6,2.6,6.8,7.4,11.8,14.7,13.9,4.6,1.3,5.9,4.2,4.5,8.7-3.6,11.8-6.9,23.6-10.6,35.4-2.7,8.6-5.8,10.1-14.9,9.1-10.9-1.2-21.1-4.2-30.9-9.2-1.4-.8-4.6.5-6.3,1.7-16.3,11.4-34.3,17.5-54.1,18-37.9.9-72.4-21.9-84.4-56.3-7.2-20.6-5.1-41,2.7-61.4M1071.7,383.1c-14.4,11.9-16.5,34-4.4,47.6,12,13.6,30.5,10.7,43.2,2.5.9-.6,1.2-3.1.9-4.6-2.4-12.4-5.3-24.7-7.3-37.1-1.3-8-2.7-9.8-11.3-12.3-7.2-2.1-14.1-.7-21.1,3.9Z"/>
  <path class="cls-29" d="M988.6,301.9c-.8,8.8-1.7,17.2-2.9,25.6-5.5,38-11.1,76.1-16.7,114.1-.5,3.5-1,6.9-1.7,10.3-1,5.1-3.4,6.8-8.5,6-16-2.3-31.9-5.4-47.9-6.9-8.4-.8-17.1.9-25.7,1.6-22.3,1.7-43.7-.9-62-15.1-17.2-13.3-24.4-32-24.9-52.9-.4-18.1,1.1-36.3,2.2-54.4.8-12.4,1.9-24.9,3.4-37.3.9-7.2,3.5-9.1,10.7-8.9,15,.2,30,.5,45,.9,7.9.2,9.7,2.2,9.5,10-.7,24-1.6,48-2,71.9,0,5.7.9,11.7,2.7,17.1,3.6,10.6,13.4,14.7,25.9,11.8,10-2.3,10.1-2.3,11.6-12.4,4.3-28.6,8.5-57.3,12.7-85.9,1-6.6,3-8.4,9.7-7.4,17.6,2.6,35.2,5.2,52.8,8,2.1.3,4,2.4,6.2,4Z"/>
  <path class="cls-29" d="M882.8,515.8c14.8-3.8,15.8-3.3,19.2,10.8,5.1,21.2,9.9,42.4,15.2,63.5,1.3,5.1,3.4,10.1,6,14.7,5.2,9.4,13.7,12.6,23.7,9.1,4.7-1.6,9-4.3,13.2-6.8,1-.6,1.7-2.8,1.5-4.1-3.7-30.7-7.5-61.4-11.4-92.1-.9-7,.6-9.3,7.5-10.1,17.7-2.2,35.3-4.4,53-6.5,5-.6,7.6,1.3,8.3,6.4,2.4,19.1,4.7,38.3,7.1,57.5,3.5,28.6,7,57.1,10.6,85.7,1.1,8.5-.1,10.4-8.6,11.5-16.4,2-32.7,3.9-49.1,5.9-2.6.3-5.1,1.4-7.5,2.5-14.3,6.7-29,11.8-44.9,12.5-34.1,1.6-58.6-14.1-69.5-46.7-5.9-17.6-9-36.1-13-54.2-2.4-10.9-4.3-21.9-6.3-32.8-.5-2.4-.7-5-.7-7.4,0-4.8,2-8.1,7.2-9.3,12.8-3.1,25.5-6.5,38.6-9.8Z"/>
  <path class="cls-29" d="M644.3,705.9c-10.8-2.6-18.5,1.6-24.8,9.9-2.1,2.8-5.3,5-8.1,7.6-11.1,2.9-22,5.9-33.1,8.1-9.8,1.9-12.3.2-15.7-9.1-4.4-11.7-8.7-23.3-13-35-2.7-7.4-1.3-9.9,6.6-11.3,8.5-1.5,16.3-4.6,23.2-9.8,12.4-9.2,15.5-22.1,7-34.9-7-10.4-15.6-19.8-23.8-29.8-3.8-5.3-7.5-10.4-10.8-15.7-9.2-14.9-13.6-30.9-9.6-48.3,3.4-15.1,12.3-26.6,23.8-36.4,3.6-3.1,7.8-5.6,11.9-8.7,15.7-9,32-15.4,49.6-18.1,4.6-.7,9.2-1.1,13.9-1.1,4.4,0,7.5,2.1,9.1,6.4,4.9,12.9,10,25.7,14.9,38.6,2.3,6.2.1,9-6.2,10.7-7.3,2-14.9,3.9-21.4,7.5-11.3,6.3-14.4,18.1-7.6,29.1,5.9,9.5,13.5,18,20.2,27.2,6.9,9.5,14.8,18.6,20.1,29,14.5,28.7,5.1,55-15.2,74.8-3.3,3.2-7,6.1-10.8,9.4Z"/>
  <path class="cls-18" d="M1030.6,737.5c31.9-14.7,63.7-16.4,95.1-.4,47.2,24.1,67.8,99.2,10.7,141.6-25.4,18.9-54,26.7-85.7,19.5-42.6-9.7-70-48.6-65.2-92.2,3.4-30.4,17.3-53.7,45.1-68.4M1051,797.6c-3.7,9-4.3,18.2-.8,27.2,4.5,11.6,13.1,18.7,25.5,20.6,10.8,1.6,20.2-1.5,27-10.3,8.9-11.5,9.2-31.1,1.4-43.4-3.9-6.1-9.3-10-16.2-11.5-14.7-3.2-29.9,1.4-36.8,17.4Z"/>
  <path class="cls-18" d="M1503.9,676c-18.7,4.7-37.3,5.6-56.2.2-46.8-13.7-72.1-59.7-58.7-106.7,13.1-46,52.8-66.2,95.5-63,18.5,1.4,36,6.3,51.3,17.3,20.5,14.8,32,35.1,34.9,59.9,4,34.4-9.2,61-39,79.8-9.4-5.8-18.2-11.7-27.8-18.2v30.7M1453.2,610.2c10.8,17,32.2,21.3,45.9,9.2,8.4-7.4,11.2-17.4,11.7-28.2,1-23.7-23-39.3-44.2-28.8-15.8,7.8-22.2,29.8-13.3,47.8Z"/>
  <path class="cls-13" d="M1531.7,955c-14.8,4.9-29.6,5.1-44.3,2.9-33.7-5.2-58-23.1-70.6-55.3-16.7-42.5,3.3-89.3,45.6-106.7,19.7-8.1,40.1-12.2,61.5-8.2,21.4,4,36.3,16.7,45.6,35.9,3.4,7,5.8,14.5,7.5,22.1,3.8,16.8-1.8,29.2-17.7,35.8-15,6.2-30.8,10.4-46.3,15.3-4.2,1.3-7.4-.5-9.3-4.6-3.9-8.3-7.8-16.6-11.8-24.8-2.1-4.2-.5-6.6,3.3-8.3,4.1-1.8,8.3-3.4,12.4-5.4,5-2.5,5.4-5.3,1.5-9.3-9.3-9.7-26.6-6.3-33.8,6.7-7.3,13-3.8,32.9,7.8,44.2,13.6,13.2,30,15.3,47.8,12.2,1.8-.3,3.6-.7,5.4-.7,6.5-.2,9.7,2.8,8.6,9.1-1.9,10.5-4.2,20.9-7,31.1-.8,2.9-3.9,5.1-6.2,7.9Z"/>
  <path class="cls-18" d="M691.2,539.2q.8-14.9,14.9-14.5c3.1,0,6.3,0,10.8,0,0-7.9,0-15.7,0-23.4,0-23.4.7-20.7,21.3-20.6,12.7.1,25.3.2,38,.3,10.4.1,12,1.9,11.9,12.5-.1,10.6,0,21.2,0,32.8,5.2,0,11-.2,16.8,0,6.3.2,8.3,2.4,8.1,8.7-.5,14.7-1.1,29.3-1.8,43.9-.2,4.9-2.3,6.9-7.2,6.9-5.8,0-11.6,0-17.8,0,.7,13.4,1.1,26.5,6.4,38.8,2.6,6.1,7,10.6,13.2,12.9,4.7,1.7,5.3,4.6,3.6,9-4.3,11-8.2,22.1-12.4,33.2-3.7,9.7-6.1,11-16.1,9.1-21.3-3.9-39.7-12.9-48.9-33.6-5-11.3-8.1-23.5-10.7-35.6-2.1-9.9-2.3-20.2-3.3-30.3-.1-1.5-.4-2.9-.7-5.3-6.7,0-13.1,0-19.6,0-5.7,0-7.8-2.3-7.7-8,.3-12.2.8-24.3,1.3-36.9Z"/>
  <path class="cls-29" d="M1249.8,423.2c-5.2-1.3-10.1-2.5-14.9-3.8-7.7-2-8.8-3.6-6.8-11.2,14.7-57.7,29.5-115.3,44.2-173,4.2-16.4,8.4-32.8,12.6-49.3,1.6-6.4,3.8-7.7,10-6.1,17.2,4.4,34.5,8.7,51.7,13.2,5.6,1.4,7,3.8,5.6,9.5-19.1,74.7-38.2,149.4-57.3,224.2-1.5,5.7-3.8,7.1-9.4,5.6-11.8-3-23.5-6-35.7-9.1Z"/>
  <path class="cls-15" d="M749.5,289.4c5.8,11.5,11.4,22.6,16.8,33.8,2.1,4.5.6,6.9-4.2,7.8-4.6.8-9.3,1.2-13.7,2.5-12.8,3.9-14.8,11.4-5.7,21.2,5.9,6.3,12.4,12.2,18.2,18.6,3.7,4,7.1,8.4,9.8,13.2,9.2,16,6.6,32.3-7,45.9-12.6,12.6-28.4,19.7-45.2,24.4-10,2.8-20.5,4.1-30.8,5.7-6.7,1.1-9.3-.6-12.3-6.7-4.7-9.7-9.4-19.5-14-29.3-2.4-5-1.2-7.3,4.3-8.5,4.2-1,8.6-1.4,12.6-2.8,3.4-1.2,6.7-3,9.4-5.3,5.9-5,6.2-10.8,1-16.6-6.7-7.4-14.3-14-20.5-21.8-4.9-6.1-9.4-13.1-12.2-20.4-5.2-13.5-.7-25.5,8.9-35.7,11.5-12.3,26.3-19.1,42.2-23.5,9.6-2.6,19.5-4.3,29.4-5.4,4.1-.5,8.5,1.6,12.9,2.9Z"/>
  <path class="cls-29" d="M579.9,470.5c-3.1.8-6.2,2.1-8.9,1.5-17.3-3.8-34.5-7.9-51.8-12-5.1-1.2-6.9-3.8-5.8-8.6,7.2-30.5,14.4-60.9,21.6-91.8,3.3-14.1,6.6-27.8,9.9-41.6,1.5-6.4,3.7-7.7,9.9-6.3,17.5,4.1,35,8.2,52.4,12.3,4.9,1.2,6.6,3.6,5.5,8.3-10.7,45.5-21.4,90.9-32.2,136.4-.1.5-.4.9-.7,1.8Z"/>
  <path class="cls-29" d="M1297.6,560.6c2.3-16.4,2.3-17,18.4-13.9,14.7,2.8,29.5,5,44.3,7.4,6.8,1.1,8.2,3.1,7.1,9.8-7.5,44.6-14.9,89.2-22.4,133.8-1,6.1-3.6,7.9-9.7,6.9-16.4-2.8-32.8-5.7-49.2-8.4-9.9-1.6-10.8-2.6-9.2-12.2,6.8-41,13.7-82,20.7-123.4Z"/>
  <path class="cls-16" d="M1316,157.1c2.1-10.7,4.1-20.9,6.2-31.2-6.2,4.1-11.7,8.8-18,11.7-7,3.2-14.7,5-22.2,7-3.8,1-7.1-.1-9.5-3.7-3.1-4.5-6.5-8.8-9.8-13.2-2.4-3.2-1.8-5.5,2-6.9,14.7-5.4,26.4-15.2,37.2-26.2,4.7-4.7,5-4.7,10.2-.4,4.4,3.8,8.8,7.6,13.9,12,1.1-5.2,2.3-9.8,2.8-14.4.1-.9-2.1-2.6-3.5-3.1-12.3-4-24.7-7.7-37.1-11.6-6.4-2-6.7-2.7-4.8-8.8,1.7-5.4,3.6-10.7,5-16.2,1.1-4.4,3.6-5,7.4-3.8,11.4,3.6,22.9,7,34.3,10.7,4,1.3,6,.8,6.1-3.7,0-1.3.6-2.6.8-3.9q2.2-10.4,12.5-8.4c5.7,1.2,11.3,2.7,17.1,3.5,4.3.6,5.1,2.9,4.4,6.6-1.1,5.5-2.1,11.1-3.3,17.2,4.2,1.4,8.2,2.9,12.3,3.9,3.7,1,5,3,3.9,6.6-1.9,6.4-4,12.7-5.8,19.1-.9,3.2-3.1,3.7-5.8,3-3.3-.8-6.6-1.9-10.6-3-1.9,9.5-3.8,18.7-5.7,27.9-2.4,11.9-4.8,23.8-7,35.7-.7,3.9-2.8,5-6.4,4.3-7.5-1.5-14.9-3.3-22.5-4.6-3.6-.6-4.9-2.3-4.2-6.2Z"/>
  <path class="cls-16" d="M1020.2,231.3c-1.8-.8-3.6-1.2-4.5-2.4-4-5.7-7.8-11.6-11.7-17.4-1.9-2.8-1.2-4.6,1.7-6.5,12.5-7.9,24.9-15.9,37.2-24.1,2.8-1.9,5.5-2.8,7,.7,4,9.1,11.7,9.9,20.1,10.3,9.6.5,19.2,1.4,28.9,2.1,12.4.9,18.9,10.4,14.1,22.7-4.1,10.4-10.1,20.1-15.3,30.1-.8,1.6-2.1,3-3.4,4.8,3.3,2.4,6.4,4.6,9.3,6.9,3.4,2.7,3.8,5.4.5,8.7-4.7,4.7-9.2,9.7-13.6,14.7-2.5,2.8-4.9,3.1-7.8.9-.1,0-.3-.2-.4-.3-3.8-2.3-7.8-6.4-11.5-6.2-3.8.2-7.2,4.9-10.9,7.3-7.7,5-15.4,9.8-23.2,14.7-4.4,2.8-8.2,1.8-11.6-1.7-2.8-2.9-5.6-5.7-8.4-8.5-5-5-4.8-5.6.7-9.8,7.9-6.1,15.6-12.4,23.4-18.6,1.2-.9,2.3-1.8,3.9-3.1-5.2-3.7-9.6-6.9-14-10.1-3.2-2.3-4-4.6-.7-7.6,2.3-2.1,4.5-4.5,6.4-7,3.4-4.6,7.6-4.8,12.3-2.7,3.4,1.5,6.9,2.6,10,4.4,4.1,2.4,6.9,1.4,9.1-2.3,1.7-2.9,3.3-5.9,4.9-8.9-3.2-.8-6.4-1.6-9.6-2.5-9.1-2.3-17.2,0-25.2,4.6-5.4,3-11.7,4.6-18,6.9Z"/>
  <path class="cls-11" d="M516.9,684.9c-53,24.2-105.7,48.2-158.4,72.2-19.2,8.8-38.4,17.6-57.7,26.3-6.5,3-12.7,1.8-16.4-2.8-4.2-5.1-5-11.7-1.3-16.6,1.6-2.1,4.1-4,6.5-5.1,76.1-34.9,152.2-69.6,228.4-104.4,9.3-4.2,15.1-3.2,19.5,3.1,4.9,6.9,3,15.7-4.5,19.6-5.1,2.7-10.5,5-16.2,7.6Z"/>
  <path class="cls-27" d="M287.8,111.2c1.9,11.5,3.7,23,5.8,34.4.6,3.3,2.6,4.4,6.2,3.8,15.4-2.7,30.9-5,46.2-7.7,3.9-.7,5.7.5,6.4,4.1,1.2,5.7,2.5,11.4,3.5,17.1.8,4.5-1.7,7-7.4,8-8.9,1.4-17.7,2.7-26.6,4.1-10.2,1.5-20.4,2.9-30.6,4.6-17,2.7-26.1-3.4-29.4-20.2-5-25.4-9.7-50.9-14.6-76.4-.7-3.4.4-5.3,4-6,7.8-1.4,15.6-3.1,23.5-4.7,3.9-.8,5.8.7,6.4,4.8,1.2,8,2.9,16,4.6,24.7,2.1-.9,3.9-1.6,5.5-2.5,10.5-5.8,21.1-11.5,31.4-17.5,4.3-2.5,6.8-1.7,9.4,2.4,3.3,5.2,6.9,10.2,10.7,15.1,2.5,3.3,2.8,6.1-1.3,8.1-12.8,6.2-25.7,12.3-38.7,18.4-3.1,1.5-5.4.2-7.1-2.7-2.3-3.9-4.6-7.7-7.2-12-.6-.7-.8-.9-1.1-1.1.1.5.3,1,.4,1.5Z"/>
  <path class="cls-24" d="M1397.8,206.8c1.8.2,3.5.3,4.8,1,20.8,12.3,41.5,24.7,62.3,36.9,8.6,5,12.5,15.1,5.1,24.9-13.5,18-26.2,36.6-39.2,54.9-4.5,6.3-5.9,6.8-12.8,3.7-20.4-9-40.7-18.2-61.1-27.2-3.7-1.6-4.5-3.7-2.8-7.4,2.6-5.8,5-11.6,7.2-17.5,1.4-3.9,3.2-4.7,7.1-2.9,11.1,5.3,22.4,10.2,33.6,15.3,7.7,3.5,7.7,3.6,12.6-3.1,5.1-7,10.1-14,15.4-20.9,2.6-3.5,2.2-5.7-1.6-8-12.9-7.6-25.7-15.4-38.6-23.1-6.2-3.7-6.3-4.1-2.4-10.4,3.4-5.4,6.8-10.6,10.5-16.2Z"/>
  <path class="cls-11" d="M1445.6,379.3c-26.5-7.2-52.7-14.2-78.8-21.2-6-1.6-9.4-5.6-10.2-11.6-.7-5.2,1.6-9.4,5.8-12.5,4.2-3,8.7-2.6,13.4-1.3,37.1,9.9,74.1,19.8,111.2,29.7,29.5,7.9,59.1,15.8,88.6,23.6,6.1,1.6,10.9,4.5,12.2,11,1.2,5.5-.7,10.2-5.2,13.7-4.3,3.3-9,2.8-13.8,1.5-39.5-10.6-79-21.1-118.4-31.7-1.4-.4-2.9-.8-4.7-1.3Z"/>
  <path class="cls-24" d="M1625.1,271.6c1.7-1.5,3.4-3.3,5.1-3.4,7.8-.3,15.7,0,23.5-.2,4.2,0,5.5,1.9,5.4,5.8-.1,15,0,30,0,46.4,2.7-3.7,4.3-6.7,6.7-8.9,1.7-1.5,4.8-3.1,6.6-2.6,12.1,3.4,24.1,7.4,36,11.3,4.1,1.3,4.3,4,2.2,7.4-4.6,7.5-9.3,15-13.7,22.6-2.3,4-5,2.9-8,1.3-8.6-4.7-17.3-9.3-25.9-14-1-.5-2.1-.9-4-1.8v5.7c0,16-.1,32,0,48,0,4.2-1.2,6.1-5.7,5.9-7.5-.3-15-.3-22.5,0-4.7.2-6-1.7-6-6.2.1-39,0-78,.1-117.4Z"/>
  <path class="cls-7" d="M297.2,809.3c29.5-13.5,58.7-26.9,87.9-40.2,11.2-5.1,21.9,1.5,20.9,12.9-.5,5.7-4,9.2-9.1,11.5-20.1,9.1-40.2,18.4-60.4,27.6-36.3,16.6-72.6,33.1-109,49.7-8.8,4-16.6,2.1-20.2-5.1-3.5-7-.5-14.9,7.3-18.6,15.1-7.1,30.2-13.9,45.3-20.8,12.3-5.6,24.5-11.2,37.1-16.9Z"/>
  <path class="cls-17" d="M1735.3,506.8c-56-15-111.5-29.9-167.1-44.8-3.4-.9-6.8-1.8-10.1-2.8-8-2.5-12.1-9.1-10.2-16.3,2-7.9,8.9-11.8,17.5-9.6,11.8,3,23.4,6.3,35.2,9.4,48.2,12.9,96.4,25.7,144.6,38.6,8.3,2.2,12.5,6.3,13,12.5.8,9.7-7.1,16.5-16.6,14.4-1.9-.4-3.9-.9-6.2-1.5Z"/>
  <path class="cls-8" d="M583,228.8c15.5-3.5,33.2,3.1,42,15.6,10.6,14.8,12,30.6,3.2,46.5-9.6,17.5-29.4,25.2-48.3,20.1-18.2-5-30.9-22.3-30.8-41.9,0-18.9,14.7-36.4,33.9-40.2Z"/>
  <path class="cls-8" d="M1304.2,519.7c-7.1-16.1-5.4-31.1,5.2-44.4,10.9-13.8,25.8-18.8,42.8-14.8,17.2,4.1,28,15.7,31.6,33,4.2,20.4-8,41.3-27.1,47.8-21,7.1-42-1.5-52.5-21.6Z"/>
  <path class="cls-24" d="M966.3,187.2c-3.2,9.7-5.2,19.5-9.6,28.1-12.3,24-30.1,42.9-54.5,55.1-14.1,7-14.3,7-24.2-5.2-8.8-10.9-8.5-8.7,3-16.1,18.6-11.9,32.9-27.9,42.6-47.8,3.1-6.3,1.9-7.7-5.2-8.2-8.3-.6-16.6-1.4-24.8-2-3.3-.2-4.8-1.8-4.5-5.1.7-6.9,1.3-13.9,2-20.8.3-3.6,2.7-4.2,5.7-3.9,9.8.8,19.6,1.5,29.3,2.3,7.6.6,15.2,1.3,22.9,1.8,11.4.8,21.1,9.2,17.4,22.1Z"/>
  <path class="cls-20" d="M1206,324.1c-17.8-10.8-35.4-21.3-52.8-31.9-10.9-6.6-10.7-16.3.4-22.5,18.3-10.2,36.6-20.4,55-30.4,10.4-5.7,18.7-.6,18.6,11.3-.3,21-.8,41.9-1.1,62.9,0,5.2-1,9.7-5.8,12.4-4.9,2.7-9.6,1.7-14.3-1.7M1211.7,258c-3.4-3.2-6.2-1.8-8.3,1.4-3.5,5.5-6.8,11.1-10.1,16.7-1.7,2.9-1.3,5.6,1.6,7.3,3,1.7,5.4.3,7.1-2.5,3.3-5.4,6.7-10.7,9.7-16.3.9-1.6.3-4,0-6.6M1194,292.5c-.5-3.5-2.8-5.1-5.9-4.3-1.5.4-3.8,2.7-3.6,3.8.2,1.9,1.8,4.4,3.5,5.1,3.3,1.5,5.2-.8,6-4.7Z"/>
  <path class="cls-16" d="M793.4,253.6c-20.9,6.4-41.8,7.6-63,5.3-3.7-.4-5.7-2.3-4.7-6.5,6.8-28.8,13.6-57.6,20.4-86.4.7-3,2.2-4.3,5.8-3.4,7.4,1.9,15,3.1,22.4,4.7,5.6,1.2,6.2,2.4,4.7,7.9-3.7,14.1-7.4,28.3-11,42.5-1.5,5.8-1.2,6,4.6,6.1,5,0,10,.2,15,.1,3.1,0,4.9,1.1,5.7,4.3,1.4,5.8,3,11.6,4.7,17.3,1.3,4.2,0,6.8-4.6,8Z"/>
  <path class="cls-4" d="M705.7,86.5c.4,12.4-1.4,23.9-6.3,35-1.5,3.3-3.4,5-7.2,4.8-5.3-.3-10.7-.2-16-.2-4.1,0-6.1-2-6.2-6.1,0-3.2,0-6.3-.3-9.5-.5-5.5-1.8-6.4-7.1-5.1-12.6,3-25.2,6.1-37.8,9.2-6.9,1.7-13.9,3.2-20.8,5.1-3.7,1-5.8,0-6.6-3.7-1.5-6.3-2.9-12.6-4.5-18.9-.9-3.5.3-5.3,3.7-6.2,29.5-7.4,58.9-15.1,88.5-22.3,11-2.7,18,2.6,19.9,13.7.2,1.3.4,2.6.7,4.4Z"/>
  <path class="cls-27" d="M540.5,202.4c-6,2.6-11.7,5-17.3,7.5-3.2,1.5-5.3,1.1-6.8-2.3-1.9-4.4-4-8.8-6.1-13.1-1.6-3.2-.9-5.1,2.5-6.5,8.2-3.3,16.2-7,24.3-10.3,2.5-1,3.3-2.4,2.8-4.9-1.2-6.7-2.3-13.4-3.3-20.2-.5-3.6-2.2-4.3-5.5-3.2-7,2.2-14,4.1-21,6.2-2.6.8-4.7.4-5.5-2.5-1.3-4.6-2.5-9.3-3.6-14-.7-2.8.2-4.6,3.3-5.5,14.1-4,28-8.4,42.1-12.3,8.2-2.3,14.2,1.7,15.7,10,1.6,9.2,2.7,18.4,3.9,27.6.2,1.6.4,3.2.8,5.8,4.2-1.7,7.8-3.1,11.4-4.8,3.4-1.6,5.7-1,7.2,2.6,1.6,3.8,3.2,7.7,5.2,11.3,2.3,4.2,1.6,6.5-3,8.4-15.7,6.5-31.2,13.3-47.1,20.2Z"/>
  <path class="cls-3" d="M190.9,780.9c-3.1,1.2-5.8,2.6-8.7,3.4-6.7,2-13-.9-15.9-6.9-2.8-6-1.2-13.1,4.8-16.6,6.6-3.8,13.7-6.8,20.6-10,30.4-13.9,60.7-27.9,91.3-41.6,4.3-1.9,9.4-3.1,14.2-3.1,5.9,0,9,4.5,10.4,9.9,1.4,5.2-.6,9.6-4.6,12.8-2.5,2-5.7,3.5-8.7,4.9-34.3,15.7-68.7,31.4-103.3,47.2Z"/>
  <path class="cls-1" d="M1504,676.5c-.1-10.4-.1-20.3-.1-31.2,9.6,6.5,18.4,12.4,27.5,18.5,11.1,7.7,21.8,15.2,32.5,22.8,1.2.9,2.5,1.7,3.7,2.6,5.4,4.1,5.1,8.6-.9,11.9-4.8,2.7-9.6,5.2-14.7,8,4.5,8.4,8.8,16.6,13.4,25.2-7.1,3.8-14.1,7.6-21.7,11.7-4.5-8.3-9-16.6-13.6-25.2-5.1,2.7-10,5.4-15,8-6.1,3.1-10.1.7-10.2-6.2-.3-15.2-.6-30.3-1-45.9Z"/>
  <path class="cls-27" d="M1492.1,324.9c-4.5-1.3-8.7-2.6-12.8-3.7-4-1-5.5-3.1-4.2-7.3,2.2-6.8,4.1-13.7,6-20.6,1-3.6,2.8-4.7,6.6-3.6,29.8,8.7,59.7,17.4,89.6,25.9,4.3,1.2,5.5,3.4,4.1,7.7-2,6.2-3.6,12.4-5.4,18.7-1.5,5.3-2.8,6.2-8.3,4.6-11.8-3.3-23.6-6.8-35.5-10.2-13.3-3.8-26.5-7.6-40.2-11.6Z"/>
  <path class="cls-4" d="M1227.2,170.8c3.7,6.4,7,12.5,10.6,18.5,1.7,2.9,1.6,4.9-1.3,7.2-24.3,18.8-51,33.2-80.4,42.4-3.1,1-5,.5-6.6-2.4-3.8-6.9-7.6-13.7-11.5-20.5-2.2-3.7-.9-5.4,2.8-7.2,26.6-12.6,53.1-25.3,79.7-38,2.2-1,4.3-3.1,6.8,0Z"/>
  <path class="cls-24" d="M415.2,191.2c-10.3,1.3-20.2,2.6-30.1,3.5-1.6.1-4.5-1.8-5-3.4-2.6-7.9-4.6-16-6.9-24-1.1-4,1.2-4.8,4.4-5.4,23.2-4.3,46.4-8.6,69.5-13,5.7-1.1,11.3-2.8,16.9-4.5,4.4-1.3,6.9-.5,8,4.4,1.3,5.8,3.1,11.5,4.7,17.3.9,3.2.6,5.6-3.1,7.2-18.7,8.1-37.9,14.3-58.4,17.9Z"/>
  <path class="cls-23" d="M485.1,725.3c9.5-19.7,33.2-25.9,50.5-14.3,12.3,8.2,18.3,24.6,13.7,38.6-5,15.3-18.4,24.8-34.4,24.4-14.6-.4-28.4-11.7-31.8-25.9-1.9-7.7-1.2-15.2,2-22.8M510.3,754.8c2.2-2.5,4.4-4.9,6.8-7.6,4.5,3.9,8.7,7.6,13.1,11.4,2.3-2.6,4.3-4.8,6.5-7.4-4.4-4-8.6-7.8-12.9-11.7,4-4.6,7.6-8.8,11.3-13.1-2.7-2.4-5-4.4-7.4-6.5-4,4.5-7.7,8.6-11.5,13-4.5-3.8-8.7-7.5-13.3-11.4-2.3,2.6-4.3,4.9-6.5,7.4,4.5,4,8.7,7.7,13,11.5-4,4.6-7.6,8.8-11.4,13.2,2.7,2.3,5,4.4,7.2,6.3.7-.5,1-.7,1.2-.9,1.1-1.2,2.2-2.5,3.8-4.3Z"/>
  <path class="cls-7" d="M1450,408.9c4.7-3.8,9.7-4,14.9-2.7,20.1,5.3,40.2,10.8,60.2,16.2,6.2,1.7,11.1,4.8,11.9,11.8,1.3,10.6-7.5,17.2-18.8,14.2-18.8-4.9-37.6-10.1-56.4-15.1-1.6-.4-3.2-.8-4.8-1.3-11.4-3.6-14.5-13.4-7-23.2Z"/>
  <path class="cls-19" d="M222.3,819.3c-5.8,2.7-11.2,5.2-16.6,7.6-5.9,2.6-11.6,2.6-16.6-2.1-5.9-5.7-5.6-14.7,1-19.6,3.1-2.3,6.9-3.9,10.5-5.6,17-7.9,34.1-15.7,51.2-23.5,9.6-4.3,18.2-.7,20.6,8.4,1.7,6.4-2,12.9-9.3,16.2-13.4,6.1-26.9,12.2-40.7,18.5Z"/>
  <path class="cls-3" d="M1417.6,421.7c-20.5-5.5-40.5-10.9-60.6-16.2-5-1.3-9.4-3.6-11.8-8.4-2.2-4.5-1.7-9.2,1.4-13.2,3.6-4.6,8.4-6.6,14.1-5.2,10.8,2.7,21.5,5.6,32.3,8.5,10.1,2.7,20.2,5.3,30.4,8.1,6,1.6,10.6,4.9,11.9,11.4,1,5.2-.6,10.1-5,12.6-3.5,1.9-8.1,1.8-12.6,2.5Z"/>
  <path class="cls-24" d="M629,176c.7-13.3,1.5-26.3,1.9-39.2.2-7.9.4-8.3,8.4-8.9,7.1-.6,14.2-1.3,21.3-2.1,3.9-.4,5.9,1.3,6.4,5.1,2.8,19.1-.7,37.3-8.3,54.9-1,2.3-2.2,4.7-3.9,6.3-1.5,1.4-4.1,2.7-6,2.5-5.8-.6-11.4-2.1-17.1-3.1-4.1-.7-5.2-3-4.4-6.8.6-2.7,1.1-5.5,1.7-8.7Z"/>
  <path class="cls-16" d="M434.8,286.6c-7,18.6-14.2,37-21.4,55.4-1,2.6-2.1,5.3-3.4,7.7-.8,1.5-2.2,2.7-3.3,4.1-1.1-1.3-2.6-2.4-3.3-3.9-4.6-10.1-9.1-20.3-13.5-30.5-3.1-7.2-6.1-14.4-9.1-21.9,11.5-5.5,23.1-10.8,34.8-15.9,7.5-3.3,13.4.4,19.2,5Z"/>
  <path class="cls-27" d="M678.8,207.8c5.9-8.3,11.7-16.2,17.4-24.2,4.5-6.3,5-6.5,11.6-2.8,5.7,3.2,11.3,6.4,17,9.5,4,2.1,5.2,4.8,2.7,8.9-8.3,13.3-17.9,25.7-30.5,35.2-1.7,1.3-5.3,1.6-7.2.7-6.2-3.1-12.1-7-18.1-10.6-2.9-1.7-2.9-3.6-.9-6,2.7-3.4,5.2-6.9,8.1-10.6Z"/>
  <path class="cls-31" d="M966.7,232.1c9.2,3.5,18,7,26.8,10.5,3.4,1.4,3.8,3.8,1.9,6.8-4.7,7.5-9.3,15-13.9,22.6-1.7,2.8-4.1,2.9-6.4,1.5-10.4-6.3-20.7-12.8-30.9-19.4-1-.6-1.5-3.7-.9-4.7,3.4-5.5,7-10.9,10.9-16.1,3.4-4.5,7.9-1.6,12.4-1.1Z"/>
  <path class="cls-31" d="M372.5,106.4c4.7-.8,9-1.3,13.2-2.1,4.2-.8,7.5,0,9.6,4.1,3.5,6.9,7.6,13.6,10.8,20.7,2.9,6.6,1.3,8.7-5.5,9.8-7,1.1-14.1,2.2-21.1,3.5-3.1.6-4.6-.4-5.6-3.3-2.5-7.6-5.2-15.1-7.7-22.6-2.8-8.5-2.7-8.6,6.4-10.2Z"/>
  <path class="cls-31" d="M1153.3,161.7c3,4.2,6,8,8.6,12,1.6,2.6.7,4.8-2.1,6-7.4,3.3-14.8,6.8-22.4,9.8-1.6.6-5,0-5.9-1.3-5.3-7.6-10.1-15.6-15.1-23.4-2.2-3.4-1.7-5.6,2.4-7.1,5.1-1.9,10.1-4.2,15.1-6.4,4.2-1.9,7.9-1.8,11.2,2,2.5,2.9,5.3,5.5,8.3,8.4Z"/>
  <path class="cls-31" d="M1188.2,129.8q11.1,8.7.9,17.8c-4,3.5-8.1,6.9-12.1,10.5-2.4,2.1-4.3,2.3-6.9,0-6.6-6.1-13.5-11.9-20.3-17.8-3.1-2.7-3.6-5.2.2-8,4.6-3.3,8.9-7,13.1-10.7,2.7-2.4,5.5-2.8,8.6-1.1,5.3,3,10.7,6.1,16.3,9.3Z"/>
  <path class="cls-31" d="M449.2,107.8c-1.7,1.7-3.2,3.2-5,4.1-6.2,3.2-12.5,6.3-18.7,9.4-2.5,1.3-4.6,1.3-6.4-1.4-5-7.5-10.1-14.8-15.2-22.2-2.5-3.6-2.5-6.1,2.2-8,5.4-2.1,10.5-5,15.9-7.3,1.5-.7,4-1.2,5.1-.4,8.8,6.1,16.6,13.3,21.8,22.9.4.7.3,1.6.4,2.8Z"/>
  <path class="cls-28" d="M1696,282c9.5-7.3,7.8-8.3,17.8.5.9.8,1.7,1.7,2.6,2.3,3.3,2.5,2.9,4.7,0,7.2-11.1,9.1-8.3,10.2-18.4-.5-1-1.1-2.1-2.2-3.1-3.3-2.2-2.3-2-4.4,1.1-6.3Z"/>
  <path class="cls-28" d="M1678.4,297.1c-1.8-1.2-3.7-2.2-4.4-3.7-1.3-2.8-1.8-6-2.7-9-1.3-4.3.4-6,4.7-6.4,12.5-1.2,12.5-1.3,15.3,10.7,1.7,7.2,1.1,7.9-6.4,8.3-2,0-4,.1-6.4.2Z"/>
  <path class="cls-21" d="M347.1,51.7c3.2,1.9,6.1,3.5,8.9,5.3,1,.6,2.6,1.9,2.5,2.1-2.2,3.9-4.3,7.9-7.1,11.4-.7.9-3.9.5-5.5-.3-3.1-1.6-5.7-3.9-8.6-5.9-2.9-2-3.3-4.3-.5-6.4,3.1-2.5,4.2-8.2,10.4-6.3Z"/>
  <path class="cls-6" d="M1235.6,113c2.6,2.3,5,4.4,7.3,6.5.7.7,1.8,1.5,1.9,2.2.2,5.8-5.6,6.7-8.5,10-.7.8-4,.3-5.4-.6-2.2-1.4-4-3.6-5.5-5.7-1.5-2.1-3.8-5.1-3.2-6.7,1.5-4.2,9.3-7.2,13.4-5.7Z"/>
  <path class="cls-12" d="M481.5,103.5c-4.6-8.7-2.9-12.2,6.8-13.4,1.5-.2,3.8.5,4.8,1.6,2.5,3,4.6,6.5,6.7,9.8.3.4.5,1.3.4,1.4-3.6,2.6-7,5.5-10.9,7.6-1,.5-3.6-1.2-5-2.4-1.2-1-1.7-2.8-2.7-4.6Z"/>
  <path class="cls-26" d="M1201.5,121.6c-1.8-7.6-1.5-8.1,6.2-8.5,3-.2,8-.3,8.8,1.2,2.1,4,2.5,9.1,3.5,13.7.1.5-.5,1.6-.9,1.6-4.8.3-9.8,1.1-14.4.2-1.5-.3-2.1-5.1-3.3-8.2Z"/>
  <path class="cls-28" d="M458.3,99.2c-.1-3.6-.3-6.7-.2-9.8,0-1.3.6-3.6.9-3.6,4.5,0,9.1-.2,13.5.6,1.2.2,1.9,3.6,2.6,5.6.3,1,.2,2.3,0,3.4-.7,2.9,2,7-2.5,8.6-3.7,1.4-12.1-1.5-14.3-4.9Z"/>
  <path class="cls-21" d="M323.2,75.2c-3.9-.9-10.3-10.9-9.3-14,.2-.6.6-1.2,1.1-1.6.5-.4,1.2-.6,1.8-.9,10.7-4.9,16.4-1.9,18.2,9.8.2,1.3-1.1,3.6-2.3,4.1-2.8,1.3-6,1.7-9.5,2.6Z"/>
  <path class="cls-2" d="M636.1,881.9c-15-9.1-29.7-18.1-45.1-27.5,18.4-20.9,36.2-41.3,54.8-62.6,5.5,35.4,10.8,69.9,16.3,105.7-9.2-5.5-17.5-10.5-26.1-15.6Z"/>
  <path class="cls-32" d="M1266.2,817.3c3.6-6.4,8.2-11.3,14.6-14.3,9.1-4.3,17.8-3.4,26.1,1.9,8.1,5.3,9.4,9.5,7.2,18.8-2.8,11.6-5.3,23.3-8.1,35-.3,1.3-1.4,3.1-2.5,3.5-15.2,4.8-34.9-4.8-39.9-19.4-3-8.7-1.6-17,2.6-25.4Z"/>
  <path class="cls-22" d="M1149.4,627.8c-13.6-3.5-22-11.5-23.8-25.3-2.2-16.7,10.3-34,26.5-36,9.4-1.2,17.5,2,23.3,9.5,1.7,2.2,2.5,5.9,2.1,8.7-1.9,13.1-4.4,26.2-6.4,39.3-.4,2.7-1.3,3.9-3.9,3.9-5.8,0-11.6,0-17.8,0Z"/>
  <path class="cls-32" d="M1072,382.9c6.6-4.4,13.6-5.8,20.8-3.7,8.6,2.5,10,4.3,11.3,12.3,2,12.4,4.9,24.7,7.3,37.1.3,1.5,0,4-.9,4.6-12.7,8.3-31.2,11.1-43.2-2.5-12.1-13.6-9.9-35.7,4.8-47.8Z"/>
  <path class="cls-22" d="M1051.1,797.2c6.9-15.7,22-20.2,36.7-17,6.9,1.5,12.3,5.4,16.2,11.5,7.8,12.3,7.5,31.9-1.4,43.4-6.8,8.8-16.2,11.9-27,10.3-12.4-1.8-21-8.9-25.5-20.6-3.5-9.1-2.9-18.3.9-27.6Z"/>
  <path class="cls-22" d="M1453,609.9c-8.7-17.7-2.4-39.7,13.5-47.5,21.2-10.5,45.2,5.1,44.2,28.8-.5,10.8-3.3,20.8-11.7,28.2-13.7,12.1-35,7.8-46-9.5Z"/>
  <path class="cls-2" d="M287.9,111.1c-.2-.4-.4-.9-.5-1.4.2.2.5.4.8.9,0,.3-.2.4-.3.5Z"/>
  <path class="cls-30" d="M1212,258.3c.1,2.3.7,4.7-.2,6.3-3,5.6-6.4,10.9-9.7,16.3-1.7,2.8-4,4.2-7.1,2.5-3-1.7-3.3-4.4-1.6-7.3,3.3-5.6,6.6-11.2,10.1-16.7,2.1-3.2,4.9-4.6,8.5-1.1Z"/>
  <path class="cls-14" d="M1194,292.9c-.8,3.5-2.8,5.8-6,4.3-1.7-.8-3.3-3.2-3.5-5.1-.2-1.2,2.1-3.5,3.6-3.8,3.2-.8,5.4.8,5.9,4.7Z"/>
  <path class="cls-25" d="M510.1,755.1c-1.3,1.5-2.4,2.8-3.6,4-.2.2-.5.4-1.2.9-2.2-2-4.6-4-7.2-6.3,3.8-4.4,7.4-8.6,11.4-13.2-4.3-3.8-8.4-7.5-13-11.5,2.2-2.5,4.2-4.8,6.5-7.4,4.5,3.9,8.8,7.5,13.3,11.4,3.9-4.4,7.5-8.4,11.5-13,2.4,2.1,4.7,4.1,7.4,6.5-3.7,4.3-7.4,8.5-11.3,13.1,4.3,3.9,8.5,7.7,12.9,11.7-2.3,2.6-4.2,4.8-6.5,7.4-4.4-3.8-8.6-7.5-13.1-11.4-2.4,2.7-4.6,5.2-7.1,7.9Z"/>
</svg>