<?xml version="1.0" encoding="UTF-8"?>
<svg id="Layer_1" data-name="Layer 1" xmlns="http://www.w3.org/2000/svg" version="1.1" viewBox="0 0 1920 1090">
  <defs>
    <style>
      .cls-1 {
        fill: #020202;
      }

      .cls-1, .cls-2, .cls-3, .cls-4, .cls-5, .cls-6, .cls-7, .cls-8, .cls-9, .cls-10, .cls-11, .cls-12, .cls-13, .cls-14, .cls-15, .cls-16, .cls-17, .cls-18, .cls-19, .cls-20, .cls-21, .cls-22, .cls-23, .cls-24, .cls-25, .cls-26, .cls-27, .cls-28, .cls-29, .cls-30, .cls-31, .cls-32, .cls-33, .cls-34, .cls-35, .cls-36, .cls-37 {
        stroke-width: 0px;
      }

      .cls-2 {
        fill: #feffff;
      }

      .cls-3 {
        fill: #51eaff;
      }

      .cls-4 {
        fill: #51ccff;
      }

      .cls-5 {
        fill: #3c99d4;
      }

      .cls-6 {
        fill: #54cdff;
      }

      .cls-7 {
        fill: #ffb951;
      }

      .cls-8 {
        fill: #248acb;
      }

      .cls-9 {
        fill: #4fe5ff;
      }

      .cls-10 {
        fill: #69e5ff;
      }

      .cls-11 {
        fill: #cb51ff;
      }

      .cls-12 {
        fill: #52cdff;
      }

      .cls-13 {
        fill: #0979ba;
      }

      .cls-14 {
        fill: #fffbf6;
      }

      .cls-15 {
        fill: #196cb3;
      }

      .cls-16 {
        fill: #1a6db4;
      }

      .cls-17 {
        fill: #3d99d4;
      }

      .cls-18 {
        fill: #1d6fb4;
      }

      .cls-19 {
        fill: #50e5ff;
      }

      .cls-20 {
        fill: #51b2ff;
      }

      .cls-21 {
        fill: #0978ba;
      }

      .cls-22 {
        fill: #51b4ff;
      }

      .cls-23 {
        fill: #ffb551;
      }

      .cls-24 {
        fill: #53e6ff;
      }

      .cls-25 {
        fill: #196db3;
      }

      .cls-26 {
        fill: #fdfefe;
      }

      .cls-27 {
        fill: #ff6004;
      }

      .cls-28 {
        fill: #50ccff;
      }

      .cls-29 {
        fill: #fffbf8;
      }

      .cls-30 {
        fill: #54ceff;
      }

      .cls-31 {
        fill: #51e5ff;
      }

      .cls-32 {
        fill: #1b6eb4;
      }

      .cls-33 {
        fill: #53cdff;
      }

      .cls-34 {
        fill: #2489cb;
      }

      .cls-35 {
        fill: #fffdfa;
      }

      .cls-36 {
        fill: #51cdff;
      }

      .cls-37 {
        fill: #fdfeff;
      }
    </style>
  </defs>
  <path class="cls-37" d="M1337,1c2.7,0,5.4,0,8.2.4.6.8,1.1,1.5,1.6,1.6,9.3,1.8,18.7,3.3,28,5.2,17.6,3.6,30,13.3,35.1,31.1,1,3.5,1.5,7.7,3.7,10.4,8.3,9.7,11.8,20.8,11,33.7-3,10.2-5.7,20.1-8.6,30-3.1,10.6-9.5,18.9-18.7,24.9-1.1.7-2.6,1.5-2.8,2.6-2,9-3.7,18-5.5,27.3,6.4,0,12.2-.4,17.9.1,4,.4,8,2,12,3,0,0,0,0,0,.3.4.4.8.5,1.5.8,1.1.7,2,1.1,2.8,1.6,21.3,12.7,42.7,25.1,63.8,38.1,15.5,9.5,24.9,23.2,27,41.7.1,1.3,2,3,3.3,3.4,11.5,3.5,23.2,6.8,34.8,10.2,10.8,3.1,21.6,6.3,32.8,9.6,0-2.2,0-3.9,0-5.5,0-23.4,18.2-42.1,42.1-42.2,9.7,0,19.3.2,29,0,7.8-.2,15.3,1.4,21.6,5.7,5,3.4,10.1,3.5,15.5,3.5,2.4,0,4.9-.8,7.3-1,14.5-1.3,26.4,4.1,37.4,13.4,13.5,11.6,23,24.6,20.8,43.8-2.2,6.1-4.3,11.8-6.3,17.6-.5,1.5-1.2,3.2-1,4.6,2,10.8.1,20.9-5.3,30.3-4.8,8.4-9.9,16.6-14.9,24.8-6.8,11.2-16.3,18.7-29.3,21.5-1.1.2-2.8,1.6-2.9,2.5-1.1,11.1-5.5,20.8-13.7,29.2,4.7,1.3,8.8,2.5,13,3.6,11.2,2.9,22.5,5.7,34.1,8.6,4,1.1,7.6,2,11.2,3.1,10.5,3.1,21.7,4.6,31,11.2,17.1,12,24.9,28.7,23.9,49.8-4.5,35.7-38,56-72.3,45.9-37.6-11.1-75.7-20.6-113.5-30.7-11.8-3.2-23.6-6.2-35.5-9.4,5.3,7.3,10.7,14.1,15.3,21.3,10.5,16.4,15.7,34.7,18.5,54.2.2,7.1.5,13.9.6,20.9-2,20.2-7.5,38.8-18.3,56,7.8,6.4,13.2,14.2,16.5,23.9.7,5.8,1.3,11.3,1.7,17-2.2,6.4-4.4,12.5-6.3,18.7-.7,2.2-1.5,4.8-1.1,6.9,3.7,18.8-4,36-20.7,45.2-7.1,3.9-14.4,7.7-21.6,11.4-4.9,2.6-5.4,8.3-1.5,12.4,7.4,7.7,14.6,15.4,21.4,23.6,3.6,4.4,6.1,9.8,9.2,15.1,7.6,16.5,12.1,33.3,11.7,51.6-2.7,22.2-12.6,39.7-31,52.3-1.1.7-2.1,2.2-2.3,3.5-2.6,12.9-4.4,25.9-7.5,38.6-5.1,21.3-18.1,35.8-39.6,41.3-16.2,4.2-32.9,4.9-49.6,3.3-30.6-2.9-57.2-14.3-79.4-35.8-10.1-9.8-18.1-21.1-24.8-33.8-9,7-17.4,14-26.2,20.5-19.3,14.3-44.3,13.9-62.2-1.7-8.2-7.2-15.1-15.9-22.8-23.7-1.5-1.5-3.5-3.2-5.5-3.6-23.8-4.8-45.1-14.7-63.6-30.7-1.8-1.5-4.3-2.8-6.6-3-21.9-2.2-43.7-4.4-65.7-6.2-5.2-.4-10.7-.4-15.6,1-15.8,4.5-31.8,7.1-48.3,6-5.1-.3-10.2-.8-15.5-1.2-2.5,14.9-9.7,27.1-20.1,37.4-23.2,22.8-49.8,40.5-80.9,50.9-38.3,12.8-76.8,13.4-115.3,1-19-6.1-36.5-15.3-52.5-27.2-3.8-2.9-7.2-2.8-11.1.4-14.5,12.2-29.2,24.2-44.1,36.1-22.1,17.6-46.8,19-71,4.3-15.7-9.5-31.3-19.1-46.9-28.6-14.1-8.5-28.1-17-42.5-25.7-6.8,7.8-13.5,15.1-19.8,22.8-22.6,27.5-59.2,31.7-85,9.6-7.3-6.3-14.6-12.6-21.9-19-7.6-6.6-14.7-13.7-18.6-23.2-2.4-5.8-3.7-12-5.5-18.2,0-.2,0-.5,0-.9-1-20.2,6.6-36.4,19.8-49.4-7-5.8-14.6-10.6-20.3-17.1-5.6-6.4-9.4-14.5-14.1-22.1-46.7,21.4-94.1,42.8-141.3,64.7-37.7,17.6-77.2-5.2-79.4-46.3,0-1.8-1.5-3.9-2.9-5.2-11.3-10.5-17.4-23.3-18-38.8,0-1.5-.5-3.5-1.5-4.4-10.2-8.9-15.5-20.5-18.2-34-2.2-26.4,9.2-44.7,32.1-56.2,8.5-4.3,17.3-8,26-12,15-7,30-13.9,45.3-20.9,1.3-.2,2.4-.3,3.3-.7,17.8-8,35.6-15.9,53.1-23.8,0,0-.9-.7-1.8-1.4-27.9-20.5-55.7-41-83.7-61.4-9.7-7.1-17-15.8-20.9-27.2-1.3-3.9-2.3-7.9-3.4-12.4,0-5.3-.2-10.1.2-14.9,1.1-11.3,2.5-22.6,3.7-33.8,1.1-10.2,2-20.4,3.1-30.5,1.6-14.1,3.3-28.1,4.8-42.2,1.1-10.3,2-20.7,3.2-31,1.6-14.1,3.4-28.1,4.8-42.2,1.6-16,7.6-29.7,20.3-39.7,5.6-4.4,12.3-7.4,18.8-10.9,8.6-3.4,16.8-6.9,25.3-10.6-6.6-13.7-12.9-27.1-19.6-40.3-10.6-20.8-9.3-40.3,5.5-59-13-10.3-19.9-24.1-22.9-40.2-1.5-8-3-16-4.5-24-3.6-18.7-7.2-37.5-10.8-56.7,0-2.5,0-4.5-.1-6.5-1.3-17.8,12.7-36.4,29.8-40.8,9.2-2.4,18.5-4.2,27.9-6,5.1-1,10.4-2,15.6-1.6,3.4.3,5.3-.6,7.9-2.3,5.1-3.4,10.4-7,16.1-8.9,9.8-3.4,20-5.8,30.2-8.2,9.7-2.3,19.3-1.9,28.4,2.5,15.4,7.4,29.9,15.9,34.8,33.7.8,0,1.1,0,1.4,0,1.5-.6,3-1.3,4.5-2,13.5-6.4,27.2-7.2,41.1-1,1.6.7,3.7.3,5.6.3,6-.1,12.1-1,18.1-.4,8.6.8,17.2,2.2,25.6,4.3,6.8,1.7,13.8,4,19.9,7.4,10.3,5.6,15.5,16.1,21.6,25.2,5.3-.6,10.4-1.3,15.5-1.6,2.5-.1,3.5-.8,4.6-3.2,5.9-12.6,15.4-21.4,29.2-24.9,23-5.9,45.9-12,69-17.5,14.1-3.3,27.8-8.3,42.9-6.7,19.6,2,39.2,16.3,45.2,35.3,6.1,19.3,5,38.8.8,57.6,10.6,1.8,21.3,3.5,31.9,5.4,11.5,2,22.5,4.8,31.6,12.9,1.3,1.1,3.2,1.7,4.9,2.1,11,2.6,22,5,33,7.6,8.3,2,8.1,2,12.1-5.8,8.3-15.9,25.1-22.9,39.7-22.3,11.6.5,23.1,1.7,34.6,2.6,9.1.7,18.2.7,27.2,2.3,21,3.6,36.5,15,45.8,34.8,4.6-3.5,9.1-6.9,13.4-10.4,12.2-9.8,26.1-13.5,41.2-9.5,6.3,1.6,11.9,5.5,17.8,8.3,4.4-13.6,13.6-23.3,27.5-28.4,4.7-1.7,8.6-4,11.1-8.8,1.7-3.2,4.9-5.8,7.7-8.4,4.4-4,9.2-7.6,13.7-11.4,9.5-8,20-13.4,32.8-12.6,6.6.4,12.7-.4,19.2-2.7,17.3-6.3,35.6-4.3,52.9-5.2,3.4-11.6,6.6-23.7,10.6-35.6,3.3-9.6,9.7-17.3,18.5-22.4,12.6-7.4,25.9-7.7,39.3-2.8,2.8,1,4.6.4,7.1-.8,5.9-2.9,12.3-5,18.4-7.5.8-.3,1.4-1.3,2.1-2M1532.4,664.4c29.1-18.7,42.3-45.4,38.4-79.7-2.9-24.7-14.3-45.1-34.9-59.8-15-10.8-32.1-15.6-50.3-17.2-43.2-3.8-84.2,17.1-96.9,64.3-12.4,46.3,12.6,91.6,58.6,105.1,19,5.6,37.8,4.8,56.9.9.3,15.2.5,30.3.9,45.5.2,6.9,4.1,9.3,10.2,6.2,5-2.5,9.9-5.3,15-8,4.7,8.7,9.1,16.9,13.6,25.2,7.6-4.1,14.5-7.9,21.7-11.7-4.6-8.7-8.9-16.8-13.5-25.3,5.2-2.8,10.3-5.4,15.1-8.1,5.4-3.1,5.7-7.7.9-11.5-1.2-.9-2.5-1.7-3.7-2.5-10.9-7.6-21.7-15.3-31.9-23.4M380.2,297.8c-.4-.7-.9-1.4-1.2-2.2-10.7-24.5-21.5-49.1-32.2-73.6-5.3-12-9.4-13.7-21.7-8.4-14.5,6.2-29.1,12.4-43.6,18.5-9.3,4-10.6,7.3-6.1,16.6,8.9,18.4,17.9,36.8,26.8,55.2,3.8,7.9,7.3,16,10.2,24.1-22.1,9.7-44.2,19.4-66.3,29.1-5.8,2.6-9.9,6.6-10.6,13.4-.6,6-1.2,11.9-1.9,17.9-2.9,25.8-5.8,51.5-8.7,77.3-3,26.9-5.9,53.9-8.9,80.8-1,9.3-1.9,17.9,7.3,24.6,49.1,35.6,97.9,71.5,146.7,107.4,6,4.4,12.1,4.9,18.8,2,55.6-24.5,111.2-48.9,166.8-73.5,2.3-1,4.3-2.9,7.1-4.2,7.9,9.8,16.5,19.2,23.5,29.6,8.6,12.7,5.4,25.6-7,34.9-6.9,5.2-14.7,8.2-23.2,9.8-7.9,1.4-9.4,3.9-6.6,11.3,4.3,11.7,8.7,23.4,13,35,3.5,9.3,5.9,11.1,15.7,9.1,11-2.2,21.9-5.2,33.2-7.4-6.2,7.3-12.3,14.7-18.6,22-19.9,22.8-40,45.5-59.9,68.4-2.2,2.5-3.8,2.6-6.7.8-17.9-11-35.8-21.8-53.8-32.6-11.1-6.6-20.5-4.3-27.2,6.7-5.2,8.5-10.4,17.1-15.5,25.7-6.9,11.6-4.5,20.9,7,27.9,13.5,8.2,27.1,16.3,40.6,24.5,1.8,1.1,3.4,2.4,5.2,3.7-.9,1.3-1.5,2.2-2.1,2.9-11.2,12.8-22.3,25.6-33.5,38.3-8.1,9.3-8,18.9,1,27.2,7.5,6.9,15.3,13.4,22.9,20.1,10.6,9.3,20.7,8.4,29.8-2.2,13.2-15.4,26.8-30.5,40-45.9,2.4-2.8,4.3-3.1,7.6-1.1,18.3,11.3,36.7,22.3,55,33.5,19.4,11.7,38.7,23.5,58.1,35.2,11.5,6.9,16.9,6.6,27.2-1.7,13.2-10.6,26.2-21.6,39.5-32.1,7.5-5.9,10.2-13.1,8.7-22.4-4.5-28.7-8.8-57.4-13.2-86.2-4.6-29.9-9.4-59.7-13.7-89.6-1.5-10.8-6.1-18.4-17-21.4-3.3-.9-6.5-2.5-9.7-3.8-13.1-5.3-26.2-10.6-38.7-16.2,3.5-3,7.2-5.9,10.5-9.2,20.3-19.7,29.7-46,15.2-74.8-5.2-10.4-13.2-19.5-20.1-29-6.6-9.1-14.2-17.6-20.2-27.2-6.9-11.1-3.7-22.8,7.6-29.1,6.5-3.6,14.1-5.5,21.4-7.5,6.4-1.7,8.6-4.6,6.2-10.7-4.9-12.9-10-25.7-14.9-38.6-1.6-4.3-4.7-6.5-9.1-6.4-4.6,0-9.3.5-13.9,1.2-17.6,2.7-33.9,9.1-49.4,16.9.6-6.8,1.3-13.6,2.1-21.2.2-.5.4-.9.6-1.4,10.7-45.4,21.5-90.9,32.2-136.4,1.1-4.7-.6-7.1-5.5-8.3-17.5-4.1-34.9-8.2-52.4-12.3-6.2-1.4-8.4,0-9.9,6.3-3.3,13.7-6.6,27.5-10.6,41.1-1.6-1.1-3.3-2.2-4.9-3.3-10.2-7.3-20.4-14.7-30.6-22.8,2.2-6.3,4.5-12.5,6.5-18.8,8-25.2,16-50.3,23.8-75.6,1.8-6-.1-9.6-6.1-11.7-16.2-5.5-32.5-10.9-48.8-15.9-6.7-2.1-9.3-.4-11.9,6.2-4.1,10.5-8.1,21.1-12.2,31.7-4.9,12.7-10,25.3-15.4,37.4-5.6-4.4-11.5-8.1-19-4.8-11.6,5.1-23.2,10.3-35.4,15.1M888.1,955.8c1.3-.2,2.6-.5,3.9-.7,34.1-4.3,62.1-20.6,86.4-44.2,5.8-5.6,6.1-8.8,2.2-16-6.4-11.7-13-23.2-19.5-34.9-4.4-7.9-9.1-8.5-15.7-2.2-13.4,13-28.9,22-47.5,24.5-19.9,2.7-38.3-.9-52.8-16-12.4-13-15.2-29-13.1-46.4,4-33.6,29.6-49.1,59.3-47.6,13.5.6,26.3,3.6,38.2,10.1,4.7,2.6,8.9.8,10.8-4.3,5.3-14.5,10.5-29.1,15.5-43.7,1.8-5.2,0-9.5-5-12.2-5.6-3-11.1-6.1-17.1-8.2-38.3-12.9-76.1-10.6-112.9,5.5-26.7,11.7-46.4,30.9-58,57.9-10.3,24.1-13.1,49.4-9,75.3,6.1,38.2,26.1,67.1,59.4,86.7,22.8,13.4,47.7,18.1,74.8,16.3M1203.8,765.3c-15.7,18-23.1,38.8-19.9,62.7,4.3,32.1,21.5,55.3,50,70.1,12.7,6.6,26.4,9.9,40.8,10.2,2.6,0,5.8-.6,7.1,3.1,4.1,11.6,11.8,20.7,20.8,28.8,7.3,6.5,10.4,6.8,18.3.8,9.6-7.5,19-15.2,28.6-22.6,3.7-2.9,4.2-5.6,1.3-9.2-5.3-6.7-6.5-14.5-3.8-22.2,3.5-10.2,7-20.7,12.5-29.7,23.8-39.1,48.4-77.7,72.7-116.5,5.4-8.5,4.7-11.6-4.2-16.6-13.5-7.6-27-15.2-40.5-22.7-8-4.4-11.9-3.4-16.6,4.2-12,19.2-24,38.4-36,57.6-.9,1.5-2,2.8-2.8,4-6.6-5.5-12.4-11-19-15.6-18-12.6-37.8-18.5-59.9-14.8-19.7,3.3-35.5,13.5-49.4,28.4M1216,455.6c-7.4,23.8-14.8,47.6-22.3,71.8-2.1-1.2-3.8-2.3-5.5-3.2-17.4-9.9-36-15.2-56-13-39.8,4.4-73.3,43.8-72.1,84.1,1.1,36.7,27.1,70,63.1,80.7,17.3,5.2,34.7,5.6,52.3,1.5,2.4-.6,4.6-1.3,6.5,1.6,7,10.4,17,17.2,27.9,22.7,7.9,4,11.4,3.4,16.7-3.6,7.3-9.5,14.4-19.2,21.6-28.8,4.2-5.6,4.3-6.1-.9-10.6-4.9-4.2-7.6-9.4-8.5-15.9-1.7-13.2,1.1-26,4.9-38.3,13.2-43.6,27-87,40.5-130.5,2.3-7.5,1-10.8-6.4-12.8-16.4-4.4-32.8-8.6-49.3-12.6-6.5-1.6-9.3,0-12.5,7M1127,482.6c3.6-2.3,7.2-4.8,10.9-7,1.2-.7,3.3-1.1,4.3-.5,9.8,5.4,20.3,8.2,31.3,9.5,8.6,1,11.9-.6,14.5-9.1,3.6-11.6,6.9-23.3,10.3-34.9,1.8-6,1.2-7.4-4.6-9.4-6.6-2.3-11.4-6.6-13.8-12.8-2.5-6.3-5.2-12.9-5.8-19.5-2.2-22.3-3.6-44.8-5.2-67.2-.6-8.3-3.4-11.3-11.6-10.5-13.8,1.2-27.5,2.6-41.2,4.2-4.7.5-9.9.9-13.9,3.2-3,1.7-5.4,1.7-8.3,1.4-4.3-.4-8.6-1-12.9-1.2-18.2-.5-35.5,2.8-51.1,12.7-20.9,13.3-32,33-35.7,57-4.9,32.6,5.3,60,32.4,79.1,31.6,22.2,65.3,23,100.2,5.1M981,360.4c2.6-17.4,5.1-34.9,7.7-52.3.9-6.1-.5-8.4-6.6-9.3-17.4-2.7-34.9-5.3-52.3-7.8-6.9-1-8.9.7-9.9,7.7-4.2,28.5-8.3,57-12.6,85.4-1.6,10.8-1.8,10.8-12.4,12.8-14.7,2.9-24-3.2-26.9-18-.8-3.9-1.1-7.9-1-11.9.6-23.8,1.5-47.6,2.1-71.4.2-7.4-1.8-9.5-9.3-9.7-15.3-.4-30.6-.7-46-.9-6,0-8.5,1.9-9.8,7.7-.6,2.6-1,5.2-1.2,7.9-1.2,15.8-2.8,31.5-3.5,47.3-.6,15.3-1.7,30.7,0,45.8,2.5,24.1,14.7,42.6,37.3,52.9,15.5,7.1,32,8.5,48.9,7,8.6-.8,17.2-2.3,25.7-1.5,15.9,1.5,31.6,4.5,47.4,6.9,5.4.8,7.7-.9,8.8-6.3.7-3.6,1.1-7.2,1.7-10.8,4-26.8,7.9-53.7,11.9-81.4M848.5,598c2.8,10.9,4.8,22.2,8.6,32.8,11.5,32.1,35.6,47.9,69.4,46.4,15.9-.7,30.6-5.8,44.9-12.4,2.2-1,4.6-2.2,7-2.5,16.7-2.1,33.4-4.1,50.1-6,8-.9,9.4-3,8.3-11.2-3.3-26.1-6.5-52.2-9.7-78.3-2.7-21.6-5.3-43.3-8-64.9-.6-5.1-3.2-7.1-8.1-6.6-17.8,2.2-35.7,4.3-53.5,6.6-6.3.8-8,3.1-7.2,9.4,3.8,30.9,7.7,61.7,11.4,92.6.2,1.4-.6,3.8-1.7,4.4-4.1,2.5-8.3,5.1-12.8,6.6-10.1,3.5-18.6.4-23.9-8.9-2.6-4.6-4.7-9.6-6-14.7-5.7-22.7-10.9-45.6-16.4-68.4-1.8-7.7-4.6-9.5-12.1-7.7-14.8,3.7-29.6,7.7-44.5,11.3-5.4,1.3-7.3,4.8-7.2,9.8,0,2.3.2,4.7.7,6.9,3.5,18,7,35.9,10.8,54.7M971.4,782c-3,49.5,32.7,89,82.1,91.3,25.8,1.2,48.6-6.8,69-21.9,53.9-40,38.3-108.7-2.6-136.7-20.7-14.2-43.8-17.5-68.2-14.8-42.8,4.9-77.1,33.6-80.2,82.2M1480.5,812.9c-11.5,3-23.7,4.7-34.5,9.3-30.8,13.2-48.7,36.9-50.6,70.6-1.8,31.5,10.5,57.3,36.5,75.7,23.9,16.9,50.9,19.1,78.9,14.2,5.6-1,10-4.1,11.5-9.9,2.5-10.1,5-20.4,6.8-30.6,1.2-6.7-2.4-9.9-9.3-9.4-4.3.3-8.5,1.4-12.9,1.7-18.3,1.2-34.2-3.6-44.6-19.8-7.6-11.9-9.8-24.8-2.7-37.8,6.8-12.5,23.3-16,32.7-7.3,5,4.6,4.7,7.6-1.3,10.5-3.9,1.9-8,3.3-11.9,5.1-3.5,1.6-5.1,3.9-3.1,8,4.1,8.4,8,16.8,12,25.2,1.8,3.9,4.9,5.7,8.9,4.4,15.5-4.9,31.2-9.2,46.3-15.2,11.9-4.7,20-13.9,18.9-27.7-1.7-22.4-10.7-41.5-28.9-55.3-15.3-11.6-33.1-13.9-52.6-11.6M811.8,562.3c.3-8.5.7-17,1-25.5.3-7.3-1.5-9.3-8.8-9.5-5.6-.2-11.2,0-16,0,0-11.7,0-22.4,0-33,0-10.2-1.6-12.1-11.6-12.2-15.7-.2-31.3-.3-47-.5-10.6-.1-12.4,1.6-12.4,12.4,0,10.4,0,20.9,0,31.4-6.5,0-11.8,0-17.1,0-5.4,0-7.8,1.7-8.1,6.6-.7,15.3-1.3,30.6-1.8,45.9-.2,4.8,2.2,7,7,7.2,5,.2,10,.6,15,.3,4.5-.2,5.8,1.4,6.2,5.8.9,11.8,2.2,23.5,4,35.2,2.1,13,6.1,25.6,13.5,36.7,11,16.6,27.7,23.7,46.5,27,8.2,1.5,11,.3,13.9-7.3,4.7-11.9,9-24,13.6-35.9,1.6-4.1.2-6.2-3.7-8.3-4-2.1-8.3-4.8-10.7-8.5-8.6-13.1-8.2-28.2-9.2-43.2,6.4,0,12,0,17.7,0,5.2,0,7.2-2.1,7.4-7.2.3-5.5.5-11,.8-17.4M1235.9,420.7c16.4,4.2,32.9,8.3,49.3,12.5,6.1,1.5,8.3.3,9.8-5.7,19-74.2,38-148.5,57-222.7,1.9-7.4.9-9.1-6.5-11-16.6-4.3-33.2-8.5-49.7-12.8-7.2-1.8-9.1-.7-10.9,6.6-18.9,73.7-37.8,147.5-56.6,221.2-2,7.9-1,9.6,7.7,11.8M771,403.7c-4.5-6.9-8.5-14.3-13.7-20.6-5.3-6.6-12-12.1-17.8-18.2-8.9-9.5-7-17,5.7-20.9,4.6-1.4,9.5-1.8,14.2-2.8,4.7-1,6.1-3.2,4.1-7.5-5-10.7-10.3-21.3-15.5-31.9-1.7-3.5-4.5-5.3-8.4-5.1-5.8.4-11.7.4-17.4,1.3-20.1,3.3-39.1,9.6-55.2,22.7-18,14.8-21,34.6-7.4,53.4,5.3,7.4,12,13.7,18.1,20.5,2.9,3.2,6.1,6.2,8.8,9.6,4.2,5.3,3.9,11.1-1.3,15.5-3.1,2.6-7,4.6-10.8,6-3.5,1.3-7.5,1.5-11.2,2.3-6,1.2-7.2,3.6-4.6,9.1,4.3,9.2,8.8,18.3,13.2,27.5,3.8,7.8,6.4,9.4,14.9,8,9.8-1.6,19.7-3.1,29.3-5.8,15-4.1,29.2-10.4,41.1-20.8,12.6-11.1,19.7-24.2,14-42.3M1345.1,697.4c7.3-43.8,14.7-87.6,22-131.3,1.4-8.5.3-9.8-8.1-11.2-16.7-2.7-33.5-5.6-50.2-8.5-6.4-1.1-8.8.5-9.9,7.1-7.4,44.1-14.8,88.2-22.2,132.3-1.3,8,0,9.9,7.7,11.1,16.7,2.8,33.5,5.6,50.2,8.4,6.9,1.2,8.8,0,10.4-8M1263.8,122.2c-3.3,1.6-3.2,3.9-1.2,6.5,3.3,4.4,6.7,8.7,9.8,13.2,2.4,3.5,5.6,4.4,9.5,3.8,10.6-1.7,20.7-4.9,29.6-11.3,3.5-2.5,6.8-5.2,10.6-8-.2,1.4-.2,2.4-.4,3.4-1.8,9-3.7,17.9-5.5,26.9-.9,4.4-.3,7.3,5.1,8,7.1,1,14,2.7,21,4.2,3.8.8,6-.3,6.7-4.4,2.3-12.1,4.7-24.1,7.1-36.2,1.8-9,3.7-18.1,5.6-27.3,3.9,1.2,7.3,2.2,10.6,3.1,3,.8,5,0,5.9-3.5,1.6-6.1,3.7-12.1,5.6-18.1,1.1-3.6.4-6.2-3.8-7.1-2.6-.6-5-1.8-7.6-2.3-3.7-.7-5-2.3-3.9-6.2,1.2-4.5,1.8-9.1,2.7-13.7.6-3.2-.6-4.8-4-5.4-7.2-1.2-14.3-2.9-21.5-4.4-5.6-1.2-6.5-.5-7.6,5.3-.5,2.6-1.4,5.2-1.6,7.8-.4,4.5-2.3,5-6.3,3.7-11.4-3.8-22.9-7.1-34.3-10.7-3.9-1.3-6.3-.5-7.4,3.8-1.4,5.5-3.3,10.8-5,16.2-1.9,5.9-1.5,6.7,4.4,8.6,12.5,3.9,25.1,7.7,37.6,11.7,1.3.4,3.5,1.9,3.4,2.7-.6,4.8-1.7,9.5-2.8,14.9-5.1-4.4-9.4-8.1-13.7-11.8-5.5-4.7-5.7-4.8-10.9.5-10.7,10.9-22.4,20.4-37.6,26.1M1043.5,222.9c8.8-5.9,18.1-1.6,27.2-1.4.7,0,2.4,3.3,1.9,3.9-2.3,3.6-4.7,7.6-8,10-1.4,1-5.4-1.3-8.1-2.2-1.9-.6-3.7-1.5-5.5-2.3-8.6-3.5-9.3-3.3-15.5,3.2-1.1,1.2-2.3,2.4-3.4,3.6-5.5,6.1-5.4,6.5,1.2,11.2,3.7,2.6,7.4,5.3,11.8,8.5-1.5,1.1-2.3,1.7-3.1,2.3-8.3,6.6-16.6,13.4-24.9,19.9-4.6,3.6-4.8,4.4-.9,8.5,2.9,3,5.8,6,8.8,8.9,4.9,4.8,7,5.4,12.7,1.7,10.2-6.5,20.3-13.3,30.2-20.3,2.6-1.8,4.5-2.3,7.1-.3,2.6,2,5.5,3.8,8.2,5.7,2.8,2,5.1,1.7,7.4-.9,4.5-5.1,9.1-10.2,13.9-15,3.1-3.2,2.6-5.9-.6-8.4-3-2.3-6.1-4.5-9.5-7,1.2-1.7,2.4-3.1,3.2-4.7,5.3-10.1,11.5-19.9,15.5-30.5,4.9-12.8-2.2-21.7-16-22.5-9.8-.5-19.6-1.7-29.4-2.1-7.6-.3-13.8-2.1-17.3-9.7-2-4.3-4.8-3-8.1-.8-11.8,8-23.8,15.8-35.9,23.3-3.7,2.3-4.1,4.2-1.8,7.5,3.4,4.9,6.9,9.8,9.8,15,2.4,4.2,5.7,4.9,9.7,3.3,6.3-2.6,12.5-5.5,19.4-8.6M466.6,679.1c-58.6,26.8-117.2,53.5-175.7,80.3-2.8,1.3-5.6,3.1-7.6,5.4-3.8,4.6-3.3,11,.6,16.1,3.4,4.5,9.1,6.5,14.7,4.2,8.6-3.5,17.1-7.5,25.5-11.3,48.6-22.2,97.2-44.4,145.8-66.5,20.4-9.3,40.8-18.7,61.3-28,4.9-2.2,8.3-5.6,8.9-11.1,1.1-10.7-8.8-18.3-18.7-14-18.1,7.9-36.1,16.4-54.8,24.8M266.5,172.9c6.3,8.4,15.1,8.9,24.3,7.6,10.4-1.4,20.7-3,31-4.6,8.9-1.3,17.7-2.6,26.6-4.1,5.8-.9,8.2-3.5,7.4-8-1-5.7-2.4-11.4-3.5-17.1-.7-3.7-2.7-4.7-6.5-4.1-13.4,2.4-26.9,4.3-40.3,6.7-11,1.9-11.1,2.1-13.2-8.7-1.9-9.9-3.6-19.9-5.4-29.9,3.4,4.1,6.1,8.5,8.6,12.9,1.7,2.9,3.9,4.2,7,2.7,12.9-6.1,25.8-12.2,38.6-18.3,4-1.9,3.9-4.7,1.3-8-3.7-4.9-7.4-9.9-10.7-15.1-2.6-4-5.1-4.9-9.4-2.4-10.3,6.1-20.9,11.7-31.4,17.5-1.6.9-3.4,1.6-5.6,2.6-1.6-8.9-3.3-17-4.6-25.2-.6-3.9-2.6-5.1-6.2-4.3-7.5,1.5-14.9,3.2-22.5,4.5-4.4.7-5.8,2.4-4.8,7.1,4.1,20.5,7.5,41.2,11.6,61.7,1.8,8.7,4.6,17.2,7.3,26.5M1425.4,271.8c-3.9,5.2-7.9,10.3-11.5,15.7-2.9,4.2-5.8,4.8-10.5,2.6-11.7-5.6-23.6-10.7-35.4-16.2-3.3-1.5-5.1-1.2-6.4,2.5-2.3,6.2-4.8,12.4-7.6,18.5-1.6,3.6-.5,5.5,2.9,7,20.8,9.2,41.6,18.5,62.4,27.9,4.5,2,7.8,1.2,10.7-3,13.6-19.3,27.4-38.5,41.1-57.8,5.5-7.8,3.9-17-4.3-22-21.3-13-42.9-25.6-64.3-38.4-3.2-1.9-5-1.1-6.8,2-2.9,5-6,10-9.2,14.8-2.5,3.8-1.7,6.2,2.2,8.4,11.2,6.5,22.3,13.3,33.4,19.9,13.6,8.1,11.4,6.2,3.3,18.1M1455.5,383c33.6,9,67.1,18,100.7,27,6.1,1.6,12.2,3.5,18.4,4.1,7.9.7,13.8-6,13.4-13.9-.3-6.6-4.6-10.8-13-13.1-45.1-12.1-90.3-24.1-135.4-36.2-21.5-5.8-43-11.6-64.6-17.3-9.7-2.6-17.4,2.3-18.5,11.3-.8,7.1,3.5,12.6,12.3,15,28.6,7.7,57.2,15.3,86.6,23.2M1673.7,343.8c5.1,2.8,10.2,5.6,15.2,8.5,3.6,2.1,6.2,2.1,8.5-2.1,4-7.3,8.4-14.4,12.9-21.4,2.5-3.9,2.1-6.5-2.4-8-11.7-3.8-23.4-7.4-35-11.2-3.5-1.1-5.7.3-7.6,3-1.8,2.6-3.7,5.1-6.3,8.6,0-16.5,0-31.5,0-46.5,0-3.9-1.3-5.9-5.5-5.8-7.8.2-15.7,0-23.5,0-3.6,0-5.1,1.6-5.1,5.1,0,39,0,77.9,0,116.9,0,3.6,1.5,5.1,5.1,5,7.7-.1,15.3-.3,23,0,4.7.2,6.1-1.7,6-6.2-.2-15.8,0-31.6,0-47.5,0-1.8,0-3.5,0-6.2,5.3,2.7,9.7,4.9,14.7,7.5M320.7,829.2c4.7-2.1,9.4-4.2,14.1-6.4,21-9.6,42.1-19.1,63.1-28.9,7.3-3.4,10.2-11.1,7.1-17.9-3.1-6.9-10.6-9.7-18.1-6.8-1.5.6-3,1.4-4.5,2.1-41,18.7-82,37.4-123,56.2-15,6.8-30,13.6-44.9,20.7-10.2,4.9-11.5,17.5-2.7,23.5,5.2,3.5,10.3,2.7,15.6.2,30.8-14.2,61.7-28.2,93.3-42.7M1662.3,460.2c-3.4-.9-6.8-1.8-10.1-2.7-28.6-7.6-57.2-15.3-85.8-22.9-7.1-1.9-13-.3-16.3,4.3-5.7,7.9-2.2,18.3,7.4,21.1,11.8,3.5,23.7,6.5,35.6,9.7,49,13.1,98,26.3,147,39.3,8.4,2.2,16-1.9,17.8-9.2,1.9-7.7-2.5-14.5-11-16.8-27.9-7.5-55.9-15-84.6-22.8M551.4,284.9c9.4,25.7,37.5,34.5,58.9,24.1,19.4-9.4,28.8-34,20.3-53.9-9.1-21.3-32.9-31.6-53.7-23.8-19.9,7.5-32.9,29.8-25.5,53.6M1382.4,515.7c7.2-21.9-4.5-45.5-25.7-53-23.1-8.1-47.2,5-54.2,25.9-7.4,22.3,4,46.3,25.5,53.5,23,7.7,46.6-3.4,54.4-26.4M915.6,216.1c-10.8,15.2-23.6,28.4-40.3,37.3-3.9,2.1-4.5,4.4-1.5,7.8,2.9,3.2,5.6,6.6,8.3,10,4.7,5.8,5.7,6.1,12.7,3.4,17.5-6.8,31.8-17.9,44-31.9,13.8-16,24.3-33.7,27.6-55,1.7-11-2.5-18.2-13.5-20.6-4.5-1-9.2-1.1-13.8-1.4-14.2-1.2-28.5-2.3-42.7-3.5-3.5-.3-5.2,1.1-5.5,4.7-.5,6.5-1.2,12.9-1.9,19.4-.4,4.1,1.3,5.7,5.3,5.9,8.6.5,17.2,1.3,25.8,2.1,4.8.4,6,2,4,6.6-2.3,5.1-5.3,9.9-8.5,15.4M1167.6,301.9c13.4,8.1,26.7,16.2,40.2,24.2,8.5,5.1,18,.5,18.2-8.9.6-22.5,1-44.9,1.2-67.4,0-9.9-8.5-15-17.3-10.2-19.5,10.5-38.8,21.2-58.1,32-8.6,4.9-8.8,14.8-.5,20.2,5.1,3.4,10.5,6.4,16.4,10M733.8,219.2c-2.6,11-5.3,22-7.8,33-1.3,5.5.2,7.7,5.7,7.8,12.1.2,24.3.7,36.3-.2,8.7-.7,17.2-3.3,25.8-5.3,3.4-.8,5.6-2.7,4.4-6.9-1.8-6.2-3.1-12.6-5.2-18.7-.6-1.6-3.1-3.5-4.9-3.7-5.4-.5-11-.4-16.5-.3-3.9,0-4.9-1.3-3.9-5.2,3.9-14.4,7.5-28.9,11.2-43.4,1.5-5.7.8-6.9-5.1-8.1-7-1.5-14.1-2.6-21-4.4-4.6-1.2-6.2.4-7.2,4.6-3.8,16.7-7.9,33.3-12,50.7M604,120.4c9.7-2.3,19.4-4.7,29.1-7,9.9-2.4,19.7-4.8,29.6-7.1,5.4-1.3,6.6-.4,7.1,5,.3,3,.4,6,.3,9-.1,4.9,2.3,6.9,7,6.8,5,0,10-.1,15,.1,3.7.2,5.8-1.3,7.3-4.7,5.2-12,7.3-24.4,5.9-37.5-1.4-13-8.4-18.5-21.1-15.3-29,7.2-58,14.7-87,21.9-3.9,1-4.9,3-4.1,6.4,1.5,6.5,3.1,12.9,4.6,19.4.7,3.1,2.6,4,6.4,3M537.1,157.3c.9,5.2,1.8,10.5,2.8,15.7.6,3.1-.4,4.7-3.4,6-7.9,3.1-15.5,6.8-23.4,9.9-3.8,1.5-4.3,3.5-2.6,6.9,2.1,4.2,4,8.4,5.9,12.7,1.5,3.6,3.7,4,7.1,2.5,6.2-2.9,12.5-5.4,18.8-8.1,15.1-6.5,30.2-13.2,45.3-19.5,4.5-1.9,5.4-4.2,3-8.4-1.8-3.2-3.1-6.6-4.6-10-2.6-5.6-3.3-5.8-9.1-3.3-3.1,1.3-6.3,2.6-10,4.2-.4-2.6-.6-4.2-.8-5.8-1.3-9.2-2.4-18.4-3.9-27.6-1.4-8.4-7.5-12.3-15.6-10.1-14.1,3.9-28,8.3-42.1,12.3-3.1.9-4.1,2.6-3.4,5.5,1,4.4,2.2,8.7,3.3,13,.9,3.4,2.7,4.5,6.3,3.4,6-2,12.1-3.5,18.2-5.3q7.2-2.1,8.4,6.2M304.8,728.2c7.1-8.3,1.5-21.6-10.2-21.6-4.1,0-8.3,2-12.2,3.8-26.5,12-53,24.1-79.4,36.2-9.7,4.4-19.4,8.7-29,13.4-9.6,4.6-11.9,14.7-5.4,21.8,4.2,4.7,10.4,5.5,17.9,2,34.5-15.7,69-31.4,103.5-47.3,5-2.3,9.6-5.2,14.9-8.4M1498.7,293.8c-3.8-1.1-7.7-2.1-11.5-3.3-3.3-1.1-5.1.3-6,3.4-2,6.9-3.9,13.7-5.9,20.6-1.3,4.4,0,6.6,4.7,7.9,14.3,3.9,28.4,8.2,42.6,12.3,14.7,4.2,29.4,8.4,44.1,12.6,6.8,2,7.6,1.5,9.5-5.1,1.5-5.3,3.1-10.5,4.6-15.8,2.2-7.6,1.8-8.2-5.8-10.4-25.2-7.3-50.4-14.6-76.4-22.1M1222.3,170.7c-27.3,13.1-54.6,26.2-81.9,39.2-3.9,1.8-4.5,3.8-2.5,7.3,3.8,6.6,7.6,13.3,11.2,20,1.6,3,3.7,3.6,7,2.6,29.2-9.2,55.7-23.5,80-42.2,3.1-2.4,3.3-4.4,1.5-7.5-3.3-5.6-6.2-11.4-9.7-16.9-.9-1.4-3.2-2-5.6-2.5M474.8,159.8c-.9-3.4-2.1-6.7-2.8-10.1-.9-4.4-3.2-5.8-7.5-4.5-5.9,1.7-11.8,3.6-17.8,4.7-23,4.5-46,8.8-69.1,13-3.7.7-5.4,1.9-4.2,5.9,2.3,7.6,4.4,15.3,6.4,23.1.8,3.3,2.8,4.3,5.9,3.8,1.5-.2,3-.5,4.5-.6,26.7-1.5,52.2-8.1,76.8-18.2,13-5.3,11.2-3.1,7.8-17.2M512.1,774.7c1.5,0,3,.2,4.5.2,19.4-.1,34.7-15.8,34.4-35.2-.3-18.9-16.4-34.1-35.5-33.6-17.3.4-31.9,14.3-33.3,31.8-1.5,17.6,11,33.3,30,36.8M1482.5,440c11.9,3.2,23.7,6.5,35.7,9.5,11.2,2.9,19.8-3.3,18.9-13.7-.5-6.8-4.9-10.3-11-12-10.9-3.1-21.8-6-32.7-8.9-10.9-2.9-21.8-5.9-32.9-8.2-7.7-1.6-14.4,4.6-14.6,12.5-.2,6.8,3.3,11.5,10.8,13.7,8.3,2.5,16.7,4.6,25.8,7M1379.2,412.2c12.5,3.4,25,6.8,37.6,10.1,4.9,1.3,9.6,1.2,13.7-2.2,3.9-3.2,5.7-7.4,4.9-12.4-1.1-6.5-5.6-10-11.6-11.6-20.2-5.5-40.5-10.9-60.7-16.2-9.2-2.4-16.6,1.4-18.6,9.4-1.9,7.3,2.6,14.1,11.4,16.6,7.5,2.2,15.1,4,23.4,6.2M225.4,818.9c4.4-2,8.8-4,13.2-6,8.2-3.7,16.4-7.4,24.5-11.2,7.2-3.4,10.8-9.7,9.3-15.8-2.3-9.4-11.1-13.1-20.9-8.6-16.7,7.6-33.3,15.2-49.9,22.9-4.1,1.9-8.2,3.8-11.8,6.4-4.3,3.1-5.7,7.8-4.4,12.9,1.3,5,4.4,9,9.7,9.5,3.8.4,7.9-.2,11.5-1.5,6.2-2.3,12.1-5.4,18.9-8.5M668,140.8c-.3-2.8-.8-5.6-1-8.4-.3-4.1-2.4-6-6.6-5.5-7.3.8-14.5,1.5-21.8,2.1-7,.6-7.8,1.2-7.7,8.1.3,16.5.2,32.9-3.7,49.1-.8,3.3.3,5.5,3.9,6.2,6,1.1,12,2.6,18.1,3.3,1.7.2,4.2-1.1,5.5-2.5,1.9-2,3.2-4.7,4.3-7.2,6.3-14,9-28.8,8.9-45.1M701,179.6c-.7.5-1.6.8-2,1.4-9.7,13.1-19.2,26.3-28.9,39.4-1.9,2.6-.2,3.9,1.7,5.1,5.8,3.5,11.5,7.4,17.6,10.3,2,1,5.5.5,7.6-.6,3-1.6,5.8-4.1,7.9-6.7,7.7-9.4,15.1-18.9,22.5-28.5,1.6-2.2,2.7-5.2-.4-7-8.3-4.7-16.9-9.1-26.1-13.4M968.3,270.2c2.3,1.4,4.4,3.4,6.8,4.1,1.8.5,5.1.2,5.9-1,5.2-7.7,10.1-15.7,14.7-23.8.7-1.2-.2-4.5-1.4-5.2-10.5-6.4-21.9-10.5-34-12.1-2-.3-5,1.1-6.3,2.7-3.8,4.6-6.8,9.9-10.3,14.7-2,2.8-1.5,4.6,1.5,6.4,7.6,4.5,15,9.3,23.1,14.3M369.6,127.9c1.4,4.1,2.9,8.1,4.2,12.2.9,2.9,2.4,3.9,5.6,3.4,7.2-1.4,14.4-2.4,21.6-3.6,6.3-1,7.9-3.2,5.3-9.1-3.2-7.4-7.4-14.4-11.2-21.6-2-3.9-5.3-4.6-9.3-3.9-5.5,1-11.1,2.1-16.7,2.6-4.3.4-5,2.6-4.1,6,1.2,4.5,2.8,8.9,4.5,14M1154.1,163.5c-3.3-3.3-6.7-6.5-9.8-9.9-2.7-2.9-5.6-3.2-9-1.8-5.5,2.4-10.9,4.8-16.5,6.9-4.2,1.5-4.4,3.8-2.3,7.1,4.9,7.7,9.9,15.3,14.7,23.1,1.7,2.8,3.9,2.8,6.4,1.7,7.3-3.2,14.6-6.5,21.9-9.7,3.3-1.5,4.1-3.8,2.3-6.8-2.2-3.5-4.7-6.8-7.6-10.7M1193,134.6c-7.2-4.4-14.4-8.9-21.6-13.3-2.8-1.7-5.3-1.1-7.7,1-4.3,3.7-8.8,7.1-13.1,10.8-4.4,3.6-4.5,4.6-.2,8.5,6.5,6,13.4,11.5,19.9,17.4,2.6,2.3,4.4,2.1,6.8,0,5.2-4.7,10.6-9.1,15.9-13.6,5.2-4.4,5.3-5,0-10.8M428.9,84.2c-2.5-.2-5.2-1.2-7.4-.4-5.4,2-10.5,5-15.9,7.1-4.1,1.7-4.4,4-2.1,7.3,5.1,7.4,10.2,14.7,15.2,22.2,2,3,4.1,3.3,7.1,1.8,6.2-3.2,12.5-6.2,18.7-9.3,5.5-2.8,6.5-5.2,2.5-9.9-5.4-6.4-11.6-12.2-18.1-18.7M1713.1,295.6c1.5-1.3,3.2-2.5,4.4-4,.7-.9,1.3-3,.8-3.4-4-3.7-8.1-7.3-12.4-10.7-.6-.5-2-.2-2.8,0-10.2,4-11.2,8.6-3.8,16.4.6.6,1.1,1.2,1.7,1.8q5.5,5.7,12-.2M1688.9,280.7c-2.9-4.9-7.1-2-10.8-1.7-7.9.6-8.1,1-6.1,8.7q2.9,11.2,14.4,10.1c5.8-.5,6.4-1.4,5.1-7.3-.7-3.1-1.5-6.1-2.5-9.9M353.6,69.2c1.1-1.5,2.1-3,3.3-4.3,2.6-2.9,2.6-5.1-1.2-7-2.7-1.3-5-3.4-7.7-4.5-1.7-.7-4.7-1-5.8,0-2.8,2.6-5,5.9-7.2,9.2-.2.3,1.1,1.9,2,2.5,2.6,2,5.5,3.7,8,5.9,3.3,2.8,5.9,2.6,8.5-1.7M1228.6,129.9c5,5.2,5.3,5.2,9.6,1.4,8.1-7.3,10.8-5.9-.5-15.5-.8-.6-1.4-1.7-2.3-1.9-1.8-.4-4-1.1-5.5-.4-9.4,4.2-9.9,6.9-3.2,14.4.4.5.9,1,1.9,2M1207.5,114c-7.6.7-7.9,1.1-5.9,8.5.6,2.1.8,4.3,1.7,6.2.6,1.3,2.1,3.1,3.3,3.1,3.6.2,7.3-.2,10.9-.6.9-.1,2.5-1.4,2.4-1.9-.9-4.8-1.5-9.9-3.5-14.3-.6-1.3-5.3-.8-8.9-1M487.6,112c14-4.3,14.8-6.4,6.4-18-.3-.4-.5-1-.9-1.2-1.7-.7-3.8-2.1-5.2-1.6-3.5,1.2-6.6,3.3-9.9,5.1-.2.1-.2,1,0,1.4,2.9,4.7,5.8,9.4,9.5,14.2M473.1,87.3c-1.5-.3-2.9-.6-4.4-.8-10.3-1.8-10.7-1.5-10.5,9,0,1.3-.4,2.9.2,3.9,1,1.7,2.4,4,4,4.3,3.9.7,8,.4,12,.5.2,0,.5-.5.5-.8-.3-5.2-.7-10.4-1.7-16.1M335.1,69.7c-1.3-3-2.6-6.1-3.9-9.1-1.4-3.3-3.8-4.5-7.2-3.4-12,4-12.6,3-6.5,14.3,1.1,2,3.9,4.7,5.4,4.4,4.3-.7,9.9.3,12.1-6.2Z"/>
  <path class="cls-15" d="M664.5,1091c-.8-.6-1-1.8-1.4-1.8-12.5-1.8-22.3-9.1-32.7-15.3-25.4-15.2-50.7-30.7-76.1-45.9-.9-.5-3.1-.5-3.7.2-7.8,8.9-15.1,18.3-23.3,26.8-8.7,9.1-19.7,14.6-32,16.9-16.2,3-31-1-44.4-10.1-5-3.4-9.6-7.5-14-11.7-8.8-8.4-17.7-16.7-25.7-25.8-7.1-8.1-9.8-18.6-10-29.2-.4-20.5-.1-40.9,0-61.9,1.9,5.6,3.2,11.8,5.6,17.6,3.9,9.5,11,16.6,18.6,23.2,7.3,6.4,14.5,12.7,21.9,19,25.8,22.1,62.4,17.9,85-9.6,6.3-7.7,13.1-15,19.8-22.8,14.4,8.7,28.5,17.2,42.5,25.7,15.7,9.5,31.3,19,46.9,28.6,24.2,14.7,48.9,13.3,71-4.3,14.8-11.8,29.5-23.9,44.1-36.1,3.9-3.3,7.3-3.3,11.1-.4,16,11.9,33.5,21.1,52.5,27.2,38.5,12.4,77,11.7,115.3-1,31.1-10.4,57.6-28.1,80.9-50.9,10.4-10.3,17.6-22.5,20.1-37.4,5.3.4,10.4.9,15.5,1.2,16.5,1.1,32.5-1.6,48.3-6,4.9-1.4,10.4-1.4,15.6-1,21.9,1.8,43.8,3.9,65.7,6.2,2.3.2,4.8,1.5,6.6,3,18.4,16,39.7,25.9,63.6,30.7,2,.4,4,2,5.5,3.6,7.6,7.9,14.5,16.5,22.8,23.7,17.9,15.6,42.9,16.1,62.2,1.7,8.8-6.5,17.3-13.5,26.2-20.5,6.7,12.7,14.7,24,24.8,33.8,22.2,21.4,48.9,32.8,79.4,35.8,16.7,1.6,33.3,1,49.6-3.3,21.5-5.6,34.6-20,39.6-41.3,3-12.8,4.9-25.8,7.5-38.6.3-1.3,1.2-2.7,2.3-3.5,18.4-12.5,28.3-30,31-52.3.3,20.8,1,42,.2,63.1-.8,21.6-10,39.6-28,52.3-3.5,2.5-4.8,5.5-5.5,9.6-1.8,10.6-4.3,21.1-6.2,31.7-1.9,10.4-6,19.5-12.9,27.6-7.7,9.1-17.5,14.6-28.8,17.4-4.7,1.2-9.7,1.4-14.6,2.1-1,.2-2,.7-2.9,1.5-11.2.4-22.6.4-34.3,0-2.5-.9-4.7-1.3-6.9-1.7-15.5-3-30.4-7.7-44.2-15.6-14.3-8.2-27.1-18.1-36.7-31.6-4.8-6.8-9.5-13.6-14.1-20.3-10,7.5-19.7,15.6-30.3,22.5-10.2,6.6-21.7,8.6-34,6.5-18.5-3.2-30.1-15.8-41.8-28.7-3.2-3.6-4.8-9-10.6-10.1-22.6-4.4-43-13.5-60.7-28.4-2.2-1.9-4.6-4.6-7.1-4.9-11.3-1.5-22.6-2.1-33.9-3.2-8.7-.8-17.3-2.4-26-2.6-7.6-.2-15-2.2-23,.1-11.7,3.4-24,5.2-36.2,6.4-13.8,1.4-27.4-.8-40.7-4.4-2.6,14.1-10.1,24.6-20.3,34.1-16.6,15.6-34.9,28.1-55.6,37.7-21.2,9.7-43.4,15-66.5,15.6-11.8.3-23.7-1.2-35.4-2.9-17-2.4-33-8-48-16.5-2.3-1.3-5.2-2-7.9-2.4-6.3-.9-12.7-1.6-19.1-1.9-4-.2-9.2-1-12,1.1-13.2,9.8-25.8,20.4-38.4,31-10,8.4-20.2,16.3-33.5,18.8-.7.1-1.3,1.3-1.9,1.9h-20.5Z"/>
  <path class="cls-9" d="M579.8,471.9c-.6,6.8-1.3,13.6-2.1,21.1-4.1,3.5-8.2,6.1-11.9,9.2-11.5,9.8-20.5,21.3-23.8,36.4-3.9,17.5.4,33.4,9.6,48.3,3.3,5.3,7,10.4,10.5,15.6-2.1,1.5-4.1,3.4-6.4,4.4-55.6,24.6-111.2,49-166.8,73.5-6.7,2.9-12.8,2.4-18.8-2-48.9-35.9-97.7-71.8-146.7-107.4-9.2-6.7-8.3-15.3-7.3-24.6,3-26.9,5.9-53.9,8.9-80.8,2.9-25.8,5.8-51.5,8.7-77.3.7-5.9,1.3-11.9,1.9-17.9.6-6.8,4.7-10.8,10.6-13.4,22.1-9.7,44.2-19.4,66.9-29,1.2,1,1.8,1.8,2.2,2.7,11.9,24.5,23.9,49.1,35.8,73.6,6.1,12.6,12.1,25.2,18,37.8,2.8,6,7.6,8.7,13.9,8.7,14,0,28,.4,42-.2,3.9-.2,8.7-2.2,11.3-5,6.7-7.1,13.1-14.7,18.5-22.8,15.2-23,26.6-47.9,37.1-73.3,2.1-5,4.5-9.9,6.8-14.8,10.2,7.3,20.4,14.7,30.6,22,1.6,1.2,3.3,2.2,5.3,3.8-6.9,30.9-14.1,61.4-21.3,91.8-1.1,4.7.7,7.3,5.8,8.6,17.2,4.1,34.5,8.3,51.8,12,2.7.6,5.9-.7,8.8-1.1Z"/>
  <path class="cls-10" d="M644,707.1c13.1,5.3,26.2,10.6,39.2,15.8,3.2,1.3,6.4,2.9,9.7,3.8,11,3,15.5,10.6,17,21.4,4.3,29.9,9.1,59.7,13.7,89.6,4.4,28.7,8.8,57.5,13.2,86.2,1.4,9.2-1.2,16.5-8.7,22.4-13.4,10.5-26.3,21.5-39.5,32.1-10.3,8.3-15.7,8.6-27.2,1.7-19.4-11.7-38.7-23.5-58.1-35.2-18.4-11.1-36.8-22.2-55-33.5-3.2-2-5.1-1.8-7.6,1.1-13.3,15.4-26.9,30.5-40,45.9-9.1,10.6-19.2,11.6-29.8,2.2-7.6-6.7-15.4-13.2-22.9-20.1-9-8.3-9.2-18-1-27.2,11.2-12.7,22.4-25.5,33.5-38.3.6-.7,1.2-1.6,2.1-2.9-1.8-1.3-3.5-2.6-5.2-3.7-13.5-8.2-27.1-16.4-40.6-24.5-11.5-7-13.9-16.3-7-27.9,5.1-8.6,10.3-17.1,15.5-25.7,6.7-11,16.1-13.3,27.2-6.7,18,10.8,35.9,21.6,53.8,32.6,2.8,1.7,4.5,1.7,6.7-.8,19.9-22.8,39.9-45.6,59.9-68.4,6.3-7.2,12.4-14.6,18.6-22.5,2.7-2.9,5.8-5,8-7.9,6.3-8.3,14-12.5,24.6-9.7M652.3,835.1c-2.1-13.8-4.2-27.6-6.4-42.3-18.7,21.3-36.5,41.7-54.9,62.6,23.9,14.5,47.1,28.5,71.2,43.2-3.4-21.7-6.5-42.2-9.9-63.5Z"/>
  <path class="cls-17" d="M887.6,955.9c-26.7,1.8-51.6-2.9-74.4-16.3-33.3-19.6-53.3-48.4-59.4-86.7-4.1-25.9-1.4-51.2,9-75.3,11.5-26.9,31.3-46.2,58-57.9,36.8-16.1,74.6-18.4,112.9-5.5,5.9,2,11.5,5.2,17.1,8.2,5,2.7,6.8,6.9,5,12.2-5,14.6-10.2,29.2-15.5,43.7-1.9,5.1-6,6.9-10.8,4.3-12-6.5-24.8-9.4-38.2-10.1-29.7-1.4-55.3,14-59.3,47.6-2.1,17.4.7,33.4,13.1,46.4,14.5,15.1,32.9,18.7,52.8,16,18.6-2.6,34.2-11.5,47.5-24.5,6.6-6.4,11.3-5.7,15.7,2.2,6.5,11.6,13.1,23.2,19.5,34.9,3.9,7.1,3.6,10.3-2.2,16-24.2,23.6-52.3,39.9-86.4,44.2-1.3.2-2.6.4-4.4.7Z"/>
  <path class="cls-5" d="M498.7,334.5c-2.2,5.3-4.7,10.2-6.8,15.2-10.5,25.4-21.9,50.3-37.1,73.3-5.4,8.1-11.7,15.7-18.5,22.8-2.7,2.8-7.4,4.8-11.3,5-14,.6-28,.3-42,.2-6.4,0-11.1-2.7-13.9-8.7-5.9-12.6-11.9-25.3-18-37.8-11.9-24.6-23.8-49.1-35.8-73.6-.4-.9-1-1.7-1.9-2.7-3.9-8.2-7.5-16.2-11.3-24.2-8.9-18.4-17.9-36.8-26.8-55.2-4.5-9.3-3.3-12.6,6.1-16.6,14.5-6.2,29.1-12.4,43.6-18.5,12.3-5.2,16.4-3.6,21.7,8.4,10.7,24.5,21.5,49.1,32.2,73.6.3.8.8,1.5,1.5,2.7,3.4,7.8,6.3,15,9.4,22.1,4.4,10.2,8.9,20.4,13.5,30.5.7,1.5,2.2,2.6,3.3,3.9,1.1-1.4,2.5-2.6,3.3-4.1,1.3-2.5,2.4-5.1,3.4-7.7,7.2-18.4,14.4-36.8,21.6-55.1,5-12.6,10.1-25.3,15-37.9,4.1-10.5,8-21.1,12.2-31.7,2.6-6.6,5.2-8.3,11.9-6.2,16.4,5,32.6,10.4,48.8,15.9,6,2,7.9,5.7,6.1,11.7-7.7,25.3-15.8,50.4-23.8,75.6-2,6.3-4.3,12.5-6.5,19.2Z"/>
  <path class="cls-17" d="M1204,765c13.6-14.7,29.5-24.8,49.2-28.2,22.1-3.7,41.9,2.2,59.9,14.8,6.5,4.5,12.3,10.1,19,15.6.8-1.2,1.9-2.6,2.8-4,12-19.2,24-38.4,36-57.6,4.7-7.6,8.6-8.6,16.6-4.2,13.6,7.5,27.1,15,40.5,22.7,8.9,5,9.6,8.1,4.2,16.6-24.3,38.8-48.9,77.4-72.7,116.5-5.5,9.1-9,19.6-12.5,29.7-2.6,7.7-1.5,15.5,3.8,22.2,2.9,3.6,2.4,6.3-1.3,9.2-9.7,7.4-19,15.2-28.6,22.6-7.8,6.1-11,5.7-18.3-.8-9.1-8.1-16.7-17.2-20.8-28.8-1.3-3.7-4.4-3.1-7.1-3.1-14.4-.3-28.1-3.6-40.8-10.2-28.5-14.9-45.8-38-50-70.1-3.2-23.9,4.3-44.6,20.1-62.9M1265.4,798.8c-16,8.4-23.5,26.3-16.7,41,5.9,12.9,17.4,17.5,30.6,19.2,3.3.4,4.9-.5,6.3-3.7,4.9-11.6,10.1-23.2,15.6-34.5,1.9-3.9,1.7-7.2,0-10.8-6.1-12.5-20.7-17.4-35.7-11.2Z"/>
  <path class="cls-21" d="M1216.1,455.3c3-6.5,5.8-8.2,12.4-6.6,16.5,4,32.9,8.2,49.3,12.6,7.4,2,8.8,5.3,6.4,12.8-13.5,43.5-27.3,86.9-40.5,130.5-3.8,12.4-6.6,25.1-4.9,38.3.8,6.4,3.6,11.6,8.5,15.9,5.2,4.5,5.1,5,.9,10.6-7.2,9.6-14.3,19.3-21.6,28.8-5.4,7-8.8,7.6-16.7,3.6-11-5.6-21-12.3-27.9-22.7-1.9-2.9-4.1-2.1-6.5-1.6-17.5,4.2-34.9,3.7-52.3-1.5-36-10.7-62.1-44-63.1-80.7-1.2-40.3,32.3-79.6,72.1-84.1,20-2.2,38.6,3.1,56,13,1.7,1,3.4,2,5.5,3.2,7.5-24.2,14.9-48,22.4-72.2M1174.2,575.4c-11.3-11.2-27.7-10.9-39.1.8-12.3,12.7-13,33.5-1.3,44.5,9.9,9.3,22,10.1,34.5,7.8,1.1-.2,2.3-2.4,2.6-3.9,2.3-12.6,4.1-25.2,6.5-37.8.9-4.4.2-7.8-3.3-11.5Z"/>
  <path class="cls-17" d="M1126.7,482.7c-34.6,17.8-68.3,17-99.9-5.2-27.1-19.1-37.4-46.5-32.4-79.1,3.6-24,14.8-43.7,35.7-57,15.5-9.9,32.9-13.2,51.1-12.7,4.3.1,8.6.7,12.9,1.2,2.9.3,5.3.3,8.3-1.4,4-2.2,9.2-2.6,13.9-3.2,13.7-1.6,27.5-2.9,41.2-4.2,8.2-.7,11,2.2,11.6,10.5,1.5,22.4,3,44.8,5.2,67.2.7,6.6,3.3,13.2,5.8,19.5,2.5,6.3,7.2,10.6,13.8,12.8,5.8,2,6.4,3.3,4.6,9.4-3.4,11.7-6.7,23.3-10.3,34.9-2.6,8.4-5.9,10-14.5,9.1-11-1.3-21.5-4.1-31.3-9.5-1-.6-3.1-.1-4.3.5-3.7,2.1-7.3,4.6-11.3,7.1M1104.8,437.4c1.8-.9,3.7-1.6,5.2-2.9,1-.9,1.9-2.7,1.6-4-2.6-13.8-5.3-27.7-8.4-41.4-.5-2.4-2.4-5.6-4.5-6.4-4.5-1.8-9.6-3.4-14.3-3.1-12.8,1-21.3,9.6-24.2,22.8-3,13.6,2.3,27.6,12.8,34.2,10.1,6.4,20.6,5.1,31.8.8Z"/>
  <path class="cls-34" d="M981,360.8c-4,27.3-7.9,54.1-11.9,80.9-.5,3.6-1,7.3-1.7,10.8-1.1,5.4-3.4,7.1-8.8,6.3-15.8-2.3-31.5-5.3-47.4-6.9-8.4-.8-17.1.7-25.7,1.5-16.9,1.5-33.4,0-48.9-7-22.6-10.3-34.9-28.8-37.3-52.9-1.6-15.1-.5-30.6,0-45.8.7-15.8,2.3-31.6,3.5-47.3.2-2.6.6-5.3,1.2-7.9,1.3-5.8,3.8-7.8,9.8-7.7,15.3.2,30.6.5,46,.9,7.6.2,9.5,2.2,9.3,9.7-.7,23.8-1.5,47.6-2.1,71.4-.1,4,.2,8,1,11.9,2.9,14.7,12.2,20.8,26.9,18,10.6-2.1,10.8-2,12.4-12.8,4.3-28.5,8.5-56.9,12.6-85.4,1-7,3-8.7,9.9-7.7,17.5,2.5,34.9,5.1,52.3,7.8,6.1.9,7.5,3.2,6.6,9.3-2.6,17.4-5.1,34.9-7.7,52.8Z"/>
  <path class="cls-34" d="M848.4,597.6c-3.7-18.4-7.2-36.3-10.7-54.3-.4-2.3-.7-4.6-.7-6.9,0-5,1.8-8.5,7.2-9.8,14.9-3.6,29.6-7.6,44.5-11.3,7.5-1.9,10.3,0,12.1,7.7,5.5,22.8,10.7,45.6,16.4,68.4,1.3,5.1,3.4,10.1,6,14.7,5.2,9.3,13.7,12.4,23.9,8.9,4.5-1.6,8.7-4.1,12.8-6.6,1.1-.7,1.9-3,1.7-4.4-3.7-30.9-7.6-61.8-11.4-92.6-.8-6.3.9-8.6,7.2-9.4,17.8-2.2,35.7-4.4,53.5-6.6,4.9-.6,7.5,1.5,8.1,6.6,2.7,21.6,5.4,43.3,8,64.9,3.2,26.1,6.4,52.2,9.7,78.3,1,8.2-.3,10.3-8.3,11.2-16.7,2-33.4,3.9-50.1,6-2.4.3-4.7,1.5-7,2.5-14.3,6.6-29,11.7-44.9,12.4-33.8,1.5-57.9-14.3-69.4-46.4-3.8-10.6-5.8-21.8-8.7-33.2Z"/>
  <path class="cls-34" d="M644.3,706.9c-10.8-2.6-18.5,1.6-24.8,9.9-2.1,2.8-5.3,5-8.1,7.6-11.1,2.9-22,5.9-33.1,8.1-9.8,1.9-12.3.2-15.7-9.1-4.4-11.7-8.7-23.3-13-35-2.7-7.4-1.3-9.9,6.6-11.3,8.5-1.5,16.3-4.6,23.2-9.8,12.4-9.2,15.5-22.1,7-34.9-7-10.4-15.6-19.8-23.8-29.8-3.8-5.3-7.5-10.4-10.8-15.7-9.2-14.9-13.6-30.9-9.6-48.3,3.4-15,12.3-26.6,23.8-36.4,3.6-3.1,7.8-5.6,11.9-8.7,15.7-9,32-15.4,49.6-18.1,4.6-.7,9.2-1.1,13.9-1.2,4.4,0,7.5,2.1,9.1,6.4,4.9,12.9,10,25.7,14.9,38.6,2.3,6.1.1,9-6.2,10.7-7.3,2-14.9,3.9-21.4,7.5-11.3,6.3-14.4,18.1-7.6,29.1,5.9,9.5,13.5,18,20.2,27.2,6.9,9.5,14.8,18.6,20.1,29,14.5,28.8,5.1,55.1-15.2,74.8-3.3,3.2-7,6.1-10.8,9.4Z"/>
  <path class="cls-21" d="M971.4,781.5c3.1-48.1,37.4-76.8,80.2-81.7,24.4-2.8,47.5.6,68.2,14.8,40.9,28.1,56.5,96.7,2.6,136.7-20.4,15.1-43.2,23.1-69,21.9-49.4-2.2-85.1-41.8-82-91.7M1094.8,794.1c-.3-7.1.4-14.4-1.1-21.2-2.3-10.2-8.8-17.3-19.5-19.9-20.3-4.9-36.2,5.7-39.9,26.7-3,17.1,8.1,34.2,24.7,38,16.8,3.9,30.5-4.9,35.8-23.7Z"/>
  <path class="cls-21" d="M1503.9,677c-18.9,4.8-37.7,5.6-56.7,0-45.9-13.5-70.9-58.8-58.6-105.1,12.6-47.3,53.7-68.1,96.9-64.3,18.2,1.6,35.3,6.4,50.3,17.2,20.5,14.7,32,35.1,34.9,59.8,4,34.3-9.2,61-39,79.8-9.4-5.8-18.2-11.7-27.8-18.2v30.7M1504.4,571.2c-12-13.3-33.6-14.4-45.5-2.4-9.8,9.9-13,27.2-7,39.9,5,10.5,13.4,16.8,25,18.2,11.1,1.4,20.7-2.3,26.8-11.8,8.8-14,9.9-28.6.7-43.9Z"/>
  <path class="cls-13" d="M1481,812.9c19.1-2.3,36.9,0,52.2,11.6,18.2,13.8,27.1,32.9,28.9,55.3,1.1,13.8-7,23-18.9,27.7-15.1,6-30.8,10.4-46.3,15.2-4,1.3-7.1-.5-8.9-4.4-3.9-8.4-7.9-16.9-12-25.2-2-4-.4-6.4,3.1-8,3.9-1.8,8-3.3,11.9-5.1,6-2.9,6.3-5.9,1.3-10.5-9.4-8.7-25.9-5.1-32.7,7.3-7.1,13-4.9,26,2.7,37.8,10.4,16.2,26.3,21,44.6,19.8,4.3-.3,8.5-1.4,12.9-1.7,6.9-.6,10.4,2.7,9.3,9.4-1.8,10.3-4.2,20.5-6.8,30.6-1.4,5.7-5.8,8.9-11.5,9.9-28,4.9-55,2.7-78.9-14.2-25.9-18.4-38.3-44.2-36.5-75.7,2-33.7,19.8-57.4,50.6-70.6,10.8-4.6,23-6.3,35-9.3Z"/>
  <path class="cls-15" d="M401.2,931.7c-5-7-9.8-14.5-15-22.6-3.5,1.5-8,3.4-12.4,5.5-17.3,7.9-34.5,15.9-51.8,23.9-27,12.4-53.7,25.2-81,36.8-26.1,11.1-54.4,1.5-68.9-23.4-4.1-7.1-6.3-15.1-6.2-23.5,0-1.8-1-4-2.3-5.2-11.1-10.4-18.3-22.6-18.7-38.3,0-2.5-1.3-5.7-3.1-7.4-12.9-12.1-17.6-26.8-16.9-44.3.7-17.5.1-35,.2-52.9,2.8,12.5,8.1,24.1,18.3,33.1,1,.9,1.5,2.9,1.5,4.4.6,15.4,6.8,28.2,18,38.8,1.4,1.3,2.8,3.4,2.9,5.2,2.2,41.1,41.7,63.8,79.4,46.3,47.2-22,94.6-43.4,141.3-64.7,4.7,7.6,8.5,15.7,14.1,22.1,5.7,6.5,13.3,11.3,20.3,17.1-13.2,12.9-20.8,29.1-19.8,49.4Z"/>
  <path class="cls-21" d="M811.8,562.8c-.3,6-.5,11.5-.8,17-.3,5.2-2.3,7.2-7.4,7.2-5.6,0-11.3,0-17.7,0,1,15,.6,30.2,9.2,43.2,2.4,3.6,6.7,6.3,10.7,8.5,3.8,2.1,5.2,4.2,3.7,8.3-4.6,12-8.9,24-13.6,35.9-3,7.6-5.8,8.8-13.9,7.3-18.8-3.4-35.5-10.4-46.5-27-7.4-11.2-11.4-23.7-13.5-36.7-1.9-11.6-3.1-23.4-4-35.2-.4-4.5-1.6-6.1-6.2-5.8-5,.3-10-.1-15-.3-4.8-.2-7.1-2.4-7-7.2.5-15.3,1.1-30.6,1.8-45.9.2-4.9,2.7-6.6,8.1-6.6,5.3,0,10.6,0,17.1,0,0-10.5,0-20.9,0-31.4,0-10.8,1.9-12.5,12.4-12.4,15.7.2,31.3.3,47,.5,10,.1,11.7,2,11.6,12.2,0,10.6,0,21.3,0,33,4.8,0,10.4-.1,16,0,7.3.2,9.1,2.2,8.8,9.5-.3,8.5-.6,17-1,25.9Z"/>
  <path class="cls-34" d="M1235.5,420.6c-8.3-2.1-9.4-3.8-7.3-11.7,18.9-73.7,37.8-147.5,56.6-221.2,1.9-7.3,3.7-8.5,10.9-6.6,16.6,4.2,33.2,8.5,49.7,12.8,7.3,1.9,8.4,3.6,6.5,11-19,74.2-38,148.5-57,222.7-1.5,6-3.7,7.2-9.8,5.7-16.4-4.1-32.9-8.3-49.7-12.6Z"/>
  <path class="cls-17" d="M771.1,404.1c5.6,17.7-1.5,30.9-14.1,41.9-11.9,10.4-26.1,16.7-41.1,20.8-9.6,2.6-19.5,4.1-29.3,5.8-8.5,1.4-11.1-.2-14.9-8-4.4-9.1-8.8-18.3-13.2-27.5-2.6-5.5-1.4-7.9,4.6-9.1,3.7-.8,7.7-1,11.2-2.3,3.8-1.4,7.7-3.4,10.8-6,5.2-4.3,5.5-10.2,1.3-15.5-2.7-3.4-5.9-6.3-8.8-9.6-6.1-6.8-12.8-13.1-18.1-20.5-13.5-18.8-10.6-38.6,7.4-53.4,16-13.2,35-19.5,55.2-22.7,5.7-.9,11.6-1,17.4-1.3,3.9-.2,6.7,1.6,8.4,5.1,5.2,10.6,10.4,21.2,15.5,31.9,2,4.2.7,6.5-4.1,7.5-4.7,1-9.6,1.3-14.2,2.8-12.6,3.9-14.6,11.4-5.7,20.9,5.8,6.2,12.4,11.7,17.8,18.2,5.2,6.4,9.2,13.7,13.8,21Z"/>
  <path class="cls-15" d="M1798.6,501.1c.3,20.5,1.2,41.3.2,62.1-1.1,23.8-13.6,40.9-36,49.3-12.8,4.8-26.1,3-39.3-.6-36.5-10.1-73.1-19.9-109.6-29.7-.6-.2-1.3,0-2.4,0-3.2-19.1-8.5-37.4-18.9-53.8-4.6-7.2-10-14-15.3-21.3,11.9,3.2,23.7,6.2,35.5,9.4,37.9,10.2,75.9,19.6,113.5,30.7,34.3,10.1,67.8-10.3,72.3-45.9Z"/>
  <path class="cls-34" d="M579.9,471.5c-3.1.8-6.2,2.1-8.9,1.5-17.3-3.8-34.5-7.9-51.8-12-5.1-1.2-6.9-3.8-5.8-8.6,7.2-30.5,14.4-60.9,21.6-91.8,3.3-14.1,6.6-27.8,9.9-41.6,1.5-6.3,3.7-7.7,9.9-6.3,17.5,4.1,35,8.2,52.4,12.3,4.9,1.2,6.6,3.6,5.5,8.3-10.7,45.5-21.4,90.9-32.2,136.4-.1.5-.4.9-.7,1.8Z"/>
  <path class="cls-34" d="M1345,697.9c-1.6,7.5-3.4,8.7-10.3,7.5-16.7-2.9-33.4-5.7-50.2-8.4-7.7-1.3-9.1-3.1-7.7-11.1,7.4-44.1,14.8-88.2,22.2-132.3,1.1-6.5,3.5-8.2,9.9-7.1,16.7,2.9,33.4,5.7,50.2,8.5,8.3,1.4,9.5,2.7,8.1,11.2-7.3,43.8-14.7,87.6-22.1,131.8Z"/>
  <path class="cls-19" d="M1264.1,122.1c14.9-5.6,26.6-15.1,37.3-26,5.2-5.3,5.4-5.3,10.9-.5,4.3,3.7,8.6,7.4,13.7,11.8,1.1-5.4,2.2-10.1,2.8-14.9,0-.8-2.1-2.2-3.4-2.7-12.5-4-25.1-7.8-37.6-11.7-5.9-1.9-6.3-2.7-4.4-8.6,1.7-5.4,3.6-10.7,5-16.2,1.1-4.3,3.5-5.1,7.4-3.8,11.4,3.6,22.9,7,34.3,10.7,4,1.3,5.9.8,6.3-3.7.2-2.6,1.1-5.2,1.6-7.8,1.1-5.8,2-6.5,7.6-5.3,7.2,1.5,14.3,3.2,21.5,4.4,3.5.6,4.6,2.2,4,5.4-.8,4.6-1.4,9.2-2.7,13.7-1.1,3.9.2,5.5,3.9,6.2,2.6.5,5.1,1.7,7.6,2.3,4.2.9,4.9,3.4,3.8,7.1-1.9,6-4,12-5.6,18.1-.9,3.5-2.9,4.2-5.9,3.5-3.4-.9-6.7-1.9-10.6-3.1-1.9,9.3-3.8,18.3-5.6,27.3-2.4,12.1-4.8,24.1-7.1,36.2-.8,4.1-2.9,5.2-6.7,4.4-7-1.5-13.9-3.2-21-4.2-5.4-.7-6-3.7-5.1-8,1.9-8.9,3.7-17.9,5.5-26.9.2-.9.2-1.9.4-3.4-3.8,2.9-7.1,5.5-10.6,8-8.8,6.4-18.9,9.6-29.6,11.3-3.9.6-7.1-.3-9.5-3.8-3.1-4.5-6.6-8.8-9.8-13.2-1.9-2.6-2.1-4.9,1.6-6.6Z"/>
  <path class="cls-19" d="M1043.1,223.1c-6.6,2.9-12.7,5.8-19,8.4-4,1.6-7.2.9-9.7-3.3-3-5.2-6.4-10.1-9.8-15-2.3-3.3-1.8-5.3,1.8-7.5,12.1-7.5,24.1-15.3,35.9-23.3,3.3-2.2,6.1-3.4,8.1.8,3.5,7.6,9.7,9.4,17.3,9.7,9.8.4,19.6,1.6,29.4,2.1,13.7.7,20.9,9.6,16,22.5-4,10.6-10.2,20.4-15.5,30.5-.8,1.6-2,3-3.2,4.7,3.4,2.5,6.5,4.6,9.5,7,3.2,2.5,3.7,5.2.6,8.4-4.8,4.9-9.4,9.9-13.9,15-2.3,2.6-4.6,2.9-7.4.9-2.7-1.9-5.6-3.6-8.2-5.7-2.6-2-4.5-1.5-7.1.3-9.9,7-20,13.8-30.2,20.3-5.7,3.6-7.8,3-12.7-1.7-3-2.9-5.9-5.9-8.8-8.9-4-4.1-3.7-4.8.9-8.5,8.4-6.6,16.6-13.3,24.9-19.9.8-.6,1.6-1.2,3.1-2.3-4.4-3.2-8-5.9-11.8-8.5-6.7-4.7-6.7-5.1-1.2-11.2,1.1-1.2,2.3-2.4,3.4-3.6,6.3-6.6,6.9-6.7,15.5-3.2,1.9.7,3.6,1.7,5.5,2.3,2.7.9,6.7,3.3,8.1,2.2,3.4-2.4,5.7-6.4,8-10,.4-.7-1.2-3.9-1.9-3.9-9.1-.2-18.5-4.5-27.6,1.5Z"/>
  <path class="cls-11" d="M467,679c18.4-8.4,36.3-16.8,54.4-24.7,9.9-4.3,19.8,3.2,18.7,14-.6,5.5-4,8.9-8.9,11.1-20.5,9.3-40.9,18.7-61.3,28-48.6,22.2-97.2,44.4-145.8,66.5-8.5,3.9-16.9,7.8-25.5,11.3-5.6,2.3-11.3.3-14.7-4.2-3.9-5.2-4.4-11.5-.6-16.1,1.9-2.3,4.8-4.1,7.6-5.4,58.5-26.8,117.1-53.6,176-80.5Z"/>
  <path class="cls-31" d="M266.3,172.6c-2.5-8.9-5.3-17.4-7.1-26.2-4.1-20.5-7.6-41.1-11.6-61.7-.9-4.7.4-6.3,4.8-7.1,7.5-1.3,15-2.9,22.5-4.5,3.6-.8,5.6.4,6.2,4.3,1.3,8.2,2.9,16.3,4.6,25.2,2.2-1,4-1.7,5.6-2.6,10.5-5.8,21.1-11.4,31.4-17.5,4.3-2.5,6.8-1.7,9.4,2.4,3.3,5.2,6.9,10.2,10.7,15.1,2.6,3.4,2.7,6.1-1.3,8-12.8,6.2-25.7,12.3-38.6,18.3-3.1,1.5-5.4.2-7-2.7-2.5-4.5-5.2-8.8-8.6-12.9,1.8,10,3.4,20,5.4,29.9,2.1,10.8,2.2,10.6,13.2,8.7,13.4-2.3,26.9-4.3,40.3-6.7,3.8-.7,5.7.4,6.5,4.1,1.1,5.7,2.5,11.4,3.5,17.1.8,4.5-1.6,7-7.4,8-8.9,1.4-17.7,2.7-26.6,4.1-10.3,1.6-20.7,3.2-31,4.6-9.3,1.3-18.1.7-24.5-7.9Z"/>
  <path class="cls-28" d="M1425.6,271.5c7.8-11.7,10-9.7-3.6-17.9-11.1-6.6-22.2-13.4-33.4-19.9-3.9-2.2-4.7-4.6-2.2-8.4,3.2-4.8,6.3-9.8,9.2-14.8,1.8-3,3.6-3.9,6.8-2,21.4,12.8,42.9,25.5,64.3,38.4,8.2,5,9.8,14.2,4.3,22-13.6,19.3-27.4,38.5-41.1,57.8-2.9,4.1-6.2,5-10.7,3-20.8-9.4-41.6-18.6-62.4-27.9-3.4-1.5-4.5-3.4-2.9-7,2.7-6.1,5.3-12.2,7.6-18.5,1.3-3.6,3.2-4,6.4-2.5,11.8,5.5,23.7,10.6,35.4,16.2,4.6,2.2,7.6,1.6,10.5-2.6,3.6-5.4,7.6-10.5,11.7-16Z"/>
  <path class="cls-11" d="M1455.1,382.9c-29-7.7-57.6-15.4-86.2-23.1-8.8-2.4-13.2-7.9-12.3-15,1.1-9,8.8-13.9,18.5-11.3,21.5,5.7,43,11.5,64.6,17.3,45.1,12.1,90.3,24.2,135.4,36.2,8.4,2.2,12.7,6.5,13,13.1.4,8-5.5,14.6-13.4,13.9-6.2-.6-12.4-2.4-18.4-4.1-33.6-8.9-67.1-18-101.1-27.1Z"/>
  <path class="cls-28" d="M1673.4,343.6c-4.7-2.4-9.1-4.6-14.4-7.3,0,2.7,0,4.4,0,6.2,0,15.8-.1,31.6,0,47.5,0,4.4-1.3,6.4-6,6.2-7.6-.3-15.3-.2-23,0-3.6,0-5.1-1.4-5.1-5,0-39,0-77.9,0-116.9,0-3.6,1.5-5.2,5.1-5.1,7.8,0,15.7.1,23.5,0,4.2,0,5.5,1.8,5.5,5.8-.1,15,0,30,0,46.5,2.6-3.6,4.5-6.1,6.3-8.6,1.9-2.7,4.1-4.1,7.6-3,11.6,3.8,23.4,7.4,35,11.2,4.5,1.5,4.9,4.1,2.4,8-4.5,7-8.8,14.1-12.9,21.4-2.3,4.2-4.9,4.2-8.5,2.1-5-2.9-10.2-5.7-15.6-8.7Z"/>
  <path class="cls-7" d="M320.4,829.4c-31.2,14.3-62.1,28.3-92.9,42.5-5.3,2.4-10.4,3.3-15.6-.2-8.9-6-7.6-18.6,2.7-23.5,14.9-7.1,29.9-13.8,44.9-20.7,41-18.7,82-37.4,123-56.2,1.5-.7,3-1.5,4.5-2.1,7.5-2.9,15,0,18.1,6.8,3.1,6.8.2,14.5-7.1,17.9-21,9.7-42,19.3-63.1,28.9-4.7,2.1-9.4,4.2-14.4,6.5Z"/>
  <path class="cls-20" d="M1662.7,460.3c28.3,7.6,56.3,15.1,84.2,22.6,8.5,2.3,12.9,9.1,11,16.8-1.8,7.4-9.4,11.5-17.8,9.2-49-13.1-98-26.2-147-39.3-11.9-3.2-23.8-6.2-35.6-9.7-9.6-2.9-13.1-13.2-7.4-21.1,3.3-4.6,9.2-6.2,16.3-4.3,28.6,7.6,57.2,15.3,85.8,22.9,3.4.9,6.8,1.8,10.5,2.8Z"/>
  <path class="cls-8" d="M551.2,284.5c-7.3-23.4,5.7-45.7,25.6-53.2,20.8-7.8,44.5,2.5,53.7,23.8,8.6,19.9-.9,44.5-20.3,53.9-21.4,10.3-49.5,1.6-59-24.5Z"/>
  <path class="cls-8" d="M1382.2,516.1c-7.7,22.6-31.2,33.8-54.3,26.1-21.5-7.2-32.9-31.2-25.5-53.5,6.9-20.9,31.1-34.1,54.2-25.9,21.2,7.5,33,31.1,25.6,53.4Z"/>
  <path class="cls-28" d="M915.8,215.8c2.9-5.2,6-10,8.3-15.2,2-4.5.8-6.1-4-6.6-8.6-.7-17.2-1.5-25.8-2.1-4-.2-5.8-1.9-5.3-5.9.7-6.4,1.4-12.9,1.9-19.4.3-3.6,2-5,5.5-4.7,14.2,1.2,28.5,2.3,42.7,3.5,4.6.4,9.4.4,13.8,1.4,10.9,2.5,15.2,9.6,13.5,20.6-3.3,21.3-13.8,39-27.6,55-12.1,14.1-26.5,25.2-44,31.9-7,2.7-8.1,2.4-12.7-3.4-2.7-3.4-5.4-6.8-8.3-10-3-3.4-2.4-5.7,1.5-7.8,16.7-8.9,29.5-22,40.5-37.6Z"/>
  <path class="cls-25" d="M228.6,690.2c-10.7-7.7-21.1-15.3-31.3-23.2-13.9-10.7-21.9-24.7-22.2-42.5-.2-19.9,0-39.9,0-60.3,1.2,3.5,2.2,7.5,3.5,11.4,3.9,11.4,11.2,20.2,20.9,27.2,28,20.4,55.8,40.9,83.7,61.4.9.7,1.8,1.4,1.8,1.4-17.5,7.8-35.3,15.8-53.1,23.8-.9.4-1.9.5-3.3.7Z"/>
  <path class="cls-23" d="M1167.3,301.7c-5.6-3.4-10.9-6.4-16.1-9.8-8.3-5.4-8.1-15.4.5-20.2,19.3-10.8,38.6-21.5,58.1-32,8.8-4.8,17.4.3,17.3,10.2-.2,22.5-.6,44.9-1.2,67.4-.2,9.4-9.7,14-18.2,8.9-13.4-8-26.8-16.1-40.5-24.4M1212.8,264c.8-3.1-.3-5.8-3.2-6.2-1.9-.3-4.9,1.2-6.1,2.8-3.6,5.1-6.7,10.7-9.9,16.2-1.8,3-1.7,5.9,1.5,7.7,3,1.7,5.4.2,7-2.6,3.4-5.7,6.9-11.4,10.6-17.8M1186.1,297.4c1.7.3,4.3,1.3,4.9.6,1.4-1.6,1.9-4,2.7-6.1-2.2-.9-4.9-2.9-6.6-2.3-3.4,1.2-3.7,4.3-.9,7.8Z"/>
  <path class="cls-19" d="M733.8,218.8c4-17,8.1-33.7,11.9-50.3,1-4.3,2.6-5.9,7.2-4.6,6.9,1.8,14,2.9,21,4.4,5.9,1.2,6.5,2.4,5.1,8.1-3.7,14.5-7.3,29-11.2,43.4-1,3.9,0,5.2,3.9,5.2,5.5,0,11-.2,16.5.3,1.8.2,4.3,2,4.9,3.7,2.1,6.1,3.4,12.5,5.2,18.7,1.2,4.2-.9,6.1-4.4,6.9-8.6,2-17.1,4.7-25.8,5.3-12,.9-24.2.4-36.3.2-5.5,0-7-2.3-5.7-7.8,2.5-11,5.2-22,7.9-33.4Z"/>
  <path class="cls-4" d="M603.6,120.6c-3.3.9-5.2-.1-6-3.2-1.5-6.5-3.2-12.9-4.6-19.4-.8-3.4.2-5.4,4.1-6.4,29-7.2,58-14.7,87-21.9,12.7-3.1,19.7,2.4,21.1,15.3,1.4,13.1-.7,25.5-5.9,37.5-1.5,3.4-3.6,4.8-7.3,4.7-5-.2-10-.2-15-.1-4.8,0-7.1-1.9-7-6.8,0-3,0-6-.3-9-.6-5.4-1.8-6.3-7.1-5-9.9,2.3-19.7,4.8-29.6,7.1-9.7,2.3-19.4,4.7-29.5,7.1Z"/>
  <path class="cls-31" d="M537,156.9q-1.1-7.9-8.4-5.7c-6.1,1.8-12.2,3.4-18.2,5.3-3.6,1.2-5.4,0-6.3-3.4-1.1-4.3-2.2-8.7-3.3-13-.7-2.9.3-4.6,3.4-5.5,14.1-4,28-8.4,42.1-12.3,8.1-2.2,14.2,1.7,15.6,10.1,1.6,9.2,2.6,18.4,3.9,27.6.2,1.6.4,3.2.8,5.8,3.8-1.6,6.9-2.9,10-4.2,5.9-2.5,6.5-2.3,9.1,3.3,1.6,3.3,2.8,6.8,4.6,10,2.4,4.2,1.5,6.5-3,8.4-15.2,6.3-30.2,13-45.3,19.5-6.3,2.7-12.6,5.3-18.8,8.1-3.4,1.6-5.6,1.1-7.1-2.5-1.8-4.3-3.8-8.5-5.9-12.7-1.7-3.4-1.1-5.4,2.6-6.9,7.9-3.1,15.5-6.8,23.4-9.9,3-1.2,4.1-2.8,3.4-6-1.1-5.2-1.9-10.5-2.9-16.1Z"/>
  <path class="cls-3" d="M304.6,728.5c-5,2.9-9.7,5.8-14.6,8.1-34.5,15.8-69,31.6-103.5,47.3-7.5,3.4-13.7,2.6-17.9-2-6.5-7.1-4.1-17.1,5.4-21.8,9.6-4.7,19.3-8.9,29-13.4,26.5-12.1,52.9-24.2,79.4-36.2,3.9-1.8,8.1-3.8,12.2-3.8,11.7,0,17.3,13.2,10,21.9Z"/>
  <path class="cls-1" d="M1504,677.5c-.1-10.4-.1-20.3-.1-31.2,9.6,6.5,18.4,12.4,27.5,18.5,11.2,7.8,22.1,15.4,32.9,23,1.2.9,2.5,1.6,3.7,2.5,4.9,3.8,4.6,8.4-.9,11.5-4.9,2.8-9.9,5.3-15.1,8.1,4.5,8.5,8.8,16.6,13.5,25.3-7.1,3.8-14.1,7.6-21.7,11.7-4.5-8.3-9-16.6-13.6-25.2-5.1,2.7-10,5.4-15,8-6.1,3.1-10.1.7-10.2-6.2-.3-15.2-.6-30.3-1-45.9Z"/>
  <path class="cls-16" d="M1758.7,294.3c.2,21.8.4,43.9.2,66,0,3.8-1.1,8-3.1,11.2-3.4,5.6-2.9,11.4-2.8,17.4,0,10.7-3.8,20.1-9.4,29-3.8,6.1-7.5,12.2-11.4,18.7-11.3-2.5-22.6-5.3-33.8-8.2-4.2-1.1-8.3-2.3-13-3.6,8.1-8.4,12.5-18,13.7-29.2,0-1,1.7-2.3,2.9-2.5,13-2.8,22.5-10.3,29.3-21.5,5-8.3,10-16.5,14.9-24.8,5.4-9.4,7.3-19.5,5.3-30.3-.3-1.4.4-3.1,1-4.6,2-5.8,4.1-11.5,6.3-17.6Z"/>
  <path class="cls-31" d="M1499.1,293.9c25.6,7.4,50.8,14.8,76,22,7.6,2.2,8,2.8,5.8,10.4-1.5,5.3-3.1,10.5-4.6,15.8-1.9,6.6-2.7,7.1-9.5,5.1-14.7-4.2-29.4-8.4-44.1-12.6-14.2-4.1-28.3-8.4-42.6-12.3-4.6-1.3-6-3.4-4.7-7.9,2-6.8,3.9-13.7,5.9-20.6.9-3,2.6-4.4,6-3.4,3.8,1.2,7.7,2.2,11.9,3.4Z"/>
  <path class="cls-4" d="M1222.7,170.6c2,.8,4.3,1.3,5.2,2.7,3.5,5.5,6.4,11.3,9.7,16.9,1.9,3.1,1.6,5.2-1.5,7.5-24.2,18.7-50.7,33-80,42.2-3.3,1-5.3.5-7-2.6-3.6-6.7-7.4-13.4-11.2-20-2-3.5-1.4-5.5,2.5-7.3,27.4-12.9,54.6-26.1,82.2-39.4Z"/>
  <path class="cls-28" d="M474.8,160.2c3.3,13.7,5.1,11.4-7.9,16.8-24.6,10.1-50.1,16.6-76.8,18.2-1.5,0-3,.4-4.5.6-3.1.5-5-.6-5.9-3.8-2-7.7-4.1-15.4-6.4-23.1-1.2-4,.6-5.2,4.2-5.9,23-4.2,46.1-8.5,69.1-13,6-1.2,11.9-3,17.8-4.7,4.3-1.3,6.6,0,7.5,4.5.7,3.4,1.8,6.7,2.8,10.5Z"/>
  <path class="cls-27" d="M511.6,774.6c-18.6-3.4-31-19-29.5-36.7,1.5-17.4,16-31.3,33.3-31.8,19.1-.5,35.2,14.7,35.5,33.6.4,19.4-15,35.1-34.4,35.2-1.5,0-3-.1-4.9-.3M501.8,750.4c-1.1,1.4-2.3,2.7-3.6,4.3,2.6,2.2,4.9,4.3,7.4,6.4,4-4.4,7.7-8.6,11.6-12.9,4.5,3.9,8.7,7.6,13.1,11.3,2.3-2.6,4.3-4.8,6.6-7.3-4.4-4-8.6-7.8-13-11.7,3.8-4.4,7.5-8.6,11.4-13.1-2.6-2.3-5-4.4-7.5-6.6-4.1,4.6-7.7,8.7-11.5,13-4.5-3.9-8.8-7.6-13.2-11.4-2.3,2.7-4.3,5-6.5,7.4,4.5,4.1,8.7,7.8,12.6,11.4-.3.7-.3.9-.4,1-2.2,2.5-4.4,5-7,8.1Z"/>
  <path class="cls-32" d="M234.3,318.1c-.7-2-1.2-4-1.2-5.9,0-15.6,0-31.3-.1-46.9,0-2.5-.7-5.2-2-7.3-6.3-10.5-8.7-22.2-10.9-33.9-2.9-15.2-5.6-30.5-8.4-45.8-2.3-12.4-5.1-24.7-4.8-37.5.5-17.3,0-34.6.2-52.4,3.7,18.3,7.3,37,10.9,55.8,1.5,8,3,16,4.5,24,3,16,9.9,29.9,22.9,40.2-14.8,18.7-16,38.3-5.5,59,6.7,13.2,12.9,26.6,19.6,40.3-8.5,3.6-16.7,7.2-25.3,10.6Z"/>
  <path class="cls-16" d="M1611.6,700.3c.3,21.5.5,43.3.2,65.1,0,4.3-1.1,9-3.2,12.7-3,5.4-2.8,10.8-2.7,16.4.3,9-.2,17.9-5.2,25.7-2.8,4.4-6.5,8.3-9.9,12.7-3.1-4.6-5.5-10-9.2-14.5-6.7-8.2-14-16-21.4-23.6-3.9-4-3.4-9.8,1.5-12.4,7.2-3.8,14.5-7.5,21.6-11.4,16.7-9.2,24.4-26.4,20.7-45.2-.4-2.2.4-4.7,1.1-6.9,1.9-6.2,4-12.2,6.3-18.7Z"/>
  <path class="cls-7" d="M1482.1,439.9c-8.7-2.3-17.1-4.5-25.4-6.9-7.4-2.2-10.9-6.9-10.8-13.7.2-7.9,6.9-14.1,14.6-12.5,11.1,2.3,21.9,5.3,32.9,8.2,10.9,2.9,21.9,5.8,32.7,8.9,6,1.7,10.4,5.3,11,12,.8,10.4-7.7,16.5-18.9,13.7-11.9-3.1-23.8-6.3-36.1-9.6Z"/>
  <path class="cls-3" d="M1378.8,412.2c-8-2.1-15.5-4-23-6.1-8.7-2.5-13.3-9.3-11.4-16.6,2-7.9,9.4-11.8,18.6-9.4,20.3,5.3,40.5,10.7,60.7,16.2,6,1.6,10.5,5.1,11.6,11.6.9,5-1,9.2-4.9,12.4-4.1,3.3-8.8,3.5-13.7,2.2-12.5-3.3-25-6.7-38-10.2Z"/>
  <path class="cls-22" d="M225.1,819.1c-6.4,2.9-12.3,6.1-18.5,8.4-3.6,1.3-7.7,1.9-11.5,1.5-5.3-.5-8.4-4.5-9.7-9.5-1.3-5.1.2-9.8,4.4-12.9,3.6-2.6,7.7-4.5,11.8-6.4,16.6-7.7,33.3-15.3,49.9-22.9,9.8-4.5,18.6-.8,20.9,8.6,1.5,6.2-2.1,12.5-9.3,15.8-8.1,3.8-16.4,7.5-24.5,11.2-4.4,2-8.8,4-13.5,6.1Z"/>
  <path class="cls-28" d="M668,141.2c.1,15.8-2.6,30.6-8.9,44.6-1.1,2.6-2.5,5.2-4.3,7.2-1.3,1.4-3.7,2.8-5.5,2.5-6.1-.7-12.1-2.2-18.1-3.3-3.6-.7-4.7-2.9-3.9-6.2,3.9-16.2,4-32.6,3.7-49.1-.1-6.8.7-7.5,7.7-8.1,7.3-.6,14.6-1.3,21.8-2.1,4.2-.5,6.2,1.4,6.6,5.5.2,2.8.7,5.6,1,8.9Z"/>
  <path class="cls-19" d="M434.8,287.6c-7,18.6-14.2,37-21.4,55.4-1,2.6-2.1,5.3-3.4,7.7-.8,1.5-2.2,2.7-3.3,4.1-1.1-1.3-2.6-2.4-3.3-3.9-4.6-10.1-9.1-20.3-13.5-30.5-3.1-7.1-6.1-14.4-9.1-21.9,11.5-5.5,23.1-10.8,34.8-15.9,7.5-3.3,13.4.4,19.2,5Z"/>
  <path class="cls-31" d="M701.4,179.5c8.8,4.4,17.4,8.8,25.7,13.5,3.1,1.8,2.1,4.8.4,7-7.4,9.6-14.8,19.2-22.5,28.5-2.2,2.7-4.9,5.1-7.9,6.7-2.1,1.1-5.6,1.6-7.6.6-6.1-3-11.8-6.8-17.6-10.3-1.9-1.2-3.7-2.5-1.7-5.1,9.6-13.1,19.2-26.3,28.9-39.4.5-.6,1.3-.9,2.4-1.5Z"/>
  <path class="cls-32" d="M1424.7,83.3c.2,21.8.8,43.9,0,65.9-.2,7.1-3.7,14.1-5.8,21.5-4-.7-7.9-2.2-12-2.6-5.7-.5-11.5-.1-17.9-.1,1.8-9.3,3.5-18.3,5.5-27.3.2-1,1.7-1.9,2.8-2.6,9.2-6.1,15.6-14.3,18.7-24.9,2.9-9.9,5.6-19.8,8.6-30Z"/>
  <path class="cls-36" d="M968,270c-7.8-4.8-15.2-9.6-22.8-14.1-2.9-1.8-3.5-3.5-1.5-6.4,3.5-4.9,6.5-10.1,10.3-14.7,1.3-1.6,4.3-3,6.3-2.7,12.1,1.7,23.6,5.7,34,12.1,1.2.7,2,4,1.4,5.2-4.6,8.1-9.4,16.1-14.7,23.8-.8,1.2-4.1,1.6-5.9,1-2.5-.7-4.6-2.7-7.1-4.3Z"/>
  <path class="cls-36" d="M369.4,127.5c-1.6-4.8-3.1-9.2-4.3-13.6-.9-3.4-.3-5.6,4.1-6,5.6-.5,11.1-1.6,16.7-2.6,4-.7,7.2,0,9.3,3.9,3.7,7.2,7.9,14.2,11.2,21.6,2.6,5.9,1,8.1-5.3,9.1-7.2,1.2-14.4,2.2-21.6,3.6-3.1.6-4.7-.5-5.6-3.4-1.3-4.1-2.8-8.2-4.4-12.6Z"/>
  <path class="cls-36" d="M1154.3,163.7c2.6,3.6,5.2,6.9,7.4,10.4,1.8,2.9,1.1,5.3-2.3,6.8-7.3,3.2-14.5,6.5-21.9,9.7-2.5,1.1-4.7,1.1-6.4-1.7-4.8-7.8-9.8-15.4-14.7-23.1-2.1-3.3-1.9-5.6,2.3-7.1,5.6-2,11.1-4.5,16.5-6.9,3.4-1.5,6.3-1.1,9,1.8,3.2,3.4,6.5,6.6,10.1,10.2Z"/>
  <path class="cls-36" d="M1193.2,134.8c4.9,5.5,4.9,6.1-.3,10.5-5.3,4.5-10.7,8.9-15.9,13.6-2.4,2.2-4.2,2.4-6.8,0-6.5-5.9-13.4-11.5-19.9-17.4-4.3-3.9-4.1-4.9.2-8.5,4.3-3.6,8.8-7.1,13.1-10.8,2.4-2.1,5-2.6,7.7-1,7.2,4.4,14.4,8.8,21.9,13.5Z"/>
  <path class="cls-4" d="M429.2,84.4c6.2,6.3,12.4,12,17.8,18.5,4,4.7,3,7.1-2.5,9.9-6.2,3.1-12.5,6.1-18.7,9.3-3,1.6-5.1,1.2-7.1-1.8-4.9-7.5-10.1-14.8-15.2-22.2-2.3-3.3-2-5.6,2.1-7.3,5.4-2.2,10.4-5.2,15.9-7.1,2.1-.8,4.9.2,7.7.6Z"/>
  <path class="cls-18" d="M1611.7,603.4c.2,22.1.3,44.6.2,67.1,0,3.9-1.2,7.7-1.9,12-3.3-8.9-8.8-16.7-16.6-23.1,10.8-17.2,16.3-35.8,18.3-56Z"/>
  <path class="cls-33" d="M1712.8,295.9q-6.2,5.7-11.7,0c-.6-.6-1.1-1.2-1.7-1.8-7.4-7.8-6.4-12.4,3.8-16.4.8-.3,2.2-.5,2.8,0,4.2,3.4,8.4,6.9,12.4,10.7.4.4-.1,2.5-.8,3.4-1.2,1.5-2.9,2.7-4.7,4.2Z"/>
  <path class="cls-33" d="M1689.1,281.1c.9,3.4,1.7,6.5,2.4,9.5,1.3,5.9.7,6.8-5.1,7.3q-11.4,1.1-14.4-10.1c-2-7.7-1.8-8.2,6.1-8.7,3.7-.3,7.9-3.2,10.9,2.1Z"/>
  <path class="cls-24" d="M353.4,69.4c-2.4,4.1-5,4.3-8.3,1.5-2.5-2.1-5.4-3.8-8-5.9-.9-.7-2.2-2.3-2-2.5,2.2-3.2,4.4-6.5,7.2-9.2,1.1-1,4-.7,5.8,0,2.7,1.1,5,3.2,7.7,4.5,3.7,1.9,3.8,4.1,1.2,7-1.2,1.3-2.2,2.9-3.5,4.6Z"/>
  <path class="cls-6" d="M1228.4,129.7c-.7-.7-1.2-1.2-1.6-1.7-6.7-7.5-6.2-10.2,3.2-14.4,1.5-.7,3.7,0,5.5.4.9.2,1.5,1.2,2.3,1.9,11.2,9.6,8.6,8.2.5,15.5-4.3,3.9-4.6,3.8-9.8-1.6Z"/>
  <path class="cls-30" d="M1207.9,114c3.2.3,7.9-.3,8.5,1,2,4.4,2.6,9.4,3.5,14.3,0,.5-1.5,1.8-2.4,1.9-3.6.4-7.3.8-10.9.6-1.2,0-2.7-1.8-3.3-3.1-.9-1.9-1.1-4.1-1.7-6.2-2-7.3-1.7-7.7,6.3-8.5Z"/>
  <path class="cls-12" d="M487.3,111.9c-3.3-4.7-6.2-9.4-9.1-14.2-.2-.4-.2-1.3,0-1.4,3.2-1.8,6.4-3.9,9.9-5.1,1.4-.5,3.5.9,5.2,1.6.4.1.6.8.9,1.2,8.3,11.6,7.6,13.6-6.8,17.9Z"/>
  <path class="cls-6" d="M473.5,87.5c.7,5.4,1.1,10.6,1.4,15.8,0,.3-.3.8-.5.8-4,0-8.1.2-12-.5-1.6-.3-3-2.6-4-4.3-.6-1-.2-2.6-.2-3.9-.2-10.5.2-10.9,10.5-9,1.5.3,2.9.6,4.8,1.1Z"/>
  <path class="cls-24" d="M335.1,70.1c-2.2,6.1-7.8,5-12.2,5.8-1.6.3-4.4-2.4-5.4-4.4-6.1-11.3-5.5-10.2,6.5-14.3,3.4-1.1,5.8,0,7.2,3.4,1.3,3.1,2.6,6.1,3.9,9.5Z"/>
  <path class="cls-32" d="M1418.9,171.4c.3-.2.6,0,1.1.3-.3.2-.7,0-1.1-.3Z"/>
  <path class="cls-2" d="M652.4,835.6c3.3,20.9,6.4,41.4,9.8,63.1-24.1-14.6-47.3-28.7-71.2-43.2,18.4-21,36.2-41.3,54.9-62.6,2.2,14.7,4.3,28.5,6.5,42.7Z"/>
  <path class="cls-37" d="M1265.8,798.6c14.7-6,29.3-1.1,35.4,11.4,1.8,3.6,2,6.9,0,10.8-5.5,11.3-10.7,22.9-15.6,34.5-1.4,3.3-3,4.2-6.3,3.7-13.2-1.8-24.7-6.3-30.6-19.2-6.7-14.8.7-32.6,17-41.2Z"/>
  <path class="cls-26" d="M1174.4,575.7c3.2,3.4,3.9,6.8,3,11.2-2.4,12.5-4.3,25.2-6.5,37.8-.3,1.5-1.5,3.7-2.6,3.9-12.6,2.3-24.6,1.5-34.5-7.8-11.7-11-11.1-31.9,1.3-44.5,11.4-11.7,27.7-12,39.3-.5Z"/>
  <path class="cls-37" d="M1104.5,437.6c-10.9,4.2-21.3,5.5-31.4-.9-10.5-6.6-15.7-20.6-12.8-34.2,2.9-13.2,11.5-21.8,24.2-22.8,4.7-.4,9.8,1.3,14.3,3.1,2.1.8,4,4,4.5,6.4,3.1,13.7,5.8,27.6,8.4,41.4.2,1.2-.7,3.1-1.6,4-1.4,1.3-3.4,2-5.5,3.1Z"/>
  <path class="cls-26" d="M1094.8,794.5c-5.2,18.3-18.9,27.1-35.7,23.2-16.6-3.8-27.7-20.9-24.7-38,3.7-21,19.5-31.7,39.9-26.7,10.6,2.6,17.2,9.8,19.5,19.9,1.5,6.8.8,14.1,1,21.6Z"/>
  <path class="cls-26" d="M1504.6,571.5c9,15,7.9,29.6-.9,43.6-6,9.6-15.6,13.2-26.8,11.8-11.6-1.4-20.1-7.7-25-18.2-6-12.7-2.8-30,7-39.9,12-12.1,33.5-10.9,45.7,2.7Z"/>
  <path class="cls-35" d="M1212.6,264.3c-3.6,6.1-7.1,11.7-10.5,17.5-1.7,2.8-4,4.3-7,2.6-3.2-1.8-3.4-4.7-1.5-7.7,3.3-5.4,6.3-11,9.9-16.2,1.2-1.6,4.2-3.1,6.1-2.8,2.9.4,4,3.2,3.1,6.6Z"/>
  <path class="cls-14" d="M1185.8,297.1c-2.5-3.3-2.2-6.4,1.2-7.6,1.7-.6,4.4,1.4,6.6,2.3-.8,2.1-1.3,4.5-2.7,6.1-.6.7-3.2-.3-5.2-.9Z"/>
  <path class="cls-29" d="M502,750.1c2.4-2.8,4.6-5.3,6.8-7.8.1-.1.1-.3.4-1-4-3.6-8.1-7.3-12.6-11.4,2.1-2.4,4.1-4.8,6.5-7.4,4.5,3.9,8.7,7.5,13.2,11.4,3.9-4.3,7.5-8.4,11.5-13,2.5,2.2,4.9,4.3,7.5,6.6-3.9,4.5-7.6,8.7-11.4,13.1,4.4,4,8.6,7.7,13,11.7-2.2,2.5-4.2,4.7-6.6,7.3-4.3-3.8-8.6-7.4-13.1-11.3-3.9,4.3-7.7,8.5-11.6,12.9-2.5-2.2-4.8-4.2-7.4-6.4,1.3-1.6,2.5-2.9,3.9-4.6Z"/>
</svg>