<?xml version="1.0" encoding="UTF-8"?>
<svg id="Layer_1" data-name="Layer 1" xmlns="http://www.w3.org/2000/svg" version="1.1" viewBox="0 0 1920 584">
  <defs>
    <style>
      .cls-1 {
        fill: #e53654;
      }

      .cls-1, .cls-2, .cls-3, .cls-4, .cls-5, .cls-6, .cls-7, .cls-8, .cls-9, .cls-10, .cls-11, .cls-12, .cls-13, .cls-14, .cls-15, .cls-16, .cls-17, .cls-18, .cls-19, .cls-20, .cls-21, .cls-22, .cls-23, .cls-24, .cls-25, .cls-26, .cls-27, .cls-28, .cls-29, .cls-30, .cls-31, .cls-32, .cls-33, .cls-34, .cls-35, .cls-36, .cls-37, .cls-38, .cls-39, .cls-40, .cls-41, .cls-42, .cls-43, .cls-44, .cls-45, .cls-46, .cls-47, .cls-48, .cls-49, .cls-50, .cls-51, .cls-52, .cls-53, .cls-54, .cls-55, .cls-56, .cls-57 {
        stroke-width: 0px;
      }

      .cls-2 {
        fill: #c42b4b;
      }

      .cls-3 {
        fill: #2d59cc;
      }

      .cls-4 {
        fill: #e63654;
      }

      .cls-5 {
        fill: #a22143;
      }

      .cls-6 {
        fill: #000;
      }

      .cls-7 {
        fill: #fdfdff;
      }

      .cls-8 {
        fill: #e7435f;
      }

      .cls-9 {
        fill: #fffeff;
      }

      .cls-10 {
        fill: #dacde0;
      }

      .cls-11 {
        fill: #f1c9d5;
      }

      .cls-12 {
        fill: #d9cce0;
      }

      .cls-13 {
        fill: #346de5;
      }

      .cls-14 {
        fill: #c42949;
      }

      .cls-15 {
        fill: #e53755;
      }

      .cls-16 {
        fill: #a32040;
      }

      .cls-17 {
        fill: #c42a4a;
      }

      .cls-18 {
        fill: #406bda;
      }

      .cls-19 {
        fill: #bb294d;
      }

      .cls-20 {
        fill: #a1244a;
      }

      .cls-21 {
        fill: #f7f9fe;
      }

      .cls-22 {
        fill: #fffdfd;
      }

      .cls-23 {
        fill: #fefeff;
      }

      .cls-24 {
        fill: #b59fca;
      }

      .cls-25 {
        fill: #3e74e7;
      }

      .cls-26 {
        fill: #e53453;
      }

      .cls-27 {
        fill: #fbfafc;
      }

      .cls-28 {
        fill: #2c58cb;
      }

      .cls-29 {
        fill: #356ee5;
      }

      .cls-30 {
        fill: #daccdf;
      }

      .cls-31 {
        fill: #fef8f9;
      }

      .cls-32 {
        fill: #b89ec7;
      }

      .cls-33 {
        fill: #e53553;
      }

      .cls-34 {
        fill: #2c58cc;
      }

      .cls-35 {
        fill: #fafcfe;
      }

      .cls-36 {
        fill: #326ce5;
      }

      .cls-37 {
        fill: #fefbfc;
      }

      .cls-38 {
        fill: #2a53cd;
      }

      .cls-39 {
        fill: #3a6ce0;
      }

      .cls-40 {
        fill: #d3c8df;
      }

      .cls-41 {
        fill: #c63150;
      }

      .cls-42 {
        fill: #fbf7f9;
      }

      .cls-43 {
        fill: #c42d4c;
      }

      .cls-44 {
        fill: #d9cde1;
      }

      .cls-45 {
        fill: #2d58cb;
      }

      .cls-46 {
        fill: #e53352;
      }

      .cls-47 {
        fill: #de3a5b;
      }

      .cls-48 {
        fill: #336de5;
      }

      .cls-49 {
        fill: #fff;
      }

      .cls-50 {
        fill: #e53554;
      }

      .cls-51 {
        fill: #fbf4f7;
      }

      .cls-52 {
        fill: #2b57cb;
      }

      .cls-53 {
        fill: #e53655;
      }

      .cls-54 {
        fill: #fffcfc;
      }

      .cls-55 {
        fill: #fafbfe;
      }

      .cls-56 {
        fill: #dacee1;
      }

      .cls-57 {
        fill: #fdfeff;
      }
    </style>
  </defs>
  <path class="cls-23" d="M1738.5,585c-523,0-1046.1,0-1569.2-.3-1-.8-1.7-1.4-2.6-1.6-18.3-4.5-34-22.1-34.1-42.2,0-11.5,0-23,0-34.5,0-7.8,5.3-15.8,12.9-18.2,7.3-2.4,14.8-4.3,22.2-6.1,12.2-2.9,24.6-4,37.2-3.1,15.2,1.2,30.5,1.8,45.7,3.1,9,.7,17.8,2.2,26.9,3.4,2.4-16,4.4-31.9,7.3-47.7,2.4-13.1,12.6-18.8,23.6-17.7,11.1,1.2,22.2,3.2,33.2,4.9,18.1,2.9,36.1,6,54.1,8.9,9.5,1.5,18,11.7,16.8,21.2-.9,7.2-2.6,14.3-3.7,21.5-.6,4-.8,8.2-1.2,12.2,1.1,0,1.5.2,1.8,0,20.3-8.2,41.4-11.1,63.2-10,13.2.7,26.3,1.1,39.5,2.1,6.1.4,12.2,2,18.3,2.8,5.9.8,11.8,1.4,17.7,2.1-3.8-3.5-8-6.3-10.9-10.1-7.5-9.9-11.1-20.9-8.7-33.6.4-2.1-.7-5.4-2.2-6.9-7.5-7.8-9.7-17.3-4.3-26.9,2.3-4.1,5-7.9,7.7-12,.4-.5.5-.9.6-1.2-.6.2-1.1.5-2.1.8-6.9,2.6-13.5,5.2-20,7.8-7.7,3.1-15.4,3-23.2,0-1.5-.6-3.7-1.1-4.9-.5-16.9,9.1-34.7,13.4-54,11.8-17.7-1.4-31.4-9.2-41.4-23.5-7.9-11.2-12-24-14.4-37.7-1.7,0-3.4,0-5,0-30.8,0-61.6,0-92.5,0-3.1,0-6.5.1-9.1-1.1-5.8-2.7-11-2.2-16.3.8-1,.6-2.6.3-3.9.3-32.5,0-65,0-97.5,0-3.3,0-6.8-.9-9.8-2.2-10.6-4.5-15.6-17-12-28.9,2.7-8.9,9-13.8,17.4-15.6,4.3-.9,5.2-2.3,5.1-6.3-.1-50,0-100,0-149.9v-4.8c-2.2-.5-3.9-.8-5.6-1.3-15.8-4.1-21.4-20.1-15.8-33.1,4.3-10,12.5-13.8,22.7-13.8,29-.1,58,0,87-.1,9.1,0,17.9.5,26.1,8.6,0-3.6,0-5.7,0-7.7-.2-6.7-1.6-13.5-.5-19.9,3-18.1,15.7-28,31.9-33.6,4.3-1.5,6.5-3.6,8.4-7.4,9.4-18.9,24-31.5,45.4-34.9.6,0,1-1.3,1.5-1.9,6,0,12.1,0,18.2.4.8.8,1.4,1.3,2.2,1.6,7.8,2.8,15.9,5,23.3,8.7,3.9,2,7.4,3.2,11.8,3.5,13.6.8,24.9,6.3,33,17.7,5.6,8,7.9,17.6,15.9,24.8,8.6,7.7,11.5,19.5,10.8,31.7-1.1,18.7-14.2,35.7-32.3,39.3-11.8,2.4-24.2,1.7-36.4,2.3-5.3.2-10.7,0-15.2,0,2,4.5,4.3,8.5,5.7,12.8,3.3,10,6,20.4,19.4,21.3,1.8.1,3.6,1.2,5.4,1.9,10.5,4.1,15.5,10.1,16.2,19.7.7,8.7-3.7,17.1-14,21.2-4.7,1.9-9.7,3.2-14.5,5.1-2.4.9-5.5,1.9-6.6,3.8-2.2,3.9-3.3,8.4-5.1,13.2,8.2-1.3,15.7-2.4,23.2-3.6,8.9-1.3,17.9-4.2,25.6.6,5.1-2.6,9.5-5.7,14.3-6.9,8.6-2.1,17.6-2.9,26.4-4.3,9.8-1.6,19.5-3.3,29.3-4.7,5.7-.8,11.4-1.2,17.1-1.3,7.1-.2,12.4,4,17.5,9.6,1.7-24,3.3-47,5-70-7-2.5-11.9-6.6-14.5-13.4-4.8-12.5.7-30.7,16.6-33.1,6.9-1,13.8-1.9,20.7-3,15.3-2.6,30.6-5.3,45.9-8,13.9-2.4,24.7,5,26,16.1,1.3,10.8.2,21.9-.2,32.8-.3,7.6-1,15.2-1.6,23.3,43.2-3.2,74.4,13,90.9,53.9,33-28.4,70.2-33.7,111.5-20.2-1.1-1.6-1.7-3.2-2.7-3.8-2-1.2-4.5-1.6-6.6-2.7-11.1-5.6-15.5-15.9-12.9-29.9,1.6-8.3,13.1-19.2,22.2-18.1,9.4,1.1,14.7-2.4,19.2-9.3.2-.3.4-.5.7-.7,3.1-1.8,2.9-4.3,1.6-7-2.6-5.6-2.6-11.5-.7-17.1,3.8-11.1,12.2-17.2,23.6-17.9,7.7-.5,16.3,1.6,20.1,8.5,4.3,7.9,9.9,9.1,17.5,8.2,1.2-.1,2.6.6,3.8.4,1.2-.2,2.9-.7,3.5-1.7,6.3-11,16.3-16.2,28.7-13.7,7.1,1.4,13.1,5,16.8,11.9,5,9.2,4.5,18.1,0,26.8,3.3,4.3,6.3,8.5,9.8,12.4,1,1.1,3.4,1.5,5,1.2,9.6-1.7,19-1.9,28.6.5,22,5.7,37.9,27.8,36.5,49.8-.2,3.7-.4,7.4-.6,10.9,1.5-.3,3-.7,4.5-1,0-12.4,0-24.6,0-36.7,0-11.2,8.5-19.8,19.6-19.8,22.5,0,45,0,67.5,0s3.2,0,4.9,0c0-23.7,0-46.7,0-69.6,0-14,9.5-23.6,23.3-23.5,60.8.4,121.7.2,182.5.2,12.6,0,21.2,8.7,21.2,21.3,0,37.5,0,75,0,112.5v4.7c2.7-3.4,4-7.3,6.1-10.7,2.5-4.1,5.2-8.3,8.7-11.5,2.2-2,3.2-3.6,3.2-6.4.2-7.2-.2-14.6,1.1-21.7,2.3-11.8,8.4-22,16.8-30.5,8.2-8.3,18.6-13.1,29.6-16.7,1.3-.4,2.9-1.4,3.5-2.6,6.4-12.2,14.9-22.5,25.9-30.9,13.4-10.2,28.7-15.8,45.4-17.4,18.8-1.7,36.6,2.4,52.9,12,11.6,6.8,21.2,16,28.4,27.4,4.5,7.1,7.7,14.9,11.2,21.9,24.1-.8,42.9,7.9,54.9,27.4,4.9-3.3,9.6-6.8,14.7-9.6,3.6-1.9,7.8-3.1,11.8-4,5.5-1.3,8.8-4.2,10.3-9.9,1.4-5.4,3.5-10.7,5.8-15.8,3.5-7.7,12.3-13.3,19.7-12.3,8.8,1.2,15.8,5.2,19,14.2,2.5,6.9,3.3,15.6,8,20.3,4.9,4.8,13.6,5.7,20.6,8.4,8.4,3.2,14.3,11.3,14.3,19.5,0,9.1-6.2,17.6-14.9,20.6-5.8,1.9-11.6,3.8-17.2,6.1-1.7.7-3.4,2.8-4.1,4.6-3.6,8.7-6.9,17.5-10.3,26.2,5.8,1.5,12.1,4.4,16.1,11,4,6.7,3.4,14.4,4.4,21.7.8,5.7,1.6,11.3,1.9,17,.5,9.8,3.6,19.8-2.1,29.2-1.6,2.6-1.6,5.3.8,8.6,3.7,4.9,6.2,10.9,8.4,16.7,3.9,10,4,20.5,3.1,31.1-1.1,13.1-5.2,25.1-13.9,34.9-12.5,13.9-29.1,19.9-47.3,21.8-5.7.6-10.1,2.1-12.6,8.1-2.6,6.2-6.4,11.9-9.6,17.8-7.9,14.6-15.7,29.1-23.6,43.8,2.5.5,4.7,1.2,6.9,1.3,11.2.4,22.5.5,33.8,1.1,9.7.5,17.6,4.4,21,14.2,1.1,3.3,1.3,7,2,11.1,5.3-1.5,10.6-3,16-4.7,5.2-1.6,10.3-1.7,15.4.3,9.6,3.7,12.5,11.7,12.9,20.9.4,9.3.3,18.7,0,28-.3,7.9-1.5,15.9-5.3,22.9-6.7,12.3-16.8,20.3-30.6,23.3-.4,0-.7,1.2-1,1.9M595.4,404.7c-2.2,2.6-4.4,5.3-6.7,8.1,1.2,1.1,2.5,2.4,4.5,4.2,1.3-4.6,2.3-8.2,3.9-12.1,0-.5,0-1.1.1-1.6-.4.3-.9.6-1.9,1.4M322.3,165c3.6-1.3,7.2-2.5,10.7-3.9,1.3-.5,2.8-1.5,3.3-2.7,1.2-2.6,1.8-5.5,2.7-8.2-.3-.3-.6-.6-.9-.9-5.8,5.1-11.6,10.1-17.8,15.6-.1.3-.3.7-.4,1,.6-.2,1.1-.5,2.5-.8M967.4,405.5c.3.1.7.2,1,.7,0,.4.1.8.6,2.1,9,30.2,18,60.4,26.1,90.7-14.3,1-28.4,3-42,7.9-6.5,2.4-13.3,4.2-20.1,5.4-23.3,4.3-46.7,3.6-69.6,0,6.9-4.3,13.9-8.6,20.3-12.6-10.1-14-19.7-27.4-29.5-41.4-2.2-4.8-5-9.5-6.5-14.5-3.9-13.2-7.3-26.5-10.6-39.9-.7-2.9-2.2-4.3-4.7-3.4-1.3.4-3,2.6-2.9,3.9,1.3,18.6,2.8,37.1,4.3,56.4,3.3,17.7,8.8,34.8,15.8,50.9-18.4-2.6-36.8-5.3-55-8.6,10.3-13.3,14.9-28.8,17.7-45.8,1.4-17.2,2.8-34.4,3.9-51.7.1-1.5-1.3-4.5-2.1-4.5-9.1-.3-18.1-.2-28.4-.2,0,19.5,0,38.2-.2,57.9-.4,4.8-.5,9.6-1.2,14.3-1.5,9.7-1.8,19.8-8.7,28.1-1.8-.2-3.5-.4-5-1.2,4.6-6.9,4.8-13.4.6-18.8-4-5.1-11.3-7-17.5-4.5-6.3,2.5-10.2,9-9.8,16.4.1,2,.4,3.9-.3,5.9-12.5.9-25.1,1.9-37.8,2.7,0,0-.2,0-.2-.9-.6-5.9-1.2-11.7-1.9-17.9-17.1,1.7-33.5,3.4-50.4,5.1.7,9,1.4,17.5,1.3,26.1-21.8,2.3-43.5,1-65.2-1.6-34.8-4.2-69.5-9.3-104.3-13-20.4-2.2-41-.9-60.6,5.8-13.6,4.7-27.4,8.1-41.8,8.6,3-19.9,6-39.7,9-60.1-29-4.5-57.7-9-86.5-13.5-1.9,12-3.7,23.2-5.5,34.3-1.8,11.3-3.6,22.7-5.8,34,0,0-.3.1-1-.2-4.8-.7-9.5-1.4-14.3-2.1-26.2-3.7-52.4-7.9-79-7.5-14.4.2-28.5,2-42.3,6.2-3.4,1-4.8,2.5-4.6,6.3.3,7.7,0,15.3.1,23,0,19.6,9.9,29.5,29.5,29.5,514.2,0,1028.5,0,1542.7,0,2,0,4,0,6-.1,11.7-.8,22.2-9.6,23.2-21.1,1-11.7.2-23.5.2-35.6-15,4.9-30.1,8-45.7,6.9.4-8.6.9-17.1,1.3-26.1-17.2-.9-33.6-1.7-50.7-2.5-.5,9.2-1.1,18.1-2.5,27-12-1.7-23.9-3.5-35.4-5.9,4.3-7.9,8.6-15.8,12.8-23.6,19.2-35.3,38.4-70.6,57.9-105.9.2,0,.4-.2,1.4-.6,9.2-1.1,18.6-1.6,27.6-3.6,20.7-4.6,31.7-17.1,33.4-36.9,1.5-17.1-3-31.9-16.5-43.3,4.5-7.1,2.8-14.3,1.4-21.5,5.1,1.1,6.6.3,6.2-3.8-1.3-13.2-2.7-26.4-4.1-39.6-.4-3.4-2.1-4.3-5.5-3.5-3.3.7-6.9,1.1-10.3.8-10.9-.9-21.8-2.5-32.7-3.4-15.5-1.2-31-.9-45.3,6.4-14,7.1-23.3,17.9-25.9,34.2-4.1,0-8.1,0-12.3-1,0-3,0-6.1,0-9.9-2.8-26.1-15.9-45.2-39.6-56.5-19.9-9.5-40.6-9.6-61.4-3.1-18.3,5.7-32.3,16.8-41.8,33.6-6.4,11.4-9.2,23.8-9.7,36.8,0,0,0,0-1,0-14.5,0-29,0-43.3-.9v-8c10.3,0,19.8-.3,29.2.1,5.4.2,5.9-2.6,5.9-6.7,0-4.2-.7-6.9-6-6.6-9.6.4-19.2.1-29.3.1,0-2.3,0-4,0-5.8,0-13.8.1-27.6-.2-41.4,0-1.8-2-5.1-3.1-5.1-2.3,0-5.1,1.2-6.7,2.8-1.7,1.6-2.1,4.4-3.2,6.7-9.6,18.4-24,31.6-42.9,39V76.4h-186v92.9h-92.9c0,17.7,0,34.8,0,52.1,0,0,0,.2-.8.3-8,2.1-16,4.3-24.1,6.2-12.1,2.8-24.2,5.5-36.4,8.1-2.8.6-6,.9-5.8,4.8.2,4.3,3.7,3.9,6.7,4.1,1.7.1,3.3,0,5,.2,4.1.3,6.4,2.1,6.3,6.6-.1,3.5,0,7-.8,10.5-22.7,0-45.3,0-68.2-.2,0,0-.2,0-.4-.8-.1-4.7-.2-9.3-.1-14.9.2-12.8,0-25.6.7-38.4.6-10.8,8.8-17.7,20.6-18.5,11.7-.8,15.8,2.4,18.9,14.8,2.1,8.4,5.2,11.2,13.6,11.9,8.9.8,15.7-2.7,18.6-9.5,6.7-15.8-2-35.2-18.4-40-13.7-4-26.7-.4-38.9,6.1-5,2.7-9.6,6.2-15,9.8,0-4.3,0-8,0-11.8-.1-5.5-.9-6-6.3-4.7-18.9,4.5-37.8,8.9-56.7,13.5-3.1.8-7.9.2-7.3,5.5.6,4.9,5.1,3.3,8.1,3.4,8.9.5,9.7,1.2,9.8,9.9,0,16,.1,32,0,48.9,0,14,0,27.9,0,41.9,0,15.9,0,15.8-15.2,20.1-1.5.4-2.5,2.4-3.7,3.7,1.4.9,2.8,2.2,4.4,2.7,1.3.5,3,0,4.5.1,14.8,0,29.6.2,44.6.5.2.1.4.2.7.9.7,2.7,1.4,5.4,1.2,8.1-3.4,0-6.9-.2-10.3,0-3.3.2-6.6.8-10,2.1v16.8c-1.3.2-2,.3-2.6.3-9.3,0-18.7,0-28,0-2.4,0-4.2.3-4.2,3.4,0,3,1.4,3.6,4,3.6,20-.1,40-.2,60.3.5,1.2,5.1,2.5,10.2,3.3,15.9-8.8,18.4-21.3,33-41.8,40.4-9.9,2.4-19.5,2.9-27.8-5.7-2-3.7-4-7.3-1.8-12,.4.7.6,1,.8,1.4,3.3,7.3,9.8,10.4,17.5,8.5,7-1.8,11.8-8.2,11.5-15.5-.3-7.1-5.7-12.8-13.3-13.8-15.8-2.2-28.4,14.6-22.7,31,3.3,8.6,10,13.6,18.6,14.9,9.1,1.4,18.5,1.2,28.4,1.8v29.3h27.5c0-10.7.5-21.2-.2-31.6-.4-6.1,2.1-9.1,7-12.1,3.8-2.3,5.7,1.5,8.6,1,0,0,0,0-.1.5M872.3,432.8c1.8-1.4,3.9-3,1-5-6.9-4.8-14-9.4-21.2-13.7-.9-.6-3.5.5-4.5,1.5-.6.6-.3,3,.4,4.1,3,4.6,6.3,8.9,9.6,14,1.4,2.4,2.8,4.7,4.5,7.7,3.5-3,6.5-5.7,10.2-8.6M889.6,432.9c1.9-1.7,3.9-3.4,6-5.3-5.9-7.1-13.2-11.2-20.8-15.1-3.7-1.9-6.2-1.4-8.2,2,4.2,6.2,8.3,12.4,12.7,19.2.9,1.5,1.7,3,3,5.2,2.5-2.3,4.6-4.1,7.3-6.1M569.4,402.8c6.2-7.3,12.4-14.6,18.7-21.9.9-1.1,2.2-2.5,3.3-2.6,11-.2,22.1-.1,33.8-.1-2,8.7-3.9,16.8-6.2,25.3-.9,2.9-1.6,5.8-2.6,8.6-4.6,13.4-9.8,26.5-18.5,37.9-7.2,9.4-16,15.4-28.5,14-8.3-1-13.9-6.3-13.5-14,.5.8.7,1.2,1.1,1.6,6,5.9,14.8,6.6,20.8,1.7,5.6-4.6,7-12.8,3.3-19-4-6.7-12.6-9.2-20.2-5.9-8.9,3.9-13.5,12.6-12.5,23.3.9,9.4,8,16.9,18.4,19.1,13.6,2.9,26.6.9,38.6-5.8,24.1-13.4,35.2-36.2,43.7-61.6,2.9-10.3,5.7-20.7,8.9-32.1h-63.2c2.3-4.9,4.2-8.9,6.4-13.5-10.5-2-20.2-3.9-30-5.4-.8-.1-2.5,1.7-2.9,2.9-5.7,14.8-11.3,29.7-17.4,45-3.5,5.4-7,10.8-10.3,16.4-.6,1.1-.4,3.7.4,4.4,1.1.9,3.9,1.6,4.8.8,7.8-6.1,15.3-12.6,23.4-19.3M773.7,404.2c.2-1.8.6-3.6.7-5.5.8-13.9-8.4-25.3-21.7-27.2-8.3-1.2-15.6,3.4-17.7,11.2-1.9,7,2,14.4,8.8,17,8.1,3,15.9,0,19.8-7.6.4-.8.9-1.4,1.7-2.6,1,9.8-2.2,14.7-11,16.6-3.2.7-6.6.9-9.9.9-27,0-54,0-81,0-1.8,0-3.6,0-5.8,0,0,6,0,11.5-.2,17.8v7.5c.9.4,1.2.6,1.5.6,27.2,0,54.5.4,81.7-.3,18.1-.5,30.3-11.7,33-28.5M385.4,319.8c.7,4.9,1.2,9.9,2.2,14.8,2.5,11.7,4.5,23.6,8.3,34.9,4.6,13.9,14.3,23.4,29.5,25.1,16.3,1.9,32-1.3,46-10.1,6.4-4,11.8-9.4,17.9-14.3,1.1,3.6,2.4,7.5,3.6,11.4,1,3.4,2.7,5,6.5,3.3,19.3-8.6,38.6-17.1,57.9-25.6.8-.3,1.9-.6,2.1-1.2.7-2.1,1.4-4.4,1.3-6.6,0-.5-3.3-1.3-4.9-1.1-2.6.3-5.1,1.5-7.7,2.2-4.1,1.1-6.9-.4-7.8-4.7-.7-3.4-1.3-6.9-1.9-10.3-2.9-17.9-5.8-35.8-8.7-54.5-2.5-16.1-5-32.2-7.4-48.3-.6-3.9-2.6-5.3-6.5-4.6-8,1.4-16.1,2.6-24.1,3.9-12.6,2-25.3,3.9-37.9,6.1-1.5.3-2.6,2.2-3.9,3.4,1.4,1.1,2.7,2.6,4.3,3.2,1.5.5,3.3.1,4.9.2,8.2.3,11,2.7,12.2,10.8,2,13.1,4.2,26.2,6.2,40.2,2.3,14.8,4.1,29.6,7.2,44.3,1.4,6.8-1,10.7-5.7,14.5-15.3,12.4-31.4,7.9-36.5-10.9-3.3-12.3-4.9-25.1-7.2-38.5-3-19.2-6.1-38.4-9-57.6-.5-3.4-1.7-5.1-5.5-4.4-20,3.3-40,6.4-60,9.7-1.6.3-3,2.2-4.5,3.3,1.7,1.2,3.3,2.4,5.1,3.4.6.4,1.6,0,2.5,0,10.1.2,12,1.8,13.8,11.7.2,1.3.4,2.6.7,3.9,2.3,13.9,4.6,27.8,6.9,42.6M720.5,283.9c.3,6.8,0,13.7,1.1,20.4,3.6,22.6,14.6,40.5,35,51.8,19.8,10.9,41.1,12.6,63,9.3,14-2.1,27-6.8,36.3-17.9,4.5-5.3,7.5-12,10.5-18.4.6-1.4-1.1-4.8-2.6-5.9-.9-.7-3.9,1-5.7,2.1-1,.6-1.6,2.1-2.4,3.2-13.6,18.6-39.2,25-58.2,13.7-17-10.1-21.9-27.4-25.1-45.8,10.7-.8,21-1.6,31.3-2.4,21.4-1.7,42.8-3.2,64.2-5.2,1.6-.1,4.3-2.6,4.4-4.1.3-4.9-.3-9.9-.5-15.7-1.4-11.2-6.4-20.9-12.9-30.4,4.7-3.9,9.3-7.7,14.1-11.7,6.9,6.7,13.8,12.6,23,15.2,1.3-6.9,1.5-12.8-6.3-15.8-2.6-1-4.5-3.6-7.1-5.7,7.7-5.9,18.6-9.3,12.8-22.3-3.1-.8-5.6-.6-8.2,3.1-2.8,3.9-7.2,6.7-11.2,10.2-5.8-9.5-7.7-19.2-6.4-29.9,3,.7,5.6,1.3,7.8,1.8,1.8-3.8,3.4-7.1,5.1-10.7-3.4-.8-6.7-1.5-10.4-2.4,4.2-10.2,10.4-18,19.9-23.7,2.1,7.6,7.7,13.7,4.4,22.4,10.3-2.4,19.7-5.2,29.3-6.7,8.6-1.3,14.5-4.7,16.5-13.5.1-.5.4-.9.6-1.5,2.3,1.8,3.9,3.2,5.7,4.4,1.8,1.2,3.9,3,5.8,2.9,6-.1,10.3,1.9,13.2,7.2.3.5,1.1.7,2.8,1.9-4.6-10.8-10.9-18.3-19.2-24-3.2-2.2-3.6-4.2-1.7-7.3,2.1-3.4,4-6.9,5.9-10.4,1.9-3.3,2.1-6.6-1.7-8.6-3.8-2-6.3.2-7.9,3.6-1.9,4.1-3.4,8.3-5.6,12.2-.7,1.2-3.2,2.4-4.5,2-11.8-3.7-23.5-4-35.3-.5-2.9.9-4.7.3-5.8-2.7-1.4-3.9-3.2-7.7-4.6-11.6-1.5-3.9-4.1-6.1-8-4.3-4.1,1.9-3.5,5.5-1.6,8.9,1.9,3.5,3.6,7.1,5.6,10.6,1.7,2.9,1.1,4.6-1.8,6.4-9.9,6.4-17.2,15.1-21.6,26.1-1.4,3.5-3.2,4.1-6.4,3-4.4-1.4-8.9-3.1-13.4-3.7-1.9-.2-5,1.8-6,3.6-1.4,2.8.2,5.5,3.5,6.5,1.6.5,3.2.7,4.9,1,4.5,1,8.9,2,13.2,3-1.6,13.9.5,26.3,7.1,37.8,1.4,2.4,1.4,4.2-1.1,5.8-4.3,2.8-8.5,5.8-12.5,8.6-.7-.3-1.1-.3-1.3-.5-24.1-20.2-51.3-23.1-80.3-13.7-31.2,10.1-48.6,37.8-49.7,67.9M713.4,257.1c-1.3-9-1.7-18.3-4-27-8.7-32.1-37.8-50.6-70.6-45.1-8.4,1.4-16.4,4.6-24.9,7,.3.5,0,.3,0,0,1.7-24.1,3.3-48.1,5.1-72.2.6-8.1.1-8.7-8-7.2-12.3,2.3-24.5,4.5-36.8,6.5-7.2,1.2-14.5,1.8-21.7,3.1-1.8.3-3.3,2.6-4.9,4,1.4,1.4,2.5,3.4,4.1,4.1,1.9.8,4.2.5,6.4.8,4.6.5,7.1,2.4,6.6,7.8-1.5,18.1-2.6,36.2-3.8,54.3-1.2,18.3-2.4,36.5-3.8,55.6-.7,10-1.5,19.9-2.2,29.9-1.2,16.1-2.4,32.2-3.4,48.3-.4,6.3.8,7,6.8,4.8,11.1-4,22.3-7.8,33.2-12.2,4.2-1.7,6.6-1.2,9.9,2,25.6,24.8,67.9,24.4,91-1.2,15.9-17.6,20.7-39.3,20.9-63.3M241.6,243.8c5.5,7.5,11.2,14.9,16.6,22.5,10.7,15.4,19.2,31.9,25,49.8,2,6.2,1.2,7.6-5.2,8.9-2.9.6-6,1-8.7,2.1-1.2.5-2.5,2.4-2.4,3.6,0,1,2.1,2.1,3.4,2.6,1.2.4,2.6.1,4,.1,23.8,0,47.7,0,71.5,0,8.2,0,16.3,0,24.5-.1,1.2,0,2.4-1.6,3.6-2.4-1-1.3-1.7-3.3-3-3.8-2.9-1.1-6.2-1.3-9.3-2-6.4-1.3-10.7-4.5-13.8-10.8-7.4-14.9-15-29.7-23.7-43.9-12.6-20.6-27-40-43.6-58.4-5.7-6.3-11.3-12.6-17.1-19.1,1.3-1.4,2.3-2.6,3.5-3.7,13-13.1,26.2-26.1,39.1-39.4,10.9-11.2,23.2-19.8,38.3-24.5,1.7-.5,2.9-2.9,4.3-4.4-1.8-.7-3.6-2-5.5-2.1-12.2-.2-24.3-.1-36.5-.1-9.5,0-19,0-28.5.1-1.5,0-2.9,1.4-4.4,2.1,1.1,1.4,2,3.2,3.4,4.1,1.9,1.3,4.3,1.7,6.4,2.8,9.2,4.8,13.4,12.6,3.9,22.1-20.2,20.3-39.9,41.2-59.8,61.8-1.1,1.1-2.3,2.2-3.5,3.3-.4-.6-.8-.8-.8-1.1,0-26.3,0-52.6,0-79,0-3.6,1.9-6.1,5.3-7,4-1,8.2-1.5,12.1-2.7,1.8-.6,3.1-2.5,4.7-3.9-1.7-.9-3.3-2-5-2.6-1-.4-2.3,0-3.5,0-20.2,0-40.3,0-60.5,0-9.5,0-19-.1-28.5.1-1.5,0-3,1.6-4.5,2.5,1.3,1.3,2.4,3.3,4,3.8,3,1,6.2,1,9.3,1.7,9.4,2.1,10.5,3.5,10.5,13.2,0,27.8,0,55.7,0,83.5,0,13.2.1,26.3,0,40.4,0,16.8,0,33.6,0,50.5,0,6.6-1.5,8.6-7.9,10.2-4,1-8.2,1.2-12.2,2.3-1.5.4-2.5,2.4-3.7,3.6,1.4.9,2.8,2.1,4.3,2.7,1,.4,2.3,0,3.5,0,22.2,0,44.3,0,66.5,0,7.7,0,15.3.1,23-.1,1.6,0,3.1-1.6,4.7-2.4-1.3-1.4-2.4-3.2-4-3.9-1.9-.9-4.2-.7-6.4-1-10.5-1.4-12.7-4-12.8-14.4,0-16.5-.2-33,0-50.4,0-7.3.5-14.6,0-21.9-.5-6.1,2.9-8.4,7.4-10.5,4,4.9,7.9,9.7,12,15M1601.9,193.1c2.8,1.7,5.9,3.2,8.5,5.3,3.9,3.2,8.3,3.3,12.7,2.1,15.2-4,25.2-13.6,28.2-29,3-15.5-2.5-28.5-15.6-37.3-13-8.8-26.9-8.6-40.4-.4-.8.5-1.7.7-2.7,1.2-.3-3-.6-5.7-.9-8.3-3.4-31.9-27.2-56.2-60.5-60-28.8-3.3-57.7,12.8-69.3,42.4-2.2,5.6-4.9,7.3-10.4,7.9-19.1,2-34.6,17.5-36.9,36.4-2.4,19.2,8.6,37.9,26.3,44.9,8.6,3.4,16,3.8,24.5-2.4,19.8-14.4,42.3-22.3,67-22.7,24.8-.3,47.5,7.4,69.4,20M378.2,27.7c-6.7-1.8-13.3-4.9-20-5.3-18-1.1-33.8,9.7-41,28.4-3.1,8.1-6.2,14.1-15.9,13.3-.3,0-.7,0-1,.2-13.4,3.6-21.6,13.6-20.3,24.7,1.8,14.5,9.7,21.2,25.7,21.2,37.7,0,75.3,0,113,0,12.1,0,21.2-8.1,23.3-19.9,1.9-10.8-4.3-21.8-15.2-25.7-3-1.1-3.5-2.4-3.4-5.3.5-12.8-8.4-22.6-20.9-23.5-6.9-.5-17.3-3.7-23.2-7.3-.1,0-.3-.2-1.1-.6M371.5,207.5c1.2-6.2,4.9-9.8,11.1-11.2,4-.9,7.9-2.7,11.8-4,3.5-1.2,7-2.4,10.5-3.6,0-.5,0-.9-.1-1.4-8.4-3-16.8-6.1-25.2-8.8-3.7-1.2-5.8-3.4-7-7.1-2.5-7.6-5.2-15.1-7.9-22.6-.3-.9-1-1.7-2-3.5-2.3,6.6-4.9,12-6.1,17.8-2.1,10.3-7.8,16.1-18.2,18.3-5.9,1.2-11.4,3.9-17.1,6,4.6,2.9,9.3,4.5,13.8,6.2,20.1,7.4,14.9,1.9,22.4,22.7,1.7,4.6,3.3,9.1,4.9,13.7.4,0,.8,0,1.2-.1,2.5-7.2,5.1-14.3,7.8-22.3M1723.1,181.9c.7,2,1.4,3.9,2.2,5.9,3.3-6.2,6.1-12.3,7.5-18.6,2-9.3,7.2-14.2,16.4-16.3,6.3-1.5,12.4-4.2,19.9-6.9-2.9-1.2-4.4-1.9-5.9-2.4-6.9-2.4-13.8-5-20.7-7.2-3.7-1.2-5.9-3.3-7.1-7-2.4-7.4-5.1-14.8-7.7-22.1-.4-1.1-1-2.1-2.1-4.2-2.5,7-5.3,12.8-6.5,18.8-2.1,9.8-7.6,15.1-17.3,17.2-6,1.3-11.7,4-17.6,6.1,1.5,1.8,2.9,2.4,4.4,3,6.9,2.4,13.8,4.9,20.7,7.2,3.6,1.2,5.9,3.4,7,7,2,6.3,4.3,12.6,6.8,19.6M897.4,453.6c-5.7,3.7-11.7,6.7-19.7,4.7,4.8,6.1,9.2,11.4,13.5,16.9,4.1,5.4,8.6,10.6,11.9,16.4,1.4,2.4,2.3,3.7,4.9,3.3,8.5-1.1,17.2-1.6,25.5-3.6,12.1-2.9,23.8-7,35.7-10.5-1.6-5.2-3.3-10.8-5.1-16.5-2.9,1.3-5.5,3.4-8.2,3.5-10.8.4-21.6.7-32.4,0-11.5-.7-18-7.8-19.5-20.2-2.2,2-4.2,3.7-6.6,6M701,463c11.6-1.5,19.9,6.4,23.6,17,8.1-18,21.8-26.1,40.7-25v-7.8c-15.2,6.9-31,6.9-46.9,6.9-18.7,0-37.3,0-56,0-2.2,0-4.6-.2-6.7-1-5.1-1.8-8.3.5-11,4.5-2.3,3.3-4.8,6.6-7.6,9.5-12.7,13-28,21.4-46,24.9,7,1,13.9,1.6,20.9,2.1,7.2.5,14.3.9,21.8,1.4-4.2-13,5.2-26.2,17.7-27.3,3.7-.3,7.5-.6,11.2-1,12.5-1.3,25-2.6,38.5-4M722.5,354.5c-4.8-6.8-9.5-13.5-14.5-20.6-9.9,11.1-22,19-37.1,23.1,9.5,9.1,6.5,19.5,4.4,29.7h39.2c-.8-11.4,4.1-20,12.1-27.3-1.3-1.6-2.5-3-4.1-4.8M1677.9,166c-1.7-.7-3.4-1.4-5.4-2.2,0,14.4-4.6,26.6-13.4,37.6h50.6c-1.3-2.3-3.1-4.8-4.2-7.6-2.2-5.8-3.9-11.8-6.2-17.6-.7-1.7-2.3-3.5-4-4.2-5.5-2.1-11.2-3.7-17.5-6.1M335.5,216.4c-5-2.1-9.9-4.8-15.1-6.2-12.7-3.5-19.9-11.2-20.1-24.6-2.8,2.8-5.5,5.6-7.7,7.8,14.5,18.7,29.3,37.8,43.9,56.6,2-3,4.7-6.8,7.4-10.8-2.6-7.2-5.2-14.7-8.4-22.8M837.5,318.5c1.4-1.9,2.8-3.8,5.1-6.9-15.2,1.2-28.9,2.2-43.2,3.4,2.9,5.3,6.2,9.3,11.8,11.1,10.1,3.2,18.4-.1,26.3-7.5M243.5,161.9v2.7c-.3-.4-.5-.9-.8-1.3,7.9-6.6,15.8-13.2,23.8-20-3.3-2-5.2-3.1-6.2-3.7-4.9,2-9.4,3.5-13.6,5.6-1.4.7-2.8,2.5-3,3.9-.4,3.9-.1,7.9-.1,12.8M250.5,293.3c-2.3-4.1-4.6-8.2-7-12.3-1.1,7.8-1.2,15.2-.9,22.5,0,1.1,1.5,2.7,2.7,3.3,2.9,1.3,5.9,2.2,9,3.1,1.3.4,2.8,0,5.3,0-3.3-6.2-6-11.1-9-16.6M455.5,285.8c-1-5.6-1.9-11.1-3-16.7-.2-.9-1.2-1.6-1.8-2.4-.3.2-.5.4-.8.7,4,24.7,8.1,49.5,12.1,74.2.6-.1,1.2-.2,1.8-.3-1.3-8.1-2.5-16.3-3.8-24.4-1.5-10.1-3-20.2-4.5-31.1M977.4,230.6c-2.6-1.9-5.2-3.8-8.6-6.2,0,4.1,0,7,0,10,0,4.3,2.9,6.4,6.3,7.3,1.6.4,4.6-1.1,5.7-2.6,2.2-3.3,0-5.9-3.3-8.4M857.4,381.5c1-3.1,1.9-6.2,3-9.7-6.3,3.3-12.1,6.3-17,8.9,4.1,3.8,8.2,7.6,11.8,10.9.4-2.6,1-6,2.2-10.1Z"/>
  <path class="cls-46" d="M995.8,498.9c-9-30.2-18-60.4-26.7-90.9,6,3.8,11.8,7.8,17.3,12.2,8.3,6.5,8.2,6.6,13.2-3.4,3.4-5.6,6.6-10.9,10.8-17.8-13-2.9-24.7-5.5-36.7-8.1,10.8-13.3,17-28.9,20.7-46.7-15.1,0-29.5,0-43.9-.5,0-4.1,0-7.7,0-11.3q0-6.9-6.7-7.5c-.7-2.7-1.4-5.4-1.8-8.6,1.6-.5,2.7-.5,3.9-.6,9,0,18,.2,27-.1,1.8,0,3.6-1.9,5.4-3-1.6-1.4-3-3-4.8-4-1.2-.7-2.9-.4-4.4-.7-6.4-1.3-9.5-3.9-9.5-9-.1-12.3,0-24.6.2-36.9,22.7,0,45.3,0,68.5,0,.5,0,.4,0,.4.2,0,.4,0,.6,0,1.2,0,7.1,0,13.8,0,20.9-.1,22-.1,43.5-.1,65,0,11.4-1.7,13.5-13,15.5-.5,0-1,0-1.5.2-2.5.3-5.1,1.1-4.3,4.1.4,1.3,3,2.7,4.6,2.8,14,.2,28,.1,42,.1,12.2,0,24.3,0,36.5,0,1.4,0,3-.9,4.1-1.8.5-.4.3-2.6-.3-3.1-1.2-1-2.8-1.7-4.3-2-9.7-1.9-10.9-3.3-10.9-13.3,0-18.7,0-37.3,0-56,0-4-.3-8-.3-12.4.1-6.7.5-13.1,0-19.3-.3-4.3,1.4-7.2,4.3-10,14.5-13.7,30.9-9.5,36.5,9.8,1.8,6.2,2.4,12.7,3.3,19.4,0,22.2.2,44,.3,65.8,0,14.5-2.3,14.4-12.5,16.2-1.4.2-2.4,2.5-3.5,3.9,1.4,1,2.8,2.7,4.2,2.8,8.6.3,17.3.1,26,.1,17.6,0,35.3,0,52.9-.1,1.5,0,3.1-1.6,4.6-2.5-1.3-1.4-2.4-3.1-4-4.2-1-.7-2.6-.4-3.9-.7-9.5-2.1-10.9-3.8-10.9-13.4,0-20.3,0-40.6,0-60.9,0-2.1-.3-4.3-.5-6.8-.8-8.4-1.2-16.4-2.5-24.2-3.4-19.9-16.5-33.9-34.3-37-13.8-2.4-27.3-.9-40.1,4.6-6.8,2.9-12.9,7.1-19.8,11,0-2,.2-4.1,0-6.2-.4-3.2-1.1-6.3-1.8-9.6-.7-.4-1.2-.5-1.8-.6v-51.9h92.9v-92.9h186c0,53.3,0,106.5,0,160.2,0,.5,0,.4-.2.6-5,1.7-9.7,3.3-14.3,4.8-2.8.9-4.7,2.4-4,5.7.7,3.1,1.9,5.6,5.8,5.5,4.3-.2,8.6,0,12.9-.1,0,0,0,0-.1.4,0,2.2-.4,4.1.1,5.8.4,1.1,2,1.9,3,2.8,0,0,0,0,0,.4.2,10.8.2,21.2.2,32,.2,20.1,0,39.7.9,59.3.7,14.6,8.4,25.4,21.8,31.4,13.2,5.9,27.2,7.3,41.4,4.8,12.8-2.3,23.1-9.1,31.2-19.1,1.1-1.3.5-3.9.7-5.9-1.9.2-3.9,0-5.6.6-2.8,1.1-5.2,3-8,4-14.9,5.4-26.7-1.2-28.7-16.2-.5-3.9-.7-8-.8-11.9-.2-15.8-.2-31.6-.2-47.9,0-10.8,0-21.2,0-31.5,0,0,0,0,0,0,14.5,0,29,0,43.9.4.6,2.5.7,4.5.7,6.9,0,2.6.1,5,.4,7.3,3.1,24,13.6,43.3,35.2,55.5,20.3,11.4,42.3,13,64.8,9.5,13.3-2.1,25.6-6.7,34.6-17,4.5-5.1,7.6-11.6,10.9-17.7,1.4-2.5,1.3-5.7-1.8-7.5-3.2-1.9-5.3.1-7,2.6-.5.7-.9,1.4-1.4,2-10.4,13.3-23.9,20.7-40.9,19.7-27.4-1.7-40.5-28.5-41.9-51.2,10.6-.8,21.2-1.7,31.7-2.5,20.9-1.6,41.8-3.2,62.6-5,1.8-.2,3.5-2,5.2-3,0,0,0,0,0,0,4.1,0,8.1,0,12.6,0,.5,0,.4,0,.3.3-1.4,16.2,2.6,29.9,16,40.1.9.8,1.5,1.4,2.2,1.8,12.1,5.7,24.4,11.1,36.4,17.2,6.4,3.3,13.2,6.8,18.2,11.8,9.9,9.9,4.9,25-8.8,27.9-18.3,3.9-33.4-2-44.2-16.9-5.5-7.6-9.1-16.5-13.9-24.6-.9-1.6-3.4-2.3-5.2-3.4-.6,1.8-1.9,3.6-1.8,5.3.9,10.3,2.6,20.5,3.1,30.7.4,8.4,2.5,14.8,11.9,16.4,2.4.4,4.7,1.5,7.1,2.3,15.7,4.8,31.8,6.6,48.2,6.1-19.2,35.3-38.4,70.6-57.6,105.9-4.3,7.9-8.6,15.8-13.4,24-22.6-2.2-44.5-5.4-66.5-7.3-22.2-1.9-44.1-.4-65.5,6.8-10.2,3.4-20.8,6.1-31.4,7.5-22.1,3-44.2,1.4-66.2-1.2-34.7-4.2-69.2-9.4-103.9-13-22.1-2.3-44.2-.8-65.5,6.9-13.6,5-27.5,7.5-41.9,7.9,0-4.9.2-9.4-.1-13.9-.2-3.8,1.2-6.3,3.6-9.2,5.4-6.6,10.3-13.7,15.3-20.5,0,0,0,0,.2,0,.5-.3.6-.5.8-1.2,3-5.5,5.8-10.7,9-16.8-7.6-1.5-14.3-2.3-20.8-4.1-4.6-1.3-6.4.3-8.3,4.2-6.4,13-13.8,25.4-24.5,35.5-9.4,8.8-20.2,14.1-33.4,12.4-4.8-.6-9-2.9-10.8-7.7-1.6-4.4-1-8.7,2.2-13.2.3,1.5.3,2.3.5,3,1.9,7.4,7.9,11.4,15.3,10.3,6.8-1,11.7-6.9,11.4-13.6-.3-7.2-5.8-12.5-13.4-12.8-10.6-.5-20.7,6.9-23.1,16.9-2.6,10.6,2.9,21,13.5,25.5,2.1.9,4.2,1.8,5.9,2.7-2.9,0-5.4,0-7.8-.4-13.6-1.8-27.2-3.7-40.6-5.9,1.9-1.5,3.8-2.6,5.3-4,9.5-9.2,12.4-20.8,11.5-34.1,0-8.4,0-16.3,0-24.8h36.7v-6.4h-118.4q-.8,6.6,5.2,6.6c13.2,0,26.3,0,39.5,0,2.9,0,5.9,0,9.2,0,0,8.8,0,17,0,25.6,0,4.8,0,9.1-.2,13.5-.4,8.1-2.9,15.3-10.2,20.4-.7.2-.9.4-1.5.3-7.2-.9-14.1-1.7-21.2-2.5-.4-.1-.6-.1-.9-.5-1.3-2.9-2.5-5.4-3.7-7.9,1.8-.1,2.5.3,3.1.8,5.8,4.1,12.7,4.2,18,.3,4.8-3.5,7.1-11,5.1-17.1-1.9-5.8-7.9-9.8-14.8-9.6-7.1.1-12.3,3.6-15.8,9.6-4.5,7.8-3.7,15.9-1.1,23.9-8.5-.3-16.6-.4-24.6-.6M1280.4,484.1s0,0,0,.6c.3.2.6.4,1,.4,0,0-.1,0,0,.6.3.2.6.4,1,.4,0,0-.2,0,0,.6.3.2.6.3,1.4,1.1,8,6.4,17.3,8,27.2,7.1,13.7-1.3,22.6-12.8,21.5-27.4-1-12.7-11.7-22.2-24.3-21.4-6.3.4-11.1,3.4-13.6,9.3-2.4,5.6-1.6,11.2,2.3,15.9,4.1,4.9,9.4,6.5,15.7,5.2,6.2-1.3,9.4-5.6,11.6-11.3,3.2,8.2.2,16.6-7.4,20.7-8,4.3-16.1,3.3-23.9-.5-8.1-4-12.2-11.5-15.7-20.1-1-3.7-1.7-7.4-3-11-1.5-4.1-.4-7.2,2.3-10.4,2.6-3,4.7-6.4,7.6-10,11.7-15.3,23.3-30.5,35.7-46.7h-94.9c-.7,6.7-.7,6.7,5.1,6.7,10.7,0,21.3,0,32,0,5.7,0,11.5,0,18.2,0-4.8,6.3-9,11.6-13.1,17-17.3,22.6-34.6,45.2-52.5,68.2-2.4,3.1-4.8,6.2-7.8,10.1,8.4,2.6,16,4.8,23.4,7.4,3.4,1.2,5.6.4,7.6-2.5,4.7-6.4,9.7-12.7,14.5-19,4.5-5.8,9-11.6,12.9-16.6,4.4,8.1,8.7,15.9,13.2,24.2.2.3.4.4.9,1,.3.2.6.4,1,.5M1348.3,203.2c-3.1-13.7-9.5-25.5-19.7-35.1-27.5-25.6-74.8-26.8-104.2-2.7-16.3,13.3-24.8,30.7-26.8,52.4,0,6-.5,12,0,17.9,2.5,24.8,13.2,44.8,35.5,57.3,20,11.2,41.6,12.9,63.9,9.5,13.8-2.1,26.6-6.9,35.9-17.7,4.3-5.1,7.3-11.4,10.4-17.4,1.4-2.8,1-6.5-2.6-7.4-1.7-.4-4.2,1.4-6,2.6-1.2.8-1.7,2.4-2.6,3.6-10.7,14.3-30.9,21.2-47.5,17.2-21.3-5.2-33-28.8-34.5-49.9,18.7-1.5,37.4-3,56.1-4.5,12.9-1,25.9-2.1,38.8-3,3.1-.2,4.7-1.8,4.5-4.7-.2-5.8-.8-11.6-1.1-18.1M1541.4,399.6c-1.8-5-3.6-10-5.4-15-4,8-6.9,15.7-9.4,23.6-1.5,4.9-4.2,7.8-9.2,9.3-8,2.4-15.9,5.5-23.8,8.2,6.4,3.5,12.8,6.3,19.4,7.9,8.3,2,13.1,6.5,15.1,14.9,1.5,6.7,4.4,13,6.7,19.5.4,0,.9,0,1.3,0,2.7-7.6,5.7-15,7.9-22.7,1.6-5.8,5-8.8,10.6-10.5,7.7-2.3,15.3-5.2,22.9-7.9-5.1-3-10.3-4.8-15.4-6.6-18.7-6.8-13.9-2.4-20.7-20.9M1106,409.2h11.2c1.1-7,1-7.1-4.8-7.1-29.5,0-58.9,0-88.4,0-6,0-6.3.4-4.7,7.1,28.5,0,57.1,0,86.7,0Z"/>
  <path class="cls-36" d="M1074.5,505.9c13.6,1.9,27.2,3.8,40.8,5.6,2.4.3,4.9.3,8.2.4,4.2.4,7.6.7,11.2,1.5,6.7.8,13.2,1.3,19.7,1.7,0,0,0,0,0,.3,0,1.4.1,2.5.1,4,0,9.3,0,18.1-.1,26.9,0,3.3.8,4.9,4.4,4.8,5.6-.2,11.3-.2,16.9,0,2.8,0,3.9-.9,3.8-3.7-.2-9.5-.1-18.9-.1-28.8,0-1.4,0-2.5,0-3.5,0,0,.1,0,.1,0,14.3-.9,28.3-3.4,41.9-8.4,21.2-7.8,43.4-9.3,65.5-6.9,34.7,3.7,69.2,8.8,103.9,13,22,2.7,44.2,4.2,66.2,1.2,10.6-1.5,21.2-4.1,31.4-7.5,21.4-7.1,43.4-8.7,65.5-6.8,22,1.9,43.9,5,66.3,7.6,12.3,1.7,24.3,3.4,36.7,5.4.5.2.5.5.4,1-.4,6.9-.7,13.3-1.1,19.7-.1,2.3.4,3.7,3.2,3.8,14.2.6,28.4,1.1,42.5,2,4.8.3,6.3-1.9,6.3-6,0-6-.1-11.9,0-18,0,0,.2-.2.2-.2,15.6.2,30.7-2.8,45.7-7.7,0,12,.8,23.9-.2,35.6-1,11.6-11.5,20.3-23.2,21.1-2,.1-4,.1-6,.1-514.2,0-1028.5,0-1542.7,0-19.6,0-29.5-9.9-29.5-29.5,0-7.7.2-15.3-.1-23-.2-3.7,1.2-5.2,4.6-6.3,13.8-4.2,28-6,42.3-6.2,26.6-.4,52.8,3.7,79,7.5,4.8.7,9.5,1.4,14.7,2.7-.4,6.4-1.1,12.3-1.8,18.3,29.2,4.6,57.7,9,87.2,13.6,1.3-8.8,2.6-17.4,3.9-26,0,0,.2-.2.2-.2,14.3-1.4,28-4.8,41.7-9.4,19.6-6.7,40.2-8,60.6-5.8,34.8,3.7,69.5,8.8,104.3,13,21.7,2.6,43.4,3.9,65.7,1.7.5,0,.6,0,.6.4,0,1.3,0,2.2,0,3.5.7,7.1,1.5,13.8,2.4,21.1,17.4-1.8,34.4-3.6,51.5-5.4-.8-6-1.4-11.1-2-16.6-.5-5.4-1-10.4-1.5-15.4,12.5-.9,25.1-1.9,38.2-2.8.5,0,.7.1.8.5,1.4,2.7,2.5,5.4,4.3,7.5,10.6,13.2,34.2,10.6,44.6-3.1.2,0,.6-.2.6-.2,18.4,2.6,36.8,5.3,55.7,8,.5.1.7.2.8.6,1.1,2,2.1,3.8,3.4,5.8,2.9-1.9,5.2-3.5,7.8-5.1.4,0,.7-.1.9-.2,23.4,3,46.7,3.8,70-.5,6.8-1.3,13.6-3.1,20.1-5.4,13.6-4.9,27.7-6.9,42.4-8,8.5,0,16.5.3,25.2.6.6.2.9.4,1,.7,1.8,2.4,3.2,4.7,5.2,6.3,9.4,7.6,20.6,7.6,31.6,5.7,5.3-.9,10.2-4.1,15.5-6.2.2,0,.6-.2.6-.2Z"/>
  <path class="cls-48" d="M1601.6,192.9c-21.6-12.4-44.2-20.1-69.1-19.8-24.7.3-47.2,8.3-67,22.7-8.5,6.2-16,5.8-24.5,2.4-17.7-7-28.7-25.7-26.3-44.9,2.3-18.9,17.8-34.4,36.9-36.4,5.5-.6,8.2-2.3,10.4-7.9,11.6-29.6,40.6-45.7,69.3-42.4,33.3,3.8,57.1,28.1,60.5,60,.3,2.6.5,5.3.9,8.3,1-.4,1.9-.7,2.7-1.2,13.6-8.2,27.4-8.3,40.4.4,13.1,8.8,18.6,21.8,15.6,37.3-3,15.5-13,25.1-28.2,29-4.5,1.2-8.8,1.1-12.7-2.1-2.5-2.1-5.6-3.5-8.8-5.4Z"/>
  <path class="cls-13" d="M167.5,263c0-13.2-.2-26.3-.2-39.5,0-27.8,0-55.7,0-83.5,0-9.7-1.1-11.1-10.5-13.2-3.1-.7-6.4-.7-9.3-1.7-1.6-.5-2.7-2.5-4-3.8,1.5-.9,3-2.4,4.5-2.5,9.5-.2,19-.1,28.5-.1,20.2,0,40.3,0,60.5,0,1.2,0,2.4-.3,3.5,0,1.8.6,3.4,1.7,5,2.6-1.6,1.3-2.9,3.3-4.7,3.9-3.9,1.3-8.1,1.7-12.1,2.7-3.5.9-5.3,3.4-5.3,7,0,26.3,0,52.6,0,79,0,.2.3.5.8,1.1,1.2-1.1,2.4-2.1,3.5-3.3,19.9-20.6,39.5-41.5,59.8-61.8,9.5-9.5,5.3-17.3-3.9-22.1-2.1-1.1-4.5-1.5-6.4-2.8-1.4-.9-2.3-2.7-3.4-4.1,1.5-.7,2.9-2.1,4.4-2.1,9.5-.2,19-.1,28.5-.1,12.2,0,24.3,0,36.5.1,1.8,0,3.7,1.3,5.5,2.1-1.4,1.5-2.6,3.9-4.3,4.4-15,4.7-27.4,13.3-38.3,24.5-12.9,13.3-26.1,26.3-39.1,39.4-1.1,1.2-2.2,2.4-3.5,3.7,5.8,6.5,11.5,12.8,17.1,19.7-8.9,14.4-21,23.8-36.8,28.4-.9.3-1.5,1.4-2.2,2.1-3.9-4.7-7.7-9.4-11.8-14.4-4.6,2.1-7.9,4.3-7.4,10.5.6,7.2.1,14.6-.4,22.3-18.4.8-36.3,1.1-54.2,1.4Z"/>
  <path class="cls-48" d="M557.4,248c1.2-18.3,2.3-36.5,3.5-54.8,1.2-18.1,2.3-36.2,3.8-54.3.4-5.3-2-7.2-6.6-7.8-2.1-.3-4.5,0-6.4-.8-1.7-.7-2.8-2.7-4.1-4.1,1.6-1.4,3.1-3.7,4.9-4,7.2-1.4,14.5-2,21.7-3.1,12.3-2,24.6-4.2,36.8-6.5,8.2-1.5,8.7-.9,8,7.2-1.8,24.1-3.4,48.1-5.1,72.2,0,.2.3.5,0,0,8.5-2.4,16.5-5.6,24.9-7,32.8-5.6,61.9,13,70.6,45.1,2.4,8.7,2.8,18,3.6,27.5-11.3,6.7-22.9,6.9-34.5,4-5.9-1.5-11.3-5-17-8.1-1.5-12.7-3.9-24.8-10.4-35.5-5.3-8.8-12.6-14.7-23.5-14-8.7.6-13,6.5-15.9,13.9-.7,1.8-.9,3.8-1.1,5.8-.6,6.8-1.1,13.6-2,20.4-8.2,7.4-17.8,9.3-28.1,9.9-8.5.5-15.7-2.8-23-6.1Z"/>
  <path class="cls-48" d="M378.5,27.9c.5.3.6.3.8.4,5.9,3.5,16.3,6.8,23.2,7.3,12.5.9,21.4,10.7,20.9,23.5-.1,2.9.4,4.2,3.4,5.3,10.9,4,17.1,14.9,15.2,25.7-2.1,11.9-11.2,19.9-23.3,19.9-37.7.1-75.3.1-113,0-16,0-23.9-6.7-25.7-21.2-1.4-11.1,6.9-21.1,20.3-24.7.3,0,.7-.2,1-.2,9.7.8,12.8-5.1,15.9-13.3,7.2-18.7,23-29.5,41-28.4,6.8.4,13.4,3.5,20.4,5.5Z"/>
  <path class="cls-29" d="M720.6,283c1-29.1,18.3-56.8,49.5-67,28.9-9.4,56.2-6.4,80.3,13.7.2.2.6.2,1.3.5,4-2.8,8.2-5.8,12.5-8.6,2.5-1.7,2.5-3.4,1.1-5.8-6.6-11.5-8.7-23.9-7.1-37.8-4.3-1-8.8-2-13.2-3-1.6-.4-3.3-.5-4.9-1-3.2-1-4.9-3.7-3.5-6.5.9-1.8,4.1-3.8,6-3.6,4.6.5,9,2.2,13.4,3.7,3.2,1.1,5,.5,6.4-3,4.4-11,11.7-19.7,21.6-26.1,2.8-1.8,3.4-3.5,1.8-6.4-2-3.5-3.7-7.1-5.6-10.6-1.9-3.5-2.5-7,1.6-8.9,3.9-1.8,6.6.4,8,4.3,1.5,3.9,3.2,7.7,4.6,11.6,1.1,3,2.8,3.5,5.8,2.7,11.8-3.5,23.6-3.1,35.3.5,1.2.4,3.8-.8,4.5-2,2.2-3.9,3.7-8.1,5.6-12.2,1.6-3.5,4.1-5.6,7.9-3.6,3.8,1.9,3.5,5.2,1.7,8.6-1.9,3.5-3.8,7-5.9,10.4-1.9,3.1-1.5,5.1,1.7,7.3,8.3,5.7,14.6,13.2,19.2,24-1.8-1.1-2.6-1.4-2.8-1.9-2.8-5.3-7.2-7.3-13.2-7.2-1.9,0-4-1.7-5.8-2.9-1.8-1.2-3.4-2.6-5.7-4.4-.3.6-.5,1-.6,1.5-2,8.8-8,12.2-16.5,13.5-9.6,1.5-19.1,4.3-29.3,6.7,3.2-8.7-2.3-14.8-4.4-22.4-9.5,5.8-15.7,13.5-19.9,23.7,3.7.9,7,1.6,10.4,2.4-1.7,3.6-3.3,7-5.1,10.7-2.2-.5-4.8-1.1-7.8-1.8-1.3,10.7.6,20.4,6.4,29.9,4-3.5,8.4-6.3,11.2-10.2,2.6-3.6,5.2-3.9,8.2-3.1,5.8,13-5.1,16.3-12.8,22.3,2.5,2.1,4.5,4.7,7.1,5.7,7.8,3,7.6,8.9,6.3,15.8-9.2-2.6-16.1-8.5-23-15.2-4.8,4-9.4,7.8-14.1,11.7,6.6,9.6,11.5,19.3,12.4,30.9-10.3,1.1-20.2,1.7-30,2.6-4.9.4-9.8,1.3-14.7,1.5-.7-13.4-4.6-25.3-12.6-35.6-4.2-5.4-8.9-10.4-16.7-10.2-11.6.3-20,6.3-22.5,18.1-2.3,10.8-2.7,22-4.4,33.1-2.8,0-5.1,0-7.4.2-14.1,1.3-28.1,2.6-42.2,3.9M913.4,158.9c8.7,3.2,13.6-3,18.7-16.5-9.9-3.3-19.8-3.5-31.1.2,4.2,5.8,7.9,10.9,12.4,16.4Z"/>
  <path class="cls-28" d="M529.7,283.9c2.9,17.9,5.8,35.8,8.8,53.6.6,3.4,1.2,6.9,1.9,10.3.9,4.3,3.6,5.8,7.8,4.7,2.6-.7,5.1-1.8,7.7-2.2,1.7-.2,4.9.7,4.9,1.1,0,2.2-.6,4.5-1.3,6.6-.2.6-1.4.9-2.1,1.2-19.3,8.5-38.6,17-57.9,25.6-3.9,1.7-5.5.2-6.5-3.3-1.2-3.9-2.5-7.8-3.6-11.4-6.1,4.9-11.6,10.3-17.9,14.3-14,8.8-29.6,12-46,10.1-15.2-1.8-24.9-11.3-29.5-25.1-3.8-11.3-5.8-23.2-8.3-34.9-1.1-4.9-1.5-9.9-1.8-15.2,13.2,3.9,25.7,4.5,37.6-2.9,4.1-2.6,8-5.6,12-8.5,2.4,12.6,4,25.3,7.3,37.6,5.1,18.9,21.2,23.4,36.5,10.9,4.7-3.8,7.1-7.7,5.7-14.5-3-14.6-4.9-29.5-6.7-44.7,10.8,2,21.3,2.9,31.1-1.6,7.1-3.3,13.7-7.9,20.5-11.9Z"/>
  <path class="cls-45" d="M557.3,248.4c7.4,2.9,14.7,6.2,23.1,5.7,10.3-.6,19.9-2.5,28.1-9.5-.2,12.2-1.1,24-1.2,35.8,0,11.5,3.5,22,11.1,30.8,11.1,13,31.4,14.1,38.3-6.8,1.1-3.5,2.5-7,2.7-10.6.9-13.3,1.4-26.5,2.1-39.8,5.6,2.6,11,6.2,16.9,7.7,11.6,2.9,23.3,2.6,34.5-3.6.3,23.1-4.5,44.8-20.4,62.4-23.2,25.6-65.4,26-91,1.2-3.3-3.2-5.7-3.7-9.9-2-10.9,4.4-22.1,8.2-33.2,12.2-6.1,2.2-7.2,1.5-6.8-4.8,1-16.1,2.2-32.2,3.4-48.3.7-10,1.5-19.9,2.4-30.3Z"/>
  <path class="cls-45" d="M720.6,283.5c14.2-1.8,28.2-3.1,42.3-4.3,2.3-.2,4.6-.1,7.6.2,1.7,1.1,2.9,2.7,3.9,2.6,16.1-1.3,32.1-2.8,48.2-4.5,1.5-.2,2.7-2.2,4.1-3.4,4.9-.6,9.7-1.5,14.6-1.9,9.8-.8,19.7-1.4,30-2.2.7,4.9,1.4,9.9,1,14.8-.1,1.5-2.7,3.9-4.4,4.1-21.4,1.9-42.8,3.5-64.2,5.2-10.3.8-20.5,1.6-31.3,2.4,3.2,18.4,8.1,35.7,25.1,45.8,19,11.3,44.6,4.9,58.2-13.7.8-1.1,1.3-2.6,2.4-3.2,1.8-1.1,4.7-2.8,5.7-2.1,1.6,1.1,3.3,4.5,2.6,5.9-3,6.4-6,13.1-10.5,18.4-9.3,11.1-22.3,15.8-36.3,17.9-21.9,3.2-43.2,1.6-63-9.3-20.4-11.3-31.4-29.2-35-51.8-1.1-6.7-.8-13.6-1-20.9Z"/>
  <path class="cls-28" d="M241.5,243.5c.6-1,1.2-2.2,2.1-2.4,15.8-4.6,27.9-14,36.9-28.1,16.6,17.4,31,36.8,43.6,57.5,8.6,14.2,16.3,29,23.7,43.9,3.1,6.2,7.4,9.5,13.8,10.8,3.1.6,6.3.9,9.3,2,1.3.5,2,2.5,3,3.8-1.2.8-2.3,2.4-3.6,2.4-8.2.2-16.3.1-24.5.1-23.8,0-47.7,0-71.5,0-1.3,0-2.8.3-4-.1-1.3-.5-3.3-1.6-3.4-2.6,0-1.2,1.3-3.1,2.4-3.6,2.8-1.1,5.8-1.5,8.7-2.1,6.4-1.3,7.2-2.7,5.2-8.9-5.8-17.8-14.3-34.4-25-49.8-5.3-7.6-11-15-16.7-22.9Z"/>
  <path class="cls-48" d="M906.6,246c0-16-.1-32-.2-47.9,0-8.7-.9-9.4-9.8-9.9-3-.2-7.5,1.5-8.1-3.4-.6-5.2,4.2-4.7,7.3-5.5,18.9-4.6,37.8-9,56.7-13.5,5.4-1.3,6.2-.8,6.3,4.7.1,3.8,0,7.5,0,11.8,5.4-3.6,10-7.2,15-9.8,12.2-6.5,25.2-10.1,38.9-6.1,16.4,4.8,25.1,24.3,18.4,40-2.9,6.8-9.7,10.3-18.6,9.5-8.4-.7-11.5-3.5-13.6-11.9-3.1-12.4-7.2-15.6-18.9-14.8-11.7.8-20,7.7-20.6,18.5-.7,12.8-.5,25.6-1.1,39-2.9,1.9-5.3,3.5-7.9,4.4-15.5,5.7-30.1,3.1-44-5Z"/>
  <path class="cls-48" d="M1457,262c.5-13,3.3-25.4,9.7-36.8,9.4-16.7,23.5-27.9,41.8-33.6,20.8-6.5,41.5-6.4,61.4,3.1,23.6,11.3,36.8,30.4,39.1,57-10.4,3.7-20.4,7-30.8,10.3-1.5.1-2.6.2-4.1.2-1.8,0-3.2,0-4.9,0-1.5,0-2.5,0-4,0-35.8,0-71.2,0-106.8,0-.2,0-.7,0-.8,0-.1-.1-.4,0-.4,0M1554.8,220.3c-1.7-2.5-3.1-5.1-5-7.4-10.4-12.6-27.9-11.8-35.3,1.8-7.4,13.5-7,28.3-6.7,42.9.9.3,1.2.5,1.5.5,16.7-1.5,33.4-2.9,50.2-4.4,3.3-.3,4-2.4,3.7-5.3-.7-9.7-3.2-19-8.4-28.1Z"/>
  <path class="cls-48" d="M294.2,508.8c1.8-11.3,3.6-22.7,5.4-34,1.8-11.2,3.6-22.3,5.5-34.3,28.9,4.5,57.5,8.9,86.5,13.5-3.1,20.4-6.1,40.2-9,60.5,0,.4-.1.6-.6.6-5.2,0-9.8.1-14.5,0-11.6-.3-23.2-.2-34.7-1.2-12.9-1.1-25.8-3.2-38.7-4.9Z"/>
  <path class="cls-52" d="M167.4,263.5c18-.8,35.9-1.1,54.2-1.4.5,16.5.6,33,.7,49.5,0,10.5,2.2,13,12.8,14.4,2.1.3,4.5.2,6.4,1,1.6.7,2.7,2.6,4,3.9-1.6.8-3.1,2.3-4.7,2.4-7.7.3-15.3.1-23,.1-22.2,0-44.3,0-66.5,0-1.2,0-2.5.3-3.5,0-1.6-.6-2.9-1.8-4.3-2.7,1.2-1.3,2.2-3.2,3.7-3.6,4-1.1,8.2-1.3,12.2-2.3,6.3-1.6,7.8-3.6,7.9-10.2,0-16.8,0-33.6.2-50.9Z"/>
  <path class="cls-13" d="M435.4,307.6c-4,3.3-7.9,6.3-12,8.9-11.9,7.4-24.4,6.8-37.6,2.5-2.7-13.9-5-27.8-7.3-41.8-.2-1.3-.4-2.6-.7-3.9-1.8-9.8-3.7-11.5-13.8-11.7-.8,0-1.8.3-2.5,0-1.8-1-3.4-2.3-5.1-3.4,1.5-1.1,2.9-3,4.5-3.3,20-3.4,40-6.5,60-9.7,3.8-.6,5,1.1,5.5,4.4,2.9,19.2,6,38.4,9,58Z"/>
  <path class="cls-13" d="M529.8,283.5c-6.8,4.4-13.4,9-20.5,12.3-9.9,4.6-20.3,3.6-31.1,1.2-2.5-13.1-4.6-26.2-6.7-39.4-1.2-8-4-10.5-12.2-10.8-1.7,0-3.5.4-4.9-.2-1.6-.6-2.9-2.1-4.3-3.2,1.3-1.2,2.4-3.1,3.9-3.4,12.6-2.2,25.2-4.1,37.9-6.1,8-1.3,16.1-2.4,24.1-3.9,4-.7,5.9.7,6.5,4.6,2.4,16.1,4.9,32.2,7.4,48.7Z"/>
  <path class="cls-12" d="M1691.8,377c-16.6.5-32.7-1.3-48.4-6.1-2.4-.7-4.7-1.8-7.1-2.3-9.4-1.6-11.5-8-11.9-16.4-.5-10.3-2.2-20.5-3.1-30.7-.1-1.7,1.1-3.5,1.8-5.3,1.8,1.1,4.3,1.8,5.2,3.4,4.8,8.1,8.4,17.1,13.9,24.6,10.9,14.9,25.9,20.8,44.2,16.9,13.7-2.9,18.7-17.9,8.8-27.9-5-5-11.8-8.5-18.2-11.8-12-6.1-24.3-11.5-36.4-17.2-.7-.3-1.3-1-1.8-1.8.7-.3,1.2-.4,1.7-.2,26,10,52.4,10.3,79.2,3.8,4.3-1.1,8.5-2.7,12.7-3.6-4,7.8-8.1,15.2-12.1,22.6-9.3,17.2-18.6,34.4-27.8,51.6,0,.2-.2.4-.6.5Z"/>
  <path class="cls-48" d="M1356.5,237c18.8-8.4,33.2-21.6,42.8-40,1.1-2.2,1.6-5,3.2-6.7,1.7-1.6,4.4-2.8,6.7-2.8,1.1,0,3,3.3,3.1,5.1.3,13.8.2,27.6.2,41.4,0,1.8,0,3.6,0,5.8,10.1,0,19.7.3,29.3-.1,5.3-.2,6.1,2.4,6,6.6,0,4.1-.5,7-5.9,6.7-9.4-.4-18.9-.1-29.2-.1,0,2.9,0,5.5,0,8.5,0,.4,0,.4-.5.4-17.8,0-35.2,0-52.6,0,0,0,0,0,.1-.4.1-2.1,0-3.7.2-5.3.3-2.6-1-3.5-3.3-3.3,0,0,0,0,0-.4,0-5.5,0-10.6,0-15.6,0,0,0,0,0,0Z"/>
  <path class="cls-29" d="M1622.5,262c1.7-16.2,10.9-27,25-34.1,14.3-7.3,29.8-7.5,45.3-6.4,10.9.8,21.8,2.4,32.7,3.4,3.4.3,7,0,10.3-.8,3.4-.8,5.1,0,5.5,3.5,1.4,13.2,2.8,26.4,4.1,39.6.4,4.1-1,4.9-6.5,3.8-.3,0-.3,0-.4-.3-.4-.5-.7-.6-1-.8,0,0,0,0,.1-.3-.3-.8-.7-1.3-1.1-1.7,0,0,0,0,0-.3-3-5.5-5.6-11-9.3-15.6-11.6-14.8-27-20.5-45.5-17-10.2,1.9-15.4,9.6-13.3,19.3.6,2.6,2.2,5,3.4,7.7h-49.5s0,0,0,0Z"/>
  <path class="cls-2" d="M648.6,404c-8,24.9-19.1,47.7-43.2,61.1-12,6.7-25.1,8.7-38.6,5.8-10.4-2.2-17.5-9.7-18.4-19.1-1-10.7,3.6-19.4,12.5-23.3,7.6-3.3,16.1-.8,20.2,5.9,3.7,6.2,2.3,14.4-3.3,19-6,4.9-14.8,4.2-20.8-1.7-.3-.3-.5-.8-1.1-1.6-.4,7.6,5.2,13,13.5,14,12.5,1.4,21.3-4.6,28.5-14,8.7-11.4,13.9-24.5,18.5-37.9,1-2.8,1.7-5.7,3.2-8.7,4.2,1.4,7.9,4.4,11.6,4.3,5.9-.2,11.7-2.3,17.5-3.7Z"/>
  <path class="cls-26" d="M657.6,424v-16.9c2.2,0,4,0,5.8,0,27,0,54,0,81,0,3.3,0,6.7-.2,9.9-.9,8.7-2,12-6.8,11-16.6-.8,1.2-1.3,1.8-1.7,2.6-3.8,7.7-11.6,10.7-19.8,7.6-6.8-2.5-10.7-10-8.8-17,2-7.7,9.3-12.3,17.7-11.2,13.3,1.9,22.5,13.3,21.7,27.2-.1,1.8-.4,3.6-1.1,6-2.5,2.2-4.6,3.9-6.6,5.6-12.1,10.2-26.1,15.8-41.9,15.6-22.4-.3-44.8-1.3-67.2-1.9Z"/>
  <path class="cls-1" d="M648.9,403.8c-6.1,1.6-11.9,3.7-17.8,3.9-3.6.1-7.4-2.8-11.3-4.5,1.6-8.2,3.4-16.2,5.5-24.9-11.7,0-22.8,0-33.8.1-1.1,0-2.4,1.5-3.3,2.6-6.3,7.3-12.5,14.6-19.5,22-6.3-.3-12.3,1.6-17.2-2.9,5.6-14.9,11.2-29.8,16.9-44.6.5-1.2,2.1-3.1,2.9-2.9,9.8,1.6,19.5,3.5,30,5.4-2.2,4.6-4.1,8.6-6.4,13.5h63.2c-3.2,11.4-6,21.8-9.1,32.4Z"/>
  <path class="cls-3" d="M1692.9,376.4c8.8-17.1,18.1-34.3,27.4-51.5,4-7.4,8-14.9,12.3-22.9,1.7-3.4,3.1-6.1,4.5-8.9,0,0,0,0,0,0,14.2,10.8,18.7,25.6,17.2,42.7-1.7,19.8-12.7,32.3-33.4,36.9-9,2-18.4,2.4-28.1,3.6Z"/>
  <path class="cls-28" d="M906.5,246.5c14,7.7,28.6,10.3,44.1,4.6,2.6-1,5-2.5,7.8-4,.4,4.5.5,9.2.3,14.4-19.5,4.4-28,18.6-22.5,37.4,1.6,5.5,3,11.2,4.5,16.7-14.8,0-29.6-.2-44.4-.2-1.5,0-3.1.3-4.5-.1-1.6-.5-2.9-1.8-4.4-2.7,1.2-1.3,2.2-3.3,3.7-3.7,15.2-4.3,15.2-4.2,15.2-20.1,0-14,0-27.9.1-42.4Z"/>
  <path class="cls-50" d="M371.4,207.9c-2.6,7.5-5.2,14.7-7.7,21.9-.4,0-.8,0-1.2.1-1.6-4.6-3.3-9.1-4.9-13.7-7.6-20.8-2.3-15.3-22.4-22.7-4.6-1.7-9.2-3.3-13.8-6.2,5.7-2,11.2-4.7,17.1-6,10.3-2.2,16.1-8,18.2-18.3,1.2-5.8,3.8-11.3,6.1-17.8,1,1.7,1.6,2.5,2,3.5,2.7,7.5,5.4,15,7.9,22.6,1.2,3.6,3.3,5.9,7,7.1,8.5,2.8,16.8,5.9,25.2,8.8,0,.5,0,.9.1,1.4-3.5,1.2-7,2.4-10.5,3.6-3.9,1.4-7.8,3.1-11.8,4-6.2,1.5-9.9,5-11.2,11.6Z"/>
  <path class="cls-29" d="M1722.9,181.5c-2.3-6.6-4.6-12.9-6.6-19.2-1.2-3.6-3.4-5.9-7-7-7-2.3-13.8-4.7-20.7-7.2-1.5-.5-2.9-1.2-4.4-3,5.9-2.1,11.6-4.7,17.6-6.1,9.7-2.1,15.2-7.4,17.3-17.2,1.3-6.1,4-11.8,6.5-18.8,1,2.1,1.7,3.1,2.1,4.2,2.6,7.4,5.3,14.7,7.7,22.1,1.2,3.7,3.4,5.8,7.1,7,7,2.2,13.8,4.8,20.7,7.2,1.5.5,3,1.2,5.9,2.4-7.5,2.7-13.5,5.4-19.9,6.9-9.1,2.1-14.3,7-16.4,16.3-1.4,6.4-4.2,12.4-7.5,18.6-.7-2-1.4-3.9-2.3-6.2Z"/>
  <path class="cls-38" d="M294,508.8c13.1,1.7,25.9,3.8,38.8,4.9,11.5,1,23.1.9,34.7,1.2,4.6.1,9.3,0,14.4,0-.8,8.6-2.1,17.2-3.4,26-29.4-4.6-57.9-9-87.2-13.6.7-6,1.4-11.9,2.2-18.1,0-.4.3-.6.5-.6Z"/>
  <path class="cls-48" d="M1028.5,262c0-3.5-.3-6.9-.1-10.4.2-4.5-2.2-6.3-6.3-6.6-1.7-.1-3.3,0-5-.2-2.9-.2-6.5.2-6.7-4.1-.2-3.9,3-4.2,5.8-4.8,12.1-2.7,24.3-5.3,36.4-8.1,8.1-1.9,16-4.1,24.5-5.9.5.5.5.8.5,1.5,0,13.1,0,25.7,0,38.7-16.5,0-32.3,0-48.3,0-.4,0-.6-.1-.8-.1,0,0,0,0,0,0Z"/>
  <path class="cls-26" d="M785.6,458v-57c10.2,0,19.3-.1,28.4.2.8,0,2.2,3,2.1,4.5-1.2,17.2-2.6,34.4-4.6,52-9.1,3.8-17.5,5-25.9.3Z"/>
  <path class="cls-17" d="M885.8,402.9c8,7.9,17.6,7.5,28.4,5.1,15,.8,28.5-1.4,41.6-6.8,3.1-1.3,6.9-.8,10.5-.9.2.5.4.8.7,1.4.2,1.4.3,2.4.4,3.4-2.9.4-4.8-3.3-8.7-1-4.9,3-7.4,5.9-7,12.1.6,10.4.2,20.9.2,31.6h-27.5v-29.3c-10-.6-19.3-.4-28.4-1.8-8.6-1.3-15.3-6.3-18.2-15.2,2.9.3,5.4.9,7.9,1.5Z"/>
  <path class="cls-17" d="M863,512.7c-.5.3-.7.4-1.6.4-4-.3-7.4-.7-10.8-1,0,0-.2-.1-.3-.2-7.9-16.3-13.4-33.4-16.3-51.5,7.1,1.1,13.7,1.3,20.2-1.4,9.6,13.4,19.3,26.8,29.3,40.8-6.4,4-13.3,8.3-20.5,12.9Z"/>
  <path class="cls-13" d="M1657.6,513.1s0-.4,0-.6c.5-9.1,1.1-18,1.6-27.2,17.1.9,33.6,1.7,50.7,2.5-.5,9-.9,17.6-1.3,26.6,0,.4-.1.6-.7.6-17.1-.6-33.7-1.3-50.3-1.9Z"/>
  <path class="cls-40" d="M940.7,315.8c-1.6-5.7-3-11.3-4.6-16.9-5.5-18.8,3-33,22.6-36.9.4,0,.6-.2.7,0,0,12.4-.2,24.7,0,37,0,5.1,3.1,7.7,9.5,9,1.5.3,3.2,0,4.4.7,1.8,1,3.2,2.7,4.8,4-1.8,1-3.5,2.9-5.4,3-9,.3-18,.1-27,.1-1.2,0-2.3,0-4,.2-.7.1-.9,0-1.1-.2Z"/>
  <path class="cls-26" d="M655.4,514.2c-.7-8.6-1.4-17.1-2.1-26.1,16.8-1.7,33.3-3.4,50.4-5.1.6,6.1,1.3,12,1.5,18.4-2.3.9-4.3,1.2-6.2,1.7-14.4,3.7-28.9,7.5-43.3,11.3,0,0-.2,0-.2,0Z"/>
  <path class="cls-50" d="M1737.5,292.9c-.3.3-.3.3-.7,0-5.5-3.2-10.5-6.7-15.9-9.1-11-4.9-22.4-9.2-33.5-14-4.6-2-8.9-4.5-13.3-6.8,16.1-1.1,31.7-1.4,47.3-.9,4,.1,8,2.8,11.9,4.3,1.1.4,2.1,1,3.2,1.5,0,0,0,0-.3.2.2.8.8,1.3,1.3,1.8,0,0,0,0,0,.3.3.5.7.6,1,.7,0,0,0,0,0,0,2.2,7.3,3.9,14.5-1,21.9Z"/>
  <path class="cls-17" d="M785.5,458.5c8.5,4.3,17,3.1,25.8-.4-1.9,16.3-6.6,31.8-17,45.4-.1.3-.5.4-1.1.4-6-.6-11.5-1.3-16.9-2,0-.1,0-.4,0-.4,6-8.5,6.4-18.6,7.9-28.3.7-4.7.8-9.5,1.3-14.8Z"/>
  <path class="cls-14" d="M657.5,424.4c22.5.2,44.9,1.1,67.3,1.5,15.8.2,29.8-5.4,41.9-15.6,2-1.7,4.1-3.3,6.5-5.2-2.2,15.8-14.4,27-32.5,27.5-27.2.7-54.5.3-81.7.3-.3,0-.6-.2-1.5-.6,0-2.3,0-4.9,0-8Z"/>
  <path class="cls-33" d="M885.7,402.5c-2.4-.3-4.9-.9-7.8-1.5-6.1-15.7,6.4-32.5,22.3-30.3,7.6,1.1,13,6.7,13.3,13.8.3,7.3-4.5,13.7-11.5,15.5-7.7,2-14.2-1.2-17.5-8.5-.2-.4-.4-.7-.8-1.4-2.1,4.7-.2,8.3,2,12.4Z"/>
  <path class="cls-4" d="M951.5,351c-20,0-40,0-59.9.2-2.6,0-4-.5-4-3.6,0-3.1,1.8-3.5,4.2-3.4,9.3,0,18.7,0,28,0,.6,0,1.3-.2,2.6-.3,0-5.6,0-11.2.5-17.3,6-.6,11.4-.4,16.9-.7,3.2-.2,4.7.9,5.5,4,1.4,5.2,3.3,10.3,5,15.8.4,2.1.8,3.7,1.2,5.4,0,0,0,0,0,0Z"/>
  <path class="cls-1" d="M854.2,458.7c-6.4,3-13,2.8-20.1,1.3-1.9-18.5-3.4-37.1-4.7-55.6,0-1.3,1.6-3.4,2.9-3.9,2.6-.9,4,.5,4.7,3.4,3.3,13.4,6.7,26.7,10.6,39.9,1.5,5,4.3,9.7,6.6,14.9Z"/>
  <path class="cls-9" d="M1458.5,262.2c35.4,0,70.7,0,106.6.3-.6,1.2-1.5,2.5-2.7,2.7-11.4,1.7-22.9,4.4-34.3,4.6-23.6.5-47.2-.4-70.8-.8-.1-2.1-.3-4.1-.4-6.6,0-.4,0-.4,0-.4,0,0,.3,0,.5.2.2.3.6.3.6.3l.3-.4Z"/>
  <path class="cls-33" d="M966.3,400c-3.5.3-7.3-.1-10.4,1.1-13.1,5.4-26.7,7.5-41.2,6.7,19.2-7.4,31.7-22,40.9-40.6.4-.3.8-.3,1,0,3.4,11.1,6.6,21.9,9.8,32.7Z"/>
  <path class="cls-2" d="M744.5,499.1c-.3-2-.6-4-.7-6-.4-7.4,3.5-13.9,9.8-16.4,6.2-2.5,13.5-.6,17.5,4.5,4.2,5.4,4,11.9-.9,19.2-.3.4-.8.5-1.2.5-8.3-.6-16.2-1.2-24.2-1.8,0,0-.2,0-.3-.1Z"/>
  <path class="cls-19" d="M655.6,514.6c14.5-4.1,28.9-7.9,43.4-11.6,1.9-.5,3.9-.8,6.2-1.2.4-.1.6,0,.7,0,.6,5.1,1.1,10.1,1.2,15.5-17.4.4-34.4.4-51.3.4,0-.9,0-1.8,0-3.1Z"/>
  <path class="cls-15" d="M879.1,433.1c-4.2-6.2-8.3-12.3-12.5-18.5,2-3.4,4.4-3.9,8.2-2,7.6,3.8,14.9,8,20.8,15.1-2.1,1.8-4,3.6-6.8,5.3-3.8,0-6.7.1-9.7.1Z"/>
  <path class="cls-53" d="M857.5,433c-3.2-4.4-6.5-8.8-9.5-13.3-.7-1.1-1-3.4-.4-4.1,1-1,3.6-2.1,4.5-1.5,7.2,4.3,14.3,9,21.2,13.7,2.9,2,.8,3.6-1.8,5.1-5.2,0-9.6,0-14,0Z"/>
  <path class="cls-43" d="M551.2,400.2c5.1,4.3,11.1,2.4,17.1,2.9-7.1,6.4-14.6,12.9-22.4,19-.9.7-3.7.1-4.8-.8-.8-.7-1.1-3.3-.4-4.4,3.2-5.6,6.8-11,10.5-16.6Z"/>
  <path class="cls-30" d="M967.5,405c-.1-1-.2-2,0-3.4,1-.3,1.7-.2,2.2.1,9.9,5.1,19.8,10.2,29.7,15.3-4.8,9.7-4.7,9.6-13,3.1-5.6-4.3-11.4-8.4-17.5-12.6-.5-.5-.6-.9-.7-1.7-.3-.6-.5-.8-.8-.9,0,0,0,0,0,0Z"/>
  <path class="cls-34" d="M1578.5,261.8c10-3.3,20-6.5,30.3-9.8.4,3,.4,6.1.5,9.5,0,.5.1.5-.3.4-10.5,0-20.5-.1-30.5-.1Z"/>
  <path class="cls-25" d="M977.7,230.9c3.1,2.2,5.2,4.9,3,8.2-1,1.5-4,3-5.7,2.6-3.3-.8-6.4-3-6.3-7.3,0-2.9,0-5.9,0-10,3.4,2.5,6,4.4,8.9,6.5Z"/>
  <path class="cls-11" d="M950.3,345.2c-1.7-5.1-3.5-10.2-4.9-15.5-.8-3.1-2.3-4.1-5.5-4-5.4.3-10.9.1-16.8.2,2.8-.3,6.1-.9,9.4-1.1,3.4-.2,6.9,0,10.8,0q7.2.6,7.2,7.5c0,3.6,0,7.2,0,11.6,0,.9-.1,1.1-.2,1.2Z"/>
  <path class="cls-8" d="M956.3,367s-.4,0-.6,0c-1.4-5.1-2.7-10.2-4.1-15.7-.2-.3-.2-.3.2-.2,3.1,0,5.8,0,8.9,0-1.6,5.8-3.1,10.8-4.5,15.8Z"/>
  <path class="cls-41" d="M857.5,433.4c4.4-.3,8.8-.3,13.6-.3-2.6,2.7-5.6,5.3-9.1,8.3-1.7-2.9-3.1-5.3-4.5-8Z"/>
  <path class="cls-39" d="M769.3,501s.4-.1.6-.2c2,.1,3.8.3,6,.6.4,0,.4.3.1.6-6.1,6.5-11.1,7.4-16.1,3.8,2.9-1.5,6.1-3.2,9.4-4.9Z"/>
  <path class="cls-41" d="M879.2,433.5c2.8-.4,5.8-.4,9.3-.4-1.5,1.9-3.6,3.7-6.1,5.9-1.3-2.2-2.1-3.7-3.1-5.6Z"/>
  <path class="cls-51" d="M1077.7,223c0-.2-.1-.5-.2-1,0-.4,0-.5,0-.6.5,0,1.1.2,1.6.6-.5.6-.9.8-1.4,1.1Z"/>
  <path class="cls-6" d="M596.1,404.4c.3-.5.7-.9,1.2-1.2,0,.5,0,1.1-.4,1.7-.4,0-.5-.2-.8-.5Z"/>
  <path class="cls-6" d="M528.6,396.1c.4-.4.9-.7,1.5-.9-.1.3-.3.7-.6,1.2-.4,0-.5,0-.9-.3Z"/>
  <path class="cls-6" d="M321.4,164.9c-.4.4-.9.7-1.5.9.1-.3.3-.7.6-1.2.4,0,.5,0,.9.3Z"/>
  <path class="cls-17" d="M967.4,405.2c.3-.2.5,0,.9.4-.2,0-.6,0-.9-.4Z"/>
  <path class="cls-44" d="M1348.3,203.9c.4,5.8.9,11.6,1.2,17.4.1,2.9-1.4,4.5-4.5,4.7-12.9.9-25.9,1.9-38.8,3-18.7,1.5-37.4,3-56.1,4.5,1.5,21.2,13.2,44.7,34.5,49.9,16.6,4.1,36.8-2.9,47.5-17.2.9-1.2,1.5-2.8,2.6-3.6,1.8-1.2,4.3-3,6-2.6,3.6.9,4,4.6,2.6,7.4-3.1,6-6.1,12.3-10.4,17.4-9.3,10.8-22.1,15.6-35.9,17.7-22.2,3.4-43.9,1.7-63.9-9.5-22.3-12.5-33-32.5-35.5-57.3-.6-5.9,0-12,.4-18.4,16.8-1.8,33.1-3.1,49.6-4,.4,2,.7,3.7.9,5.3.8.1,1.5.3,2.1.3,15.9-1.5,31.8-3.1,47.6-4.4,4.5-.4,5.5-2.8,5.6-6.6,15.1-1.3,29.7-2.7,44.4-4Z"/>
  <path class="cls-49" d="M1077.6,223.4c.5-.7.9-1,1.6-1.3.8,3,1.5,6.2,1.8,9.3.2,2.1,0,4.2,0,6.2,6.9-3.9,13.1-8.1,19.8-11,12.8-5.5,26.3-7,40.1-4.6,17.8,3.1,30.9,17.1,34.3,37,1.3,7.8,1.7,15.8,2.3,24.5-17.9,10.7-35.3,10.2-52.4-.7-1.1-6.3-1.7-12.8-3.5-19-5.5-19.2-22-23.5-36.5-9.8-2.9,2.7-4.6,5.7-4.3,10,.4,6.3,0,12.6-.4,19.4-8.5,5.4-17.1,7.8-26.7,7.7-9.3-.1-17.4-3-25.3-7.3,0-6.7-.1-13.3,0-20.5.5-.7.7-.9.8-1.2h48.1c0-13.1,0-25.7,0-38.7Z"/>
  <path class="cls-23" d="M1736.5,267.7c-1.1-.1-2.1-.7-3.2-1.1-4-1.5-7.9-4.2-11.9-4.3-15.6-.5-31.2-.2-47.3.9,4.4,2.3,8.7,4.8,13.3,6.8,11.1,4.8,22.5,9,33.5,14,5.4,2.4,10.4,5.9,15.9,9.1-1.1,3-2.5,5.7-4.1,8.8-4.5,1.6-8.7,3.2-13,4.2-26.7,6.6-53.2,6.3-79.2-3.8-.4-.2-1,0-1.9,0-13.6-9.9-17.6-23.6-16.3-39.8,16.6-.4,33-.4,49.6-.4-1.2-2.7-2.9-5.1-3.4-7.7-2.1-9.7,3.1-17.4,13.3-19.3,18.5-3.4,33.9,2.2,45.5,17,3.7,4.7,6.2,10.2,9.3,15.6Z"/>
  <path class="cls-44" d="M1412.5,294c0,15.8.1,31.6.3,47.4,0,4,.3,8,.8,11.9,2,15,13.8,21.6,28.7,16.2,2.8-1,5.2-2.9,8-4,1.7-.6,3.7-.4,5.6-.6-.2,2,.3,4.6-.7,5.9-8.1,10-18.5,16.8-31.2,19.1-14.2,2.6-28.2,1.1-41.4-4.8-13.5-6-21.1-16.8-21.8-31.4-.9-19.6-.7-39.2-.5-59.2,17.8,4,35.1,3.9,52.4-.5Z"/>
  <path class="cls-22" d="M1348.3,203.6c-14.7,1.7-29.3,3.1-44.5,4-1.8-12.2-5.5-23.1-12.8-32.4-4.3-5.5-9.1-10.7-17.1-10.4-11.3.4-19.5,6.2-22.2,17.8-2.3,9.9-2.9,20.3-4.2,30.4-16.3,1.3-32.6,2.6-49.4,4,1.4-20.8,10-38.2,26.2-51.6,29.4-24.1,76.7-22.9,104.2,2.7,10.3,9.6,16.6,21.4,19.7,35.5Z"/>
  <path class="cls-44" d="M1578.1,261.9c10.4,0,20.4,0,30.9,0-1.3,1.1-2.9,2.9-4.7,3-20.9,1.8-41.8,3.4-62.6,5-10.6.8-21.2,1.7-31.7,2.5,1.4,22.7,14.4,49.5,41.9,51.2,17,1,30.5-6.4,40.9-19.7.5-.7.9-1.4,1.4-2,1.7-2.5,3.8-4.5,7-2.6,3.1,1.8,3.1,5,1.8,7.5-3.3,6.1-6.4,12.5-10.9,17.7-9,10.3-21.3,14.9-34.6,17-22.6,3.5-44.5,2-64.8-9.5-21.6-12.1-32.1-31.5-35.2-55.5-.3-2.3-.4-4.6-.4-7.3,23.8,0,47.4.9,70.9.5,11.5-.2,22.9-2.9,34.3-4.6,1.1-.2,2.1-1.5,3.1-2.6,1-.4,2.1-.5,3.6-.2,2.1.2,3.7,0,5.3-.2,1.1,0,2.2-.1,3.7-.2Z"/>
  <path class="cls-44" d="M1125.1,283.3c17.2,10.5,34.6,11,52.5.8.4,1.9.7,4,.7,6.1,0,20.3,0,40.6,0,60.9,0,9.6,1.4,11.3,10.9,13.4,1.3.3,2.9,0,3.9.7,1.5,1.1,2.7,2.8,4,4.2-1.5.9-3.1,2.5-4.6,2.5-17.6.2-35.3.1-52.9.1-8.7,0-17.3.1-26-.1-1.4,0-2.8-1.8-4.2-2.8,1.2-1.3,2.2-3.6,3.5-3.9,10.1-1.8,12.5-1.7,12.5-16.2-.1-21.8-.3-43.6-.3-65.8Z"/>
  <path class="cls-44" d="M1028.5,284.4c8,3.8,16.1,6.7,25.4,6.8,9.6.2,18.2-2.3,26.6-7.2.5,3.9.7,7.8.8,11.8,0,18.7,0,37.3,0,56,0,9.9,1.3,11.3,10.9,13.3,1.5.3,3.2,1,4.3,2,.6.5.8,2.7.3,3.1-1.1,1-2.7,1.8-4.1,1.8-12.2.1-24.3,0-36.5,0-14,0-28,0-42-.1-1.6,0-4.2-1.5-4.6-2.8-.8-3,1.8-3.8,4.3-4.1.5,0,1,0,1.5-.2,11.2-2,13-4.1,13-15.5,0-21.5,0-43,.1-65Z"/>
  <path class="cls-22" d="M1215.2,478.7c17.3-22.6,34.6-45.2,52-67.8,4.1-5.4,8.3-10.7,13.1-17-6.8,0-12.5,0-18.2,0-10.7,0-21.3,0-32,0-5.9,0-5.9,0-5.1-6.7h94.9c-12.4,16.2-24,31.4-36,46.5,0-2.8.2-5.3.7-9.2-17.1,22.5-33.4,44-50.3,66.2-6.5-4.1-12.8-8-19.1-12Z"/>
  <path class="cls-37" d="M1134.5,513c-3.4-.4-6.8-.8-10.6-1.2-2.5-.9-4.6-1.8-6.7-2.7-10.5-4.5-16-14.9-13.5-25.5,2.4-10,12.5-17.3,23.1-16.9,7.6.3,13.1,5.6,13.4,12.8.3,6.8-4.6,12.6-11.4,13.6-7.5,1.1-13.4-2.9-15.3-10.3-.2-.7-.3-1.5-.5-3-3.2,4.5-3.8,8.8-2.2,13.2,1.8,4.9,6,7.1,10.8,7.7,13.2,1.7,24-3.6,33.4-12.4,10.7-10.1,18.1-22.5,24.5-35.5,1.9-3.9,3.7-5.4,8.3-4.2,6.5,1.8,13.2,2.7,20.8,4.1-3.2,6.1-6,11.3-9.2,16.9-.7.6-.8.8-.8,1.2,0,0,0,0-.4,0-4.1,2.5-8.3,4.6-11.3,7.8-4,4.3-7.5,9.2-10.6,14.2-5.3,8.3-13.8,11.9-22.2,16.3-6.7,1.2-13.1,2.5-19.5,3.7Z"/>
  <path class="cls-54" d="M1541.5,400c6.7,18.1,1.9,13.7,20.6,20.5,5.1,1.9,10.2,3.6,15.4,6.6-7.6,2.7-15.2,5.6-22.9,7.9-5.6,1.7-9,4.7-10.6,10.5-2.2,7.7-5.2,15.2-7.9,22.7-.4,0-.9,0-1.3,0-2.3-6.5-5.2-12.8-6.7-19.5-2-8.5-6.8-12.9-15.1-14.9-6.6-1.6-13-4.4-19.4-7.9,7.9-2.8,15.8-5.8,23.8-8.2,5-1.5,7.7-4.4,9.2-9.3,2.4-7.9,5.4-15.6,9.4-23.6,1.8,5,3.6,10,5.5,15.4Z"/>
  <path class="cls-23" d="M956.5,367.4c1.3-5.3,2.7-10.3,4.3-16.2-3.1,0-5.8,0-8.9,0-.8-1.8-1.2-3.5-1.6-5.5,0-.5.1-.7.2-1.1,14.4-.3,28.8-.3,43.9-.3-3.7,17.8-9.9,33.4-20.7,46.7,12,2.7,23.7,5.2,36.7,8.1-4.1,6.8-7.3,12.2-10.8,17.8-10.1-4.8-20-10-29.9-15-.6-.3-1.3-.4-2.3-.5-.7-.2-.9-.4-1.1-1-3.3-11-6.5-21.8-9.9-32.9Z"/>
  <path class="cls-49" d="M1412.6,293.5c-17.4,4.8-34.7,4.9-52.4.5-.4-10.4-.5-20.8-.7-31.6,17.3-.4,34.7-.4,52.5-.4.5,10.3.6,20.7.5,31.5Z"/>
  <path class="cls-37" d="M1063.7,467.9v-25.1c-3.4,0-6.3,0-9.2,0-13.2,0-26.3,0-39.5,0q-6,0-5.2-6.6h118.4v6.4h-36.7c0,8.5,0,16.4-.5,24.9-9.5,4-18.4,3.5-27.4.4Z"/>
  <path class="cls-42" d="M1279.3,483.1c-.3,0-.5-.2-.7-1.1-.8-2.6-1.8-4.6-2.3-6.6-.8-3.2-2.4-6.6,1-9.4,3.5,7.9,7.5,15.3,15.7,19.3,7.8,3.9,15.9,4.8,23.9.5,7.6-4.1,10.6-12.5,7.4-20.7-2.2,5.7-5.5,10-11.6,11.3-6.3,1.3-11.6-.3-15.7-5.2-4-4.7-4.7-10.3-2.3-15.9,2.5-5.9,7.3-8.9,13.6-9.3,12.6-.8,23.3,8.7,24.3,21.4,1.2,14.6-7.8,26.1-21.5,27.4-9.9.9-19.2-.7-27.5-7.7-.6-.7-.9-.9-1.3-1,0,0,.2,0,0-.3-.4-.4-.7-.6-1-.7,0,0,.1,0,0-.3-.4-.4-.7-.6-1-.7,0,0,0,0,0-.3-.4-.4-.7-.6-1.1-.8Z"/>
  <path class="cls-44" d="M1063.6,468.4c9,2.6,18,3.2,27.4-.4,1.3,12.7-1.6,24.3-11,33.5-1.5,1.5-3.4,2.5-5.3,4-.2.3-.6.5-1.2.3-7-1.3-13.5-2.5-19.9-3.7,6.9-5,9.4-12.2,9.8-20.3.2-4.3,0-8.7.2-13.5Z"/>
  <path class="cls-12" d="M1021.5,499.9s-.4-.2-.4-.3c-3.2-8.1-4-16.2.5-24,3.5-6,8.7-9.5,15.8-9.6,6.9-.1,12.9,3.9,14.8,9.6,2,6.1-.3,13.6-5.1,17.1-5.3,3.9-12.3,3.8-18-.3-.7-.5-1.3-.9-3.1-.8,1.2,2.5,2.3,5.1,3.2,8-2.7.3-5.2.3-7.6.3M1026,489.4v.3c-.1,0,0,0,0-.3Z"/>
  <path class="cls-10" d="M1277.3,465.6c-3.4,3.1-1.7,6.5-1,9.7.5,2.1,1.5,4,2.2,6.4-4.3-7.4-8.6-15.3-13.1-23.4-3.9,5-8.4,10.8-12.9,16.6-4.9,6.3-9.8,12.6-14.5,19-2.1,2.8-4.2,3.7-7.6,2.5-7.5-2.6-15-4.8-23.4-7.4,3-3.8,5.4-6.9,8-10.2,6.5,3.7,12.8,7.7,19.3,11.8,16.9-22.2,33.1-43.6,50.3-66.2-.4,3.9-.7,6.5-1,9.4-2.3,3.6-4.4,7-7,10-2.7,3.2-3.8,6.3-2.3,10.4,1.3,3.5,2,7.3,3,11.3Z"/>
  <path class="cls-31" d="M1105.5,409.2c-29.1,0-57.7,0-86.2,0-1.6-6.7-1.3-7.1,4.7-7.1,29.5,0,58.9,0,88.4,0,5.8,0,5.9.1,4.8,7.1-3.7,0-7.4,0-11.7,0Z"/>
  <path class="cls-56" d="M1154.4,509.3c8-4.4,16.6-8,21.8-16.3,3.2-5,6.6-10,10.6-14.2,3-3.2,7.2-5.3,11.3-7.8-4.7,6.9-9.5,14-14.9,20.5-2.4,2.9-3.8,5.4-3.6,9.2.3,4.4,0,8.9.1,13.9,0,.5,0,.5-.6.5-8.6,0-16.6,0-24.6,0,0,0,0,0,0-.4,0-2.1,0-3.7-.1-5.4Z"/>
  <path class="cls-24" d="M1021.6,500.3c2.3-.3,4.8-.3,7.6-.3.6,0,.8,0,1.4.4,7,5.2,13.9,6.5,21.4,2.4.2-.1.5-.3,1.2-.5,6.9,1.1,13.3,2.3,20.1,3.7-4.7,2.3-9.6,5.5-14.9,6.4-11,1.8-22.2,1.8-31.6-5.7-2-1.6-3.4-4-5.2-6.3Z"/>
  <path class="cls-27" d="M1356.2,237.1c.3,4.9.2,9.9.2,15.5-4.2.5-8.5.4-12.8.6-3.9.2-5.1-2.3-5.8-5.5-.7-3.3,1.2-4.8,4-5.7,4.7-1.5,9.3-3.1,14.3-4.8Z"/>
  <path class="cls-18" d="M1051.7,502.6c-7.1,4.3-14,3-20.8-2.1,6.7.4,13.6,1.2,20.8,2.1Z"/>
  <path class="cls-35" d="M1356.4,253.5c2.4-.6,3.6.3,3.4,2.9-.2,1.6,0,3.2-.1,5.3-1.1-.5-2.8-1.2-3.1-2.4-.5-1.6-.1-3.5-.1-5.8Z"/>
  <path class="cls-51" d="M1029.2,262.1c.1.3,0,.6-.5.8-.2,0-.3-.2-.3-.7.2-.2.4-.2.8-.1Z"/>
  <path class="cls-10" d="M1282.4,486.4c.2-.1.6,0,1,.5-.2.1-.6,0-1-.5Z"/>
  <path class="cls-10" d="M1281.4,485.4c.2,0,.6,0,.9.5-.3,0-.6,0-.9-.5Z"/>
  <path class="cls-10" d="M1280.4,484.4c.2,0,.6,0,.9.5-.3,0-.5,0-.9-.5Z"/>
  <path class="cls-10" d="M1279.4,483.3c.2,0,.6,0,1,.5-.2,0-.6,0-1-.5Z"/>
  <path class="cls-56" d="M1198.7,470.9c-.2-.3,0-.5.4-.8.3.3.1.5-.4.8Z"/>
  <path class="cls-38" d="M1657.6,513.5c16.6.2,33.2.9,50.3,1.6.5,6,.6,12,.6,18,0,4.1-1.5,6.3-6.3,6-14.2-.9-28.4-1.5-42.5-2-2.8-.1-3.3-1.5-3.2-3.8.4-6.4.7-12.9,1.1-19.7Z"/>
  <path class="cls-38" d="M655.6,518.2c17-.4,33.9-.4,51.3-.4,1.1,5,1.7,10.1,2.5,16.1-17.1,1.8-34,3.6-51.5,5.4-.8-7.3-1.6-14-2.4-21.1Z"/>
  <path class="cls-16" d="M1179.5,518.9c0,9.5,0,18.9.2,28.4,0,2.8-1.1,3.8-3.8,3.7-5.6-.1-11.3-.2-16.9,0-3.7.1-4.5-1.5-4.4-4.8.2-8.8,0-17.6.6-26.9,8.5-.5,16.5-.5,24.4-.5Z"/>
  <path class="cls-5" d="M768.9,501c-2.9,1.7-6.1,3.4-9,4.9,5,3.6,10,2.7,16.1-3.7,5.7.5,11.2,1.1,17,1.8-9.8,13.7-33.4,16.3-44,3.1-1.7-2.1-2.8-4.8-4.3-7.5,7.9.3,15.8.8,24.1,1.5Z"/>
  <path class="cls-32" d="M1179.5,518.6c-8,.4-16,.4-24.4.4-.5-1-.6-2.1-.6-3.5,8-.4,16.1-.4,24.6-.4.5,1.1.5,2.1.5,3.5Z"/>
  <path class="cls-47" d="M1154,509.3c.4,1.7.5,3.3.5,5.4-6.5,0-13-.5-19.7-1.3,6.2-1.6,12.5-2.8,19.3-4.1Z"/>
  <path class="cls-20" d="M850.7,512.4c3.3,0,6.7.3,10.5.7-1.9,1.7-4.3,3.3-7.2,5.2-1.2-2.1-2.3-3.8-3.4-5.8Z"/>
  <path class="cls-23" d="M661.4,253.6c-.6,13.7-1.1,27-2,40.2-.3,3.6-1.6,7.1-2.7,10.6-6.9,20.9-27.2,19.8-38.3,6.8-7.6-8.9-11.2-19.3-11.1-30.8,0-11.8,1-23.6,1.6-35.9.5-7.2,1-14,1.6-20.8.2-2,.4-4,1.1-5.8,2.9-7.3,7.2-13.3,15.9-13.9,11-.7,18.2,5.2,23.5,14,6.5,10.8,8.9,22.8,10.4,35.5M641.5,260.8c-1-6.7-1.6-13.5-3.1-20.2-1.2-5.3-2.6-10.8-7.9-14.6,0,4.2.2,7.9,0,11.5-.9,14.1-2.4,28.1-2.8,42.2-.2,7.6,2.6,14.6,8.9,20.6,4.5-12.9,5.2-25.7,5-39.5Z"/>
  <path class="cls-57" d="M826.6,273.6c-1.3,1.6-2.5,3.6-4,3.8-16,1.7-32.1,3.2-48.2,4.5-1,0-2.2-1.5-3.5-2.6,1.1-11.4,1.5-22.6,3.8-33.4,2.5-11.9,10.9-17.8,22.5-18.1,7.8-.2,12.5,4.8,16.7,10.2,8,10.3,11.9,22.2,12.6,35.6M801.2,259c-1.3-3.4-2.7-6.9-4-10.3-.7,0-1.4.2-2.1.3-.9,3.6-1.9,7.1-2.8,10.5,3.4-.2,5.8-.4,9-.5Z"/>
  <path class="cls-55" d="M913,158.7c-4.1-5.3-7.8-10.4-12-16.2,11.3-3.7,21.2-3.4,31.1-.2-5.2,13.5-10,19.8-19.1,16.4Z"/>
  <path class="cls-7" d="M1555,220.6c5,8.9,7.5,18.1,8.2,27.8.2,2.9-.5,5-3.7,5.3-16.7,1.5-33.4,3-50.2,4.4-.3,0-.6-.2-1.5-.5-.3-14.6-.7-29.4,6.7-42.9,7.4-13.6,24.9-14.4,35.3-1.8,1.9,2.3,3.4,4.9,5.2,7.7M1529.5,233.6c.7.8,1.4,2.3,2,2.3,2.5-.2,5-.8,8.1-1.4-2.3-3.3-4.5-6.6-7.4-10.8-1.1,3.9-1.9,6.5-2.6,9.9Z"/>
  <path class="cls-21" d="M1574,262.1c-1.2.2-2.9.4-4.5.3,1.3-.3,2.7-.4,4.5-.3Z"/>
  <path class="cls-21" d="M1458.3,262.1c.2,0,0,.4,0,.4,0,0-.4,0-.5-.2,0-.1.4-.3.6-.2Z"/>
  <path class="cls-23" d="M1737.6,269.7c-.6-.2-1.2-.7-1.4-1.4.7.2,1.1.6,1.4,1.4Z"/>
  <path class="cls-23" d="M1738.5,270.8c-.3.2-.7,0-1-.4.4-.2.7,0,1,.4Z"/>
  <path class="cls-26" d="M1247.6,213.3c1.2-10.5,1.8-20.9,4.1-30.8,2.7-11.6,10.8-17.3,22.2-17.8,8-.3,12.8,4.9,17.1,10.4,7.3,9.4,11,20.3,12.4,32.5.4,4.1-.5,6.6-5.1,7-15.9,1.3-31.8,2.9-47.6,4.4-.6,0-1.3-.2-2.1-.3-.3-1.7-.5-3.3-.9-5.3Z"/>
  <path class="cls-46" d="M1026.1,489.5c0,.1-.2.1-.2.1,0,0,.1-.3.2-.1Z"/>
</svg>