<?xml version="1.0" encoding="UTF-8"?>
<svg id="Layer_1" data-name="Layer 1" xmlns="http://www.w3.org/2000/svg" version="1.1" viewBox="0 0 1920 628">
  <defs>
    <style>
      .cls-1 {
        fill: #32478b;
      }

      .cls-1, .cls-2, .cls-3, .cls-4, .cls-5, .cls-6, .cls-7, .cls-8, .cls-9, .cls-10, .cls-11, .cls-12, .cls-13, .cls-14, .cls-15, .cls-16, .cls-17, .cls-18, .cls-19, .cls-20, .cls-21, .cls-22, .cls-23, .cls-24, .cls-25, .cls-26, .cls-27, .cls-28, .cls-29, .cls-30, .cls-31, .cls-32, .cls-33, .cls-34, .cls-35, .cls-36, .cls-37, .cls-38, .cls-39, .cls-40, .cls-41, .cls-42, .cls-43, .cls-44, .cls-45, .cls-46, .cls-47, .cls-48, .cls-49, .cls-50, .cls-51, .cls-52, .cls-53, .cls-54, .cls-55, .cls-56, .cls-57, .cls-58, .cls-59, .cls-60, .cls-61, .cls-62, .cls-63, .cls-64, .cls-65, .cls-66, .cls-67, .cls-68, .cls-69, .cls-70, .cls-71, .cls-72, .cls-73, .cls-74, .cls-75, .cls-76, .cls-77, .cls-78, .cls-79, .cls-80 {
        stroke-width: 0px;
      }

      .cls-2 {
        fill: #e73754;
      }

      .cls-3 {
        fill: #273d85;
      }

      .cls-4 {
        fill: #e63452;
      }

      .cls-5 {
        fill: #2d59cc;
      }

      .cls-6 {
        fill: #e63654;
      }

      .cls-7 {
        fill: #a22143;
      }

      .cls-8 {
        fill: #435694;
      }

      .cls-9 {
        fill: #2d4288;
      }

      .cls-10 {
        fill: #000;
      }

      .cls-11 {
        fill: #34488c;
      }

      .cls-12 {
        fill: #fcfdfe;
      }

      .cls-13 {
        fill: #fbffff;
      }

      .cls-14 {
        fill: #3770e7;
      }

      .cls-15 {
        fill: #f9cad7;
      }

      .cls-16 {
        fill: #cb324e;
      }

      .cls-17 {
        fill: #e7435f;
      }

      .cls-18 {
        fill: #283e85;
      }

      .cls-19 {
        fill: #d4c9e1;
      }

      .cls-20 {
        fill: #31468a;
      }

      .cls-21 {
        fill: #fffeff;
      }

      .cls-22 {
        fill: #dacde0;
      }

      .cls-23 {
        fill: #fcfdff;
      }

      .cls-24 {
        fill: #30458a;
      }

      .cls-25 {
        fill: #d9cce0;
      }

      .cls-26 {
        fill: #e53754;
      }

      .cls-27 {
        fill: #346ee6;
      }

      .cls-28 {
        fill: #a32040;
      }

      .cls-29 {
        fill: #fcfeff;
      }

      .cls-30 {
        fill: #c52a49;
      }

      .cls-31 {
        fill: #2a4086;
      }

      .cls-32 {
        fill: #293e85;
      }

      .cls-33 {
        fill: #406bda;
      }

      .cls-34 {
        fill: #bb294d;
      }

      .cls-35 {
        fill: #a1244a;
      }

      .cls-36 {
        fill: #384c8e;
      }

      .cls-37 {
        fill: #f7f9fe;
      }

      .cls-38 {
        fill: #fffdfd;
      }

      .cls-39 {
        fill: #3a4e8f;
      }

      .cls-40 {
        fill: #b59fca;
      }

      .cls-41 {
        fill: #2a3f86;
      }

      .cls-42 {
        fill: #283d85;
      }

      .cls-43 {
        fill: #263c84;
      }

      .cls-44 {
        fill: #e53453;
      }

      .cls-45 {
        fill: #fbfafc;
      }

      .cls-46 {
        fill: #2c58cb;
      }

      .cls-47 {
        fill: #356ee5;
      }

      .cls-48 {
        fill: #daccdf;
      }

      .cls-49 {
        fill: #fef8f9;
      }

      .cls-50 {
        fill: #b89ec7;
      }

      .cls-51 {
        fill: #2c4187;
      }

      .cls-52 {
        fill: #293e86;
      }

      .cls-53 {
        fill: #2c58cc;
      }

      .cls-54 {
        fill: #346de6;
      }

      .cls-55 {
        fill: #326ce5;
      }

      .cls-56 {
        fill: #fefbfc;
      }

      .cls-57 {
        fill: #2a53cd;
      }

      .cls-58 {
        fill: #e73855;
      }

      .cls-59 {
        fill: #e63653;
      }

      .cls-60 {
        fill: #3a6ce0;
      }

      .cls-61 {
        fill: #c52b4a;
      }

      .cls-62 {
        fill: #fbf7f9;
      }

      .cls-63 {
        fill: #d9cde0;
      }

      .cls-64 {
        fill: #fdfdfe;
      }

      .cls-65 {
        fill: #d9cde1;
      }

      .cls-66 {
        fill: #c62d4b;
      }

      .cls-67 {
        fill: #e53352;
      }

      .cls-68 {
        fill: #fafdff;
      }

      .cls-69 {
        fill: #de3a5b;
      }

      .cls-70 {
        fill: #336de5;
      }

      .cls-71 {
        fill: #c62c4a;
      }

      .cls-72 {
        fill: #fff;
      }

      .cls-73 {
        fill: #e63553;
      }

      .cls-74 {
        fill: #e53554;
      }

      .cls-75 {
        fill: #2b57cb;
      }

      .cls-76 {
        fill: #c72d4b;
      }

      .cls-77 {
        fill: #fffcfc;
      }

      .cls-78 {
        fill: #e73654;
      }

      .cls-79 {
        fill: #dacee1;
      }

      .cls-80 {
        fill: #33488c;
      }
    </style>
  </defs>
  <path class="cls-64" d="M347.5,1c6,0,12,0,18.2.3,1,.8,1.8,1.4,2.7,1.7,7.9,3.1,16,5.7,23.6,9.3,3.5,1.7,6.7,2.7,10.6,2.9,16.5.8,29.2,8.2,36.5,23.2,3.2,6.6,5.1,13.7,12,17.7.7.4,1,1.2,1.5,1.9,7.3,9.7,10.9,20.5,9.6,33.1-3.9,24-21,38.7-44.9,38.9-13.6,0-27.2,0-40.4,0,2.3,4.2,4.7,8,6.5,12.2,2,4.7,3.7,9.6,5.1,14.6.9,3.1,2.6,4.5,5.6,5.5,9.5,3.3,19.7,5.2,27.3,13.1,1.2,2.7,2.2,5.1,3.2,7.9,1.2,12.8-3.9,20.9-15.7,25-5.3,1.9-10.7,3.7-16,5.7-1.4.5-2.9,1.7-3.5,3-1.8,4.2-3.1,8.7-4.8,13.3,13.9-1.9,27.3-3.7,41.2-5.4,3.4.8,6.4,1.6,9.4,2.3,4.7-3.1,9.8-6,15.2-7,17.8-3.3,35.7-6.1,53.6-8.9,5.6-.9,11.2-1.5,16.9-1.5,7.2,0,12.6,4.2,17.7,10.1.7-9.7,1.2-18.3,2-27.2,1.2-14.7,2.3-29,3.3-43.2-11-5.9-12.4-7.5-16.4-19.1-1.3-16.3,7.3-27.7,23.6-28.5,5.6-.3,11.1-1.4,16.7-2.3,15.4-2.6,30.8-5.6,46.2-8,11.3-1.8,21.8,5.4,24.1,16.7,1.1,5.1.9,10.6.7,15.8-.7,13.3-1.7,26.5-2.6,40.3,43.3-3.6,74.2,13.3,91.1,54,4-3.2,7.7-6.5,11.7-9.3,23.1-16,48.8-20.5,76.6-16.9,7.7,2.1,15,4,22.4,5.9.9-2.6-.1-3.8-3-4.7-13.8-4.4-20.4-14.9-18.8-29.8,1.3-10.1,12.4-21.3,22.7-20,9.7,1.2,14.4-3,18.9-9.6.3-.4.6-.8,1-1.1,2.5-1.7,2.3-3.7,1.3-6.4-3.3-8.8-2.3-17.2,3.3-25,10.5-14.4,35.8-13.1,43.4,3.8.6,1.3,2,2.9,3,3,5.7.3,11.5.1,17.2.1,3.7-10.5,17.1-18.5,30.3-15.2,12.9,3.2,22.4,16.5,18.5,29.2-2.5,8-1.3,13.2,4.5,18.4,1,.9,1.3,2.5,2.4,3.1,1.5.9,3.3,1.9,4.9,1.8,5.4-.3,10.7-1.7,16-1.5,17.8.8,32.2,8,41.9,23.5,6.9,11,8.6,22.8,6.8,35.4-.2,1.1,0,2.2,0,3.2,1.7-.2,3.1-.4,4.7-.7,0-12,0-23.8,0-35.6.1-13,8.2-21,21.3-21.1,21.8,0,43.7,0,65.5,0,1.8,0,3.5,0,5.4,0,0-23.8,0-47,0-70.1,0-14.9,11.2-23.1,23-23,60.2.4,120.3.2,180.5.2,15.1,0,23.2,8,23.2,23,0,37,0,74,0,111v4.6c2.8-3.3,4.1-7,6.3-10.1,3.1-4.6,6.7-8.8,9.9-13.2.9-1.2,1.7-2.7,1.8-4,.2-5.6-.2-11.2.3-16.8,1.3-14.4,8-26.5,17.7-36.6,8.1-8.5,18.8-13.2,29.9-16.8,1.2-.4,2.5-1.2,3.2-2.3,3.7-5.4,6.9-11.1,10.8-16.2,10.4-13.6,24.2-22.9,40.2-28.2,13.7-4.6,28.1-5.7,42.6-3.2,16,2.7,30.1,9.2,42.4,19.6,13.1,11.1,22.2,25,27.2,41.1,11.7-1.1,22.2.8,32.4,5.9,10.3,5.1,18.3,12.6,24.2,23.4,3.4-7.2,8.9-11.4,15.7-12.5,14.1-2.3,21.1-10.5,24-24.1,1-4.7,4.5-10,8.5-12.8,13.2-9.3,29.5-3.2,33.5,13.5,3.2,13.4,9.8,20.5,23.2,23.2,8.6,1.7,15,7.5,17.3,17,1.3,12.1-4,20.6-14.8,24.5-5.1,1.8-10.3,3.8-15.5,5.3-3.2.9-4.7,2.7-5.9,5.8-3.3,9.1-4.8,19-12.4,26.6,10,0,15.4,5.9,20.4,12.9.8,4.9,1.8,9.3,2.2,13.8,1.4,13.9,2.6,27.8,3.7,42-.9,2.5-1.4,4.7-2.3,6.8-3.7,8-3.7,8.1,2.3,14.7,7.2,11.1,9.1,23.4,9.8,36.3-.4,2-.6,3.7-.7,5.3-1.4,19.2-8.4,35.6-24.9,46.7-11.7,7.9-25,11.6-39,12.8-4.5.4-7.1,2.2-9.1,6.2-6.9,13.3-14.3,26.3-21.4,39.5-4.5,8.3-8.9,16.5-14.1,26.1,9.4,0,17.5,0,26.1.2,5.6.2,10.8.2,15.9.4,11.9.6,18.7,5.5,21.7,16,.8,2.8.9,5.8,1.3,9.3,3.7-1,7.3-2.1,10.9-3,4.5-1.2,9.1-3.6,13.4-3.1,14.4,1.7,19.8,9.1,20.1,23.2.3,10,0,19.9-.2,30.2-1.8,6.3-2.4,12.6-5,18-8.8,18.3-24.1,26-44.1,26-514.7,0-1029.5,0-1544.2,0-1.7,0-3.3,0-5,0-13.1-.7-24.1-5.7-32.8-15.6-6.3-7.1-9.2-15.6-11.1-25.1,0-12.4-.1-24.4-.1-36.4,0-8.1,5.2-15.8,12.9-18.8,19.2-7.5,39.1-10,59.6-9,12.2.6,24.3,1.1,36.5,2.2,11.9,1.1,23.8,2.8,35.9,4.3,2.4-15.6,4.7-31.4,7.3-47.2,1.8-11.4,11.6-19.3,23.2-18,11.6,1.3,23.1,3.7,34.7,5.4,12.6,1.9,25.1,3.7,38,5.8,4.8,1.1,9.4,1.8,14,2.6,10.1,1.7,17,9.4,17,19.6,0,4.3-.9,8.6-1.5,12.8-1.1,7.7-2.4,15.5-3.7,24.5,2.9-1.8,4.6-2.9,6.7-4,12.5-2.7,24.4-6.3,36.7-7.8,10.5-1.3,21.3-.4,31.9-.2,7.7.1,15.5.4,23.2,1.1,7.6.7,15.1,1.9,22.9,3.2,7.1,1.3,13.8,2.4,20.7,3.4,0-.7.1-1.1,0-1.3-.5-.6-1-1.3-1.7-1.7-15.2-10.5-20.1-25.3-18.1-43,.2-1.6-.5-3.9-1.7-5-9.1-9.4-10.1-19.9-2.7-30.7,2.2-3.3,4.2-6.7,6.5-10.2,0-.2,0-.4-.1-.5,0,.2,0,.5-.3.4-8.7,3-17.1,6.1-25.5,9.3-6.8,2.6-13.3,2.1-19.8-1.1-1.4-.7-3.9-.7-5.3.1-11.9,6.4-24.5,10-37.9,11.6-31.5,3.6-55.1-10.9-65.6-40.7-2.4-6.7-4.1-13.6-6.2-20.6h-5.5c-30.6,0-61.3.1-91.9-.1-5,0-9.9-2-14.9-3.1-1-.2-2.1-.3-3.1,0-5.3,1-10.6,3.1-15.9,3.1-28.5.3-57,.2-85.4.1-3.2,0-6.3,0-9.5-.3-9.9-.8-16.2-6.2-19.3-15.5-.8-2.5-1.2-5.2-1.8-8.1.3-1.3.7-2.3.8-3.2,1.2-8.5,5.7-14.3,13.6-17.5,3.1-1.3,6.4-2.1,9.5-3.1,0-38.4,0-76.5.2-114.9.2-15.2.2-30.1.2-45-17.9-4.2-23.2-10.2-23.6-27.2,1.3-11.9,10.9-20.4,22.8-20.4,29.6,0,59.3.1,88.9,0,8.9,0,17.5.3,25.3,7,.8-2.2,1.1-4.2.7-6.1-1.8-8.1-2.4-16.2.2-24.3,5.1-16,16.7-24.7,31.9-29.6,3.1-1,5.1-2.5,6.6-5.6,9.4-19.6,24.2-32.7,46.2-36.6.6-.1,1-1.3,1.5-1.9M857.6,433.7c1.4,2.4,2.8,4.8,4.4,7.6,3.1-2.7,5.8-5,9.1-7.5,1.5-1.6,2.9-3.2,5.1-4.9,1.9,3.2,3.9,6.4,6.2,10.1,4.8-4.1,9-7.7,13.3-11.4-6.1-7.1-13.4-11.3-21-15.2-3.8-1.9-6.1-1.1-8.4,2.4,1.3,1.8,2.7,3.4,3.9,5.2,1.9,3,3.6,6,4.7,9.1-7.5-5-14.9-10.2-22.6-15-1-.6-3.6.5-4.9,1.5-.6.5-.2,3,.6,4.1,3,4.5,6.3,8.9,9.6,14M775.2,501.5c-1.6-.2-3.3-.4-4.7-1.2,4.7-7.3,4.9-13.5.6-18.9-4.2-5.2-11.3-7.1-17.6-4.6-6.3,2.5-10.2,8.9-9.8,16.4,0,2,.4,3.9-.2,5.9-12.5.9-25.1,1.9-37.7,2.7,0,0-.2,0-.2-.9-.6-5.9-1.2-11.7-1.8-17.9-17.2,1.7-33.8,3.4-50.6,5.1.8,9,1.5,17.6,1.4,26.2-21.8,2.3-43.6,1-65.2-1.6-34.5-4.2-68.8-9.1-103.3-13-18.9-2.1-38-1.2-56.4,4.2-15.5,4.6-30.7,9.8-47.1,10.1,1.1-7.9,2.2-15.8,3.4-23.6,1.8-11.9,3.7-23.9,5.7-36.3-28.9-4.5-57.5-9-86.4-13.5-3.7,23.2-7.4,45.8-11.4,68.3,0,0-.3.1-1.1-.2-25.6-3.1-51.1-6.9-76.8-9.2-19.6-1.7-39.2-.1-58.3,5.7-3.7,1.1-5.4,2.7-5.1,7,.4,7.6.1,15.3.1,23,0,18.9,10.1,29,29,29,514.6,0,1029.1,0,1543.7,0,1.8,0,3.7,0,5.5,0,12-.9,22.5-9.9,23.3-21.6.8-11.5.2-23.2.2-35.1-15.1,4.9-30.2,8-45.8,6.9.4-8.6.8-17.1,1.3-26.1-17.2-.8-33.7-1.7-50.4-2.5-.8,9.5-1.5,18.3-3,27.1-11.9-1.8-23.8-3.6-35.3-6,7.3-13.4,14.6-26.8,21.9-40.2,16.2-29.8,32.3-59.5,49.3-89.2,2.3-.3,4.7-.6,7.9-1,6.9-1.1,13.9-1.7,20.6-3.2,20.3-4.7,30.6-15.7,33.2-36,2.2-17.4-2.6-32.5-16.3-44.3,4.5-7.1,2.8-14.3,1.3-21.6,5.6,1.1,6.8,0,5.9-5.4-.2-1.5-.4-3-.6-4.4-1.1-10.7-2.2-21.5-3.2-32.2-.4-4.1-1.6-6.1-6.4-4.5-3,1-6.6.8-9.8.5-11.9-1-23.8-2.6-35.7-3.5-14.4-1.1-28.6-.2-41.8,6.5-14.1,7.1-23.3,17.9-26,34.2-4,0-8-.1-12.1-.7,0-.2-.1-.3-.1-1.4,0-2.7-.1-5.3,0-8.8-1.4-15-6.7-28.4-16.9-39.6-17.1-19-38.9-25.6-63.8-23.8-40.1,2.8-68.3,30.5-71.9,70.9-.1,1.1-.2,2.3-1.3,3.4-14.3,0-28.7,0-42.9-.9v-8.1c10.3,0,19.7-.3,29.2.1,5.4.2,6-2.4,6-6.6,0-4.2-.7-6.9-6-6.6-9.6.4-19.2.1-29.2.1,0-2,0-3.4,0-4.9,0-14.2,0-28.3-.1-42.4,0-1.7-1.8-4.9-2.8-4.9-2.3,0-4.8,1.2-6.9,2.5-.9.5-1.2,2.3-1.8,3.5-9.1,20.4-24.7,34.3-44.5,42.7V76.5h-186.1v92.8h-92.7c0,17.8,0,35.3-.8,52.6-7.9,2-15.7,4.2-23.6,6-12.4,2.9-24.9,5.5-37.3,8.3-2.6.6-5.5,1-5.4,4.6.1,3.7,3.1,3.8,5.8,4,2.2.2,4.3,0,6.5.3,3.6.3,5.8,2,5.7,6,0,3.7,0,7.3-.8,11-22.7,0-45.3,0-68-1,0-17.4-.2-34.7-.2-52.9,1.1-11.1,8.6-18.2,20.1-19.1,12.2-1,16.5,2.3,19.7,15,2.1,8.4,5,10.8,13.8,11.7,8.3.8,15.3-2.4,17.9-9,7.5-18.5-3.7-40.4-24.8-41.8-16.1-1.1-30,4.5-42.5,14.2-1.3,1.1-2.7,2.1-4.7,3.8,0-5.1,0-9.1,0-13,0-4.1-1.3-5.7-5.8-4.4-10.2,2.9-20.5,5.6-30.8,8.1-9.9,2.3-19.8,4.1-29.7,6.5-1.6.4-2.7,3-4,4.6,1.6,1.1,3.1,2.5,4.8,3.2,1.1.5,2.6.1,4,.2,8.2.3,9.2,1.3,9.2,9.4,0,16.2.1,32.3,0,49.4,0,14.1,0,28.2,0,42.3,0,15.8,0,15.8-15.1,19.5-3.9,1-5.1,2.7-2.1,6.8,17.4.1,34.8.3,52.4,1.1.8,2.7,1.5,5.4,1.3,8.2-3.4,0-6.9-.1-10.3,0-3.3.2-6.6.7-10.1,2v17.1c-10.7,0-20.7,0-30.7,0-1.3,0-3.7,1.1-3.8,1.9-.2,1.5,1,3.2,2.3,5.1,19.1,0,38.3,0,57.4.1,1.5,0,4.1.4,4.3,1.2,1.5,4.7,2.4,9.5,3.1,14.8-8.7,18.2-20.8,32.9-41.2,40.2-9.9,2.6-19.5,3.3-28-5.2-2.3-3.5-3.8-7.2-2.2-12.1.5.9.7,1.3.9,1.7,3.4,6.9,9.7,9.9,16.8,8.3,7.5-1.8,12.4-8,12.2-15.5-.2-7-5.1-12.8-12.5-14-7.8-1.3-14.5,1.5-19.5,7.5-5.6,6.7-7.2,14.4-4,23.5,3.3,8.6,9.9,13.6,18.5,14.9,9.2,1.4,18.7,1.2,28.6,1.8v29.3h27.2c.1-1.9.3-3.7.3-5.5,0-10,0-20,0-29.9,0-1.5.2-3.5,1.2-4.5,4.5-4.8,8.6-5.2,14.3-1.4.3.4.6.8,1.3,2,.4,1.3.8,2.5,1.2,3.8,8.6,28.9,17.2,57.8,24.9,86.8-13,2.3-26.6,3.1-39,7.4-30.6,10.5-61.7,10.1-92.7,6,7-4.3,13.9-8.7,20.3-12.7-10-13.9-19.7-27.3-29.5-41.4-2.3-5-5.1-9.8-6.6-15-3.8-13-7.2-26.2-10.4-39.3-.8-3.1-2.2-4-5.2-3.8-3.4.2-2.9,2.5-2.9,4.6.2,7.6,0,15.3.7,22.9,1.2,11.8,3,23.6,4.6,36.2,2.9,16.7,8.5,32.5,15,47.7-18.4-2.6-36.8-5.2-55-8.5,10.1-13,14.7-28.1,17.5-44.8,1.4-17.6,2.9-35.1,4.1-52.7.1-1.5-1.3-4.5-2.1-4.5-9.1-.3-18.2-.2-28.5-.2,0,19.4,0,38.2-.2,57.8-.3,4.1-.5,8.3-1,12.4-1.4,10.5-2,21.2-8.3,30.5,0,0-.3.1-1-.3M714.2,386.7c.7-10.8,4.3-20.1,12.4-26.8-6.2-9-12.3-17.9-18.4-26.9-9.6,11.2-22.4,19.2-38,23.9,9.6,9.2,7,19.5,4.4,29.9,9,0,17.5,0,26.9.1,4,0,8,0,12.8-.3M570.3,401.8c5.9-7,11.8-14,17.8-20.9,1-1.1,2.5-2.6,3.8-2.6,10.8-.2,21.6-.1,33.2-.1-2,8.7-3.9,16.7-6.2,25.2-4.8,16.3-10.5,32.2-20.7,46.1-8.8,12-21,17.1-32.7,13.4-6.1-2-9.4-6.1-9.8-12.6.6.6,1,1,1.5,1.4,6,5.7,14.4,6.3,20.4,1.6,5.9-4.6,7.3-12.9,3.4-19.3-3.9-6.4-12.4-9-19.8-5.9-8.2,3.4-13.8,12.3-13.2,21.1.7,11.1,7.2,19,18.2,21.5,13.7,3,27,1.1,39.1-5.7,24.1-13.4,35.2-36.2,43.7-61.6,2.9-10.4,5.7-20.7,8.9-32.2h-63.2c2.4-5,4.3-8.9,6.5-13.5-10.6-2-20.3-3.9-30.1-5.5-.8-.1-2.5,1.7-3,3-5.7,14.8-11.3,29.8-17.4,45-3.4,5.4-7,10.8-10.2,16.4-.6,1.1-.4,3.7.4,4.4,1.1,1,3.9,1.6,4.8.9,8.1-6.5,15.9-13.3,24.4-20.3M773.8,404.2c2.7-17.7-6-31-21.5-32.9-8-1-15.3,3.7-17.3,11.1-1.9,7.1,1.8,14.5,8.6,17.1,7.9,3.1,15.7.4,19.7-6.8.5-.8,1-1.7,1.9-3.1.9,9.4-2.4,14.4-10.5,16.2-3.4.8-6.9,1-10.4,1-27,0-54,0-81,0-1.8,0-3.6,0-5.7,0,0,6.1,0,11.5-.2,17.9v7.5c1,.4,1.3.6,1.6.6,27.4,0,54.9.4,82.2-.4,17.7-.5,29.9-11.8,32.5-28.4M435.3,306.3c-2.9-18.5-5.9-37.1-8.8-55.6-.6-3.6-1.1-6.3-6.1-5.5-18.8,3.2-37.7,5.9-56.5,9.1-2.5.4-7.5-1.1-7.2,3.8.3,4.8,4.8,3,7.6,3.1,9.6.5,11.8,2.3,13.6,11.6.3,1.3.4,2.6.6,3.9,2.3,14.1,4.6,28.2,6.9,43.1.4,2.6.6,5.3,1.1,7.9,3,13.8,5.2,27.8,9.3,41.2,3.8,12.7,12.4,22.6,26.2,24.8,24,4,45.1-2.6,62.6-19.8,1.5-1.4,2.7-3.1,4.4-4.9,1.4,4.7,2.7,8.6,3.9,12.6,1,3.5,2.8,4.8,6.6,3.2,9.8-4.1,19.8-7.7,29.5-12,9.6-4.2,18.8-9.2,28.3-13.6,3.4-1.6,5.3-3.7,3.8-7.4-1.5-3.7-4.4-1.7-6.8-1-1,.3-1.9.6-2.8.9-8.5,2.4-10.5,1-12-7.9-3.3-20-6.6-39.9-9.8-60.8-2.5-16.1-4.9-32.2-7.4-48.3-.6-3.8-2.4-5.4-6.5-4.7-20.3,3.4-40.7,6.5-61,9.9-1.7.3-3.1,2.1-4.7,3.2,1.7,1.2,3.3,3.3,5,3.4,14.4,1.2,14.4,1.1,17,15.2.1.8.2,1.7.3,2.5,2,11.9,4,23.9,5.9,36.7,2.1,13.6,3.5,27.4,6.5,40.8,1.8,8.1-1.7,12.5-7.4,16-12.8,8-29.6,9.7-34.9-12.2-3.1-12.7-4.9-25.7-7.3-39.4M720.5,283.9c.3,6.8,0,13.7,1.1,20.4,3.5,22.4,14.4,40.3,34.6,51.6,19.7,11,41,12.8,63,9.6,14.2-2,27.3-6.8,36.8-18,4.3-5.1,7.3-11.4,10.4-17.4,1.3-2.6.9-6.2-2.6-6.9-1.8-.4-4.1,1.5-6,2.7-.9.6-1.4,1.8-2.1,2.8-13.3,18.1-37.9,24.6-56.9,14.3-18.1-9.8-23.1-27.6-26.4-46.5,5.9-.5,11.3-1,16.8-1.4,26.2-2,52.5-4,78.7-6.2,1.7-.1,4.3-2.5,4.4-4,.3-4.9-.3-9.9-.5-15.6-1.4-11.3-6.5-21.1-13-30.6,4.9-4,9.5-7.8,14.2-11.7,6.9,6.6,13.8,12.6,22.9,15.2,1.4-10.4,1.3-10.3-6.5-15.7-2.4-1.6-4.5-3.7-7.2-5.9,8.6-5.3,18.5-9.3,13.2-22-3.4-.8-5.7-.3-8.2,3.1-2.9,4-7.3,6.8-11.3,10.4-5.4-9.8-8-19.4-6.2-30.3,3.1.8,5.6,1.4,7.7,1.9,1.7-3.7,3.3-7,5-10.6-3.3-.8-6.6-1.5-10.3-2.4,4.1-10.4,10.5-18,19.6-23.7,6.2,12.9,6.6,14.3,5.3,22.1,9.7-2.3,19.1-5.1,28.7-6.5,8.5-1.3,14.6-4.6,16.6-13.4.1-.4.5-.8.8-1.3,1,.7,1.8,1.1,2.4,1.7,3.8,3.5,7.5,6.4,13.4,6.1,2.5-.1,5.3,3.3,7.9,5.2.8.6,1.4,1.7,2.1,2.5.5-.4.9-.7,1.4-1.1-3.1-4.6-5.9-9.5-9.5-13.6-3.8-4.3-8.5-7.9-13.2-12.1,2.4-4.4,4.9-9.1,7.6-13.7,2-3.4,2.7-6.6-1.2-9.1-3.2-2-6.1-.4-8.3,4.5-.9,2-1.8,3.9-2.7,5.9q-3.6,8.1-12.3,6c-.3,0-.7,0-1-.2-11.1-2.2-22.1-1.7-33.3,2.2-2.2-5.3-4.2-10.2-6.2-15-2-4.7-5.1-6.6-8.3-4.6-3.9,2.4-3.1,5.7-1.3,9.1,2.5,4.7,4.8,9.4,7.2,14.1-.9.8-1.4,1.3-1.9,1.6-10.9,6.9-18.9,16.2-23.6,28.2-1.2,3.2-3.3,2.9-5.6,2.2-4.2-1.1-8.2-2.6-12.4-3.7-3.3-.8-6.6-.7-7.6,3.4-1,4.1,1.3,6.2,5.3,6.8,1.3.2,2.6.5,3.9.8,4.3,1,8.5,2,12.7,3-1.6,15.2,0,24.4,6.8,37.4,1.5,3,1.4,4.8-1.4,6.6-3.5,2.3-6.8,4.9-10.3,7-1,.6-3.3.5-4.2-.2-24-19.4-50.8-22-79.1-12.8-31.9,10.4-48.4,38.2-49.7,67.8M557.3,248.8c-1.3,17.1-2.5,34.2-3.8,51.3-.7,9-1.4,17.9-1.9,26.9-.4,6.2.8,6.9,6.4,4.9,11.2-4.1,22.6-7.9,33.7-12.3,4.2-1.7,6.6-1.1,9.9,2,25.5,24.8,67.7,24.4,91-1.2,16-17.6,20.7-39.3,20.9-63.3-1-7.9-1.2-16-3.1-23.6-8.4-34.6-36.7-53.7-72-48.3-8.3,1.3-16.4,4.7-24.5,7,1.7-24.1,3.4-48.9,5.2-73.8.4-6.1-.6-7.1-6.6-6-14.7,2.6-29.4,5.2-44.1,7.7-5.4.9-10.9,1.2-16.3,2.3-1.7.4-2.9,2.6-4.4,4,1.3,1.3,2.3,3.1,3.8,3.8,1.9.8,4.2.6,6.4.9,6,.7,7.2,1.9,6.8,7.9-1.2,18.8-2.6,37.5-3.8,56.3-1.2,17.6-2.2,35.2-3.6,53.6M167.4,264c0,16.7,0,33.3,0,50,0,7.2-1.5,9.2-8.4,10.9-4.2,1-8.6,1.3-12.7,2.4-1.2.3-2.6,2.2-2.6,3.4,0,.8,1.9,2.1,3.2,2.6,1.2.4,2.6.1,4,.1,21,0,42,0,63,0,9.2,0,18.3,0,27.5-.1,1.4,0,2.8-1.6,4.2-2.4-1.2-1.3-2.2-3.2-3.7-3.7-2.3-.9-5-.6-7.3-1.2-5.2-1.4-11.3-1.7-12.1-9.8,0-25.6.2-51.2-.2-76.8,0-6.1,2.9-8.4,7.5-10.5,4,5,7.9,9.7,12,15.1,3.1,4.1,6.3,8.2,9.4,12.3,13.6,18.3,24.9,37.7,32.1,59.5,2.3,6.9,1.6,8.1-5.3,9.6-2.8.6-5.6,1-8.2,2-1.2.5-1.9,2.3-2.9,3.5,1.2.9,2.3,1.9,3.6,2.6.6.4,1.6,0,2.5,0,31.8,0,63.7,0,95.5,0,.8,0,1.8.3,2.5,0,1.1-.6,3-1.7,2.9-2.4-.1-1.3-1.1-3.2-2.3-3.7-2.1-.9-4.6-.8-6.8-1.3-7.4-1.5-13.3-4.2-17-12-7-14.7-14.7-29.1-23.1-43-12.6-20.8-27.1-40.3-43.9-58.8-5.7-6.4-11.4-12.8-17.7-19.8,14.6-14.3,28.8-28.4,43.1-42.3,4-3.9,7.9-8.4,12.7-11.2,8.5-5.1,17.6-9.1,26.4-13.7,1.5-.8,2.4-2.6,3.6-3.9-1.5-.7-2.9-1.9-4.4-2.1-3.5-.3-7-.1-10.5-.1-18.5,0-37,0-55.5.1-1.5,0-3,1.3-4.5,2,1.1,1.4,2,3.2,3.4,4.1,2.1,1.3,4.7,1.8,6.8,3,9,5.1,13.1,12.5,3.6,21.8-12.3,12.2-23.8,25.2-36.2,37.3-9.3,9.2-19.4,17.6-29.2,26.3,1.2.6,1-.5,1-1.5,0-12.7,0-25.3,0-38,0-12.3,0-24.7,0-37,0-5.3,2.2-8.6,7.3-9.7,3.4-.8,6.9-1,10.2-2.1,1.8-.6,3.2-2.5,4.8-3.8-1.8-.9-3.7-2.5-5.5-2.5-19-.2-38-.1-57-.1-11.3,0-22.7-.1-34,.1-1.8,0-4.9,1.3-5.2,2.5-.9,3.6,2.6,3.5,4.9,3.9,1.8.4,3.7.3,5.4.7,11.5,2.4,13.5,3.1,13.3,15-.2,17.7,0,35.3,0,53,0,23,.1,46,0,69.9M1437.2,121.1c-15.4,8.8-23.5,21.9-22.7,39.7.8,17,9.6,29.2,24.7,36.5,8.8,4.3,17.8,6.4,26.2-1.8,2.4-2.4,5.8-3.9,8.8-5.6,24.5-13.9,50.5-20.1,78.7-15.2,21,3.6,39.9,12.3,57.8,23.7,2.2,1.4,5.2,2.6,7.7,2.5,18-.6,33.2-16.9,33.7-35.7.5-18.5-14.7-35.6-32.9-37.2-9.7-.8-18.3,1.7-26.5,7.2-.6-5.2-.9-9.9-1.8-14.4-6.3-30.8-31.2-52.8-62.5-54.6-30.1-1.7-58,16.6-67.9,46.3-.9,2.6-2.2,3.3-4.8,3.7-6,1.1-11.8,3-18.4,4.8M296.3,109.1c2.1.3,4.3.9,6.4.9,38.8,0,77.6.2,116.4,0,11.8,0,20.8-8.2,22.8-19.9,1.9-11-4.2-21.8-15.1-25.8-3-1.1-3.6-2.3-3.5-5.3.6-15.2-12-26.1-26.7-22.8-4.4,1-6.9,0-10-2.7-14.4-12.4-33.6-14.8-49.3-6.3-12.7,6.8-19.2,18.5-23.5,31.6-1,3.1-2.4,3.8-5.5,4.3-5.3.9-10.8,2-15.7,4.3-8.3,3.9-13.3,10.6-12.9,20.2.5,10.4,5.1,18.1,16.4,21.5M655,467.9c15.2-1.6,30.5-3.2,45.7-4.7,9.1-.9,17.3,3.9,21.3,12,.7,1.5,1.9,2.7,2.9,4.1.9-1.3,2-2.5,2.7-3.9,5.2-10.1,13.3-16.6,24.4-18.9,4.3-.9,8.8-.6,13.5-.9v-9.2c-14.6,7.4-30,6.8-45.3,6.8-18.8,0-37.7,0-56.5,0-4.9,0-9.8-.8-15-1.2-3.6,4.4-7.2,9.6-11.6,14.1-4.4,4.5-9.3,8.7-14.5,12.2-5.2,3.5-10.9,6.4-16.7,8.7-5.6,2.2-11.7,3.4-17.6,5,0,.3,0,.6,0,.9,14.9,1,29.9,2,44.8,3,2.2-20.4,7.2-26.7,22-27.9M937.9,491c10.5-3.3,21.1-6.6,31.9-10-1.8-5.8-3.6-11.7-5-16.3-6.2,1.2-11.8,2.6-17.4,3.1-5.4.5-11,.1-16.5.1-16.5,0-22.8-4.8-27-21-7.5,6.7-14.8,13.4-26.2,10.7,7.1,14.3,21.1,22.7,26.8,38.5,10.7-1.6,21.6-3.3,33.4-5.2M359.4,154.4c-2,5.8-3.7,11.8-6.2,17.4-1.2,2.6-3.7,5.2-6.3,6.3-7.2,3.1-14.7,5.3-22,7.9-1.2.4-2.4,1.1-4.8,2.3,8.7,3,15.9,6,23.4,8,6.1,1.7,9.5,5.2,11.2,11.3,2.1,7.6,5.1,15,7.8,22.4,4.1-8.4,7.2-16.8,10-25.3,1.3-3.9,3.6-6.1,7.4-7.4,6.8-2.2,13.5-4.7,20.3-7,1.6-.6,3.2-1.2,4.7-1.9-7.3-3.7-14.3-6.5-21.6-8.6-6.4-1.8-10.2-5.2-11.9-11.8-2-7.5-5-14.7-8.1-23.4-1.5,4-2.5,6.5-3.7,9.8M1738.9,156.8c9.6-3.5,19.1-7,29.9-11-2.7-1.1-4.2-1.8-5.7-2.4-6.7-2.4-13.4-4.9-20.3-7-4-1.3-6.4-3.5-7.7-7.6-2.3-7.3-5-14.5-7.6-21.6-.4-1.1-1-2.1-2.1-4.2-2.5,7-5.3,12.8-6.5,18.8-2.1,9.8-7.6,15.1-17.3,17.2-6,1.3-11.7,4-17.7,6.1.5.9.6,1.3.9,1.4,3.4,1.3,6.8,3.1,10.3,3.7,15,2.6,23.5,11.2,26.1,26.1.7,3.9,2.6,7.6,3.9,11.4,3.3-6.1,5.3-12.1,7.5-18,1.6-4.3,3.7-8.4,6.2-13M1704.5,189.5c-1.4-4.3-2.5-8.7-4.4-12.7-1-2.1-3-4.3-5.1-5.2-7.3-3-14.9-5.4-22.7-8.2,0,14.7-4.7,27.9-14.2,38.6h52.4c-2-4.1-3.8-8-5.9-12.6M291.5,192.9c.6,1.1,1,2.2,1.7,3.1,10.4,13,20.9,25.9,31.2,39,4.2,5.4,8,11.2,11.8,16.7,2.9-4.4,5.6-8.5,8.5-12.7-.5-1.2-1.2-2.7-1.8-4.3-2.4-6.5-3.2-14.7-7.7-19.1-4.5-4.5-12.7-5.2-19.2-7.6-7.8-2.9-12.9-8.1-14.3-16.4-.4-2.5,0-5.1,0-7.7-.4-.2-.8-.4-1.2-.6-2.8,3-5.6,6-8.8,9.6M800.6,318.3c12.8,14.8,34,11.2,42.2-7.3-14.6,1.1-29.2,2.3-44.2,3.4.6,1.3,1.1,2.3,1.9,3.9M251.8,143c-2.8.9-5.6,1.8-8.3,2.6v18.1c7.3-6.3,15.3-13.3,23.6-20.4-3.2-2.2-5.3-3.7-7.4-5.1-2.4,1.6-4.8,3.1-7.9,4.8M454.3,276.7c-1.6-3.3.7-8.3-4.3-10.7-.3,1-.5,1.5-.5,1.9,3.7,23.1,7.4,46.3,11.3,69.4.3,1.9,1.4,3.6,2.2,5.4.5-.2,1-.3,1.5-.5-3.4-21.6-6.7-43.1-10.2-65.5M253.3,296.7c-3.3-5.6-6.6-11.2-9.9-16.7-.4.1-.7.3-1.1.4v27.1c6.3-2.7,10.5,5.5,17.2,1.9-2.1-4.3-4-8.2-6.1-12.8M861.1,370.1c-6.5,3.8-13,7.5-18.4,10.7,4.4,4.1,8.8,8.2,12.4,11.6,2.1-6.9,4.4-14.7,6.1-22.2M968.9,234c1.7,2.4,2.9,5.4,5.1,7,1.1.9,5,0,5.9-1.2,1.1-1.6,1.3-5.3.2-6.5-3-3.2-6.9-5.6-11.2-9,0,3.8,0,6.3,0,9.6M322.1,162c-1.6,1.2-3.3,2.5-4.9,3.7.4.4.7.8,1.1,1.2,3.7-1.3,7.5-2.6,11.2-3.9,6.9-2.4,9.4-5.9,9.5-15-5.9,4.9-11.2,9.1-16.9,13.9M589.4,414.3c1.1.9,2.3,1.9,3.9,3.2,1.9-5.5,3.8-10.7,5.6-15.8-4,3.1-7.2,6.6-10.3,10.2-.3.3.1,1.3.9,2.5M356.4,286.4c1.1,2.1,2.2,4.1,3.4,6.2-.8-13-.1-11.9-6-11.3.8,1.6,1.5,3,2.6,5.1M1711.9,202.4s0,.1,0,0Z"/>
  <path class="cls-43" d="M1775,540c.3,14,.7,28.3.4,42.6-.3,12.2-4.2,23.3-12.5,32.4-5.3,5.8-12,9.8-19.5,12.1-.7.2-1.3.8-1.9,1.6-525,.4-1050,.4-1575.4,0-1.5-1-2.5-1.8-3.7-2.2-17.4-6.5-27.7-19.4-29.5-37.5-1.4-15-.2-30.2,0-45.3,1.9,9,4.9,17.5,11.1,24.7,8.8,10,19.7,15,32.8,15.6,1.7,0,3.3,0,5,0,514.7,0,1029.5,0,1544.2,0,19.9,0,35.3-7.8,44.1-26,2.6-5.4,3.2-11.8,5-18Z"/>
  <path class="cls-67" d="M1691.6,377c-16.2,29.8-32.3,59.5-48.5,89.3-7.3,13.4-14.6,26.8-22.5,40.6-22.4-2.2-44.1-5.3-66-7.2-22.5-2-44.9-.7-66.5,7-5.9,2.1-12,3.9-18.2,5.2-26.4,5.5-53,3.8-79.5.7-34.7-4.1-69.2-9.4-103.9-13-22.1-2.3-44.2-.7-65.4,7.1-13.4,5-27.2,7.3-41.5,7.8,0-4.9.2-9.4-.1-13.9-.2-3.8,1.2-6.3,3.6-9.2,5.4-6.6,10.3-13.7,15.3-20.5,0,0,0,0,.2,0,.5-.3.6-.5.8-1.2,3-5.5,5.8-10.7,9-16.8-7.6-1.5-14.3-2.3-20.8-4.1-4.6-1.3-6.4.3-8.3,4.2-6.4,13-13.8,25.4-24.5,35.5-9.4,8.8-20.2,14.1-33.4,12.4-4.8-.6-9-2.9-10.8-7.7-1.6-4.4-1-8.7,2.2-13.2.3,1.5.3,2.3.5,3,1.9,7.4,7.9,11.4,15.3,10.2,6.8-1,11.7-6.9,11.4-13.6-.3-7.2-5.8-12.5-13.4-12.8-10.6-.5-20.7,6.8-23.1,16.9-2.6,10.6,2.9,21,13.5,25.5,2.1.9,4.2,1.8,5.9,2.7-2.9,0-5.4,0-7.8-.4-13.6-1.8-27.2-3.7-40.6-5.9,1.9-1.5,3.8-2.6,5.3-4,9.5-9.2,12.4-20.8,11.5-34.1,0-8.4,0-16.3,0-24.8h36.7v-6.4h-118.4q-.8,6.6,5.2,6.6c13.2,0,26.3,0,39.5,0,2.9,0,5.9,0,9.2,0,0,8.8,0,17,0,25.6,0,4.8,0,9.1-.2,13.5-.4,8.1-2.9,15.3-10.2,20.4-.7.2-.9.4-1.5.3-7.2-.9-14.1-1.7-21.2-2.5-.4-.1-.6-.1-.9-.5-1.3-2.9-2.5-5.4-3.7-7.9,1.8-.1,2.5.3,3.1.8,5.9,4.2,12.6,4.3,18,.3,4.8-3.5,7.1-11,5.1-17.1-1.9-5.8-7.9-9.8-14.8-9.6-7.1.1-12.3,3.6-15.8,9.6-4.5,7.8-3.7,15.9-1.1,23.9-8.5-.3-16.6-.4-24.6-.6-8.6-28.9-17.2-57.8-25.7-86.6-.4-1.3-.8-2.5-1-4.2,5.9,3.7,11.8,7.7,17.3,12.1,8.3,6.5,8.2,6.6,13.2-3.4,3.4-5.6,6.6-10.9,10.8-17.8-13-2.9-24.7-5.5-36.7-8.1,10.8-13.3,17-28.9,20.7-46.7-15.1,0-29.5,0-43.9-.5,0-4.2-.4-8,0-11.7.6-5.3-1.4-7.6-6.7-7.1-.8-2.7-1.5-5.4-1.9-8.6,1.6-.5,2.7-.5,3.9-.5,9,0,18,.2,26.9-.1,1.8,0,3.6-2,5.3-3-1.6-1.4-3-3-4.8-4-1.2-.7-2.9-.4-4.4-.7-6.2-1.2-9.4-3.8-9.5-8.5-.1-12.5,0-24.9.2-37.4,22.7,0,45.3,0,68.4,0,.5,0,.4,0,.4.2,0,.4,0,.6,0,1.2,0,7.1,0,13.8,0,20.9-.1,22-.1,43.5-.1,65,0,11.4-1.7,13.5-13,15.5-.5,0-1,0-1.5.2-2.5.3-5.1,1.1-4.3,4.1.4,1.3,3,2.7,4.6,2.8,15.5.2,31,.1,46.5.1,10.8,0,21.7,0,32.5-.1,1.4,0,2.7-1.7,4-2.6-1-1.3-2-2.7-3.1-3.9-.4-.4-1.3-.3-1.9-.4-9.7-1.9-10.9-3.3-10.9-13.2,0-19.8,0-39.7,0-59.5,0-2.8-.3-5.6-.4-8.9.1-6.7.5-13.1,0-19.3-.3-4.3,1.4-7.2,4.3-10,14.5-13.7,30.9-9.4,36.5,9.8,1.8,6.2,2.4,12.7,3.3,19.4,0,22.2.2,44,.3,65.8,0,14.5-2.3,14.4-12.5,16.2-1.4.2-2.4,2.5-3.5,3.9,1.4,1,2.8,2.7,4.2,2.8,8.6.3,17.3.1,26,.1,17.6,0,35.3,0,52.9-.1,1.5,0,3.1-1.6,4.6-2.5-1.3-1.4-2.4-3.1-4-4.2-1-.7-2.6-.4-3.9-.7-9.5-2.1-10.9-3.8-10.9-13.4,0-20.3,0-40.6,0-60.9,0-2.1-.3-4.3-.5-6.8-.8-8.4-1.2-16.4-2.5-24.2-3.4-19.9-16.5-33.9-34.3-37-13.8-2.4-27.3-.9-40.1,4.6-6.8,2.9-12.9,7.1-19.9,11.1,0-3.7.2-7.5-.1-11.2-.2-1.6-1.5-3.2-2.6-4.9-.4,0-.6.2-.7.4,0,0,0,0,0,0v-52.7h92.7v-92.8h186.1c0,53.4,0,106.7,0,160.4,0,.5,0,.5-.3.6-4.9,1.6-9.5,3-14.1,4.4-2.8.9-4.8,2.4-4.1,5.7.6,3.1,1.8,5.7,5.8,5.5,4.3-.2,8.6,0,12.9-.1,0,0,0,0-.1.4,0,2.2-.4,4.1.1,5.7.4,1.1,2,1.9,3,2.8,0,0,0,0,0,.4.2,10.8.2,21.2.2,32,.2,20.1,0,39.7.9,59.3.7,14.6,8.4,25.4,21.8,31.4,13.2,5.9,27.2,7.3,41.4,4.8,12.8-2.3,23.1-9.1,31.2-19.1,1.1-1.3.5-3.9.7-5.9-1.9.2-3.9,0-5.6.6-2.8,1.1-5.2,3-8,4-14.9,5.4-26.7-1.2-28.7-16.2-.5-3.9-.7-8-.8-11.9-.2-15.8-.2-31.6-.2-47.9,0-10.8,0-21.2,0-31.5,0,0,0,0,0,0,14.3,0,28.7,0,43.5,0,.5,0,.5,0,.6.4.3,2.4.5,4.5.5,6.9,0,2.6.1,5,.4,7.3,3.1,24,13.6,43.3,35.2,55.5,20.3,11.4,42.3,13,64.8,9.5,13.3-2.1,25.6-6.7,34.6-17,4.5-5.1,7.6-11.6,10.9-17.7,1.4-2.5,1.3-5.7-1.8-7.5-3.3-1.8-5.3.2-7,2.7-.5.7-.9,1.4-1.4,2-11.7,14.5-26.4,22.1-45.4,19-16-2.6-25.8-13.1-31.8-27.3-3-7.2-4.6-15-7-23.1,11.8-1,22.3-1.8,32.7-2.7,20.9-1.6,41.8-3.2,62.7-5,2-.2,3.8-2,5.7-3.1,4,0,8,.1,12.4.1.5,0,.4,0,.3.3-1.3,16.2,2.6,29.9,16,40.1.9.8,1.5,1.4,2.2,1.8,12.3,5.8,24.7,11.3,36.9,17.4,6.3,3.2,12.9,6.7,17.8,11.6,9.9,9.9,4.9,25-8.8,27.9-18.3,3.9-33.4-2-44.2-16.9-5.5-7.6-9.1-16.5-13.9-24.6-.9-1.6-3.4-2.3-5.2-3.4-.6,1.8-1.9,3.6-1.8,5.3.9,10.3,2.6,20.5,3.1,30.7.5,8.4,2.5,14.8,11.9,16.4,2.4.4,4.7,1.5,7.1,2.3,15.7,4.8,31.8,6.6,48.2,6.1M1280.4,484.1s0,0,0,.6c.3.2.6.4,1,.4,0,0-.1,0,0,.6.3.2.6.4,1,.4,0,0-.2,0,0,.6.3.2.6.3,1.4,1.1,8,6.4,17.3,8,27.2,7.1,13.7-1.3,22.6-12.8,21.5-27.4-1-12.7-11.7-22.2-24.3-21.4-6.3.4-11.1,3.4-13.6,9.3-2.4,5.6-1.6,11.2,2.3,15.9,4.1,4.9,9.4,6.5,15.7,5.2,6.2-1.3,9.4-5.6,11.6-11.3,2.9,7.4.8,14.9-5.3,19.3-6.4,4.7-13.6,4.8-20.9,2.8-11.1-3-16.5-11.6-20.7-22.1-1-3.7-1.7-7.4-3-11-1.5-4.1-.4-7.2,2.3-10.4,2.6-3,4.7-6.4,7.6-10,11.7-15.3,23.3-30.5,35.7-46.7h-94.9q-.7,6.7,5.1,6.7c10.7,0,21.3,0,32,0,5.7,0,11.5,0,18.2,0-4.8,6.3-9,11.6-13.1,17-17.3,22.6-34.6,45.2-52.5,68.2-2.4,3.1-4.8,6.2-7.8,10.1,8.4,2.6,16,4.8,23.4,7.4,3.4,1.2,5.6.4,7.6-2.5,4.7-6.4,9.7-12.7,14.5-19,4.5-5.8,9-11.6,12.9-16.6,4.4,8.1,8.7,15.9,13.2,24.2.2.3.4.4.9,1,.3.2.6.4,1,.5M1197.5,217.8c0,6-.5,12,0,17.9,2.5,24.8,13.2,44.8,35.5,57.3,20,11.2,41.6,12.9,63.9,9.5,13.8-2.1,26.6-6.9,35.9-17.7,4.3-5.1,7.3-11.4,10.4-17.4,1.4-2.8,1-6.5-2.6-7.4-1.7-.4-4.2,1.4-6,2.6-1.2.8-1.7,2.4-2.6,3.6-10.7,14.3-30.9,21.2-47.5,17.2-21.3-5.2-33-28.8-34.5-49.9,9.3-.8,18.5-1.6,27.8-2.3,9.4-.8,18.9-1.4,28.4-2.1,12.9-1,25.9-2,38.8-3,3.1-.2,4.7-1.8,4.5-4.7-.2-5.8-.8-11.6-1.1-18.1-3.1-13.7-9.5-25.5-19.7-35.1-27.5-25.6-74.8-26.8-104.2-2.7-16.3,13.3-24.8,30.7-26.8,52.4M1560.9,420.1c-2.5-.9-5-1.9-7.6-2.5-4.9-1.2-7.6-4-9-8.9-1.7-5.9-3.9-11.6-6-17.4-.8-2.2-1.7-4.4-2.5-6.6-4.1,8.4-7.2,16.6-9.9,25-1.3,4-3.7,6.3-7.7,7.6-7.4,2.3-14.8,5.1-22.1,7.7-.9.3-1.8,1-3.5,2,9,3.2,17.1,6.3,25.3,8.8,4.5,1.4,6.9,4,8.3,8.3,2.3,7.1,4.8,14.1,7.3,21.2.4,1.1,1.1,2,2.2,4,3-8.6,6-15.9,8.1-23.6,1.6-5.8,4.9-8.9,10.6-10.6,7.7-2.3,15.3-5.2,22.9-7.9,0-.4,0-.8,0-1.1-5.2-1.9-10.5-3.8-16.5-5.9M1110.9,409.2h6.2c1.2-6.9,1-7.1-4.7-7.1-29.5,0-59,0-88.4,0-6.1,0-6.3.4-4.8,7.1,30.2,0,60.4,0,91.7,0Z"/>
  <path class="cls-55" d="M1179.7,515c14.2-.9,28-3.3,41.4-8.3,21.2-7.9,43.3-9.4,65.4-7.1,34.7,3.6,69.2,8.9,103.9,13,26.5,3.1,53.1,4.8,79.5-.7,6.2-1.3,12.2-3.1,18.2-5.2,21.6-7.7,44-9,66.5-7,21.8,2,43.6,5,65.8,7.5,12.3,1.8,24.2,3.6,36.5,5.5.5.2.7.4.6.8-.4,6.8-.7,13.3-1.1,19.7-.1,2.3.4,3.7,3.2,3.8,14.2.6,28.4,1.1,42.5,2,4.7.3,6.3-1.9,6.3-6,0-6-.1-11.9-.1-18,0,0,.2-.2.2-.2,15.6.2,30.7-2.8,45.8-7.8,0,11.9.6,23.6-.2,35.1-.8,11.7-11.3,20.7-23.3,21.6-1.8.1-3.7,0-5.5,0-514.6,0-1029.1,0-1543.7,0-18.9,0-29-10.1-29-29,0-7.7.3-15.3-.1-23-.2-4.2,1.4-5.8,5.1-7,19.1-5.8,38.7-7.4,58.3-5.7,25.7,2.3,51.2,6.1,77.1,9.8-.4,6.4-1.1,12.3-1.8,18.3,29.2,4.6,57.7,9,87.2,13.6,1.3-8.8,2.6-17.4,3.9-26,0,0,.3-.2.3-.2,16.2-1.1,31.5-6.4,46.9-10.9,18.4-5.4,37.5-6.3,56.4-4.2,34.5,3.9,68.9,8.8,103.3,13,21.7,2.6,43.4,3.9,65.7,1.7.5,0,.6,0,.6.4,0,1.2,0,2.1,0,3.5.7,7.1,1.5,13.8,2.4,21.1,17.4-1.8,34.4-3.6,51.5-5.4-.8-6-1.4-11.1-2-16.6-.5-5.4-1-10.4-1.5-15.4,12.5-.9,25.1-1.9,38.2-2.8.5,0,.7.2.8.5,1.4,2.7,2.6,5.4,4.3,7.5,10.5,12.9,33.7,10.9,44.6-3.1.2,0,.6-.2.6-.2,18.4,2.6,36.8,5.2,55.7,8,.5.1.7.2.8.6,1.1,2,2.1,3.8,3.4,5.8,2.9-1.9,5.2-3.5,7.8-5.1.5,0,.7,0,1,0,31.4,3.5,62.5,3.8,93.1-6.6,12.4-4.2,25.9-5,39.4-7.5,8.5,0,16.5.3,25.2.6.6.1.9.4,1,.7,1.8,2.4,3.2,4.7,5.2,6.3,9.4,7.6,20.6,7.6,31.6,5.7,5.3-.9,10.2-4.1,15.5-6.2.2,0,.6-.2.6-.2,13.6,1.9,27.2,3.8,40.8,5.6,2.4.3,4.9.3,8.2.4,4.2.4,7.6.7,11.2,1.5,6.7.8,13.2,1.3,19.7,1.7,0,0,0,0,0,.3,0,1.4.1,2.5.1,4,0,9.3,0,18.1-.1,26.9,0,3.3.8,4.9,4.4,4.8,5.6-.2,11.3-.2,16.9,0,2.8,0,3.9-.9,3.8-3.7-.2-9.5-.1-18.9-.1-28.8,0-1.4,0-2.5,0-3.5,0,0,.1,0,.1,0Z"/>
  <path class="cls-70" d="M1437.6,121c6.2-1.7,12.1-3.6,18.1-4.7,2.6-.5,4-1.1,4.8-3.7,9.9-29.7,37.9-47.9,67.9-46.3,31.3,1.7,56.2,23.8,62.5,54.6.9,4.5,1.2,9.2,1.8,14.4,8.2-5.5,16.8-8.1,26.5-7.2,18.2,1.6,33.4,18.6,32.9,37.2-.5,18.8-15.6,35.1-33.7,35.7-2.6,0-5.5-1.1-7.7-2.5-17.8-11.4-36.7-20-57.8-23.7-28.2-4.9-54.2,1.3-78.7,15.2-3,1.7-6.4,3.2-8.8,5.6-8.4,8.2-17.4,6-26.2,1.8-15.1-7.3-23.9-19.5-24.7-36.5-.8-17.8,7.3-30.9,23-39.9Z"/>
  <path class="cls-18" d="M380.6,431.5c-1.8-4.1-3.7-7.8-4.9-11.6-2.2-6.7-4-13.5-6.1-20.9h-5c-30.5,0-61,.1-91.5-.1-5.1,0-10.2-1.9-15.4-2.8-1.2-.2-2.5-.1-3.7,0-5.3.9-10.6,2.6-15.9,2.7-29.8.3-59.7.3-89.5,0-5.1,0-10.6-1.5-15.1-3.7-8.6-4.2-10.6-12.7-10.9-21.3-.4-14.3-.2-28.7,0-43.5.7,2.1,1.1,4.8,2,7.3,3,9.3,9.4,14.7,19.3,15.5,3.1.3,6.3.3,9.5.3,28.5,0,57,.2,85.4-.1,5.3,0,10.6-2.1,15.9-3.1,1-.2,2.1-.1,3.1,0,5,1,9.9,3,14.9,3.1,30.6.3,61.3.1,91.9.1h5.5c2.1,7,3.9,13.9,6.2,20.6,10.5,29.8,34.1,44.3,65.6,40.7,13.4-1.5,26-5.2,37.9-11.6,1.4-.8,3.8-.8,5.3-.1,6.5,3.2,13,3.7,19.8,1.1,8.4-3.2,16.8-6.4,25.5-9.3.3.2.3.2.3.2-2.1,3.4-4,6.8-6.3,10.1-7.4,10.8-6.4,21.3,2.7,30.7,1.1,1.2,1.8,3.4,1.7,5-2,17.8,2.8,32.5,18.1,43,.6.4,1.2,1.1,1.7,1.7.2.2,0,.6,0,1.3-6.9-1.1-13.6-2.1-20.7-3.8-12.2-10.7-8.6-24.9-9.3-38.4-4.6,1.7-8.5,3.1-12.3,4.5-6.4,2.4-13,3.3-19.1-.1-3.6-1.9-6.2-1.3-9.5.5-11.4,6.2-23.7,10-36.7,10.4-9.2.3-18.4-.5-28.2-.8v28c-1.7,1.1-3.4,2.2-6.3,4,1.4-9.1,2.6-16.8,3.7-24.5.6-4.3,1.5-8.5,1.5-12.8,0-10.2-6.9-18-17-19.6-4.6-.8-9.2-1.5-14-2.6Z"/>
  <path class="cls-54" d="M241.4,243.2c-3.9-4.7-7.7-9.5-11.8-14.4-4.6,2-7.6,4.4-7.5,10.5.4,25.6.2,51.2,0,77-.3-17.8-.3-35.7-.3-53.1h-54.1c0-23-.2-46-.2-69,0-17.7-.1-35.3,0-53,.1-11.9-1.9-12.5-13.3-15-1.8-.4-3.7-.3-5.4-.7-2.3-.5-5.8-.3-4.9-3.9.3-1.2,3.4-2.5,5.2-2.5,11.3-.2,22.7-.1,34-.1,19,0,38,0,57,.1,1.8,0,3.7,1.7,5.5,2.5-1.6,1.3-3,3.2-4.8,3.8-3.3,1.1-6.8,1.3-10.2,2.1-5.2,1.1-7.4,4.4-7.3,9.7.1,12.3,0,24.7,0,37,0,12.7,0,25.3,0,38,0,1.1.2,2.2-1,1.5,9.8-8.8,19.9-17.2,29.2-26.3,12.3-12.1,23.9-25.2,36.2-37.3,9.5-9.4,5.4-16.8-3.6-21.8-2.2-1.2-4.8-1.7-6.8-3-1.4-.9-2.3-2.7-3.4-4.1,1.5-.7,3-2,4.5-2,18.5-.1,37-.1,55.5-.1,3.5,0,7-.2,10.5.1,1.5.1,2.9,1.4,4.4,2.1-1.2,1.3-2.1,3.2-3.6,3.9-8.8,4.6-17.9,8.6-26.4,13.7-4.8,2.9-8.6,7.3-12.7,11.2-14.3,14-28.5,28-43.1,42.3,6.3,7,12,13.4,17.7,20.5-8.9,14.3-21,23.7-36.7,28.3-.9.3-1.5,1.4-2.2,2.1Z"/>
  <path class="cls-70" d="M557.5,248c1.1-17.6,2.2-35.2,3.3-52.8,1.2-18.8,2.6-37.5,3.8-56.3.4-6-.9-7.2-6.8-7.9-2.1-.2-4.5,0-6.4-.9-1.5-.6-2.6-2.5-3.8-3.8,1.5-1.4,2.7-3.6,4.4-4,5.3-1.1,10.9-1.4,16.3-2.3,14.7-2.5,29.4-5.1,44.1-7.7,6-1.1,7.1,0,6.6,6-1.8,24.9-3.5,49.7-5.2,73.8,8.1-2.4,16.1-5.8,24.5-7,35.3-5.4,63.6,13.7,72,48.3,1.9,7.7,2.1,15.8,2.7,24.1-11.3,6.7-22.9,6.9-34.5,4-5.9-1.5-11.3-5-17-8.1-.8-4.9-1.2-9.3-2.1-13.7-2.3-10.3-5.6-20.3-13-28.2-6.4-6.8-14.4-10.1-23.5-6.6-8.6,3.4-12,10.8-12.5,19.8-.4,6.8-1.2,13.6-1.9,20.1-9.5,6.7-20.2,10-31.7,8.7-6.6-.8-12.9-3.8-19.3-5.8Z"/>
  <path class="cls-70" d="M295.9,109c-10.9-3.3-15.5-11-16-21.4-.4-9.6,4.7-16.3,12.9-20.2,4.9-2.3,10.4-3.4,15.7-4.3,3-.5,4.5-1.2,5.5-4.3,4.2-13.1,10.8-24.8,23.5-31.6,15.7-8.5,34.9-6.1,49.3,6.3,3.1,2.7,5.6,3.7,10,2.7,14.8-3.3,27.3,7.7,26.7,22.8-.1,3,.5,4.2,3.5,5.3,10.9,4,17,14.8,15.1,25.8-2,11.7-11,19.8-22.8,19.9-38.8.2-77.6,0-116.4,0-2.1,0-4.3-.6-6.8-1Z"/>
  <path class="cls-27" d="M720.7,283c1.1-28.7,17.6-56.5,49.6-66.9,28.3-9.2,55.1-6.6,79.1,12.8.9.7,3.1.8,4.2.2,3.6-2.1,6.8-4.7,10.3-7,2.8-1.8,2.9-3.6,1.4-6.6-6.8-13.1-8.4-22.3-6.8-37.4-4.1-1-8.4-2-12.7-3-1.3-.3-2.6-.6-3.9-.8-3.9-.6-6.2-2.7-5.3-6.8,1-4.1,4.3-4.3,7.6-3.4,4.2,1.1,8.3,2.5,12.4,3.7,2.3.6,4.4.9,5.6-2.2,4.6-12.1,12.7-21.3,23.6-28.2.5-.3,1-.8,1.9-1.6-2.4-4.7-4.7-9.4-7.2-14.1-1.8-3.4-2.6-6.7,1.3-9.1,3.2-1.9,6.3,0,8.3,4.6,2,4.9,4,9.8,6.2,15,11.2-3.9,22.2-4.4,33.3-2.2.3,0,.7,0,1,.2q8.7,2,12.3-6c.9-2,1.7-4,2.7-5.9,2.2-4.9,5.1-6.5,8.3-4.5,3.9,2.4,3.2,5.7,1.2,9.1-2.6,4.6-5.1,9.2-7.6,13.7,4.7,4.3,9.4,7.8,13.2,12.1,3.6,4.1,6.4,9,9.5,13.6-.5.4-.9.7-1.4,1.1-.7-.9-1.2-1.9-2.1-2.5-2.6-1.9-5.4-5.4-7.9-5.2-5.9.3-9.6-2.6-13.4-6.1-.6-.5-1.3-.9-2.4-1.7-.3.5-.7.9-.8,1.3-2,8.8-8.1,12.1-16.6,13.4-9.6,1.5-19,4.3-28.7,6.5,1.3-7.8,1-9.2-5.3-22.1-9.1,5.6-15.5,13.3-19.6,23.7,3.7.9,7,1.6,10.3,2.4-1.7,3.6-3.2,6.9-5,10.6-2.1-.5-4.6-1.1-7.7-1.9-1.8,10.8.8,20.4,6.2,30.3,4-3.6,8.4-6.4,11.3-10.4,2.5-3.4,4.9-3.9,8.2-3.1,5.3,12.7-4.7,16.7-13.2,22,2.7,2.2,4.8,4.3,7.2,5.9,7.8,5.3,7.9,5.3,6.5,15.7-9.2-2.6-16-8.5-22.9-15.2-4.7,3.9-9.3,7.7-14.2,11.7,6.5,9.4,11.6,19.2,12.5,31-10.3,1.1-20.1,1.7-30,2.5-4.9.4-9.7,1.3-14.7,1.5-.7-13.6-4.7-25.5-12.8-35.9-4.2-5.5-9.1-10.2-16.9-9.9-11.5.5-19.7,6.2-22.2,17.8-2.4,10.9-2.8,22.3-4.6,33.5-2.8,0-5.1,0-7.4.1-14,1.2-28.1,2.6-42.1,3.9M905.3,148.7c1.2,2.2,2.2,4.5,3.6,6.5,4,5.8,11.9,6.3,16.1.7,3.1-4,5.3-8.7,8-13.3-10.6-3.7-20.6-3.7-31.1-.6,1.1,2.3,2.1,4.2,3.4,6.7Z"/>
  <path class="cls-53" d="M529.6,284c3.3,20,6.6,39.9,9.9,59.9,1.4,8.9,3.5,10.3,12,7.9,1-.3,1.9-.6,2.8-.9,2.4-.7,5.3-2.7,6.8,1,1.5,3.6-.4,5.8-3.8,7.4-9.5,4.5-18.7,9.4-28.3,13.6-9.7,4.3-19.8,7.8-29.5,12-3.8,1.6-5.5.3-6.6-3.2-1.2-4-2.4-7.9-3.9-12.6-1.7,1.9-2.9,3.5-4.4,4.9-17.5,17.2-38.6,23.8-62.6,19.8-13.8-2.3-22.3-12.1-26.2-24.8-4-13.5-6.3-27.5-9.3-41.2-.6-2.6-.8-5.3-.7-8.3,1.2-.2,2.1-.1,2.8.1,9.9,3.3,20,4.3,29.5-.8,6-3.3,11.4-7.8,17.1-11.7,2.4,12.9,4.2,25.9,7.3,38.6,5.3,21.8,22,20.2,34.9,12.2,5.7-3.5,9.2-8,7.4-16-3-13.4-4.4-27.2-6.4-41.6,1.2-1.4,2.3-2.5,3.5-2.5,5.6,0,11.2,1,16.7.6,12-1,21.8-7,31-14.3Z"/>
  <path class="cls-53" d="M557.4,248.4c6.5,1.6,12.8,4.6,19.4,5.4,11.5,1.3,22.1-2,31.7-8.3-.3,12-1.1,23.3-1.2,34.6,0,11.5,3.3,22,10.9,30.9,5.8,6.8,13,10.9,22.4,9.3,9.3-1.5,13.6-8.3,16.4-16.3,1.1-3.1,2.3-6.4,2.5-9.6.9-13.4,1.5-26.9,2.2-40.3,5.6,2.6,11,6.2,16.9,7.7,11.6,2.8,23.3,2.6,34.4-3.6.2,23-4.5,44.8-20.5,62.3-23.2,25.6-65.4,26-91,1.2-3.3-3.2-5.7-3.7-9.9-2-11.1,4.4-22.4,8.3-33.7,12.3-5.6,2-6.8,1.3-6.4-4.9.5-9,1.3-17.9,1.9-26.9,1.3-17.1,2.5-34.2,3.9-51.7Z"/>
  <path class="cls-53" d="M826.7,274c4.9-.6,9.7-1.5,14.6-1.9,9.8-.8,19.6-1.4,29.9-2.1.7,4.9,1.4,9.9,1,14.8-.1,1.5-2.8,3.9-4.4,4-26.2,2.2-52.4,4.2-78.7,6.2-5.4.4-10.9.9-16.8,1.4,3.4,18.9,8.3,36.7,26.4,46.5,19,10.3,43.6,3.8,56.9-14.3.7-.9,1.2-2.2,2.1-2.8,1.9-1.2,4.3-3.1,6-2.7,3.5.7,3.9,4.3,2.6,6.9-3.1,6-6,12.4-10.4,17.4-9.5,11.2-22.7,15.9-36.8,18-21.9,3.2-43.3,1.4-63-9.6-20.1-11.3-31-29.1-34.6-51.6-1.1-6.7-.8-13.6-1-20.9,14.1-1.8,28.1-3.1,42.2-4.3,2.3-.2,4.6-.1,7.4.2,1.2,1.2,2,2.8,2.7,2.7,16.5-1.4,32.9-2.8,49.3-4.6,1.6-.2,3-2.3,4.5-3.5Z"/>
  <path class="cls-46" d="M241.5,243.5c.6-1,1.2-2.2,2.1-2.4,15.8-4.6,27.8-14,36.9-28,16.8,17.5,31.2,37.1,43.8,57.9,8.4,13.9,16.2,28.3,23.1,43,3.7,7.8,9.6,10.4,17,12,2.3.5,4.7.4,6.8,1.3,1.1.5,2.1,2.3,2.3,3.7,0,.7-1.8,1.8-2.9,2.4-.7.3-1.6,0-2.5,0-31.8,0-63.7,0-95.5,0-.8,0-1.8.3-2.5,0-1.3-.7-2.4-1.7-3.6-2.6.9-1.2,1.6-3,2.9-3.5,2.6-1,5.5-1.4,8.2-2,6.9-1.4,7.6-2.7,5.3-9.6-7.1-21.7-18.5-41.2-32.1-59.5-3.1-4.1-6.2-8.2-9.5-12.6Z"/>
  <path class="cls-70" d="M906.6,246.1c0-16.2-.1-32.3-.2-48.5,0-8.1-1.1-9.1-9.2-9.4-1.3,0-2.8.3-4-.2-1.7-.8-3.2-2.1-4.8-3.2,1.3-1.6,2.4-4.2,4-4.6,9.8-2.4,19.8-4.2,29.7-6.5,10.3-2.5,20.6-5.1,30.8-8.1,4.5-1.3,5.8.3,5.8,4.4,0,4,0,7.9,0,13,2-1.6,3.4-2.7,4.7-3.8,12.5-9.8,26.4-15.3,42.5-14.2,21.2,1.4,32.4,23.2,24.8,41.8-2.7,6.5-9.7,9.7-17.9,9-8.8-.8-11.7-3.3-13.8-11.7-3.2-12.7-7.5-16-19.7-15-11.5.9-19,8-20.3,19.8-.4,13.2-.5,25.7-1,38.3-2.6,1.4-4.9,2.9-7.3,3.8-15.5,5.7-30.2,3.3-44.2-4.9Z"/>
  <path class="cls-70" d="M1457.3,258.1c3.1-39.9,31.3-67.6,71.4-70.4,24.9-1.7,46.7,4.9,63.8,23.8,10.1,11.2,15.5,24.6,16.4,40-10.4,3.7-20.4,7-30.8,10.3-1.5.1-2.6.2-4.1.2-1.8,0-3.2,0-4.9,0-1.5,0-2.5,0-4,0-35.8,0-71.2,0-106.8,0-.2,0-.7,0-.7,0,0,0,0,0,0-.5-.1-1.4-.2-2.5-.2-3.5M1553.2,254.1c2-.1,4-.2,6-.3,3.1-.3,4.4-1.9,4.1-5-1-13.1-5.1-25-13-35.5-12.5-16.7-32.2-9-37.5,4.3-5.2,13-5.5,26.5-5,40.9,15.2-1.5,29.9-2.9,45.5-4.4Z"/>
  <path class="cls-70" d="M294.2,508.9c3.6-22.6,7.3-45.1,11-68.3,28.9,4.5,57.5,9,86.4,13.5-2,12.5-3.9,24.4-5.7,36.3-1.2,7.9-2.3,15.7-3.3,24,0,.4-.1.6-.6.6-6.5,0-12.5.1-18.5,0-10.3-.3-20.6-.3-30.9-1.3-12.8-1.2-25.6-3.2-38.4-4.9Z"/>
  <path class="cls-65" d="M1565.5,262.1c1.1,0,2.1-.1,3.6.2,2.1.2,3.7,0,5.3-.2,1.1,0,2.2-.1,4.2-.2,9,0,17,0,25.1,0,1.9,0,3.8-.7,5.6-1,0,.2.1.3.2.7-1.8,1.3-3.7,3.2-5.6,3.3-20.9,1.8-41.8,3.4-62.7,5-10.4.8-20.8,1.7-32.7,2.7,2.4,8.1,4,15.9,7,23.1,5.9,14.2,15.8,24.7,31.8,27.3,19,3.1,33.7-4.6,45.4-19,.5-.6.9-1.4,1.4-2,1.7-2.5,3.8-4.5,7-2.7,3.1,1.8,3.2,5,1.8,7.5-3.3,6.1-6.4,12.5-10.9,17.7-9,10.3-21.3,14.9-34.6,17-22.6,3.5-44.5,2-64.8-9.5-21.6-12.1-32.1-31.5-35.2-55.5-.3-2.3-.4-4.6,0-7.2,3.4,0,6.2.6,9,.6,25.2-.2,50.5-.3,75.7-1.1,7-.2,14-2.4,20.9-3.9,1-.2,1.6-1.9,2.4-2.9Z"/>
  <path class="cls-3" d="M1775.1,330.2c.3,14.1.8,28.6.2,43.1-.5,13.7-2.4,27.1-10.4,39.1-6.9,10.5-16.4,17.3-27.8,21.4-9.4,3.3-19.4,4.8-29.1,7.3-1.6.4-3.7,1.4-4.5,2.8-4.2,7.3-8.1,14.8-12.1,22.5-8.2.3-16.3.3-25.7.3,5.2-9.6,9.6-17.8,14.1-26.1,7.2-13.2,14.5-26.2,21.4-39.5,2.1-4,4.6-5.8,9.1-6.2,13.9-1.2,27.2-4.9,39-12.8,16.6-11.1,23.5-27.4,24.9-46.7.1-1.7.3-3.3.7-5.3Z"/>
  <path class="cls-75" d="M167.5,263.5c17.8-.5,35.5-.5,54.2-.5,0,17.4,0,35.3.2,53.6,1.2,7.6,7.3,7.8,12.5,9.2,2.4.6,5.1.4,7.3,1.2,1.5.6,2.5,2.4,3.7,3.7-1.4.8-2.8,2.4-4.2,2.4-9.2.2-18.3.1-27.5.1-21,0-42,0-63,0-1.3,0-2.8.3-4-.1-1.3-.5-3.2-1.7-3.2-2.6,0-1.2,1.4-3.1,2.6-3.4,4.2-1.1,8.5-1.3,12.7-2.4,6.9-1.7,8.3-3.7,8.4-10.9,0-16.7,0-33.3.2-50.4Z"/>
  <path class="cls-70" d="M435.3,306.7c-5.7,4.4-11.1,8.9-17.1,12.1-9.5,5.1-19.6,4.1-29.5.8-.8-.3-1.6-.4-2.8-.6-2.7-14.1-5-28.1-7.4-42.2-.2-1.3-.4-2.6-.6-3.9-1.8-9.3-4.1-11.1-13.6-11.6-2.8-.1-7.3,1.7-7.6-3.1-.3-5,4.7-3.4,7.2-3.8,18.8-3.2,37.7-6,56.5-9.1,4.9-.8,5.5,1.9,6.1,5.5,2.9,18.5,5.8,37.1,8.8,56Z"/>
  <path class="cls-70" d="M529.6,283.6c-9.2,7.7-19.1,13.8-31.1,14.8-5.5.4-11.1-.5-16.7-.6-1.1,0-2.3,1.1-3.4,2.1-2-11.5-4-23.5-6-35.4-.1-.8-.2-1.7-.3-2.5-2.6-14.1-2.6-14-17-15.2-1.8-.1-3.3-2.2-5-3.4,1.5-1.1,3-2.9,4.7-3.2,20.3-3.4,40.7-6.5,61-9.9,4.1-.7,5.9.9,6.5,4.7,2.4,16.1,4.9,32.2,7.3,48.7Z"/>
  <path class="cls-42" d="M462.2,91.2c.2,15.3,1.5,31,0,46.4-2,20.1-18.9,36.4-40.5,37.5-7.9-7.5-18.1-9.4-27.6-12.7-3-1-4.7-2.5-5.6-5.5-1.4-4.9-3.1-9.8-5.1-14.6-1.8-4.2-4.3-8-6.5-12.2,13.2,0,26.8,0,40.4,0,23.9-.1,41-14.9,44.9-38.9Z"/>
  <path class="cls-63" d="M1692.1,377c-16.8.5-32.9-1.3-48.6-6.1-2.4-.7-4.7-1.9-7.1-2.3-9.5-1.6-11.5-8-11.9-16.4-.6-10.3-2.2-20.5-3.1-30.7-.1-1.7,1.1-3.5,1.8-5.3,1.8,1.1,4.2,1.8,5.2,3.4,4.8,8.1,8.4,17.1,13.9,24.6,10.9,14.9,25.9,20.8,44.2,16.9,13.6-2.9,18.7-17.9,8.8-27.9-4.9-4.9-11.5-8.4-17.8-11.6-12.1-6.1-24.6-11.6-36.9-17.4-.7-.3-1.3-1-1.8-1.8,8.4,1.8,16.4,5,24.7,5.8,13.3,1.2,26.8,1.7,40.1.6,9.7-.8,19.2-4.5,28.8-6.5-13.2,24.6-26.4,48.9-39.8,73.6,2.7.1,4.8.2,6.9.3-2.3.3-4.7.6-7.4.8Z"/>
  <path class="cls-70" d="M1356.4,237.4s0,0,0,0c19.9-9.4,35.4-23.2,44.5-43.7.5-1.2.8-2.9,1.8-3.5,2.1-1.2,4.6-2.5,6.9-2.5,1,0,2.7,3.2,2.8,4.9.2,14.1.1,28.3.1,42.4,0,1.5,0,2.9,0,4.9,10,0,19.6.3,29.2-.1,5.3-.2,6,2.4,6,6.6,0,4.2-.6,6.9-6,6.6-9.4-.4-18.9-.1-29.2-.1,0,2.9,0,5.5,0,8.5,0,.5,0,.4-.5.4-17.8,0-35.2,0-52.6,0,0,0,0,0,.1-.4.1-2.2.6-4.2,0-5.7-.4-1.2-2.1-1.9-3.2-2.8,0,0,0,0,0-.4,0-5.3,0-10.3,0-15.2Z"/>
  <path class="cls-27" d="M1622.5,262c1.8-16.2,11-27,25.1-34.1,13.2-6.7,27.4-7.5,41.8-6.5,11.9.9,23.8,2.4,35.7,3.5,3.3.3,6.8.4,9.8-.5,4.8-1.5,6,.5,6.4,4.5,1,10.8,2.1,21.5,3.2,32.2.1,1.5.4,3,.6,4.4.9,5.4-.3,6.4-6.2,5.4-.3,0-.3,0-.3-.2-.4-.5-.7-.6-1-.8,0,0,0,0,.1-.3-.3-.8-.8-1.3-1.2-1.7,0,0,0,0,0-.3-1-2.6-2-4.9-3.2-7-10.3-17.6-24.8-27.7-46-26.6-11.5.6-18.8,5.9-19.2,15.4-.2,4.1,1.9,8.3,2.9,12.6h-48.6s0,0,0,0Z"/>
  <path class="cls-71" d="M648.7,404.1c-8,24.9-19.1,47.7-43.2,61.1-12.2,6.8-25.5,8.7-39.1,5.7-11-2.5-17.5-10.4-18.2-21.5-.6-8.8,5-17.7,13.2-21.1,7.4-3.1,15.8-.5,19.8,5.9,3.9,6.4,2.4,14.7-3.4,19.3-6,4.7-14.4,4.1-20.4-1.6-.4-.4-.8-.8-1.5-1.4.4,6.5,3.6,10.6,9.8,12.6,11.7,3.7,24-1.4,32.7-13.4,10.2-13.9,15.9-29.8,21.3-46.3,2.2.9,3.8,2.1,5.5,2.9,8.3,3.7,16,1.3,23.6-2.2Z"/>
  <path class="cls-73" d="M657.5,424v-16.9c2.2,0,4,0,5.7,0,27,0,54,0,81,0,3.5,0,7-.2,10.4-1,8.1-1.9,11.4-6.8,10.5-16.2-.9,1.4-1.5,2.2-1.9,3.1-4.1,7.2-11.9,9.9-19.7,6.8-6.8-2.6-10.5-10.1-8.6-17.1,2-7.4,9.4-12.1,17.3-11.1,15.5,1.9,24.2,15.2,21,33.4-2.4,2.1-4.4,3.6-6.3,5.2-12.2,10.5-26.4,16.1-42.3,15.9-22.4-.2-44.8-1.2-67.2-1.9Z"/>
  <path class="cls-59" d="M648.9,403.8c-7.9,3.7-15.6,6.1-23.9,2.4-1.8-.8-3.3-2-5.3-3.1,1.5-8.2,3.4-16.2,5.4-24.9-11.6,0-22.4,0-33.2.1-1.3,0-2.8,1.4-3.8,2.6-6,6.9-11.9,13.9-18.6,21-6.8,1.4-12.8,2.1-18.2-2,5.6-14.9,11.2-29.8,16.9-44.6.5-1.2,2.1-3.1,3-3,9.8,1.6,19.5,3.5,30.1,5.5-2.2,4.6-4.1,8.6-6.5,13.5h63.2c-3.2,11.5-6,21.8-9.1,32.4Z"/>
  <path class="cls-5" d="M1699.9,376.1c-2.5,0-4.6-.1-7.4-.3,13.4-24.7,26.6-48.9,40.1-73.8,1.7-3.4,3.1-6.1,4.5-8.9,0,0,0,0,0,0,14.4,11.2,19.2,26.3,17,43.7-2.5,20.2-12.8,31.2-33.2,36-6.8,1.6-13.8,2.2-21.1,3.3Z"/>
  <path class="cls-46" d="M906.5,246.5c14.1,7.7,28.7,10.2,44.3,4.5,2.4-.9,4.7-2.4,7.4-3.3.4,3.5.2,6.7.5,9.8.3,3.5-.8,4.8-4.4,5.6-7.7,1.7-13.4,6.3-17,13.4-3.8,7.3-3.5,14.7-1.2,22.3,1.6,5.3,3.1,10.6,4.8,16.4h-52.3c-2.4-3.5-1.2-5.3,2.7-6.3,15.2-3.7,15.1-3.7,15.1-19.5,0-14.1,0-28.2.1-42.8Z"/>
  <path class="cls-51" d="M654.5,467.9c-14.4,1.1-19.4,7.5-21.6,27.9-14.9-1-29.8-2-44.8-3,0-.3,0-.6,0-.9,5.9-1.6,11.9-2.8,17.6-5,5.8-2.3,11.5-5.2,16.7-8.7,5.2-3.5,10.1-7.7,14.5-12.2,4.4-4.5,8.1-9.7,11.6-14.1,5.2.4,10.1,1.2,15,1.2,18.8.1,37.7,0,56.5,0,15.3,0,30.7.7,45.3-6.8v9.2c-4.6.3-9.2,0-13.5.9-11.1,2.3-19.2,8.7-24.4,18.9-.7,1.4-1.8,2.6-2.7,3.9-1-1.4-2.2-2.6-2.9-4.1-3.9-8-12.2-12.8-21.3-12-15.2,1.5-30.5,3.1-46.1,4.8Z"/>
  <path class="cls-32" d="M937.5,491.1c-11.3,1.8-22.3,3.5-33,5.1-5.7-15.8-19.8-24.2-26.8-38.5,11.4,2.7,18.8-4,26.2-10.7,4.2,16.2,10.5,21,27,21,5.5,0,11,.4,16.5-.1,5.6-.5,11.2-2,17.4-3.1,1.4,4.6,3.2,10.5,5,16.3-10.8,3.4-21.3,6.7-32.3,10Z"/>
  <path class="cls-74" d="M359.5,154c1.1-2.9,2.1-5.5,3.6-9.5,3.1,8.8,6.1,16,8.1,23.4,1.7,6.6,5.5,10,11.9,11.8,7.3,2.1,14.4,4.9,21.6,8.6-1.6.6-3.1,1.3-4.7,1.9-6.7,2.4-13.5,4.8-20.3,7-3.8,1.2-6.1,3.5-7.4,7.4-2.8,8.5-5.9,16.9-10,25.3-2.6-7.5-5.6-14.8-7.8-22.4-1.7-6.1-5-9.6-11.2-11.3-7.5-2.1-14.7-5-23.4-8,2.4-1.1,3.5-1.8,4.8-2.3,7.4-2.6,14.9-4.9,22-7.9,2.6-1.1,5.1-3.7,6.3-6.3,2.5-5.6,4.2-11.5,6.3-17.7Z"/>
  <path class="cls-47" d="M1738.6,157c-2.2,4.4-4.2,8.5-5.9,12.8-2.2,5.9-4.2,11.9-7.5,18-1.3-3.8-3.2-7.5-3.9-11.4-2.6-15-11.2-23.6-26.1-26.1-3.5-.6-6.9-2.4-10.3-3.7-.2,0-.3-.5-.9-1.4,6-2.1,11.7-4.8,17.7-6.1,9.7-2.1,15.2-7.4,17.3-17.2,1.3-6.1,4-11.8,6.5-18.8,1,2.1,1.7,3.1,2.1,4.2,2.6,7.2,5.3,14.4,7.6,21.6,1.3,4.1,3.7,6.4,7.7,7.6,6.8,2.1,13.5,4.6,20.3,7,1.5.5,3,1.2,5.7,2.4-10.7,3.9-20.3,7.5-30.2,11.2Z"/>
  <path class="cls-57" d="M294,508.8c13,1.7,25.7,3.7,38.6,4.9,10.2,1,20.6,1,30.9,1.3,6,.2,12,0,18.5.1-.8,8.6-2.1,17.2-3.4,26-29.4-4.6-57.9-9-87.2-13.6.7-6,1.4-11.8,2.2-18.1,0-.4.3-.6.5-.6Z"/>
  <path class="cls-70" d="M1028.5,262c0-3.6-.2-7.3,0-10.9.1-4-2.1-5.7-5.7-6-2.1-.2-4.3,0-6.5-.3-2.7-.2-5.6-.3-5.8-4-.1-3.7,2.8-4.1,5.4-4.6,12.4-2.8,24.9-5.4,37.3-8.3,7.9-1.8,15.7-4,24-5.9.4,0,.3,0,.4.3,0,.4.1.6,0,1.2,0,13.1,0,25.7,0,38.8-16.5,0-32.3,0-48.3,0-.4,0-.6-.1-.8-.1,0,0,0,0,0,0Z"/>
  <path class="cls-18" d="M1787.5,141.4c.4,1.1,1.1,2.6,1.1,4.2,0,15,0,30-.1,45,0,9.4-6,17.5-15,20.6-4.5,1.6-9,3.2-13.8,5-5.3-6.5-10.8-12.4-20.7-12.4,7.6-7.7,9.1-17.6,12.4-26.6,1.1-3.1,2.7-4.9,5.9-5.8,5.2-1.5,10.4-3.5,15.5-5.3,10.9-3.9,16.1-12.4,14.8-24.5Z"/>
  <path class="cls-18" d="M700.6,386.9h-26c2.7-10.4,5.3-20.8-4.4-29.9,15.6-4.7,28.4-12.7,38-23.9,6.1,9,12.2,17.8,18.4,26.9-8.1,6.7-11.8,16-12.9,26.6-2.1-2.6-3.6-5.1-5.4-7.9-2.8,3-5.3,5.7-7.7,8.3Z"/>
  <path class="cls-73" d="M785.6,458v-57c10.3,0,19.4-.1,28.5.2.8,0,2.2,3,2.1,4.5-1.2,17.6-2.7,35.2-4.6,52.8-2,.4-3.6.5-5.1,1-7.2,2.5-14.2,2.3-20.9-1.5Z"/>
  <path class="cls-66" d="M967.6,406.1c-5.6-3.4-9.7-3-14.2,1.8-.9,1-1.1,3-1.2,4.5,0,10,0,20,0,29.9,0,1.8-.2,3.6-.3,5.5h-27.2v-29.3c-9.9-.6-19.3-.4-28.6-1.8-8.6-1.3-15.3-6.3-18.2-15.3,3,.3,5.6,1,8.3,1.7,8.2,7.9,17.8,7.2,28.4,4.7,14.3,1,27.4-1.1,39.9-6.3,3.9-1.6,7.6-3,12-1.2.2.5.4.8.7,1.3.2,1.7.3,3.1.5,4.5Z"/>
  <path class="cls-61" d="M863.1,512.8c-.5.3-.7.3-1.6.3-4-.4-7.4-.7-10.8-1,0,0-.2-.1-.3-.2-7.4-15.4-13-31.2-15.9-48.7.9-1.5,1.6-2.7,2.5-2.8,5.8-.6,11.6-.9,17.3-1.3,9.6,13.4,19.3,26.8,29.3,40.7-6.4,4-13.4,8.3-20.5,13Z"/>
  <path class="cls-70" d="M1657.3,512.8c.6-9,1.4-17.9,2.1-27.3,16.7.8,33.2,1.6,50.4,2.5-.4,9-.9,17.5-1.3,26.5,0,.4-.1.6-.6.6-17.1-.7-33.7-1.3-50.3-1.9,0,0-.2-.2-.3-.3Z"/>
  <path class="cls-19" d="M888.9,315.4c16.8-.3,33.9-.3,52-.3-1.7-5.8-3.2-11.1-4.8-16.4-2.3-7.6-2.6-15,1.2-22.3,3.7-7,9.4-11.7,17-13.4,3.5-.8,4.7-2.1,4.4-5.6-.3-3.1,0-6.3-.2-9.9,0-12.9.2-25.4.6-38.2.3,17,.4,34.4.5,52.2,0,12.9-.3,25.4-.1,37.8,0,4.8,3.3,7.3,9.5,8.5,1.5.3,3.2,0,4.4.7,1.8,1,3.2,2.7,4.8,4-1.8,1-3.5,2.9-5.3,3-9,.3-18,.1-26.9.1-1.2,0-2.3,0-4,.2-17.9,0-35.3-.1-53-.6Z"/>
  <path class="cls-41" d="M1704.6,189.9c1.9,4.2,3.8,8,5.8,12.2h-52.4c9.5-10.7,14.2-23.9,14.2-38.6,7.9,2.8,15.4,5.2,22.7,8.2,2.1.9,4.1,3.1,5.1,5.2,1.9,4,3,8.4,4.5,13.1Z"/>
  <path class="cls-4" d="M655.4,514.2c-.8-8.6-1.5-17.1-2.2-26.2,16.8-1.7,33.4-3.4,50.6-5.1.6,6.2,1.2,12.1,1.4,18.5-2.3.9-4.3,1.2-6.2,1.7-14.4,3.7-28.9,7.5-43.3,11.3,0,0-.2,0-.2-.1Z"/>
  <path class="cls-41" d="M146.8,190.7c-4.5-1.1-9.1-2.1-13.1-4.2-8.1-4.1-10.9-11.9-11.1-20.2-.4-15.6,0-31.2.4-47.1.8,16.3,6.1,22.4,24,26.5,0,14.8,0,29.7-.2,45Z"/>
  <path class="cls-74" d="M1737.5,292.9c-.3.3-.3.3-.7,0-1.7-1.1-3-2.2-4.5-2.9-14.8-6.7-29.6-13.3-44.4-20-4.7-2.1-9.2-4.6-13.8-6.9,16.1-1.1,31.7-1.4,47.3-.9,4,.1,8,2.8,11.9,4.3,1.1.4,2.1,1,3.2,1.5,0,0,0,0-.3.2.2.8.8,1.3,1.3,1.8,0,0,0,0,0,.3.3.5.7.6,1,.7,0,0,0,0,0,0,2.2,7.3,3.9,14.5-1,21.9Z"/>
  <path class="cls-61" d="M785.5,458.5c6.8,3.3,13.8,3.5,21,1.1,1.5-.5,3.1-.6,4.9-.6-2.2,16.2-6.8,31.4-17,44.7-.1.3-.5.4-1.1.4-6-.8-11.5-1.5-16.9-2.2,5.9-9.3,6.6-20,8-30.5.5-4.1.7-8.3,1.1-12.8Z"/>
  <path class="cls-51" d="M291.7,192.6c3-3.3,5.8-6.3,8.6-9.4.4.2.8.4,1.2.6,0,2.6-.4,5.2,0,7.7,1.4,8.3,6.6,13.6,14.3,16.4,6.5,2.4,14.7,3.1,19.2,7.6,4.5,4.4,5.3,12.6,7.7,19.1.6,1.6,1.3,3.1,1.8,4.3-2.8,4.2-5.5,8.3-8.5,12.7-3.8-5.4-7.6-11.3-11.8-16.7-10.3-13.1-20.8-26-31.2-39-.7-.9-1.1-2.1-1.5-3.4Z"/>
  <path class="cls-30" d="M657.5,424.5c22.5.2,44.9,1.2,67.2,1.4,16,.2,30.2-5.4,42.3-15.9,1.9-1.6,3.9-3.1,6.1-4.8-2.1,15.7-14.2,27-32,27.5-27.4.8-54.8.3-82.2.4-.3,0-.6-.2-1.6-.6,0-2.3,0-4.9,0-7.9Z"/>
  <path class="cls-78" d="M886,402.7c-2.5-.4-5.1-1-8.1-1.7-3.6-8.4-2-16.1,3.6-22.8,5-6,11.7-8.8,19.5-7.5,7.4,1.2,12.3,7,12.5,14,.2,7.5-4.7,13.7-12.2,15.5-7.1,1.7-13.4-1.4-16.8-8.3-.2-.4-.4-.8-.9-1.7-1.6,4.9-.1,8.5,2.3,12.4Z"/>
  <path class="cls-6" d="M889.5,351c-.6-1.6-1.7-3.3-1.5-4.8,0-.8,2.4-1.9,3.8-1.9,10-.2,20,0,30.7,0,0-5.9,0-11.5.5-17.7,6.1-.5,11.8-.4,17.4-.7,3.2-.2,4.2,1.3,5,4,1.5,5.2,3.3,10.3,5,15.8.3,2.1.5,3.7.3,5.4-20.7,0-40.9,0-61.1,0Z"/>
  <path class="cls-2" d="M854.2,458.7c-5.7.8-11.5,1.1-17.3,1.7-.9,0-1.6,1.3-2.5,2.4-1.6-11.4-3.5-23.2-4.7-35-.8-7.6-.6-15.3-.7-22.9,0-2.1-.5-4.5,2.9-4.6,2.9-.2,4.4.7,5.2,3.8,3.3,13.2,6.6,26.3,10.4,39.3,1.5,5.2,4.4,10,6.7,15.3Z"/>
  <path class="cls-59" d="M966.3,400c-4.2-1.6-7.9-.2-11.8,1.4-12.5,5.2-25.6,7.3-39.5,6.2,19.3-7.3,31.4-22,40.5-40.4.4-.2.8-.2,1,.1,3.4,11.1,6.6,21.9,9.8,32.7Z"/>
  <path class="cls-31" d="M424.6,183.4c.4,1.2,1,3,1,4.7,0,12,0,23.9-.1,36.3-13.5,2.3-26.9,4.1-40.8,6,1.6-4.6,3-9,4.8-13.3.5-1.3,2.1-2.4,3.5-3,5.3-2.1,10.6-3.9,16-5.7,11.7-4.1,16.9-12.2,15.7-25Z"/>
  <path class="cls-52" d="M540.7,192.7c-7.5-2.2-13.2-10-13.2-17.7,0-14.4,0-28.8,0-43.7,4.1,10.7,5.5,12.3,16.5,18.2-1,14.1-2,28.5-3.3,43.2Z"/>
  <path class="cls-71" d="M744.5,499.1c-.3-2-.7-4-.8-6-.4-7.5,3.5-13.9,9.8-16.4,6.3-2.5,13.4-.6,17.6,4.6,4.3,5.4,4.2,11.6-.9,19.3-.3.4-.8.5-1.2.4-8.3-.6-16.3-1.2-24.2-1.8,0,0-.2,0-.3-.2Z"/>
  <path class="cls-34" d="M655.6,514.7c14.5-4.1,28.9-7.9,43.4-11.6,1.9-.5,3.9-.8,6.2-1.2.4-.1.6,0,.7,0,.6,5.1,1.1,10.1,1.2,15.5-17.4.4-34.4.4-51.3.4,0-.9,0-1.8,0-3.1Z"/>
  <path class="cls-9" d="M800.4,318c-.7-1.3-1.1-2.3-1.7-3.6,15-1.2,29.5-2.3,44.2-3.4-8.3,18.6-29.4,22.1-42.4,7Z"/>
  <path class="cls-7" d="M744.8,499.6c7.9.3,15.8.8,24,1.7-3,1.8-6.2,3.2-9.1,4.5,5.7,3.8,11.3,2.7,16.2-3.9,0,0,.3-.1.4-.1,5.6.7,11,1.4,16.8,2.3-10.3,14-33.5,16-44,3.1-1.7-2.1-2.8-4.8-4.3-7.5Z"/>
  <path class="cls-26" d="M875.6,429.1c-1.8-3-3.5-6.1-5.4-9-1.2-1.8-2.6-3.4-3.9-5.2,2.2-3.6,4.6-4.3,8.4-2.4,7.6,3.8,14.9,8.1,21,15.2-4.3,3.7-8.5,7.3-13.3,11.4-2.3-3.7-4.2-6.9-6.5-10-.3,0-.3,0-.3,0Z"/>
  <path class="cls-9" d="M252.1,142.9c2.7-1.6,5.1-3.1,7.5-4.7,2.1,1.5,4.2,2.9,7.4,5.1-8.2,7.1-16.3,14.1-23.6,20.4v-18.1c2.6-.8,5.4-1.7,8.6-2.8Z"/>
  <path class="cls-58" d="M857.5,433c-3.2-4.4-6.5-8.7-9.5-13.3-.7-1.1-1.1-3.6-.6-4.1,1.3-1,3.9-2.1,4.9-1.5,7.7,4.8,15.1,9.9,23,15,.4,0,.3,0,.3,0-1.5,1.6-3,3.2-5,4.6-4.8-.3-8.9-.5-13.1-.6Z"/>
  <path class="cls-76" d="M551.1,400.2c5.7,3.8,11.7,3.2,18.1,1.9-7.5,6.8-15.3,13.6-23.4,20.1-.9.7-3.7,0-4.8-.9-.8-.7-1.1-3.3-.4-4.4,3.2-5.6,6.8-11,10.5-16.6Z"/>
  <path class="cls-48" d="M967.6,406.2c-.2-1.6-.3-3-.1-4.7,3,.6,5.8,1.3,8.2,2.6,8,4.2,15.8,8.6,23.7,12.9-4.8,9.7-4.7,9.6-13,3.1-5.6-4.3-11.4-8.3-17.5-12.5-.7-.4-1-.8-1.4-1.4Z"/>
  <path class="cls-36" d="M454.3,277.2c3.4,22,6.8,43.5,10.1,65.1-.5.2-1,.3-1.5.5-.7-1.8-1.9-3.5-2.2-5.4-3.8-23.1-7.6-46.2-11.3-69.4,0-.4.2-.9.5-1.9,5,2.4,2.7,7.4,4.4,11.1Z"/>
  <path class="cls-51" d="M253.5,297c2,4.2,3.9,8.1,6,12.4-6.6,3.6-10.8-4.6-17.2-1.9v-27.1c.4-.1.7-.3,1.1-.4,3.3,5.6,6.6,11.2,10.1,17.1Z"/>
  <path class="cls-20" d="M815.8,192.2c-.2-9.4-.1-18.5.3-28-1.3,14.2,5.3,24.7,19.2,29.1,2.8.9,3.9,2.1,3,4.7-7.4-1.9-14.8-3.8-22.4-5.9Z"/>
  <path class="cls-80" d="M861.5,370c-2,7.7-4.3,15.4-6.4,22.3-3.6-3.3-8-7.5-12.4-11.6,5.5-3.2,12-6.9,18.8-10.8Z"/>
  <path class="cls-53" d="M1609.4,260.5c-1.9.8-3.8,1.4-5.6,1.5-8.1.1-16.2,0-24.7,0,9.5-3.3,19.5-6.6,29.8-9.9.4,2.7.5,5.3.5,8.5Z"/>
  <path class="cls-14" d="M968.9,233.6c0-2.9,0-5.4,0-9.2,4.3,3.4,8.2,5.8,11.2,9,1.1,1.2.9,4.9-.2,6.5-.9,1.3-4.7,2-5.9,1.2-2.2-1.7-3.5-4.6-5.1-7.5Z"/>
  <path class="cls-17" d="M956.3,367s-.4,0-.6,0c-1.3-4.8-2.3-9.7-3.8-14.3-.3-.8-2.8-1.2-4.3-1.2-19.1-.1-38.3-.1-57.8-.3,19.8-.2,40.1-.2,61.2,0,3.7.1,6.4.1,9.7.1-1.6,5.5-3,10.7-4.4,15.8Z"/>
  <path class="cls-11" d="M322.3,161.8c5.5-4.5,10.7-8.8,16.6-13.6,0,9.1-2.6,12.6-9.5,15-3.7,1.3-7.5,2.6-11.2,3.9-.4-.4-.7-.8-1.1-1.2,1.6-1.2,3.3-2.5,5.1-4Z"/>
  <path class="cls-15" d="M950.3,345.3c-1.7-5.1-3.4-10.3-4.9-15.4-.8-2.7-1.8-4.2-5-4-5.6.3-11.2.1-17.3.2,2.8-.3,6.1-.9,9.5-1.1,3.4-.2,6.9,0,10.8,0,5.8-.5,7.8,1.7,7.2,7-.4,3.7,0,7.5,0,12,0,.9-.1,1.1-.2,1.3Z"/>
  <path class="cls-39" d="M589.1,414.1c-.4-.9-.8-1.9-.6-2.2,3.1-3.6,6.3-7.1,10.3-10.2-1.8,5.2-3.6,10.3-5.6,15.8-1.6-1.3-2.7-2.3-4.2-3.4Z"/>
  <path class="cls-1" d="M1765.3,272.4c.1,6.5.1,13.4,0,20.7-6-5.8-6-5.9-2.3-13.9.9-2.1,1.4-4.3,2.3-6.8Z"/>
  <path class="cls-16" d="M857.5,433.4c4.1-.2,8.3,0,12.7.4-2.4,2.6-5.1,5-8.2,7.6-1.7-2.9-3.1-5.3-4.5-8Z"/>
  <path class="cls-60" d="M775.5,501.7c-4.6,6.8-10.1,7.9-15.9,4.1,2.9-1.3,6.1-2.7,9.5-4.4.2-.3.6-.4.8-.4,1.9.1,3.5.3,5.5.7Z"/>
  <path class="cls-10" d="M701,387c2-2.7,4.5-5.4,7.3-8.4,1.8,2.9,3.4,5.3,5,8-3.9.4-7.9.4-12.3.4Z"/>
  <path class="cls-8" d="M356.3,286.1c-.9-1.8-1.6-3.2-2.4-4.8,5.9-.6,5.2-1.7,6,11.3-1.1-2.1-2.2-4.1-3.6-6.5Z"/>
  <path class="cls-65" d="M1457,258.4c.3.8.3,1.8.2,3.3-.4.4-.5.4-.7.4,0,0,0,0,0,0,.1-1.1.2-2.3.6-3.7Z"/>
  <path class="cls-18" d="M530.6,395c0-.2,0-.4,0-.7.1.1.2.3.1.5-.2,0-.1.1-.1.1Z"/>
  <path class="cls-41" d="M1712,202.5c0,0,0,0,0,0Z"/>
  <path class="cls-65" d="M1348.3,203.9c.4,5.8.9,11.6,1.2,17.4.1,2.9-1.4,4.5-4.5,4.7-12.9.9-25.9,2-38.8,3-9.5.7-18.9,1.4-28.4,2.1-9.3.7-18.5,1.6-27.8,2.3,1.5,21.1,13.2,44.7,34.5,49.9,16.6,4.1,36.8-2.9,47.5-17.2.9-1.2,1.5-2.8,2.6-3.6,1.8-1.2,4.3-3,6-2.6,3.6.9,4,4.6,2.6,7.4-3.1,6-6.1,12.3-10.4,17.4-9.3,10.8-22.1,15.6-35.9,17.7-22.2,3.4-43.9,1.7-63.9-9.5-22.3-12.5-33-32.5-35.5-57.3-.6-5.9,0-12,.4-18.4,16.8-1.8,33.1-3.1,49.6-4,.4,2,.7,3.7.9,5.3.8.1,1.5.3,2.1.3,15.9-1.5,31.8-3.1,47.6-4.4,4.5-.4,5.5-2.9,5.6-6.6,15.1-1.3,29.7-2.7,44.4-4Z"/>
  <path class="cls-72" d="M1029.5,262.2h48.1c0-13.1,0-25.7.3-38.9.4-.9.6-1.3.7-1.6.8,1.6,2.2,3.1,2.3,4.8.4,3.7.1,7.5.1,11.2,7-3.9,13.2-8.2,19.9-11.1,12.8-5.5,26.3-7,40.1-4.6,17.8,3.1,30.9,17.1,34.3,37,1.3,7.8,1.7,15.8,2.3,24.5-17.9,10.7-35.3,10.2-52.4-.7-1.1-6.3-1.7-12.8-3.5-19-5.5-19.2-22-23.5-36.5-9.8-2.9,2.7-4.6,5.7-4.3,10,.4,6.3,0,12.6-.4,19.4-8.5,5.4-17.1,7.8-26.7,7.7-9.3,0-17.3-3.2-25.3-7.3,0-6.7-.1-13.3,0-20.5.5-.7.7-.9.8-1.2Z"/>
  <path class="cls-64" d="M1736.6,267.7c-1.1-.1-2.2-.7-3.3-1.1-4-1.5-7.9-4.2-11.9-4.3-15.6-.5-31.2-.2-47.3.9,4.6,2.3,9.1,4.8,13.8,6.9,14.8,6.7,29.6,13.3,44.4,20,1.5.7,2.8,1.8,4.5,2.9-1.1,3-2.5,5.7-4.1,8.8-9.8,2.7-19.3,6.4-29.1,7.1-13.3,1.1-26.8.6-40.1-.6-8.3-.7-16.3-4-24.9-6.1-13.6-9.9-17.6-23.6-16.2-39.8,16.5-.4,33-.4,48.7-.4-1-4.2-3.1-8.4-2.9-12.6.4-9.5,7.7-14.8,19.2-15.4,21.1-1.1,35.7,9.1,46,26.6,1.2,2.1,2.2,4.4,3.2,7Z"/>
  <path class="cls-65" d="M1412.5,294c0,15.8.1,31.6.3,47.4,0,4,.3,8,.8,11.9,2,15,13.8,21.6,28.7,16.2,2.8-1,5.2-2.9,8-4,1.7-.6,3.7-.4,5.6-.6-.2,2,.3,4.6-.7,5.9-8.1,10-18.5,16.8-31.2,19.1-14.2,2.6-28.2,1.1-41.4-4.8-13.5-6-21.1-16.8-21.8-31.4-.9-19.6-.7-39.2-.5-59.2,17.8,4,35.1,3.8,52.4-.5Z"/>
  <path class="cls-38" d="M1348.3,203.6c-14.7,1.7-29.3,3.1-44.5,4-1.8-12.2-5.5-23.1-12.8-32.4-4.3-5.5-9.1-10.7-17.1-10.4-11.3.4-19.5,6.2-22.2,17.8-2.3,9.9-2.9,20.3-4.2,30.4-16.3,1.3-32.6,2.6-49.4,4,1.4-20.8,10-38.2,26.2-51.6,29.4-24.1,76.7-22.9,104.2,2.7,10.3,9.6,16.6,21.4,19.7,35.5Z"/>
  <path class="cls-65" d="M1125.1,283.3c17.2,10.5,34.6,11,52.5.7.4,1.9.7,4,.7,6.1,0,20.3,0,40.6,0,60.9,0,9.6,1.4,11.3,10.9,13.4,1.3.3,2.9,0,3.9.7,1.5,1.1,2.7,2.8,4,4.2-1.5.9-3.1,2.5-4.6,2.5-17.6.2-35.3.1-52.9.1-8.7,0-17.3.1-26-.1-1.4,0-2.8-1.8-4.2-2.8,1.2-1.3,2.2-3.6,3.5-3.9,10.1-1.8,12.5-1.7,12.5-16.2-.1-21.8-.3-43.6-.3-65.8Z"/>
  <path class="cls-65" d="M1028.5,284.4c8,3.7,16.1,6.7,25.4,6.8,9.6,0,18.2-2.3,26.6-7.3.5,2.7.7,5.5.8,8.3,0,19.8,0,39.7,0,59.5,0,9.9,1.3,11.4,10.9,13.2.7.1,1.6,0,1.9.4,1.1,1.2,2.1,2.6,3.1,3.9-1.3.9-2.7,2.6-4,2.6-10.8.2-21.7.1-32.5.1-15.5,0-31,0-46.5-.1-1.6,0-4.2-1.5-4.6-2.8-.8-3,1.8-3.8,4.3-4.1.5,0,1,0,1.5-.2,11.2-2,13-4.1,13-15.5,0-21.5,0-43,.1-65Z"/>
  <path class="cls-38" d="M1215.2,478.7c17.3-22.6,34.6-45.2,52-67.8,4.1-5.4,8.3-10.7,13.1-17-6.8,0-12.5,0-18.2,0-10.7,0-21.3,0-32,0q-5.9,0-5.1-6.7h94.9c-12.4,16.2-24,31.4-36,46.5,0-2.8.2-5.3.7-9.2-17.1,22.5-33.4,44-50.3,66.2-6.5-4.1-12.8-8-19.1-12Z"/>
  <path class="cls-56" d="M1134.5,513c-3.4-.4-6.8-.8-10.6-1.2-2.5-.9-4.6-1.8-6.7-2.7-10.5-4.5-16-14.9-13.5-25.5,2.4-10,12.4-17.3,23.1-16.9,7.6.3,13.1,5.6,13.4,12.8.3,6.8-4.6,12.6-11.4,13.6-7.5,1.1-13.4-2.9-15.3-10.2-.2-.7-.3-1.5-.5-3-3.2,4.5-3.8,8.8-2.2,13.2,1.8,4.9,6,7.1,10.8,7.7,13.2,1.7,24-3.6,33.4-12.4,10.7-10.1,18.1-22.5,24.5-35.5,1.9-3.9,3.7-5.4,8.3-4.2,6.5,1.8,13.2,2.7,20.8,4.1-3.2,6.1-6,11.3-9.2,16.9-.7.6-.8.8-.8,1.2,0,0,0,0-.4,0-4.1,2.5-8.3,4.6-11.3,7.8-4,4.3-7.5,9.2-10.6,14.2-5.3,8.3-13.8,11.9-22.2,16.3-6.7,1.2-13.1,2.5-19.5,3.7Z"/>
  <path class="cls-77" d="M1561.3,420.2c5.6,2,10.9,3.9,16.1,5.8,0,.4,0,.8,0,1.1-7.6,2.7-15.2,5.6-22.9,7.9-5.7,1.7-8.9,4.8-10.6,10.6-2.1,7.6-5.1,15-8.1,23.6-1.1-1.9-1.8-2.9-2.2-4-2.5-7-5-14.1-7.3-21.2-1.4-4.3-3.8-6.9-8.3-8.3-8.2-2.5-16.2-5.6-25.3-8.8,1.7-1,2.6-1.6,3.5-2,7.3-2.6,14.7-5.4,22.1-7.7,4-1.3,6.4-3.5,7.7-7.6,2.7-8.3,5.7-16.5,9.9-25,.8,2.2,1.7,4.4,2.5,6.6,2,5.8,4.3,11.5,6,17.4,1.4,4.9,4.2,7.7,9,8.9,2.6.6,5,1.7,7.9,2.7Z"/>
  <path class="cls-64" d="M950.3,345.6c0-.5,0-.7.2-1.2,14.4-.3,28.8-.3,43.9-.3-3.7,17.8-9.9,33.4-20.7,46.7,12,2.6,23.7,5.2,36.7,8.1-4.1,6.9-7.3,12.2-10.8,17.8-8.1-4-16-8.4-24-12.6-2.5-1.3-5.2-1.9-8.3-2.9-.7-.2-.8-.5-1-1-3.3-11-6.5-21.7-9.9-32.9,1.3-5.5,2.7-10.6,4.3-16.1-3.2,0-6,0-9.3-.1-.7-1.8-.9-3.5-1.2-5.5Z"/>
  <path class="cls-72" d="M1412.6,293.5c-17.4,4.8-34.7,4.9-52.4.5-.4-10.4-.5-20.8-.7-31.6,17.3-.4,34.7-.4,52.5-.4.5,10.3.6,20.7.5,31.5Z"/>
  <path class="cls-56" d="M1063.7,467.9v-25.1c-3.4,0-6.3,0-9.2,0-13.2,0-26.3,0-39.5,0q-6,0-5.2-6.6h118.4v6.4h-36.7c0,8.5,0,16.4-.5,24.9-9.5,4-18.4,3.5-27.4.4Z"/>
  <path class="cls-62" d="M1279.3,483.1c-.3,0-.5-.2-.7-1.1-.8-2.6-1.8-4.6-2.3-6.6-.8-3.2-2.4-6.6,1-9.4,4.2,9.7,9.6,18.3,20.7,21.4,7.3,2,14.5,1.9,20.9-2.8,6.1-4.5,8.2-12,5.3-19.3-2.2,5.7-5.5,10-11.6,11.3-6.3,1.3-11.6-.3-15.7-5.2-4-4.7-4.7-10.3-2.3-15.9,2.5-5.9,7.3-8.9,13.6-9.3,12.6-.8,23.3,8.7,24.3,21.4,1.2,14.6-7.8,26.1-21.5,27.4-9.9.9-19.2-.7-27.5-7.7-.6-.7-.9-.9-1.3-1,0,0,.2,0,0-.3-.4-.4-.7-.6-1-.7,0,0,.1,0,0-.3-.4-.4-.7-.6-1-.8,0,0,0,0,0-.3-.4-.4-.7-.6-1.1-.8Z"/>
  <path class="cls-65" d="M1063.6,468.4c9,2.6,18,3.2,27.4-.4,1.3,12.7-1.6,24.3-11,33.5-1.5,1.5-3.4,2.5-5.3,4-.2.3-.6.5-1.2.3-7-1.3-13.5-2.5-19.9-3.7,6.9-5,9.4-12.2,9.8-20.3.2-4.3,0-8.7.2-13.5Z"/>
  <path class="cls-25" d="M1021.5,499.9s-.4-.2-.4-.3c-3.2-8.1-4-16.2.5-24,3.5-6,8.7-9.5,15.8-9.6,6.9-.1,12.9,3.9,14.8,9.6,2,6.1-.3,13.6-5.1,17.1-5.4,4-12.2,3.8-18-.3-.7-.5-1.3-.9-3.1-.8,1.2,2.5,2.3,5.1,3.2,8-2.7.3-5.2.3-7.6.3M1026,489.8v-.3c0,0-.1,0,0,.3Z"/>
  <path class="cls-22" d="M1277.3,465.6c-3.4,3.2-1.8,6.6-1,9.7.5,2.1,1.5,4,2.2,6.4-4.3-7.4-8.6-15.3-13.1-23.4-3.9,5-8.4,10.8-12.9,16.6-4.9,6.3-9.8,12.6-14.5,19-2.1,2.8-4.2,3.7-7.6,2.5-7.5-2.6-15-4.8-23.4-7.4,3-3.8,5.4-6.9,8-10.2,6.5,3.7,12.8,7.7,19.3,11.8,16.9-22.2,33.1-43.6,50.3-66.2-.4,3.9-.7,6.5-1,9.4-2.3,3.6-4.4,7-7,10-2.7,3.2-3.8,6.3-2.3,10.4,1.3,3.5,2,7.3,3,11.3Z"/>
  <path class="cls-21" d="M1456.7,262.4c0-.3.2-.3.6-.3.3,0,.3,0,.4.2.3,0,.6,0,.8,0,35.4,0,70.7,0,106.6-.1-.3,1-.9,2.7-1.9,2.9-6.9,1.5-13.9,3.7-20.9,3.9-25.2.7-50.5.8-75.7,1.1-2.8,0-5.6-.6-8.8-.9-.6-2.1-.8-4.1-1.1-6.6Z"/>
  <path class="cls-49" d="M1110.4,409.2c-30.8,0-61,0-91.2,0-1.6-6.7-1.3-7.1,4.8-7.1,29.5,0,59,0,88.4,0,5.8,0,5.9.2,4.7,7.1-2,0-4.1,0-6.7,0Z"/>
  <path class="cls-79" d="M1154.4,509.3c8-4.4,16.6-8,21.8-16.3,3.2-5,6.6-10,10.6-14.2,3-3.2,7.2-5.3,11.3-7.8-4.7,6.9-9.5,14-14.9,20.5-2.4,2.9-3.8,5.4-3.6,9.2.3,4.4,0,8.9.1,13.9,0,.5,0,.5-.6.5-8.6,0-16.6,0-24.6,0,0,0,0,0,0-.4,0-2.1,0-3.7-.1-5.4Z"/>
  <path class="cls-40" d="M1021.6,500.3c2.3-.3,4.8-.3,7.6-.3.6,0,.8,0,1.4.4,7,5.2,13.9,6.5,21.4,2.4.2-.1.5-.3,1.2-.5,6.9,1.1,13.3,2.3,20.1,3.7-4.7,2.3-9.6,5.5-14.9,6.4-11,1.8-22.2,1.8-31.6-5.7-2-1.6-3.4-4-5.2-6.3Z"/>
  <path class="cls-45" d="M1356.1,237.5c.4,4.8.4,9.7.4,15.1-4.3.5-8.6.4-12.9.6-3.9.1-5.1-2.4-5.8-5.5-.7-3.3,1.3-4.8,4.1-5.7,4.6-1.4,9.1-2.9,14.1-4.4Z"/>
  <path class="cls-33" d="M1051.7,502.6c-7.1,4.3-14,3-20.8-2.1,6.7.4,13.6,1.2,20.8,2.1Z"/>
  <path class="cls-13" d="M1356.4,253.4c1.2.5,2.8,1.2,3.2,2.4.5,1.6.1,3.5,0,5.7-1.1-.5-2.8-1.2-3.1-2.4-.5-1.6-.2-3.5-.1-5.7Z"/>
  <path class="cls-22" d="M1282.4,486.4c.2-.1.6,0,1,.5-.2.1-.6,0-1-.5Z"/>
  <path class="cls-64" d="M1029.2,262.1c.1.3,0,.5-.5.8-.2,0-.3-.2-.3-.7.2-.2.4-.2.8-.1Z"/>
  <path class="cls-22" d="M1281.4,485.4c.2,0,.6,0,.9.5-.3,0-.6,0-.9-.5Z"/>
  <path class="cls-22" d="M1280.4,484.4c.2,0,.6,0,.9.5-.2,0-.5,0-.9-.5Z"/>
  <path class="cls-22" d="M1279.4,483.3c.2,0,.6,0,1,.5-.2,0-.6,0-1-.5Z"/>
  <path class="cls-79" d="M1198.7,470.9c-.2-.3,0-.5.4-.8.3.3.1.5-.4.8Z"/>
  <path class="cls-64" d="M1078.2,221.6c.1.4,0,.7-.3,1.2-.3,0-.3-.2-.4-.6.1-.4.3-.5.7-.6Z"/>
  <path class="cls-57" d="M1657.6,513.6c16.6.2,33.2.9,50.3,1.6.5,6,.6,12,.6,18,0,4.1-1.5,6.3-6.3,6-14.2-.9-28.3-1.5-42.5-2-2.8-.1-3.3-1.5-3.2-3.8.4-6.4.7-12.8,1.1-19.7Z"/>
  <path class="cls-57" d="M655.6,518.2c17-.4,33.9-.4,51.3-.4,1.1,5,1.7,10.1,2.5,16.1-17.1,1.8-34,3.6-51.5,5.4-.8-7.3-1.6-14-2.4-21.1Z"/>
  <path class="cls-28" d="M1179.5,518.9c0,9.5,0,18.9.2,28.4,0,2.8-1.1,3.8-3.8,3.7-5.6-.1-11.3-.2-16.9,0-3.7.1-4.5-1.5-4.4-4.8.2-8.8,0-17.6.6-26.9,8.5-.5,16.5-.5,24.4-.5Z"/>
  <path class="cls-50" d="M1179.5,518.6c-8,.4-16,.4-24.4.4-.5-1-.6-2.1-.6-3.5,8-.4,16.1-.4,24.6-.4.5,1.1.5,2.1.5,3.5Z"/>
  <path class="cls-69" d="M1154,509.3c.4,1.7.5,3.3.5,5.4-6.5,0-13-.5-19.7-1.3,6.2-1.6,12.5-2.8,19.3-4.1Z"/>
  <path class="cls-35" d="M850.7,512.4c3.3,0,6.7.3,10.5.7-1.9,1.7-4.3,3.2-7.2,5.2-1.2-2.1-2.3-3.8-3.4-5.8Z"/>
  <path class="cls-12" d="M661.5,253.6c-.6,13.9-1.2,27.3-2.1,40.7-.2,3.3-1.4,6.5-2.5,9.6-2.8,8-7.1,14.8-16.4,16.3-9.4,1.6-16.5-2.5-22.4-9.3-7.6-8.8-11-19.4-10.9-30.9,0-11.3.9-22.6,1.4-34.4.6-7.2,1.3-14,1.7-20.8.5-9,3.8-16.5,12.5-19.8,9.1-3.5,17.1-.3,23.5,6.6,7.4,7.9,10.7,17.9,13,28.2,1,4.4,1.4,8.9,2.1,13.7M640.3,287.7c1.9-14.9,2.4-29.8-.9-44.6-1.4-6.5-3.4-12.9-9.2-19-1.1,18.9-2.2,36.6-3,54.3-.2,3.8,1.3,7.7,2.2,12.3,2,3.2,4,6.4,6,9.6.5-.1,1-.2,1.5-.3.9-3.9,1.9-7.8,3.3-12.3Z"/>
  <path class="cls-23" d="M826.6,273.6c-1.4,1.7-2.8,3.8-4.4,4-16.4,1.7-32.9,3.2-49.3,4.6-.7,0-1.4-1.5-2.2-2.7,1.3-11.5,1.7-22.9,4.1-33.8,2.5-11.7,10.7-17.3,22.2-17.8,7.8-.3,12.6,4.4,16.9,9.9,8.1,10.4,12.2,22.3,12.8,35.9M801.2,259.4c.4-.8,1.3-2,1-2.5-1.8-3.1-3.8-6.1-5.7-9.2-.5,0-1,0-1.5.1-1.1,3.9-2.3,7.8-3.6,12.4,3.7-.3,6.3-.5,9.8-.8Z"/>
  <path class="cls-68" d="M905.1,148.4c-1.1-2.2-2.1-4.1-3.2-6.4,10.5-3.2,20.5-3.1,31.1.6-2.7,4.6-4.9,9.3-8,13.3-4.3,5.6-12.1,5.1-16.1-.7-1.4-2-2.4-4.3-3.8-6.8Z"/>
  <path class="cls-29" d="M1552.7,254.2c-15.1,1.4-29.8,2.9-45,4.3-.5-14.5-.1-27.9,5-40.9,5.3-13.3,25-21,37.5-4.3,7.9,10.6,12.1,22.4,13,35.5.2,3.1-1.1,4.8-4.1,5-2,.2-4,.2-6.4.4M1534.8,226.3c-.8-.7-1.6-1.5-3-2.8-1.3,4.5-2.4,8.3-3.7,12.9,4.6-.4,8-.7,12.3-1.1-2.1-3.4-3.6-5.9-5.6-9Z"/>
  <path class="cls-37" d="M1574,262.1c-1.2.2-2.9.4-4.5.3,1.3-.3,2.7-.4,4.5-.3Z"/>
  <path class="cls-37" d="M1458.2,262.1c0,.1-.3.2-.6.2,0-.1.4-.2.6-.2Z"/>
  <path class="cls-64" d="M1737.6,269.7c-.7-.2-1.2-.6-1.5-1.4.7.2,1.1.6,1.5,1.4Z"/>
  <path class="cls-64" d="M1738.5,270.7c-.3.2-.7,0-1.1-.4.4-.2.7,0,1.1.4Z"/>
  <path class="cls-44" d="M1247.6,213.3c1.2-10.5,1.8-20.9,4.1-30.8,2.7-11.6,10.8-17.3,22.2-17.8,8-.3,12.8,4.9,17.1,10.4,7.3,9.4,11,20.3,12.4,32.5.4,4.1-.5,6.6-5.1,7-15.9,1.3-31.8,2.9-47.6,4.4-.6,0-1.3-.2-2.1-.3-.3-1.7-.5-3.3-.9-5.3Z"/>
  <path class="cls-67" d="M1025.9,489.7c0,0,.1-.2.1-.2,0,0,0,.3-.1.2Z"/>
  <path class="cls-31" d="M629.4,290c-.7-3.9-2.2-7.8-2.1-11.6.7-17.7,1.9-35.4,3-54.3,5.8,6,7.7,12.5,9.2,19,3.2,14.8,2.8,29.7.3,44.7-2.6-6-3.9-12.4-8.8-17.4-.5,6.9-1,13.2-1.5,19.6Z"/>
  <path class="cls-10" d="M629.5,290.3c.4-6.7.9-13.1,1.4-20,4.9,5.1,6.2,11.5,8.6,17.7-.6,4.1-1.5,8-2.5,11.8-.5.1-1,.2-1.5.3-2-3.2-4-6.4-6.1-9.9Z"/>
  <path class="cls-24" d="M800.8,259.5c-3,.3-5.7.5-9.3.8,1.3-4.6,2.5-8.5,3.6-12.4.5,0,1,0,1.5-.1,1.9,3.1,3.9,6.1,5.7,9.2.3.5-.6,1.6-1.4,2.5Z"/>
  <path class="cls-11" d="M1535,226.6c1.8,2.8,3.3,5.3,5.3,8.7-4.3.4-7.8.7-12.3,1.1,1.3-4.6,2.4-8.4,3.7-12.9,1.5,1.4,2.3,2.1,3.3,3.1Z"/>
</svg>