<?xml version="1.0" encoding="UTF-8"?>
<svg id="Layer_1" data-name="Layer 1" xmlns="http://www.w3.org/2000/svg" version="1.1" viewBox="0 0 1920 671">
  <defs>
    <style>
      .cls-1 {
        fill: #94d62d;
      }

      .cls-1, .cls-2, .cls-3, .cls-4, .cls-5, .cls-6, .cls-7, .cls-8, .cls-9, .cls-10, .cls-11, .cls-12, .cls-13, .cls-14, .cls-15, .cls-16, .cls-17, .cls-18, .cls-19, .cls-20, .cls-21, .cls-22, .cls-23, .cls-24, .cls-25, .cls-26, .cls-27, .cls-28, .cls-29, .cls-30, .cls-31, .cls-32, .cls-33, .cls-34, .cls-35, .cls-36, .cls-37, .cls-38, .cls-39, .cls-40, .cls-41, .cls-42, .cls-43, .cls-44, .cls-45, .cls-46, .cls-47, .cls-48, .cls-49, .cls-50, .cls-51, .cls-52, .cls-53, .cls-54, .cls-55, .cls-56, .cls-57, .cls-58, .cls-59, .cls-60, .cls-61, .cls-62, .cls-63, .cls-64, .cls-65, .cls-66, .cls-67, .cls-68, .cls-69, .cls-70, .cls-71, .cls-72, .cls-73, .cls-74, .cls-75, .cls-76, .cls-77, .cls-78, .cls-79, .cls-80, .cls-81, .cls-82, .cls-83, .cls-84, .cls-85, .cls-86, .cls-87, .cls-88, .cls-89, .cls-90, .cls-91, .cls-92, .cls-93, .cls-94, .cls-95, .cls-96, .cls-97, .cls-98, .cls-99, .cls-100, .cls-101, .cls-102, .cls-103, .cls-104, .cls-105, .cls-106, .cls-107, .cls-108, .cls-109, .cls-110, .cls-111, .cls-112, .cls-113, .cls-114, .cls-115, .cls-116, .cls-117, .cls-118, .cls-119, .cls-120, .cls-121, .cls-122, .cls-123, .cls-124, .cls-125, .cls-126, .cls-127, .cls-128, .cls-129, .cls-130, .cls-131, .cls-132, .cls-133, .cls-134, .cls-135, .cls-136, .cls-137, .cls-138, .cls-139, .cls-140, .cls-141, .cls-142, .cls-143, .cls-144, .cls-145, .cls-146, .cls-147, .cls-148, .cls-149, .cls-150, .cls-151, .cls-152, .cls-153, .cls-154, .cls-155, .cls-156, .cls-157, .cls-158, .cls-159, .cls-160, .cls-161, .cls-162, .cls-163, .cls-164, .cls-165, .cls-166, .cls-167, .cls-168, .cls-169, .cls-170, .cls-171, .cls-172, .cls-173, .cls-174, .cls-175, .cls-176, .cls-177, .cls-178, .cls-179, .cls-180, .cls-181, .cls-182 {
        stroke-width: 0px;
      }

      .cls-2 {
        fill: #41ccaf;
      }

      .cls-3 {
        fill: #90d539;
      }

      .cls-4 {
        fill: #31b4bd;
      }

      .cls-5 {
        fill: #dee806;
      }

      .cls-6 {
        fill: #8cd334;
      }

      .cls-7 {
        fill: #2d94d3;
      }

      .cls-8 {
        fill: #c2e609;
      }

      .cls-9 {
        fill: #70c94a;
      }

      .cls-10 {
        fill: #2fb5bc;
      }

      .cls-11 {
        fill: #a1db23;
      }

      .cls-12 {
        fill: #9cd926;
      }

      .cls-13 {
        fill: #bde50f;
      }

      .cls-14 {
        fill: #05b7fa;
      }

      .cls-15 {
        fill: #d3e901;
      }

      .cls-16 {
        fill: #d4ec2d;
      }

      .cls-17 {
        fill: #86d13b;
      }

      .cls-18 {
        fill: #92ea4a;
      }

      .cls-19 {
        fill: #99d85a;
      }

      .cls-20 {
        fill: #daed2a;
      }

      .cls-21 {
        fill: #31bdb7;
      }

      .cls-22 {
        fill: #fbfdfe;
      }

      .cls-23 {
        fill: #ccea03;
      }

      .cls-24 {
        fill: #b9e342;
      }

      .cls-25 {
        fill: #2a93d2;
      }

      .cls-26 {
        fill: #9ad834;
      }

      .cls-27 {
        fill: #32c7c1;
      }

      .cls-28 {
        fill: #30afc1;
      }

      .cls-29 {
        fill: #22c1d6;
      }

      .cls-30 {
        fill: #9eda25;
      }

      .cls-31 {
        fill: #c1e609;
      }

      .cls-32 {
        fill: #95d72f;
      }

      .cls-33 {
        fill: #abde1d;
      }

      .cls-34 {
        fill: #51d29b;
      }

      .cls-35 {
        fill: #92d533;
      }

      .cls-36 {
        fill: #acdf4e;
      }

      .cls-37 {
        fill: #d5e902;
      }

      .cls-38 {
        fill: #fdfefd;
      }

      .cls-39 {
        fill: #2d9fcb;
      }

      .cls-40 {
        fill: #cee902;
      }

      .cls-41 {
        fill: #bfe50e;
      }

      .cls-42 {
        fill: #52b5d0;
      }

      .cls-43 {
        fill: #a0da27;
      }

      .cls-44 {
        fill: #4da6d8;
      }

      .cls-45 {
        fill: #aef426;
      }

      .cls-46 {
        fill: #cee901;
      }

      .cls-47 {
        fill: #2ac4cc;
      }

      .cls-48 {
        fill: #9fda25;
      }

      .cls-49 {
        fill: #c4fc0c;
      }

      .cls-50 {
        fill: #b9e440;
      }

      .cls-51 {
        fill: #32b9ba;
      }

      .cls-52 {
        fill: #b0e017;
      }

      .cls-53 {
        fill: #2c9eca;
      }

      .cls-54 {
        fill: #92d52f;
      }

      .cls-55 {
        fill: #2ea9c4;
      }

      .cls-56 {
        fill: #c6e836;
      }

      .cls-57 {
        fill: #aedf1a;
      }

      .cls-58 {
        fill: #9aed40;
      }

      .cls-59 {
        fill: #2d9dcc;
      }

      .cls-60 {
        fill: #2d98cf;
      }

      .cls-61 {
        fill: #76cb47;
      }

      .cls-62 {
        fill: #b5e213;
      }

      .cls-63 {
        fill: #8ed437;
      }

      .cls-64 {
        fill: #cdff04;
      }

      .cls-65 {
        fill: #75df6e;
      }

      .cls-66 {
        fill: #b6e212;
      }

      .cls-67 {
        fill: #c5e70b;
      }

      .cls-68 {
        fill: #9dd929;
      }

      .cls-69 {
        fill: #96d73f;
      }

      .cls-70 {
        fill: #c9e908;
      }

      .cls-71 {
        fill: #81cf3f;
      }

      .cls-72 {
        fill: #acdf19;
      }

      .cls-73 {
        fill: #dfe801;
      }

      .cls-74 {
        fill: #62d886;
      }

      .cls-75 {
        fill: #fbfef6;
      }

      .cls-76 {
        fill: #a9de20;
      }

      .cls-77 {
        fill: #b3f626;
      }

      .cls-78 {
        fill: #d0e902;
      }

      .cls-79 {
        fill: #2b8ed5;
      }

      .cls-80 {
        fill: #80cf4d;
      }

      .cls-81 {
        fill: #a5dc1f;
      }

      .cls-82 {
        fill: #26c0f5;
      }

      .cls-83 {
        fill: #d5e904;
      }

      .cls-84 {
        fill: #30acc3;
      }

      .cls-85 {
        fill: #84d03a;
      }

      .cls-86 {
        fill: #a6dd23;
      }

      .cls-87 {
        fill: #cafe04;
      }

      .cls-88 {
        fill: #8bd33a;
      }

      .cls-89 {
        fill: #2c91d5;
      }

      .cls-90 {
        fill: #51bfc8;
      }

      .cls-91 {
        fill: #2c96d1;
      }

      .cls-92 {
        fill: #7fcf43;
      }

      .cls-93 {
        fill: #8ed43b;
      }

      .cls-94 {
        fill: #2eaec0;
      }

      .cls-95 {
        fill: #2fa3c9;
      }

      .cls-96 {
        fill: #95d72e;
      }

      .cls-97 {
        fill: #74cb4d;
      }

      .cls-98 {
        fill: #2eabc3;
      }

      .cls-99 {
        fill: #b8e311;
      }

      .cls-100 {
        fill: #aedf1d;
      }

      .cls-101 {
        fill: #2e98d0;
      }

      .cls-102 {
        fill: #d9e904;
      }

      .cls-103 {
        fill: #90d536;
      }

      .cls-104 {
        fill: #2ca5c6;
      }

      .cls-105 {
        fill: #2facc2;
      }

      .cls-106 {
        fill: #dbe905;
      }

      .cls-107 {
        fill: #2a92d2;
      }

      .cls-108 {
        fill: #a3f036;
      }

      .cls-109 {
        fill: #fefef9;
      }

      .cls-110 {
        fill: #b3e114;
      }

      .cls-111 {
        fill: #97d72a;
      }

      .cls-112 {
        fill: #8ad335;
      }

      .cls-113 {
        fill: #70c94c;
      }

      .cls-114 {
        fill: #2da0ca;
      }

      .cls-115 {
        fill: #bfe50c;
      }

      .cls-116 {
        fill: #49d0a5;
      }

      .cls-117 {
        fill: #9eda28;
      }

      .cls-118 {
        fill: #2dabc2;
      }

      .cls-119 {
        fill: #b6f71d;
      }

      .cls-120 {
        fill: #0bb9f2;
      }

      .cls-121 {
        fill: #82d048;
      }

      .cls-122 {
        fill: #8be753;
      }

      .cls-123 {
        fill: #2da6c6;
      }

      .cls-124 {
        fill: #a9f22e;
      }

      .cls-125 {
        fill: #5ad598;
      }

      .cls-126 {
        fill: #12bce9;
      }

      .cls-127 {
        fill: #e6e706;
      }

      .cls-128 {
        fill: #addf1a;
      }

      .cls-129 {
        fill: #0db9ff;
      }

      .cls-130 {
        fill: #2eb6bb;
      }

      .cls-131 {
        fill: #76cb4e;
      }

      .cls-132 {
        fill: #75cb48;
      }

      .cls-133 {
        fill: #a7dd1e;
      }

      .cls-134 {
        fill: #71ca4c;
      }

      .cls-135 {
        fill: #a2db22;
      }

      .cls-136 {
        fill: #2fa8c5;
      }

      .cls-137 {
        fill: #2c9dcc;
      }

      .cls-138 {
        fill: #89d23c;
      }

      .cls-139 {
        fill: #7ee265;
      }

      .cls-140 {
        fill: #2ca4c7;
      }

      .cls-141 {
        fill: #31aac5;
      }

      .cls-142 {
        fill: #2c9acd;
      }

      .cls-143 {
        fill: #d5ea09;
      }

      .cls-144 {
        fill: #98d82e;
      }

      .cls-145 {
        fill: #f3f8ff;
      }

      .cls-146 {
        fill: #31a9c6;
      }

      .cls-147 {
        fill: #bee511;
      }

      .cls-148 {
        fill: #e9e706;
      }

      .cls-149 {
        fill: #96d731;
      }

      .cls-150 {
        fill: #2ea6c6;
      }

      .cls-151 {
        fill: #2c9dcb;
      }

      .cls-152 {
        fill: #84e55b;
      }

      .cls-153 {
        fill: #a6dd1e;
      }

      .cls-154 {
        fill: #3acab8;
      }

      .cls-155 {
        fill: #2b93d2;
      }

      .cls-156 {
        fill: #92d62e;
      }

      .cls-157 {
        fill: #fdfefc;
      }

      .cls-158 {
        fill: #2c9ecb;
      }

      .cls-159 {
        fill: #9dd926;
      }

      .cls-160 {
        fill: #7bcd41;
      }

      .cls-161 {
        fill: #d3e905;
      }

      .cls-162 {
        fill: #83d03d;
      }

      .cls-163 {
        fill: #2eadc1;
      }

      .cls-164 {
        fill: #c8e804;
      }

      .cls-165 {
        fill: #d0e905;
      }

      .cls-166 {
        fill: #abdf4b;
      }

      .cls-167 {
        fill: #19bee1;
      }

      .cls-168 {
        fill: #edea2c;
      }

      .cls-169 {
        fill: #c1e60a;
      }

      .cls-170 {
        fill: #f1e92c;
      }

      .cls-171 {
        fill: #7dce40;
      }

      .cls-172 {
        fill: #addf1e;
      }

      .cls-173 {
        fill: #2b95d1;
      }

      .cls-174 {
        fill: #6cdc79;
      }

      .cls-175 {
        fill: #e2eb2b;
      }

      .cls-176 {
        fill: #bdf915;
      }

      .cls-177 {
        fill: #52c19f;
      }

      .cls-178 {
        fill: #58d591;
      }

      .cls-179 {
        fill: #7dce3f;
      }

      .cls-180 {
        fill: #9bd927;
      }

      .cls-181 {
        fill: #72ca4c;
      }

      .cls-182 {
        fill: #31aec2;
      }
    </style>
  </defs>
  <path class="cls-38" d="M1115.5,1c27.7,0,55.4,0,83.2.3.5.7.8,1.3,1.2,1.4,10,1.1,18.3,5.4,25.4,12.9,7.5-6.9,15.6-12.1,25.9-12.9.1,0,.2-1.1.2-1.7,2.7,0,5.4,0,8.2.3.6.8,1,1.6,1.5,1.6,11.5.8,19.9,7.2,27.6,15,15.4,15.5,30.8,30.9,46.4,46.2,1.6,1.6,4.5,2.8,6.8,2.8,14.8.3,29.6.2,44.4.2,10.2,0,18.8,4.2,26.1,11,10.3,9.6,13.4,21.7,11.7,35.6-1.7,9.1-5.8,16.5-12.2,22.8-8.3,8.2-16.5,16.5-24.7,24.7-1.1,1.1-2.1,2.3-3.3,3.7,4.9,2.3,9.2,4.3,13.6,6.2.9.4,2.4.5,3.2,0,7.1-4.2,14.1-8.6,21.5-13,5.1-2.9,9.8-5.8,14.6-8.5,19-10.5,41.7-7,54.1,10.8,12.1,17.4,21.9,36.2,29.6,56,6.1,15.8,13.3,31.2,19.6,46.9,3.6,8.9,8.9,17.4,8.5,28-1.1,6.2-1.3,12.4-3.6,17.7-2.1,4.9-1.8,9-.3,13.9,1.8,0,3.4,0,5.4,0,13,3.1,23.8,9.4,28.4,21.8,4.2,11.6,6.2,24,9.2,36.5,1.4,19.8-7.5,33.2-22.8,41.7,1.6,7.9,3.2,15.1,4.6,22.4.5,2.6.7,5.2,1,8.3,0,4.4,0,8.5-.3,12.7-1.8,5.1-3.6,10-5.1,14.8-4.8,15.3-15.3,24.4-31.1,28.2-13.1.7-25.7,3.6-38.6-.2-3.2-.9-6.6-3.1-8.8-2.2-10.3,4.2-21,5.7-32.4,5.9-1.8.6-3.3,1.2-4.5,2.1-11.5,9.4-24.4,13.1-39.4,10-4.8-2.3-10-3.6-13.6-6.8-7.4-6.6-16.3-6.2-25.4-7.3-2.1-1-3.9-2.5-5.7-2.5-6.9,0-13.9.6-21,1,0,11.5,0,22.6,0,34.2,0,6.4-.1,12.4-.3,18.7-1.3,8.8-4.1,16.6-10,22.8-15.4,15.8-31.1,31.3-47,47-15.1,8.4-29.8,8.1-44.6-.5-5.1-4.2-10-8.1-14.8-11.9-13.1,14.3-17.7,17.1-32.7,18.5-11.2.1-20.4-3.8-28.4-10.8-3.1-2.7-6-5.7-9.1-8.8-9.1-9.4-18-18.6-27.2-27.4-6.9-6.6-11.9-14.1-14.4-23.8,0-11.7,0-23,0-34.9-17.3,1-33.3,1.9-49.8,2.8-8.4.2-16.3.8-24.3.6-7.7-.2-7.7-.6-9.3,7.2,0,.3,0,.7-.1,1-2.7,14.4-5.4,28.9-18.4,38.8-8.3,5.5-17,8.1-26.6,8.4-9.6.2-19.3,1.2-29.4,1.8-20.5,1-40.5,2.1-61,3.2-2.6.1-4.7.2-6.9.4-14.6,1.4-28.8.9-40.9-9.7-2.2-2.7-4.1-5.2-6.3-7.4-1-1.1-2.6-2.3-3.9-2.3-11.2-.1-22.4,0-34.1,0-11.4-.2-22.3-.3-33.2-.3-1.3,0-2.8.8-3.8,1.6-4.3,3.3-8.4,6.8-13,10.3-7.5,1.4-14.6,3.6-21.7,3.7-8.6.1-17.2-1.5-26.1-2.6-5-2.4-9.4-5.5-14.2-6.7-4.9-1.2-10.5-1.4-15.2-.1-4.8,1.3-8.9,4.9-13.7,7.6-6.5.5-12.6,1.2-18.7,1.2-9.3,0-18.5-.5-28.2-.9-11.4.1-21.7-2.5-29.3-8.1-7.4,4.4-13.8,8.3-20.7,12.2-8.1.5-15.7,1.3-23.4,1.2-9.1,0-18.1-.8-27.7-1.3-10.5-.2-20.4-1-29.3-6.5-1-.6-2.5-.6-3.8-.7-4.8-.5-9.5-1-14.6-1.7-4.6-2.4-8.9-4.7-13.2-6.9-1.6-.8-3.2-2.1-4.8-2.1-7.3-.2-14.6,0-22.3,0-13.8,0-27.2,0-40.9,0-7.9-.5-14.6-3-20.8-7.1-9.8-6.5-14.9-16-17.7-27.6-.1-7.1-.2-13.7-.2-20.8,1.6-6.1,3.3-11.9,4.6-17.6.4-1.8.3-3.9-.2-5.8-1.7-6.2-4.7-12.2-5.4-18.4-1.4-12.2-1.6-24.6-2.3-36.9-2.2-40-4.4-80.1-6.7-120.1-1.4-25.8-2.9-51.5-4.4-77.3,0-1.2-1-2.3-1.6-3.5,0-3.7,0-7.4.3-11.2.8-.9,1.5-1.6,1.7-2.4,3.6-13.3,11.7-22.7,24.3-28,9.8-4.1,20.3-3.2,31-3.5,1.4-.8,3.2-1.6,3.2-2.4,0-5.3-.3-10.6-.5-15.9,0,0,0-.3.3-.6.4-1.3.5-2.3.7-3.4,0,0,0-.2.3-.5.4-1,.6-1.8.7-2.5,0,0,0,0,.4-.2.9-1.9,2.2-3.6,2.1-5.2-.5-5.5-1.6-11-2.4-17.1,0-1.7,0-2.8,0-4,.5-17.4,8.8-29.9,24.7-36.7,5.9-2.5,11.2-4.9,15.6-9.6,2.3-2.4,5.5-4.1,8.6-5.6,7.6-4,16-4.1,24.2-5.3,11.5-1.8,21.8,0,31.6,6.2,2.5,1.6,5.6,2.7,8.5,2.9,7,.4,12.9,3.3,18.6,6.9,2.8,1.8,5.2,4.3,7.8,6.4,6.6-6.5,13.8-11.9,22.7-12.8,5.4-.5,6.1-2.3,5.8-6.9-.9-15.6,5.6-27.8,18.7-35.9,6.1-3.8,12.4-6.6,16-13.3,1.2-2.2,3.7-3.7,5.8-5.3,11.8-8.7,25.7-10.8,39.8-12,2.8-.2,5.9-.8,8.2-2.3,18.9-12.3,40.1-9.2,55.2,6.8,3.4,3.6,6.6,7.3,9.9,10.8,12.4-8,29.5-8.2,42.2-.4,2.6,1.6,3.9,1.5,5.8-.6,3.4-3.8,7-7.6,10.8-11.1,11.7-10.7,25.6-14.4,40.6-9.8,7.9,2.4,15.2,7.2,22.2,11.9,16.1,10.7,21.7,25.2,19.4,41.1-2.5,5.9-4.8,11.6-7.1,17.2-.5,1.2-1.5,2.5-1.3,3.5,2,8,4.3,16,6.6,24.4,2.4,14.1,4.7,27.7,7,41.3,41.4-12.2,82.9-13.2,124.3,3.5-.4-16.3,4-29.8,17.2-39.4.7-.5.9-2,.9-3,0-11.7,4.5-21.5,12.6-29.7,24.5-24.5,48.9-49.1,73.5-73.5,6.3-6.3,13.6-10.8,22.8-11.7.7,0,1.3-1.3,1.9-2M701.1,429.7c-.2,1.8-.4,3.5-.8,6-.2,1.8-.3,3.5-.7,5.9-.2.7-.4,1.5-.7,2.8-.3-2-.5-3.2-.6-5.3-.5-2.9-1-5.8-1.3-9.6-.2-1.8-.5-3.5-.7-5.4h-19.3c.9,2.9,1.7,5.3,2.4,8.6.6,2.4,1.2,4.8,2,8,.6,2.1,1.2,4.2,1.9,7,1.1,4.3,2.1,8.7,3.2,12.9h25c1.1-4.7,2.2-9.2,3.7-14.3.4-1.8.8-3.7,1.5-6.2.4-1.7.9-3.5,1.6-5.8.4-1.8.8-3.7,1.5-6.2.3-1.3.5-2.7.8-4h-19.2c0,1.8,0,3.3-.4,5.4M741.3,424.5c-.1-.3-.4-.4-1.6-.5h-17.1c0,2.4,0,4.2-.2,6.9,0,2,.1,4.1,0,7,0,2,.1,4.1,0,7.1v15.8h18.9c0-5.8,0-11.3.2-17.6,0-2-.1-4.1,0-7,0-2-.1-4.1,0-7,0-1.4-.1-2.8,0-4.6M479.4,511.9c0,1.7.1,3.4,0,6,0,1.7.1,3.4,0,6,0,2,0,4.1,0,7v16.7h21.2c0-6.1,0-11.8.2-18.4,0-1.7-.1-3.4,0-6,0-2-.1-4.1,0-7,0-1.7-.1-3.4,0-6,0-1.4-.1-2.8,0-5.1v-8.6h-21.1c0,3.3,0,6.4-.1,10.3,0,1.4.1,2.8,0,5M538.4,520.8c-.3,1.6-.5,3.2-.7,4.5,0,0-.2-.3,0-1.1-.4-2.1-.8-4.1-1.3-6.9-.4-1.8-.8-3.6-1.4-6.2-1.1-2.3-1.9-6.4-3.3-6.6-6.9-1-14-.9-21.3-1.3-.1,2.9-.2,5.4-.6,8.6,0,1.7,0,3.5-.2,6.1,0,2,0,4.1-.3,6.9-.1,1.8-.2,3.5-.5,6,0,.8,0,1.5-.1,3.2-.3,6.8-.7,13.5-1.1,20.8h19.9v-16.3c.3,0,.5,0,.8,0,1.2,5.8,2.5,11.5,3.8,17.3,8,.4,15.6.8,23.3,1.3.4-7.8.7-14.9,1.2-22.8,0-.8,0-1.5,0-3.1,0-1.7,0-3.4.3-5.9,0-1.8.2-3.5.5-6.1,0-1.7,0-3.4.2-6v-7.7h-19.3c0,2.7,0,5.1-.3,8.2.2,2.1.4,4.3.4,7.2M713.6,122.9v11.1h11.1c0-4.5,0-8.8.3-13.7,0-2.8-.1-5.6,0-9.3,0-3,0-6,.1-9.8,2.9-3,5.9-6,9.4-9.2,4-3.5,7.9-6.9,12.2-10.6-3.3-2.8-6.1-5.2-8.6-7.3-7.9,5.7-15.4,11.1-23.6,16.7-7.1,4-14.3,8-22.2,12.1-4.7,2-9.3,3.9-14.3,6,1.5,1.8,2.8,3.1,3.7,4.7,2.4,4.1,5.3,4.2,9.4,2.4,7.2-3.2,14.6-5.9,22.1-8.9.2,1.9.3,3.4.2,5.7,0,3,0,6.1,0,10.1M785.1,384.5c1.2.5,2.4,1,3.7,1.4,8.4,2.5,12.7-.7,12.6-9.3,0-1-.1-2-.2-2.9-3.3.6-6.5,1.2-10.4,1.5-1.3-.4-2.5-.7-3.8-1.2-4.3-1.7-9.2-2-12,1.4-1.9,2.3-1.2,6.8-1.6,10.3,4.4-.6,7.8-1.1,11.7-1.2M739.7,527.2c.2-2.1.5-4.2,1.7-6.5,3.3.2,6.6.3,10.4.5.2-3,.4-5.7.8-9.1.3-3.1.6-6.2.9-9.7-14.8-1.3-29.2-2.5-43.7-3.8-.4,4.7-.7,8.5-1.2,13.1,0,1.8-.2,3.5-.2,5,4,1.1,7.6,2.1,11,3.8-.2,2.1-.4,4.2-.8,7.1-.2,2.7-.4,5.3-.9,8.7-.4,4.7-.8,9.5-1.2,14.4,7.3.7,14,1.3,21.2,1.9.4-6,.8-11.4,1.5-17.7,0-2.4.2-4.8.5-7.9M798.5,116.9c.3,1.5.6,3,0,4.4-1.3-.1-2.6-.2-4.5-.7-7.8-1.8-15.6-3.6-24-5.6-2-.6-4-1.2-7.1-2.1,2-1.7,3.4-2.8,5.4-4.1,4.6-3.9,9.1-7.8,14.3-11.9,4.4-3.9,8.8-7.9,13.9-12.1,3.6-3.4,7.1-6.7,11.2-10.4,3.2-3.1,6.5-6.1,10.1-9.6-5-3.1-9.3-5.8-13.1-8.2-6.3,6-12.3,11.7-18.9,17.6-3.8,3.6-7.7,7.2-12.1,11-4.7,4-9.4,8-14.7,12.2-4.8,3.6-9.5,7.1-15,11.1-.7,3.9-1.4,7.8-2.3,12.5.8.8,1.4,2.2,2.3,2.4,6.2,1.7,12.5,3.2,19.4,5.1,11.3,2.6,22.6,5.3,34,7.8,3.4.7,5.6,1.7,5.7,5.8.2,4.7,1.4,9.4,2.2,14.5,5.5-1,10.5-1.9,16.2-2.9-2.3-11.2-4.5-21.9-6.6-33.4-.5-2.1-.9-4.1-1.4-6.9-.9-3.3-1.8-6.6-2.8-10.3-4.9.6-9.5,1.2-14.8,1.9,1.1,4.2,1.9,7.7,2.8,12M650,528.4c0-1.5,0-3,.3-5.3v-4.4c-4.6,0-8.7.1-12.8,0-1.4,0-2.7-1.1-3.1-1.8h18.2c0-2,0-3.9.3-6.6.2-3,.3-5.9.5-9.4-13.5-.6-26.6-1.2-40.5-1.8,0,3.9,0,7.4-.2,11.7,0,2.1,0,4.1-.2,7,0,1.7,0,3.4-.2,6,0,1.4,0,2.8-.4,4.8,0,1.5,0,2.9-.3,5.3v16.8c13.4.5,26.8,1,40.5,1.6v-16.8c-2.1-.1-4.1-.2-6-.4-4.6-.4-9.1-.8-13.2-1.9,4.3,0,8.5-.3,12.8,0,3.3.2,4.6-.9,4.3-4.8M698.4,522.4c0-1.1.1-2.1.8-3.5,1.4-2.3,2.8-4.6,4.6-7.6-.4-3.8-.9-7.5-1.3-12-2.4-5.3-6.9-8.6-12.3-8.8-10.8-.6-21.6-.2-33-.2.5,3.9.7,6.3.9,9.7.1,3.3.3,6.7.3,10.9.1,2,.2,4.1.2,6.9.1,1.4.3,2.8.2,4.9.2,1.8.4,3.5.4,6.1,0,1.7.2,3.4.2,6v7.8c7.5-.4,14.1-.7,21.1-1-.3-2.9-.6-5.3-.8-8.4v-3.9c1.4,2.8,2.2,4.2,2.9,6.3,1.5,2,2.8,5.6,4.4,5.7,6.7.3,13.4-.4,20.9-.8-1.4-2.3-2.3-4-3.4-6.3-1-1.8-2-3.5-3.1-6-1-1.8-2-3.5-3.1-5.9M676.7,106.2c.2-3.4.5-6.8.9-11-.3-3-.7-6.1-.9-9.9-.5-3.2-1-6.3-1.6-10.1-2.8,1.9-5.2,3.6-7.7,5.3-.9-1-1.7-1.6-2.1-2.5-1.8-3.7-4.5-4.1-8.2-2.9-3.5,1.2-7.2,1.8-10.9,2.7-1.3-4.9-2.4-9.1-3.6-13.6-5.4,1.3-10,2.5-14.8,3.7,1.1,4.8,2,9.1,3.1,13.7-9.5,2.4-18.6,4.7-27.9,7.1.5,1.8.8,3.1,1.3,5.2.9,3.7,1.7,7.3,2.6,11.8,1.6,5.4,3.2,10.9,4.9,16.6,5.3-1.3,10-2.5,15.1-3.8-1.7-5.7-3.3-10.8-4.9-16.7,1-1.1,1.9-2.8,3.1-3.1,9.2-2.5,18.5-4.7,27.8-7,3-.7,6-1.4,9.3-2.1.3,2.9.6,5.1.8,8.3-.2,2.9-.4,5.8-1,9.2-2.4,4.9-4.9,9.9-7.9,15.1-5.5,4.5-11,9-17.1,13.6-8.6,3.9-17.2,7.9-26.1,12,3.4,3.4,6.5,6.6,9.8,9.6.8.7,2.5,1.5,3.4,1.1,13.5-5.6,26.8-11.6,37.6-22.8,3.3-4.6,6.7-9.2,10.5-14.4,1.5-4.8,3.1-9.6,4.8-15.3M803.7,446.1c0-2.4-.1-4.7,0-8-.1-1.7-.3-3.4-.3-5.9-.6-1.4-1.3-2.9-2.1-5-5.7-5.6-12.1-6-20.5-1.4-4.8-3.9-9.9-3.9-15.3-1.1-.8.4-1.8.9-2.7.8-5.4-.7-10.9-1.5-16.7-2.3.1,2.8.2,4.3,0,6.6,0,1.1.1,2.1,0,4.1,0,1.7.1,3.4,0,6,0,2,0,4.1-.2,6.8v14h17.7c0-5.2,0-9.9.3-15.5.2-2,.3-4.1,1.1-6.2.4,0,.8,0,1.4.9.1,2,.2,4.1.1,7v13.8h16.4c0-5.2,0-9.9.2-15.6,0-2,.2-4.1.9-6.2.4,0,.9,0,1.4.9.2,2.4.3,4.7.2,8v12.8h17.7c0-4.8,0-9.3.2-14.6M604.9,533.6c.6-1.5,1.1-3,2.1-5.1,0-2.2,0-4.3-.2-7.3-1.2-2.5-2.4-4.9-4-8-5.9-4.6-12.8-5.8-20.5-6.8-.2-2.4.8-3.4,2.8-2.3,6.6,3.7,13.2,0,20.5.9-1-3.3-1.7-5.6-2.5-8.6-7.6-11.9-29.4-12.7-39.2-.9-.5,3.9-1,7.7-1.6,12.3.8,2.1,1.6,4.1,2.7,6.8,2.8,1.5,5.5,3.6,8.5,4.5,4.5,1.4,9.2,2,14,3.7-1.6,3.1-3.7,2.4-6.1.9-1.3-.8-2.9-1.6-4.3-1.5-4.8.1-9.6.6-14.9,1,.4,1.8.7,3.3,1.1,5.6.7,1.4,1.4,2.8,2.3,4.9,3.7,5.4,9.2,7.6,15.3,7.8,8.6.3,17.3.3,24-7.9M1523.6,431.1c-.3-3.9-.6-7.9-.9-12.4-5.3.4-10.2,1.6-14.8,1-8.4-1-12.1,3.2-14.1,10.3,0,.3-.1.7-.6,1.5-1.3,3.1-2.6,6.2-4.4,9.8-.7,3.5-1.4,7.1-2.3,11.5.3,3.9.6,7.8,1,12,6.9-.5,13.3-.9,19.7-1.4.3,2.7.6,5,1,7.9,6.3-.5,12.3-1,18.4-1.4v-7.5c1.3-.5,2.5-.9,4-1.4-.4-3.1-.8-6.1-1-9.8-.7-2.9.4-6.8-4.3-7.6-.4,0-.6-1.7-.8-3.4-.3-2.7-.7-5.5-.9-9.1M1263.5,595.7c.9,2,1.8,3.1,3.9.9,5.1-5.4,10.3-10.7,16-16.4,3.8-4.1,7.6-8.1,11.9-12.4,6.9-5.3,11.1-11.7,9-21.7,0-5.7-.1-11.4,0-18,0-5.7-.1-11.4,0-18,0-12.7-.1-25.4,0-39,0-3.8.3-7.7,0-11.5-.2-2.1-1.1-4.6-2.5-6-10.8-11.1-21.7-22.1-32.6-33.1-.9-.9-2-1.7-3.6-2.9,0,18.8,0,36.6-.2,55.3,0,12.4,0,24.7,0,38v13.4c-3.5-4.9-6.1-8.6-9-13-4.9-7.4-9.9-14.9-15-23-6.7-10.1-13.4-20.2-20.3-30.9-8.9-13.2-17.7-26.5-27-40.1-9.2,9.3-18.3,18.5-28.1,28.1-2.5,2.5-5.1,4.8-7.3,7.5-1.5,1.8-3.1,4.1-3.2,6.3-.3,9.6,0,19.2-.1,29.8,0,13,0,26,0,40,0,9-.1,18,0,27,0,1.7.4,3.9,1.5,5,12.1,12.2,24.3,24.2,36.7,36.6.2-.2.4-.3.7-1.4,0-23-.1-46,0-70,0-12.4.2-24.7.6-37,0,0,.4,0,.6.7,5,7.7,10.1,15.5,15.3,23.9,3.3,5.1,6.7,10.2,10.2,16,3.6,5.5,7.2,10.9,10.9,17,4.2,6.5,8.4,12.9,12.9,20,6.2,9.5,12.4,18.9,18.8,29.1M1339.9,151.6c4.1-4.2,8.3-8.5,13-13,5.1-5.2,10.2-10.5,16-16,4.9-4.9,9.9-9.8,15.7-15.6-25.4,0-49.1,0-72.8,0-1.5,0-3.3.8-4.3,1.8-5.1,4.9-10,10.1-15.6,15.5-5,5.1-10,10.2-15.6,15.7-4.9,5-9.8,10-15.3,15.3-3.8,3.9-7.6,7.8-12,12-4.7,4.7-9.3,9.3-14.8,14.9,2.8,0,4.4,0,5.9,0,20.3,0,40.6-.3,60.9.2,7,.2,11.8-2,16-7.8,3.5-3.6,6.9-7.2,11-11,3.8-3.9,7.5-7.7,11.9-11.9M1477,437.4c1.2-7.6-.9-13.1-6.7-16.1-7.9-4-16.3-4.4-24.5-1-7.1,2.9-10,10.4-7.3,18.3.9,1.4,1.7,2.7,2.6,4.1-.4-.1-.8-.2-1.2-.4-1.5,3.9-3,7.7-4.7,12.4.3,9.4,4.2,14.8,13,16.8,3.5.8,7.2,1.2,10.8,1.1,12.9-.4,18.1-5.7,19.3-19.4-1.5-3.3-3.1-6.6-4.6-9.9.8-1.6,1.8-3.5,3.2-6M634.7,444.8c1,6.3,2,12.7,3,19.2,6.6-1,12.6-1.9,18.8-2.9-1-7.6-1.8-14.8-2.7-21.9.7-.1,1.4-.2,2.1-.3.8,3.7,1.6,7.4,2.3,12,.5,3.2.9,6.4,1.4,9.9,6.7-1,12.8-1.9,19-2.9-.8-5.1-1.6-9.5-2.2-14.7-.9-4.4-1.8-8.8-2.8-14-3.5-7.7-12.8-9.8-21-4.7-.9.6-1.9,1.6-2.9,1.6-5.7.2-11.5.2-17.7.3,1.1,6.9,1.9,12.3,2.7,18.4M1342.2,444c.4,8.3.9,16.5,1.3,25.3,7.1-.4,13.6-.8,20.6-1.3-.6-7.6-1.1-14.3-1.5-22-.5-9.6-1-19.2-1.5-29.1-2.6,0-4.7,0-6.8,0-5.6.3-11.7-1-15.2,5.5-.6,1.1-2.5,2-3.9,2.1-4.7.2-5.2,2.9-4.7,6.7.3,2.1.3,4.2.5,6.7h10.1c.4,1.9.7,3.5,1,6.1M1528.4,390c6.3-1,12.7-2.1,19.5-3.2-1.7-8.2-3.3-15.9-5-24.2-14.1,3.7-27.8,7.4-42.3,11.1-1.7.4-3.4.8-5.4,1.3,1.5,7,2.9,13.5,4.4,20.2,9.8-1.8,18.9-3.5,28.8-5.1M517.4,337.9c0,2.4.1,4.7-.1,7.5-.5-.9-1.1-1.7-1.6-3.4-1-3.3-2-6.7-3-10.8-1.3-4.1-2.6-8.2-3.9-13.1-1.4-4.4-2.8-8.7-4.1-13.9-1.9-5.9-3.9-11.7-5.9-18.4-2-6.3-4.1-12.6-6.1-19.6-3.3-10.3-6.7-20.5-9.9-30.8-.8-2.5-1.8-3.4-4.5-3.2-30.1,1.8-60.1,3.4-90.2,5-4.6.3-9.2.7-14.1,1.1.9,14.8,1.8,29.3,2.6,44.6.4,6.7.8,13.4,1.1,21,.4,5.7.8,11.4,1,18,.4,4.7.7,9.4.9,15,.3,4,.6,8.1.8,13,.2,3.7.4,7.5.5,12.1.2,2.3.5,4.7.6,7.9.2,3.4.3,6.7.4,10.9.3,4.4.6,8.8.8,14.1.4,4.7.7,9.4.9,15,.4,5.7.7,11.4,1,18,.9,16.5,1.7,33,2.6,49.8,30.3-1.7,59.8-3.3,89.8-4.9-1.5-19.4-3-38.1-4.3-57.5-.7-5.8-1.3-11.5-1.9-18.2-.5-4.4-1-8.9-1.6-14.2-.7-5.2-1.3-10.5-2-16.5-.5-2.5-1-5-1.3-8.1.8.6,1.6,1.2,2.5,2.5,1.1,3.7,2.3,7.4,3.4,11.8,1.8,5.8,3.6,11.6,5.6,18.1,2.2,7,4.3,14.1,6.5,21.9,5.8,18,11.7,36,17.4,54.1,1,3.2,2.2,4.5,5.8,4.3,27.3-1.6,54.5-3,81.8-4.4,6.8-.4,13.6-.9,20.5-1.3.1-1.5.3-2.6.3-3.8-.8-15.3-1.5-30.6-2.4-45.9-.4-6.3-.9-12.6-1.3-19.8-.5-7.3-.9-14.7-1.2-22.9-.4-6-.8-12.1-1-19-.3-3.7-.5-7.4-.7-12-.2-2.7-.3-5.4-.4-8.9-.4-2.4-.8-4.8-.9-8.1,0-3-.1-6.1,0-10-.3-4-.7-8.1-.8-13-.3-4.7-.7-9.4-.9-15-.3-5-.6-10.1-.8-16-.4-5.7-.7-11.4-.9-17.8-.5-9-1.1-18.1-1.6-27.4-30,1.7-59.3,3.3-89.3,5,.8,11.5,1.6,22.4,2.2,34.2.5,6,1,12,1.4,18.9.6,5.1,1.3,10.1,1.9,16,.7,4.7,1.3,9.5,1.9,15,.6,4.1,1.2,8.2,1.7,13.1.4,3,.8,6,1.2,9.9M1108.8,54.1c-4.2,4.3-8.3,8.6-13.1,13.1-4.1,4.2-8.2,8.4-12.9,12.9-4.8,4.9-9.7,9.9-15.1,15.1-7.3,7.3-14.6,14.6-22.6,22.6,24.6,0,48,0,72.2.1,1-.1,2.3.1,2.8-.4,4.7-4.5,9.2-9.2,14.4-14.1,4.5-4.5,8.9-9,13.9-14.1,4.1-4.1,8.1-8.2,12.8-12.5,3.2-3.3,6.5-6.6,10.3-10.3,7.6-7.6,15.3-15.2,23.6-23.5-25,0-48.8,0-73.3-.2-4.1,3.7-8.3,7.3-13,11.3M1384.5,452.8c0,.2,0,.3-.9.6-4.7-.5-9.4-.9-14.4-1.4-.6,5.9.4,10.7,4.3,14.7,10.6,10.8,30.1,7.6,35.9-6.2,2-4.8,2.3-10.3,3.6-16.1,1.3-17.9-11.4-29.3-28.5-25.5-11.5,2.5-17.1,14.4-11.7,25.9,3.9,2.5,7.8,5.1,11.7,8.1M468.6,189.8c1,7.7,2,15.4,3,23.6,5.3-.7,10.1-1.3,15.4-1.9-1.2-8.6-2.4-16.5-3.4-25.4-.4-3.1-.5-6.3-1.1-9.4-.8-3.7.6-6.1,3.4-8.5,3.4-3,6.2-6.7,9.8-10.4,4.2-6.1,6.4-12.9,7-20.9-8.5,1-16.4,2-24.5,2.9-.7-4.3-1.2-8-1.9-12.3-5.2.6-10,1.2-15.1,1.9.4,4.5.8,8.4,1.1,12.5-9.4,1.2-18.3,2.4-27.6,3.7.7,5.1,1.4,9.8,2.1,14.6,13.4-1.7,26.2-3.3,39.5-4.9-1.4,2-2.4,3.4-3.9,5.3-11.4,11.6-25.2,19.6-40.4,26.2,4,4.6,7.5,8.6,11.2,12.9,8.2-5,16.1-9.8,24.4-14.9.4,1.6.8,3,1.1,5.2M598.5,159.2v-4.3c-6.7-.4-12.6-.8-18.4-1.2,0-4.3.2-8.3-.1-12.2-.1-1.4-1.4-3.6-2.4-3.7-4-.6-8.1-.5-13-.8v15.9c-15.5-.9-30.3-1.7-45.5-2.6v14.7c7.5.4,14.8.7,22.1,1.3,3.7.3,7.4,1.1,10.4,2-11.5,11.2-24.7,19.9-39.9,26.8,4,4.5,7.5,8.4,11.8,13.2,13.6-9.8,26.8-19.4,39.7-28.7,0,2.7,0,6.1-.3,10.4-.2,2.3-.4,4.5-.7,7.1-4.8-.8-9-1.5-13.7-2.3v15.9c6.2.5,12.2,1.4,18.3,1.4,6.6,0,9.8-2.9,10.6-9.5.6-5.1.6-10.3,1.1-16.3.3-5.7.6-11.4.9-17.2h18.6c.2-3.1.3-6,.6-9.8M1215.6,83.2c-4.3,4-8.6,8-12.7,11.8,4.8,5,8.8,9.2,13.1,14,6.8,6.7,13.6,13.4,20.7,20.8,6.3,6.4,12.6,12.7,18.6,18.8,11.3-11,22.3-21.7,33.8-32.6,6.5-6.6,13.1-13.1,20-20-2.3-2.2-4.3-4.1-6.6-6.6-3.5-3.5-7.1-6.9-11-11-3.9-3.8-7.8-7.6-12-12-7.8-7.7-15.6-15.4-22.9-22.7-13.6,13.2-27,26.3-41.1,39.6M1018.5,268.2c-.8-4.8-1.6-9.5-2.6-15.1-1.7-4.7-3.4-9.5-5.2-14.9-3.4-5.5-6.7-11-10.3-17.1-6-5.4-11.9-10.8-18.3-16.8-6.4-3.1-12.5-7.1-19.2-9.3-34.2-11.1-67.9-9.1-100.6,6.1-11.1,5.1-20.8,12.5-28.6,23-3.8,7-7.6,13.9-11.9,21.4-1.5,6.2-2.9,12.4-4.8,19.3-.2,6.8-.4,13.5-.7,21.1,1.4,7.7,2.8,15.4,4.2,23.9,2.6,5.8,5.1,11.6,7.8,18,2.7,3.7,5.4,7.5,8.3,11.8,3.9,3.6,7.7,7.2,12,11.3,6.2,3.5,12.4,7,19.1,10.9,1.1.4,2.1.9,3.2,1.3,28.3,9.9,56.9,9.2,85.4,1.1,13-3.7,25.1-9.6,35.7-19.5,4.4-5.3,8.9-10.5,13.9-16.2,2.1-4.2,4.2-8.4,6.6-13.3,1.3-4.1,2.6-8.2,4.3-13,.7-5.4,1.3-10.9,2.3-17.1-.3-5.4-.5-10.8-.7-17.1M1483,272.7c.3-.1.5-.4,1.3-.7,4.1-2.2,8.1-4.3,12.6-6.7-3.7-8.7-7.2-17.1-10.6-25.3-6,1.5-11.4,2.8-16.7,3.5,5-2.6,9.9-5.2,15-7.8-3.5-8.2-6.8-15.9-10.2-24-14.7,9.9-28.8,19.3-42.7,29-1.1.8-1.9,3.4-1.4,4.7,1.8,5,4.1,9.8,6.3,15.4,1.5,3.6,3.1,7.2,4.7,11.2,5.8-1.8,11.1-3.5,16.5-5.2.2.4.3.8.5,1.2-5,2.6-10.1,5.2-15.4,8,1.4,3.1,2.6,5.6,3.8,8.8,2.7,6.4,5.4,12.8,8.2,19.5,18-3.7,35.8-7.4,53.8-11.1-3.5-8.4-6.8-16-10.1-23.9-4.3,1.4-8.2,2.9-12.2,3.9-1.5.4-3.2-.1-4.3-.3.2,0,.3-.2.9-.3M1139.9,109.3c-6.5,6.5-13,13.1-19.4,19.6,3.9,4,7.6,7.8,11.6,12.1,6.8,6.7,13.6,13.4,20.6,20.7,6.7,6.8,13.5,13.7,19.8,20.1,11.9-11.5,23.3-22.7,35.4-34.1,6.1-6.1,12.1-12.1,18.5-18.5-4.1-4-7.8-7.7-11.9-12-7.3-7.2-14.6-14.4-22.2-22.2-6.3-6.4-12.5-12.7-18.1-18.4-11.7,11.2-22.7,21.8-34.3,32.7M1504.2,325.3c-2.7-11.6-9.5-18.2-21.2-19-6.2-.4-12.6.3-18.7,1.7-15.9,3.8-21.5,22.1-12.1,34.2-7,.7-13.7,1.3-20.6,2,.3,2.9.6,5.3.8,8.7.3,2.1.5,4.2.6,6.7,0,.3.1.5.2,1.5.2,3.4.4,6.9.6,10.7,24.4-2.1,48.1-4.1,72.3-6.1-.5-6.5-1.3-12.6-1.5-18.7-.1-3.4-.7-5.7-3.2-5.5.9-5.3,1.8-10.4,2.8-16.2M619.2,290.8c2.4,4.1,4.8,8.1,7.4,12.8,3.9,4.3,7.8,8.6,12,13.4,6.9,4.4,13.8,8.7,21.1,13.6,2,.8,4,1.7,6,2.4,27.4,9.6,55,7.8,82.6,1.2,14.4-3.4,27.8-9.1,38.8-20.6,4-6.3,8-12.5,12.4-19.5,1.3-4.8,2.6-9.5,4.1-15.1.4-3.8.9-7.7,1.3-11.9-22.4,1.2-43.7,2.4-65.1,3.6-4.9.3-9.9-.3-13.5,4.4-1.1,1.4-3.4,2-5.2,2.7-7.8,3-15.9,2.4-24.3.8-3.9-4-7.7-7.9-11.7-12.6-.5-.9-1-1.8-1.6-3.1,40.7-2.2,80.8-4.5,121.7-6.7-.6-7.7-1.2-14.6-1.7-22.3-1.6-6.3-3.1-12.5-4.7-19.5-4-12-9.9-22.9-19.5-32.3-7.3-5.1-14-11.6-22.1-15.1-33-14.4-66.2-12.5-98.8,1.5-16.2,6.9-28.8,18.4-37.6,34.6-6.2,11.8-9.8,24.3-10.4,38.5.2,5.7.5,11.4.6,18,1,5.4,2,10.8,3.2,17,1.6,4.4,3.2,8.8,5,13.9M1238.2,361c.3,7.2.6,14.5.8,21.9,25.1-1.4,49.3-2.8,73.9-4.2-.9-16.3-1.8-32-2.5-48.5-.6-9.4-1.3-18.7-1.8-29-.3-6.7-.9-13.3-.9-20,0-6,3-9.1,8.3-9.1,5.2,0,8.1,3.1,8.5,9.6.8,13.1,1.6,26.3,2.2,40.2,1,18.6,2.1,37.1,3.2,55.9,27.3-1.5,54.1-3,81.3-4.5-1.6-28.9-3.2-57.1-4.7-86.1-.7-11.3-.6-22.7-2.2-33.9-1.2-8.9-4.4-17.5-6.8-27-5-9.6-12.3-16.9-22.2-21.5-13.4-6.1-27.4-6.4-41.6-4.5-14.4,1.9-27.6,6.3-36.8,18.7-.4.5-1.4.6-2.4.3-5.2-4-9.9-9.4-15.7-11.8-18.2-7.5-51-3.6-66.3,18.9-.8,1.1-1.7,2.2-3.3,4.2-.4-6.8-.7-12.5-1.1-18.4-25.8,1.4-51,2.8-76.4,4.2,1.4,24.3,2.8,48,4,72.5,1,17.7,2.1,35.4,3,54,.8,14.9,1.7,29.8,2.6,45.3,27.3-1.5,54.1-3,81.3-4.5-1.5-25.2-2.9-50-4.2-75.5-.6-6.6-1.2-13.2-1.9-19.7-.6-5.4,2.7-10.8,7-11.3,6.2-.8,9.3,1.7,10.2,8.5.5,3.8.7,7.6.9,12.3.7,11.4,1.4,22.7,2,35,.6,9,1.2,18.1,1.7,28.1M910.6,389.1c-.4-2-.9-4.1-1.3-6.3-29.3,1.6-58.1,3.2-87.3,4.9,3.8,12.1,7.3,23.2,10.8,35.1,4.5,13.4,9.1,26.9,13.6,41.1,1.4,4.6,2.7,9.2,4.2,13.7,4.3,13,8.6,25.9,12.9,39.7,3.6,11.6,7.5,23.1,10.8,34.7,1.2,4.2,3.1,5.3,7.3,5,35.1-2.1,70.1-4,105.2-5.9,2.9-.2,3.4-1.4,3.9-3.8,6.4-31,12.9-62.1,19.6-93.8,5.3-25.5,10.6-50.9,16-76.6-1.4,0-2-.2-2.7-.2-27.1,1.4-54.2,2.9-81.3,4.2-3.5.2-3.5,2.2-3.7,4.6-2.4,25.9-4.8,51.7-7.3,77.6-.5,5.2-1.2,10.5-1.9,16.2-3.5-16.2-6.9-31.8-10.5-48.3-2.8-13.7-5.6-27.3-8.4-41.8M1119.3,248.1c-.6-10.2-1.2-20.5-1.9-31.1-29,1.6-57.5,3.2-86.5,4.8,1.3,21.3,2.5,41.7,3.5,63,1.4,24.7,2.8,49.4,4.1,75,1,19.1,2,38.2,3.1,57.3.4,7.3,1.1,14.6,1.5,22.8.9,18.6,1.9,37.2,2.8,56.3,29.1-1.6,57.7-3.2,86.6-4.8-.6-10.5-1-20.4-1.7-30.4-.7-11.4-1.7-22.8-2.4-34.2-.5-7.6-.7-15.3-.9-23.8-1.4-26.4-2.9-52.7-4.2-80-1.4-24.7-2.8-49.4-4.1-75M1085.8,150.8c-19.4,1-38.8,2.1-58.5,3.1,1,18.5,2,36.1,3.1,54.1,29.2-1.6,57.5-3.2,86.4-4.8-1-18.3-2-36-3-54-9.5.6-18.3,1.1-28,1.7M1479,376c-3.1.7-6.3,1.4-9.4,2.1,1.8,8.5,3.4,16.2,5.2,24.3,7.3-1.5,14-2.9,21.1-4.5-1.8-8.4-3.5-16.2-5.2-24.4-4,.9-7.4,1.6-11.6,2.4M1447.4,190.4c-2.3,1.3-4.6,2.7-7.2,4.2,3.8,6.6,7.5,13,11.2,19.4,6.4-3.7,12.2-7.1,18.3-10.6-3.8-6.6-7.5-12.9-11.2-19.3-3.8,2.2-7.1,4-11,6.3M1437.8,214.2c-2.6-4.4-5.1-8.9-7.9-13.7-6.2,3.6-12.2,7-18.3,10.6,4,6.8,7.5,13,11.3,19.4,6.2-3.6,12.1-7,18.1-10.5-1.1-2-1.9-3.6-3.2-5.8M428.1,522h-6.1v14.7h27.9v-14.7h-21.8M395.1,522h-6.2v14.7h28v-14.7c-7.2,0-14,0-21.7,0M810.5,524.7v12h28.3v-14.7c-8.9,0-17.4,0-25.8,0-.8,0-1.6,1.1-2.5,2.6M489,174.9c-1.2,1.5-2.4,3-4,5.1,9.2,4,17.7,7.8,26.6,11.7,2.7-5.3,5-9.9,7.3-14.6-8.4-3.1-16.1-6-24.2-9-1.6,2-3.4,4.1-5.6,6.8M805.8,524.7c-.7-.9-1.4-2.5-2.2-2.5-8.6-.2-17.2-.1-25.9-.1v14.7h28c0-3.9,0-7.5,0-12.1M1428.6,476.3c.6-4.7,1.3-9.5,2-14.6-5.4-.6-10.2-1.2-15.5-1.9-.6,5-1.1,9.5-1.6,14.2,2.2.5,3.9.9,5.7,1.3.5.5,1,1,1.4,1.6-2.1,1.4-4.1,2.8-6.2,4.2,5.9,7.3,8.7,6.1,13.5-2,.3-.6.4-1.2.8-2.7M746.4,373.2c-6.7,2.1-7,2.8-5.6,11.2,5.5.6,10.5,1.4,15.6,1.6,3.1.1,6.2-.3,9.2-.9,1-.2,2.3-2,2.4-3.2.4-2.7.1-5.5.1-8.9-5.7,3-10.8,2.8-16,.6-1.4-.6-3.3-.3-5.7-.3M731.6,385.6c5.9-2.8,2.1-7.6,2.9-10.3-5.4-.6-10.5-.8-15.3-1.9-7.7-1.7-11.7,1-11.7,8.7,0,1.2.2,2.5.3,3.7.2-.5.3-1,.5-1.5,4.9.5,9.8,1.2,14.7,1.6,2.6.2,5.2,0,8.6-.3M692.2,386.3c9.7-.3,11.1-2.2,9.2-10.9-5.6-.7-10.7-1.1-15.7-2.1-7.3-1.5-11.3,1.3-11.2,8.7,0,1.3.2,2.5.3,4.5,5.7-3.9,11.1-2.2,17.4-.2M644.2,385.1c3.9.1,7.9-.4,11.5.5,9.1,2.4,13.2-.3,12.9-9.5,0-.8-.2-1.5-.4-2.3-.1.5-.3,1-.4,1.4-5.1-.6-10.1-1.7-15.2-1.8-3.5,0-8.1,0-10.1,2.1-1.8,1.8-.6,6.5-.8,9.8.6,0,1.2,0,2.5-.3M741.2,421.1v-11.1h-18.6v11.7c6.2,0,12.1,0,18.6-.6M662.1,70c2,2.4,4,4.7,6,7.2,2.5-2,4.6-3.7,7-5.6-3.2-3.7-6-6.9-9-10.2-2.4,1.8-4.5,3.4-6.8,5.2.9,1.1,1.6,2,2.7,3.5M681.1,66.9c1.1-.7,2.2-1.3,3.5-2.1-3.8-4-6.6-7.1-9.6-10.2-2.5,2-4.6,3.5-6.8,5.3,3.2,3.6,5.9,6.7,8.8,10,1.3-1,2.4-1.8,4-3Z"/>
  <path class="cls-58" d="M1287.5,665.1c-3.9,2.1-7.7,4.1-11.3,6.6-7.4.3-15.1.3-23,0-1.7-1.2-3.1-2.1-4.6-3.1-2.7-1.8-5.5-3.7-8.2-6,0-7.5.5-14.6-.2-21.6-.4-3.7-.8-6.8,2.5-9.2,14.6,8.4,29.3,8.7,44.6.6,2.9,3,3.1,6,1.8,9.4-.4,1-.5,2.3-.6,3.4-.4,6.6-.7,13.3-1,19.9Z"/>
  <path class="cls-18" d="M1242.5,631.6c-3.1,2.7-2.6,5.8-2.3,9.5.7,7,.2,14-.1,21.5-4.2-2.6-8.1-5.6-11.9-8.5-4.7,6.4-11.7,13.3-21.6,16.4-.2,0-.1,1-.2,1.5-3.4,0-6.7,0-10.5-.4-.3-2.2,0-4.1,0-5.9,0-1.8.1-3.6,0-5.3-.1-2.5-.5-5-.7-7.4-.1-2.1.8-4.8-.1-6.4-1.8-3.1-.8-5.6.2-8.3,14.5-1.5,19.1-4.3,32.3-18.6,4.8,3.8,9.7,7.8,14.8,11.9Z"/>
  <path class="cls-122" d="M1195.1,638.2c-.6,2.8-1.6,5.3.2,8.4.9,1.6,0,4.2.1,6.4.1,2.5.5,5,.7,7.4.1,1.8,0,3.6,0,5.3,0,1.8-.3,3.7-.5,5.9-4,.4-8,.4-12.5.4-.5-.5-.5-1.4-.6-1.5-11.8-2.8-18.7-12.2-26.8-20-1.3-1.3-2.6-2.6-4-4.5,0-1.2-.2-1.8,0-2.1,4.1-4.7,3.3-9.3,1.3-14.8-1.2-3.5.3-8.1,4.7-10.2,3,2.8,5.9,5.8,9,8.5,8,7,17.2,10.9,28.4,10.8Z"/>
  <path class="cls-129" d="M348.4,521.6c-.7-2.4-1.7-5.1-1.9-7.9-.5-8.2-.7-16.5-1.1-24.7-1-18.6-2-37.2-3-55.8-.6-11.5-1.4-23-2-34.5-1-18.9-2-37.9-3-56.8-.6-10.5-1.4-21-2-31.5-.4-7.7-.7-15.5-1.1-23.3,0-.9-.7-1.7-1.5-2.3-.4-13.8-.4-27.8-.4-42.3.6.7,1.5,1.8,1.6,3,1.5,25.8,2.9,51.5,4.4,77.3,2.2,40,4.4,80.1,6.7,120.1.7,12.3.9,24.7,2.3,36.9.7,6.3,3.7,12.3,5.4,18.4.5,1.8.7,3.9.2,5.8-1.3,5.8-3,11.5-4.6,17.6Z"/>
  <path class="cls-64" d="M1589.5,424.5c-.7,1.1-1.8,1.7-1.9,2.4-1.3,11.4-7.5,19.6-16.8,26.2-.7-2.5-.9-5.1-1.4-7.7-1.4-7.3-3-14.5-4.6-22.4,15.3-8.4,24.2-21.9,22.8-41.7.5-.3.9,0,1.6-.1.3,14.1.3,28.4.3,43.2Z"/>
  <path class="cls-104" d="M1294.8,219.8c.7-.3,1.7-.4,2.1-.9,9.2-12.3,22.4-16.8,36.8-18.7,14.2-1.8,28.2-1.6,41.6,4.5,9.9,4.5,17.2,11.8,22,22.1-15.9,7.4-31.6,14.1-47.3,20.9-32.4,14.1-64.8,28.4-97.2,42.5-5.9,2.6-12,4.5-18.1,6.7-.3-3.8-.5-7.6-1-11.4-.9-6.8-4-9.3-10.2-8.5-4.3.5-7.6,5.9-7,11.3.7,6.6,1.3,13.2,1.4,20.2-1.4.6-2.5.6-3.3.9-18.7,8.1-37.4,16.4-56.1,24.5-6.5,2.8-13.2,5.4-19.7,8-1-17.7-2.1-35.4-2.7-53.6,2.4-.9,4.4-1.1,6.2-1.9,13.8-6,27.6-12.1,41.4-18.1,17-7.4,34-14.9,51-22.3,20-8.8,40.1-17.5,60.1-26.2Z"/>
  <path class="cls-158" d="M863.6,516.4c-4.3-13-8.7-25.9-13-38.9-1.5-4.5-2.8-9.1-3.9-14.2,19-8.8,37.6-17.1,56.2-25.3,5.3-2.3,10.8-4.2,16.2-6.2,3.4,15.6,6.8,31.2,10.4,47.4.7-5.7,1.4-10.9,1.9-16.2,2.5-25.9,4.9-51.7,7.3-77.6.2-2.4.2-4.4,3.7-4.6,27.1-1.3,54.2-2.8,81.3-4.2.6,0,1.3,0,2.7.2-5.4,25.7-10.7,51.2-16.6,76.9-7.6,3.1-14.7,5.9-21.7,8.9-27.8,12-55.6,24.2-83.4,36.2-13.7,5.9-27.4,11.7-41.1,17.5Z"/>
  <path class="cls-25" d="M863.6,516.8c13.7-6.2,27.5-12,41.2-17.9,27.8-12,55.6-24.2,83.4-36.2,7-3,14.1-5.7,21.5-8.5-6,31.1-12.5,62.1-18.9,93.1-.5,2.4-1,3.7-3.9,3.8-35.1,1.8-70.1,3.8-105.2,5.9-4.2.3-6.1-.8-7.3-5-3.3-11.7-7.2-23.2-10.8-35.1Z"/>
  <path class="cls-151" d="M1234.6,297.4c6.1-2.7,12.2-4.6,18.1-7.1,32.4-14.1,64.8-28.4,97.2-42.5,15.7-6.8,31.4-13.5,47.3-20.6,2.5,8.5,5.7,17.1,7,26,1.6,11.2,1.5,22.6,1.7,34.3-2,.9-3.7,1.2-5.2,1.8-16.9,7.4-33.7,14.9-50.5,22.2-7.7,3.3-15.6,6.3-23.4,9.4-.8-13.1-1.5-26.3-2.3-39.4-.4-6.5-3.3-9.6-8.5-9.6-5.2,0-8.3,3.1-8.3,9.1,0,6.7.6,13.3.5,20.5-16.6,7.5-32.8,14.6-49.1,21.5-7.4,3.2-15,5.9-22.5,8.9-.7-11.4-1.4-22.7-2-34.6Z"/>
  <path class="cls-9" d="M605.7,396.9c.5,6.3,1.1,12.6,1.4,18.9.9,15.3,1.6,30.6,2.4,45.9,0,1.1-.1,2.3-.3,3.8-7,.4-13.7.9-20.5,1.3-27.3,1.5-54.6,2.8-81.8,4.4-3.6.2-4.8-1.1-5.8-4.3-5.7-18.1-11.6-36.1-17-54.5,11.7-1.7,23-3,34.3-4.4,14.4-1.7,28.8-3.4,43.2-5.2,14.7-1.9,29.4-3.9,44.1-5.9Z"/>
  <path class="cls-53" d="M1123.3,324c1.4,26.4,2.9,52.7,3.9,79.6-23.6,10.5-46.7,20.6-69.9,30.5-4.5,1.9-9.3,3.3-13.9,4.9-.6-7.3-1.2-14.6-1.6-21.8-1.1-19.1-2.1-38.2-2.7-57.7,1.2-.6,2.1-.8,2.8-1.1,22.2-9.6,44.4-19.3,66.7-28.8,4.8-2.1,9.8-3.7,14.8-5.5Z"/>
  <path class="cls-163" d="M1294.7,219.5c-19.9,9.1-39.9,17.8-60,26.5-17,7.4-34,14.9-51,22.3-13.8,6.1-27.6,12.2-41.4,18.1-1.8.8-3.8,1-6.1,1.5-1.7-23.7-3.1-47.4-4.5-71.7,25.4-1.4,50.6-2.8,76.4-4.2.4,5.9.7,11.6,1.1,18.4,1.6-2,2.5-3,3.3-4.2,15.3-22.5,48.1-26.4,66.3-18.9,5.9,2.4,10.5,7.8,15.9,12.1Z"/>
  <path class="cls-118" d="M1123.4,323.6c-5,2.3-10,3.9-14.8,6-22.3,9.5-44.5,19.2-66.7,28.8-.7.3-1.6.4-2.8.7-1.8-24.7-3.2-49.4-4.1-74.6,22.9-10.2,45.4-20,68-29.6,5.3-2.3,10.8-3.9,16.3-5.8,1.4,24.7,2.8,49.4,4.2,74.6Z"/>
  <path class="cls-155" d="M1043.3,439.5c4.7-2.1,9.5-3.5,14-5.4,23.2-9.9,46.3-20,69.9-30,.7,7.6.9,15.2,1.4,22.8.7,11.4,1.7,22.8,2.4,34.2.6,9.9,1.1,19.9,1.7,30.4-29,1.6-57.5,3.2-86.6,4.8-1-19.2-1.9-37.7-2.8-56.8Z"/>
  <path class="cls-107" d="M1326.8,321.4c7.9-3.5,15.8-6.5,23.5-9.8,16.9-7.3,33.7-14.8,50.5-22.2,1.5-.7,3.2-.9,5.1-1.4,2,28.2,3.6,56.3,5.2,85.3-27.1,1.5-54,3-81.3,4.5-1.1-18.8-2.1-37.4-3.1-56.4Z"/>
  <path class="cls-15" d="M610.6,241c.4-13.4,4-25.8,10.8-37.7,7.3-.6,14-.9,20.7-1.7,11.6-1.4,23.2-3.1,34.9-4.6,11.9-1.6,23.9-3.1,35.9-4.6,11.6-1.5,23.3-2.8,34.9-4.4,10.6-1.5,21.2-3.3,31.8-5,9.4,8.8,15.2,19.7,19,32.4-2.9,1.3-5.6,2.2-8.3,2.5-11.6,1.6-23.1,3.1-34.7,4.5-9.9,1.2-19.9,2.4-30,3.2-2.6-3.3-4.6-7.2-7.7-9.2-8.3-5.3-23.9-3.4-30.5,3.8-2.8,3.1-3.9,7.7-6.1,11.7-12.4,1.7-24.3,3.4-36.2,4.9-11.5,1.5-22.9,2.8-34.4,4.1Z"/>
  <path class="cls-137" d="M1138.7,342.4c6.6-3.1,13.3-5.6,19.8-8.5,18.7-8.1,37.4-16.3,56.1-24.5.9-.4,1.9-.3,3.3-.5,1.8,24.7,3.2,49.4,4.7,74.7-27.2,1.5-54,3-81.3,4.5-.9-15.5-1.7-30.4-2.5-45.7Z"/>
  <path class="cls-9" d="M472.4,416c1.5,18.7,2.9,37.4,4.4,56.8-30,1.7-59.5,3.3-89.8,4.9-.9-16.8-1.7-33.3-2.1-50.3,5.2-1.1,10-1.8,14.7-2.4,11.6-1.5,23.3-3.1,34.9-4.5,12.6-1.6,25.3-3,37.9-4.5Z"/>
  <path class="cls-21" d="M1086.3,150.8c9.2-.6,18-1.1,27.6-1.7,1,18,2,35.7,3,54-28.9,1.6-57.3,3.2-86.4,4.8-1-17.9-2-35.6-3.1-54.1,19.7-1,39.1-2.1,59-3.1Z"/>
  <path class="cls-78" d="M376.6,282c-.9-14.4-1.8-28.9-2.7-43.7,4.9-.4,9.5-.8,14.1-1.1,30.1-1.7,60.1-3.3,90.2-5,2.7-.2,3.8.7,4.5,3.2,3.2,10.3,6.6,20.6,9.4,31.2-5.7,1.1-10.9,1.7-16.1,2.4-11.6,1.5-23.2,3.1-34.8,4.6-11.6,1.5-23.2,2.9-34.8,4.4-10,1.3-19.9,2.7-29.8,4Z"/>
  <path class="cls-73" d="M779.4,182.7c-10.5,2-21,3.8-31.6,5.3-11.6,1.6-23.3,2.9-34.9,4.4-12,1.5-23.9,3.1-35.9,4.6-11.6,1.5-23.2,3.2-34.9,4.6-6.6.8-13.4,1.1-20.4,1.5,7.9-16,20.5-27.4,36.7-34.3,32.6-14,65.8-15.9,98.8-1.5,8,3.5,14.7,10,22.2,15.4Z"/>
  <path class="cls-10" d="M1119.3,248.6c-5.5,2.4-11,4-16.3,6.3-22.6,9.6-45.1,19.4-67.9,29.2-1.6-20.4-2.8-40.8-4-62.1,29-1.6,57.4-3.2,86.5-4.8.6,10.6,1.3,20.9,1.8,31.5Z"/>
  <path class="cls-164" d="M725.7,226c9.9-1.2,19.9-2.3,29.8-3.5,11.6-1.4,23.1-2.9,34.7-4.5,2.7-.4,5.4-1.2,8.3-2.2,1.8,5.9,3.3,12.2,4.5,18.8-10.1,1.7-19.7,3.1-29.4,4.4-14.4,1.8-28.8,3.4-43.2,5.2-14.6,1.8-29.1,3.9-43.6,5.8-11.3,1.5-22.6,3-33.9,4.3-13.9,1.7-27.9,3.1-41.8,4.7-.2-5.7-.5-11.4-.6-17.6,11.6-1.8,23-3.1,34.5-4.6,11.9-1.5,23.9-3.3,36.6-4.9,4.5-.4,8-.8,11.6-1.1,10-.7,19.9-1.3,29.9-1.7,2.5-.1,3.3-.8,2.6-3.2Z"/>
  <path class="cls-123" d="M919.1,431.4c-5.3,2.5-10.8,4.4-16.1,6.7-18.7,8.2-37.3,16.5-56.3,24.9-4.9-13.3-9.4-26.7-13.6-40.6,1.3-.5,2.4-.5,3.2-.9,19.1-8.3,38.1-16.7,57.2-25,5.6-2.4,11.3-4.4,17-6.5,2.8,13.7,5.6,27.3,8.5,41.4Z"/>
  <path class="cls-66" d="M817.5,264c1.5-6.2,2.9-12.4,5.1-18.8,8.8-1,16.9-1.5,24.9-2.4,14.2-1.8,28.4-3.9,42.7-5.7,16.7-2.1,33.4-4.1,50.1-6.2,15.2-1.9,30.4-3.8,45.6-5.9,5-.7,9.8-2.1,14.7-3.2,3.4,5.5,6.7,11,9.7,16.9-5.7,1.2-11.1,2-16.5,2.8-11.6,1.6-23.2,3.1-34.9,4.6-11.9,1.6-23.9,3.1-35.8,4.6-14.2,1.8-28.5,3.6-42.8,5.4-11.6,1.5-23.2,3-34.9,4.5-9.3,1.2-18.7,2.3-28,3.5Z"/>
  <path class="cls-128" d="M817.3,264.4c9.5-1.5,18.9-2.7,28.2-3.9,11.6-1.5,23.2-3,34.9-4.5,14.3-1.8,28.5-3.6,42.8-5.4,12-1.5,23.9-3.1,35.8-4.6,11.6-1.5,23.2-3.1,34.9-4.6,5.4-.7,10.8-1.6,16.6-2.4,2.1,4.7,3.8,9.4,5.1,14.6-28.7,4.1-57,7.9-85.6,11.3-3.7-7.2-8-10.2-13.9-9.4-7.1.9-11.1,4.8-12.5,12.7-.4,2.3-.6,4.6-1.3,6.9-7.3.7-14.2,1.2-21.1,2-11.6,1.4-23.1,3-34.7,4.5-9.9,1.2-19.9,2.3-29.9,3.5.2-6.8.4-13.5.8-20.6Z"/>
  <path class="cls-115" d="M611.1,259.5c14-2,27.9-3.5,41.8-5.2,11.3-1.3,22.6-2.8,33.9-4.3,14.5-1.9,29.1-3.9,43.6-5.8,14.4-1.8,28.8-3.4,43.2-5.2,9.7-1.2,19.3-2.6,29.3-4,1,6.9,1.6,13.9,2.2,21.5-40.9,2.3-81,4.5-121.7,6.7.7,1.3,1.1,2.2,1.3,3.4-11.2,1.7-22.2,3.1-33.1,4.5-12.5,1.6-25.1,3.3-37.6,5-1-5.4-2-10.8-2.9-16.7Z"/>
  <path class="cls-54" d="M828.3,327.1c-2.6-5.8-5.1-11.6-7.3-17.7,5.6-1.1,10.9-1.8,16.1-2.5,17.6-2.3,35.3-4.5,52.9-7,5.3-.7,10.5-2.2,16-3.1,5.8,9.8,19,9.9,24.8.1,6.3-.6,12.2-1.2,18.1-2,11.4-1.4,22.9-2.9,34.3-4.4,11.9-1.5,23.8-3.1,35.7-4.6-.7,5.4-1.3,10.9-2.6,16.7-7.5,1-14.5,1.5-21.3,2.4-11.9,1.4-23.9,3.1-35.8,4.6-11.6,1.5-23.2,2.9-34.8,4.4-11.5,1.4-22.9,2.9-34.3,4.4-11.9,1.5-23.9,3-35.8,4.7-8.6,1.2-17.2,2.7-25.8,4.1Z"/>
  <path class="cls-169" d="M1000.5,221.4c-4.8,1.4-9.6,2.8-14.6,3.5-15.2,2.1-30.4,4-45.6,5.9-16.7,2.1-33.4,4-50.1,6.2-14.2,1.8-28.4,4-42.7,5.7-8,1-16.1,1.5-24.6,2.2,3.3-7,7.1-13.9,11.5-20.7,3.2.3,5.9.9,8.4.6,20.7-2.5,41.3-5.3,62-7.9,23.3-3,46.6-5.9,69.8-9.1,2.7-.4,5.3-2,8-3,6,5.4,11.9,10.8,18,16.5Z"/>
  <path class="cls-23" d="M982.3,204.6c-2.5,1.3-5,2.9-7.8,3.3-23.3,3.1-46.5,6.1-69.8,9.1-20.7,2.7-41.3,5.4-62,7.9-2.6.3-5.2-.3-8.1-.8,7-10.5,16.7-17.8,27.8-23,32.6-15.1,66.3-17.2,100.6-6.1,6.7,2.2,12.8,6.1,19.4,9.6Z"/>
  <path class="cls-179" d="M605.8,396.5c-14.8,2.4-29.4,4.5-44.2,6.3-14.4,1.8-28.8,3.5-43.2,5.2-11.3,1.3-22.6,2.7-34.3,4-2.6-7-4.7-14.1-6.5-21.5,9.4-1.7,18.3-2.9,27.3-4.1,11.6-1.5,23.2-2.9,34.8-4.4,11.6-1.5,23.2-3.1,34.8-4.5,10-1.2,20-2.3,29.9-3.5.5,7.3.9,14.7,1.3,22.5Z"/>
  <path class="cls-40" d="M509.5,264c-.8-10.9-1.5-21.8-2.3-33.3,29.9-1.7,59.3-3.3,89.3-5,.5,9.3,1.1,18.4,1.1,27.8-4.5.7-8.4.9-12.4,1.4-12.1,1.5-24.2,3.2-36.3,4.7-13.1,1.6-26.2,2.9-39.4,4.3Z"/>
  <path class="cls-173" d="M1310.3,331c.9,15.7,1.7,31.3,2.6,47.6-24.6,1.4-48.8,2.8-73.9,4.2-.3-7.4-.6-14.6-.4-22.3,1-.5,1.5-.5,1.9-.7,18.4-8,36.8-16.1,55.3-23.9,4.7-2,9.6-3.3,14.4-4.9Z"/>
  <path class="cls-31" d="M376.5,282.5c10-1.8,20-3.2,29.9-4.5,11.6-1.5,23.2-2.9,34.8-4.4,11.6-1.5,23.2-3.1,34.8-4.6,5.2-.7,10.4-1.3,16.1-2,2.5,6.3,4.5,12.6,6.3,19.6-16,3-31.8,5.2-47.6,7.4-12.1,1.7-24.2,3.3-36.3,4.8-12.3,1.5-24.6,2.8-36.9,4.2-.4-6.7-.8-13.4-1.1-20.5Z"/>
  <path class="cls-159" d="M799.2,295c-4,6.3-8,12.5-12.7,18.7-2.3-.2-3.9-.6-5.5-.4-9.6,1.1-19.3,2.4-28.9,3.7-11.4,1.5-22.9,2.9-34.3,4.4-11.9,1.5-23.9,2.9-35.8,4.7-7.6,1.1-15.2,2.7-22.8,4.1-6.9-4.4-13.8-8.7-20.6-13.7,7.5-1.9,14.9-3.3,22.4-4.4,11.9-1.7,23.9-3.2,35.9-4.7,11.6-1.5,23.3-2.9,34.9-4.4,11.6-1.5,23.2-3.1,34.9-4.5,10.8-1.3,21.7-2.3,32.5-3.5Z"/>
  <path class="cls-153" d="M799.4,294.6c-11,1.5-21.9,2.5-32.7,3.8-11.6,1.4-23.3,3-34.9,4.5-11.6,1.5-23.3,2.9-34.9,4.4-12,1.5-23.9,3-35.9,4.7-7.5,1.1-14.9,2.5-22.6,4.1-4.1-3.9-8-8.2-11.6-13,10.4-2.1,20.4-3.7,30.5-5.2,11.8-1.7,23.6-3.1,35.3-4.6,11.6-1.5,23.3-2.9,34.9-4.4,11.6-1.5,23.2-3.1,34.9-4.5,13.6-1.6,27.2-3,40.9-4.5-1.3,4.8-2.6,9.5-4,14.6Z"/>
  <path class="cls-112" d="M604.5,373.5c-10,1.6-20,2.7-30,4-11.6,1.4-23.2,3-34.8,4.5-11.6,1.5-23.2,2.9-34.8,4.4-9,1.2-17.9,2.5-27.4,3.7-2.3-5.8-4.1-11.5-5.5-17.8,5.5-1.1,10.5-1.8,15.6-2.5,14.4-1.9,28.8-3.9,43.1-5.8,12.3-1.6,24.5-3.3,36.8-4.8,12-1.5,23.9-2.8,35.9-4.2.4,6,.8,12.1,1.1,18.5Z"/>
  <path class="cls-57" d="M803.5,279.6c-13.7,1.9-27.4,3.3-41,4.9-11.6,1.4-23.2,3-34.9,4.5-11.6,1.5-23.3,2.9-34.9,4.4-11.8,1.5-23.6,3-35.3,4.6-10.1,1.4-20.2,3.1-30.6,4.8-2.8-3.9-5.2-8-7.2-12.4,2.5-.5,4.7-.4,6.9-.6,17.3-2.2,34.6-4.4,51.9-6.9,6.3-.9,12.5-2.3,18.8-3.5,8.1,1,16.1,1.6,23.9-1.4,1.8-.7,4.2-1.3,5.2-2.7,3.6-4.8,8.6-4.2,13.5-4.4,21.4-1.1,42.8-2.3,65.1-3.6-.5,4.2-.9,8-1.5,12.3Z"/>
  <path class="cls-112" d="M828.3,327.5c8.5-1.7,17.1-3.2,25.8-4.4,11.9-1.7,23.9-3.1,35.8-4.7,11.4-1.5,22.9-2.9,34.3-4.4,11.6-1.5,23.2-2.9,34.8-4.4,11.9-1.5,23.9-3.2,35.8-4.6,6.9-.8,13.8-1.4,21.1-2-.8,4.1-2.1,8.2-4,12.6-2.9.4-5.3.3-7.6.6-16.8,2.2-33.6,4.6-50.5,6.7-17,2.2-34.1,4-51.1,6.2-17.7,2.2-35.3,4.5-53,6.9-4.5.6-9,1.9-13.4,2.9-2.7-3.7-5.4-7.5-8.2-11.5Z"/>
  <path class="cls-66" d="M377.6,303.4c12.4-1.8,24.7-3.1,36.9-4.6,12.1-1.5,24.2-3.1,36.3-4.8,15.8-2.2,31.6-4.5,47.7-7,2.2,5.5,4.1,11.4,5.6,17.7-8.7,1.5-17.1,2.7-25.4,3.8-11.8,1.6-23.5,3.1-35.3,4.6-11.6,1.5-23.2,3-34.8,4.5-10,1.2-20,2.4-29.9,3.5-.4-5.7-.8-11.4-1.1-17.6Z"/>
  <path class="cls-142" d="M1310.4,330.6c-4.9,2.1-9.8,3.3-14.5,5.3-18.5,7.9-36.9,15.9-55.3,23.9-.4.2-1,.1-1.9.2-1-9-1.6-18.1-2.1-27.6,7.6-3.4,15.1-6.2,22.5-9.3,16.3-6.9,32.4-14,49-21.1,1,9.3,1.7,18.7,2.2,28.5Z"/>
  <path class="cls-79" d="M1433.3,359.3c-.3-2.1-.5-4.2-.3-6.8,5.3-2.2,10.1-3.9,14.9-5.6,7.6-2.7,15.2-5.3,23.1-7.7,6.1,3.6,11.4,1.7,11.6-4.2,7.3-3.2,14.5-6.1,21.7-8.9-.9,5.1-1.8,10.2-2.7,15.5,2.6-.2,3.1,2.2,3.2,5.5.2,6.1.9,12.2,1.5,18.7-24.1,2-47.9,4-72.3,6.1-.2-3.8-.4-7.3-.5-11.3,0-.8,0-1,0-1.2Z"/>
  <path class="cls-48" d="M905.7,296.7c-5.2,1.1-10.4,2.5-15.7,3.3-17.6,2.5-35.3,4.7-52.9,7-5.2.7-10.4,1.4-16.1,2.1-1.8-7.7-3.2-15.4-4.5-23.5,10-1.6,20-2.7,29.9-3.9,11.6-1.4,23.1-3.1,34.7-4.5,6.9-.8,13.7-1.4,21.2-1.6,1.5,7.4,2.4,14.3,3.4,21.2Z"/>
  <path class="cls-171" d="M1005.5,329c-4.4,5.3-8.9,10.5-14,15.9-4.8.2-8.9-.1-12.9.4-17,2.1-34,4.6-51,6.8-16.5,2.1-33.1,4-49.6,6.2-3.6.5-7,2.1-10.6,3.2-6.2-3.5-12.4-7-18.7-11.1,3-1.5,6-2.7,9.1-3.1,11.8-1.6,23.6-2.9,35.3-4.4,11.9-1.5,23.9-3.1,35.8-4.6,11.4-1.5,22.9-3,34.4-4.4,14.1-1.6,28.2-3.1,42.3-4.6Z"/>
  <path class="cls-85" d="M1005.8,328.8c-14.4,1.7-28.5,3.2-42.6,4.8-11.5,1.3-22.9,2.9-34.4,4.4-11.9,1.5-23.9,3.1-35.8,4.6-11.8,1.5-23.6,2.8-35.3,4.4-3.1.4-6.1,1.6-9.2,2.9-4-3.2-7.8-6.7-11.8-10.6,4.4-1.3,8.8-2.6,13.3-3.2,17.6-2.4,35.3-4.7,53-6.9,17-2.1,34.1-4,51.1-6.2,16.8-2.1,33.7-4.5,50.5-6.7,2.3-.3,4.6-.2,7.4-.2-1.7,4.2-3.7,8.4-6.1,12.8Z"/>
  <path class="cls-74" d="M956.5,625.8c-1,.4-2.1,1.1-3.1,1.1-9.5.4-19.1.6-28.6,1.1-7.8.4-15.6,1.1-23.9,1.3-1-5.8-3.2-11.8-1.8-16.7,1.6-5.4,0-9.4-1.5-14-.2-.7,0-1.6-.1-2.5,20-1.1,40.1-2.2,60.5-2.8.8,7.4,1.6,14.4,1.3,21.4-.1,3.7-1.9,7.4-2.9,11.1Z"/>
  <path class="cls-44" d="M1194,527c0,23,.1,46,0,69.5-.3.5-.7.6-.7.6-12.2-12.1-24.4-24.1-36.5-36.2-1.1-1.1-1.5-3.3-1.5-5-.1-9,0-18,.5-27.5,13.1-.8,25.6-1.1,38.2-1.4Z"/>
  <path class="cls-111" d="M602.4,334c.2,2.7.3,5.4,0,8.5-1.8.5-3.2.4-4.5.6-11.6,1.6-23.2,3.4-34.9,4.8-14.8,1.9-29.6,3.3-44.3,5.2-16.9,2.2-33.7,4.6-50.6,7-.8-.6-1.6-1.2-2.9-1.4-6.6,1-12.6,1.6-18.7,2.3-11.7,1.5-23.5,3.1-35.2,4.5-10,1.2-19.9,2.3-29.9,3.5-.2-2.3-.5-4.7-.2-7.5,20.3-3,40-5.7,59.8-8.2,19.6-2.5,39.2-4.8,58.8-7.4,5.3-.7,10.5-2.1,15.7-3.1.5.9,1.1,1.7,2.2,2.4,10.4-1.5,20.2-2.9,30-4.2,18.2-2.4,36.3-4.7,54.5-7Z"/>
  <path class="cls-174" d="M957,625.9c.6-3.8,2.3-7.4,2.4-11.2.2-7-.5-13.9-.9-21.3,9.6-1.1,19.2-2.1,28.9-2.3,9.6-.2,18.3-2.8,26.8-8,.8,2.9,1.4,5.5,1.4,8.1.1,5.8-.1,11.6.1,17.5,0,1.5,1.2,2.9,1.9,4.4-5.9,6.7-13.5,10.2-22.2,10.9-12.6,1-25.3,1.4-38.5,2Z"/>
  <path class="cls-108" d="M1287.9,665.1c0-6.6.3-13.2.7-19.8,0-1.1.1-2.3.6-3.4,1.3-3.3,1.1-6.4-1.4-9.5,15.4-15.9,31.1-31.4,46.5-47.3,5.9-6.1,8.7-14,10-22.8.2,11.5.9,23.4.2,35.1-.6,9.8-5.8,17.8-12.6,24.7-10.1,10.2-20.2,20.3-30.4,30.4-4.3,4.2-8.7,8.3-13.5,12.4Z"/>
  <path class="cls-114" d="M1152.4,161c-6.8-6.7-13.6-13.4-20.1-20.5,10.8-3.5,21.4-6.5,32.2-9.2,3,4.4,5.8,8.6,8.8,13.1,4.6-6.9,8.8-13.2,13.4-19.4,9.7-2.4,18.9-4.8,28.2-7.2,3.7,3.7,7.5,7.4,11.6,11.4-6.4,6.4-12.5,12.4-19.3,18.6-3.3.4-6,.4-8.5,1-15.4,4-30.8,8.1-46.3,12.2Z"/>
  <path class="cls-72" d="M378.6,321.4c10-1.6,20-2.8,30-4,11.6-1.4,23.2-3,34.8-4.5,11.8-1.5,23.5-3,35.3-4.6,8.3-1.1,16.7-2.3,25.4-3.4,1.8,4.4,3.2,8.7,4.2,13.6-14.4,2.5-28.4,4.5-42.4,6.3-14.2,1.9-28.5,3.5-42.7,5.3-14.5,1.9-29.1,3.8-43.6,5.7-.4-4.7-.7-9.4-1-14.6Z"/>
  <path class="cls-98" d="M1164.3,131c-10.6,3-21.2,6-32.2,9.2-4.1-3.6-7.7-7.3-11.6-11.3,6.5-6.5,13-13,20.1-19.6,1.7,0,2.9.4,3.9.2,13-3.3,25.9-6.5,38.8-10,3.2-.9,6.2-2.6,9.4-3.9,7.3,7.2,14.6,14.4,22,21.9-9.1,2.7-18.3,5.1-27.9,7.1.3-1.6,1-2.9,1.7-4.3h-30.6c2.3,4,4.4,7.3,6.4,10.7Z"/>
  <path class="cls-105" d="M910.6,389.5c-5.7,2.6-11.5,4.6-17.1,7-19.1,8.3-38.1,16.7-57.2,25-.9.4-1.9.3-3.3.5-3.8-11.1-7.3-22.2-11.1-34.3,29.3-1.6,58-3.2,87.3-4.9.5,2.3.9,4.3,1.3,6.7Z"/>
  <path class="cls-65" d="M1017.9,612.9c-1-1.3-2.2-2.8-2.2-4.2-.2-5.8,0-11.6-.1-17.5,0-2.6-.6-5.2-1.1-8.2,12.5-10.1,15.2-24.6,17.9-39,0-.3,0-.7.1-1,1.5-7.8,1.5-7.4,9.3-7.2,7.9.2,15.9-.4,24.3-.2,3.1,3.7.8,6.8.6,10.1-.6,7.7-.2,15.4-.2,23.1h-31.8c-1.8,8.3-3.5,17.1-5.6,25.8-1.7,7.1-5.2,13.3-11.2,18.3Z"/>
  <path class="cls-81" d="M379.5,336.5c14.6-2.4,29.1-4.3,43.7-6.2,14.2-1.8,28.5-3.4,42.7-5.3,14-1.8,28.1-3.8,42.5-5.9,1.7,3.9,2.9,8,3.8,12.5-2.4.7-4.3,1.1-6.3,1.4-9,1.1-18,2.2-27,3.4-11.9,1.5-23.9,3.1-35.8,4.6-11.6,1.5-23.2,3.1-34.8,4.5-9.3,1.2-18.6,2.3-28,3.5-.3-4-.6-8.1-.9-12.6Z"/>
  <path class="cls-29" d="M567.5,628.8c-6.3,1.4-12.5,3.6-19.1,1.2-.4-.2-1,0-1.5,0-9.5-.3-19-.7-29-1.5-1-7.8-4.1-15.1-.7-22.4.2-.4,0-1,0-1.5-.2-3.1-.5-6.3-.7-9.4,9.1.4,18.1,1.2,27.2,1.2,7.7,0,15.3-.8,23.4-.8.4,11.3.4,22.3.4,33.2Z"/>
  <path class="cls-32" d="M659.5,330.4c7.4-1.6,14.9-3.2,22.5-4.3,11.9-1.7,23.8-3.1,35.8-4.7,11.4-1.5,22.9-2.9,34.3-4.4,9.6-1.2,19.3-2.5,28.9-3.7,1.6-.2,3.2.2,5.2.5-10,11.3-23.4,17-37.8,20.5-27.6,6.6-55.2,8.4-82.6-1.2-2-.7-4-1.6-6.2-2.7Z"/>
  <path class="cls-178" d="M897.1,596.1c.5.9.3,1.8.6,2.5,1.5,4.5,3,8.5,1.5,14-1.4,4.9.8,10.9,1.4,16.8-6.7.8-13.4,1.3-20.2,1.6-11.8.5-22.4-2.8-31.5-10.8.9-2.9,2.8-5.6,2.1-7.5-1.9-5.4-3.2-10.6-1.6-16.4.8-2.8.1-6.1,0-9.1,11.9,10.3,26.1,10.8,40.7,9.4,2.1-.2,4.3-.3,6.9-.4Z"/>
  <path class="cls-8" d="M509.4,264.5c13.2-1.9,26.3-3.2,39.4-4.8,12.1-1.4,24.2-3.2,36.3-4.7,3.9-.5,7.9-.7,12.3-1,.8,5.7,1.1,11.3,1,17.5-7.8,1.5-15.2,2.5-22.5,3.5-12.1,1.6-24.1,3.2-36.2,4.7-9.6,1.2-19.3,2.2-28.9,3.3-.5-6-1-12-1.4-18.5Z"/>
  <path class="cls-116" d="M802.5,610.8c-10-.3-20.1-.6-30.1-.7-1.2,0-2.5,1.2-3.6,2.1-3.7,2.9-7.3,5.9-11.6,8.8-1.5-.7-2.4-1.3-2.8-1.5.7-2.1,2.1-4,1.6-5.1-2.8-6.6-1-13,0-19.6.3-2-.4-4.1-.6-6.2,4.2-3.4,8.4-6.9,12.6-10.3,1.1-.8,2.5-1.6,3.8-1.6,10.9,0,21.8.1,33.2.7-.2,4-1.5,7.6-1.4,11.1.4,7.5,1,14.9-1.2,22.2Z"/>
  <path class="cls-47" d="M567.9,628.8c-.4-10.9-.4-21.8-.4-33.2,6.4-4.3,12.9-8.2,20.3-12.6,7.6,5.6,17.8,8.2,29.2,8.5-2.4,11.4-1.2,22.4.5,33.4-9.9-1-20.2-.6-28.9-7-.8-.6-3.1.3-4.4,1-5.4,3.2-10.7,6.5-16.3,9.9Z"/>
  <path class="cls-139" d="M1066.9,568.9c-.4-7.8-.8-15.5-.2-23.2.3-3.3,2.5-6.4-.2-10,16-1.3,32-2.2,49.3-3.2,0,12,0,23.2-.3,35-.5.5-.7.5-.9.5-1-.6-2.1-1.9-3.1-1.8-8,.5-16,1.3-24,1.8-6.7.5-13.5.7-20.6.9Z"/>
  <path class="cls-30" d="M380.3,349.5c9.4-1.6,18.7-2.7,28-3.9,11.6-1.5,23.2-3,34.8-4.5,11.9-1.6,23.9-3.1,35.8-4.6,9-1.1,18-2.2,27-3.4,2-.2,3.9-.6,6.3-1,1.4,3.3,2.5,6.7,3.5,10.4-5.3,1.5-10.5,2.8-15.8,3.5-19.6,2.6-39.2,4.9-58.8,7.4-19.8,2.5-39.5,5.2-59.8,7.8-.7-3.7-.8-7.4-1-11.6Z"/>
  <path class="cls-156" d="M468.2,360.5c16.8-2.7,33.6-5.2,50.5-7.3,14.8-1.9,29.6-3.4,44.3-5.2,11.6-1.5,23.2-3.2,34.9-4.8,1.3-.2,2.7-.1,4.4-.2.7,3.7,1,7.4,1.2,11.6-12,1.8-24,3.2-36,4.6-12.3,1.5-24.5,3.2-36.8,4.8-14.4,1.9-28.8,3.9-43.1,5.8-5.1.7-10.1,1.4-15.6,2.1-1.5-3.6-2.7-7.3-3.9-11.4Z"/>
  <path class="cls-167" d="M516,595.1c.7,3.2.9,6.4,1.1,9.5,0,.5.3,1.1,0,1.5-3.4,7.4-.3,14.6.2,22.3-10.1-.2-20.3-.1-29.8-5.1-3.8-2-8.8-1.6-13.2-2.3-1.7-.3-3.5-.7-5.5-1.4-.5-2.1,0-4.2-.9-5.3-1.7-2.2-1.7-3.7.2-5.6.6-.6.8-1.7.8-2.6,0-6.5-.2-13.1-.3-19.6,4.8.5,9.6,1,14.3,1.6,1.3.1,2.8,0,3.8.7,8.9,5.5,18.8,6.3,29.3,6.5Z"/>
  <path class="cls-132" d="M867.6,361.6c3.3-1.3,6.7-2.9,10.3-3.4,16.5-2.2,33.1-4.1,49.6-6.2,17-2.2,34-4.6,51-6.8,4-.5,8.1-.2,12.6-.3-9.5,9.7-21.6,15.6-34.7,19.3-28.5,8.1-57.1,8.8-85.4-1.1-1.1-.4-2.2-.9-3.5-1.5Z"/>
  <path class="cls-27" d="M618,624.9c-2.2-11-3.4-22-.5-33.4,9.3,0,18.6.4,27.9.4,6.1,0,12.2-.8,18.8-.9.2,3.5-.5,6.6-.5,9.8-.2,7.6,0,15.3,0,22.9-7.6,4.1-15.9,1.8-23.8,2-7.1.2-14.2-.6-21.7-1Z"/>
  <path class="cls-2" d="M755,588.8c.6,2,1.2,4.1.9,6.1-1,6.5-2.8,12.9,0,19.6.5,1.1-.9,3-1.6,5.1.3.2,1.2.9,2.5,1.7-6.5,4.1-13.7,5.8-21.7,4.8-9.4-1.1-18.8-1.6-28.2-2.9.7-6.4,1.8-12.2,1.9-18,.1-5-.8-10-1.3-15,8.6.9,17.2,2.6,25.8,2.4,7.1-.1,14.2-2.4,21.7-3.7Z"/>
  <path class="cls-160" d="M472.4,415.6c-12.7,1.9-25.3,3.3-37.9,4.9-11.6,1.4-23.3,3-34.9,4.5-4.7.6-9.5,1.3-14.6,2-.8-5.7-1.2-11.4-1-17.5,14.5-2.2,28.6-3.9,42.6-5.7,14.7-1.9,29.3-3.9,44-5.8.7,5.8,1.3,11.5,1.9,17.6Z"/>
  <path class="cls-42" d="M1194.1,526.6c-12.7.8-25.2,1.1-38.2,1.4-.5-13-.5-26,0-39.5,12.9-.8,25.2-1.1,37.7-1.4.2,0,.5,0,.6.4.2.7.3,1.2.3,1.6,0,12.4-.2,24.7-.4,37.6Z"/>
  <path class="cls-34" d="M803,610.9c1.7-7.4,1.1-14.8.7-22.2-.2-3.5,1.2-7.1,1.8-11,11.2-.5,22.4-.6,33.7-.5,1.3,0,2.9,1.2,3.9,2.3,2.2,2.2,4.1,4.7,6.3,7.4.2,3.3.8,6.6,0,9.4-1.5,5.8-.3,10.9,1.6,16.4.7,1.9-1.2,4.7-2.3,7.2-.9-.2-1.6-.5-1.9-1-3.2-7.9-9.6-8.3-17-8-8.8.5-17.7,0-26.9,0Z"/>
  <path class="cls-140" d="M1236.5,129.1c-6.8-6.7-13.6-13.4-20.2-20.6,8.6-2.4,17-4.5,25.3-6.1,0,1.1.1,2.5.3,2.5,9.8.1,19.5,0,29.7,0-1-2-1.6-3.3-2.1-5,2.8-1.2,5.5-2.3,8.1-3.1,8.4-2.4,16.8-4.8,25.2-7.2,2,1.9,4,3.8,6.3,6-6.9,6.9-13.4,13.5-20.4,19.8-1.3-.5-2.4-1.3-3.2-1.1-15.4,3.9-30.7,7.9-46,12-1.2.3-2.1,1.7-3.1,2.6Z"/>
  <path class="cls-91" d="M1504.2,325.6c-7.2,3.2-14.4,6.1-22,9.1-7.4-2.2-10.4-1.1-11.5,4.2-7.6,2.6-15.2,5.3-22.8,7.9-4.8,1.7-9.6,3.4-14.8,5.1-.7-2.5-1-4.9-1.3-7.8,6.9-.7,13.6-1.3,20.6-2-9.4-12.2-3.8-30.5,12.1-34.2,6-1.4,12.5-2.2,18.7-1.7,11.7.8,18.5,7.4,21.2,19.4Z"/>
  <path class="cls-20" d="M1265.5,510c0-12.4,0-24.7.4-37.5,13.1-.5,25.7-.5,38.2-.5,0,12.7.1,25.4-.3,38.5-8.5.2-16.4-.1-24.3-.3-4.7-.1-9.3-.1-14-.2Z"/>
  <path class="cls-56" d="M1265.4,510.5c4.7-.4,9.4-.4,14-.3,7.9.2,15.9.5,24.2.8.5,5.7.5,11.4.1,17.5-3.9.8-7.3,1.4-10.8,1.4-7.9.1-15.7,0-23.9,0-1.2-1.2-2.1-2.3-3.4-3.8-.2,1.4-.2,2.2-.8,3-15.1,0-29.7,0-44.3,0-3.3-5.1-6.7-10.2-9.6-15.7,13.3-.3,26.3-.3,39.3-.4,2.1,0,4.2-.7,6.3-1,2.6,3.7,5.3,7.5,8.7,12.3,0-5.3,0-9.3,0-13.8Z"/>
  <path class="cls-150" d="M1469.4,244.1c5.4-1.3,10.8-2.7,16.8-4.2,3.4,8.2,7,16.6,10.6,25.3-4.5,2.4-8.5,4.5-13.1,6.8-.8.2-1.1.4-1.2.7-.2,0-.3.2-1.2.3-3.1.5-5.6.8-7.9,1.6-9,3.1-18,6.3-27,9.5-1.2-2.5-2.3-5-3.8-8.1,5.4-2.8,10.4-5.4,15.4-8-.2-.4-.3-.8-.5-1.2-5.3,1.7-10.7,3.4-16.5,5.2-1.7-3.9-3.2-7.5-4.7-11.9,5.1-3,10.2-5.3,15.2-7.6,5.9-2.7,11.8-5.5,17.6-8.2Z"/>
  <path class="cls-180" d="M1019,285.6c-12.1,1.9-24,3.5-35.9,5-11.4,1.5-22.9,2.9-34.3,4.4-5.9.7-11.8,1.3-18.1,1.6.3-5.8,1.1-11.2,2.2-16.6,2.5-.3,4.6-.7,6.8-1,11.6-1.4,23.3-2.8,34.9-4.3,14.6-1.9,29.1-3.8,43.7-5.8.3,5.4.5,10.8.6,16.6Z"/>
  <path class="cls-154" d="M707.2,590c.8,5.1,1.8,10.2,1.7,15.2-.1,5.8-1.2,11.6-2.1,17.7-4.6-1.6-9.2-3-13.1-5.4-5.7-3.5-10.8-3.3-16.4,0-4.1,2.5-8.6,4.3-13.4,6.3-.4-7.7-.5-15.4-.3-23,0-3.2.7-6.3,1-9.9,4.3-3,8.4-6.6,13.2-7.9,4.8-1.3,10.4-1,15.2.1,4.9,1.2,9.3,4.3,14.2,6.7Z"/>
  <path class="cls-94" d="M1241.7,102.1c-8.4,2-16.8,4.1-25.6,6.2-4.4-4.1-8.4-8.2-13.2-13.3,4-3.8,8.4-7.8,13.4-11.9,9.2-2.1,17.8-3.9,26.2-6.1,12.5-3.2,24.9-6.7,37.3-10.1,3.9,3.8,7.8,7.6,11.5,11.8-3.9,1.4-7.6,2.3-11.2,3.4-6.2,2-12.4,4-18.9,5.9-1.8-2.5-3.4-4.7-5.2-7.3-5,7.5-9.7,14.5-14.3,21.5Z"/>
  <path class="cls-176" d="M1496.5,543.1c-.2,0-.4,0-.5,0-6.7-4.1-13-.3-19.6.9-7.2,1.3-14.6,1.4-22.5,1.6-.5-4.2-.5-7.9-.6-11.7-.2-6.3-3-12.8,1-18.9.3-.5.1-1.3.2-2,11-.2,21.7-1.8,32-6,2.2-.9,5.7,1.3,8.8,2.7-1.6,4.6-2.3,8.4-1.1,13.2,1.7,6.5,1.6,13.5,2.2,20.2Z"/>
  <path class="cls-99" d="M510.8,283.4c9.7-1.5,19.3-2.5,29-3.7,12.1-1.5,24.1-3.1,36.2-4.7,7.3-1,14.7-2,22.4-3,.8,5,1.1,10,.9,15.6-5,1.2-9.6,1.8-14.1,2.4-12.2,1.6-24.4,3.3-36.7,4.8-11.9,1.5-23.9,2.8-35.8,4.2-.6-5.1-1.3-10.1-1.9-15.6Z"/>
  <path class="cls-119" d="M1454.1,512.9c.3.8.5,1.6.2,2.1-4,6.1-1.2,12.6-1,18.9.1,3.7,0,7.5.2,11.6-10.6,10.4-23.1,15.7-38,14.5-1.1,0-2.1-.5-3.6-1.3-.7-7.1-2.1-13.8-.9-20.1.9-4.8,0-8.9-.4-13.3,14.7,2.9,27.6-.8,39.1-10.1,1.2-1,2.8-1.5,4.5-2.1Z"/>
  <path class="cls-33" d="M1292.5,124c5-5.1,9.9-10.2,15-15.1,1.1-1,2.8-1.8,4.3-1.8,23.7-.1,47.4,0,72.8,0-5.8,5.8-10.8,10.7-16.5,15.8-8,.8-15.2,1.9-22.4,2.1-16.2.6-32.4.8-48.6,1-1.5,0-3.1-1.3-4.6-1.9Z"/>
  <path class="cls-120" d="M429.5,610.8c-13,0-26,0-39.5-.3-1.4-3.9-3.1-7.4-3.2-10.9-.2-7.5.5-15,.8-22.4,13.4,0,26.7,0,40.5.4.5,5.4.5,10.4.5,15.9-.4.8-1.8,2.5-1.6,3.9.6,4.5,1.7,9,2.6,13.5Z"/>
  <path class="cls-126" d="M430,610.9c-1.4-4.6-2.5-9-3.1-13.5-.2-1.4,1.2-3,1.6-3.9,0-5.5,0-10.4,0-15.8,7.3-.5,14.6-.7,21.9-.5,1.6,0,3.2,1.3,4.8,2.1,4.3,2.2,8.6,4.5,13.2,6.9.4,6.7.6,13.3.6,19.8,0,.9-.2,2.1-.8,2.6-1.9,1.9-1.9,3.4-.2,5.6.9,1.1.4,3.2.5,5.2-4.2-1.6-8.3-3.6-12.5-5.4-2.9-1.2-5.8-2.7-8.8-3-5.6-.5-11.2-.1-17.3-.2Z"/>
  <path class="cls-168" d="M1304.2,471.6c-12.7.5-25.2.5-38.2.4-.5-17.8-.5-35.6-.5-54.4,1.5,1.2,2.6,2,3.6,2.9,10.9,11,21.9,21.9,32.6,33.1,1.4,1.5,2.3,3.9,2.5,6,.4,3.8,0,7.7,0,11.9Z"/>
  <path class="cls-49" d="M1496.7,543.5c-.9-7.1-.7-14.1-2.4-20.6-1.2-4.8-.6-8.5,1.3-13,12.6,3.2,25.2.4,38.4,0,.9,3.3,1.2,6.2,1.7,9.1,1.1,7.6-3.6,15.5.9,23-2.8.6-5.5,1.6-8.3,1.8-6.4.5-12.8.9-19.2,1-4.1,0-8.1-.7-12.4-1.5Z"/>
  <path class="cls-45" d="M1410.2,525.1c.9,4.6,1.7,8.7.8,13.5-1.2,6.2.2,13,.6,19.9-7.6-.3-13.2-4.8-19.2-9-2.5-1.7-5.7-2.6-8.7-3.4-3.7-1-7.6-1.4-11.7-2.6-2-6.2,2.1-11.8-1-18.1-1.9-3.7.2-9.5.6-14.3,8.7,1,17.7.5,25.1,7.2,3.6,3.2,8.8,4.5,13.6,6.8Z"/>
  <path class="cls-95" d="M563.2,189v-9.6c-12.9,9.3-26.1,18.9-39.7,28.7-4.3-4.8-7.7-8.7-11.8-13.2,15.1-6.9,28.4-15.6,40.6-26.9,4.9-.9,9.1-1.8,13.4-2.6,10.9-1.9,21.8-3.7,32.7-5.5-.1,2.9-.3,5.9-.4,8.9h-18.6c-.3,5.7-.6,11.4-1.4,17.6-5.3,1.1-10,1.8-14.7,2.4Z"/>
  <path class="cls-14" d="M387.1,577.1c.1,7.6-.5,15.1-.3,22.5,0,3.5,1.8,6.9,2.8,10.8-20.5-.1-36.9-12-40.8-32.9-1.2-6.6-.2-13.6-.2-20.4,0-4.5,0-9,0-13.9,2.8,10.7,7.9,20.2,17.7,26.7,6.2,4.1,12.9,6.6,20.8,7.1Z"/>
  <path class="cls-152" d="M1114.6,568.5c.3-.5.5-.5,1-.6,2.8,9.2,7.9,16.7,14.7,23.3,9.2,8.8,18,18.1,27.2,27.4-4.2,2.4-5.7,7-4.5,10.5,1.9,5.5,2.7,10.1-1.3,14.8-.3.3-.1,1-.2,1.8-9.7-9.5-19.6-19.2-29-29.4-6-6.5-7.5-15-7.9-23.5-.4-7.9,0-15.9,0-24.3Z"/>
  <path class="cls-39" d="M1446.6,284.4c9-3.5,17.9-6.8,26.9-9.8,2.3-.8,4.8-1,7.6-1.5,2,.1,3.8.6,5.2.2,4-1,7.9-2.5,12.2-3.9,3.3,7.9,6.5,15.5,10.1,23.9-18,3.7-35.8,7.4-53.8,11.1-2.8-6.7-5.5-13.1-8.2-19.9Z"/>
  <path class="cls-81" d="M1018.5,268.6c-14.6,2.3-29.2,4.3-43.7,6.2-11.6,1.5-23.3,2.8-34.9,4.3-2.1.3-4.2.7-6.9.6-1.2-5.1-2-9.8-2.8-14.5,28.3-3.7,56.6-7.4,85.4-11.2,1.3,4.7,2.1,9.5,2.9,14.7Z"/>
  <path class="cls-52" d="M512.7,299.4c12-1.8,23.9-3.1,35.8-4.6,12.2-1.5,24.5-3.2,36.7-4.8,4.6-.6,9.1-1.3,14.1-2,.7,4.7,1.1,9.4.9,14.5-2.6.8-4.7,1.2-6.9,1.4-11.7,1.4-23.3,2.7-35,4.2-14.6,1.9-29.1,3.8-43.7,5.8-.7-4.7-1.3-9.5-1.9-14.6Z"/>
  <path class="cls-51" d="M472.8,160c1-1.5,2-2.9,3.4-4.9-13.3,1.7-26.1,3.3-39.5,4.9-.7-4.8-1.3-9.5-2.1-14.6,9.3-1.2,18.3-2.4,27.6-3.7-.4-4.1-.7-8-1.1-12.5,5.1-.6,9.9-1.2,15.1-1.9.7,4.3,1.2,8,1.9,12.3,8.1-1,16-1.9,24.5-2.9-.6,8-2.8,14.7-7.7,21-3.7.4-6.6.7-9.5.9-4.2.4-8.3.8-12.5,1.2Z"/>
  <path class="cls-85" d="M470.6,397.6c-14.7,2.4-29.4,4.4-44,6.2-14,1.8-28.1,3.5-42.5,5.2-.8-4.7-1.1-9.4-1-14.6,15.2-2.2,30-3.9,44.7-5.7,13.8-1.6,27.5-3.3,41.3-4.9.5,4.4,1,8.9,1.5,13.7Z"/>
  <path class="cls-6" d="M469,383.4c-13.7,2.1-27.5,3.7-41.3,5.4-14.7,1.8-29.5,3.5-44.7,5.2-.8-4.4-1.1-8.8-.9-13.6,11.6-1.9,22.7-3.3,33.7-4.7,12.1-1.6,24.2-3,36.2-4.8,5-.8,10-2.4,14.9-3.7.7,5.2,1.3,10.5,2,16.1Z"/>
  <path class="cls-28" d="M1469.5,243.8c-6,3.1-11.8,5.9-17.7,8.6-5,2.3-10.1,4.6-15.2,7.2-2.2-4.5-4.5-9.3-6.3-14.3-.5-1.3.3-4,1.4-4.7,14-9.7,28.1-19.1,42.7-29,3.4,8,6.7,15.8,10.2,24-5,2.6-10,5.2-15,8.1Z"/>
  <path class="cls-182" d="M598.4,159.6c-11,2.2-21.9,4-32.8,5.9-4.2.7-8.4,1.6-13.1,2.4-4.1-.6-7.8-1.5-11.5-1.8-7.3-.6-14.6-.9-22.1-1.3v-14.7c15.3.9,30,1.7,45.5,2.6v-15.9c4.9.2,9,.2,13,.8,1,.1,2.2,2.4,2.4,3.7.3,3.9.1,7.9.1,12.2,5.9.4,11.8.8,18.4,1.2,0,1.6,0,2.9,0,4.8Z"/>
  <path class="cls-87" d="M1536.9,542.1c-4.9-7.5-.1-15.3-1.3-23-.4-2.9-.8-5.8-1.2-9.2,15.3-4.2,25.8-13.3,30.6-28.6,1.5-4.9,3.3-9.7,5.1-14.8.3,11.4.6,23,.3,34.7-.5,16.1-16,36.1-31.1,40.8-.6.2-1.3,0-2.4.1Z"/>
  <path class="cls-133" d="M514.6,314.4c14.6-2.4,29.2-4.3,43.8-6.2,11.6-1.5,23.3-2.8,35-4.2,2.1-.3,4.2-.7,6.8-1,.8,4,1.1,8.1.9,12.6-2.2.8-4,1.2-5.8,1.4-11.6,1.4-23.2,2.7-34.8,4.2-14.7,1.9-29.4,3.9-44.1,5.9-.6-4.1-1.2-8.2-1.7-12.7Z"/>
  <path class="cls-16" d="M1256.5,511.6c-1.9.7-4,1.3-6.1,1.3-13,0-25.9,0-39.3,0-5.5-7.7-10.5-15.5-15.2-23.6,15.5-.4,30.6-.4,45.7-.4,4.9,7.4,9.9,14.9,15,22.6Z"/>
  <path class="cls-62" d="M697,279.2c-6.1,1.5-12.3,2.9-18.6,3.8-17.3,2.4-34.6,4.6-51.9,6.9-2.1.3-4.3.2-7,.3-2.1-4.4-3.7-8.8-5.4-13.6,12.4-2.1,25-3.8,37.5-5.4,10.9-1.4,21.8-2.8,33.2-4.2,4.3,4,8.1,7.9,12.2,12.2Z"/>
  <path class="cls-175" d="M1241.4,488.7c-15,.3-30.1.4-45.7.4-.5,0-.9,0-1,0-.2-.5-.3-.9-.4-2.1,0-9.5.1-18.2.7-26.9,9.1-.7,17.6-1.3,26.2-2,6.7,10.1,13.4,20.2,20.2,30.6Z"/>
  <path class="cls-117" d="M1292.2,124.2c1.8.5,3.4,1.8,4.9,1.7,16.2-.2,32.4-.4,48.6-1,7.2-.3,14.4-1.3,22.1-2-4.7,5.2-9.8,10.4-15.6,15.7-1.1-.2-1.6-.5-2-.5-13,.3-26.1.6-39.1,1-.9,0-1.9.6-3.1.9-3.5-2.1-6.6-4.1-10.3-6.5-.2,3.3-.4,5.9-1,8.5-6.9-.8-13.3-1.5-19.8-2.3,5-5.1,10-10.2,15.3-15.5Z"/>
  <path class="cls-84" d="M472.5,160.2c4.4-.6,8.6-1,12.8-1.4,2.9-.3,5.9-.5,9.3-.7-2.6,3.4-5.4,7.1-8.8,10.1-2.8,2.4-4.2,4.8-3.4,8.5.6,3.1.8,6.2.7,9.8-5.1,1.1-9.8,1.8-14.5,2.4-.4-1.4-.7-2.8-1.2-4.4-8.3,5.1-16.2,9.9-24.4,14.9-3.7-4.3-7.2-8.3-11.2-12.9,15.2-6.6,29-14.6,40.7-26.4Z"/>
  <path class="cls-177" d="M1194.5,460c0,8.7-.2,17.4-.3,26.6-.1.5-.4.5-.7.1-9.2-14.1-18.1-27.8-26.9-41.6,9.2-9.3,18.3-18.5,27.7-27.1.2,14.4.3,28.2.3,42Z"/>
  <path class="cls-130" d="M1279.7,66.5c-12.3,3.7-24.7,7.2-37.1,10.4-8.5,2.2-17,4-25.9,6,13-13.1,26.5-26.2,40-39.4,7.3,7.2,15.1,15,23,23Z"/>
  <path class="cls-96" d="M1133.9,103.7c-4.6,4.6-9.1,9.3-13.8,13.8-.6.5-1.9.3-3.3,0-3.5-2.1-6.5-4-9.8-5.4-12.9-5.8-25.9-11.5-38.8-17.2,4.8-4.9,9.7-9.9,15-14.6,4.8,2.4,9.1,4.6,13.5,7.2,7.5,5.6,15,10.8,23.1,16.6.3-2.8.5-4.4,1-6,4.6,1.9,8.8,3.8,13,5.7Z"/>
  <path class="cls-90" d="M1166.2,445.3c9.2,13.6,18.1,27.4,27.1,41.4-12.2.7-24.6,1-37.4,1.3-.5-9.6-.8-19.2-.5-28.8,0-2.1,1.7-4.5,3.2-6.3,2.2-2.7,4.8-5,7.6-7.6Z"/>
  <path class="cls-113" d="M556.3,535c-.3,7.1-.7,14.2-1,22-7.8-.4-15.3-.8-23.3-1.3-1.3-5.8-2.5-11.6-3.8-17.3-.3,0-.5,0-.8,0v16.3h-19.9c.4-7.3.7-14.1,1.6-21.3,16.1.2,31.7.9,47.3,1.5Z"/>
  <path class="cls-144" d="M1412.7,445c-1.1,5.2-1.3,10.6-3.3,15.4-5.8,13.9-25.4,17.1-35.9,6.2-3.9-4-4.8-8.8-4.3-14.7,5,.5,9.7.9,15.1,1.6,5.3,4.5,6.7,4.4,9-.2-3-.4-5.9-.7-8.8-1.1-3.9-2.5-7.8-5.1-11.3-7.9,13.4,0,26.5.3,39.5.7Z"/>
  <path class="cls-77" d="M1424.2,113.6c.2,11,.5,22.3.2,33.6,0,3.4-1.8,6.8-2.6,10.6-6.9,4.7-13.9,9.1-21,13.4-.8.5-2.2.3-3.2,0-4.4-1.9-8.7-4-13.6-6.2,1.2-1.4,2.2-2.6,3.3-3.7,8.2-8.3,16.4-16.6,24.7-24.7,6.4-6.3,10.5-13.7,12.2-22.8Z"/>
  <path class="cls-76" d="M1412.8,444.7c-13.2,0-26.2-.3-39.7-.7-5.7-10.8-.1-22.7,11.4-25.2,17.1-3.7,29.8,7.6,28.3,25.9M1391,440.8c1.8-1.3,6.8-.7,3.6-5.1-.7-.9-3.5-.3-5.3-.4.4,1.7.7,3.4,1.7,5.6Z"/>
  <path class="cls-46" d="M1122.5,43c23.8,0,47.6,0,72.6,0-8.3,8.3-15.9,15.9-24.1,23.3-1.3-.8-2-1.5-2.9-1.9-10.6-4.2-21.3-8.1-31.7-12.7-4.9-2.2-9.3-5.8-13.9-8.7Z"/>
  <path class="cls-124" d="M1371.2,510.9c0,5-2.1,10.7-.2,14.4,3.1,6.3-1,11.8.6,18-8.6-3.3-17.4-.1-26.5-.3-.5-11-.5-22.2-.5-33.7,7.1-.4,14.1-.9,21-1,1.8,0,3.5,1.5,5.7,2.5Z"/>
  <path class="cls-1" d="M467,366.9c-5,1.6-9.9,3.3-14.9,4-12,1.8-24.1,3.2-36.2,4.8-11.1,1.4-22.2,2.9-33.7,4.3-.6-3.4-.7-6.7-.8-10.5,10-1.6,20-2.7,29.9-3.9,11.7-1.4,23.5-3.1,35.2-4.5,6-.8,12.1-1.4,18.6-2,.9,2.5,1.4,5,1.9,7.9Z"/>
  <path class="cls-71" d="M1327.4,163.8c-3.5,3.6-6.9,7.2-10.9,10.5-1.7-.6-2.9-1.2-4.1-1.3-15.4-1.1-30.9-1.9-46.3-3.1-5.5-.4-11-1.9-16.5-2.9,3.8-3.9,7.6-7.8,12.1-11.8,12.3.9,23.8,1.9,35.4,3.3,0,2.1,0,3.8,0,6.2,3.3-1.9,5.8-3.4,8.5-4.5,5.9.8,11.6,1.2,17.3,1.9,1.5.2,3,1.1,4.5,1.7Z"/>
  <path class="cls-181" d="M814.6,121c2.2,10.7,4.4,21.4,6.7,32.6-5.7,1-10.7,1.9-16.2,2.9-.8-5.1-2-9.8-2.2-14.5-.2-4.2-2.3-5.1-5.7-5.8-11.4-2.4-22.7-5.2-34.2-8.3,6.8-1.6,13.9-2.5,20.9-3.8,3.6-.7,7.1-2,10.7-3,1.3.1,2.6.2,4.7.5,5.7,0,10.6-.3,15.5-.5Z"/>
  <path class="cls-110" d="M1160.6,77c-4.1,4.1-8.1,8.2-12.6,12.1-3.7-1.6-6.9-3.3-10.2-4.5-5.7-2.1-11.5-3.8-17.3-6.1-.2-2.1-.3-3.8-.4-6.3-2.8,1.7-5,3-7.4,3.9-5.5-3.4-10.9-6.4-16.3-9.4,4.2-4.3,8.3-8.6,13-12.7,1.9,1.3,3.1,2.8,4.7,3.4,15.5,6.5,31.1,12.9,46.6,19.4Z"/>
  <path class="cls-165" d="M604,93.2c-.3-1.3-.6-2.5-1.1-4.4,9.3-2.4,18.4-4.7,27.9-7.1-1-4.6-2-8.9-3.1-13.7,4.8-1.2,9.4-2.4,14.8-3.7,1.2,4.5,2.3,8.8,3.6,13.6,3.7-.9,7.4-1.6,10.9-2.7,3.7-1.2,6.4-.8,8.2,2.9.4.8,1.3,1.5,2.1,2.5,2.5-1.7,4.9-3.4,7.7-5.3.6,3.7,1.1,6.9,1.1,10.4-24.4,2.8-48.3,5.2-72.2,7.5Z"/>
  <path class="cls-169" d="M1160.9,76.9c-15.9-6.3-31.4-12.7-47-19.2-1.6-.7-2.9-2.1-4.4-3.6,4-4,8.1-7.6,12.6-11.2,5,3,9.3,6.6,14.3,8.8,10.4,4.6,21.2,8.5,31.7,12.7.9.4,1.6,1.1,2.6,2.1-3,3.7-6.3,7-9.8,10.4Z"/>
  <path class="cls-17" d="M1067.9,95c13.2,5.6,26.2,11.2,39.1,17,3.2,1.4,6.2,3.3,9.4,5.3-23.4.3-46.8.3-71.4.3,7.9-7.9,15.2-15.3,22.8-22.7Z"/>
  <path class="cls-11" d="M516.2,327.5c14.7-2.4,29.4-4.4,44.1-6.3,11.6-1.5,23.2-2.8,34.8-4.2,1.8-.2,3.6-.6,5.8-1,.5,3,.5,6.1,0,9.5-6.8,1.2-13,2-19.2,2.8-11.8,1.5-23.6,3-35.4,4.6-9.7,1.3-19.3,2.7-29,4-.4-3-.8-6-1.2-9.5Z"/>
  <path class="cls-61" d="M1249.3,167.2c5.8.8,11.2,2.3,16.8,2.7,15.4,1.3,30.9,2.1,46.3,3.1,1.2,0,2.4.7,3.8,1.4-3.4,5.9-8.2,8.1-15.2,7.9-20.3-.5-40.6-.2-60.9-.2-1.6,0-3.2,0-5.9,0,5.5-5.5,10.2-10.2,15.2-15Z"/>
  <path class="cls-101" d="M1152.6,161.3c15.3-4.4,30.7-8.5,46.1-12.5,2.5-.6,5.2-.6,8.2-.9-11.1,11.1-22.5,22.3-34.4,33.8-6.4-6.4-13.1-13.3-20-20.4Z"/>
  <path class="cls-137" d="M1236.6,129.4c.9-1.2,1.8-2.5,3-2.9,15.3-4.1,30.7-8.1,46-12,.8-.2,1.9.6,2.9,1.3-10.9,11.1-21.9,21.7-33.2,32.7-6-6.1-12.3-12.4-18.7-19.1Z"/>
  <path class="cls-43" d="M1501.4,373.7c13.7-3.6,27.4-7.3,41.5-11,1.7,8.3,3.3,16,5,24.2-6.8,1.1-13.2,2.2-19.9,2.8-4.7-2.8-8.9-5.2-13-7.7-4.5-2.7-9-5.5-13.5-8.3Z"/>
  <path class="cls-4" d="M1192.5,95.3c-3,1.6-6,3.3-9.2,4.2-12.9,3.5-25.9,6.7-38.8,10-1,.3-2.2,0-3.6-.3,10.7-10.7,21.7-21.4,33.4-32.6,5.6,5.7,11.9,12.1,18.3,18.7Z"/>
  <path class="cls-86" d="M1342.3,443.1c-.3-1.6-.7-3.2-1.1-5.1h-10.1c-.2-2.4-.2-4.6-.5-6.7-.5-3.8,0-6.5,4.7-6.7,1.3,0,3.3-1,3.9-2.1,3.5-6.5,9.6-5.2,15.2-5.5,2.1-.1,4.2,0,6.8,0,.5,9.9,1,19.5,1,29.5-6.9-.8-13.4-2.1-19.9-3.5Z"/>
  <path class="cls-134" d="M632.5,534c4.6.4,9.1.8,13.7,1.1,2,.2,3.9.2,6,.4v16.8c-13.8-.5-27.1-1.1-40.5-1.6,0-5.9,0-11.3.5-17.2,7.1-.1,13.7.2,20.3.5Z"/>
  <path class="cls-12" d="M517.4,337.4c9.7-1.8,19.4-3.1,29-4.4,11.8-1.6,23.6-3.1,35.4-4.6,6.2-.8,12.5-1.6,19.1-2.4.8,2.4,1.2,4.8,1.5,7.6-18.2,2.7-36.4,5.1-54.6,7.4-9.8,1.3-19.6,2.6-29.9,4-.5-2.4-.6-4.7-.6-7.6Z"/>
  <path class="cls-136" d="M673.6,429.9c.9,4.4,1.8,8.8,2.3,13.6-6.2,2.4-12,4.4-17.8,6.4-.8-3.7-1.6-7.4-2.4-11.1-.7.1-1.4.2-2.1.3.9,7.1,1.8,14.2,2.7,21.9-6.2.9-12.2,1.9-18.8,2.9-1-6.5-2-12.8-2.5-19.6,7.1-2.9,13.8-5.4,20.6-7.9,6-2.2,12-4.4,17.9-6.5Z"/>
  <path class="cls-89" d="M1478.4,454c-1.1,13-6.3,18.3-19.2,18.7-3.6.1-7.3-.3-10.8-1.1-8.8-2-12.8-7.3-12.5-17.2,6.2-.4,11.8-.4,17.5,0,1.3,1.3,2.7,3.2,3.9,3,1.2-.1,2.2-2.2,3.7-3.4,6.1,0,11.7,0,17.4,0Z"/>
  <path class="cls-7" d="M1529.4,452c.4,2.9.7,5.9,1.1,9-1.5.5-2.7.9-4,1.4v7.5c-6.1.5-12.1.9-18.4,1.4-.4-2.9-.6-5.2-1-7.9-6.4.5-12.8.9-19.7,1.4-.3-4.1-.6-8.1-.4-12.4,14.5-.4,28.5-.4,42.4-.4Z"/>
  <path class="cls-50" d="M1220.8,529.3c14.5-.3,29.1-.3,44.2.2.5,5.5.5,10.5,0,15.5-3.9,0-7.4-.1-10.8,0-7.5.3-15,.6-22.5,1-3.6-5.5-7.2-10.9-10.9-16.7Z"/>
  <path class="cls-59" d="M1453.3,454c-5.6,0-11.2,0-17.3,0,1-3.9,2.5-7.7,4.1-11.6.4.1.8.2,1.2.4-.9-1.4-1.7-2.7-2.2-4.5,5.9-.7,11.4-1.1,17.2-1.4,1.2,0,2.1,0,3.5,0,5.9.4,11.4.8,16.8,1.1-.9,1.9-1.9,3.7-2.7,5.4,1.5,3.3,3.1,6.6,4.6,10.3-5.7.4-11.3.4-17.7.1-3.1-2.1-5.3-2.1-7.4.2Z"/>
  <path class="cls-84" d="M1476.8,437.7c-5.7,0-11.2-.4-16.9-1.1-.3-1.6-.3-2.9-.4-4.3-1.5.1-3.1.2-4.6.3.3,1.4.6,2.7.9,4.1-5.5.4-11,.7-16.9,1.1-3.1-7.2-.2-14.7,6.9-17.6,8.2-3.3,16.6-3,24.5,1,5.8,3,7.9,8.5,6.4,16.4Z"/>
  <path class="cls-170" d="M1195,460c-.5-13.8-.6-27.6-.6-41.8,8.9,12.7,17.8,26,26.7,39.5-8.5,1-17.1,1.6-26.1,2.3Z"/>
  <path class="cls-41" d="M604,93.6c23.8-2.8,47.7-5.2,72.1-7.6.8,3,1.1,6.1.9,9.6-5.1.8-9.7,1.1-14.2,1.4-.3-2.3-.5-4.5-.9-7.4-3.3.8-6.3,1.4-9.3,2.1-9.3,2.3-18.6,4.5-27.8,7-1.2.3-2.1,2-3.3,3.8-5.1,1.3-10,1.9-14.9,2.5-.9-3.7-1.7-7.3-2.6-11.4Z"/>
  <path class="cls-181" d="M660.8,136.1c-10.3,10.9-23.5,16.9-37,22.5-.8.3-2.5-.4-3.4-1.1-3.3-3-6.4-6.2-9.8-9.6,8.9-4.1,17.5-8,26.7-11.7,3.5.3,6.4.4,9.4.3,4.7,0,9.4-.2,14.2-.3Z"/>
  <path class="cls-166" d="M1231.8,546.3c7.4-.7,14.9-1,22.4-1.3,3.4-.1,6.9,0,10.8.4.5,1.8.5,3.2.5,5,0,4.8,0,9.2,0,13.8,0,.4,0,.6-.5.8-7.2.3-13.9.7-20.6,1-4.2-6.5-8.4-12.9-12.7-19.7Z"/>
  <path class="cls-60" d="M563,189.4c4.9-1.1,9.6-1.7,14.8-2.4.2,5.1.2,10.3-.5,15.4-.8,6.6-4,9.5-10.6,9.5-6.1,0-12.1-.9-18.3-1.4v-15.9c4.6.8,8.9,1.5,13.7,2.3.2-2.5.5-4.8.9-7.5Z"/>
  <path class="cls-63" d="M1479.4,375.9c3.8-.8,7.2-1.5,11.2-2.4,1.8,8.2,3.4,16,5.2,24.4-7.1,1.5-13.8,2.9-21.1,4.5-1.7-8.2-3.4-15.9-5.2-24.3,3.2-.7,6.3-1.4,9.9-2.2Z"/>
  <path class="cls-83" d="M708.7,511c.3-3.8.6-7.6,1-12.3,14.5,1.2,28.9,2.5,43.7,3.8-.3,3.5-.6,6.6-1.4,10.1-6.3.2-12.1,0-17.8-.3-8.5-.4-17-.8-25.5-1.2Z"/>
  <path class="cls-4" d="M673.6,429.6c-6,2.5-12,4.7-17.9,6.9-6.7,2.5-13.4,5-20.5,7.5-1.2-5.4-2.1-10.8-3.1-17.6,6.2,0,12,0,17.7-.3,1,0,1.9-1,2.9-1.6,8.2-5.1,17.5-3,21,5.1Z"/>
  <path class="cls-24" d="M1269.5,530c7.9,0,15.7,0,23.6,0,3.4,0,6.8-.6,10.7-1,.5,5.7.5,11.4,0,17.5-8.1.5-15.7.5-23.6.3-3.8-5.7-7.2-11.3-10.7-16.8Z"/>
  <path class="cls-32" d="M1342.2,443.5c6.5.8,13,2.1,19.9,3.5.9,6.8,1.4,13.5,2,21.1-7,.4-13.5.8-20.6,1.3-.5-8.8-.9-17.1-1.3-25.8Z"/>
  <path class="cls-37" d="M658.6,510c-.1-3.3-.3-6.7.1-10.5,15-.1,29.4.2,43.8.5.4,3.8.9,7.5.7,11.6-4.7,0-8.9-.2-13-.6-2-.2-4-.9-6-1.7-.3-3.9-2.6-3.7-5.5-3.3,0,1.8,0,3.4-.5,5-6.9-.3-13.3-.6-19.7-.9Z"/>
  <path class="cls-127" d="M1447.7,190.2c3.6-2.1,6.9-3.9,10.7-6.1,3.8,6.5,7.4,12.7,11.2,19.3-6.1,3.5-11.9,6.9-18.3,10.6-3.7-6.5-7.4-12.9-11.2-19.4,2.7-1.6,4.9-2.9,7.5-4.4Z"/>
  <path class="cls-103" d="M1297.1,158.2c-11.6-1-23.1-2-35.1-3.1,4.5-5.1,9.4-10.1,14.6-15.2,6.7.6,13.2,1.4,20.2,2.6.5,5.5.4,10.6.3,15.7Z"/>
  <path class="cls-106" d="M1438,214.5c1,1.9,1.9,3.5,3,5.5-6,3.5-11.9,6.9-18.1,10.5-3.7-6.4-7.3-12.6-11.3-19.4,6.1-3.5,12-7,18.3-10.6,2.8,4.8,5.3,9.2,8.1,14Z"/>
  <path class="cls-98" d="M1261.5,88.1c6.2-2,12.4-4.1,18.6-6.1,3.6-1.1,7.3-2.1,11.4-3.1,4,3.4,7.5,6.8,11.2,10.6-8.2,2.7-16.7,5-25,7.5-2.7.8-5.3,1.8-8.4,2.8-2.9-3.8-5.4-7.8-7.8-11.7Z"/>
  <path class="cls-141" d="M428.6,522h21.3v14.7h-27.9v-14.7h6.6Z"/>
  <path class="cls-141" d="M395.6,522c7.3,0,14.1,0,21.2,0v14.7h-28v-14.7c2.1,0,4.2,0,6.7,0Z"/>
  <path class="cls-141" d="M810.5,524.3c.8-1.1,1.6-2.1,2.5-2.1,8.5-.1,17,0,25.8,0v14.7h-28.3c0-4.1,0-8.1,0-12.5Z"/>
  <path class="cls-146" d="M489.2,174.7c2-2.4,3.8-4.6,5.4-6.5,8.1,3,15.8,5.9,24.2,9-2.3,4.6-4.6,9.3-7.3,14.6-8.8-3.9-17.4-7.7-26.6-11.7,1.6-2.1,2.8-3.6,4.2-5.4Z"/>
  <path class="cls-137" d="M1529.5,451.6c-14,.4-28,.4-42.4.4.3-3.5,1-7.1,2.4-10.8,5,.2,9.3.6,13.4,1.3-.4,1.3-.6,2.2-.9,3.4,1.6-.1,2.8-.2,4.3-.3.1-1.7.2-3.2.8-4.6,6.1,0,11.7,0,17.3,0,.3.9.4,2.5.9,2.6,4.7.8,3.6,4.7,4.3,8Z"/>
  <path class="cls-55" d="M805.8,525.2c0,4.1,0,7.7,0,11.6h-28v-14.7c8.7,0,17.3,0,25.9.1.7,0,1.4,1.6,2.2,3Z"/>
  <path class="cls-161" d="M612.9,510v-10.8c13.9.6,27,1.2,40.5,1.8-.2,3.5-.3,6.4-1.1,9.8-13.5,0-26.4-.3-39.4-.7Z"/>
  <path class="cls-117" d="M713.8,112c-.1-1.5-.2-2.9-.4-4.8-7.5,3-14.9,5.6-22.1,8.9-4.1,1.9-7,1.7-9.4-2.4-.9-1.5-2.2-2.8-3.7-4.7,5-2.1,9.6-4,15-5.9,3.9.4,7,.9,10.1.7,7.2-.4,14.5-1.2,21.7-1.8,0,3,0,6-.5,9.5-3.9.5-7.4.4-10.8.4Z"/>
  <path class="cls-153" d="M1120.5,79c5.7,1.9,11.5,3.6,17.2,5.7,3.4,1.2,6.5,2.9,10,4.8-4.3,4.9-8.8,9.4-13.5,14.1-4.5-1.7-8.7-3.7-13.4-6-.4-6.5-.4-12.5-.3-18.5Z"/>
  <path class="cls-102" d="M562.4,507c.5-3.9,1-7.7,2.2-11.6,13.3.5,26,1,38.6,1.6.7,2.3,1.4,4.6,2.4,7.9-7.3-.9-13.8,2.8-20.5-.9-2-1.1-3-.1-3.1,2.6-6.7.4-13.2.4-19.7.4Z"/>
  <path class="cls-9" d="M714.7,447.1c-1.1,4.5-2.1,9-3.3,13.8h-25c-1.1-4.3-2.1-8.6-2.7-13.4,10.6-.4,20.8-.4,31-.4Z"/>
  <path class="cls-149" d="M1308.3,140.1c.9-.3,1.8-.9,2.8-1,13-.4,26.1-.7,39.1-1,.5,0,.9.3,1.7.7-3.8,4.4-7.9,8.6-12.7,12.8-6.7-.6-12.8-1.1-18.8-2-4-3.4-8.1-6.5-12.1-9.5Z"/>
  <path class="cls-93" d="M1265.5,565c0-.2,0-.3.5-.8,8.5-.6,16.5-.9,24.8-1.1,1.5,1.8,2.8,3.3,4,4.9-3.8,4.1-7.6,8.1-11.9,12-6.2-.5-11.8-.8-17.4-1.5,0-4.8,0-9.2,0-13.5Z"/>
  <path class="cls-148" d="M702.6,499.7c-14.4,0-28.9-.3-43.8-.6-.8-2.4-1-4.8-1.5-8.8,11.3,0,22.2-.4,33,.2,5.4.3,9.9,3.5,12.3,9.2Z"/>
  <path class="cls-114" d="M468.6,189.4c4.7-1.1,9.4-1.8,14.5-2.4,1.6,8,2.7,15.9,3.9,24.5-5.3.7-10.1,1.3-15.4,1.9-1.1-8.2-2-15.9-3-24Z"/>
  <path class="cls-134" d="M500.6,530v17.6h-21.2c0-5.6,0-11.1.5-17.1,7.2-.5,13.9-.5,20.6-.5Z"/>
  <path class="cls-149" d="M1501,373.7c4.9,2.7,9.4,5.5,13.9,8.3,4.2,2.5,8.4,4.9,12.6,7.7-9,2-18.1,3.7-27.9,5.6-1.5-6.7-2.9-13.1-4.4-20.2,2-.5,3.7-.9,5.8-1.3Z"/>
  <path class="cls-19" d="M1265,565c.5,4.4.5,8.7.5,14-.7,6-1.4,11-2.2,16.1-6.2-9.5-12.4-18.9-18.8-28.7,6.6-.7,13.3-1,20.4-1.3Z"/>
  <path class="cls-92" d="M794.2,120.8c-3.2,1.2-6.7,2.5-10.3,3.1-7,1.3-14.1,2.2-21.2,3.6-6.3-1.2-12.6-2.7-18.8-4.4-.9-.3-1.5-1.6-1.8-2.8,8.2-1.1,15.9-1.7,23.6-2.7,1.7-.2,3.3-1.6,4.9-2.5,7.8,1.8,15.6,3.6,23.7,5.6Z"/>
  <path class="cls-97" d="M738.9,536c-.4,5.4-.8,10.9-1.2,16.9-7.2-.6-13.9-1.2-21.2-1.9.4-4.9.8-9.7,1.7-14.7,7.3-.3,14-.3,20.6-.3Z"/>
  <path class="cls-135" d="M803.3,433c.1,1.7.3,3.4-.2,5.6-6.3.4-12,.4-17.7.4-.4,0-.9,0-2.1,0-6.2,0-11.6,0-17,0-.4,0-.8,0-2,0-6.5,0-12.2,0-18,0,0-1.7-.1-3.4.4-5.6,19.2-.4,37.9-.4,56.5-.4Z"/>
  <path class="cls-84" d="M1493.6,431c0-.3,0-.7.2-1,2-7.2,5.7-11.4,14.1-10.3,4.7.6,9.5-.6,14.8-1,.3,4.5.6,8.5.4,12.9-10.2.1-19.8-.2-29.4-.5Z"/>
  <path class="cls-3" d="M1428.5,476.7c-.3,1-.4,1.7-.7,2.3-4.8,8.1-7.6,9.3-13.5,2,2-1.4,4.1-2.8,6.2-4.2-.5-.5-1-1-1.4-1.6-1.7-.4-3.5-.8-5.7-1.3.5-4.7,1.1-9.2,1.6-14.2,5.3.6,10.2,1.2,15.5,1.9-.7,5.2-1.3,9.9-2.1,15Z"/>
  <path class="cls-81" d="M1096,67c5.7,2.9,11.1,5.9,16.4,9.4-5.3,3.9-10.4,7.3-15.6,10.6-4.3-2.2-8.7-4.4-13.2-7,3.9-4.5,8-8.7,12.4-13.1Z"/>
  <path class="cls-36" d="M1295,567.9c-1.5-1.4-2.8-3-4.4-5-3.6-5.3-6.9-10.1-10.1-15.1,0-.4,0-.6,0-.8,7.6,0,15.2,0,23.2,0,2.7,9.1-1.5,15.5-8.7,20.9Z"/>
  <path class="cls-132" d="M741.2,444v16.7h-18.9c0-5.3,0-10.5.6-16.3,6.5-.5,12.4-.5,18.4-.5Z"/>
  <path class="cls-13" d="M708.6,511.4c8.6,0,17.1.4,25.6.8,5.8.3,11.5.5,17.7.8.3,2.6,0,5.2-.2,8.3-3.8-.2-7.1-.3-11.1-.7-7.5-.3-14.3-.4-21.1-.6-3.6-1-7.2-2-11.2-3.1,0-1.5.1-3.3.3-5.5Z"/>
  <path class="cls-26" d="M746.9,373.1c2.1,0,3.9-.2,5.3.4,5.2,2.2,10.3,2.4,16-.6,0,3.4.2,6.2-.1,8.9-.2,1.2-1.4,2.9-2.4,3.2-3,.7-6.1,1.1-9.2.9-5.1-.2-10.1-1-15.6-1.6-1.4-8.3-1.1-9.1,6-11.2Z"/>
  <path class="cls-172" d="M731.2,385.7c-3,.2-5.6.4-8.3.2-4.9-.4-9.8-1-14.7-1.6-.2.5-.3,1-.5,1.5,0-1.2-.3-2.5-.3-3.7,0-7.6,4-10.4,11.7-8.7,4.8,1.1,9.9,1.3,15.3,1.9-.8,2.6,3,7.5-3.3,10.4Z"/>
  <path class="cls-147" d="M691.7,386.2c-5.8-1.9-11.2-3.6-17,.3-.1-2-.3-3.3-.3-4.5,0-7.4,3.9-10.2,11.2-8.7,5,1.1,10.1,1.4,15.7,2.1,1.9,8.7.5,10.6-9.7,10.8Z"/>
  <path class="cls-162" d="M661.1,136c-5,.3-9.7.4-14.5.5-2.9,0-5.8,0-9-.4,5.2-4.8,10.7-9.3,16.9-13.9,6.1-.1,11.5-.1,16.9-.2-3.3,4.6-6.7,9.2-10.3,14Z"/>
  <path class="cls-70" d="M643.8,385.3c-1,.2-1.5.1-2.1.1.2-3.4-1-8.1.8-9.8,2-2.1,6.7-2.1,10.1-2.1,5.1.1,10.1,1.2,15.2,1.8.1-.5.3-1,.4-1.4.1.8.4,1.5.4,2.3.3,9.2-3.8,11.9-12.9,9.5-3.6-1-7.7-.4-11.9-.3Z"/>
  <path class="cls-140" d="M1493.4,431.3c9.9,0,19.5.4,29.6.7.8,2.7,1.1,5.4,1.4,8.6-5.7.4-11.3.4-17.4,0-.7-1.2-.8-2-1-4.1-1.3,2.6-2.1,4.1-2.9,5.5-4.3-.4-8.6-.8-13.3-1.2.8-3.1,2.1-6.3,3.7-9.6Z"/>
  <path class="cls-165" d="M786.1,73.8c6-5.7,12-11.4,18.3-17.4,3.9,2.4,8.2,5.1,13.1,8.2-3.7,3.5-6.9,6.6-10.7,9.4-2.5-.3-4.5-.6-6.5-.6-4.8,0-9.5.2-14.3.3Z"/>
  <path class="cls-17" d="M537.5,525s.2.3.2.7c.7.6,1.5.8,2.1.7,1.5-.3,3-1.2,4.5-1.2,4.1,0,8.2.5,12.3.8,0,1.7,0,3.4-.5,5.6-16.1-.2-31.6-.9-47.2-1.6.1-1.8.2-3.5.9-5.6,9.6,0,18.7.3,27.7.6Z"/>
  <path class="cls-68" d="M781.7,97.1c-4.6,3.9-9.1,7.8-14.4,11.6-2-.3-3.3-.8-4.5-.6-4.6.4-9.1,1.2-13.7,1.5-1.5,0-3.1-1.1-4.7-1.7,4.8-3.6,9.5-7.1,15-10.7,2.3,0,3.8.2,5.4.2,5.6,0,11.2-.1,16.8-.2Z"/>
  <path class="cls-131" d="M763.8,446v14.7h-17.7c0-4.6,0-9.3.6-14.4,6.1-.3,11.6-.3,17.1-.3Z"/>
  <path class="cls-115" d="M684.3,509.6c2,.5,4,1.1,6,1.3,4.1.4,8.2.6,12.8,1-1,2.4-2.4,4.7-4.4,6.8-13.7-.7-26.8-1.2-39.9-1.8-.1-2-.2-4.1-.2-6.5,6.5-.1,12.9.2,20,.6,2.4-.4,4.1-.9,5.7-1.4Z"/>
  <path class="cls-172" d="M725.1,101.6c-7.3,1-14.6,1.7-21.8,2.2-3.1.2-6.2-.4-9.7-.8,6.7-4.2,13.9-8.2,21.6-11.9,2,.6,3.4,1.1,4.8,1.2,4.7.1,9.4,0,14.1,0-2.9,3-5.9,6-8.9,9.3Z"/>
  <path class="cls-148" d="M603.2,496.7c-12.6-.2-25.3-.8-38.3-1.5,8.8-11.5,30.6-10.8,38.3,1.5Z"/>
  <path class="cls-147" d="M734.4,92.2c-5,.1-9.7.2-14.4,0-1.5,0-2.9-.6-4.5-1.3,7.3-5.8,14.8-11.1,22.7-16.8,2.5,2.1,5.4,4.5,8.6,7.3-4.2,3.7-8.2,7.1-12.5,10.7Z"/>
  <path class="cls-100" d="M782.1,97c-5.9.2-11.5.3-17.2.4-1.6,0-3.1-.2-5.1-.3,4.3-4,9-8,14.4-11.9,2.6.2,4.5.4,6.4.4,5,0,10-.3,15-.4-4.4,3.9-8.8,7.9-13.5,12Z"/>
  <path class="cls-172" d="M587.4,522.1c-4.6-.9-9.4-1.6-13.9-3-3-.9-5.7-3-8.2-4.9,1.7-.6,3.2-1.1,4.6-1.1,11.1.2,22.2.4,33.3.7,1.2,2.5,2.4,4.9,3.2,7.8-6.7.4-12.8.5-19,.5Z"/>
  <path class="cls-88" d="M1320.4,150c6.1.5,12.1,1.1,18.6,1.8-3.4,4-7.2,7.9-11.2,11.9-1.8-.5-3.2-1.4-4.7-1.6-5.7-.7-11.4-1.1-17.1-2.2,4.8-3.7,9.6-6.8,14.5-9.9Z"/>
  <path class="cls-67" d="M746.4,429c0-1.5-.1-2.9-.3-5.8,5.9.8,11.3,1.7,16.7,2.3.9.1,1.9-.4,2.7-.8,5.4-2.7,10.5-2.7,15.3,1.1,8.3-4.6,14.7-4.2,20.1,1.7-3.3.7-6.2,1.3-9.2,1.3-15.1,0-30.3,0-45.4,0Z"/>
  <path class="cls-13" d="M612.8,510.4c13,0,25.9.3,39.3.6.5,1.9.5,3.9.5,5.8-6.4,0-12.3,0-19.1,0-7.6,0-14.2,0-20.8,0,0-2.1,0-4.1.2-6.6Z"/>
  <path class="cls-35" d="M587.4,522.4c6.1-.4,12.3-.4,19-.5.5,2.1.6,4.3,0,6.8-14.8,0-29-.3-43.1-.6-.3-1.6-.7-3.1-1-4.9,5.3-.4,10.1-.9,14.9-1,1.4,0,3,.8,4.3,1.5,2.4,1.4,4.5,2.2,6-1.3Z"/>
  <path class="cls-86" d="M606.7,105.4c4.8-1,9.7-1.5,14.8-2.5,1.8,4.8,3.4,10,5.1,15.6-5.1,1.3-9.8,2.5-15.1,3.8-1.7-5.7-3.3-11.1-4.9-16.9Z"/>
  <path class="cls-131" d="M783.1,446v14.7h-16.4c0-4.6,0-9.2.5-14.3,5.6-.5,10.7-.5,15.8-.5Z"/>
  <path class="cls-97" d="M604.3,534c-6.1,7.8-14.8,7.9-23.4,7.5-6.1-.2-11.6-2.4-15-8.1,13,0,25.7.3,38.3.6Z"/>
  <path class="cls-41" d="M795.9,84.9c-5.3.3-10.3.5-15.3.5-1.9,0-3.8-.2-6.1-.5,3.4-3.7,7.3-7.3,11.4-11,5.1-.2,9.8-.4,14.6-.4,2,0,4,.3,6.3.8-3.3,3.7-6.9,7.1-10.7,10.6Z"/>
  <path class="cls-97" d="M803.6,447v13.7h-17.7c0-4.3,0-8.6.6-13.3,6.1-.4,11.6-.4,17.2-.5Z"/>
  <path class="cls-17" d="M682.6,535c-.7-1.4-1.5-2.8-2.9-5.6,0,2.3,0,3.1-.5,4.3-6.9.3-13.3.3-19.6.3,0-1.7-.2-3.4.3-5.6,14.3,0,28,.2,41.7.6,1,1.8,2,3.5,2.5,5.7-7.4.4-14.4.4-21.5.4Z"/>
  <path class="cls-39" d="M658.2,450.5c5.8-2.4,11.6-4.4,17.8-6.4,1.1,4.4,1.8,8.8,2.7,13.9-6.3,1-12.4,1.9-19,2.9-.5-3.5-.9-6.7-1.4-10.3Z"/>
  <path class="cls-63" d="M744.1,108.1c1.9.4,3.5,1.6,5,1.5,4.6-.3,9.1-1.1,13.7-1.5,1.3-.1,2.6.4,4.2.7-1,1.3-2.4,2.4-4.4,4,3.1.9,5.1,1.5,7.5,2.3-1.3,1-2.8,2.4-4.5,2.6-7.7,1-15.4,1.6-23.5,2.3.3-3.9,1-7.8,2-11.9Z"/>
  <path class="cls-169" d="M603.1,513.4c-10.9.1-22-.2-33.1-.3-1.4,0-2.9.5-4.7.8-1.2-2-2-4.1-2.8-6.5,6.5-.4,13-.5,20-.5,7.7.4,14.6,1.7,20.7,6.6Z"/>
  <path class="cls-144" d="M671.6,121.7c-5.6.3-11,.3-16.8.3,2.1-5,4.5-9.9,7.4-14.8,5.1,0,9.7,0,14.2-.2-1.5,4.8-3.1,9.6-4.8,14.7Z"/>
  <path class="cls-62" d="M746.3,429.4c15.2-.4,30.4-.3,45.5-.4,3,0,5.9-.6,9.3-.9,1.1,1.4,1.7,2.9,2.3,4.6-18.7.4-37.4.4-56.5.4-.5-1.1-.6-2.1-.6-3.6Z"/>
  <path class="cls-144" d="M701.5,528.6c-13.7,0-27.4-.3-41.6-.6-.7-1.8-.9-3.5-.6-5.6,13.4,0,26.3.3,39.1.6,1,1.8,2,3.5,3,5.6Z"/>
  <path class="cls-33" d="M698.5,522.7c-12.8,0-25.7-.4-39-.7-.5-1.4-.7-2.8-.8-4.6,13.2.1,26.2.6,39.6,1.5.2,1.4.2,2.5.1,3.8Z"/>
  <path class="cls-5" d="M740.9,421.4c-6.2.3-12.1.3-18.3.3v-11.7h18.6c0,3.9,0,7.5-.3,11.4Z"/>
  <path class="cls-135" d="M612.6,517.4c6.7-.4,13.3-.4,20.4-.4,1.8.6,3.1,1.6,4.5,1.7,4.1.2,8.2,0,12.8,0,0,1.9,0,3.1-.5,4.8-12.8.1-25-.2-37.2-.6,0-1.7,0-3.4,0-5.6Z"/>
  <path class="cls-138" d="M715,446.8c-10.4.3-20.6.2-31.3.3-1.1-2.1-1.7-4.1-1.9-6.6,5.8-.4,11.1-.4,16.4-.5.2,1.3.4,2.5.6,4.5.3-1.4.5-2.1,1.2-3.2,5.8-.3,11-.3,16.3-.3-.4,1.8-.8,3.7-1.4,5.8Z"/>
  <path class="cls-125" d="M857.2,70.4c-.3,14.4,2.3,29.3-1.7,44.3-2.3-7.6-4.6-15.5-6.6-23.5-.3-1,.8-2.4,1.3-3.5,2.3-5.6,4.6-11.3,7.1-17.2Z"/>
  <path class="cls-143" d="M479.6,506v-9.5h21.1c0,3.1,0,5.8-.6,9.1-7.2.4-13.9.5-20.6.5Z"/>
  <path class="cls-71" d="M604.6,533.8c-12.9-.1-25.6-.4-38.7-.8-1.2-1.4-1.9-2.8-2.7-4.6,14.1,0,28.2.3,42.8.6,0,1.5-.6,3-1.5,4.7Z"/>
  <path class="cls-121" d="M1263.4,595.4c.6-5.4,1.4-10.4,2.1-15.9,5.6-.2,11.2.1,17.1.8-4.9,5.7-10.1,11-15.2,16.4-2,2.1-3,1.1-4-1.2Z"/>
  <path class="cls-67" d="M509.9,511c.1-2.4.2-4.9.4-7.8,7.3.3,14.4.3,21.3,1.3,1.4.2,2.2,4.3,2.9,7.1-8.5.1-16.5-.2-24.6-.5Z"/>
  <path class="cls-35" d="M612.4,523.4c12.3,0,24.6.3,37.2.6.4,1.5.4,3-.3,4.7-12.8,0-24.9-.4-37.1-.8,0-1.4,0-2.8.1-4.5Z"/>
  <path class="cls-180" d="M537.5,524.6c-9.1,0-18.1-.3-27.6-.6-.5-2-.4-4.1,0-6.5,9.1,0,17.7.2,26.4.5.4,2.1.8,4.1,1.2,6.6Z"/>
  <path class="cls-138" d="M798.5,116c-.9-3.5-1.8-6.9-2.8-11.1,5.3-.7,9.9-1.3,14.8-1.9,1,3.7,1.9,7,2.4,10.7-5.1,1.1-9.7,1.7-14.4,2.4Z"/>
  <path class="cls-162" d="M612.1,528.3c12.3,0,24.5.4,37.1.8,1.2,3.3-.1,4.4-3.5,4.2-4.2-.3-8.5,0-13,.4-6.8,0-13.4-.3-20.4-.6-.4-1.5-.4-2.9-.2-4.7Z"/>
  <path class="cls-131" d="M659.5,534.4c6.4-.4,12.8-.4,19.6-.5.8,2.4,1,4.8,1.4,7.7-7,.3-13.5.6-21.1,1,0-2.7,0-5.3,0-8.3Z"/>
  <path class="cls-112" d="M739,535.6c-6.9.4-13.5.4-20.7.3-.2-2.7,0-5.3.7-8.4,7.2-.1,13.8.2,20.5.6,0,2.4-.2,4.8-.4,7.6Z"/>
  <path class="cls-86" d="M739.6,527.6c-6.8,0-13.4-.3-20.5-.6-.2-2.1,0-4.2.3-6.6,6.9-.2,13.7-.1,20.8.3,0,2.4-.2,4.5-.6,7Z"/>
  <path class="cls-138" d="M784.5,384c-3.4.5-6.8,1-11.1,1.6.4-3.5-.3-8,1.6-10.3,2.8-3.3,7.7-3.1,12-1.4,1.2.5,2.5.8,4.1,1.7-2,3.1-4.3,5.8-6.6,8.4Z"/>
  <path class="cls-57" d="M676.5,106.6c-4.7.5-9.3.6-14.1.3,0-3.2,0-6.1.3-9.4,4.6-.8,9.2-1.1,14.2-1.4.2,3.4,0,6.8-.4,10.6Z"/>
  <path class="cls-41" d="M538.2,513v-7.6h19.3c0,2.9,0,5.3-.5,8.2-6.6,0-12.7-.3-18.7-.6Z"/>
  <path class="cls-100" d="M536.3,517.6c-8.6,0-17.3-.2-26.3-.6-.4-1.8-.4-3.5-.2-5.7,8.2,0,16.3.2,24.8.5.9,1.8,1.3,3.6,1.7,5.7Z"/>
  <path class="cls-80" d="M784.8,384.2c2-2.9,4.4-5.5,6.7-8.5,3.2-.9,6.4-1.5,9.7-2.2,0,.9.2,1.9.2,2.9.1,8.7-4.2,11.9-12.6,9.3-1.3-.4-2.5-.9-4-1.6Z"/>
  <path class="cls-181" d="M508.8,530.4c15.7.3,31.2,1,47.2,1.6.5.8.5,1.5.4,2.6-15.7-.3-31.3-1-47.3-1.6-.4-.8-.4-1.5-.3-2.6Z"/>
  <path class="cls-41" d="M679.4,432c-.8-2.4-1.5-4.9-2.5-7.8h19.3c.2,1.9.5,3.6.4,6.2-6,1.1-11.6,1.3-17.2,1.6Z"/>
  <path class="cls-131" d="M682.7,535.3c7-.4,14-.4,21.5-.4,1.5,1.7,2.4,3.3,3.8,5.6-7.5.4-14.2,1.1-20.9.8-1.5,0-2.9-3.7-4.4-6Z"/>
  <path class="cls-112" d="M803.7,446.5c-5.6.4-11.2.4-17.1.4-.6-2.4-.7-4.7-1-7.5,5.6-.4,11.3-.4,17.5-.5.5,2.4.6,4.7.6,7.5Z"/>
  <path class="cls-85" d="M500.7,529.6c-6.8.4-13.5.4-20.6.4-.5-2-.6-4.1,0-6.6,7.2-.1,13.9.2,20.6.6,0,1.7.1,3.4.1,5.6Z"/>
  <path class="cls-135" d="M679.4,432.4c5.6-.7,11.3-.9,17.2-1.6.8,2.5,1.2,5.5,1.7,8.8-5.4.4-10.7.4-16.5.5-1.1-2.4-1.7-4.8-2.3-7.6Z"/>
  <path class="cls-160" d="M724.7,121v13h-11.1c0-3.9,0-7.5.5-11.6,3.9-.8,7.3-1.1,10.6-1.4Z"/>
  <path class="cls-32" d="M741.3,443.6c-6,.4-12,.4-18.4.4-.5-2-.6-4.1,0-6.6,6.5-.4,12.4-.4,18.4-.4,0,2,.1,4.1,0,6.6Z"/>
  <path class="cls-100" d="M741.3,436.6c-6,.4-11.9.4-18.3.4-.5-2-.6-4.1,0-6.6,6.5-.4,12.4-.4,18.3-.5,0,2,.1,4.1,0,6.6Z"/>
  <path class="cls-111" d="M500.6,523.6c-6.8,0-13.4-.2-20.6-.6-.5-1.7-.6-3.4,0-5.6,7.2-.4,13.9-.4,20.6-.4,0,2,.1,4.1,0,6.6Z"/>
  <path class="cls-76" d="M538.1,513.3c6.2,0,12.3.4,18.8.7.4,1.7.4,3.4-.2,5.6-6.5.4-12.4.4-18.3.4-.2-2.1-.4-4.3-.4-6.7Z"/>
  <path class="cls-5" d="M661.8,69.7c-.9-1.2-1.6-2.1-2.5-3.2,2.3-1.7,4.4-3.3,6.8-5.2,2.9,3.3,5.7,6.5,9,10.2-2.3,1.9-4.5,3.6-7,5.6-2.1-2.5-4.1-4.9-6.3-7.5Z"/>
  <path class="cls-5" d="M680.8,67.2c-1.3,1-2.4,1.8-3.7,2.8-2.9-3.3-5.7-6.5-8.8-10,2.2-1.7,4.3-3.3,6.8-5.3,2.9,3.1,5.8,6.2,9.6,10.2-1.4.8-2.5,1.5-3.8,2.4Z"/>
  <path class="cls-72" d="M500.6,516.6c-6.8.4-13.4.4-20.6.4-.5-1.7-.6-3.4,0-5.6,7.2-.4,13.9-.4,20.5-.4,0,1.7.1,3.4.1,5.6Z"/>
  <path class="cls-6" d="M763.9,445.6c-5.6.4-11.1.4-17.1.4-.5-2-.6-4.1-.5-6.5,5.8-.4,11.6-.4,17.8-.4.3,2.1.1,4.1-.2,6.6Z"/>
  <path class="cls-63" d="M783.1,445.6c-5.2.4-10.3.4-15.9.4-.5-2-.7-4.1-.8-6.5,5.3-.4,10.7-.5,16.6-.5.4,2,.3,4.1,0,6.6Z"/>
  <path class="cls-49" d="M1548.6,291.4c.3,2.2.8,4.9.8,7.5.1,7.7,0,15.4.1,23.6-1.5.5-3.2.5-4.9.5-1.5-4.9-1.7-9,.3-13.9,2.2-5.3,2.5-11.5,3.6-17.7Z"/>
  <path class="cls-68" d="M716.6,440.7c-5.4.3-10.7.3-16.4.3-.3-1.8-.1-3.5.6-5.6,6.1-.3,11.6-.3,17.2-.2-.4,1.7-.9,3.5-1.4,5.5Z"/>
  <path class="cls-169" d="M741.3,429.6c-6,.4-11.9.4-18.3.4-.5-1.8-.5-3.6-.5-6,5.7,0,11.4,0,17.7.3.6.5.8.6,1,.7,0,1.4.1,2.8,0,4.6Z"/>
  <path class="cls-69" d="M724.8,120.7c-3.6.7-6.9,1-10.7,1.3-.4-3-.5-6.1-.4-9.6,3.5-.4,6.9-.4,10.7-.5.5,2.8.5,5.6.4,8.7Z"/>
  <path class="cls-32" d="M538.4,520.4c6-.4,11.9-.4,18.2-.4.4,1.8.3,3.5,0,5.7-4.2,0-8.3-.4-12.4-.5-1.5,0-3,.9-4.5,1.2-.7.1-1.4-.1-2.2-.5.2-1.9.5-3.5.8-5.5Z"/>
  <path class="cls-169" d="M500.6,510.6c-6.8.4-13.4.4-20.6.4-.5-1.4-.6-2.8-.6-4.6,6.8-.4,13.4-.4,20.6-.4.5,1.4.6,2.8.5,4.6Z"/>
  <path class="cls-92" d="M798.5,116.5c4.7-1.1,9.3-1.8,14.4-2.4.9,2,1.3,4.1,1.8,6.5-4.9.6-9.8.9-15,1-.6-1.6-.9-3.1-1.2-5.1Z"/>
  <path class="cls-52" d="M718.2,434.8c-5.7.2-11.3.2-17.2.2-.2-1.8,0-3.5.8-5.6,6.3-.3,12-.3,17.7-.3-.4,1.8-.8,3.7-1.3,5.8Z"/>
  <path class="cls-8" d="M719.7,428.7c-5.9.4-11.6.3-17.8.4-.5-1.5-.5-2.9-.5-4.7h19.2c-.3,1.3-.5,2.7-1,4.4Z"/>
  <path class="cls-82" d="M395,171.3c-.4-6.8-.4-13.9-.4-21.4.9,5.1,2,10.6,2.5,16.2.2,1.6-1.1,3.3-2.1,5.2Z"/>
  <path class="cls-75" d="M1384.5,452.5c2.9.1,5.8.5,8.8.8-2.4,4.6-3.7,4.7-8.6.1-.2-.4-.2-.6-.2-1Z"/>
  <path class="cls-82" d="M389.9,196.9c.3-1.5,1.4-2.9,1.6-4.4.4-4.4.3-8.9.8-13.6.6,5,.9,10.3.8,15.6,0,.8-1.8,1.6-3.2,2.4Z"/>
  <path class="cls-82" d="M392.9,178c-.2-.8,0-1.8.3-3.1.2.8,0,1.8-.3,3.1Z"/>
  <path class="cls-82" d="M393.9,174.1c-.2-.5,0-1.3.4-2.3.2.5,0,1.2-.4,2.3Z"/>
  <path class="cls-91" d="M1433.2,359.4c.2,0,.3.3.3.6-.2,0-.4-.2-.3-.6Z"/>
  <path class="cls-100" d="M741.2,424.7c-.3.1-.4,0-.6-.4.3-.3.5-.2.6.4Z"/>
  <path class="cls-42" d="M1193.4,597.3c-.1-.2.3-.3.5-.3,0,.1-.2.3-.5.3Z"/>
  <path class="cls-39" d="M1482.8,272.7c0-.2.1-.4.6-.6,0,.2-.1.5-.6.6Z"/>
  <path class="cls-109" d="M725.6,225.7c.9,2.7,0,3.4-2.4,3.5-10,.4-19.9,1.1-29.9,1.7-3.6.2-7.2.7-11.2,1,1.4-3.9,2.5-8.6,5.3-11.7,6.6-7.2,22.2-9.1,30.5-3.8,3.1,2,5.1,5.8,7.7,9.2Z"/>
  <path class="cls-157" d="M930,264.9c1,4.9,1.7,9.6,2.6,14.7-.7,5.8-1.4,11.2-2.2,16.9-5.4,10.2-18.5,10.1-24.4.3-1.2-7.1-2.2-14.1-3.2-21.4.2-2.7.4-5,.8-7.3,1.4-7.8,5.3-11.8,12.5-12.7,5.9-.7,10.3,2.2,13.9,9.4Z"/>
  <path class="cls-145" d="M1470.9,339.2c.8-5.5,3.8-6.6,11.1-4.1.3,5.8-5,7.7-11.1,4.1Z"/>
  <path class="cls-22" d="M1164.6,131.3c-2.2-3.6-4.3-7-6.6-11h30.6c-.7,1.4-1.4,2.7-2.1,4.3-4.3,6.6-8.5,12.9-13.1,19.8-3-4.5-5.8-8.7-8.8-13.1Z"/>
  <path class="cls-22" d="M1261.2,87.9c2.7,4.1,5.1,8.1,7.9,12.2.9,1.5,1.6,2.8,2.6,4.8-10.2,0-20,0-29.7,0-.1,0-.2-1.4-.3-2.5,4.7-7.3,9.4-14.3,14.4-21.8,1.8,2.6,3.3,4.9,5.2,7.3Z"/>
  <path class="cls-86" d="M1280.2,546.8c.3.4.3.5,0,1.3-5.1,1-9.9,1.5-14.8,1.9,0-1.4,0-2.8,0-4.6,0-5.4,0-10.5,0-15.9,0-1.2.2-2,.3-3.4,1.3,1.5,2.2,2.6,3.4,3.8,3.8,5.7,7.3,11.2,11,16.9Z"/>
  <path class="cls-157" d="M1320.4,149.6c-4.9,3.5-9.7,6.6-14.8,10-2.7,1.7-5.1,3.2-8.5,5.1,0-2.4,0-4.1,0-6.2,0-5.5,0-10.6,0-16.1,0-3,.2-5.6.4-8.9,3.7,2.4,6.8,4.4,10.3,6.5,4.4,3.1,8.4,6.2,12.5,9.6Z"/>
  <path class="cls-75" d="M1096.7,87.4c5.2-3.7,10.3-7,15.7-10.6,2.4-1.5,4.7-2.8,7.5-4.5.2,2.4.3,4.1.4,6.3,0,6.4,0,12.5,0,18.9,0,2.1-.3,3.7-.6,6.4-8.1-5.7-15.6-11-23.1-16.6Z"/>
  <path class="cls-75" d="M1390.7,440.5c-.7-1.9-1-3.6-1.4-5.3,1.8.1,4.6-.5,5.3.4,3.2,4.4-1.8,3.8-3.9,4.9Z"/>
  <path class="cls-145" d="M1453.3,454.4c2-2.7,4.3-2.7,6.9-.6-.8,1.4-1.8,3.5-3,3.6-1.2.1-2.6-1.7-3.9-3Z"/>
  <path class="cls-145" d="M1456.2,436.8c-.6-1.4-1-2.7-1.3-4.1,1.5-.1,3.1-.2,4.6-.3,0,1.3,0,2.6-.1,4.2-1.1.3-2,.3-3.2.2Z"/>
  <path class="cls-144" d="M1265.5,550.5c4.9-.9,9.7-1.3,14.8-2.1,3.4,4.4,6.7,9.2,10,14.3-7.9.6-15.9,1-24.4,1.3-.5-4.4-.5-8.7-.5-13.5Z"/>
  <path class="cls-75" d="M684.2,509.3c-1.6.8-3.3,1.3-5.2,1.7-.3-1.7-.3-3.2-.3-5,2.9-.4,5.2-.6,5.5,3.3Z"/>
  <path class="cls-145" d="M1502.9,442.5c.9-1.8,1.7-3.3,3-5.9.3,2.1.4,2.9.6,4.1,0,1.8-.1,3.2-.2,5-1.5,0-2.7.2-4.3.3.3-1.2.6-2.2.9-3.4Z"/>
</svg>