<?xml version="1.0" encoding="UTF-8"?>
<svg id="Layer_1" data-name="Layer 1" xmlns="http://www.w3.org/2000/svg" version="1.1" viewBox="0 0 1920 639">
  <defs>
    <style>
      .cls-1 {
        fill: #eeeb2c;
      }

      .cls-1, .cls-2, .cls-3, .cls-4, .cls-5, .cls-6, .cls-7, .cls-8, .cls-9, .cls-10, .cls-11, .cls-12, .cls-13, .cls-14, .cls-15, .cls-16, .cls-17, .cls-18, .cls-19, .cls-20, .cls-21, .cls-22, .cls-23, .cls-24, .cls-25, .cls-26, .cls-27, .cls-28, .cls-29, .cls-30, .cls-31, .cls-32, .cls-33, .cls-34, .cls-35, .cls-36, .cls-37, .cls-38, .cls-39, .cls-40, .cls-41, .cls-42, .cls-43, .cls-44, .cls-45, .cls-46, .cls-47, .cls-48, .cls-49, .cls-50, .cls-51, .cls-52, .cls-53, .cls-54, .cls-55, .cls-56, .cls-57, .cls-58, .cls-59, .cls-60, .cls-61, .cls-62, .cls-63, .cls-64, .cls-65, .cls-66, .cls-67, .cls-68, .cls-69, .cls-70, .cls-71, .cls-72, .cls-73, .cls-74, .cls-75, .cls-76, .cls-77, .cls-78, .cls-79, .cls-80, .cls-81, .cls-82, .cls-83, .cls-84, .cls-85, .cls-86, .cls-87, .cls-88, .cls-89, .cls-90, .cls-91, .cls-92, .cls-93, .cls-94, .cls-95, .cls-96, .cls-97, .cls-98, .cls-99, .cls-100, .cls-101, .cls-102, .cls-103, .cls-104, .cls-105, .cls-106, .cls-107, .cls-108, .cls-109, .cls-110, .cls-111, .cls-112, .cls-113, .cls-114, .cls-115, .cls-116, .cls-117, .cls-118, .cls-119, .cls-120, .cls-121, .cls-122, .cls-123, .cls-124, .cls-125, .cls-126, .cls-127, .cls-128, .cls-129, .cls-130, .cls-131, .cls-132, .cls-133, .cls-134, .cls-135, .cls-136, .cls-137, .cls-138 {
        stroke-width: 0px;
      }

      .cls-2 {
        fill: #82d03b;
      }

      .cls-3 {
        fill: #70c94a;
      }

      .cls-4 {
        fill: #2fb5bc;
      }

      .cls-5 {
        fill: #2a90d4;
      }

      .cls-6 {
        fill: #2c95d1;
      }

      .cls-7 {
        fill: #c0e60d;
      }

      .cls-8 {
        fill: #30aec1;
      }

      .cls-9 {
        fill: #b1e01b;
      }

      .cls-10 {
        fill: #70ca4a;
      }

      .cls-11 {
        fill: #8bd334;
      }

      .cls-12 {
        fill: #d7ed2b;
      }

      .cls-13 {
        fill: #aedf19;
      }

      .cls-14 {
        fill: #d3e901;
      }

      .cls-15 {
        fill: #8ad235;
      }

      .cls-16 {
        fill: #b7e342;
      }

      .cls-17 {
        fill: #83d047;
      }

      .cls-18 {
        fill: #31bdb7;
      }

      .cls-19 {
        fill: #2da6c5;
      }

      .cls-20 {
        fill: #95d62d;
      }

      .cls-21 {
        fill: #2c9bcd;
      }

      .cls-22 {
        fill: #fbfdfe;
      }

      .cls-23 {
        fill: #ccea03;
      }

      .cls-24 {
        fill: #c5e80c;
      }

      .cls-25 {
        fill: #9eda25;
      }

      .cls-26 {
        fill: #2c9fca;
      }

      .cls-27 {
        fill: #c1e609;
      }

      .cls-28 {
        fill: #73ca4b;
      }

      .cls-29 {
        fill: #aade4d;
      }

      .cls-30 {
        fill: #75cb4b;
      }

      .cls-31 {
        fill: #a1db26;
      }

      .cls-32 {
        fill: #2e99cf;
      }

      .cls-33 {
        fill: #97d72b;
      }

      .cls-34 {
        fill: #d3ec2d;
      }

      .cls-35 {
        fill: #c6e837;
      }

      .cls-36 {
        fill: #ceea02;
      }

      .cls-37 {
        fill: #32b9ba;
      }

      .cls-38 {
        fill: #b0e017;
      }

      .cls-39 {
        fill: #f1f8fc;
      }

      .cls-40 {
        fill: #2ea9c4;
      }

      .cls-41 {
        fill: #81cf40;
      }

      .cls-42 {
        fill: #83d03a;
      }

      .cls-43 {
        fill: #2d9dcc;
      }

      .cls-44 {
        fill: #2d94d2;
      }

      .cls-45 {
        fill: #2b8ed6;
      }

      .cls-46 {
        fill: #d8e904;
      }

      .cls-47 {
        fill: #2b92d2;
      }

      .cls-48 {
        fill: #76cb47;
      }

      .cls-49 {
        fill: #2e9fcb;
      }

      .cls-50 {
        fill: #b6e212;
      }

      .cls-51 {
        fill: #e7e705;
      }

      .cls-52 {
        fill: #4da3da;
      }

      .cls-53 {
        fill: #b7e311;
      }

      .cls-54 {
        fill: #fefffb;
      }

      .cls-55 {
        fill: #a0db23;
      }

      .cls-56 {
        fill: #2da1c9;
      }

      .cls-57 {
        fill: #97d730;
      }

      .cls-58 {
        fill: #dfe801;
      }

      .cls-59 {
        fill: #fbfef6;
      }

      .cls-60 {
        fill: #d0e902;
      }

      .cls-61 {
        fill: #c0e60a;
      }

      .cls-62 {
        fill: #d5e904;
      }

      .cls-63 {
        fill: #30acc3;
      }

      .cls-64 {
        fill: #bce410;
      }

      .cls-65 {
        fill: #8bd33a;
      }

      .cls-66 {
        fill: #95d62e;
      }

      .cls-67 {
        fill: #dbea0c;
      }

      .cls-68 {
        fill: #9ad833;
      }

      .cls-69 {
        fill: #a0da28;
      }

      .cls-70 {
        fill: #acdf1a;
      }

      .cls-71 {
        fill: #c9e909;
      }

      .cls-72 {
        fill: #2fa3c9;
      }

      .cls-73 {
        fill: #afe017;
      }

      .cls-74 {
        fill: #b8e343;
      }

      .cls-75 {
        fill: #2c91d4;
      }

      .cls-76 {
        fill: #b8e311;
      }

      .cls-77 {
        fill: #4eadd3;
      }

      .cls-78 {
        fill: #83d03f;
      }

      .cls-79 {
        fill: #a7dd23;
      }

      .cls-80 {
        fill: #a6dc1f;
      }

      .cls-81 {
        fill: #8fd537;
      }

      .cls-82 {
        fill: #9ad95a;
      }

      .cls-83 {
        fill: #dbe905;
      }

      .cls-84 {
        fill: #8fd43b;
      }

      .cls-85 {
        fill: #8ed438;
      }

      .cls-86 {
        fill: #79cd50;
      }

      .cls-87 {
        fill: #91d530;
      }

      .cls-88 {
        fill: #8ad335;
      }

      .cls-89 {
        fill: #d5ea07;
      }

      .cls-90 {
        fill: #2da5c6;
      }

      .cls-91 {
        fill: #bfe50c;
      }

      .cls-92 {
        fill: #9eda28;
      }

      .cls-93 {
        fill: #2dabc2;
      }

      .cls-94 {
        fill: #fefffe;
      }

      .cls-95 {
        fill: #a9de1c;
      }

      .cls-96 {
        fill: #2b95d0;
      }

      .cls-97 {
        fill: #f1ea2c;
      }

      .cls-98 {
        fill: #a9de1f;
      }

      .cls-99 {
        fill: #a7dd1e;
      }

      .cls-100 {
        fill: #96d72f;
      }

      .cls-101 {
        fill: #2fa8c5;
      }

      .cls-102 {
        fill: #a0db24;
      }

      .cls-103 {
        fill: #2ca4c7;
      }

      .cls-104 {
        fill: #31aac5;
      }

      .cls-105 {
        fill: #98d82e;
      }

      .cls-106 {
        fill: #fefffc;
      }

      .cls-107 {
        fill: #bee511;
      }

      .cls-108 {
        fill: #96d731;
      }

      .cls-109 {
        fill: #a5dc20;
      }

      .cls-110 {
        fill: #2ea6c6;
      }

      .cls-111 {
        fill: #8ed432;
      }

      .cls-112 {
        fill: #2c9dcb;
      }

      .cls-113 {
        fill: #2c9ecb;
      }

      .cls-114 {
        fill: #9dd926;
      }

      .cls-115 {
        fill: #7bcd41;
      }

      .cls-116 {
        fill: #51c1c7;
      }

      .cls-117 {
        fill: #e4ec2b;
      }

      .cls-118 {
        fill: #2eadc1;
      }

      .cls-119 {
        fill: #c8e804;
      }

      .cls-120 {
        fill: #d0e905;
      }

      .cls-121 {
        fill: #dfed2b;
      }

      .cls-122 {
        fill: #c1e60a;
      }

      .cls-123 {
        fill: #7dce40;
      }

      .cls-124 {
        fill: #31b5bd;
      }

      .cls-125 {
        fill: #2facc3;
      }

      .cls-126 {
        fill: #addf1f;
      }

      .cls-127 {
        fill: #2a8fd4;
      }

      .cls-128 {
        fill: #54b8ce;
      }

      .cls-129 {
        fill: #2faec1;
      }

      .cls-130 {
        fill: #2a96d0;
      }

      .cls-131 {
        fill: #b2e115;
      }

      .cls-132 {
        fill: #77cc45;
      }

      .cls-133 {
        fill: #2eb5bb;
      }

      .cls-134 {
        fill: #52c19f;
      }

      .cls-135 {
        fill: #72ca4c;
      }

      .cls-136 {
        fill: #31aec2;
      }

      .cls-137 {
        fill: #abde1e;
      }

      .cls-138 {
        fill: #85d13b;
      }
    </style>
  </defs>
  <path class="cls-94" d="M1252.5,1c2,0,4.1,0,6.3.4.6.8,1.1,1.5,1.6,1.6,11.4.7,20.1,6.7,27.8,14.4,15.5,15.3,31,30.8,46.2,46.3,2.6,2.6,5.1,3.5,8.7,3.5,12.7-.2,25.3.2,38-.2,10.5-.3,19.6,2.5,28,8.9,14.4,11,17.1,25.4,14.8,40.2-1.3,8.7-6.2,15.4-12.4,21.4-9.1,8.9-18,17.9-27.1,27,4,1.7,7.5,2.9,10.7,4.7,2.9,1.7,5,1.6,7.9,0,12.6-7.3,25.3-14.7,38.2-21.4,17.8-9.3,39.2-2.5,49.9,12.9,12,17.1,21.4,35.7,29.3,55.1,8.2,20,16.9,39.8,24.8,59.9,2.3,5.9,4.1,12.5,3.8,18.7-.3,6.3-3.3,12.6-5.3,18.8-1.2,3.7,1.2,9.5,4.1,9.8,13.9,1.4,24.8,8.4,30.2,20.8,4.8,11.1,6.4,23.5,9.5,35.2.3,1.1,1.3,2,1.9,3,0,2.7,0,5.4-.4,8.2-.8,1-1.3,1.8-1.6,2.6-1.5,4.3-2.5,8.9-4.5,13-4,8.1-10.9,13.5-17.3,17.2,1.7,9.8,3.6,18.9,4.8,28.1,1.6,11.9-.9,23.3-6,34.1-5.6,11.9-14,21.1-27.6,23.6-6.7,1.3-13.7.8-20.4,2.3-8.1,1.8-15.5.3-22.9-2.3-3.5-1.2-6.4-2-10-.5-8.5,3.6-17.4,4.9-26.7,4.7-2.6,0-5.6,1.4-7.8,3-13.4,10.3-30.4,14.4-46.6,6.4-7.4-3.7-13.1-10.3-22.9-10.3-8.2,0-16.3-4.3-25-3.2-3.2.4-6.4.8-10.1,1.3v4.8c0,15,.3,30-.2,45-.1,5-1.8,10.1-3.4,14.9-3.3,9.9-11.9,15.9-18.4,23.2-8.9,10.1-19,19.2-28.4,28.8-6,6.1-13.3,9.5-21.6,11.1-.8.1-1.3,1.3-2,1.9-3.4,0-6.7,0-10.2-.3-1.1-.8-2.1-1.2-3.1-1.7-5.7-2.7-11.7-4.9-17.1-8.1-4.6-2.7-8.6-6.5-12.4-9.4-5.8,8.6-14.9,16.2-28.2,17.7-.7,0-1.3,1.3-2,1.9-2,0-4.1,0-6.3-.4-.6-.8-1.1-1.5-1.6-1.6-11.7-.5-20.4-7-28.2-14.7-11-11-21.5-22.6-32.7-33.5-9.9-9.6-14.5-20.9-14.2-34.5.1-7.4,0-14.9,0-22.7-4.9.5-9.1,1-13.3,1.2-9.4.4-18.8.7-28.3,1-6.6.3-13.2.8-19.8,1-6,.2-12.1,0-18.7,0-1.2,5.9-2.7,12.6-4,19.4-3.2,16.5-11.7,29.2-28.4,33.3-11.6,2.9-23.8,3.2-35.8,4.2-9.7.8-19.5.7-29.2,1.1-6.6.3-13.2.7-19.8,1-15.2.7-30.3,1.7-45.5,1.9-11.9.1-20.9-6.6-28-15.5-1.9-2.4-3.5-3.4-6.3-3.4-15.2,0-30.3,0-45.5,0-5,0-10.3,1-14.9-.3-6-1.7-9,1.1-12.6,4.7-6.9,7-15.4,10.6-25.3,10.5-5.9,0-11.8-.8-17.8-.9-10.6-.1-20.1-3.1-29.4-8.5-3.6-2.1-10.6-2.4-13.8-.2-9.2,6.4-18.9,10-29.9,9.6-10.8-.4-21.7-1.8-32.5-1.8-10.7,0-20.5-2.1-29.3-8.3-.6.4-1,.6-1.3,1-9.4,10.1-20.7,14.5-34.7,13.3-14.6-1.3-29.3-1.2-44-2.3-5.2-.4-10.4-1.9-15.3-3.7-4.3-1.6-8.2-3.5-13-3.2-8.6.6-15.9-3.2-23-7.6-1.9-1.2-4.3-2.2-6.6-2.2-21.7-.5-43.5,0-65.2-1.4-16.3-1.1-27.8-11.2-32.6-26.6-2.6-8.4-1.7-17.8-2.3-26.8-.5-7,1.1-13.5,4-19.8.6-1.2,1.2-3.3.7-4-7.5-9.8-6.4-21.6-7.5-32.7-1.3-11.9-1.5-24-2.1-36-1-18.4-2-36.8-3-55.3-.7-11.8-1.4-23.7-2-35.5-1-19.4-2-38.8-3-58.3-.4-9.1-.6-18.2-1.1-27.3,0-.9-1.2-1.6-1.9-2.5,0-6.7,0-13.4.3-20.2.8-.8,1.5-1.4,1.6-2.1,3.5-16.5,18.4-31.1,35.9-31.7,5.9-.2,11.8-.7,17.7-1,3.1-.1,5.3-1.4,4.4-4.7-2.1-7.5,0-14.3,2.5-21.2.8-2.2,1.6-4.7,1.5-7-.3-6-1.7-12-1.8-18-.3-19.5,12.5-35.7,31.5-40.1,1.5-.3,3.2-1.1,4.1-2.2,5.4-7.4,13-11.4,21.6-13.6,5.3-1.4,10.9-1.3,16.3-2.4,8.4-1.7,16.5-.8,24.3,2.7,4.1,1.8,7.8,4.6,12.1,5.5,10.3,2.1,20.1,4.7,27.6,12.8.7.7,3.8.4,4.7-.5,7.1-7,15.5-10.9,25.4-11.4.1-.2.3-.3.3-.5,0-1,.2-2,.1-3-.7-20.5,7.8-35.2,27.2-43.1,1.2-.5,2-1.8,3-2.8,5-4.8,9.4-10.8,15.2-14.2,11.1-6.5,23.7-9.1,36.7-9.3,2.1,0,4.5-.8,6.3-1.9,7.3-4.4,15-7.9,23.5-7.9,11.6,0,21.7,4.6,30.1,12.6,4.1,3.9,7.8,8.4,11.5,12.5,15.9-8.3,30.9-8,45.6,1.9,6-5.9,11.4-12.4,18-17.5,10.2-7.8,22.2-10.5,34.5-6.5,14.5,4.7,27.2,12.6,36.8,24.8,8.8,11.3,8.8,33.3.3,44.9-1.3,1.7-2,4.7-1.5,6.7,5.9,20.7,9.6,41.9,12.2,63.4,42-12.6,83.8-13.3,125,3.6-.2-2.1-.7-4.3-.5-6.5,1-12.8,5.5-23.9,15.7-32.3,1.1-.9,2-2.7,2.2-4.1,1.1-10.9,4.5-20.7,12.6-28.6,25.1-24.8,50-49.9,75-74.9,6-6,13.1-9.8,21.6-11.1.7-.1,1.3-1.3,2-1.9,27.7,0,55.4,0,83.2.4.5.7.8,1.3,1.2,1.4,10.3.8,18.3,5.8,25,13.2,7.9-6.5,15.8-12.6,26.6-13.1.3,0,.6-1.2,1-1.9M783.3,442.2c.1-1.1.2-2.1.9-3.2.4,0,.8,0,1.4.9.1,2,.3,4.1.2,7v14h17.8c0-5.1,0-10,.2-15.8,0-2-.1-4.1,0-7-.1-1.7-.3-3.4-.3-5.9-.6-1.4-1.2-2.9-2.1-5-5.7-5.6-12.3-6.1-20.5-1.4-4.8-3.9-10-3.8-15.4-1.1-.8.4-1.8.9-2.7.8-5.7-.7-11.3-1.5-17.6-2.4.3,2.9.5,4.5.8,6.8,0,1,.2,2.1,0,3.9,0,1.7.1,3.4-.2,5.7,0,2.1.2,4.2,0,7.1v14h17.9c0-5.2,0-9.9.3-15.5.1-2,.3-4.1,1-6.2.4,0,.8,0,1.4.6,0,.2.1.3.1,1.4,0,2.3.1,4.7,0,7.9v11.8h16.4c0-4.5,0-8.6.2-13.5,0-1.4-.1-2.8,0-5M719.7,429.3c.4-1.7.9-3.3,1.3-5.1h-19.4c0,1.8-.2,3.2-.7,5.3-.1,1.8-.3,3.6-.8,6.1-.1,1.8-.3,3.5-.6,5.9-.3.8-.5,1.5-.8,2.3-.1-.3-.3-.6-.3-1.7-.1-1.1-.2-2.1-.2-4-.3-2.1-.6-4.2-.9-7-.4-2.3-.7-4.5-1.1-6.9h-19.3c.9,2.9,1.6,5.4,2.4,8.6.6,2.1,1.1,4.2,1.8,7,.3,1.1.7,2.2,1.1,4,.4,1.4.9,2.8,1.3,5,1.1,4.1,2.1,8.2,3.1,12.1h24.9c1-4.3,2-8.6,3.4-13.5.3-1.4.6-2.7,1.3-4.7.6-2.5,1.3-5.1,2.2-8.2.3-1.5.7-3,1.3-5.2M500.8,511.2c0-1.7-.1-3.4.2-5.8v-8.9h-21.4c0,3.4,0,6.5-.2,10.4,0,1.4.1,2.8,0,5,0,1.7.1,3.4,0,6,0,1.7.1,3.4,0,6,0,2,.1,4.1,0,7.1v16.7h21.2c0-6.1,0-11.8.2-18.5,0-1.7-.1-3.4,0-6,0-2-.1-4.1,0-7,0-1.4-.1-2.8,0-5M722.3,430.9c0,2,.1,4.1,0,7,0,2.4.1,4.8,0,8.1v14.8h19c0-5.5,0-10.6.1-16.6,0-2.4-.1-4.8,0-8,0-2,0-4.1,0-7v-4.8h-18.9c0,2.1,0,3.9-.2,6.6M725,121.3c0-3.1,0-6.2.2-10.2,0-3.7,0-7.4.4-11.7,3.7-3,7.4-6.1,11.6-9.4,3.1-2.8,6.3-5.6,9.6-8.6-3.4-2.9-6.3-5.3-8.8-7.4-6.9,5.1-13.3,9.9-20.4,14.9-6.8,3.9-13.6,7.8-21.1,11.9-6,2.7-12,5.3-18.3,8.2,1.3,1.7,2.6,3,3.5,4.5,2.4,3.8,5.1,4.6,9.4,2.6,7.1-3.3,14.6-5.9,22.2-8.9.2,1.8.3,3.3.2,5.7,0,3.4,0,6.7,0,11v10.3h11.1c0-4.3,0-8.2.3-12.9M557.4,519.1c0-2,0-4.1.2-6.9.1-2.1.3-4.2.4-7h-20c0,2.5,0,5.1-.2,8.6,0,1.9-.2,3.8-.9,5.3-.2-.7-.5-1.4-.6-2.8-.4-1.5-.7-3-1.2-5.3-1.1-2.3-2-6.5-3.4-6.7-7-1-14.1-1-21.9-1.4,0,3.1,0,5.5-.2,8.8,0,1.7,0,3.4-.2,6,0,2,0,4.1-.4,6.8,0,1.8-.1,3.5-.4,6,0,.8,0,1.5-.1,3.2-.4,6.8-.7,13.5-1.1,20.9h20v-16.3c.3,0,.5,0,.8,0,1.3,5.8,2.5,11.5,3.8,17.4,8,.4,15.6.8,23.4,1.2.4-7.8.7-14.9,1.2-22.8,0-.8,0-1.5,0-3.1,0-1.7,0-3.4.4-5.8,0-1.8.1-3.6.4-6.2M789.7,375c-5.1-2.2-10.7-3.8-14.8.4-2,2-1.1,6.8-1.6,10.3,4.4-.6,7.8-1.1,11.7-1.2,2.2.7,4.4,1.9,6.6,1.9,3.6,0,8.1.4,9.5-4,.9-2.7.2-6,.2-8.6-4.1.5-7.4,1-11.5,1.2M662.2,103.7c-.9,3.4-1.8,6.9-3.2,10.8-2.6,3.5-5.1,7-8.3,10.8-4.5,3.5-8.9,7-14.1,10.7-8.6,3.9-17.2,7.9-26.1,12,3.4,3.4,6.5,6.6,9.8,9.7.8.8,2.5,1.5,3.4,1.2,13.5-5.6,26.8-11.6,37.6-22.8,2.7-3.5,5.5-7.1,8.8-11.1,1.7-3.9,3.4-7.9,5.3-12.5.6-3.4,1.2-6.8,2-11.1,0-2.4,0-4.7,0-8-.3-2.7-.7-5.4-1-9-.4-2.9-.9-5.8-1.4-9.2-2.9,2-5.4,3.7-8.3,5.8-2.6-6.6-6.9-7.2-12.5-4.9-2.5,1-5.4,1.3-8.2,1.9-1.3-4.8-2.5-9-3.7-13.5-5.2,1.3-10,2.5-14.9,3.8,1.1,4.8,2.1,9.1,3.1,13.7-9.5,2.4-18.6,4.7-28,7.1.5,1.7.8,3.1,1.3,5.3,1,3.7,2,7.4,3.1,12,1.3,5.3,2.7,10.6,4.1,16.4,5.3-1.3,10.2-2.5,15.4-3.8-1.6-5.6-3.1-10.7-4.7-16.5-1.1-2.8.9-2.9,2.7-3.4,11.3-2.8,22.6-5.7,33.9-8.4,1-.3,2.2,0,3.4,0,.3,1.9.5,3.3.6,5.7,0,2.4,0,4.7-.3,7.8M739.7,528.2c.3-2.4.5-4.8,1.7-7.4,1.1,0,2.3.1,3.4.2q7.6.4,7.6-7.5c0-.2,0-.3.1-1.3.3-3.1.6-6.2,1-9.7-14.8-1.3-29.2-2.5-44-3.8-.3,4.9-.6,9.1-1.1,14.3v4.2c4,1.1,7.5,2,10.7,3.7-.2,2.4-.4,4.8-.7,8.1-.2,2.4-.4,4.8-.8,8.1-.4,4.6-.8,9.1-1.2,14.1,7.3.7,14.1,1.3,21.3,1.9.4-6,.8-11.5,1.5-17.7,0-2.1.1-4.1.4-6.9M652.7,513.3c0-1.4,0-2.9.4-5.1v-7.4c-13.3-.6-26.4-1.1-40.3-1.7,0,3.4,0,6.2-.2,9.8,0,1.4,0,2.8-.1,5,0,1.4,0,2.8-.1,5,0,2,0,4.1-.4,6.8,0,2.1,0,4.2-.4,7.3v17.8c13.3.5,26.7,1.1,40.5,1.6v-17.4c-5.4,0-10.5.1-15.6,0-1.3,0-2.6-1.1-3-1.9h16.5c0-2.5,0-4.7.2-7.9v-5.7c-5.9-.5-11.4-.9-16.5-2.2,5.3,0,10.5,0,15.8.2,3,.2,3.4-1.1,3.2-4.2M658.8,522.7c.2,1.4.4,2.9.4,5.2.1,1.7.2,3.4.2,6v8.9c7.5-.4,14.1-.7,20.8-1.1,0-3.9,0-7.4.4-10,.4.4.8.9,1.3,2,.7,1.7,1.1,3.5,2.1,5,.8,1.2,2.2,2.8,3.4,2.8,6.6,0,13.2-.5,20.6-.9-1.7-3-3-5.3-4.4-8.4-1-1.7-2-3.5-3-5.9-.8-1.4-1.5-2.9-2.4-5,.6-1,1.2-2.1,2.4-3.4.9-1.6,1.9-3.2,3.1-5.5.2-1.4.5-2.9.9-5.1-.4-2.1-.8-4.1-1.2-6.9-2.6-6-7.5-9.9-13.8-10.1-10.5-.3-21.1.4-32.2.7.3,3.5.6,6.2.6,9.8.2,3.1.4,6.2.5,10.1,0,2,.2,4.1.2,7,.1,1.4.2,2.8.2,4.9M607.5,524.2c-.4-1.7-.7-3.5-1.1-5.9-1.6-2-3.3-4.1-5.5-6.5-5.9-1.7-11.9-3.4-18.4-5.6-1.2-3.6,1.4-2.4,2.8-2.1,1.5.3,2.9,1.7,4.4,1.6,5.1-.1,10.2-.7,16-1.1-.8-2.7-1.6-5.2-2.4-8.3-7.6-12-29.5-12.8-39.4-.9-.5,3.9-1.1,7.8-1.6,12.4.7,1.8,1.3,3.5,2.2,6,4.8,6.6,12.3,5.9,19.8,7.2,1.1,1,2.2,2,2.6,3.2-1.8-.2-3.7-.4-5.4-.7-1.3-.3-2.6-1.4-3.9-1.3-4.9.2-9.9.6-15.3,1,.4,1.9.7,3.4,1.1,5.7.7,1.4,1.4,2.8,2.3,4.9,9,10.8,30.3,11,39.4-.1.6-1.5,1.1-3,2.1-5.1,0-1.2.2-2.3.4-4.3M770.8,87.1c-4.8,4-9.5,8-14.9,12.2-2.9,2.1-5.7,4.5-8.8,6.3-3.8,2.2-5.2,5.2-5.1,10-.2,2.3-.4,4.5-.7,7.2,6,1.4,11.6,2.8,17.8,4.5,12.8,3,25.6,6,38.3,8.9,2.8.7,5.1,1.2,5.3,5.1.2,4.9,1.4,9.8,2.3,15.1,5.4-.9,10.4-1.8,15.5-2.7,0-1.3.1-2.1,0-2.9-2.1-10.9-4.2-21.9-6.3-33.6-1.2-4.7-2.5-9.4-3.7-14.3-5.3.7-9.9,1.3-14.9,2,1.2,5.2,2.3,9.7,3.2,15-2.8,0-5.6.1-9-.1-8.8-2.2-17.6-4.5-26.1-7.3,4.7-3.9,9.4-7.9,14.7-12.1,5-4.4,10.1-8.8,15.7-13.5,4.1-3.9,8.3-7.8,13-12,3.5-3.1,7.1-6.2,11-9.8-5.7-3.6-10.1-6.3-14.1-8.8-6.9,6.7-13.6,13.2-20.8,19.9-4,3.6-7.9,7.2-12.5,11.1M1493.1,431.5c-1.3,3.1-2.6,6.2-4.4,9.8-.7,3.5-1.4,7.1-2.3,11.5.3,3.9.6,7.8.9,12,7-.5,13.3-.9,19.8-1.3.3,2.9.6,5.1,1,7.8,6.4-.5,12.4-1,18.5-1.5v-7.5c.5.1,1.1.3,1.6.4.7-1.8,1.7-3.6,2-5.4.2-1.7-.5-3.6-.6-6.2-.2-3.2.3-6.8-4.3-7.6-.4,0-.6-1.7-.8-3.4-.3-3-.7-6.1-.9-10-.3-3.7-.5-7.4-.8-11.5-8.1.6-15.3,1-22.5,1.7-1.2.1-2.6,1.4-3.2,2.5-1.4,2.6-2.3,5.4-3.9,8.7M1263.5,595.7c.9,2,1.8,3.1,3.9.9,5.6-6,11.4-11.9,17.7-18,3.2-3.5,6.5-7,10.3-10.8,6.2-5.2,11.3-10.8,9-20.7,0-5.4-.1-10.7,0-17,0-6-.1-12,0-19,0-8.4-.1-16.7,0-26,0-8.7-.1-17.4,0-26.8-.9-1.7-1.5-3.6-2.7-4.9-6.2-6.5-12.5-12.8-18.8-19.2-5.4-5.5-10.9-10.9-17.2-17.3,0,15,0,28.6-.2,43,0,8.7.1,17.4,0,27,0,8.4.1,16.7,0,26v11.4c-3.5-4.9-6.1-8.7-9.1-13-3.8-5.8-7.7-11.5-11.7-18-6.1-9.1-12.1-18.1-18.3-27.9-10.6-15.9-21.2-31.8-32.2-48-9.2,9.3-18.3,18.5-28.1,28.1-2.7,2.7-5.6,5.3-8,8.2-1.3,1.5-2.5,3.6-2.5,5.5-.3,6.6,0,13.3,0,20.8,0,10,0,20,0,31,0,11.7,0,23.4,0,36,0,2.5-.2,5,0,7.5.2,2.2.2,5.1,1.5,6.4,12,12.2,24.3,24.2,36.7,36.6.2-.2.4-.3.7-1.4,0-16.7-.1-33.4,0-51,0-11.7-.1-23.4,0-36,0-6.7.2-13.4.8-19.7,1.3,1.9,2.7,3.8,4.3,6.4,4,6.1,8,12.2,12.1,18.9,3.6,5.5,7.1,10.9,10.9,17,3.7,5.7,7.5,11.5,11.4,17.9,3.6,5.4,7.2,10.9,10.9,17,6.2,9.5,12.4,18.9,18.8,29.1M1339.9,151.6c4.1-4.2,8.3-8.5,13-13,5.1-5.2,10.2-10.5,16-16,4.9-4.9,9.9-9.8,15.7-15.6-25.3,0-49,0-72.7,0-1.5,0-3.3.7-4.4,1.7-5.1,4.9-10.1,10.1-15.7,15.5-5.4,5.5-10.7,10.9-16.6,16.7-4.9,5-9.8,10-15.3,15.3-3.5,3.6-6.9,7.2-11,11-4.7,4.7-9.3,9.3-14.9,14.9,2.8,0,4.4,0,5.9,0,20.3,0,40.6-.3,60.9.2,7,.2,11.8-2,16-7.8,3.5-3.6,6.9-7.1,11-11,3.8-3.9,7.5-7.8,11.9-11.9M1477.1,437.5c1.3-9.4-2.1-15.9-10.8-17.8-5.7-1.2-11.9-1.3-17.6-.3-8.6,1.6-12.6,9.2-10.3,18.5.9,1.7,1.7,3.3,1.9,3.7-1.8,4.8-3.3,8.6-5,13.3-.6,10,5.9,15.6,13.5,16.8,5,.8,10.3,1,15.2.3,10-1.4,14.8-7.8,14.5-18.7-1.5-3.3-3-6.6-4.6-10,.8-1.5,1.7-3.3,3.2-5.8M1504.5,372.6c-3,.7-6,1.5-9.3,2.3,1.5,7,2.8,13.4,4.3,20.3,11.4-2.1,22.2-4.1,34-6.1,4.7-.8,9.4-1.5,14.5-2.3-1.7-8.3-3.4-16-5.1-24.1-12.9,3.3-25.2,6.5-38.3,9.8M658.2,450.9c.5,3.2.9,6.5,1.4,9.9,6.6-1,12.6-1.9,19-2.8-.9-5.4-1.6-10.3-2.5-16-.8-4-1.6-8-2.5-12.7-3.5-7.8-12.8-9.8-21.1-4.7-.9.6-1.9,1.5-2.9,1.5-5.6.1-11.3,0-17.7,0,1.1,7,1.9,12.5,2.8,18.9.9,6.3,1.9,12.6,2.8,19,6.7-1,12.7-1.9,18.8-2.9-1-7.7-1.9-14.8-2.8-21.9.7-.1,1.4-.2,2.1-.3.8,3.7,1.6,7.4,2.3,12M1362.6,445.1c-.5-9.2-.9-18.5-1.4-28.4-5.9.3-11.3.6-16.7,1-.8,0-1.6.4-2.2.9-3.6,2.8-7.1,5.7-11.8,9.4.1,2.1.3,5.9.5,10h10.2c.3,1.5.7,2.7.7,4.8.5,8.7,1.1,17.5,1.7,26.6,7.2-.5,13.7-.9,20.6-1.3-.6-7.9-1.2-15-1.6-23M1095.8,67.1c-4.5,4.6-9,9.2-14.1,14.1-4.4,4.5-8.9,9.1-13.9,13.9-7.3,7.3-14.7,14.7-22.7,22.7,24.2,0,47.3,0,71.2.1,1.4-.3,3.2,0,4-.9,4.9-4.5,9.5-9.3,14.9-14.3,4.1-4.2,8.3-8.5,13-13,3.8-3.9,7.6-7.8,12-12,3.7-3.9,7.4-7.8,11.5-12.4,7.6-7.2,15.2-14.4,23.8-22.4-25.7,0-49.8,0-74.7-.1-4.1,4-8.3,8-13,12.2-3.8,3.9-7.6,7.8-12,12M1383.5,453.3c-4.7-.5-9.4-.9-14.1-1.4-1,6.7.5,11.5,4.7,15.4,11.1,10.2,29.8,6.6,35.4-7.3,1.9-4.6,2.1-10,3.5-15.6,1-18.3-11.5-29.4-28.7-25.6-11.4,2.6-16.9,14.4-11.6,25.8,3.9,2.5,7.8,5.1,11.7,8.1,0,.2,0,.3-.9.6M468.6,190.8c1,7.5,2,14.9,3,22.7,5.4-.7,10.1-1.3,15.4-2-1.2-8.2-2.3-15.8-3.4-24.4-.4-3.4-.7-6.9-1.2-10.3-.6-3.4.2-5.8,3-8.2,3.6-3.1,6.5-6.9,10.2-10.8,4-6.2,6.4-12.9,6.9-20.9-8.4,1-16.4,1.9-24.5,2.9-.7-4.4-1.2-8.3-1.9-12.4-5.2.7-9.9,1.3-15.1,1.9.4,4.3.7,8.1,1.1,12.5-9.2,1.2-18.3,2.5-27.6,3.7.7,5.1,1.3,9.6,2,14.5,13.3-1.7,26.2-3.3,39.6-4.9-1.6,2.3-2.8,4-4.6,6-11.3,11.2-24.8,19-39.7,25.5,4,4.6,7.4,8.6,11.2,12.9,8.2-5,16.2-9.9,24.6-15,.4,2.2.8,3.8,1,6.2M603.4,347.2c-.2-1.8-.4-3.5-.5-6.2-.2-2.7-.3-5.4-.4-9-.3-4.7-.7-9.4-.9-15-.3-4.7-.7-9.4-.9-15-.3-4.4-.5-8.8-.7-14.1-.3-5-.6-10-.7-15.8-.4-6.1-.8-12.1-1-19-.5-8.9-1.1-17.9-1.7-27.4-29.9,1.6-59.4,3.3-89.5,4.9.8,11.9,1.6,23.1,2.3,35.3.5,6,1,12.1,1.5,18.9.6,4.7,1.3,9.5,1.8,15,.7,4.7,1.3,9.4,1.9,15,.7,4.7,1.3,9.4,1.9,15,.5,4.4,1,8.7,1.2,13.6-.7-.5-1.3-1-1.9-2.3-1.5-5.1-3-10.3-4.7-16.2-1.1-3.7-2.3-7.3-3.4-11.8-1.1-3.5-2.2-6.9-3.5-11.1-1.8-4.7-3.6-9.4-5.4-15-1.8-6.4-3.7-12.8-5.7-20-3.1-9.7-6.5-19.4-9.2-29.3-1.3-4.8-3.5-6-8.3-5.7-23.6,1.6-47.2,2.7-70.8,4-10.2.6-20.5,1.3-31,1.9,1,15.1,1.9,29.5,2.7,44.8.4,6.7.8,13.4,1.1,21,.4,5,.7,10.1.9,16,.2,3.4.4,6.7.5,10.9.3,4.1.6,8.1.7,13.1.4,5,.7,10.1.9,16,.4,6.4.8,12.7,1.1,20,.4,7,.9,14.1,1.2,22,.6,7.7,1.1,15.4,1.5,24.1.9,17.2,1.7,34.4,2.6,51.9,30.3-1.7,59.8-3.3,89.9-5-1.5-20-3-39.4-4.5-59.6-.9-7.4-1.7-14.9-2.5-23.2-.9-7.3-1.8-14.7-2.6-22.8-.4-3-.7-5.9-1.1-8.9.3,0,.5,0,.8,0,.4.9.7,1.7,1.3,3.2.4,1.2.9,2.3,1.3,4.3.7,2.1,1.4,4.2,2.1,7,1,3.4,2,6.8,3.1,11,1.5,4.4,3,8.9,4.6,14.1,1.7,5.4,3.4,10.8,5.1,16.9,5.6,17.4,11.3,34.8,16.7,52.2,1,3.4,2.5,4.3,6,4.1,27.4-1.6,54.8-3,82.3-4.4,6.6-.4,13.2-.8,20.6-1.3-1.3-22.4-2.6-44.4-3.7-67.3-.4-5.7-.8-11.5-1-18-.3-4.4-.6-8.8-.8-14.1-.3-3.4-.6-6.8-.8-11-.1-2.4-.3-4.7-.3-7.9M562.8,189.8c-.2,2.3-.4,4.5-.7,7.1-4.8-.9-9-1.7-13.6-2.6v16.2c6.4.5,12.6,1.3,18.8,1.3,6,0,9.3-3,10-9,.6-5.3.6-10.6,1.1-16.8.3-5.7.6-11.4.9-17.2h18.5c.2-2.7.3-5.3.7-8.8v-5.3c-6.3-.4-12.4-.8-18.6-1.3,0-1.5-.2-2.6-.2-3.7q0-13.4-13.5-12.7c-.3,0-.5.3-1.6,1v14.7c-15.5-.9-30.3-1.7-45.5-2.6v14.7c7.7.4,15.2.7,22.6,1.3,3.5.3,7,1.1,9.9,2-11.5,11.2-24.7,20-39.9,26.8,4.1,4.5,7.6,8.4,11.8,13.2,13.6-9.8,26.8-19.4,39.7-28.7,0,2.7,0,6.1-.3,10.4M1018.4,266.2c-.9-4.4-1.9-8.8-2.8-14-1.7-4.7-3.4-9.5-5.2-14.9-3.6-5.5-7.3-10.9-11.2-17-5.6-5.1-11.1-10.3-17.1-16-7-3.4-13.8-7.7-21.2-10-33.7-10.3-66.7-8.1-98.7,6.8-11.1,5.2-20.8,12.5-28.6,23-3.7,6.6-7.4,13.3-11.5,20.6-1.4,5.2-2.8,10.4-4.6,16.4-.4,7.3-.8,14.7-1.3,22.9,1.1,7.4,2.2,14.7,3.3,22.8,2,5.1,3.9,10.2,5.9,16,1.4,2.4,2.8,4.9,4.4,7.9,2.5,3.1,5,6.3,7.7,10,5.9,4.8,11.7,9.6,18,15,5.9,2.8,11.5,6.1,17.6,8.2,27.4,9.2,55.1,8.4,82.6.6,17.1-4.8,32.3-13.2,44.2-27.8,3.9-6.5,7.9-13.1,12.3-20.1,1.1-3.5,2.2-7,3.8-11.1.6-3.1,1.1-6.2,2.1-10.1.3-4.1.6-8.3,1.1-13.3-.3-5-.7-10.1-.9-15.9M692.7,276.2c-2.7-3.4-5.3-6.9-8.1-11.1,1.2-.7,2.3-1.9,3.5-2,32.4-1.8,64.8-3.6,97.2-5.3,6.3-.3,12.5-.8,19.8-1.3-.6-7.4-1.2-14.4-2-22.3-1.3-5.7-2.5-11.5-3.8-18-4.2-12.5-10-24.1-20.1-33.9-7.1-5.1-13.7-11.5-21.6-14.9-33.2-14.6-66.7-12.8-99.5,1.3-16.1,6.9-28.7,18.4-37.5,34.6-6.1,11.8-9.9,24.2-10.3,38.6.2,6,.4,12,.5,18.8.9,4.7,1.9,9.5,2.8,15,1.3,3.8,2.7,7.5,4.1,12,1.5,2.9,3,5.8,4.7,9.4,1.3,2,2.7,4,4.2,6.6,3.3,3.8,6.7,7.5,10.3,11.9,7.5,4.9,15,9.8,23,15.2,5,1.7,9.9,3.9,15,5.2,24.6,6.3,49.1,4.4,73.4-1.5,14.5-3.5,28-9.3,39-21.1,4-6.4,8-12.9,12.4-20,1.2-4.1,2.3-8.2,3.7-13.1.3-2.7.6-5.5,1.1-9.1.9-3.6-1.8-3.4-3.8-3.4-9.6.3-19.2.8-28.7,1.3-9,.5-18,.9-27,1.7-5.5.5-11.9,0-16.2,2.8-10.8,6.9-21.4,9.8-33.4,4.1-.7-.3-1.5-.6-2.8-1.4M1291.6,78.3c-4-3.9-7.9-7.7-12.2-12.2-7.7-7.7-15.5-15.4-22.7-22.5-13.9,13.6-27.7,26.9-42.1,40.6-3.9,3.7-7.8,7.5-11.2,10.7,5.1,5.5,9.6,10.4,14.3,15.8,6.2,6.1,12.5,12.3,19,19,6.3,6.4,12.6,12.7,18.3,18.4,11.9-11.4,23.6-22.6,35.8-34,6-6.1,12-12.2,18.2-18.5-2.2-2.1-4.2-3.9-6.4-6.3-3.6-3.5-7.1-6.9-11-11M1481.7,273.3c5-2.6,9.9-5.2,15.3-8-3.7-8.7-7.2-17.2-10.7-25.4-6,1.5-11.4,2.8-16.6,3.4,5-2.5,9.9-5.1,15-7.7-3.5-8.3-6.8-16.1-10.2-24.2-14.7,9.9-28.9,19.4-43,29.1-1,.7-1.9,3.2-1.4,4.3,1.9,5.1,4.3,10,6.5,15.8,1.6,3.7,3.2,7.5,4.8,11.2,5.8-1.9,11.1-3.5,16.3-5.2.1.4.3.8.4,1.2-4.9,2.5-9.9,5.1-15.3,7.9,1.7,3.7,3.2,6.9,4.8,10.9,2.4,5.8,4.8,11.6,7.3,17.5,18.1-3.7,35.8-7.3,53.9-11-2.9-7.1-5.8-13.6-8.3-20.2-1.2-3.3-2.9-3.7-6-2.5-4.2,1.5-8.6,2.3-12.6,2.8M1504.4,326.2c-2.4-12.2-9.4-19.2-21.3-20-6.2-.4-12.7.1-18.7,1.8-15.9,4.3-21.5,20-12.3,34.2-6.9.7-13.6,1.3-20.5,2,.4,3.6.7,6.7.9,10.7.5,5.6,1,11.2,1.5,17,24.3-2.1,48.1-4.1,72.3-6.1-.6-6.8-1-13.1-1.8-19.3-.3-2-1.9-3.9-2.7-5.6.8-4.4,1.7-9.1,2.6-14.6M1210,145.7c5.5-5.4,11-10.9,15.9-15.7-5-5.4-9.4-10.3-14.3-15.7-12.6-12.7-25.2-25.5-37.3-37.7-18.1,18.1-35.6,35.7-53.4,53.5,2.3,2.2,5.1,4.8,8.2,8,7.4,7.4,14.9,14.7,22.6,22.7,7.1,7.2,14.1,14.5,20.8,21.3,12.7-12.4,24.8-24.2,37.5-36.2M1238.2,361c.3,7.2.6,14.5.9,21.9,25.1-1.4,49.3-2.8,74-4.2-.9-16.7-1.8-32.7-2.6-49.6-.6-9.4-1.3-18.7-1.8-29-.3-6.5-.8-13-.8-19.4,0-3.9,1.6-7.8,5.7-8.2,2.9-.3,6.6.9,8.8,2.9,1.7,1.6,2,5.1,2.2,7.9.9,12.3,1.5,24.6,2.2,37.7,1.1,18.9,2.1,37.7,3.2,57,27.4-1.5,54.3-3,81.4-4.5-1.7-29.4-3.3-57.9-4.8-87.2-.7-11.3-1.1-22.5-2.1-33.7-.9-9.6-2.5-19-8-28-6.6-11.6-16.3-19.6-29.3-22.3-26.5-5.5-51.6-4.1-72.7,19-.7-1.3-1.4-2.6-2.3-4.6-5.2-5.7-11.7-9.5-19.2-11-14.4-2.9-28.5-1.2-41.9,5-9,4.2-15.5,11.2-21.8,20.2-.5-6.9-.8-12.6-1.2-18.6-25.7,1.4-50.9,2.8-76.5,4.3,1.4,22.9,2.7,45.3,3.9,68.6,1,18.4,2.1,36.7,3,56,.9,15.6,1.7,31.2,2.6,47.3,27.4-1.5,54.2-3,81.5-4.5-1.5-25.9-3-51.3-4.4-77.6-.6-5.9-1.1-11.8-1.7-17.7-.6-5.4,2.7-10.8,7-11.3,6.4-.8,9.4,1.8,10.2,9,.4,3,.6,5.9.8,9.8.7,11.7,1.4,23.4,2,36,.6,9.4,1.2,18.8,1.7,29.1M833.5,423.8c4,12.4,8.1,24.8,12.1,38,4.9,15.1,9.9,30.2,14.8,46,4.7,14.4,9.4,28.8,14.1,44,.5,4.3,2.7,5.5,7,5.2,31.6-1.9,63.1-3.5,94.7-5.3,4.6-.3,9.2-.7,14-1.1,3.6-17.8,7.1-35.2,11-53.3,1.8-8.9,3.6-17.7,5.4-26.6,2-9.6,3.9-19.2,6.3-29.4,4.5-21.5,9.1-43,13.7-65-28,1.6-55.1,3.2-82.2,4.5-4.4.2-5.6,1.6-5.9,5.7-1,13.9-2.5,27.9-3.8,41.8-1.5,15.9-2.9,31.8-4.7,48.3-.1.8-.3,1.7-.9,2.5-.2,0-.3,0-.6,0,0,0,0,0,.1-.9-3.4-16-6.7-32.1-10-49-2.6-12.8-5.1-25.5-7.8-39.1-.4-2.3-.9-4.5-1.4-7.2-29.2,1.6-58.1,3.2-87.8,4.9,4.2,12.4,8,23.9,11.8,36.1M1130.1,444.2c-1-17.1-2-34.1-2.9-52-1.4-23.7-2.7-47.4-4-72-1.4-23.7-2.7-47.4-4-72-.6-10.2-1.2-20.5-1.9-31.1-28.9,1.6-57.4,3.2-86.5,4.8,1.3,21.1,2.5,41.7,3.6,63.1,1.4,23.7,2.7,47.4,4,72,1.4,23.7,2.7,47.4,4,72,1,17,2,34.1,2.9,52,.2,4.9.5,9.9.8,15.4,29-1.6,57.5-3.2,86.6-4.8-1-15.8-1.9-31.2-2.6-47.4M1111.7,149.2c-28,1.6-56,3.2-84.4,4.8,1,18.3,2,36,3,54,29.2-1.6,57.6-3.2,86.5-4.8-.9-17.6-1.8-34.3-2.7-51.1,0-1-1-1.9-2.3-2.9M1472.3,390.8c.8,3.8,1.6,7.6,2.5,11.7,7.4-1.6,14.1-3,21-4.5-1.6-7.7-2.9-14.7-4.5-21.6-.2-.9-1.8-2.4-2.5-2.2-6.4,1.1-12.8,2.5-19.3,3.9,1,4.6,1.7,8.3,2.8,12.8M1441.1,194.1c3.2,6.7,6.5,13.3,9.8,20.2,6.8-3.9,12.6-7.3,18.7-10.8-3.8-6.5-7.4-12.8-11.2-19.4-5.9,3.4-11.3,6.5-17.3,10M1415,209.1c-.7,1.3-2.4,3.2-2,3.9,3,5.9,6.5,11.5,10,17.5,6.3-3.6,12.1-7,18.3-10.6-3.9-6.7-7.5-13-11.3-19.4-5.1,2.9-9.7,5.6-14.9,8.6M397,537.1h19.8v-14.7h-28v14.7h8.2M839.2,532.3v-10h-28.4v14.8c8.8,0,17.4.1,26-.2.9,0,1.6-2.4,2.4-4.6M450.3,523.9c-.5-.6-.9-1.7-1.4-1.7-9-.1-18.1,0-27.1,0v14.5h28.5c0-4.2,0-8,0-12.8M518.4,177.5c-7.9-3.2-15.7-6.3-23.8-9.6-3.2,4-6.3,7.7-9.8,12.1,9.2,4.1,17.8,7.8,26.6,11.7,2.5-5,4.6-9.2,6.9-14.2M805.8,524.7c-.7-.9-1.4-2.5-2.2-2.5-8.6-.2-17.2-.1-25.9-.1v14.7h28c0-3.9,0-7.5,0-12.1M1427.4,480.1c1.2-6,2.3-11.9,3.6-18.4-5.7-.7-10.6-1.2-15.9-1.9-.6,5-1.1,9.6-1.6,14.3,2.2.5,3.9.8,5.6,1.2.5.5.9,1.1,1.4,1.6-2.1,1.3-4.3,2.6-6.4,3.9,6.6,6.7,7.6,6.7,13.3-.8M753.2,373.8c-10.5-2-14.6,0-12.5,10.5,5.7.7,11,1,16.1,1.9,5.3.9,11-.8,11.3-4.1.3-2.9,0-5.8,0-7.3-5.3-.3-9.7-.5-15-1M707.5,384.1c.5.6,1.4,1.7,1.5,1.6,5.1-2.7,9.8-.8,14.9.2,3.2.6,8.2,0,10-2,1.9-2.2,1-6.8,1.2-9-5.5-.4-10.1,0-14.3-1.1-9.4-2.6-13.3,0-13.3,10.3M668.4,383.8v-8.7c-5.3-.5-10.4-.6-15.2-1.7-8-1.8-11.9.9-11.8,9,0,1.1.2,2.3.1,1.9,5.6.6,10.6,1.5,15.7,1.6,3.5,0,7-1,11.1-2.2M678.9,384.8c3.2.2,6.4.7,9.6.7,4,0,8.8.7,11.6-1.2,2.1-1.4,1.5-6.6,1.8-8.8-6.1-.8-11.2-1.2-16.2-2.2-7.4-1.5-11.4,1.3-11.3,8.6,0,1.3.1,2.6.2,4.2,1.3-.4,2.4-.7,4.2-1.3M741.3,410.7c-6.2-.5-12.4-1-18.8-1.5v12.5h18.9c0-3.5,0-6.8-.1-11M671.6,67.5c-1.7-2-3.5-4-5.4-6.2-2.5,1.9-4.6,3.5-7,5.3,3.1,3.7,5.9,7.1,8.9,10.7,2.4-1.9,4.6-3.7,7-5.6-1.2-1.4-2.1-2.6-3.5-4.3M677.3,56.6c-5-3.9-5.8,2.3-9.2,3.1,3.4,3.8,6.2,7,9.2,10.4,2.4-1.9,4.6-3.7,7.1-5.6-2.3-2.6-4.4-5-7-7.8Z"/>
  <path class="cls-19" d="M1234.6,295c-.3-3-.5-5.9-.9-8.9-.9-7.2-3.8-9.8-10.2-9-4.3.5-7.6,5.9-7,11.3.6,5.9,1.2,11.8,1.2,18.2-1.8.7-3.2.6-4.4,1.1-11.1,4.8-22.1,9.7-33.2,14.5-13.8,6-27.6,11.9-41.5,17.8-1-18.4-2.1-36.7-2.7-55.5,2.2-1,4-1.3,5.6-2,14-6.1,28-12.2,42-18.3,19.5-8.5,39-16.9,58.5-25.4,16.7-7.3,33.5-14.5,50.2-21.7.7,1.3,1.5,2.7,2.2,4,21.1-23.1,46.2-24.5,72.7-19,13,2.7,22.7,10.7,29,22.7-15.9,7.3-31.6,14.2-47.2,21.1-22.1,9.6-44.1,19.1-66.2,28.7-16,6.9-32,13.7-48,20.6Z"/>
  <path class="cls-113" d="M1234.6,295.5c16.1-7.3,32.1-14.1,48.1-21,22.1-9.5,44.2-19.1,66.2-28.7,15.7-6.8,31.3-13.8,47.3-20.7,5.7,8.3,7.4,17.8,8.2,27.3,1,11.2,1.4,22.5,1.6,34.2-.9.5-1.5.5-1.9.7-19.5,8.5-38.9,17.2-58.4,25.6-6.2,2.7-12.6,4.8-19,7.2-.7-12.3-1.4-24.6-2.3-36.9-.2-2.7-.5-6.3-2.2-7.9-2.1-1.9-5.9-3.2-8.8-2.9-4.1.5-5.8,4.3-5.7,8.2,0,6.5.5,13,.4,19.9-19.7,8.9-38.9,17.3-58.2,25.6-4.4,1.9-8.9,3.2-13.4,4.8-.7-11.7-1.4-23.4-2-35.5Z"/>
  <path class="cls-3" d="M606.1,399c1.3,22,2.5,44.1,3.8,66.4-7.4.5-14,1-20.6,1.3-27.4,1.5-54.9,2.8-82.3,4.4-3.5.2-4.9-.8-6-4.1-5.4-17.5-11.1-34.8-16.2-52.6,7.3-1.3,14.2-2.2,21-3,11.6-1.5,23.2-2.9,34.9-4.4,11.6-1.5,23.2-3.1,34.8-4.5,10.2-1.2,20.3-2.3,30.5-3.5Z"/>
  <path class="cls-130" d="M929.6,479.1c.1-.8.3-1.7,1-2.8,2.2-.7,3.8-.9,5.3-1.6,14.4-6.3,28.7-12.7,43.2-18.9,11.1-4.8,22.3-9.2,33.4-13.8-2,9.6-3.9,19.2-5.9,28.8-1.8,8.9-3.6,17.7-6,26.9-9.3,3.9-18.1,7.4-26.8,11.1-25.1,10.8-50.2,21.8-75.3,32.7-7.9,3.4-16,6.4-24,9.5-4.7-14.4-9.4-28.8-13.7-43.6,16.5-7.4,32.6-14.5,48.8-21.3,6.2-2.6,12.6-4.7,19-7.1,0,0,0,0,0,.3.4.6.8,1,1.2,1.3,0-.5-.1-1-.2-1.5Z"/>
  <path class="cls-26" d="M1012.7,441.7c-11.3,4.9-22.6,9.4-33.6,14.1-14.4,6.2-28.8,12.6-43.2,18.9-1.5.7-3.2.9-5.2,1.3,1.1-15.9,2.5-31.8,4-47.7,1.3-13.9,2.7-27.8,3.8-41.8.3-4.1,1.5-5.5,5.9-5.7,27.1-1.3,54.2-2.9,82.2-4.5-4.6,21.9-9.2,43.4-13.9,65.3Z"/>
  <path class="cls-118" d="M1292.2,216.7c-16.7,7.6-33.4,14.8-50.2,22.1-19.5,8.4-39,16.9-58.5,25.4-14,6.1-28,12.2-42,18.3-1.6.7-3.4,1.1-5.6,1.6-1.7-22.4-3.1-44.8-4.4-67.7,25.6-1.4,50.8-2.8,76.5-4.3.4,6,.8,11.7,1.2,18.6,6.3-9,12.8-16,21.8-20.2,13.4-6.2,27.4-7.9,41.9-5,7.5,1.5,14,5.3,19.2,11.3Z"/>
  <path class="cls-26" d="M1042.6,428c-1.4-23.7-2.7-47.4-3.7-71.6,23.5-10.5,46.7-20.6,69.8-30.5,4.7-2,9.6-3.3,14.4-4.9,1.4,23.7,2.7,47.4,3.7,71.6-2.4.9-4.4,1.1-6.2,1.9-14,6.1-27.9,12.3-41.9,18.3-12,5.2-24.1,10.1-36.2,15.2Z"/>
  <path class="cls-93" d="M1123.3,320.6c-4.9,2.1-9.8,3.4-14.5,5.4-23.2,9.9-46.3,20-69.8,30-1.7-23.7-3.1-47.3-4-71.5,20.5-9.2,40.6-17.9,60.7-26.4,7.7-3.3,15.7-6,23.6-9,1.4,23.7,2.7,47.4,4,71.6Z"/>
  <path class="cls-47" d="M1326.7,320.4c6.4-2.8,12.8-4.9,19-7.6,19.5-8.4,38.9-17.1,58.4-25.6.4-.2,1-.2,1.8-.3,2,28.5,3.6,56.9,5.3,86.3-27.1,1.5-54,3-81.4,4.5-1.1-19.2-2.1-38.1-3.1-57.4Z"/>
  <path class="cls-14" d="M779.6,183c9.8,9.2,15.6,20.8,19.4,33.7-9.7,1.7-18.9,3.1-28.2,4.3-15,2-29.9,4-45.1,5.7-2.6-3.6-4.4-7.8-7.6-9.9-13.2-8.5-32.2-.9-36.8,14.5-1.8.8-3.3,1.5-4.9,1.7-11.9,1.7-23.8,3.3-35.8,4.8-10,1.2-20,2.2-30,3.2.2-13.4,4-25.8,10.8-37.8,7.3-.6,14.1-.8,20.7-1.6,11.6-1.3,23.3-3,34.9-4.6,12-1.6,23.9-3.1,35.9-4.6,11.6-1.5,23.3-2.8,34.9-4.4,10.6-1.5,21.2-3.3,31.8-5Z"/>
  <path class="cls-112" d="M1138.6,340.4c13.9-6.4,27.7-12.3,41.5-18.3,11.1-4.8,22.1-9.7,33.2-14.5,1.2-.5,2.6-.4,4.3-.6,1.9,25.4,3.4,50.8,5,76.7-27.3,1.5-54.1,3-81.5,4.5-.9-16.1-1.7-31.7-2.5-47.8Z"/>
  <path class="cls-10" d="M472.3,414c1.5,19.4,3,38.8,4.5,58.8-30.1,1.7-59.6,3.3-89.9,5-.9-17.5-1.8-34.7-2.1-52.3,14.9-2.2,29.4-3.9,43.8-5.7,14.6-1.8,29.1-3.9,43.7-5.8Z"/>
  <path class="cls-18" d="M1112.1,149.2c.9,1,1.8,1.9,1.9,2.9,1,16.8,1.8,33.5,2.7,51.1-28.8,1.6-57.3,3.2-86.5,4.8-1-18-2-35.7-3-54,28.4-1.6,56.4-3.2,84.9-4.8Z"/>
  <path class="cls-60" d="M376.5,282c-.9-14.4-1.9-28.9-2.9-43.9,10.5-.7,20.7-1.3,31-1.9,23.6-1.3,47.2-2.5,70.8-4,4.8-.3,7,.9,8.3,5.7,2.7,9.9,6.1,19.5,8.8,29.7-5.5.9-10.6,1.3-15.7,1.9-11.8,1.5-23.6,3-35.4,4.6-11.6,1.5-23.2,3-34.9,4.5-10,1.2-20,2.4-30,3.5Z"/>
  <path class="cls-96" d="M1042.6,428.5c12.1-5.5,24.2-10.4,36.2-15.6,14-6,27.9-12.3,41.9-18.3,1.8-.8,3.8-1,6.1-1.5,1.4,17.1,2.4,34.1,2.9,51.6-1.3.5-2.1.5-2.9.8-18.4,8-36.7,16.1-55.1,24-8.6,3.7-17.4,7.1-26.1,10.6-1-17-2-34.1-3-51.6Z"/>
  <path class="cls-58" d="M779.4,182.7c-10.5,2-21,3.8-31.6,5.3-11.6,1.6-23.3,2.9-34.9,4.4-12,1.5-23.9,3.1-35.9,4.6-11.6,1.5-23.2,3.2-34.9,4.6-6.7.8-13.4,1-20.5,1.4,7.9-15.8,20.4-27.3,36.6-34.2,32.9-14.2,66.3-16,99.5-1.3,7.9,3.5,14.4,9.9,21.7,15.2Z"/>
  <path class="cls-4" d="M1119.3,248.6c-7.9,3.4-15.9,6.1-23.6,9.4-20.2,8.5-40.2,17.3-60.7,26-1.6-20.5-2.8-41-4-62.1,29.2-1.6,57.6-3.2,86.5-4.8.6,10.7,1.2,20.9,1.8,31.6Z"/>
  <path class="cls-26" d="M928.6,478.5c-6.4,2.8-12.8,4.9-19,7.5-16.2,6.8-32.3,13.9-48.8,21-5.3-15-10.3-30.1-14.8-45.6,18-8.2,35.6-16,53.3-23.6,6.4-2.8,12.9-5.1,19.3-7.7,3.4,16,6.7,32.1,10,48.5Z"/>
  <path class="cls-119" d="M610.5,241.5c10.1-1.5,20.1-2.5,30.1-3.7,11.9-1.5,23.9-3.1,35.8-4.8,1.6-.2,3.1-.9,5.3-1.6,14.1-.9,27.6-1.5,41-2.4,1.1,0,2.1-1.3,3.1-2,15-2,30-4,44.9-6,9.3-1.3,18.5-2.6,28.2-4,1.7,5.7,2.9,11.5,3.9,17.7-11.7,2.1-23.2,3.8-34.6,5.3-14.3,1.8-28.5,3.4-42.8,5.2-14.4,1.8-28.8,3.9-43.2,5.8-12.3,1.6-24.5,3.3-36.8,4.8-11.5,1.4-23,2.8-34.4,4.2-.2-6-.4-12-.5-18.5Z"/>
  <path class="cls-5" d="M874.5,551.4c8-3.6,16.1-6.5,24-9.9,25.1-10.8,50.2-21.8,75.3-32.7,8.7-3.7,17.4-7.2,26.6-10.8-3.1,17.4-6.6,34.9-10.1,52.6-4.8.4-9.4.8-14,1.1-31.6,1.8-63.2,3.4-94.7,5.3-4.3.3-6.5-1-7-5.6Z"/>
  <path class="cls-13" d="M1010.5,238c1.7,4.7,3.4,9.5,4.7,14.6-7.7,1.4-15.1,2.4-22.4,3.4-12.1,1.6-24.1,3.3-36.2,4.8-9,1.1-18,2.1-27.2,2.9-4.3-7.2-8.4-9.2-15.3-7.8-6.2,1.3-9.8,5.6-10.8,13.2-.2,1.3-.3,2.6-.9,4-7,.7-13.6,1.2-20.1,2-11.6,1.4-23.3,3-34.9,4.5-10.3,1.3-20.7,2.4-31,3.5.4-7.3.8-14.7,1.6-22,3.3.2,6.3.8,9.1.5,6.6-.6,13.1-1.7,19.7-2.5,11.6-1.4,23.3-2.8,34.9-4.3,14.4-1.9,28.8-3.9,43.2-5.7,11.5-1.5,23-2.7,34.4-4.2,17-2.2,34-4.5,51.1-6.8Z"/>
  <path class="cls-53" d="M1010.5,237.6c-17,2.6-34,5-51,7.2-11.5,1.5-23,2.7-34.4,4.2-14.4,1.8-28.8,3.9-43.2,5.7-11.6,1.5-23.3,2.8-34.9,4.3-6.6.8-13.1,1.9-19.7,2.5-2.8.3-5.8-.3-8.9-.9,1.1-5.6,2.6-10.8,4.6-16.3,9.9-1.3,19.1-2.2,28.2-3.3,14.4-1.7,28.9-3.3,43.3-5.2,16.5-2.1,33-4.6,49.6-6.8,14.4-1.9,28.9-3.4,43.3-5.2,4.2-.5,8.2-1.9,12.3-2.9,3.6,5.5,7.3,10.9,10.9,16.8Z"/>
  <path class="cls-90" d="M918.6,429.6c-6.5,3-13,5.4-19.4,8.1-17.7,7.7-35.3,15.5-53.3,23.3-4.4-12.4-8.4-24.8-12.1-37.6,19.8-8.7,39.2-17.1,58.6-25.4,6.1-2.6,12.3-4.8,18.4-7.2,2.6,12.8,5.1,25.5,7.7,38.7Z"/>
  <path class="cls-91" d="M611,260.4c11.5-1.8,23-3.1,34.5-4.5,12.3-1.5,24.6-3.2,36.8-4.8,14.4-1.9,28.8-4,43.2-5.8,14.3-1.8,28.5-3.4,42.8-5.2,11.5-1.5,22.9-3.2,34.7-4.9,1,7,1.5,14.1,2.1,21.4-7.3.5-13.5.9-19.8,1.3-32.4,1.8-64.8,3.5-97.2,5.3-1.2,0-2.3,1.3-3.9,2.4-2.2.5-4.1.5-5.9.7-12.3,1.6-24.5,3.1-36.7,4.8-9.3,1.3-18.6,2.6-27.9,4-.9-4.7-1.9-9.5-2.7-14.6Z"/>
  <path class="cls-27" d="M999.4,220.6c-4,1.3-8,2.7-12.2,3.2-14.4,1.9-28.9,3.4-43.3,5.2-16.5,2.1-33,4.6-49.6,6.8-14.4,1.9-28.9,3.5-43.3,5.2-9.2,1.1-18.4,2-28,3,3.3-6.6,6.9-13.3,11.2-19.8,1.3.4,2.1.8,2.9.7,8.4-1,16.7-2,25.1-3.1,16.5-2.2,33-4.7,49.5-6.8,19.7-2.5,39.3-4.7,59-7.2,4-.5,7.9-2,11.8-3,5.6,5.1,11.1,10.3,16.8,15.7Z"/>
  <path class="cls-33" d="M515.5,342c.7.5,1.3,1,2.6,1.3,7-.9,13.4-1.5,19.8-2.3,11.6-1.5,23.2-3.1,34.9-4.6,9.8-1.2,19.7-2.3,29.5-3.4.2,2.7.3,5.4,0,8.5-6.1.9-11.8,1.2-17.4,1.9-12,1.4-23.9,3.2-35.9,4.6-10.4,1.3-20.9,2.1-31.4,3.5-13.3,1.7-26.5,3.5-39.7,5.7-3.4.6-8-1-10,3.8l-1.1-2.6c-.3,0-.5,0-.8,0,.4,3,.7,5.9.6,9.2-11.7,1.8-23,3.1-34.3,4.6-17,2.2-33.9,4.5-50.9,6.8-.4-6.4-.8-12.7-.7-19.5,7.4-1.2,14.3-1.7,21.2-2.6,19.1-2.5,38.2-5.3,57.3-7.8,18.6-2.4,37.3-4.7,56-7.1Z"/>
  <path class="cls-23" d="M982.4,204.6c-3.7,1.3-7.6,2.8-11.6,3.3-19.6,2.5-39.3,4.7-59,7.2-16.5,2.1-33,4.6-49.5,6.8-8.3,1.1-16.7,2.1-25.1,3.1-.8,0-1.6-.4-2.6-.9,7-10.5,16.7-17.8,27.8-23,31.9-14.9,65-17,98.7-6.8,7.4,2.3,14.1,6.6,21.3,10.3Z"/>
  <path class="cls-36" d="M509.5,265c-.8-11.2-1.6-22.5-2.4-34.4,30.1-1.7,59.6-3.3,89.5-4.9.6,9.6,1.1,18.5,1.2,27.9-7.6,1.4-14.8,2.5-22,3.4-11.8,1.5-23.5,3.1-35.3,4.5-10.3,1.2-20.6,2.3-31,3.5Z"/>
  <path class="cls-2" d="M1011.9,317.1c-3.9,6.5-7.9,13.1-12.5,19.6-5.7.3-10.8.3-15.8.8-11.6,1.3-23.2,3-34.8,4.5-11.6,1.5-23.2,2.9-34.9,4.4-11.9,1.5-23.9,3-35.8,4.7-7.6,1.1-15.2,2.7-22.8,4.1-5.9-4.8-11.7-9.6-17.3-14.8,1.6-.7,2.8-1.1,4.1-1.3,8.7-1.2,17.3-2.2,26-3.4,11.6-1.5,23.2-3.1,34.8-4.6,11.6-1.5,23.3-2.8,34.9-4.3,11.6-1.5,23.2-3.2,34.8-4.7,13.1-1.7,26.2-3.3,39.3-4.9Z"/>
  <path class="cls-127" d="M1045.5,480.5c8.8-4,17.6-7.4,26.2-11.1,18.4-7.9,36.7-16,55.1-24,.7-.3,1.6-.3,2.8-.4,1.3,15.4,2.2,30.7,3.2,46.5-29.1,1.6-57.6,3.2-86.6,4.8-.3-5.5-.5-10.5-.7-15.9Z"/>
  <path class="cls-20" d="M1019.2,283c-.3,4.1-.6,8.3-1.6,12.8-1.8.6-2.9,1-4,1.2-14.4,1.7-28.9,3.3-43.2,5.1-21.9,2.8-43.8,6-65.7,8.8-22.1,2.8-44.2,5.4-66.3,8.2-4.3.6-8.6,1.9-12.8,2.9-2-5.1-3.9-10.2-5.5-15.7,5.3-1.1,10.2-1.8,15.1-2.4,18-2.3,36.1-4.5,54-7,5.3-.7,10.4-2.3,15.9-3.2,3.8,8.3,7.5,10.8,14.8,10.4,6.5-.4,9.2-5,12-10.1,7.9-1,15.5-2,23-3,11.6-1.5,23.2-3.1,34.9-4.5,9.8-1.2,19.7-2.3,29.5-3.5Z"/>
  <path class="cls-96" d="M1310.3,330c.9,16,1.8,32,2.7,48.7-24.6,1.4-48.9,2.8-74,4.2-.3-7.4-.6-14.7-.5-22.4,16.5-7.5,32.6-14.5,48.7-21.4,7.6-3.2,15.3-6.1,23-9.1Z"/>
  <path class="cls-132" d="M855.5,355.4c7.4-1.6,15-3.2,22.6-4.3,11.9-1.7,23.9-3.2,35.8-4.7,11.6-1.5,23.2-2.9,34.9-4.4,11.6-1.5,23.2-3.1,34.8-4.5,5-.6,10.1-.6,15.5-.7-11,14.4-26.2,22.8-43.2,27.6-27.5,7.8-55.2,8.5-82.6-.6-6.1-2-11.7-5.4-17.8-8.5Z"/>
  <path class="cls-122" d="M376.5,282.5c10.1-1.6,20.1-2.8,30.1-4,11.6-1.4,23.3-3,34.9-4.5,11.8-1.5,23.6-3.1,35.4-4.6,5.1-.6,10.2-1,15.8-1.5,2.3,6.4,4.2,12.8,5.6,19.6-7.3,1.3-14.1,2.2-21,3.1-11.6,1.5-23.2,2.9-34.8,4.4-11.6,1.5-23.2,3-34.8,4.5-10,1.2-20,2.4-29.9,3.5-.4-6.7-.8-13.4-1.2-20.5Z"/>
  <path class="cls-25" d="M659.4,330.3c-7.5-4.9-15-9.8-22.3-15,6.5-1.3,12.6-2.4,18.8-3.2,12.1-1.7,24.2-3.3,36.3-4.8,11.6-1.5,23.3-2.8,34.9-4.2,11.5-1.4,22.9-3.1,34.4-4.5,12.6-1.6,25.3-3,37.9-4.5-4,6.4-8,12.9-12.5,19.2-2.4-.4-4.3-.9-6.1-.7-3.9.3-7.8,1.1-11.8,1.5-11.6,1.4-23.3,2.8-34.9,4.3-11.6,1.5-23.2,3.2-34.8,4.7-11.6,1.5-23.3,2.7-34.9,4.3-1.8.2-3.4,1.9-5,3Z"/>
  <path class="cls-129" d="M1128.8,137.3c-2.8-2.6-5.6-5.2-7.9-7.3,17.8-17.8,35.3-35.4,53.4-53.5,12.1,12.2,24.7,25,37.1,38.1-7.7,2-15.2,3.7-23.1,5.3-10.2,0-19.9,0-30.4,0,1.8,3.3,3.2,5.7,4.2,8.1-11.3,3.1-22.2,6.2-33.2,9.3Z"/>
  <path class="cls-115" d="M606.1,398.6c-10.2,1.6-20.4,2.6-30.6,3.9-11.6,1.4-23.2,3-34.8,4.5-11.6,1.5-23.2,2.9-34.9,4.4-6.9.9-13.7,1.8-21,2.7-2.1-5.4-3.9-10.8-5.2-16.6,3.4-.8,6.3-1.1,9.3-1.5,11.6-1.4,23.2-2.8,34.8-4.3,14.2-1.8,28.4-3.8,42.6-5.7,12.9-1.7,25.8-3.3,38.7-5,.4,5.7.8,11.5,1.1,17.6Z"/>
  <path class="cls-55" d="M515.6,341.6c-18.7,2.7-37.4,5-56,7.5-19.1,2.5-38.2,5.3-57.3,7.8-6.9.9-13.8,1.4-21.1,2.2-.8-5-1.1-10.1-1-15.6,8.3-1.4,16.2-2.5,24-3.4,14.4-1.7,28.9-3.4,43.3-5.2,14.7-1.9,29.4-3.8,44.1-5.9,6.5-.9,13-2.1,19.5-3.2,1.5,5.1,3,10.3,4.5,15.8Z"/>
  <path class="cls-99" d="M799.6,293.7c-12.8,1.8-25.4,3.3-38,4.8-11.5,1.4-22.9,3.1-34.4,4.5-11.6,1.5-23.3,2.8-34.9,4.2-12.1,1.5-24.2,3.1-36.3,4.8-6.2.9-12.4,1.9-19,2.9-3.7-3.7-7.1-7.5-10-11.6,2-.4,3.7-.3,5.3-.5,12.3-1.6,24.6-3.3,36.8-4.9,11.3-1.5,22.6-2.9,33.9-4.3,12-1.5,23.9-3.1,35.9-4.7,11.6-1.5,23.2-3.1,34.9-4.6,9.8-1.2,19.7-2.3,29.5-3.4-1.2,4.1-2.3,8.2-3.7,12.7Z"/>
  <path class="cls-21" d="M1310.4,329.6c-7.7,3.5-15.4,6.3-23,9.6-16.1,6.9-32.2,13.9-48.7,20.9-1-9.3-1.6-18.7-2.1-28.6,4.5-2.1,9.1-3.4,13.5-5.3,19.3-8.3,38.5-16.7,58.1-25.1,1,9.3,1.6,18.7,2.2,28.5Z"/>
  <path class="cls-123" d="M472.4,413.6c-14.6,2.4-29.2,4.4-43.7,6.2-14.4,1.8-28.9,3.5-43.7,5.2-1-7.7-1.6-15.4-1.6-23.6,4.6-.8,8.8-1,12.9-1.4,11.5-1.3,23-2.7,34.4-4.2,13.1-1.6,26.2-3.3,39.3-4.9.9,7.4,1.7,14.9,2.5,22.7Z"/>
  <path class="cls-56" d="M1188.7,120c7.5-1.7,14.9-3.3,22.8-5,4.9,4.8,9.4,9.7,14.4,15.1-4.9,4.8-10.4,10.3-16.5,15.7-1.6,0-2.6-.1-3.4,0-18.2,4.7-36.3,9.5-54.5,14.3-7.4-7.4-14.9-14.7-22.5-22.4,10.8-3.4,21.7-6.5,33.3-9.4,4,5.4,7.4,10.6,11.3,16.5,5.4-8.8,10.3-16.8,15.2-24.8Z"/>
  <path class="cls-45" d="M1504.3,327c-.9,4.7-1.7,9.4-2.6,13.8.8,1.7,2.4,3.5,2.7,5.6.9,6.2,1.2,12.5,1.8,19.3-24.1,2-47.9,4.1-72.3,6.1-.5-5.8-1-11.4-1-17.4,3.2-1.5,6-2.5,8.7-3.5,9.9-3.6,19.8-7.3,30-10.7,7.8,1.8,10.9.2,10.8-5.1,7.5-2.7,14.7-5.4,21.8-8.1Z"/>
  <path class="cls-88" d="M469.9,390.4c-13.1,2.1-26.2,3.8-39.3,5.4-11.5,1.4-22.9,2.8-34.4,4.2-4.1.5-8.2.7-12.8,1-.9-7-1.3-14.1-1.7-21.6,17-2.7,34-5,50.9-7.3,11.3-1.5,22.5-2.8,34.2-4.2,1.3,7.3,2.2,14.7,3,22.4Z"/>
  <path class="cls-15" d="M1012.1,316.8c-13.3,1.9-26.4,3.5-39.5,5.2-11.6,1.5-23.2,3.2-34.8,4.7-11.6,1.5-23.3,2.8-34.9,4.3-11.6,1.5-23.2,3.1-34.8,4.6-8.7,1.1-17.3,2.2-26,3.4-1.3.2-2.6.6-4.3.9-2.9-3.1-5.4-6.2-7.6-9.7,5.5-1.1,10.7-2,15.9-2.7,11.6-1.6,23.2-3.1,34.8-4.6,11.9-1.6,23.9-3.1,35.8-4.6,11.6-1.5,23.3-2.9,34.9-4.4,11.6-1.5,23.2-3.1,34.9-4.5,9.7-1.2,19.3-2.3,29-3.4-1.1,3.5-2.2,7-3.5,10.8Z"/>
  <path class="cls-102" d="M904.8,293.8c-5.2,1.3-10.4,2.9-15.6,3.7-18,2.6-36,4.9-54,7.4-4.9.7-9.8,1.4-15.1,2.2-1.5-7.7-2.6-15.5-3.6-23.8,10.4-1.7,20.8-2.9,31.1-4.2,11.6-1.5,23.3-3.2,34.9-4.7,6.6-.8,13.1-1.4,20.2-1.7,1.1,7.3,1.6,14.2,2.2,21.2Z"/>
  <path class="cls-50" d="M377.6,303.5c10-1.6,20-2.7,30-4,11.6-1.4,23.2-3,34.8-4.5,11.6-1.5,23.2-2.9,34.8-4.4,6.9-.9,13.7-1.8,21-2.6,2.2,4.7,4,9.4,5.4,14.5-8.9,1.4-17.4,2.4-25.9,3.5-11.6,1.4-23.2,2.9-34.8,4.4-11.8,1.5-23.5,3-35.3,4.6-9.6,1.3-19.3,2.7-28.9,4-.4-5-.7-10.1-1-15.5Z"/>
  <path class="cls-125" d="M910.9,390.4c-6.1,2.8-12.3,5-18.4,7.6-19.4,8.2-38.8,16.6-58.6,25-4.2-11.4-8-22.9-12.2-35.3,29.7-1.6,58.6-3.2,87.8-4.9.5,2.7.9,5,1.4,7.6Z"/>
  <path class="cls-100" d="M659.7,330.5c1.4-1.3,3-3,4.8-3.2,11.6-1.6,23.3-2.8,34.9-4.3,11.6-1.5,23.2-3.2,34.8-4.7,11.6-1.5,23.3-2.8,34.9-4.3,3.9-.5,7.8-1.2,11.8-1.5,1.9-.2,3.8.4,5.9,1-10.3,11.6-23.8,17.5-38.3,21-24.3,5.9-48.9,7.8-73.4,1.5-5.1-1.3-10-3.4-15.3-5.4Z"/>
  <path class="cls-42" d="M605.1,380.6c-13,2.1-25.9,3.7-38.8,5.4-14.2,1.9-28.4,3.9-42.6,5.7-11.6,1.5-23.2,2.8-34.8,4.3-2.9.4-5.9.7-9.3,1.1-2-4.4-3.4-8.9-4.5-13.7,2.8-.4,5.1-.3,7.4-.6,12.1-1.5,24.2-3.2,36.3-4.8,11.5-1.5,23-2.7,34.4-4.2,17-2.2,34-4.6,51-6.8.3,4.4.6,8.8.8,13.6Z"/>
  <path class="cls-111" d="M1015.9,305.8c-9.9,1.4-19.6,2.5-29.2,3.7-11.6,1.5-23.2,3-34.9,4.5-11.6,1.5-23.3,2.9-34.9,4.4-11.9,1.5-23.9,3.1-35.8,4.6-11.6,1.5-23.2,3-34.8,4.6-5.2.7-10.4,1.6-16,2.4-1.8-2.4-3.2-4.9-4.7-7.6,4.2-1.3,8.5-2.7,12.8-3.2,22.1-2.8,44.2-5.3,66.3-8.2,21.9-2.8,43.8-6,65.7-8.8,14.4-1.9,28.8-3.4,43.2-5.1,1.1-.1,2.2-.5,3.8-.8-.1,3.1-.7,6.2-1.5,9.6Z"/>
  <path class="cls-95" d="M510.9,325.4c-6.4,1.5-12.9,2.7-19.4,3.6-14.7,2-29.4,4-44.1,5.9-14.4,1.8-28.8,3.4-43.3,5.2-7.9,1-15.7,2-24,3-.7-4.1-1-8.1-.8-12.6,10-1.5,19.5-2.7,29-3.9,11.8-1.5,23.5-3,35.3-4.5,11.6-1.5,23.2-3,34.8-4.5,9.6-1.2,19.3-2.4,29-3.5,1.1,3.7,2.3,7.3,3.5,11.4Z"/>
  <path class="cls-27" d="M509.4,265.5c10.4-1.6,20.7-2.7,31-4,11.8-1.4,23.6-3,35.3-4.5,7.2-.9,14.4-2,21.9-3,.8,6,1.2,12.1,1.1,18.6-8.2,1.4-15.9,2.4-23.5,3.4-11.9,1.6-23.9,3.3-35.8,4.8-9.5,1.2-19,2.1-28.6,3.2-.5-6-1-12.1-1.5-18.5Z"/>
  <path class="cls-6" d="M1504.4,326.6c-7.2,3.1-14.3,5.7-22.2,8.3-2.6-.4-4.6-1-6.5-.9-3.8.1-6,1.8-4.3,6-9.9,3.6-19.8,7.2-29.7,10.9-2.8,1-5.6,2.1-8.7,3.1-.7-3.1-1-6.2-1.4-9.8,6.9-.7,13.6-1.3,20.5-2-9.2-14.2-3.6-29.8,12.3-34.2,6-1.6,12.5-2.1,18.7-1.8,11.9.7,18.9,7.8,21.3,20.4Z"/>
  <path class="cls-11" d="M604.4,366.6c-17.1,2.7-34.1,5.1-51.1,7.3-11.5,1.5-23,2.7-34.4,4.2-12.1,1.5-24.2,3.2-36.3,4.8-2.3.3-4.6.2-7.4.2-1.5-3.4-2.5-6.8-3-10.6,10.1-1.5,19.7-2.7,29.4-3.9,11.6-1.5,23.2-3,34.8-4.5,11.8-1.5,23.5-3.1,35.3-4.5,10.6-1.3,21.3-2.3,31.9-3.5.3,3.4.6,6.8.9,10.6Z"/>
  <path class="cls-70" d="M803.4,280.6c-10,1.5-19.8,2.6-29.6,3.8-11.6,1.5-23.2,3.1-34.9,4.6-12,1.6-23.9,3.1-35.9,4.7-11.3,1.5-22.6,2.9-33.9,4.3-12.3,1.6-24.6,3.3-36.8,4.9-1.6.2-3.3.1-5.4.2-1.8-2-3.1-4-4.3-6.6,11.3-2.2,22.4-3.9,33.5-5.4,11.6-1.5,23.3-2.8,34.9-4.3,11.6-1.5,23.2-3.2,34.8-4.7,11.6-1.5,23.3-2.8,34.9-4.3,14.6-1.9,29.1-3.8,43.7-5.8-.3,2.7-.6,5.5-1,8.6Z"/>
  <path class="cls-35" d="M1222.1,531.1c-3.6-5.5-7.1-10.9-10.3-16.7,13.3-.4,26.2-.3,39.2-.5,1.9,0,3.7-1.3,5.6-2.1,2.7,3.8,5.3,7.5,8.8,12.4,0-4.6,0-8,.5-11.8,13.1-.5,25.7-.5,38.2-.5,0,6,.1,12-.4,18.5-9.7.5-19,.4-28.2.5-1.7,0-3.4.6-5.4.8-1.5-1.9-2.7-3.6-4.4-6-.2,2.4-.2,3.8-.8,5.2-14.6,0-28.7,0-42.8.1Z"/>
  <path class="cls-110" d="M1469.5,244.1c5.4-1.3,10.8-2.7,16.9-4.1,3.4,8.2,7,16.6,10.7,25.4-5.4,2.8-10.3,5.4-15.8,8.4-2.3,1.3-4.1,3-6,3.1-10.1.7-18.6,5.8-27.8,9.3-1.5-3.3-3-6.5-4.7-10.2,5.4-2.8,10.4-5.3,15.3-7.9-.1-.4-.3-.8-.4-1.2-5.3,1.7-10.5,3.3-16.3,5.2-1.6-3.7-3.2-7.5-4.4-11.7,11.4-5.1,23.2-8.2,32.6-16.1Z"/>
  <path class="cls-103" d="M1302.9,89.9c1.9,1.8,3.9,3.6,6.1,5.7-6.2,6.3-12.2,12.4-18.9,18.5-1.9,0-3.2-.2-4.2,0-15.5,4-31,8-46.4,12.1-1.2.3-2,1.9-3,2.8-6.2-6.1-12.5-12.3-18.8-19.1,7.2-4.9,15.1-6.7,23.3-6.4,1.1.8,2.4,1.4,3.7,1.4,8.8,0,17.7,0,27,0-1.4-2.6-2.3-4.3-2.9-6.1,11.6-3.1,22.8-6.1,34.1-9.1Z"/>
  <path class="cls-73" d="M507.4,313.6c-9.7,1.6-19.3,2.7-29,3.9-11.6,1.5-23.2,3-34.8,4.5-11.8,1.5-23.5,3.1-35.3,4.5-9.5,1.2-19,2.3-28.9,3.5-.6-3.4-.8-6.7-1-10.6,9.7-1.8,19.3-3.2,29-4.4,11.8-1.6,23.5-3.1,35.3-4.6,11.6-1.5,23.2-3,34.8-4.4,8.5-1.1,17-2.1,26-3.1,1.6,3.4,2.7,6.9,3.8,10.7Z"/>
  <path class="cls-129" d="M1241.1,103.2c-8.3.1-16.2,1.9-23.6,6.5-4.5-4.5-9-9.3-14.1-14.9,3.4-3.2,7.3-7,11.9-10.8,2.4-.2,4.1,0,5.7-.4,15.2-3.9,30.5-7.7,45.6-11.9,4.5-1.2,8.7-3.4,13-5.1,4,3.9,7.9,7.7,11.7,12-3.9,1.4-7.6,2.3-11.2,3.4-6.2,2-12.4,4-18.9,5.9-1.8-2.5-3.4-4.7-5.2-7.4-5.2,7.9-10,15.3-14.9,22.6Z"/>
  <path class="cls-77" d="M1155.5,546c0-11.7,0-23.4.4-35.5,13.1-.5,25.6-.4,38.2-.4,0,11.7.1,23.4-.3,35.5-13.1.5-25.7.5-38.2.5Z"/>
  <path class="cls-38" d="M804.5,271.6c-14.7,2.4-29.2,4.3-43.8,6.2-11.6,1.5-23.3,2.8-34.9,4.3-11.6,1.5-23.2,3.2-34.8,4.7-11.6,1.5-23.3,2.8-34.9,4.3-11.1,1.5-22.2,3.1-33.5,5-1.8-2.6-3.3-5.5-4.4-8.7,4.5-1,8.5-1.7,12.6-2.3,20.8-2.8,41.6-5.5,62.4-8.2.8.3,1.6.5,2.3.8,12,5.7,22.6,2.8,33.4-4.1,4.2-2.7,10.7-2.3,16.2-2.8,9-.8,18-1.2,27-1.7,9.6-.5,19.2-1,28.7-1.3,2,0,4.7-.2,3.7,3.8Z"/>
  <path class="cls-137" d="M1292.5,124c5-5.1,9.9-10.3,15.1-15.2,1.1-1,2.9-1.7,4.4-1.7,23.7-.1,47.3,0,72.7,0-5.8,5.8-10.8,10.7-16.4,15.8-11.9,1.1-23,2.5-34.2,3-12.6.5-25.2.2-37.8.1-1.2,0-2.4-1.3-3.7-1.9Z"/>
  <path class="cls-76" d="M510.8,284.4c9.6-1.5,19.1-2.4,28.6-3.6,12-1.5,23.9-3.2,35.8-4.8,7.7-1,15.4-2,23.5-3,.7,5,1,10,.7,15.5-6.6,1.2-12.6,1.8-18.7,2.5-11.9,1.5-23.8,3.2-35.7,4.6-10.8,1.3-21.6,2.3-32.4,3.4-.6-4.7-1.3-9.5-1.9-14.6Z"/>
  <path class="cls-114" d="M1019.3,282.6c-9.9,1.6-19.8,2.7-29.6,3.9-11.6,1.4-23.2,3-34.9,4.5-7.5,1-15,2-23,2.5,0-5.5.4-10.5,1.2-15.5,4.9-.4,9.3-.7,13.8-1.3,14.4-1.9,28.8-3.8,43.2-5.7,9.5-1.3,18.9-2.7,28.4-4,.3,5,.7,10.1.9,15.6Z"/>
  <path class="cls-99" d="M600.6,303c.3,4.7.7,9.4.5,14.6-5,1.1-9.6,1.9-14.1,2.4-11.6,1.5-23.2,2.8-34.8,4.3-11.9,1.5-23.8,3.1-35.7,4.7-.7-4.7-1.3-9.4-1.5-14.6,7.8-1.4,15.1-2.5,22.5-3.4,11.7-1.5,23.5-3.1,35.2-4.6,9.3-1.2,18.6-2.3,27.9-3.5Z"/>
  <path class="cls-37" d="M472.2,160.9c1.2-1.7,2.4-3.5,4.1-5.8-13.4,1.7-26.3,3.3-39.6,4.9-.7-4.9-1.3-9.5-2-14.5,9.4-1.3,18.5-2.5,27.6-3.7-.4-4.3-.7-8.2-1.1-12.5,5.2-.7,9.9-1.3,15.1-1.9.6,4.1,1.2,8,1.9,12.4,8.1-1,16.1-1.9,24.5-2.9-.5,8-2.9,14.7-7.7,21.1-2.4.3-4,.4-5.6.6-5.7.7-11.4,1.5-17.1,2.3Z"/>
  <path class="cls-72" d="M598.2,161c-.2,2.6-.3,5.2-.5,7.9h-18.5c-.3,5.7-.6,11.4-1.4,17.6-5.3,1.1-10,1.8-14.8,2.4v-9.6c-12.9,9.3-26.1,18.9-39.7,28.7-4.3-4.7-7.8-8.7-11.8-13.2,15.2-6.8,28.4-15.6,40.7-26.9,3-.3,5.3-.4,7.6-.7,12.8-2.1,25.6-4.2,38.3-6.3Z"/>
  <path class="cls-52" d="M1155.4,546.5c12.6-.5,25.2-.5,38.2-.5.5,16.7.6,33.4.4,50.6-.3.5-.7.6-.7.6-12.2-12.1-24.5-24-36.5-36.3-1.3-1.4-1.3-4.2-1.5-6.4-.2-2.5,0-5,0-8Z"/>
  <path class="cls-8" d="M1469.6,243.7c-9.5,8.3-21.3,11.4-32.7,16.1-2.5-4.8-4.9-9.8-6.8-14.9-.4-1.1.4-3.6,1.4-4.3,14.1-9.7,28.3-19.2,43-29.1,3.4,8.1,6.7,15.8,10.2,24.2-5,2.6-10,5.1-15.1,8Z"/>
  <path class="cls-49" d="M1447.4,286.4c9.1-3.8,17.6-9,27.7-9.6,1.9-.1,3.7-1.8,5.9-2.8,4.7-1.1,9.1-2,13.2-3.5,3.1-1.1,4.8-.8,6,2.5,2.5,6.6,5.4,13.1,8.3,20.2-18.1,3.7-35.8,7.3-53.9,11-2.5-6-4.9-11.8-7.3-17.9Z"/>
  <path class="cls-80" d="M1018.4,266.6c-9.5,1.7-19,3.1-28.5,4.4-14.4,2-28.8,3.9-43.2,5.7-4.4.6-8.9.9-13.9.9-1.5-4.8-2.3-9.2-3.2-13.6,9-1.1,18-2.1,27-3.2,12.1-1.5,24.1-3.2,36.2-4.8,7.3-1,14.7-2,22.4-3,1.4,4.4,2.3,8.8,3.2,13.6Z"/>
  <path class="cls-38" d="M600.6,302.5c-9.4,1.6-18.7,2.7-28,3.9-11.8,1.5-23.5,3-35.2,4.6-7.3,1-14.7,2-22.4,3-1.1-4.7-1.7-9.4-2.4-14.6,10.8-1.5,21.7-2.5,32.4-3.8,11.9-1.4,23.8-3.1,35.7-4.6,6-.8,12.1-1.4,18.6-2.1.7,4.4,1,8.8,1.2,13.6Z"/>
  <path class="cls-136" d="M598.3,160.6c-12.9,2.5-25.6,4.7-38.4,6.7-2.3.4-4.6.4-7.3.6-4-.6-7.5-1.5-11-1.7-7.5-.6-14.9-.9-22.6-1.3v-14.7c15.3.9,30,1.7,45.5,2.6v-14.7c1.1-.6,1.3-.9,1.6-1q13.6-.6,13.5,12.7c0,1.1.1,2.3.2,3.7,6.2.4,12.3.8,18.6,1.3,0,2.1,0,3.7,0,5.7Z"/>
  <path class="cls-25" d="M516.4,329.4c11.9-2,23.8-3.6,35.8-5.2,11.6-1.5,23.2-2.8,34.8-4.3,4.6-.6,9.1-1.3,14.1-2,.8,4.7,1.1,9.4,1.4,14.5-9.9,1.6-19.8,2.6-29.6,3.9-11.6,1.5-23.2,3.1-34.9,4.6-6.4.8-12.8,1.4-19.7,2-.9-4.4-1.4-8.7-1.9-13.6Z"/>
  <path class="cls-128" d="M1194.1,509.6c-12.7.4-25.2.4-38.2.4-.5-10-.6-20,0-30.5,10.9-.5,21.3-.5,32-.3,2.3,2.7,4.3,5.3,6.4,8.2.2.8.3,1.2.3,1.7,0,6.7-.2,13.4-.4,20.6Z"/>
  <path class="cls-121" d="M1194.8,489.2c-.3-.6-.4-1.1-.5-2.3,0-7.1.2-13.5.7-19.8,10.8-.3,21.1-.6,31.4-1,6.1,9.1,12.1,18.1,17.8,27.6-2.6.7-4.9,1.3-7.1,1.3-12.7.1-25.4.1-38.1.2-1.3-1.9-2.7-3.8-4.2-6Z"/>
  <path class="cls-92" d="M1292.2,124.2c1.5.5,2.7,1.7,3.9,1.8,12.6.1,25.2.4,37.8-.1,11.2-.5,22.3-1.8,33.9-2.8-4.7,5.2-9.8,10.4-15.6,15.7-1.9-.2-3.2-.6-4.5-.6-7.9.3-15.8.6-23.7,1-5.3.3-10.5.7-16.1,1-3.5-2.1-6.6-4.1-10.3-6.5-.2,3.3-.4,5.9-1,8.5-7.2-.4-14-.8-20.8-1.2,5.4-5.5,10.7-10.9,16.4-16.6Z"/>
  <path class="cls-133" d="M1279.5,66.4c-4.2,2-8.4,4.2-12.8,5.4-15.2,4.2-30.4,8-45.6,11.9-1.6.4-3.3.2-5.4.3,13.3-13.4,27.1-26.8,41.1-40.4,7.2,7.1,14.9,14.8,22.8,22.8Z"/>
  <path class="cls-117" d="M1304.1,459c0,8.7.1,17.4-.4,26.5-13.1.5-25.7.5-38.3.5,0-8.7-.1-17.4.4-26.5,13.1-.5,25.7-.5,38.2-.5Z"/>
  <path class="cls-87" d="M603.6,355.6c-10.7,1.6-21.4,2.7-32,3.9-11.8,1.4-23.5,3-35.3,4.5-11.6,1.5-23.2,3-34.8,4.5-9.6,1.2-19.3,2.3-29.4,3.5-1.1-2.1-1.8-4.2-2.1-6.7,1.9-.7,3.3-1.1,4.8-1.3,9.2-1.2,18.3-2.3,27.5-3.4,11.8-1.5,23.5-3.1,35.3-4.6,11.8-1.5,23.5-3.1,35.3-4.6,10.1-1.2,20.3-2.3,30.5-3.4.1,2.4.3,4.7.3,7.6Z"/>
  <path class="cls-63" d="M471.9,161c6-.9,11.7-1.7,17.4-2.4,1.6-.2,3.3-.3,5.4-.4-2.7,3.6-5.7,7.4-9.2,10.5-2.8,2.4-3.5,4.8-3,8.2.6,3.4.8,6.9.7,10.8-5.2,1.1-9.9,1.8-14.5,2.5-.3-1.6-.6-3.2-1.1-5.4-8.4,5.1-16.3,9.9-24.6,15-3.7-4.3-7.2-8.3-11.2-12.9,14.9-6.5,28.4-14.3,40-25.7Z"/>
  <path class="cls-12" d="M1265.4,486.5c12.7-.5,25.2-.5,38.3-.5.5,8.4.6,16.7.5,25.5-12.6.5-25.2.5-38.2.5-.5-8.4-.6-16.7-.5-25.5Z"/>
  <path class="cls-134" d="M1194.5,467c0,6.4-.2,12.7-.3,19.5-2.1-2.1-4.1-4.7-6.4-7.7-7.3-11.6-14.3-22.6-21.3-33.7,9.2-9.3,18.3-18.5,27.7-27.1.2,16.8.3,32.9.4,49Z"/>
  <path class="cls-66" d="M1134.6,103c-4.7,4.7-9.4,9.5-14.3,14-.9.8-2.7.6-4.5.4-1.6-1.3-2.5-2.6-3.8-3.1-8.7-3.6-17.6-6.7-26.3-10.5-6-2.6-11.6-6-17.4-9.1,4.4-4.5,8.9-9.1,13.9-13.6,5.2,2,9.8,3.9,14.4,6.2,7.5,5.6,15,10.8,23.1,16.5.3-2.4.5-3.7,1.1-4.9,4.8,1.3,9.3,2.7,13.7,4Z"/>
  <path class="cls-135" d="M556.3,535c-.3,7.1-.7,14.2-1,22.1-7.8-.4-15.4-.8-23.4-1.2-1.3-5.8-2.5-11.6-3.8-17.4-.3,0-.5,0-.8,0v16.3h-20c.4-7.3.7-14.1,1.6-21.3,16.1.2,31.7.9,47.3,1.5Z"/>
  <path class="cls-28" d="M790.5,120.1c2.8,0,5.6-.1,8.8-.6,5.3-.8,10.1-1.1,14.9-1.4,2.1,10.9,4.2,21.9,6.3,32.8.1.8,0,1.6,0,2.9-5,.9-10,1.8-15.5,2.7-.9-5.3-2.1-10.2-2.3-15.1-.2-3.9-2.4-4.5-5.3-5.1-12.8-2.9-25.6-5.9-38.6-9.5,6.5-1.6,13.2-2.5,19.9-3.8,3.9-.7,7.8-1.9,11.7-2.9Z"/>
  <path class="cls-105" d="M1412.7,445c-1,5-1.2,10.3-3.1,15-5.6,13.9-24.3,17.6-35.4,7.3-4.2-3.9-5.7-8.7-4.7-15.4,4.7.5,9.4.9,14.8,1.6,5.3,4.5,6.7,4.5,9-.2-3-.4-5.9-.7-8.8-1.1-3.9-2.5-7.8-5.1-11.3-7.9,13.4,0,26.5.4,39.5.7Z"/>
  <path class="cls-36" d="M1121.5,43h74c-8.5,8-16.1,15.2-24.3,22.7-15.6-6.1-30.7-12.3-45.8-18.8-1.6-.7-2.6-2.6-3.9-3.9Z"/>
  <path class="cls-50" d="M692.9,276.5c-20.6,3-41.4,5.7-62.2,8.5-4.1.5-8.2,1.3-12.6,1.9-1.7-3.7-3.1-7.5-4.4-11.6,9.3-1.7,18.6-3.1,27.9-4.3,12.2-1.7,24.5-3.2,36.7-4.8,1.8-.2,3.6-.2,5.9-.3,3.1,3.4,5.8,6.8,8.7,10.6Z"/>
  <path class="cls-98" d="M1412.8,444.7c-13.2,0-26.3-.4-39.8-.7-5.7-10.7-.2-22.6,11.2-25.2,17.2-3.9,29.7,7.3,28.5,25.9M1395.2,436c-2.3-2.2-4.7-2.6-6.5.2-.4.7.7,3.5,1.5,3.7,2.4.5,5.2.6,5-3.9Z"/>
  <path class="cls-34" d="M1199.2,495.5c12.6-.4,25.2-.4,37.9-.5,2.3,0,4.5-.6,7.2-1,4.3,5.7,8.1,11.5,12.1,17.6-1.7,1-3.5,2.3-5.4,2.4-12.9.2-25.8.1-39.3.1-4.5-6.1-8.5-12.2-12.6-18.6Z"/>
  <path class="cls-61" d="M1121.1,42.9c1.6,1.4,2.7,3.3,4.3,4,15,6.5,30.1,12.7,45.6,19.1-3.4,4-7.1,7.9-11.5,11.9-10.8-3.9-21-7.6-30.9-12.1-7-3.1-13.5-7.3-20.2-11,4.1-4,8.3-8,12.8-11.9Z"/>
  <path class="cls-97" d="M1304.2,458.7c-12.7.4-25.2.4-38.2.3-.5-13.5-.5-27.1-.5-42.1,6.3,6.4,11.8,11.8,17.2,17.3,6.3,6.4,12.7,12.7,18.8,19.2,1.3,1.3,1.8,3.3,2.7,5.3Z"/>
  <path class="cls-131" d="M1108.1,54.9c7,3.6,13.6,7.7,20.5,10.9,9.9,4.5,20.1,8.1,30.6,12.2-3.4,4-7.2,7.9-11.7,11.8-9.4-3.3-18.3-6.5-27.1-10.2,0-2.5,0-4.5,0-7.6-3.6,2.2-6.2,3.7-8.9,4.9-3.2-2.2-6.3-4-9.3-5.9-2-1.3-3.9-2.8-5.8-4.2,3.8-3.9,7.6-7.8,11.7-11.8Z"/>
  <path class="cls-41" d="M1327.4,163.8c-3.5,3.6-6.9,7.1-11,10.6-1.8-.6-3-1.3-4.3-1.4-12.4-.7-24.8-1.1-37.2-2.2-8.5-.8-16.9-2.5-25.4-3.9,3.5-3.6,6.9-7.2,11.1-10.9,12.6.9,24.5,1.9,36.4,3.4.2,1.8.3,3.2.4,5,3-1.7,5.4-3.2,8.1-4.3,5.5.8,10.8,1.2,16,1.8,2,.2,3.8,1.2,5.7,1.8Z"/>
  <path class="cls-20" d="M603.3,347.6c-10.2,1.5-20.4,2.6-30.5,3.8-11.8,1.4-23.5,3-35.3,4.6-11.8,1.5-23.5,3.1-35.3,4.6-9.2,1.2-18.3,2.3-27.5,3.4-1.5.2-2.9.6-4.7.9-.8-1.1-1.3-2.3-1.8-3.7,1.9-5,6.5-3.5,9.9-4,13.2-2.3,26.4-4,39.7-5.7,10.4-1.3,20.9-2.2,31.4-3.5,12-1.4,23.9-3.2,35.9-4.6,5.6-.7,11.2-.9,17.3-1.4.7,1.7.9,3.5,1,5.7Z"/>
  <path class="cls-32" d="M1151.6,160.3c18-5.1,36.2-9.8,54.4-14.6.9-.2,1.9,0,3.1,0-11.8,11.9-23.9,23.7-36.5,36.1-6.7-6.8-13.7-14-20.9-21.6Z"/>
  <path class="cls-120" d="M603.9,93.2c-.4-1.4-.7-2.8-1.2-4.5,9.4-2.4,18.6-4.7,28-7.1-1.1-4.6-2-8.9-3.1-13.7,4.9-1.2,9.7-2.4,14.9-3.8,1.2,4.5,2.4,8.8,3.7,13.5,2.9-.6,5.7-.8,8.2-1.9,5.6-2.3,9.9-1.7,12.5,4.9,2.9-2,5.4-3.8,8.3-5.8.5,3.4,1,6.3,1,9.7-3.9.8-7.3,1.2-10.8,1.6-11.8,1.3-23.6,2.5-35.4,3.8-8.7,1-17.4,2.1-26,3.2Z"/>
  <path class="cls-138" d="M1068.1,94.9c6.1,2.9,11.7,6.3,17.7,8.9,8.6,3.8,17.5,7,26.3,10.5,1.3.5,2.2,1.8,3.4,3-23,.3-46.1.3-70.3.3,8-8,15.3-15.3,23-22.8Z"/>
  <path class="cls-1" d="M1195,467c-.5-16.1-.6-32.2-.6-48.8,10.7,15.4,21.2,31.3,31.9,47.6-10.2.7-20.5,1-31.3,1.3Z"/>
  <path class="cls-48" d="M1249.3,167.2c8.8,1.2,17.2,3,25.7,3.7,12.4,1.1,24.8,1.4,37.2,2.2,1.3,0,2.5.8,4,1.5-3.4,5.8-8.2,8-15.2,7.8-20.3-.5-40.6-.2-60.9-.2-1.6,0-3.2,0-5.9,0,5.5-5.6,10.2-10.2,15.2-15Z"/>
  <path class="cls-43" d="M1236.6,129.4c.8-1.3,1.7-2.8,2.8-3.1,15.4-4.2,30.9-8.1,46.4-12.1,1.1-.3,2.3,0,3.9,0-11.2,11.3-22.9,22.4-34.8,33.8-5.6-5.7-11.9-12-18.4-18.7Z"/>
  <path class="cls-135" d="M632.7,533.1c1.3.6,2.6,1.7,3.9,1.8,5.1.2,10.2,0,15.6,0v17.4c-13.8-.5-27.2-1.1-40.5-1.6,0-6.3,0-12,.5-18.2,7.2-.1,13.8.2,20.5.6Z"/>
  <path class="cls-79" d="M1342.1,442c-.3-1.3-.6-2.5-1-4h-10.2c-.2-4-.4-7.9-.5-10,4.6-3.7,8.2-6.6,11.8-9.4.6-.5,1.5-.8,2.2-.9,5.4-.4,10.8-.7,16.7-1,.5,9.9,1,19.1,1,28.8-7-.9-13.5-2.2-20-3.5Z"/>
  <path class="cls-116" d="M1166.2,445.3c7.3,10.9,14.2,22,21.3,33.4-10.3.4-20.7.4-31.6.4-.5-6.6-.8-13.3-.5-19.9,0-1.9,1.3-4,2.5-5.5,2.4-2.9,5.3-5.5,8.3-8.3Z"/>
  <path class="cls-101" d="M673.6,429.9c.8,4,1.6,8,2.1,12.5-6.1,2.9-11.8,5.2-17.6,7.5-.8-3.7-1.6-7.4-2.3-11.1-.7.1-1.4.2-2.1.3.9,7.1,1.8,14.2,2.8,21.9-6.1.9-12.1,1.9-18.8,2.9-.9-6.4-1.9-12.7-2.4-19.4,7-3,13.7-5.5,20.3-8,6-2.2,12-4.4,18.1-6.6Z"/>
  <path class="cls-75" d="M1478.4,454c.5,10.2-4.3,16.6-14.4,18-5,.7-10.3.5-15.2-.3-7.6-1.3-14.1-6.9-12.9-17.3,6.2-.4,11.8-.4,17.5,0,1.3,1.3,2.7,3.1,3.9,3,1.2-.1,2.2-2.2,3.7-3.3,6.1,0,11.8,0,17.4,0Z"/>
  <path class="cls-16" d="M1222.3,531.5c14-.4,28.1-.4,42.7,0,.5,5.8.5,11.2,0,16.5-2.4,0-4.4,0-6.4,0-8.3.3-16.7.7-25,1-3.7-5.7-7.5-11.5-11.4-17.5Z"/>
  <path class="cls-31" d="M1505.3,372.4c12.3-3.2,24.6-6.4,37.5-9.7,1.7,8.1,3.3,15.8,5.1,24.1-5.1.8-9.8,1.6-15.1,2-2.4-1.6-4.2-3.2-6.2-4.2-5.9-2.9-11.9-5.6-17.8-8.6-1.4-.7-2.4-2.4-3.5-3.6Z"/>
  <path class="cls-44" d="M1529.4,452c.3,1.8.9,3.6.7,5.4-.2,1.9-1.3,3.6-2,5.4-.5-.1-1.1-.3-1.6-.4v7.5c-6.1.5-12.1,1-18.5,1.5-.3-2.7-.6-5-1-7.8-6.5.4-12.9.8-19.8,1.3-.3-4.2-.6-8.1-.3-12.4,14.5-.5,28.5-.5,42.5-.5Z"/>
  <path class="cls-43" d="M1453.3,454c-5.6,0-11.3,0-17.4,0,1-3.8,2.5-7.7,4.3-12.5-.2-.4-1-2-1.5-4.1,5.6-.8,10.7-1.1,16.1-1.4,2.1,0,3.8,0,6,.1,2.5.4,4.6.6,6.7.8,3,.3,6,.7,9,1.1-1,1.8-1.9,3.7-2.7,5.2,1.6,3.4,3.1,6.7,4.6,10.4-5.7.4-11.3.4-17.7.2-3.1-2.1-5.3-2.1-7.4.2Z"/>
  <path class="cls-63" d="M1476.8,437.8c-3.3,0-6.3-.4-9.3-.8-2.1-.2-4.2-.5-6.6-1.2-1.6-1.6-2.8-2.7-4.1-3.8-.8,1.3-1.6,2.6-2.3,3.9-5.1.4-10.2.7-15.8,1.1-2.7-8.4,1.3-16.1,10-17.7,5.7-1,12-.9,17.6.3,8.7,1.9,12.2,8.4,10.5,18.1Z"/>
  <path class="cls-32" d="M563,189.4c4.9-1.1,9.7-1.7,14.8-2.4.1,5.3.1,10.6-.5,15.9-.7,6-4,9-10,9-6.2,0-12.4-.8-18.8-1.3v-16.2c4.6.9,8.9,1.7,13.6,2.6.3-2.6.5-4.9.9-7.6Z"/>
  <path class="cls-28" d="M660.8,136.1c-10.3,10.9-23.5,16.9-37.1,22.5-.8.3-2.5-.4-3.4-1.2-3.3-3-6.4-6.2-9.8-9.7,8.9-4.1,17.5-8,26.7-11.7,2.4.5,4.2.9,5.9.8,5.9-.2,11.8-.6,17.7-.9Z"/>
  <path class="cls-7" d="M603.9,93.6c8.6-1.5,17.3-2.6,26-3.6,11.8-1.3,23.6-2.6,35.4-3.8,3.4-.4,6.9-.7,10.7-1.1.8,2.7,1.1,5.4.9,8.5-5.1.8-9.8,1.1-14.4,1.4-.2-1.5-.4-2.9-.7-4.8-1.2,0-2.4-.2-3.4,0-11.3,2.8-22.6,5.6-33.9,8.4-1.8.5-3.9.6-3.1,3.9-5.1,1.2-9.9,1.9-14.6,2.6-1-3.7-2-7.4-3.1-11.6Z"/>
  <path class="cls-85" d="M1472.2,390.4c-.9-4.1-1.7-7.9-2.6-12.4,6.4-1.3,12.8-2.8,19.3-3.9.7-.1,2.3,1.3,2.5,2.2,1.6,6.9,2.9,13.9,4.5,21.6-6.9,1.5-13.6,2.9-21,4.5-.9-4.1-1.7-7.9-2.6-12.1Z"/>
  <path class="cls-62" d="M708.6,512c.3-4.2.6-8.5.9-13.4,14.8,1.3,29.2,2.5,44,3.8-.4,3.5-.7,6.6-1.6,10.1-14.8,0-29.1-.3-43.4-.6Z"/>
  <path class="cls-124" d="M673.6,429.6c-6,2.6-12,4.7-18.1,7-6.6,2.5-13.2,5-20.3,7.5-1.3-5.5-2.2-11-3.2-18,6.4,0,12,0,17.7,0,1,0,1.9-1,2.9-1.5,8.2-5.1,17.5-3.1,21.1,5.1Z"/>
  <path class="cls-57" d="M1342,442.4c6.6.9,13.1,2.2,20,3.6.9,7.2,1.5,14.3,2.1,22.1-6.9.4-13.4.8-20.6,1.3-.6-9.1-1.1-17.9-1.6-27Z"/>
  <path class="cls-74" d="M1270.5,532c1.7-.3,3.4-.9,5.1-1,9.2,0,18.4,0,28.1,0,.5,5.4.6,10.7,0,16.5-7.8.8-15,1.1-22.5,1.5-.2,0-.7,0-.8-.4-3.3-5.8-6.7-11.2-10-16.6Z"/>
  <path class="cls-81" d="M1297.1,159.2c-11.9-1-23.8-2.1-36.1-3.1,4.5-5,9.4-10,14.6-15.1,7.1.3,13.9.7,21.2,1.6.5,5.9.4,11.3.3,16.7Z"/>
  <path class="cls-29" d="M1233.7,549.3c8.3-.7,16.6-1,24.9-1.3,2,0,3.9,0,6.4.3.5.8.5,1.2.5,2.1,0,4.5,0,8.5,0,12.9,0,1.1,0,1.9-.5,2.6-7.1,0-13.8,0-20.4,0-3.6-5.4-7.2-10.9-10.8-16.7Z"/>
  <path class="cls-51" d="M1441.4,193.9c5.7-3.3,11.1-6.5,17-9.8,3.8,6.6,7.5,12.9,11.2,19.4-6.1,3.6-12,6.9-18.7,10.8-3.4-6.9-6.6-13.6-9.5-20.4Z"/>
  <path class="cls-83" d="M1415.3,209c4.9-2.8,9.5-5.5,14.6-8.4,3.7,6.5,7.4,12.7,11.3,19.4-6.2,3.6-12,6.9-18.3,10.6-3.5-6-6.9-11.6-10-17.5-.4-.7,1.3-2.6,2.4-4.1Z"/>
  <path class="cls-69" d="M713.8,112c-.1-1.5-.3-3-.4-4.8-7.6,3-15.1,5.5-22.2,8.9-4.3,2-7,1.2-9.4-2.6-1-1.5-2.2-2.8-3.5-4.5,6.3-2.8,12.3-5.5,19-7.9,2.2.5,3.8,1,5.4.9,7.5-.6,15.1-1.3,22.6-2,0,3.7,0,7.4-.6,11.5-4,.5-7.4.5-10.9.5Z"/>
  <path class="cls-57" d="M1504.9,372.5c1.6,1.2,2.5,2.8,3.9,3.6,5.9,3,11.9,5.6,17.8,8.6,2,1,3.8,2.5,5.8,4.2-10.7,2.3-21.6,4.3-33,6.4-1.4-6.9-2.8-13.3-4.3-20.3,3.3-.8,6.3-1.6,9.7-2.4Z"/>
  <path class="cls-93" d="M1261.5,88.1c6.2-2,12.4-4.1,18.6-6.1,3.6-1.1,7.3-2.1,11.4-3.1,4,3.4,7.5,6.9,11.2,10.6-11.1,3.3-22.3,6.3-34.2,9.2-2.8-3.6-4.9-7.1-7.1-10.6Z"/>
  <path class="cls-104" d="M396.6,537.1h-7.7v-14.7h28v14.7h-20.3Z"/>
  <path class="cls-104" d="M839.2,532.8c-.8,1.7-1.6,4.1-2.4,4.1-8.6.3-17.1.2-26,.2v-14.8h28.4c0,3.5,0,6.8,0,10.5Z"/>
  <path class="cls-104" d="M450.3,524.4c0,4.3,0,8.1,0,12.3h-28.5v-14.5c9,0,18,0,27.1,0,.5,0,.9,1.1,1.4,2.1Z"/>
  <path class="cls-104" d="M518.4,177.9c-2.2,4.6-4.4,8.9-6.9,13.9-8.8-3.9-17.4-7.7-26.6-11.7,3.5-4.4,6.6-8.1,9.8-12.1,8,3.2,15.9,6.4,23.7,9.9Z"/>
  <path class="cls-51" d="M658.2,500c-.3-2.8-.5-5.5-.8-9,11-.3,21.6-1.1,32.2-.7,6.3.2,11.1,4,13.3,10.4-15.2,0-29.9-.3-44.7-.7Z"/>
  <path class="cls-43" d="M1529.5,451.6c-14,.4-28,.4-42.5.4.3-3.5,1-7.1,2.4-10.8,5,.2,9.4.6,13.5,1.4.2,1.4.5,2.3.8,3.3.9-.6,2.1-1.1,2.6-2,.4-.7.1-1.9.6-2.9,6.1,0,11.7,0,17.3,0,.3.9.5,2.5.9,2.5,4.6.8,4.1,4.4,4.3,8Z"/>
  <path class="cls-78" d="M790.2,119.9c-3.6,1.1-7.4,2.3-11.4,3.1-6.7,1.2-13.4,2.2-20.2,3.6-5.7-1-11.3-2.3-17.2-3.7.3-2.6.5-4.9,1.3-7.5,7.3-1,14.1-1.6,20.8-2.3,8.8,2.2,17.6,4.5,26.7,6.9Z"/>
  <path class="cls-40" d="M805.8,525.2c0,4.1,0,7.7,0,11.6h-28v-14.7c8.7,0,17.3,0,25.9.1.7,0,1.5,1.6,2.2,3Z"/>
  <path class="cls-46" d="M562.3,507.1c.5-3.9,1.1-7.8,2.3-11.7,13.4.5,26.1,1.1,38.8,1.6.7,2.5,1.5,4.9,2.3,7.7-5.8.4-10.9,1-16,1.1-1.4,0-2.8-1.3-4.4-1.6-1.5-.3-4.1-1.5-3.1,2.5-6.8.4-13.4.5-20,.5Z"/>
  <path class="cls-108" d="M1308.3,140.1c5.2-.4,10.5-.8,15.7-1.1,7.9-.4,15.8-.7,23.7-1,1.3,0,2.6.4,4.2.7-3.8,4.4-7.9,8.6-12.7,12.8-6.7-.6-12.8-1.1-18.8-2-4-3.4-8.1-6.5-12.1-9.5Z"/>
  <path class="cls-109" d="M1120.5,80c8.8,3.2,17.6,6.5,26.8,9.9-3.8,4.4-7.9,8.6-12.3,13-4.7-1.2-9.2-2.6-14.1-4.4-.4-6.5-.4-12.5-.3-18.5Z"/>
  <path class="cls-10" d="M500.6,530v17.6h-21.2c0-5.6,0-11.1.5-17.2,7.3-.5,14-.5,20.7-.5Z"/>
  <path class="cls-14" d="M658.1,500.4c14.9,0,29.6.3,44.8.6.8,2.1,1.2,4.1,1.1,6.6-7,.1-13.5-.1-20.2-.7-1.7-.5-3.1-.7-4.8-1,0,2.1,0,3.5-.5,5-6.9-.3-13.4-.6-19.8-.9-.2-3.1-.4-6.2-.5-9.6Z"/>
  <path class="cls-49" d="M468.7,190.4c4.7-1.1,9.4-1.7,14.5-2.4,1.6,7.7,2.7,15.3,3.9,23.5-5.3.7-10,1.3-15.4,2-1-7.7-2-15.2-3-23.1Z"/>
  <path class="cls-84" d="M1265.5,566c0-.8,0-1.5.5-2.6,8.5-.4,16.5-.4,24.7,0,1.5,1.8,2.8,3.3,4.1,4.8-3.2,3.5-6.5,7-10.2,10.3-2-.6-3.6-1.3-5.1-1.4-4.6-.2-9.3,0-14-.5,0-3.8,0-7.2,0-10.5Z"/>
  <path class="cls-10" d="M714.5,448c-1,4.3-2,8.6-3,12.9h-24.9c-1-4-2.1-8-2.7-12.5,10.5-.4,20.5-.4,30.6-.4Z"/>
  <path class="cls-89" d="M612.9,508v-9c13.8.6,27,1.1,40.3,1.7,0,2.8,0,5.1-.6,7.9-13.6,0-26.6-.2-39.7-.6Z"/>
  <path class="cls-28" d="M738.9,536c-.4,5.4-.8,10.8-1.2,16.9-7.2-.7-14-1.3-21.3-1.9.4-5,.8-9.5,1.8-14.5,7.3-.4,14-.4,20.8-.4Z"/>
  <path class="cls-82" d="M1265,566c.5,3.4.5,6.7.5,11-.7,6.6-1.4,12.3-2.2,18.1-6.2-9.5-12.4-18.9-18.7-28.8,6.6-.3,13.2-.3,20.4-.3Z"/>
  <path class="cls-23" d="M783.9,75.8c6.7-6.4,13.3-12.9,20.3-19.6,4,2.5,8.4,5.2,14.1,8.8-4,3.5-7.5,6.6-11.8,9.9-8,.4-15.3.6-22.5.9Z"/>
  <path class="cls-105" d="M763.6,112.7c-6.8,1-13.6,1.6-20.7,2.3-1-4.2.4-7.2,4.2-9.4,3.1-1.8,5.9-4.2,9.3-6.1,5.4.1,10.3,0,15.2,0,2.1,0,4.1.7,6.2,1.1-4.7,3.9-9.4,7.9-14.2,12.1Z"/>
  <path class="cls-84" d="M1427.2,480.4c-5.5,7.2-6.4,7.2-13.1.5,2.1-1.3,4.2-2.6,6.4-3.9-.5-.5-.9-1.1-1.4-1.6-1.7-.4-3.4-.7-5.6-1.2.5-4.7,1.1-9.3,1.6-14.3,5.3.6,10.1,1.2,15.9,1.9-1.2,6.4-2.4,12.4-3.8,18.7Z"/>
  <path class="cls-109" d="M766.4,439c-.4,0-.8,0-2,0-6.5,0-12.3,0-18.1,0,0-1.7-.1-3.4.4-5.5,19.3-.4,37.9-.4,56.6-.4.1,1.7.3,3.4-.2,5.6-6.3.4-12,.5-17.8.5-.4,0-.8,0-1.9,0-6.2,0-11.6,0-17.1,0Z"/>
  <path class="cls-110" d="M1503.1,442.2c-4.3-.4-8.6-.8-13.4-1.3.8-3.1,2.2-6.3,4.2-9.6,10.3-.3,20-.3,29.6-.3.3,3,.7,6.1.9,9.6-5.7.4-11.3.4-17.5.1-.7-1.1-.8-2-1.1-4-1.3,2.6-2,4-2.8,5.5Z"/>
  <path class="cls-64" d="M708.5,512.4c14.4-.1,28.7.2,43.4.6.5.2.5.3.5.5q0,7.9-7.6,7.5c-1.1,0-2.3-.1-4.3,0-7.6-.2-14.3-.6-21-.9-3.5-.9-7-1.9-11-3,0-1.1,0-2.6,0-4.6Z"/>
  <path class="cls-68" d="M753.6,373.9c4.9.4,9.3.6,14.6.9,0,1.5.2,4.4,0,7.3-.3,3.3-6.1,5.1-11.3,4.1-5.1-.9-10.4-1.3-16.1-1.9-2.1-10.5,1.9-12.5,12.9-10.4Z"/>
  <path class="cls-109" d="M1096.1,66.9c2.2,1.3,4.1,2.8,6.1,4.1,3,1.9,6.1,3.7,9.1,6.2-4.9,3.7-9.7,6.8-14.5,9.9-4.6-2-9.2-3.9-14.1-6,4.2-4.8,8.7-9.4,13.5-14.1Z"/>
  <path class="cls-126" d="M707.5,383.7c0-9.9,3.9-12.4,13.3-9.8,4.2,1.1,8.8.7,14.3,1.1-.2,2.1.7,6.8-1.2,9-1.8,2.1-6.8,2.6-10,2-5.1-.9-9.8-2.9-14.9-.2-.2,0-1-1.1-1.5-2.1Z"/>
  <path class="cls-136" d="M1523.5,430.5c-9.7.5-19.4.5-29.5.5.7-2.7,1.6-5.6,3-8.2.6-1.1,2-2.4,3.2-2.5,7.2-.7,14.5-1.1,22.5-1.7.3,4,.6,7.7.8,11.9Z"/>
  <path class="cls-71" d="M668,384.1c-3.8.9-7.3,1.9-10.8,1.9-5.1,0-10.1-1-15.7-1.6,0,.3-.1-.8-.1-1.9-.2-8.1,3.8-10.8,11.8-9,4.8,1.1,9.8,1.1,15.2,1.7,0,1.9,0,5.3-.3,9Z"/>
  <path class="cls-28" d="M741.2,445v15.7h-19c0-5,0-9.9.6-15.3,6.5-.5,12.5-.5,18.4-.5Z"/>
  <path class="cls-107" d="M678.5,384.9c-1.5.4-2.5.8-3.8,1.2,0-1.6-.2-2.9-.2-4.2,0-7.3,3.9-10.1,11.3-8.6,5,1,10.1,1.4,16.2,2.2-.4,2.1.2,7.4-1.8,8.8-2.8,1.9-7.7,1.2-11.6,1.2-3.2,0-6.4-.4-10-.6Z"/>
  <path class="cls-29" d="M1295,567.9c-1.6-1.4-2.9-2.9-4.5-5-3.2-5.1-6.1-9.5-9-14,7.3-.3,14.5-.7,22.2-1,3,9-2.2,14.6-8.7,19.9Z"/>
  <path class="cls-138" d="M556.6,526c0,1.7,0,3.4-.6,5.5-16.1-.2-31.7-.9-47.2-1.6,0-1.8.1-3.5.9-5.7,9.7,0,18.7.4,27.8,1,.7.7,1.4,1.5,1.9,1.3,1.6-.4,3-1.6,4.5-1.6,4.2,0,8.5.5,12.7.9Z"/>
  <path class="cls-98" d="M778.1,100.4c-2.4-.2-4.4-.9-6.5-.9-4.9,0-9.8.1-14.9,0,4.6-4.3,9.3-8.3,14.7-12.1,7.8,0,14.9-.1,22.1-.3-5,4.4-10.1,8.8-15.4,13.4Z"/>
  <path class="cls-65" d="M633.1,533c-7.1-.3-13.8-.6-20.8-1-.3-2.1-.3-4.3.4-6.7,12.9,0,25.1.3,37.3.7v7c-5.9,0-11.2,0-16.9,0Z"/>
  <path class="cls-9" d="M725.4,99.7c-7.7,1-15.2,1.7-22.8,2.2-1.6.1-3.2-.4-5.1-1,6.5-4.3,13.3-8.2,20.7-11.8,3.6.2,6.6.1,9.6.3,2.9.2,5.8.6,8.8.9-3.7,3-7.4,6.1-11.2,9.4Z"/>
  <path class="cls-51" d="M603.3,496.7c-12.7-.2-25.4-.8-38.4-1.5,8.9-11.6,30.8-10.8,38.4,1.5Z"/>
  <path class="cls-30" d="M803.6,446v14.9h-17.8c0-4.8,0-9.4.5-14.4,6.1-.5,11.7-.5,17.2-.5Z"/>
  <path class="cls-86" d="M763.9,446v14.7h-17.9c0-4.6,0-9.3.6-14.4,6.2-.3,11.7-.3,17.3-.3Z"/>
  <path class="cls-24" d="M746,429.2c-.2-1.6-.4-3.2-.7-6,6.3.9,12,1.7,17.6,2.4.8.1,1.8-.4,2.7-.8,5.4-2.6,10.5-2.8,15.4,1.1,8.2-4.6,14.8-4.1,20.1,1.8-3.4.7-6.6,1.3-9.7,1.3-15.1.1-30.3.1-45.4.2Z"/>
  <path class="cls-65" d="M1320.4,150c6.1.5,12.1,1.1,18.6,1.8-3.4,4-7.2,7.9-11.2,11.9-2.2-.5-4.1-1.4-6-1.6-5.3-.6-10.6-1-15.9-2.1,4.9-3.8,9.7-6.9,14.5-10Z"/>
  <path class="cls-64" d="M793.8,86.9c-7.5.3-14.7.4-22.1.3,3.7-3.9,7.6-7.5,11.9-11.3,7.5-.4,14.8-.6,22.5-.9-3.7,3.9-7.8,7.8-12.3,11.9Z"/>
  <path class="cls-102" d="M650.2,525.6c-12.3.1-24.6-.2-37.3-.6-.5-2-.5-4.1,0-6.6,7.2-.4,13.8-.4,20.4-.4,5.5.4,11,.9,16.9,1.4,0,1.9,0,3.8-.1,6.2Z"/>
  <path class="cls-79" d="M607.1,105.6c4.7-1.1,9.4-1.8,14.6-2.6,1.9,4.9,3.3,10,4.9,15.6-5.2,1.3-10.1,2.5-15.4,3.8-1.5-5.8-2.8-11.1-4.2-16.8Z"/>
  <path class="cls-28" d="M604.4,534c-8.5,10.7-29.8,10.6-38.4-.6,13.1,0,25.7.3,38.4.6Z"/>
  <path class="cls-78" d="M661.1,136c-6.2.4-12.1.8-17.9,1-1.8,0-3.5-.4-5.6-.9,4.2-3.8,8.7-7.3,13.9-10.9,4.7-.4,8.6-.9,12.6-1,1.8,0,3.7.7,5.5,1-2.7,3.5-5.5,7.1-8.5,10.8Z"/>
  <path class="cls-88" d="M681.8,533c-.4-.4-.8-.9-1.5-1.8-1.7.3-3,1.6-4.5,1.7-5.4.3-10.9.1-16.3,0-.1-1.7-.2-3.4.1-5.6,11.6-.4,22.7-.4,33.8-.4,2.4,0,4.7,0,7.1,0,1,1.7,2,3.5,2.7,5.9-7.3.5-14.4.3-21.5.2Z"/>
  <path class="cls-49" d="M658.2,450.5c5.7-2.8,11.5-5.1,17.6-7.5,1.2,4.7,2,9.6,2.8,15-6.4,1-12.4,1.8-19,2.8-.5-3.4-.9-6.6-1.4-10.3Z"/>
  <path class="cls-91" d="M658.5,510.4c6.5-.1,13,.2,20.1.5,2,0,3.3,0,5,0,2.3.4,4.2.8,6.1.9,4.5.4,9,.7,13.5,1-.9,1.6-1.9,3.2-3.5,5-14.2-.3-27.6-.6-41-1,0-2-.2-4.1-.2-6.6Z"/>
  <path class="cls-17" d="M1263.4,595.4c.6-6,1.4-11.8,2.1-17.9,4.7-.5,9.3-.6,14-.4,1.5,0,3.1.8,4.8,1.5-5.5,6.2-11.3,12.1-16.9,18.1-2,2.1-3,1.1-3.9-1.3Z"/>
  <path class="cls-65" d="M814.2,117.6c-4.8.7-9.6,1.1-14.8,1.4-1.5-4.5-2.5-9-3.7-14.1,4.9-.7,9.6-1.3,14.9-2,1.3,4.9,2.5,9.6,3.7,14.7Z"/>
  <path class="cls-50" d="M746,429.5c15.1-.4,30.2-.4,45.4-.6,3.1,0,6.2-.6,9.8-1,1,1.4,1.7,2.9,2.2,4.6-18.7.4-37.4.4-56.6.4-.6-1-.7-2.1-.8-3.5Z"/>
  <path class="cls-9" d="M601.5,512.2c1.6,2,3.3,4.1,4.5,6.4-6.4.3-12.5.2-18.5.4-1.4,0-2.7,1.1-4,1.7-6.8-1.1-14.3-.4-18.7-7.4,11,0,21.6.3,32.2.5,1.5,0,3-1.1,4.5-1.7Z"/>
  <path class="cls-7" d="M736.9,90.1c-3.2-.2-6.1-.6-9.1-.7-3-.2-6,0-9.3-.4,6.2-5.1,12.6-9.9,19.5-15,2.5,2.1,5.4,4.5,8.8,7.4-3.4,3-6.5,5.8-9.9,8.7Z"/>
  <path class="cls-81" d="M563.2,528.1c-.3-1.6-.6-3.1-1-5,5.4-.4,10.4-.8,15.3-1,1.3,0,2.6,1,3.9,1.3,1.8.4,3.6.5,6.3.6,7.1.2,13.4.6,19.7.9,0,1.2-.2,2.3-1,3.8-14.9,0-29-.3-43.2-.6Z"/>
  <path class="cls-83" d="M741.4,411.2c0,3.7,0,7,0,10.5h-18.9v-12.5c6.4.5,12.6,1,18.8,2Z"/>
  <path class="cls-7" d="M601.2,512c-1.2.8-2.7,1.9-4.2,1.9-10.6-.2-21.2-.6-32.3-.8-1.1-1.7-1.8-3.5-2.4-5.6,6.6-.4,13.2-.5,20.3-.6,6.4,1.6,12.4,3.3,18.6,5.2Z"/>
  <path class="cls-86" d="M783.1,448v12.7h-16.4c0-4,0-7.9.5-12.2,5.7-.5,10.8-.5,15.9-.5Z"/>
  <path class="cls-89" d="M479.6,506v-9.6h21.4c0,3.1,0,6-.6,9.3-7.4.3-14.1.3-20.8.3Z"/>
  <path class="cls-92" d="M700.5,526.6c-2.3.4-4.7.4-7.1.4-11.1,0-22.2,0-33.7,0-.6-1.4-.8-2.9-.5-4.7,13.3-.4,26.1-.4,38.9-.4.8,1.4,1.5,2.9,2.3,4.6Z"/>
  <path class="cls-70" d="M698.1,521.6c-12.7.4-25.5.4-38.8.4-.5-1.4-.7-2.8-.7-4.6,13.5,0,26.9.3,40.8.7-.2,1.1-.8,2.1-1.3,3.5Z"/>
  <path class="cls-30" d="M659.5,533.4c5.5-.4,10.9-.3,16.3-.6,1.4,0,2.8-1.4,4.3-2.1.1,3.5.1,7,.1,10.9-6.8.3-13.3.7-20.8,1.1,0-3.1,0-6,0-9.3Z"/>
  <path class="cls-2" d="M714.7,447.7c-10.2.3-20.2.3-30.7.3-.9-1.4-1.3-2.8-1.3-4.6,5.6-.4,10.7-.4,15.8-.4.1.3.3.6.4.8.3-.8.5-1.5,1.3-2.6,2.4-.3,4.2-.6,6-.2,3.2.6,6.4,1.5,9.6,2.3-.3,1.4-.6,2.7-1,4.3Z"/>
  <path class="cls-108" d="M669.9,125c-2.1-.2-4-.9-5.8-.8-3.9,0-7.9.5-12.2.8,2.1-3.5,4.6-7,7.9-10.7,5.6-.6,10.6-.9,15.5-1.2-1.7,3.9-3.4,7.9-5.3,12Z"/>
  <path class="cls-123" d="M563.2,528.5c14.1,0,28.3.3,42.9.6,0,1.5-.7,3-1.5,4.7-12.9-.1-25.6-.4-38.7-.8-1.2-1.4-1.9-2.8-2.7-4.5Z"/>
  <path class="cls-92" d="M537.4,525.1c-9-.4-18.1-.7-27.6-1.1-.5-2-.4-4.1.2-6.6,9.1-.4,17.7-.4,26.2-.4.2.7.5,1.4,1,2.3.3.2.3.1.2.6,0,2,0,3.5,0,5.1,0,0,0,0,0,0Z"/>
  <path class="cls-24" d="M509.8,511v-8c7.8.4,14.9.4,21.9,1.4,1.4.2,2.3,4.3,3,7.1-8.6.1-16.7-.2-24.8-.5Z"/>
  <path class="cls-27" d="M612.8,508.4c13.1,0,26.2.3,39.6.6.4,1.4.4,2.9-.2,4.6-3.5,0-6.4-.6-9.3-.6-10.1-.1-20.1,0-30.2,0,0-1.4,0-2.8,0-4.6Z"/>
  <path class="cls-50" d="M612.6,513.4c10.1-.4,20.2-.5,30.3-.4,2.9,0,5.9.6,9.2.9.9,2.4.5,3.7-2.5,3.5-5.2-.3-10.5-.2-16,.2-6.8.4-13.5.4-20.6.4-.5-1.4-.5-2.8-.4-4.6Z"/>
  <path class="cls-48" d="M681.8,533.3c7-.2,14.1,0,21.5-.2,1.6,2.1,3,4.5,4.6,7.4-7.4.4-14,.9-20.6.9-1.1,0-2.6-1.6-3.4-2.8-1-1.5-1.4-3.3-2.2-5.4Z"/>
  <path class="cls-31" d="M719.3,520.4c6.9,0,13.6.3,20.7.6.2,2.4-.1,4.8-.9,7.6-7.2,0-13.8-.3-20.5-.6.2-2.4.4-4.8.7-7.6Z"/>
  <path class="cls-79" d="M675.4,112.6c-5.1.7-10,1-15.4,1.4.5-3.4,1.4-6.9,2.9-10.6,5.2-.7,9.8-1,14.5-1.4-.6,3.4-1.2,6.8-1.9,10.6Z"/>
  <path class="cls-138" d="M718.6,528.4c6.7,0,13.4.3,20.5.6.4,2.1.3,4.1,0,6.6-6.9.4-13.6.4-20.8.4-.2-2.4,0-4.8.3-7.6Z"/>
  <path class="cls-9" d="M509.7,511.4c8.2-.1,16.4.2,25,.5.8,1.5,1.2,2.9,1.5,4.8-8.6.3-17.1.3-26.2.3-.5-1.7-.5-3.4-.4-5.6Z"/>
  <path class="cls-138" d="M784.5,384c-3.4.5-6.8,1-11.1,1.6.4-3.5-.4-8.3,1.6-10.3,4.1-4.2,9.8-2.6,15.2.1-.6,1.9-1.4,3.4-2.4,4.7-1,1.3-2.1,2.6-3.2,3.8Z"/>
  <path class="cls-24" d="M538,513v-7.7h20c-.2,2.8-.3,4.9-1,7.3-6.7.4-12.9.4-19,.4Z"/>
  <path class="cls-17" d="M784.8,384.3c.8-1.5,1.9-2.7,2.9-4,1-1.4,1.9-2.8,2.8-4.6,3.4-.8,6.7-1.3,10.8-1.8,0,2.6.7,5.9-.2,8.6-1.4,4.4-5.9,4.1-9.5,4-2.2,0-4.4-1.3-6.9-2.2Z"/>
  <path class="cls-87" d="M741.3,444.6c-6,.4-12,.4-18.4.4-.5-2.4-.6-4.8,0-7.6,6.5-.4,12.5-.4,18.4-.4,0,2.4.1,4.8,0,7.6Z"/>
  <path class="cls-91" d="M679.3,432.1c-.8-2.5-1.5-4.9-2.4-7.8h19.3c.4,2.4.8,4.7.6,7.4-6.2.4-11.9.5-17.6.5Z"/>
  <path class="cls-28" d="M508.7,530.4c15.7.3,31.2,1,47.2,1.6.5.8.5,1.5.4,2.6-15.7-.3-31.3-1-47.3-1.6-.4-.8-.5-1.5-.4-2.6Z"/>
  <path class="cls-42" d="M500.7,529.6c-6.8.4-13.5.4-20.7.4-.5-2-.6-4.1,0-6.6,7.3,0,14,.2,20.7.6,0,1.7.1,3.4,0,5.6Z"/>
  <path class="cls-126" d="M537.9,513.4c6.3-.4,12.4-.4,19-.4.4,2,.4,4.1,0,6.6-6.5.4-12.4.4-18.6.3-.4-.2-.6-.3-.7-.4,0,0,0,0,0,0,0-1.9.2-3.7.4-6.1Z"/>
  <path class="cls-115" d="M724.7,122v12.1h-11.1c0-3.7,0-7,.5-10.7,3.9-.8,7.3-1.1,10.6-1.4Z"/>
  <path class="cls-70" d="M741.3,436.6c-6,.4-12,.4-18.4.4-.5-2-.6-4.1,0-6.6,6.5-.4,12.5-.4,18.4-.4,0,2,0,4.1,0,6.6Z"/>
  <path class="cls-84" d="M764,445.6c-5.7.4-11.2.4-17.2.4-.6-2.1-.7-4.3-.6-6.7,5.9-.3,11.7-.3,17.9-.2.3,2.1.2,4.1,0,6.6Z"/>
  <path class="cls-33" d="M500.7,523.6c-6.8,0-13.5-.2-20.7-.6-.5-1.7-.6-3.4,0-5.6,7.3-.4,14-.4,20.7-.4,0,2,.1,4.1,0,6.6Z"/>
  <path class="cls-67" d="M671.8,67.7c1.2,1.4,2.1,2.5,3.2,4-2.4,1.9-4.6,3.6-7,5.6-3-3.6-5.8-7-8.9-10.7,2.4-1.8,4.6-3.5,7-5.3,2,2.2,3.7,4.2,5.7,6.5Z"/>
  <path class="cls-67" d="M677.5,56.9c2.3,2.6,4.4,4.9,6.7,7.6-2.5,2-4.6,3.7-7.1,5.6-3-3.4-5.8-6.6-9.2-10.4,3.5-.8,4.2-7,9.5-2.8Z"/>
  <path class="cls-79" d="M679.3,432.4c5.7-.4,11.4-.4,17.5-.5.8,2.1,1.1,4.1.9,6.6-5.9.4-11.3.5-16.7.5-.6-2.1-1.1-4.2-1.7-6.7Z"/>
  <path class="cls-111" d="M803.7,445.5c-5.6.4-11.2.4-17.2.5-.6-2-.7-4.1-1-6.5,5.6-.4,11.4-.5,17.6-.5.5,2,.6,4.1.6,6.5Z"/>
  <path class="cls-84" d="M724.8,121.7c-3.6.7-6.9,1-10.8,1.3-.4-3.4-.5-6.7-.4-10.6,3.5-.5,7-.5,10.8-.5.4,3.1.5,6.2.3,9.7Z"/>
  <path class="cls-131" d="M677.4,101.6c-4.7.8-9.3,1.1-14.4,1.4-.4-2.4-.4-4.7-.4-7.6,4.7-.8,9.3-1.1,14.4-1.4.5,2.4.5,4.7.4,7.6Z"/>
  <path class="cls-70" d="M500.7,516.6c-6.8.4-13.5.4-20.7.4-.5-1.7-.6-3.4,0-5.6,7.3,0,14,.2,20.7.6,0,1.4.1,2.8,0,4.6Z"/>
  <path class="cls-105" d="M538.4,520c6,0,11.9,0,18.3,0,.3,1.8.3,3.6,0,5.7-4.4,0-8.6-.5-12.9-.5-1.5,0-3,1.2-4.5,1.6-.5.1-1.2-.7-1.9-1.3,0-.3,0-.4.3-.6.4-1.7.5-3.2.6-4.7Z"/>
  <path class="cls-122" d="M741.3,429.6c-6,.4-12,.4-18.4.4-.5-1.8-.5-3.6-.5-5.7h18.9c0,1.7,0,3.3,0,5.3Z"/>
  <path class="cls-69" d="M607.4,524.6c-6.4,0-12.7-.3-19.5-.6-1.6-1-2.7-2-4.1-3.1,1-.7,2.3-1.8,3.7-1.8,6-.2,12,0,18.5,0,.8,1.7,1.1,3.5,1.4,5.6Z"/>
  <path class="cls-92" d="M716,443.1c-3.4-.5-6.6-1.4-9.9-2-1.8-.3-3.6,0-5.9,0-.3-1.8-.2-3.5.6-5.7,6.2-.3,11.7-.3,17.3-.2-.6,2.5-1.3,5.1-2.1,7.9Z"/>
  <path class="cls-9" d="M718.2,434.8c-5.7.2-11.3.2-17.3.2-.3-1.8-.2-3.6.7-5.7,6.4,0,12.1.4,17.7.7-.3,1.5-.7,3-1.1,4.8Z"/>
  <path class="cls-61" d="M500.7,511.6c-6.8,0-13.5-.3-20.7-.6-.5-1.4-.6-2.8-.6-4.6,6.8-.4,13.5-.4,20.7-.4.5,1.7.6,3.4.5,5.5Z"/>
  <path class="cls-24" d="M719.5,429.7c-5.8,0-11.5-.3-17.7-.7-.4-1.5-.3-3-.2-4.7h19.4c-.5,1.7-.9,3.4-1.5,5.4Z"/>
  <path class="cls-78" d="M783.2,447.6c-5.2.4-10.3.4-15.9.4-.5-2.3-.6-4.7-.3-7.2,1.7.6,3,2,4.4,2.1,3.9.3,7.8.1,11.7.1,0,1.4.1,2.8.1,4.6Z"/>
  <path class="cls-36" d="M703.4,512.7c-4.7,0-9.2-.3-13.7-.7-1.9-.2-3.8-.5-6-1.2-.1-1.5,0-2.5.2-3.6,6.5.3,13,.5,19.9.8.2,1.4,0,2.9-.4,4.7Z"/>
  <path class="cls-87" d="M783.2,442.6c-4,.4-7.9.6-11.8.3-1.4-.1-2.7-1.5-4.3-2.5-.3-.4-.4-.6-.5-1.1,5.4-.3,10.8-.4,16.7-.3.3,1.1.2,2.2,0,3.6Z"/>
  <path class="cls-108" d="M681.1,439.5c5.4-.4,10.8-.4,16.6-.5.6,1.1.7,2.1.7,3.6-5.1.4-10.2.4-15.8.5-.8-1.1-1.1-2.1-1.5-3.6Z"/>
  <path class="cls-59" d="M1384.5,452.5c2.9.1,5.8.5,8.8.8-2.4,4.6-3.7,4.7-8.6.1-.2-.4-.2-.6-.2-1Z"/>
  <path class="cls-26" d="M929.3,479c.3.5.4,1,.4,1.5-.4-.3-.8-.7-1.2-1.3.2-.2.3-.2.8-.2Z"/>
  <path class="cls-128" d="M1193.4,597.3c-.1-.2.3-.3.5-.3,0,.1-.2.3-.5.3Z"/>
  <path class="cls-54" d="M725.7,226.7c-.9,1-1.9,2.3-3,2.3-13.4.8-26.9,1.5-40.8,2.1,3.9-15.2,23-22.8,36.2-14.3,3.2,2.1,5,6.3,7.6,9.9Z"/>
  <path class="cls-106" d="M929.5,263.7c1.1,4.7,2,9.1,3,13.9-.3,5.4-.7,10.5-1,15.9-2.3,5.6-5,10.2-11.6,10.6-7.3.4-11-2.1-14.8-10.4-.8-6.8-1.4-13.4-2-20.3,0-1.7.2-3,.4-4.4,1-7.6,4.5-11.9,10.8-13.2,6.9-1.4,10.9.6,15.3,7.8Z"/>
  <path class="cls-22" d="M1188.2,119.9c-4.4,8-9.3,16.1-14.7,24.8-3.9-5.9-7.3-11.1-10.9-16.5-1.6-2.7-3-5.1-4.8-8.4,10.5,0,20.2,0,30.4,0Z"/>
  <path class="cls-39" d="M1471.8,340.2c-2.1-4.4,0-6.1,3.9-6.2,1.9,0,3.8.5,6.1,1,.8,5.4-2.2,7-10,5.2Z"/>
  <path class="cls-79" d="M1265.5,550c0-.4,0-.9,0-1.7,0-5.7,0-11,0-16.8,0-1.9.2-3.3.3-5.7,1.8,2.5,3,4.2,4.4,6,3.6,5.6,6.9,11,9.9,17-5.1.7-9.8,1-14.6,1.2Z"/>
  <path class="cls-22" d="M1261.2,87.9c2.4,3.7,4.6,7.2,7,10.9,1.2,1.9,2.2,3.7,3.6,6.2-9.4,0-18.2,0-27,0-1.3,0-2.5-.7-3.7-1.4,4.9-7.7,9.8-15.1,15-23,1.8,2.7,3.4,4.9,5.2,7.4Z"/>
  <path class="cls-106" d="M1320.4,149.6c-4.9,3.5-9.7,6.6-14.8,10-2.7,1.7-5.1,3.2-8.1,4.9-.1-1.8-.3-3.2-.4-5,0-5.8,0-11.2,0-17.1,0-3,.2-5.6.4-8.9,3.7,2.4,6.8,4.4,10.3,6.5,4.4,3.1,8.4,6.2,12.5,9.6Z"/>
  <path class="cls-59" d="M1096.7,87.4c4.8-3.4,9.6-6.5,14.7-9.9,2.8-1.8,5.3-3.3,8.9-5.5,0,3,0,5.1,0,7.6,0,6.5,0,12.5,0,19,0,1.7-.3,3-.6,5.4-8.1-5.7-15.6-10.9-23.1-16.5Z"/>
  <path class="cls-59" d="M1395.3,436.4c.1,4.2-2.7,4.1-5.1,3.6-.8-.2-1.9-3-1.5-3.7,1.8-2.9,4.2-2.4,6.6.1Z"/>
  <path class="cls-39" d="M1453.3,454.4c2-2.6,4.3-2.7,6.9-.6-.8,1.4-1.8,3.4-3,3.6-1.2.1-2.6-1.7-3.9-3Z"/>
  <path class="cls-39" d="M1454.9,436c.4-1.4,1.2-2.7,2-4.1,1.2,1.1,2.5,2.1,3.7,3.6-1.8.4-3.6.5-5.7.4Z"/>
  <path class="cls-105" d="M1265.5,550.5c4.8-.7,9.5-.9,14.6-1.3.4-.2.9-.2,1.1-.2,3.1,4.5,6.1,8.9,9.1,13.7-7.9.3-15.9.3-24.4.3-.5-4-.5-8-.5-12.5Z"/>
  <path class="cls-39" d="M1502.9,442.6c.9-1.8,1.6-3.3,2.9-5.9.3,2,.4,2.8.6,4,0,1.3.4,2.5,0,3.2-.5.9-1.7,1.3-2.6,2-.3-1-.6-1.9-.8-3.3Z"/>
  <path class="cls-59" d="M683.7,506.9c0,1.3,0,2.3-.4,3.7-1.4.3-2.7.4-4.2.4-.3-1.5-.3-2.9-.3-5,1.7.3,3.1.5,4.8,1Z"/>
  <path class="cls-94" d="M538.2,519.8c.1,1.7,0,3.2-.4,4.9-.3-1.3-.4-2.8-.4-4.8.2-.4.4-.3.8,0Z"/>
</svg>